<svg xmlns="http://www.w3.org/2000/svg" viewBox="0 0 400 400" id="Page-Not-Found-3--Streamline-Milano.svg" height="400" width="400"><desc>Page Not Found 3 Streamline Illustration: https://streamlinehq.com</desc><g fill="#000000"><path d="m384.94 314.58 1.04 -0.88a98.32 98.32 0 0 0 -7.02 -21.46c-4.66 -9.3 -9.46 -12.12 -9.66 -18.34 -0.92 -30.84 -5.32 -38 -6.7 -39.46 2.46 -4.18 1.66 -9.56 0.58 -14.22a139.82 139.82 0 0 0 -5.08 -17.02c5.2 0.82 30.96 0 30.96 0 0.36 0 0.32 -0.7 0 -0.68 -5.16 0.26 -25.74 0.36 -30.88 0.44 -0.5 -1.34 -1 -2.66 -1.54 -4 -2.38 -5.82 -4.9 -12.3 -9.14 -17.02 -4.9 -5.46 -13.68 -6.24 -16 -6.26a51.44 51.44 0 0 1 -0.78 -14.56c0.38 -2.62 -0.48 -3.46 -0.48 -3.46l-21.88 -0.96c-1.06 2.46 0 8 0 8 0.5 5.8 3.08 10.7 9.66 10.98 0 0.74 -0.14 1.48 -0.2 2.24a22 22 0 0 1 -8.2 -2.3c-2.56 -1.52 -3.72 -4.18 -5.48 -6.44 1.22 -6 2.64 -13.24 2.7 -13.48l23.62 0.62a3.68 3.68 0 0 1 0.86 3.7 2.74 2.74 0 0 0 3.78 -2.46c0.72 -3.64 -4.8 -6 -4.8 -6a15.88 15.88 0 0 1 -3.68 -1.42c0.84 -3.28 4.46 -1.84 4.46 -1.84v-3.14a5.38 5.38 0 0 0 -3.68 0.16 4.38 4.38 0 0 0 -1.64 4.14 3.04 3.04 0 0 1 -0.9 -1c-2.54 -4.4 -11.46 -7.08 -15.6 -4.94 1.16 -7.4 1.36 -15.88 -3.16 -21.88 -2.82 -3.76 -7.28 -5.14 -11.72 -5.66 -14 -1.64 -163.48 -26.78 -169.7 -27.74a12 12 0 0 0 -6.9 0.58c-11.86 5.04 -15.26 23.6 -47.12 83.7a14.18 14.18 0 0 1 -0.84 -9.12c0.62 -0.54 2.58 -2.54 0.84 -4.52a7.64 7.64 0 0 0 -3.48 -1.58 12.96 12.96 0 0 1 -0.32 5.48 15.08 15.08 0 0 1 2.68 0.64c0 0.24 -0.14 0.48 -0.2 0.74a0.8 0.8 0 0 0 -0.26 -0.26 12.3 12.3 0 0 0 -5 -0.64A29.08 29.08 0 0 1 59.6 162a13.28 13.28 0 0 0 -11.22 1.42s-1.08 0.52 -0.94 1.32 2 9.28 4.6 12a6 6 0 0 0 3.04 1.82c0.74 0.14 1.44 -0.1 2.14 0 1.04 0.14 1.46 0.44 1.66 0.92 -8.4 3.4 -12.22 11.18 -14.28 19.5 -5 -0.24 -26.76 0.54 -32.72 0.7a0.16 0.16 0 0 0 0 0.3c6 0.28 29.2 0 32.54 -0.36a116.54 116.54 0 0 0 -2 11.62 117.8 117.8 0 0 0 -21.82 2.3v1.26a10.26 10.26 0 0 0 -1.48 -2 4 4 0 0 0 -2.12 -1.6c-1.76 -0.4 -1.1 1.82 -0.46 3a5.74 5.74 0 0 0 -2.54 -0.46c-0.68 0 -2 -0.22 -2.5 0.24s-0.38 0.86 0.16 1.22a0.86 0.86 0 0 0 -0.72 0.56c-0.18 0.46 0.14 0.88 0.44 1.22a4.72 4.72 0 0 0 0.84 0.72c-1.42 0.84 2 3.02 2.82 3.24a10 10 0 0 0 6.12 0 12 12 0 0 0 0.64 3.72c0.46 1.08 1.64 1.24 2.78 1.68a64 64 0 0 0 9.72 2.94 42.64 42.64 0 0 0 17.04 0.92c3.28 -0.64 9.66 -3.02 10.2 -7.04a25.1 25.1 0 0 0 3.3 5.7C47.3 239.08 35.36 252.4 32.4 266s-2.58 42.1 -2.58 42.1l3.4 0.3c0 1.62 0.24 5.5 0.24 5.5a7.7 7.7 0 0 1 -4.5 4.8c-3.82 1.74 -1.74 3 -1.74 3a21.04 21.04 0 0 0 16.14 -1.12c0.1 0 0.72 -9.9 0.9 -11.54a15.12 15.12 0 0 0 4.6 -0.26c1.24 -0.78 7.2 -26 9.16 -34.36a3.48 3.48 0 0 1 3.1 -2.64 33.56 33.56 0 0 0 10.46 -3.6s3.26 -10.64 6.16 -14.18c1.24 -1.54 1.18 -0.38 1.18 -0.38S74.68 258.82 70 276s7.06 26 7.06 26l26 23.42 3.22 -3.42c0.9 0.9 2.8 3.36 2.8 3.36a7.74 7.74 0 0 1 0 6.58c-1.56 3.9 0.8 3.36 0.8 3.36a18.52 18.52 0 0 0 10 -12.14c0 -0.1 -5.26 -7.38 -6 -8.72l2 -2 -14 -27.42s-1.58 -2 -0.34 -3.4 6.46 -13.16 6.46 -13.16c7.88 -21.3 2 -34.76 -0.12 -38.68C140 236 270.38 258.7 281.04 258c3.7 -0.26 5.58 -0.86 7.18 -4.42a136.7 136.7 0 0 0 5.54 -23.84c0.16 1.38 0.34 2.84 0.38 2.86a122.42 122.42 0 0 0 17.56 2.14 6.88 6.88 0 0 0 2.54 4.72c-2.32 1.04 -9.44 5.04 -20.6 18 -13.78 16 -11.12 59.82 -11.12 59.82l2.7 0.5v7.34c-0.24 1.1 -3.62 3.66 -5.68 5.14s-0.18 2.36 -0.18 2.36a30.82 30.82 0 0 0 15.56 -1.42s0.82 -9.82 1 -11.74l3.42 0.56s12.2 -31.3 13.18 -34.78 20.22 -15.24 20.22 -15.24a60.96 60.96 0 0 1 -4 -14s0.4 -1.8 0.9 -0.34c0.38 1.06 0.36 2.66 1 4.8 1.5 5 3.9 11.62 3.9 11.62A124 124 0 0 0 374 324l2.4 -2a33.02 33.02 0 0 1 2.14 3.82 9.16 9.16 0 0 1 -0.36 4c-0.26 1.22 -1.44 0.62 -2 1.56 -0.98 1.42 1.56 2.32 1.56 2.32a7.56 7.56 0 0 0 5.24 -0.84 30.44 30.44 0 0 0 7.02 -8.44s-4.54 -8.2 -5.06 -9.84zM12.48 217.84a6.16 6.16 0 0 0 4.2 0.42v-0.14c-3.32 0.42 -7.2 -2.34 -4.26 -2.52 0 0 3.06 0.84 3.3 0.86s0.16 -0.2 0 -0.24c-1.02 -0.26 -2 -0.46 -3.04 -0.82 -0.18 0 -0.9 -0.3 -0.98 -0.56 -0.26 -0.74 0.58 -0.66 0.94 -0.66a12.66 12.66 0 0 1 1.74 0 8.64 8.64 0 0 1 2.42 0.72s0.18 -0.2 0.16 -0.22c-0.32 -0.68 -0.96 -1.46 -0.96 -2.28 0.1 -1.2 1.3 -0.52 1.8 0a9.56 9.56 0 0 1 2.72 3.52c0.1 1.3 0.56 4.5 0.58 4.86 -1.8 1.04 -9.86 -0.52 -8.62 -2.94zm11.8 8c-2 -0.8 -2 -0.72 -2.28 -2.62 -0.52 -3.14 -0.74 -6.32 -1.26 -9.46 1.4 0 2.8 0 4.18 -0.22l1.62 13.14c-0.76 -0.32 -1.5 -0.68 -2.26 -0.9zm5.02 1.78c0 -1.58 -0.62 -10.84 -1 -14.46l3.12 -0.42 1.26 15.84c-0.46 -0.18 -2.68 -0.8 -3.38 -1.02zm6.76 1.7c-0.1 -1.64 -0.86 -13.06 -1.26 -17.02 1.48 -0.18 2.94 -0.32 4.44 -0.4l1.82 18.2c-1.68 -0.24 -3.34 -0.5 -5.06 -0.84zm6.94 84.98a7.14 7.14 0 0 1 -2.98 1.38 5.72 5.72 0 0 1 -5.66 -1.76c-0.2 -1.8 -0.48 -3.6 -0.76 -5.38 2.92 0.22 7.04 0.52 10.26 0.6 -0.24 1.66 -0.54 3.38 -0.86 5.1zm70.64 0.42a30.34 30.34 0 0 0 2.56 4.14 7.16 7.16 0 0 1 -1.22 3.24 5.74 5.74 0 0 1 -5.42 2.62c-1.06 -0.92 -2 -2 -2.94 -3zm180.7 10.94a5.3 5.3 0 0 1 -3.72 1.48 7.04 7.04 0 0 1 -4.6 -2.4c-0.14 -2.36 -0.36 -4.7 -0.46 -7.04l10 1.64c-0.2 1.9 -1.22 6.26 -1.22 6.26zm24.18 -164.64a3.46 3.46 0 0 1 0.32 1.34 0.16 0.16 0 0 1 -0.28 0 3.36 3.36 0 0 1 -0.38 -1.32 0.18 0.18 0 0 1 0.34 -0.08zm-8.84 0a0.16 0.16 0 0 1 0.3 0 2.9 2.9 0 0 1 0 1.6 0.16 0.16 0 0 1 -0.3 0 2.9 2.9 0 0 1 0 -1.7zm-0.96 3.88c0.92 0.18 2.64 0.46 2.68 0.14a2.62 2.62 0 0 1 0.66 -1.08 3.18 3.18 0 0 1 0.82 -0.6 15.56 15.56 0 0 0 -0.4 3.18c0.18 0.76 1.6 0.64 2.12 0.42a0.12 0.12 0 0 0 0 -0.24 4.42 4.42 0 0 1 -1.26 0c-0.6 -0.2 -0.54 -0.6 -0.46 -1.16s0.14 -1.5 0.22 -2.24c2.6 -1.2 4.98 2 4.98 2s5.44 -0.52 5.42 -1.58a3.32 3.32 0 0 1 0.58 -2 2 2 0 0 1 3.02 0 3.1 3.1 0 0 1 0.88 2.84c-0.34 0.78 -1.14 1.16 -1.78 1.66 -0.16 0.12 0 0.34 0.2 0.3a2.96 2.96 0 0 0 2 -2.12 3.38 3.38 0 0 0 -0.82 -2.5l2.64 -0.62a36.88 36.88 0 0 0 0.34 14.72 12.72 12.72 0 0 1 -4.14 5.44c-2.12 1.72 -6.72 3.1 -8.36 0a26.66 26.66 0 0 0 0.36 -6.42c-6.42 -0.28 -8.66 -5.04 -9.7 -10.24zm4 12.94c0.84 0.24 1.7 0.42 2.56 0.58A5.62 5.62 0 0 0 318 186c3.56 2 7.3 0.34 9.42 -1.1a32.72 32.72 0 0 0 -3.8 10.2 60.18 60.18 0 0 0 -1.76 16.8l-14.66 4v-0.28l9.54 -2.6h-0.38a13.34 13.34 0 0 1 -9.1 -2.64v-4c3.24 3.88 14 2.8 14 2.8l0.18 -4.54h-0.46c-9 1.02 -12.82 -2.68 -13.34 -3.24 0 -0.78 0.22 -1.56 0.36 -2.36 0.28 -1.56 0.64 -3.08 1.06 -4.58 2.62 4.26 13.18 3.48 13.18 3.48l0.98 -4.28h-0.82c-8.58 -1.14 -11.26 -2.58 -12 -3.6 0.72 -2.16 1.48 -4.3 2.24 -6.5 0 -0.16 -0.22 -0.28 -0.3 -0.12a52.24 52.24 0 0 0 -5.14 16.28c-0.34 2 -0.66 4 -0.86 6 -0.76 -1.14 -1.58 -2.22 -2.36 -3.32 0.2 -2.56 1.52 -17.96 8.78 -24.66zm11.1 33.5s15.84 7.88 28.6 5.14a19.82 19.82 0 0 1 -9.74 15.24zm13.56 22.9c-3.14 0.94 -12.5 0.5 -14 0.44l-2.88 -21.56 1.24 -0.34c0.66 0.64 13.68 18.58 15.68 21.36zm-14.96 -27.78a59.42 59.42 0 0 1 0.64 -6.24c2.64 0 22.24 0.88 28.26 2.98 0.44 2.6 0.9 5.22 1.1 7.84 -3.46 -0.02 -27.1 -0.04 -29.96 -4.68zm-16 9.7a78.4 78.4 0 0 0 -11.9 4.3c0.26 -3.18 2.32 -14.48 4.66 -26.8a27.52 27.52 0 0 0 7.06 13.2 38 38 0 0 0 0.22 9.14zm2 -40.24c-1.4 0.86 -7.14 5.26 -8.24 19.12 -0.3 -0.8 -0.58 -1.62 -0.86 -2.44 1.5 -7.88 3.12 -16 4.42 -22.72a16.98 16.98 0 0 0 4.78 5.94zm-9.82 -58c11.74 2.92 11.44 17.56 8.9 30 -24 -2.92 -179.34 -28.94 -188.54 -30.16 0.96 -1.22 16.64 -18.12 23.22 -25.18 0.14 -0.14 150.94 23.94 156.52 25.42zM70.62 173.2a0.24 0.24 0 0 0 0 -0.16c35.8 -68.92 36.32 -78.38 46.6 -83.42 5.14 -2.52 11.34 0.2 23.6 2.48a384.18 384.18 0 0 0 -32 38c-10 13.72 -30.12 44.84 -31.06 46 -4.8 6.3 -10 12.22 -15.08 18.28 -0.52 0.28 -0.86 0.94 -1.18 1.32 -0.64 0.78 -1.32 0.52 -1.6 0a84.7 84.7 0 0 1 8.7 -18.7c0.34 -0.6 1.06 -1.96 2.02 -3.8zm7.68 29.66 -0.94 -1.58c9 -2.24 21.14 1.36 23.1 2a32 32 0 0 1 0.74 7.26 31.74 31.74 0 0 0 -22.9 -7.68zm22.4 12.2c-1.68 8.22 -7.78 8.94 -14.8 6.62l-2.76 -15.14s10.86 2.08 17.56 8.52zm-48.34 2.62a15.54 15.54 0 0 0 -1.06 3.56 15.36 15.36 0 0 0 -4.8 -4.76c4.1 -4.34 6.22 -10.2 9.4 -15.2l0.38 0.42c-2.14 3.88 -3.34 8.68 -6 12.24 0 0 -0.12 0.18 0 0.28 0.36 0.92 1.94 3.18 2.08 3.46zm-1.74 -3.52a25.24 25.24 0 0 0 3.08 -6c0.94 -2.1 2 -4.18 2.78 -6.34a11 11 0 0 0 1.88 1.42c-2.94 4.74 -3.04 10.54 -4.86 15.68a8.62 8.62 0 0 0 -0.98 -2.14 16.84 16.84 0 0 0 -1.9 -2.62zm4.64 -16.86c0.54 1.56 2 2 1.66 1.56 -1.26 -1.76 -2.34 -2.5 0 -4.26a2.12 2.12 0 0 0 0.44 1.84 0.14 0.14 0 0 0 0.22 -0.12c-0.18 -0.9 -0.64 -1.76 0 -2.58a2.18 2.18 0 0 1 2.56 -0.52c-0.76 2.2 -0.86 2.36 -0.66 2.52 0 1.06 1.4 1.52 2.3 0.3 0.4 -0.5 0.36 -0.76 1 -1.22 -0.24 0.54 -0.72 2.22 -0.22 2.36 -0.48 2.72 -1.2 6.62 -1.2 6.62 -3.84 -0.02 -7.36 -4.52 -6.1 -6.5zm7.62 -0.18c1.44 0.52 2.92 0.98 4.4 1.46 0.14 1.44 0.54 7.38 -2 11.36 -1.62 -1.18 -2.98 -2.22 -4 -3a30.34 30.34 0 0 0 1.6 -9.82zm0.32 -2.84zm0.8 2.82a45.34 45.34 0 0 0 10.18 0 17.16 17.16 0 0 1 -1.28 -3.56c-1.84 0.14 -7.88 0.26 -9.3 0.28a121.38 121.38 0 0 0 10.1 -11.58l-0.12 1.5c3.58 -2.12 9.66 -2.3 11.54 -2.3a61.72 61.72 0 0 1 5.5 4.22c-2.12 -0.32 -10.5 -1.28 -16.9 2.88a30.56 30.56 0 0 1 0 -3.32s-0.18 -0.14 -0.18 0a26.5 26.5 0 0 0 4 17.5A40 40 0 0 0 64 197.1zm6.2 2.5c0.2 0 2.66 1.18 3.64 1.7 0 1.66 0.4 8.96 -2.18 13.02 -1.44 -0.96 -2.8 -2 -4 -2.8a14.62 14.62 0 0 0 2.54 -11.92zm6.72 3.4 1.26 0.76 2.68 15.84a77.12 77.12 0 0 1 -6.98 -3.88c0.56 -0.74 4.78 -6.62 3.04 -12.72zm-1.46 -6a30.56 30.56 0 0 1 -1.14 -4.22c2.2 -0.7 14.98 -4.5 21.56 -0.82 0 0 2 3.6 2.76 5.38 -7.3 -3.04 -20.92 -0.72 -23.18 -0.3zm2 -19.56 0.42 -0.54c5.02 -6.72 9.74 -13.68 14.22 -20.78 1.5 -2.36 3 -4.72 4.54 -7.06 -1.1 6 -4.8 30 -5.28 36.42a33.86 33.86 0 0 0 -13.94 -8zm-21.32 -12.8 0.76 -0.5c0.26 -0.16 0.5 -0.34 0.82 -0.24a0.26 0.26 0 0 1 0.18 0.32c0 0.6 -1.06 0.8 -1.56 0.92a0.28 0.28 0 0 1 -0.2 -0.5zm-5.68 0.22 0.76 0.26a1.76 1.76 0 0 1 0.68 0.3 0.22 0.22 0 0 1 -0.1 0.38c-0.48 0.16 -1.12 -0.26 -1.52 -0.52s-0.08 -0.5 0.18 -0.42zM57.12 178c-5.18 0.54 -6.96 -4.72 -8.14 -9.14a2.86 2.86 0 0 0 2.34 -0.64 3.32 3.32 0 0 1 1.82 -0.94 10.36 10.36 0 0 0 -0.44 2A0.88 0.88 0 0 0 54 170a0.16 0.16 0 0 0 0 -0.3c-0.7 0 -0.92 -0.34 -0.8 -1.08 0 -0.36 0.32 -1.28 0.34 -1.38a2.76 2.76 0 0 1 1.6 0.18 9.62 9.62 0 0 0 5.76 0.62s0.9 -3.22 3.52 -2.34a2.62 2.62 0 0 1 -0.46 3.76c-0.1 0 0 0.26 0.16 0.2a2.54 2.54 0 0 0 1.26 -2.16s3.52 -1.86 3.64 -2a13.1 13.1 0 0 0 1.4 7.32c-0.52 0.96 -0.94 1.74 -1.26 2.28 -1.5 2.62 -2.98 5.24 -4.36 8a4.38 4.38 0 0 1 -5.28 -2.92c-0.14 -1.72 -0.14 -2.34 -2.4 -2.18zm-1.34 3.7A7.22 7.22 0 0 0 62.34 188c-0.74 1.68 -1.44 3.4 -2 5.16a2.18 2.18 0 0 0 -3.28 1.26h-0.22c-0.4 -2.7 -0.42 -5.42 -0.64 -8.14a0.14 0.14 0 0 0 -0.28 0 36.44 36.44 0 0 0 0.48 7.8l-5.62 -7.48a23.48 23.48 0 0 1 5 -4.84zm-7.52 8.82 6.9 5.54a3.8 3.8 0 0 0 0 0.94c-1.2 1.18 -0.3 2.86 0.56 4 -0.28 0.3 -0.52 0.64 -0.78 0.98 -0.34 -0.82 -2.12 -4 -9.64 -3.84a38.24 38.24 0 0 1 2.96 -7.56zM44.44 202c0.72 0 6.88 0 8.98 2.34 -1.22 2 -2.24 4.14 -3.36 6.22a10.52 10.52 0 0 0 -6.62 -2.64c0.28 -2.04 0.56 -3.92 1 -5.92zm10 27.06a22.48 22.48 0 0 1 -7.44 1.3h-2.64c-0.14 -1.7 -1.26 -14.66 -1.68 -18.48 0.16 0 0.38 -0.72 0.4 -0.86 1.04 0.28 4.72 1.38 5.16 2.68a23.48 23.48 0 0 1 -2 2.66v0.44a19.78 19.78 0 0 1 5.14 5.18 28.32 28.32 0 0 0 1.28 -3.58c0.2 0.46 0.38 0.94 0.54 1.42 0 0.12 0.46 0.12 0.5 0a1.12 1.12 0 0 0 0 -0.24 20 20 0 0 1 3.88 8 20.16 20.16 0 0 1 -3.16 1.42zm6 -4c-0.28 -1.14 -2 -7.24 -5.26 -10 0.28 -1.14 0.54 -2.3 0.82 -3.46 0.5 -2 1.32 -4 2 -6a32.84 32.84 0 0 0 2.1 13.6c0.4 1.12 0.84 2.3 1.32 3.5a5.08 5.08 0 0 1 -1.08 2.32zm0.26 -6.24c-0.42 -1.18 -0.8 -2.38 -1.12 -3.6a106 106 0 0 0 14.98 3.38l-5.64 -4.6a71.1 71.1 0 0 1 -10.26 -2.96 38.48 38.48 0 0 1 -0.36 -6.82c0 -0.28 0.18 -0.56 0.26 -0.82a3.5 3.5 0 0 0 2.92 0.58c-0.16 0.98 -0.36 2 -0.58 2.92a0.32 0.32 0 0 0 0 0.44 114 114 0 0 0 18.9 12.32c4.76 2.3 11.72 5.6 16.86 2.56 3.8 -2.24 4.84 -7.04 4.98 -11.36 0.88 3.2 2.26 6.14 3.34 9.16 -0.78 1.22 -4 3.8 -16.74 4.14 -16.76 0.5 -25.82 -4.3 -27.64 -5.38zm5.3 10.26c-1.02 -1.5 -2 -3.02 -2.84 -4.6 24.26 10.9 40.54 0.84 43 -0.86a18.82 18.82 0 0 1 0.54 5.24c-20.7 14.14 -37.42 2.8 -40.7 0.22zm227.2 -0.88a144.32 144.32 0 0 1 -5 23.2c-1.76 4.66 -2.16 5.3 -6.82 5.66 -10.16 0.82 -156.9 -24.8 -173.84 -27.8l-0.2 -0.32c1.14 -6.68 -5.44 -16.28 -5.64 -20.8A34.12 34.12 0 0 0 95.22 190a36.3 36.3 0 0 0 -3.52 -4c1.44 -6.26 4.7 -31.26 5.22 -37.28C103.8 138 110.96 128 118.7 118.12c0 0 178 29.2 188.76 30.46 -0.4 2 -13 65.38 -13.46 72 -0.3 0.16 -0.56 0.32 -0.8 0.48a5.4 5.4 0 0 0 -0.14 1.46 18.98 18.98 0 0 0 -1.34 -2.2 4 4 0 0 0 -2 -1.7c-1.86 -0.5 -1.1 2 -0.48 3.24a9.2 9.2 0 0 0 -2.2 -0.48 6 6 0 0 0 -2.64 -0.12c-0.66 0.28 -0.54 0.92 0 1.32a0.9 0.9 0 0 0 -0.72 0.72c-0.1 0.62 0.62 1.26 1.04 1.56a2 2 0 0 0 0.34 0.2c-1.2 0.68 1.16 2.56 1.76 2.88a7.74 7.74 0 0 0 6.32 0.16s0.04 0.08 0.04 0.1zm-4.44 0c-0.6 -0.14 -4.86 -2 -3.4 -2.9a12.56 12.56 0 0 0 3.42 0.9v-0.14a12 12 0 0 1 -3.86 -1.44 2 2 0 0 1 -0.6 -0.62c-0.34 -0.7 0.18 -0.92 0.74 -0.92a10.24 10.24 0 0 0 3.5 0.88c0.14 0 0.16 -0.2 0 -0.24a13.84 13.84 0 0 1 -3.6 -1.06c-0.4 -0.24 -0.72 -0.72 -0.18 -0.9s5.12 0.74 5.14 0.72 0.14 0 0.12 -0.14a9.78 9.78 0 0 1 -0.72 -1.9c-0.18 -1.14 0.4 -1.44 1.04 -0.94a24.84 24.84 0 0 1 2.8 4.12c0 1.4 0.22 2.8 0.38 4.18a10.58 10.58 0 0 1 -4.8 0.34zm5.78 4.18s-0.36 -7.3 -1 -10.84a38.98 38.98 0 0 1 5 -2.34l2.1 13.74zm9.72 0.9 -1.86 -15.38c1.6 -0.46 3.22 -0.9 4.84 -1.32l2.16 17.18zm7.02 -17.76 5.3 -1.38 2.94 20.28 -6 -0.34zm50.72 18.66c-28.62 15.24 -46.78 4.92 -46.88 4.88a7.3 7.3 0 0 1 -2.92 -4.34l6.32 0.36c7.22 0.4 15.66 2 22.34 -1.46 5.54 -2.9 10.7 -7.8 12 -14 1.24 -5.76 -0.2 -17.68 -1.8 -22.3 -0.1 -0.32 -10.98 -5.7 -27.26 -0.82 0.38 -1.66 0.78 -3.42 1.32 -5.18 1.8 -0.82 16.24 -7.02 24 0.96 0 0 -2.68 -7.78 -14.32 -7.66a24.54 24.54 0 0 0 -7.72 1.7 26.12 26.12 0 0 1 2 -2.68s3.78 -5.16 4 -7.04c6 0.46 11.22 2.14 14.94 7.4a119.78 119.78 0 0 1 8.38 16.74 9.4 9.4 0 0 1 -4 1.48l0.72 3.78a9.6 9.6 0 0 0 4.56 -1.64c0.6 1.68 1.16 3.38 1.7 5.08a17.7 17.7 0 0 1 -5.58 2.56 39.48 39.48 0 0 1 -0.26 6.38 11.82 11.82 0 0 0 7.42 -4.2c0.24 0.92 1.36 5.16 1.66 6.42 -1.62 1.32 -10.94 8.78 -15.12 9.08a22.32 22.32 0 0 1 -16.48 6.62l-18 -0.92a51.52 51.52 0 0 0 33.56 0.46c12.98 -4.36 16.18 -8 16.94 -9.58a13.22 13.22 0 0 1 -1.52 7.92zM384.18 324a6.82 6.82 0 0 1 -4.88 1c-0.8 -1.12 -1.68 -2.2 -2.52 -3.3l7.84 -6.74c0.5 1.66 1.56 5.56 1.56 5.56a5.28 5.28 0 0 1 -2 3.48z" stroke-width="1"></path><path d="M147.2 197.36c1.66 4.9 4.98 0.5 4.98 0.5s3.5 -19.52 4.58 -19.36l8.56 1.24c4.14 -2.74 0.82 -5.48 0.82 -5.48l-7.14 -0.9s7.14 -27.5 5.74 -31.82 -6.9 -0.5 -6.9 -0.5l-27.5 26c-5.5 5.2 -0.9 6.9 -0.9 6.9l21.1 3.48zm-10.46 -26.5s-1.66 -0.42 0 -2S156 149.18 156 149.18s2.94 -1.66 2 1.74l-5.48 22.18zm120.1 20.62 -7.14 -0.9s7.14 -27.5 5.74 -31.82 -6.9 -0.5 -6.9 -0.5l-27.5 26c-5.5 5.2 -0.9 6.9 -0.9 6.9l21.1 3.48 -3.34 20c1.66 4.9 5 0.5 5 0.5s3.48 -19.52 4.56 -19.36l8.56 1.26c4.16 -2.82 0.82 -5.56 0.82 -5.56zm-8 -23.34 -5.52 22 -15.84 -2s-1.66 -0.42 0 -2 19.28 -19.68 19.28 -19.68 2.88 -1.72 2.04 1.68zM196.9 199.56c6 -1.66 12.58 -11.56 11.08 -32.12s-19.38 -22.72 -26 -14.8 -8.64 23.78 -5.48 34.14 14.32 14.46 20.4 12.78zm-10.2 -44.44c4.36 -2.16 16.84 -2.8 18 13.84S200.88 192.84 196 194.18s-13.46 -2 -16 -10.32 0.16 -25.5 6.7 -28.74zm56.12 68.64c-15.5 -1.88 -107.62 -19.3 -112.24 -19.52a0.12 0.12 0 0 0 0 0.24c0.12 0 105.02 19.28 112.3 20.18 0.52 0.06 0.52 -0.82 -0.06 -0.9zm-24.5 5.8c-11.5 -2 -56.94 -9.44 -68.2 -10.72 -0.24 0 -0.3 0.4 0 0.44 11.22 2.36 56.66 9.4 68 11.14 0.52 0.1 0.76 -0.76 0.2 -0.86zm72.64 -92.28a6.56 6.56 0 0 0 3.76 -10.22c-6 -8 -17.28 0.4 -11.8 7.5a8 8 0 0 0 8.04 2.72zm-6.76 -10.82a6.46 6.46 0 0 1 10 0.98c3.24 4.72 -0.92 10.14 -6.58 9.08a6.5 6.5 0 0 1 -3.72 -2.12 5.78 5.78 0 0 1 0.3 -7.94zm-8.62 7.68a6.62 6.62 0 0 0 2.96 -10 7 7 0 0 0 -12.72 5.64 7.56 7.56 0 0 0 9.76 4.36zm-6.88 -11.26c3.16 -2.42 6.7 -1 9.2 1.66 3.22 3.46 0.12 9.32 -4.98 9.34a6.5 6.5 0 0 1 -6.64 -5.78 5.88 5.88 0 0 1 2.42 -5.22zm-10.48 8.66a6.5 6.5 0 0 0 3.36 -10c-5.64 -6.96 -14.94 -1.58 -12.84 5.68 1.1 3.72 5.92 5.4 9.48 4.32zm-6.98 -10.98a6.84 6.84 0 0 1 9.72 1.24 5.88 5.88 0 0 1 -5.8 9.24 6 6 0 0 1 -4 -10.48z" stroke-width="1"></path><path d="M285.32 132.88a10.24 10.24 0 0 0 3.44 -1.64A12.54 12.54 0 0 0 291 134a0.3 0.3 0 0 0 0.46 -0.36 12.36 12.36 0 0 0 -2 -2.86c0.8 -0.58 1.56 -1.2 2.3 -1.7 0.4 -0.28 0 -0.94 -0.38 -0.66l-2.46 1.7c-0.8 -0.98 -1.64 -2 -2.46 -2.94 -0.14 -0.16 -0.44 0 -0.3 0.26 0.72 1.02 1.42 2 2.16 3.1 -1.02 0.68 -2 1.36 -3.08 2a0.18 0.18 0 0 0 0.08 0.34zM68.64 184.98a117.1 117.1 0 0 0 -7.3 9.56s0 0.18 0.18 0c2.36 -3.22 4.84 -6.34 7.3 -9.48 0.1 -0.04 -0.1 -0.18 -0.18 -0.08zm-5.46 5.22c4.28 -6.32 8.92 -12.28 13.34 -18.48 0 0 0 -0.18 -0.14 0a148.28 148.28 0 0 0 -13.38 18.48c-0.08 0.02 0.1 0.12 0.18 0z" stroke-width="1"></path><path d="M55.8 131c0.52 -19.44 1.32 -91 2 -91.68s46.38 -0.66 57.1 0.16c-0.3 11.48 0.16 22.98 0 34.46 0 0.26 38.98 0.24 40.54 0.24s1.38 -0.32 1.24 1.06a108.2 108.2 0 0 0 0.2 11.66 0.26 0.26 0 0 0 0.24 0.24c20.5 0.12 40.96 0.22 61.44 -0.72a0.22 0.22 0 0 0 0.22 -0.22c-0.12 -6.84 -0.28 -29.5 -0.28 -30.46 0 -1.46 -0.38 -2.42 1.32 -2.5 4.34 -0.18 60 1.06 60.1 1.16s1.4 33.26 1.52 41.72a0.18 0.18 0 0 0 0.2 0.18c8.2 0.36 54.58 2.48 54.72 2.58s0.62 24 1.08 30.96a0.16 0.16 0 0 0 0.16 0.18c14.92 0 29.84 0 44.76 0.34 0.2 0 0.2 -0.32 0 -0.32 -12.28 -0.24 -44 -0.76 -44.24 -0.9 -0.8 -0.34 -0.42 -20.96 -1.08 -30.96a0.18 0.18 0 0 0 -0.18 -0.18c-8.88 -0.38 -54.2 -2 -54.64 -2.34 0 0 -1.06 -34.26 -1.54 -41.72a0.22 0.22 0 0 0 -0.2 -0.2c-20.66 -0.94 -41.52 -1.9 -62.18 -0.84a0.2 0.2 0 0 0 -0.2 0.2c0 6.58 0.7 32.16 0.22 32.96 -0.16 0.26 -57.44 0.84 -60.22 0.6 -1.02 0 -0.88 -9.14 -0.96 -12.74a0.24 0.24 0 0 0 -0.24 -0.24c-13.82 0 -27.64 -0.22 -41.46 0 0.24 -11.4 0.56 -22.98 -0.3 -34.34a0.14 0.14 0 0 0 -0.12 -0.14 334 334 0 0 0 -57.8 -0.8 0.26 0.26 0 0 0 -0.26 0.26c-0.68 15.32 -2 76.66 -1.64 92 -15.04 0 -30 0.72 -45.1 0.82a0.22 0.22 0 1 0 0 0.44c15.04 0.08 45.56 -0.66 45.58 -0.92z" stroke-width="1"></path><path d="M101.6 60.76h5.32a48 48 0 0 0 0.22 -6.86 0.26 0.26 0 0 0 -0.26 -0.26 54.26 54.26 0 0 0 -5.46 0.44c-0.22 2.14 0 4.32 -0.1 6.46a0.28 0.28 0 0 0 0.28 0.22zm5.02 -6.18c0.22 0.8 0 4.72 0.12 5.66h-4.84c0 -2 0 -4 -0.1 -6 0.9 -0.1 4.62 -0.42 4.82 0.34zm-15.1 17.3h5.32a42.44 42.44 0 0 0 0.22 -6.86 0.28 0.28 0 0 0 -0.26 -0.26 52 52 0 0 0 -5.44 0.46c-0.24 2.12 0 4.32 -0.12 6.46a0.28 0.28 0 0 0 0.28 0.2zm5.04 -6.18c0.22 0.8 0 4.72 0.12 5.68h-4.86v-6c0.8 -0.1 4.54 -0.42 4.74 0.32zM62.2 97.88h5.32a0.3 0.3 0 0 0 0.3 -0.28v-6.66a0.26 0.26 0 0 0 -0.28 -0.26c-1.76 0.12 -3.5 0 -5.26 0.24a0.24 0.24 0 0 0 -0.2 0.32c-0.16 2 0 4.24 0 6.36a0.26 0.26 0 0 0 0.12 0.28zm5 -6.62v6c-0.98 0 -4.3 0.14 -4.5 0a27.78 27.78 0 0 1 -0.34 -6c1.64 0.04 3.24 0.08 4.84 0zM78.1 98a65.66 65.66 0 0 0 0 -6.9 31.22 31.22 0 0 0 -5.48 0 0.28 0.28 0 0 0 -0.26 0.28 47.06 47.06 0 0 0 0.14 6.62h5.6zm-4.86 -6.5c0.4 -0.14 3.36 -0.14 4.32 -0.22v6.18h-4.86c0.2 -1.68 0.04 -5.8 0.54 -6zm-1.48 -40.72h5.32a48 48 0 0 0 0.22 -6.86 0.28 0.28 0 0 0 -0.26 -0.26 53.68 53.68 0 0 0 -5.46 0.44c-0.22 2.14 0 4.32 -0.12 6.46a0.3 0.3 0 0 0 0.3 0.22zm5.02 -6.18c0.22 0.8 0 4.72 0.12 5.66h-4.84c0 -2 0 -4 -0.1 -6 0.9 -0.1 4.62 -0.42 4.82 0.34zm149.74 23.86a34.64 34.64 0 0 0 0.2 6.64 29.72 29.72 0 0 0 5.5 0 51.08 51.08 0 0 0 -0.24 -7 19.82 19.82 0 0 0 -5.46 0.36zm5.34 6.24a27.62 27.62 0 0 0 -4.98 0 41.4 41.4 0 0 0 0 -6 22.44 22.44 0 0 0 4.92 -0.16 36.12 36.12 0 0 0 0.06 6.16zm10.76 -6.5a20.26 20.26 0 0 0 -5.46 0.36 40 40 0 0 0 0 6.38 0.16 0.16 0 0 0 0.14 0.26 29.54 29.54 0 0 0 5.32 0 0.22 0.22 0 0 0 0.18 -0.32 33.3 33.3 0 0 0 -0.18 -6.68zm-0.14 6.58a29.58 29.58 0 0 0 -4.98 0 41.66 41.66 0 0 0 0 -6.12 21.44 21.44 0 0 0 4.94 -0.14 34 34 0 0 0 0.04 6.26zm0.14 7.76a20.26 20.26 0 0 0 -5.46 0.36 40 40 0 0 0 0 6.38 0.16 0.16 0 0 0 0.14 0.26 29.54 29.54 0 0 0 5.32 0 0.22 0.22 0 0 0 0.18 -0.32 33.3 33.3 0 0 0 -0.18 -6.68zm-0.14 6.58a27.62 27.62 0 0 0 -4.98 0 41.66 41.66 0 0 0 0 -6.12 20.38 20.38 0 0 0 4.94 -0.16 34.24 34.24 0 0 0 0.04 6.28zm23.24 -6.36a39.36 39.36 0 0 0 0 6.58 31.26 31.26 0 0 0 5.64 0 51.46 51.46 0 0 0 -0.2 -7.02 20.26 20.26 0 0 0 -5.44 0.44zm5.32 6.22a29.58 29.58 0 0 0 -4.98 0 41.38 41.38 0 0 0 0 -6 21.26 21.26 0 0 0 4.92 -0.16 36.12 36.12 0 0 0 0.06 6.16zM317.1 110a35.18 35.18 0 0 0 0.18 6.64 30 30 0 0 0 5.52 0 49.02 49.02 0 0 0 -0.24 -7.06 20.34 20.34 0 0 0 -5.46 0.42zm5.32 6.22a27.62 27.62 0 0 0 -4.98 0 41.68 41.68 0 0 0 0 -6.12 20.38 20.38 0 0 0 4.94 -0.16 34.22 34.22 0 0 0 0.04 6.26zM78.8 128a54.68 54.68 0 0 0 -0.32 -7 20.5 20.5 0 0 0 -5.46 0.34 35.08 35.08 0 0 0 0.18 6.64 30.8 30.8 0 0 0 5.6 0.02zm-5.38 -6.6a22.44 22.44 0 0 0 4.92 -0.16 36.12 36.12 0 0 0 0 6.24 29.58 29.58 0 0 0 -4.98 0 41.38 41.38 0 0 0 0.06 -6.08zM26.6 141.3c-1.7 0.14 -5.44 0 -5.44 0.26a43.82 43.82 0 0 0 0 6.86 29.32 29.32 0 0 0 5.62 0 52.92 52.92 0 0 0 0 -6.92 0.28 0.28 0 0 0 -0.18 -0.2zM26.48 148a27.6 27.6 0 0 0 -4.98 0 45.2 45.2 0 0 0 0 -6.16c0.9 0 4.6 -0.3 4.82 0.46s0.1 4.74 0.16 5.7zm342.78 -6.6a48.26 48.26 0 0 0 -5.46 0.44 35.32 35.32 0 0 0 0.18 6.66 29.54 29.54 0 0 0 5.32 0 48 48 0 0 0 0.22 -6.86 0.26 0.26 0 0 0 -0.26 -0.24zm-0.14 6.6a29.58 29.58 0 0 0 -4.98 0 42 42 0 0 0 0 -6.14c0.9 0 4.6 -0.3 4.8 0.46s0.14 4.8 0.18 5.68zm-19.34 213.7c-42.76 -0.2 -304.16 -1.76 -328.18 -1.5 -0.14 0 -0.14 0.24 0 0.24 42.74 0.92 304.14 1.86 328.18 2a0.38 0.38 0 0 0 0 -0.74zM50.98 172.84a0.14 0.14 0 0 0 0 -0.28 0.14 0.14 0 0 0 0 0.28zm1.02 0.28a0.2 0.2 0 0 0 0 0.4 0.2 0.2 0 0 0 0 -0.4zm-0.34 1.46a0.14 0.14 0 0 0 0 -0.28c-0.18 -0.02 -0.18 0.28 0 0.28zm0.7 -2.4a0.18 0.18 0 0 0 0 0.34c0.2 0 0.2 -0.34 0 -0.34zm1.1 2.18a0.14 0.14 0 0 0 0 -0.28 0.14 0.14 0 0 0 0 0.28zm0.98 1.64c-0.24 0 -0.24 0.36 0 0.36a0.18 0.18 0 0 0 0 -0.36zm0.54 -1.42a0.2 0.2 0 0 0 0 0.38 0.2 0.2 0 1 0 0 -0.38zm2.08 1.56a0.16 0.16 0 0 0 0 0.32 0.16 0.16 0 1 0 0 -0.32zm1.04 -1.22a0.22 0.22 0 0 0 0 0.42 0.22 0.22 0 0 0 0 -0.42zm1.12 1.5a0.24 0.24 0 0 0 0 0.46 0.24 0.24 0 0 0 0 -0.46zm1.72 -1.04a0.2 0.2 0 1 0 0 -0.38 0.2 0.2 0 0 0 0 0.38zm-0.4 1.44a0.18 0.18 0 0 0 0 -0.34 0.18 0.18 0 1 0 0 0.34zm2 -0.58a0.22 0.22 0 0 0 0 -0.44 0.22 0.22 0 0 0 0 0.44zm1.94 -1.5a0.18 0.18 0 0 0 0 0.36 0.18 0.18 0 0 0 0 -0.36zm-1.24 -0.74a0.2 0.2 0 0 0 0 -0.38 0.2 0.2 0 1 0 0 0.38zm1.24 -1.6a0.18 0.18 0 1 0 0 -0.36 0.18 0.18 0 0 0 0 0.36zm0.84 -1.8a0.18 0.18 0 0 0 0 -0.36 0.18 0.18 0 0 0 0 0.36zm-2.3 0.4a0.16 0.16 0 1 0 0 -0.32 0.16 0.16 0 0 0 0 0.32zm-1.58 1.76c0.24 0 0.26 -0.4 0 -0.4a0.2 0.2 0 0 0 0 0.4zM54 172.72v-0.18zm1.76 0.28a0.26 0.26 0 0 0 0 0.52 0.26 0.26 0 0 0 0 -0.52zm-0.22 -1a0.16 0.16 0 0 0 0 0.32 0.16 0.16 0 0 0 0 -0.32zm1.88 0.18a0.18 0.18 0 0 0 0 0.36 0.18 0.18 0 1 0 0 -0.36zm0.68 -1.08a0.2 0.2 0 0 0 0 -0.4 0.2 0.2 0 0 0 0 0.4zm-2.48 -0.28v0.16zm-1.4 0.24c-0.14 0 -0.14 0.24 0 0.24a0.12 0.12 0 0 0 0 -0.24zm12.34 1.64a0.22 0.22 0 0 0 0 -0.42 0.22 0.22 0 1 0 0 0.42zM62 162.1s0.22 -2 0.26 -2.84 0 -2.86 0 -2.88c-2.98 -0.44 -5.68 -0.62 -5.84 -0.62a24 24 0 0 1 0 5.12c0.08 0.02 5.06 1 5.58 1.22zM46 158s-1.04 1.08 0.28 4c0 0 0.4 1.04 1.18 0.84a19.36 19.36 0 0 1 8.72 -1.9S56 157.4 56 155.76a33 33 0 0 0 -5.4 0.36 9.14 9.14 0 0 0 0.34 5.14 0.18 0.18 0 0 1 -0.34 0.14 6.46 6.46 0 0 1 -0.4 -5.2 8 8 0 0 0 -4.2 1.8zm20.76 -0.78c-1.3 -0.32 -2.76 -0.58 -4.16 -0.8a17.2 17.2 0 0 1 -0.28 5.78 16.58 16.58 0 0 0 4 0.58c0.4 -1.78 0.34 -5.52 0.44 -5.56zm-6.22 -9.34a9.38 9.38 0 0 1 2.82 7.54 16.28 16.28 0 0 1 5.38 1.54s1.52 -8.32 -8.2 -9.08z" stroke-width="1"></path><path d="M58.28 148.18a0.16 0.16 0 0 1 0.22 0.22c-1.58 1.76 -1.38 4.2 -1.44 6.42h1.54c1.7 0.12 3.14 0.28 4.34 0.48A15.02 15.02 0 0 0 60.26 148a0.14 0.14 0 0 1 0 -0.18h-1.12a23.68 23.68 0 0 0 -2.74 0.18v0.18a8 8 0 0 0 -3.12 6.52c0 0.18 -0.28 0.22 -0.32 0A6.52 6.52 0 0 1 56.24 148c-8.34 0.94 -8.68 6 -8.54 8.34a18.56 18.56 0 0 1 9.12 -1.5 7.24 7.24 0 0 1 1.46 -6.66zm1.82 23.44h-0.16c-0.34 0.64 -0.7 1.38 -1.44 1.58v0.12c0.86 -0.08 1.86 -0.74 1.6 -1.7zm260.38 -2.3c0 -0.12 -0.18 -0.22 -0.24 0a2.52 2.52 0 0 1 -2.34 1.26v0.12c0.56 0.12 2.36 -0.12 2.58 -1.38z" stroke-width="1"></path></g></svg>