<svg xmlns="http://www.w3.org/2000/svg" viewBox="0 0 400 400" id="Fixing-Bugs--Streamline-Milano.svg" height="400" width="400"><desc>Fixing Bugs Streamline Illustration: https://streamlinehq.com</desc><g fill="#000000"><path d="M82.26 45.8a31.66 31.66 0 0 1 -3.1 11.82c-1.86 3.74 -3.62 5.28 -4 9.1a11.76 11.76 0 0 0 1.4 7.88c1.6 2.5 3.62 2.8 6.42 4.7a23.5 23.5 0 0 1 7.74 9.18 16 16 0 0 0 -3.32 -9.72c-2 -2.54 -4.38 -3.32 -6 -6.84a13.58 13.58 0 0 1 -1.4 -4.9c-0.26 -3.74 1.28 -6 2.2 -8.7a21.38 21.38 0 0 0 0.06 -12.52zm16.06 43.48a69.38 69.38 0 0 0 -0.64 -16.56c-1.38 -8.76 -3.22 -9.38 -3.3 -15.38 -0.14 -7.5 2.7 -8.16 4.14 -20.36s-0.66 -17.12 -4.8 -24a32.96 32.96 0 0 1 2.4 14.78c-0.98 12.14 -8.8 16 -8.66 28.92a31.52 31.52 0 0 0 1.84 10.94c1.72 4.66 3.72 6.4 6 11.52a41.82 41.82 0 0 1 3.02 10.14zM130.8 52.84c-1.52 -5.32 -4.24 -15.48 -0.96 -21.68 0.76 -1.18 1.72 -2 2.22 0.64 0.6 3.02 -0.46 5.24 -0.98 8.9a103.6 103.6 0 0 0 -0.28 12.14zM138 54a39.4 39.4 0 0 1 5.46 -6.9 55.06 55.06 0 0 1 8.9 -6.78s8.88 -6 14 -6.14c0.42 0 1.56 0 1.78 0.48s-0.64 1.42 -0.88 1.66a8 8 0 0 1 -4 2 36.36 36.36 0 0 0 -6.98 3.16l-8.42 3.8A30.14 30.14 0 0 0 138 54zm53.36 138.3c0 6.24 -4.1 11.28 -9.14 11.28 -12.14 -0.56 -12.14 -22 0 -22.58 5.04 0 9.14 5 9.14 11.3zm-74.86 69.94a2 2 0 0 0 1.58 1.24c1.6 0 7.02 -11.56 10.38 -16 2.14 -2.8 4 -5.28 5.72 -7.36a94.42 94.42 0 0 0 -7.5 6.76c-0.68 0.64 -10.8 13.88 -10.18 15.36zm21.1 -12.66c-0.48 6.34 -0.12 14.82 0.66 15.32a1.22 1.22 0 0 0 2 -0.62c0.56 -1.26 -2.56 -13.98 -2.66 -14.7zm16.52 -2.9c2.58 7.06 4.22 24.88 6.3 25.56a1.42 1.42 0 0 0 0.92 0c3.88 -3.98 -6.8 -25.08 -7.22 -25.56zM35.64 111.54a2.24 2.24 0 1 0 0 4.46 2.24 2.24 0 1 0 0 -4.46zm9.7 -8.8a2.44 2.44 0 0 0 0 4.88 2.44 2.44 0 0 0 0 -4.88z" stroke-width="1"></path><path d="M55.62 107.04c-1.88 -2.44 -3.84 -4.76 -5.84 -7.1a32.82 32.82 0 0 0 5.52 -6 36.22 36.22 0 0 0 -0.58 -8.14c0 -0.22 -0.44 -0.18 -0.42 0 0.16 1.36 0.72 6.66 0.16 7.82a62.74 62.74 0 0 1 -5.24 5.66c-1.74 -2.3 -2.92 -1.7 -4.66 -0.64 4.36 -6 3.14 -12.18 1.18 -18.88a0.16 0.16 0 0 0 -0.32 0c1.64 6 2.66 13.16 -1.54 18.4a10.16 10.16 0 0 0 -10 0.12 18.38 18.38 0 0 1 6.66 -17.2c0.14 0 0 -0.36 -0.2 -0.24a18 18 0 0 0 -7.36 18l-0.42 0.32a14.7 14.7 0 0 0 -13.8 2.64c-0.16 0.14 0 0.44 0.24 0.3a16.46 16.46 0 0 1 8 -2.58 11 11 0 0 1 4.74 0.58 10.18 10.18 0 0 0 -2.32 10.2c-0.72 0.14 -4 0.78 -5.02 0.86a16.28 16.28 0 0 1 -14.2 -5.3c0 -0.12 -0.26 0 -0.18 0.18 4.78 6 12.14 7.2 19.18 5.26 -1.9 2.48 1 4.62 2.56 6.34 -0.38 0 -6.88 0.82 -8.48 1.04a7.62 7.62 0 0 1 -2.52 0.16 38.82 38.82 0 0 1 -6 -3.86c-0.14 -0.1 -0.34 0 -0.2 0.2a69.1 69.1 0 0 0 5.64 4.4 4.34 4.34 0 0 0 2.42 0.2c1.72 -0.2 9.18 -1.3 9.86 -1.44a12.22 12.22 0 0 0 2.24 1.82c0.24 0.14 0.46 -0.18 0.28 -0.38 -0.54 -0.6 -6.18 -5.8 -5.68 -6.6 5.54 -8.92 17.4 -15.18 18.24 -14.62 0.46 0.3 5.88 6.82 7.7 8.78 0.16 0.2 0.54 -0.08 0.36 -0.3z" stroke-width="1"></path><path d="M38.44 107.2c-0.36 -0.46 -1.1 0.24 -0.64 0.64 0.92 0.84 4.58 4.3 5.5 5.16 0.1 0 0.26 0 0.16 -0.14 -0.9 -0.86 -4.26 -4.68 -5.02 -5.66zM120 74.1a3.08 3.08 0 1 0 3.08 3.08A3.06 3.06 0 0 0 120 74.1zm14.6 3.64a2.88 2.88 0 0 0 0 5.74 2.88 2.88 0 0 0 0 -5.74zM131.46 88a2.16 2.16 0 1 0 0 4.32 2.16 2.16 0 1 0 0 -4.32zm-12.78 -2.68c-3.04 0.12 -3.04 5.38 0 5.48s3.04 -5.36 0 -5.48z" stroke-width="1"></path><path d="M160.82 77.02a46.32 46.32 0 0 1 -8 5.88A53.14 53.14 0 0 1 143.26 80c0.9 -3.42 1.08 -3.32 -2.4 -5.18 0.48 0 9.06 -0.84 10.78 -2.14a108 108 0 0 0 9.32 -10.12c0.26 -0.34 -0.2 -0.84 -0.5 -0.5 -1.42 1.74 -7.28 8.4 -8.92 9.82s-11.04 2.16 -11.8 2.16c0 -2.4 -1.46 -7.62 -5.52 -9.26a18.44 18.44 0 0 1 18.28 -6.16 0.24 0.24 0 0 0 0.12 -0.46 19.04 19.04 0 0 0 -19.4 6.22 12.86 12.86 0 0 0 -1.52 -0.34 45.84 45.84 0 0 0 -4 -7.42 12.3 12.3 0 0 0 -7.82 -4.42c-0.2 0 -0.26 0.34 0 0.36a11.58 11.58 0 0 1 7.34 4.94A50 50 0 0 1 130.54 64a14.32 14.32 0 0 0 -10.88 4.72 101 101 0 0 1 -8 -8.12 13.3 13.3 0 0 1 -1.66 -6.2 43.18 43.18 0 0 1 -0.16 -6.82h-0.18a59 59 0 0 0 -0.18 7.28 12.48 12.48 0 0 0 1.52 6.1 79.12 79.12 0 0 0 8.14 8.4l-0.14 0.16a33.7 33.7 0 0 0 -3.48 0.1c-1.38 0.14 -1.76 4.54 -1.9 5.46 -0.4 -0.34 -6.46 -4.76 -8 -6a83.78 83.78 0 0 1 -1.62 -10.82 0.18 0.18 0 0 0 -0.36 0c0 2 0.48 10.58 1 11.14s8 6.2 8.72 6.52v0.44a51.44 51.44 0 0 0 -7.74 4.74c-0.58 0.72 -8 19.6 -8.92 22 0 0.26 0.32 0.38 0.42 0.12 1.66 -4 8.3 -19.7 8.68 -20.64s5.66 -4.16 7.44 -5.32c-0.18 1.36 -1.56 11.48 -1.4 12.88a7.12 7.12 0 0 0 2 3.32c0.9 1.1 4.96 5.4 6 6.52 0.76 0.8 1.56 2 2.8 1.88 0.6 0 14.44 -6 15.52 -6.76a4.98 4.98 0 0 0 1.8 -2.9c0.46 -1.42 1.82 -6.3 2 -7.32a35.56 35.56 0 0 1 3.38 4.86 6.76 6.76 0 0 1 0 3.16c-0.18 1.1 -2.56 14 -2.96 16.26 0.64 -2.22 3.46 -15.88 3.6 -17.02a5.56 5.56 0 0 0 0.02 -2.88 45.7 45.7 0 0 0 -3.76 -4.96c0.12 -0.48 0.74 -2.84 0.92 -3.56a36.2 36.2 0 0 0 9.9 2.78c1.58 -0.12 6.8 -4.88 8.1 -6.26 0.08 -0.16 -0.18 -0.4 -0.34 -0.24zm-17.68 1.28c-0.48 2.58 -4.14 14.72 -4.52 15.3 -0.6 0.96 -14.92 7.14 -15.5 7.36a1.36 1.36 0 0 1 -1.72 -0.4c-0.94 -0.96 -8.7 -9.8 -8.84 -10.38a5.6 5.6 0 0 1 0 -2c0.14 -1.34 2.26 -16 2.32 -16.48s0 -0.74 0.32 -1.02a48 48 0 0 1 27.16 6 1.44 1.44 0 0 1 0.78 1.62z" stroke-width="1"></path><path d="M128.26 74.28c-0.46 0.86 -4.74 19.74 -5.44 23.8 0 0.2 0.28 0.28 0.32 0 0.78 -4 5.36 -22.82 5.42 -23.8 0 -0.08 -0.24 -0.14 -0.3 0zM107.16 148.3c-17.62 -6 -27.14 8.46 -29.28 14a25.6 25.6 0 0 0 -1.58 11.56 31.7 31.7 0 0 0 3.66 12c2.8 5.42 9.32 14.92 26.84 10.2 12.22 -3.62 13.88 -18 14.18 -20.26 1.26 -10.08 -2.76 -23.8 -13.82 -27.5zm-9.02 32.68a24.52 24.52 0 0 1 -11.7 11.8 19.48 19.48 0 0 1 -5.2 -6.66c-7.2 -12.4 -5.08 -29.22 8.62 -36 9.32 8.72 12.52 21.16 8.28 30.86zm90.12 -90.16c-11.68 1.64 -11.38 15.82 -9.34 21.14 2.5 6.46 10.32 8.56 14.22 7.62 6.22 -1.5 8.46 -8.76 8.44 -13.36 -0.04 -7.76 -6.66 -16.22 -13.32 -15.4zm-3.4 16.44a13.26 13.26 0 0 1 -3.22 7c-4.26 -4.52 -3.68 -13.02 -0.52 -18a14 14 0 0 1 3.74 11zm-91.14 -0.02 1.94 -11.24h-13.82l6.08 11.24h5.8zm14.54 0.64 4.52 -9.16 -11.36 0.24 2.38 8.92h4.46zM60 100.66v3.38l-15.38 1.84 -0.36 8.76c1.4 0 2.82 0.28 4.24 0.32 0.18 0 0.18 0.3 0 0.3 -1.42 0 -16 1.68 -16 1.68l-3.04 3.7 4.86 8.36c5.28 0 10.58 0.52 15.86 0.7 0.28 0 0.28 0.46 0 0.46 -5.22 0 -10.48 0.16 -15.7 -0.14l-0.42 0.96 -13.08 0.66 -2.16 3.48L26 144c2 0 12.3 0.3 15.62 0.38 0.3 0 0.3 0.5 0 0.48 -3.28 0 -15.36 0.26 -15.64 0.28l-0.88 3.52 -8.86 0.88c1.26 0 9.5 0.68 12.4 0.82a0.18 0.18 0 1 1 0 0.36c-2.88 0 -13.04 0 -15.24 -0.22L12.48 154l9.2 6.22s11.76 1.08 14.88 1.34c0.32 0 0.32 0.54 0 0.5 -3.16 -0.24 -14.62 -0.8 -14.86 -0.8v4.1c1.52 0.22 10.44 1.46 13.38 1.9 0.24 0 0.18 0.46 0 0.42 -3.08 -0.32 -14.34 -1.68 -14.72 -1.68l-9.5 3.52v4s14 3.24 15.64 3.56c0.32 0 0.18 0.56 -0.14 0.5 -1.56 -0.3 -5.54 -0.92 -6 -0.98l0.18 5.4c0.82 0.16 13.08 3.4 16.14 4.22 0.22 0 0.12 0.4 0 0.34 -3.04 -0.8 -16.24 -3.48 -17.44 -3.84l-8.3 4 0.2 6.12L30 197.86a0.22 0.22 0 1 1 -0.12 0.42c-2 -0.44 -7.22 -1.6 -8 -1.74l1.16 2.44c2.76 0.46 15.84 3.58 19.64 4.64a0.2 0.2 0 0 1 -0.12 0.4c-3.78 -0.96 -16.76 -3.68 -19.42 -4.24l-3.4 9.22 1.48 2.62s15.62 5.42 17.78 6.32c0.3 0.12 0.18 0.62 -0.12 0.5 -1.56 -0.64 -6.1 -2 -6.78 -2.28l-2.5 7.44s19.52 8.72 20.98 9.32c0.26 0.12 0.16 0.54 -0.12 0.44 -1.46 -0.56 -5.64 -1.84 -6.22 -2v2.96l22.88 7.08 -4.8 -2.18 1.56 -10.44 -3.12 -3.16 -9.68 6.38 -3.08 -3 4.56 -11.18 -3.22 -4.38 -9.86 4 -2.94 -4.42 7.04 -9.3 -2.16 -5.48 -10.18 -0.12 -2.26 -4.7L38 186.6l-0.5 -5.84 -10 -3.32 -0.22 -5.26 10.32 -4.92V161.6l-8.28 -6.62 0.6 -4.24 11 -1.38 2 -5.1 -6.36 -8.48 2.44 -4.5 9.3 3.4 3.16 -4.38 -5.18 -10.72 3.06 -4.48 10.34 6.18 5.08 -3.44c-1.06 0 -6.42 0 -8 0.12a0.18 0.18 0 0 1 0 -0.34c1.62 -0.14 6.88 -0.52 8 -0.56l-3.76 -11.5 4 -2.66 8.86 8.72L79.32 108l-1.06 -10.32 3.58 -1.68zm84.76 8.94c2.14 -0.12 4.28 -0.16 6.42 -0.14l-4.84 -2.22c-0.56 0.9 -1.08 1.7 -1.58 2.36zm8.42 -11.94v-6.56l-4.9 -5.24a14.62 14.62 0 0 1 0.4 4.96c0.26 0 2.66 -0.14 3.6 -0.24 0.22 0 0.2 0.32 0 0.34l-3.68 0.54a42.88 42.88 0 0 1 -1.04 5.16c0.26 0 3.16 -0.2 4.34 -0.32 0.24 0 0.24 0.34 0 0.38 -1.2 0.14 -4.22 0.72 -4.58 0.78 -0.2 0.74 -0.44 1.52 -0.7 2.36zm3.98 -21.06c-3.36 0.58 -6.7 1.3 -10 2a14.22 14.22 0 0 0 7.16 2.1 28.5 28.5 0 0 0 5.52 -5.46l-2.28 -4.28A41.18 41.18 0 0 1 148 77.5c2.98 -0.5 6 -0.88 8.96 -1.32 0.36 -0.02 0.48 0.36 0.2 0.42z" stroke-width="1"></path><path d="M231.54 104.7c-2.64 -1.2 -5.26 -2.44 -7.88 -3.66 -0.12 -1.16 -0.26 -2.34 -0.36 -3.5 2 -2.28 6.9 -7.54 6.94 -8s-0.6 -1.28 -0.88 -1.7c-0.6 -0.92 -1.04 -2.18 -2.26 -2.3 -1.54 -0.14 -7.82 -0.2 -8 -0.44a14.64 14.64 0 0 1 -1.74 -4.38 76.48 76.48 0 0 0 3.26 -7.58A27.38 27.38 0 0 0 216 67.8c-0.16 -0.14 -8.78 0.94 -8.78 0.94 0.14 -1.24 0 -6.62 0 -8 0 -1.02 0.16 -2.24 -0.66 -3a23.2 23.2 0 0 0 -3.36 -2.22l-9.86 1.18a65.16 65.16 0 0 0 -2.3 -6.48 2.1 2.1 0 0 0 -1.36 -0.16c-1 0 -14 2.76 -14 2.76 -0.6 0 -4.78 -0.3 -4.78 -0.3l-24.42 6.94v3.62a4.16 4.16 0 0 1 1.42 0c2.9 -0.64 5.84 -1.04 8.72 -1.64 0.26 0 0.38 0.32 0.12 0.38 -2.48 0.58 -4.92 1.32 -7.4 2a2 2 0 0 1 0.58 0.78 2 2 0 0 1 0 1.52c-0.16 1.38 -6.6 2.12 -9.52 2.42l1.8 3.46a14.92 14.92 0 0 0 2.82 -0.54 21.78 21.78 0 0 0 7.46 -4.5 54.64 54.64 0 0 0 5.18 -4.68l2.84 2s7.22 -1.12 10.72 -1.62c0.28 0 0.4 0.38 0.12 0.42 -3.32 0.58 -6.6 1.56 -10 1.82l5.68 4 5.24 -4 -1.24 -11.52a13.14 13.14 0 0 1 3.7 0.12l5.24 8 5.24 -0.18 1.62 -9.82c0.88 -0.12 3.78 -0.82 4 -0.5s2.46 10.94 2.46 10.94l4.1 1.66 5.72 -7.6s2.6 1.84 2.98 2.28a103.82 103.82 0 0 1 -0.16 10.68l4 4 5.46 -4.88s4.28 4.7 4.34 4.92 -2.84 6.66 -3.14 7.48 1.12 3.78 1.54 4.56a1.58 1.58 0 0 0 1.6 0.86c2 0.1 6.86 0.24 7.3 0.32a7.62 7.62 0 0 1 2.34 3.3c0 0.14 -6.26 6.86 -6.58 7.2a1.1 1.1 0 0 0 -0.38 1.12c0.1 1.08 0.18 2.16 0.3 3.24 0 0.54 0.2 0.6 0.68 0.82s5.44 2.52 7.36 3.46c0 1.46 -0.14 2.92 -0.18 4.4l-7.68 2.34a0.42 0.42 0 0 0 -0.32 0.42c0 1.36 -0.62 7.68 -0.5 7.9s4.96 3.68 6 4.44c0 0.76 -0.32 4.48 -1.16 4.6s-4.38 -0.14 -5.32 -0.16c-1.38 0 -3.04 -0.36 -4 0.94s-1.7 2.96 -2.56 4.44a0.34 0.34 0 0 0 0 0.34c1.34 2 4.78 7.14 5 7.68a0.7 0.7 0 0 1 -0.2 0.94c-0.22 0.18 -3.7 2.96 -3.72 3L210.12 142l-4 2.68s0.98 10 1 10.16 0 0.72 -0.5 0.96c-1.02 0.46 -3.1 1.4 -3.1 1.44l-5.32 -7.92h-3.76s-3.14 10.68 -3.3 11.04L186.38 160l-0.58 -0.72 -1.44 -9.28 -5.26 -0.26L173.8 158l-3.54 -0.82 0.72 -11.74c-3.56 2.16 -7.44 3.74 -11.18 5.56a0.14 0.14 0 1 1 -0.14 -0.26c3.64 -1.8 7.08 -4 10.7 -5.88l-3.74 -2.6 -8.14 4.46 -3.46 -3.54 5.62 -10.5 -3.32 -4.38 -8.56 0.24 -2 -5.66 6.72 -6.6c-7.16 0.18 -14.28 0.52 -21.44 0.66a0.22 0.22 0 0 1 0 -0.44c7.36 -0.7 14.72 -0.94 22 -1.12l-1.34 -4.88h-8.86c-1.72 2 -2.98 2.48 -3.6 0 -2.14 0 -4.28 0 -6.42 0.18a0.2 0.2 0 0 1 0 -0.38c2 -0.16 4.18 -0.34 6.28 -0.48a56.12 56.12 0 0 1 0.62 -12.98 63.88 63.88 0 0 1 -13.08 5.9 62.28 62.28 0 0 1 -10.38 2.38v5.54l5.62 2.38 6 -7 3.46 1.84 -1.32 11.28 3.34 3.1 8 -4.14 3.36 2.88 -5.16 9.44 3.42 4 7.68 -1.28 2.44 4.14L148 144.94l0.42 3.56 9.1 0.84 1.16 5.46 -6.26 5.34 0.28 4.48 6.48 2.98v5.72L152 175.7v6l6 4.84 -1.34 5.88h-3.4S149.64 195.8 148 197.58a0.28 0.28 0 0 0 0 0.42c2 2.3 4 4.68 5.82 7.04l-1.82 4.72c-1.88 -0.76 -7.2 -3.18 -7.8 -2.58a28.18 28.18 0 0 0 -3.22 4.54c0 0.36 3.78 7.58 4 8s-3.02 4.98 -3.66 5.84c-1.62 -1.22 -6.52 -5.44 -6.9 -5.56s-3.72 2.56 -4 2.94 0 1.54 0 2.2c0.44 2 2 7.26 2 7.78s-3.86 3.6 -3.88 3.62l-6.14 -6.98 -4.14 2.22s0 10.44 -0.2 10.56 -5.28 1.86 -5.3 2l-5.18 -8.12 -5.02 1.12v10.44c0 0.04 -6 0.34 -6 0.36l-3.7 -10.48h-3.58s-6 11.06 -6.24 11.28 -3.3 -2 -3.78 -2.24l-1.38 -11.54 -4.98 -1.16 -5.8 7.46s15.5 8 15.76 8.14 0.66 -0.14 0.84 -0.48c0.54 -1 2.42 -3.76 2.7 -4.18l10.16 3.66s5.68 0 6 -0.16 0.44 -0.62 0.44 -1v-4c0 -0.26 9.78 1.32 9.86 1.28a44 44 0 0 0 5.48 -1.86 50.58 50.58 0 0 0 0.38 -8.7l10 2.8a24.34 24.34 0 0 0 4 -3.3 84.18 84.18 0 0 0 -2 -9.34 1.24 1.24 0 0 1 0 -1 23.68 23.68 0 0 1 3.28 -2.5c0.42 0 5.36 4.36 7.1 5.62a0.38 0.38 0 0 0 0.46 -0.12 65.28 65.28 0 0 0 4 -6 2.46 2.46 0 0 0 -0.44 -1.28c-0.26 -0.5 -3.14 -6 -3.42 -6.66s-0.28 -0.76 0 -1.22 2.48 -3.46 2.94 -3.46 6 2.28 7.18 2.74c0.16 0 0.32 0 0.38 -0.22 0.68 -1.72 1.4 -3.44 2 -5.16a0.32 0.32 0 0 0 0 -0.32c-2 -2.3 -4 -4.58 -5.82 -6.94 1.68 -1.62 4.96 -5.06 4.96 -5.08s2.62 3.88 2.74 4c1.46 0.54 2.92 1.1 4.42 1.6 0.46 1.3 0.9 2.62 1.36 4 -1.38 1.4 -2.94 2.64 -4.24 4.12a0.34 0.34 0 0 0 0 0.4c0.7 0.94 1.32 2 2 2.88a0.32 0.32 0 0 0 0.34 0.14c1.26 -0.44 2.6 -0.78 3.82 -1.32 0.58 0.78 1.78 2.7 1.82 2.82s-3.2 5.24 -2.96 5.76a25.3 25.3 0 0 0 2.72 2.86 0.36 0.36 0 0 0 0.46 0c1.24 -1.36 2.54 -2.64 3.76 -4 0.94 0.44 1.84 0.96 2.74 1.44 -0.12 0.64 -0.96 5.18 -1.1 5.9s0 1.34 0.86 1.4 12.96 2.58 13.2 2.38 1.3 -3.86 1.4 -4.2c0 0 5.64 1.24 5.8 1.14a33.74 33.74 0 0 0 2.88 -2.22 0.9 0.9 0 0 0 0.18 -0.8c0 -0.82 -0.78 -5.16 -0.78 -5.16s6.7 0.62 6.88 0.44A27.52 27.52 0 0 0 204 214a0.36 0.36 0 0 0 0 -0.5 15.08 15.08 0 0 1 -2.18 -4c0 -0.44 0.58 -3.28 0.66 -3.46s0 -0.16 0.36 -0.14a26.34 26.34 0 0 0 3.68 0.26 1.32 1.32 0 0 0 0.68 -0.6c0.3 -0.48 1.78 -2.76 1.36 -3.42s-2.84 -2.74 -3 -3.14 0 -2.9 0 -3.46c1.3 -0.82 2.56 -1.7 3.82 -2.56 0.2 -0.14 0.5 -0.24 0.62 -0.46s0 -2.54 0.14 -3.36c0 -0.18 -0.16 -0.3 -0.34 -0.32 -1.38 -0.16 -2.78 -0.22 -4.18 -0.4 0 -0.62 -0.2 -2.58 -0.22 -2.92s2.58 -2.92 3.64 -4a0.3 0.3 0 0 0 0 -0.36c-0.62 -1.22 -1.14 -2.5 -1.7 -3.74a0.28 0.28 0 0 0 -0.28 -0.16l-4.8 0.34a14.1 14.1 0 0 1 -1.06 -2.44c0 -0.26 1.78 -4.94 2 -6 0 -0.38 -1.48 -2.3 -1.48 -2.3l-6.88 -0.38c-0.42 -2 -0.36 -4 -0.72 -6a9.36 9.36 0 0 0 -2.12 -0.04l1.08 -3.2 10.9 0.3a37.06 37.06 0 0 0 3.5 -1.68c0.34 -0.2 0.36 -0.44 0.36 -0.86s-0.4 -7.44 -0.5 -8.28c0 0 9.36 0.56 9.62 0.36a26.76 26.76 0 0 0 4.16 -3.74c0 -0.54 -0.34 -1.02 -0.62 -1.42 -1.54 -2.32 -3.04 -4.68 -4.54 -7.02 0.44 -0.72 2 -3.72 2.66 -4.34s7.12 -0.26 8 -0.26a1.76 1.76 0 0 0 1.58 -0.5 23.68 23.68 0 0 0 0.86 -4.96 0.42 0.42 0 0 0 -0.18 -0.44l-6 -4.3c0.18 -2.4 0.4 -4.8 0.6 -7.2l7.76 -2.3a0.5 0.5 0 0 0 0.34 -0.44c0 -1.68 0.16 -3.36 0.2 -5.04a0.42 0.42 0 0 0 -0.24 -0.42zM193.76 160.84c0.36 2 0.68 7.5 0.68 7.5l3 2.92 4 -3.8a10 10 0 0 1 1.22 1.86c0 0.18 -2.26 5.84 -2.18 6.18a27.52 27.52 0 0 0 1.3 2.7 0.38 0.38 0 0 0 0.3 0.18l4.8 -0.38c0.52 1.1 1.1 2.2 1.56 3.32a40.5 40.5 0 0 0 -3.52 3.16c-0.46 0.48 -0.2 1.2 -0.16 1.8s0.12 1.7 0.16 2.54a0.36 0.36 0 0 0 0.36 0.34c1.38 0 2.78 0.26 4.16 0.38v2.76c-1.04 0.68 -4.26 2.42 -4.56 2.78a17.2 17.2 0 0 0 0 4.28c0 0.22 2 1.88 2.6 2.54a3.08 3.08 0 0 1 0.52 0.5c0.32 0.5 -1.4 3.1 -2 3.1a16 16 0 0 1 -2 -0.2c-0.86 -0.1 -2 -0.48 -2.26 0.6a25.2 25.2 0 0 0 -0.56 4.44c0 0.3 1.84 2.8 2.14 3.36a19.72 19.72 0 0 0 -2.22 2.14l-3.36 -2.48 -3.26 2.3s0.7 5 0.72 5.18a0.56 0.56 0 0 1 -0.2 0.64c-0.24 0.22 -2 1.48 -2.62 2l-2.62 -4.18 -3.08 0.48s-1.4 6.9 -1.46 6.92 -2.26 -0.38 -2.98 -0.5l-1.08 -6.26 -2.9 -0.34 -2.78 4.72a20.88 20.88 0 0 1 -3.2 -0.7c0 -0.18 0.56 -5.2 0.7 -6.38a0.22 0.22 0 0 0 -0.12 -0.18c-1 -0.52 -2 -1 -3.04 -1.58a0.22 0.22 0 0 0 -0.24 0c-1.3 1.2 -2.52 2.48 -3.78 3.72a19.26 19.26 0 0 1 -2.24 -2.64c0 -0.12 1.84 -2.7 2.58 -3.86a1.5 1.5 0 0 0 -0.1 -2 21.38 21.38 0 0 1 -1.74 -2.7 0.3 0.3 0 0 0 -0.3 -0.12 32.82 32.82 0 0 0 -3.82 1.26c-0.54 -0.82 -1.1 -1.64 -1.62 -2.48 1.46 -1.28 2.7 -2.8 4.12 -4.12a0.34 0.34 0 0 0 0 -0.3 42 42 0 0 0 -1.56 -4.44c-0.2 -0.18 -4.8 -1.6 -4.84 -1.6l0.48 -2.86 5.8 -2.72V186L158 182.22l0.24 -2.44 6.48 0.18 2.12 -4 -3.36 -5.7L166 168l4.6 3.26 2.56 -2 -0.64 -7.18 3.1 -0.54 3.08 4.68 3.54 -0.72 0.38 -6.36h2.62l0.78 1.08 1.68 6h2zM54.22 160a2 2 0 0 0 0 4.18 2 2 0 0 0 0 -4.18zm10.92 2.66a2.1 2.1 0 0 0 0 4.2 2.1 2.1 0 0 0 0 -4.2zm-2.42 7.04a2 2 0 0 0 0 4 2 2 0 0 0 0 -4zm-8.94 -1.86c-2.18 0 -2.18 4.28 0 4.36s2.22 -4.2 0 -4.36z" stroke-width="1"></path><path d="M83.66 161.44c-0.9 0.98 -4.44 4.6 -5.74 4.66a19.16 19.16 0 0 1 -6.82 -2.26 8.54 8.54 0 0 0 0.48 -2.5c-0.12 -0.34 -1.12 -0.88 -1.24 -0.94 6.2 0.72 10.12 -4.16 13.22 -8.8 0 -0.16 -0.16 -0.32 -0.28 -0.16A68 68 0 0 1 77.14 158a7.7 7.7 0 0 1 -4 1.64 30 30 0 0 1 -3.78 -0.18 8.78 8.78 0 0 0 -4.14 -6.44 12.48 12.48 0 0 1 15.04 -3.78c0.18 0 0.32 -0.16 0.16 -0.24a13.2 13.2 0 0 0 -16 3.62 8.12 8.12 0 0 0 -1.68 -0.5 9.76 9.76 0 0 0 -8.94 -8.22c-0.22 0 -0.2 0.32 0 0.34a9.08 9.08 0 0 1 8 7.78 9.58 9.58 0 0 0 -8.14 4c-0.26 -0.54 -4.84 -4.94 -5.48 -6.2a35.5 35.5 0 0 1 -1.2 -9.06c0 -0.16 -0.22 -0.16 -0.22 0a42.54 42.54 0 0 0 0.54 9.24 36.58 36.58 0 0 0 5.36 6c-0.36 0 -2.56 0 -2.68 1s-0.32 2.32 -0.46 3.48a54.46 54.46 0 0 1 -5.04 -4.66 31.76 31.76 0 0 1 -1.56 -8c0 -0.16 -0.26 -0.16 -0.26 0a40.64 40.64 0 0 0 1.08 8.26 28.48 28.48 0 0 0 5.72 5.02c0 0.28 0 0.54 -0.1 0.8a12.2 12.2 0 0 0 -4.2 1.84c-1.42 1.42 -6.48 13.66 -8.2 18 -0.12 0.3 0.38 0.5 0.52 0.22 1.8 -3.88 6.68 -15.28 7.78 -16.82a14.16 14.16 0 0 1 4 -2.3c0 0.36 -0.78 5.52 -0.88 7.74a3.5 3.5 0 0 0 0.68 2.38c0.66 0.86 6.46 6.64 6.9 6.88 0.76 0.36 1.7 -0.28 2.36 -0.58a86.94 86.94 0 0 0 10.34 -6.24 40.62 40.62 0 0 0 1.42 -5.22 22.84 22.84 0 0 1 2.62 2.36c0.92 1.56 -1.62 12 -2.42 15.62 0 0.16 0.2 0.22 0.26 0 1 -3.88 4.28 -14.24 2.6 -16.24a14 14 0 0 0 -2.88 -2.54c0.22 -0.8 0.42 -1.62 0.62 -2.44A11.42 11.42 0 0 0 78 166.86c1.2 -0.16 4.82 -4 5.84 -5.22 0.16 -0.14 -0.06 -0.34 -0.18 -0.2zm-15.48 11.24c-0.24 0.48 -11.08 6.48 -11.34 6.54s-0.52 0 -0.82 -0.3a68.98 68.98 0 0 1 -6.9 -7.3c-0.16 -0.84 1.5 -14.42 1.58 -14.56a33.08 33.08 0 0 1 20.16 4.28c0.52 0.32 -2.48 10.94 -2.68 11.34z" stroke-width="1"></path><path d="M60.46 160.3a136.22 136.22 0 0 0 -4 16.68 0.16 0.16 0 0 0 0.3 0.1c1.26 -5.56 2.68 -9.24 4.34 -16.56 -0.02 -0.32 -0.5 -0.52 -0.64 -0.22zm61.64 -23.76a2.42 2.42 0 0 0 0 4.82 2.42 2.42 0 0 0 0 -4.82zm6.42 11.04a2.42 2.42 0 1 0 4.8 0 2.42 2.42 0 1 0 -4.8 0zm-6.04 5.42a2.32 2.32 0 0 0 4.6 0 2.32 2.32 0 0 0 -4.6 0zM118.54 148c2.68 -2.44 0.42 -5.04 -2.36 -2.72s-0.42 5.02 2.36 2.72zm10.64 -7.54c-1.2 0.76 -10.26 10.52 -12.18 12.8 0 0.12 0 0.32 0.2 0.18 2 -2.22 11.44 -11.34 12.36 -12.48 0.2 -0.26 -0.06 -0.7 -0.38 -0.5z" stroke-width="1"></path><path d="M151.48 154.26a29.02 29.02 0 0 1 -8 1.52 44 44 0 0 1 -6.28 -4.38 15.32 15.32 0 0 0 1.46 -1.3c0.64 -0.82 0 -1.86 -0.32 -2.68 -0.18 -0.42 -0.38 -0.84 -0.6 -1.24 3.42 2.2 5 3.62 9.56 2a0.16 0.16 0 0 0 0 -0.32 6.74 6.74 0 0 1 -5.82 -0.46c-0.82 -0.52 -3.34 -2.38 -3.82 -2.72a10 10 0 0 0 0.14 -7.86 14.84 14.84 0 0 1 13.8 1.7c0.18 0.14 0.36 -0.18 0.18 -0.32a15.54 15.54 0 0 0 -14.54 -2.2 7.26 7.26 0 0 0 -1.66 -1.84A13.34 13.34 0 0 0 132 121.74a0.2 0.2 0 0 0 -0.28 0.28c2.96 3.02 3.34 7.52 2.86 11.52a11.12 11.12 0 0 0 -9.76 -0.8c0 -0.76 -2.52 -8.38 -2.2 -10.14a54.58 54.58 0 0 1 4.86 -9.24c0.16 -0.22 -0.2 -0.42 -0.36 -0.2a53.12 53.12 0 0 0 -5.32 9.44c-0.3 1.7 1.74 9.32 2 10 -1 -0.38 -2.12 -1.48 -3.16 -0.68a18.26 18.26 0 0 0 -2 2 30.62 30.62 0 0 1 -2.86 -6.6c0 -2.78 1.7 -5.14 2.74 -7.6 0 -0.16 -0.18 -0.3 -0.24 -0.14 -1.14 2.54 -3.16 4.86 -3.24 7.74A27.46 27.46 0 0 0 118 134.76c-0.44 0.5 -0.88 0.98 -1.3 1.48a27.24 27.24 0 0 0 -4.66 -0.52c-1.56 0.2 -9.52 6.62 -12 9 -0.16 0.16 0 0.38 0.26 0.24 2.52 -2 10.2 -8.16 11.7 -8.3a16 16 0 0 1 4.12 0.36c-2 2.76 -4.96 5.36 -5.04 9.04a32.82 32.82 0 0 0 0.46 7.14 0.38 0.38 0 0 0 0.76 0c0 -2.38 -0.3 -4.76 -0.22 -7.14a7.3 7.3 0 0 1 0.84 -3.32c0.54 -0.98 8.28 -10.52 8.9 -10.26a28.78 28.78 0 0 1 16.18 16.6c0 0.34 -8.54 8.52 -9.56 8.62s-10.44 -0.76 -12.6 0c-0.44 0.14 -0.38 0.84 0.1 0.82 2.24 -0.14 11 0.48 13 0a55.22 55.22 0 0 0 6 -4.88c0.18 1.62 0.54 3.22 0.68 4.84 0 0.96 -7.54 9.4 -10 11.88a0.16 0.16 0 1 0 0.24 0.24c2.76 -2.62 10.7 -10.22 10.72 -11.9a55.4 55.4 0 0 0 -0.86 -5.74l0.82 -0.74a38.54 38.54 0 0 0 6.82 4.64c1.3 0.28 6.82 -1.48 8.24 -2 0.26 -0.28 0.14 -0.7 -0.12 -0.6zm-60.5 66.04a2.1 2.1 0 0 0 -4.2 0 2.1 2.1 0 0 0 4.2 0zm11.74 -2.3a2.24 2.24 0 0 0 -4.48 0 2.24 2.24 0 0 0 4.48 0zm-1.26 5.34a2 2 0 0 0 0 4 2 2 0 0 0 0 -4zm-9.2 2.04c-2.68 0 -2.68 4.84 0 4.92s2.66 -4.84 0 -4.92z" stroke-width="1"></path><path d="M116.68 206.42c-0.32 1.26 -2.16 6 -3.22 6.56 -0.54 0.26 -6.52 1.88 -6.98 2 -0.18 -0.98 0 -2.3 -1.12 -2.68a9.1 9.1 0 0 0 -2.48 -0.5c5.08 -4 10.16 -7.1 9.3 -14.92 0 -0.14 -0.22 -0.14 -0.2 0a11.76 11.76 0 0 1 -2.8 8.62c-2 2.26 -4.66 3.56 -6.72 5.64a9.28 9.28 0 0 0 -7.2 -4.24 11.76 11.76 0 0 1 7.7 -8.78 0.14 0.14 0 1 0 0 -0.28 12 12 0 0 0 -8.62 9.08 8.96 8.96 0 0 0 -1.24 0.22 13 13 0 0 0 -11.74 -4.54c-0.18 0 -0.2 0.34 0 0.32a13.28 13.28 0 0 1 10.64 4.56 10 10 0 0 0 -6 6.36 46.96 46.96 0 0 1 -8.7 -2.64c-1.58 -0.74 -4.32 -7.2 -5.02 -8.98 0 -0.14 -0.28 0 -0.22 0 0.72 1.88 3.14 8.58 4.58 9.46a48.4 48.4 0 0 0 9.12 2.96c-2.12 2 -3.52 1.62 -2 5.26 -0.48 -0.32 -6.54 -1.3 -7.62 -2a32.12 32.12 0 0 1 -4.5 -6.48c0 -0.16 -0.3 0 -0.22 0.14a36.58 36.58 0 0 0 4.28 7.08 27.82 27.82 0 0 0 8 2 9.3 9.3 0 0 1 0.82 1.76 21.26 21.26 0 0 0 -3.76 4.3 4.84 4.84 0 0 0 -0.24 2.5c0 1.08 1.34 11.82 1.74 16.12 0 0.16 0.26 0.16 0.26 0 -0.34 -4 -1.32 -17.04 -1.06 -17.88a28.82 28.82 0 0 1 3.34 -4.12c0.14 0.42 2 6.62 2.5 7.6 0.8 2 2.92 2.5 4.66 3.28a48.18 48.18 0 0 0 6.24 2.54c0.96 0.1 1.58 -0.54 2.2 -1.18s4.96 -5.54 6.2 -7.24a4.44 4.44 0 0 0 0.98 -2.6c0 -1.14 -0.68 -6 -0.84 -7.28 1.18 0.48 4 0.8 4.6 2.44 0.4 0.88 3 10 3.72 13.82 0 0.18 0.3 0 0.28 0a83.18 83.18 0 0 0 -2.54 -11.88 6.1 6.1 0 0 0 -2.26 -4 26.36 26.36 0 0 0 -4 -1.28c0 -0.58 -0.16 -1.16 -0.22 -1.74a74.96 74.96 0 0 0 7.58 -2.22c0.98 -0.62 2.58 -5.66 2.88 -7.04 0.32 -0.26 -0.04 -0.36 -0.1 -0.12zm-9.74 18a4.28 4.28 0 0 1 -0.4 3.02 67.64 67.64 0 0 1 -7.16 8.18c-0.86 0.72 -10 -3.48 -10.56 -4.1a137.88 137.88 0 0 1 -4.86 -14c0.1 -0.32 10.32 -8 21.72 -3.74 0.54 0.1 -0.02 0.76 1.26 10.54z" stroke-width="1"></path><path d="M94.62 215.7a0.32 0.32 0 0 0 -0.58 0.16c0 0.7 3.32 14.82 4 17.82 0 0.16 0.3 0 0.26 0 -0.6 -3.08 -3.34 -17.34 -3.68 -17.98zM144 224.8a1.86 1.86 0 0 0 3.7 0 1.86 1.86 0 0 0 -3.7 0zm12.98 -1.2a2 2 0 0 0 0 -4 2 2 0 0 0 0 4zm-3.72 -7.48a2 2 0 0 0 0 -4.18 2 2 0 0 0 0 4.18zm-7.46 1.08a1.48 1.48 0 0 0 -2.42 -1.1l1.26 2.54a1.5 1.5 0 0 0 1.16 -1.44zm6.5 9.36c0.18 0.26 0.72 0.22 0.68 -0.18 -0.14 -1.3 -4.54 -13.16 -5.26 -15.88 0 -0.12 -0.2 0 -0.18 0 0.7 2.78 4.46 15.5 4.76 16.06z" stroke-width="1"></path><path d="M169.34 229.16a14.48 14.48 0 0 0 -8 -2.48c2.12 -2.22 2.94 -1.8 1.48 -5.32a29.4 29.4 0 0 1 2.68 -2.18 0.28 0.28 0 0 0 0 -0.38 10.28 10.28 0 0 0 -2.84 2c-0.52 -1.24 -6.86 -13.82 -8 -15.56 -0.24 -0.34 -0.56 0.34 -0.32 0.68 1.16 1.52 8.52 16.94 8.62 17.38a1.26 1.26 0 0 1 -0.48 1.46c-7.88 7.1 -19.68 5.32 -20.84 4.84a1.32 1.32 0 0 1 -0.86 -0.94c-0.16 -0.5 -0.92 -3.2 -1.32 -4.14 -0.16 -0.36 -0.68 -0.44 -0.62 0s1 3.44 1.04 3.58a8.5 8.5 0 0 0 -7.44 3.4c-0.28 0.32 0 0.94 0.34 0.62a8.84 8.84 0 0 1 7.32 -3.18c0.56 2 2.94 1.78 4.56 2A14.42 14.42 0 0 0 136 246c0 0.18 0.3 0.18 0.28 0a14.66 14.66 0 0 1 9.1 -14.4s1.44 3.36 6.96 3.64c-1.36 5.6 -5.42 11.38 -11.72 11.5a0.18 0.18 0 0 0 0 0.36c6.8 0.16 11.38 -5.84 12.88 -12a9.82 9.82 0 0 0 1.26 -0.34 9.36 9.36 0 0 0 12 2.96c0.22 0 0 -0.4 -0.16 -0.3a8.78 8.78 0 0 1 -10.84 -3.08 11 11 0 0 0 5.38 -6.86 13.36 13.36 0 0 1 13.76 10c0 0.14 0.24 0 0.22 0a14.42 14.42 0 0 0 -5.78 -8.32zm15.4 -94.38a1.78 1.78 0 0 0 -3.56 0 1.78 1.78 0 0 0 3.56 0zm7.38 -2.14a1.8 1.8 0 0 0 0 3.6 1.8 1.8 0 0 0 0 -3.6zm-0.56 6.08a1.54 1.54 0 0 0 0 3.06 1.54 1.54 0 0 0 0 -3.06zm-7.18 0.92a1.86 1.86 0 0 0 0 3.7 1.86 1.86 0 0 0 0 -3.7zm2.84 -7a118 118 0 0 0 0.2 13.08c0 0.14 0.24 0.16 0.22 0 -0.12 -2.22 0.56 -12 0.4 -13.08 -0.04 -0.46 -0.7 -0.38 -0.82 0z" stroke-width="1"></path><path d="M205.56 127.4a48.94 48.94 0 0 1 -3.02 4.8 25.26 25.26 0 0 1 -5.4 0.58 2.76 2.76 0 0 0 -0.86 -2.34c4 -1.76 5.52 -6.12 6.86 -10 0 -0.26 -0.32 -0.36 -0.42 -0.12 -1.32 3.8 -3.14 8.4 -7.4 9.64a4.38 4.38 0 0 0 -1.34 -0.14 6.88 6.88 0 0 0 -3.52 -4 10.38 10.38 0 0 1 9.2 -6.66c0.28 0 0.28 -0.44 0 -0.42a11.44 11.44 0 0 0 -10.16 6.7 12.24 12.24 0 0 0 -1.48 -0.24 11.1 11.1 0 0 0 -10 -4.98c-0.28 0 -0.3 0.46 0 0.44a10.12 10.12 0 0 1 8.7 4.6 6.92 6.92 0 0 0 -5.38 4.42c0 -0.12 -5.56 -3.08 -6.46 -3.84a8.44 8.44 0 0 1 -2.56 -6.56c0 -0.24 -0.38 -0.24 -0.36 0a11.02 11.02 0 0 0 2.12 6.98A26 26 0 0 0 180.3 130a1.56 1.56 0 0 0 -1.52 1.52c0 0.8 0 1.62 -0.12 2.44a30.68 30.68 0 0 1 -5.6 -2.16 23.6 23.6 0 0 1 -2.44 -5.66c0 -0.14 -0.24 0 -0.2 0a26.64 26.64 0 0 0 2.14 6.12 35.24 35.24 0 0 0 6 2.7v1.22a11.08 11.08 0 0 0 -2.66 2c-0.96 1.24 -1.26 11.3 -1.48 14.82 0 0.24 0.38 0.24 0.38 0 0.22 -3.2 0.76 -12.82 1.64 -14a13.1 13.1 0 0 1 2.16 -1.64 45.88 45.88 0 0 0 0.66 5.36 4 4 0 0 0 1.4 1.6 39.4 39.4 0 0 0 6.7 4.36 3.16 3.16 0 0 0 1.74 -0.78c0.8 -0.62 5.34 -4.4 6.7 -5.78a3.28 3.28 0 0 0 1.08 -1.86c0.12 -0.86 0 -4 0 -4.62 0.8 0.5 1.78 0.8 2.56 1.24 1.18 0.64 0.92 9 0.76 11.72h0.14c0.14 -1.54 0.8 -7.62 0.8 -9.14a3.66 3.66 0 0 0 -0.94 -3.06 21.06 21.06 0 0 0 -3.32 -1.74v-1.18a14.36 14.36 0 0 0 5.62 -0.76 32.14 32.14 0 0 0 3.08 -5.2 0.16 0.16 0 0 0 -0.02 -0.12zm-9.38 12.88a94.4 94.4 0 0 1 -7.76 7.1 1.7 1.7 0 0 1 -1.12 0.5c-1.12 -0.2 -2 -1.18 -2.84 -1.78 -1.22 -0.92 -2.5 -1.78 -3.72 -2.7a2.78 2.78 0 0 1 -0.98 -2.16c0 -0.78 -0.38 -6.78 -0.36 -7.8 0 -0.7 -0.26 -2.3 0.54 -2.58a25.28 25.28 0 0 1 15.36 0 1.54 1.54 0 0 1 1.14 1.24c0.12 0.64 -0.16 7.9 -0.26 8.18zm26.94 -66.58a2.72 2.72 0 0 0 5.4 0 2.72 2.72 0 0 0 -5.4 0zm-3.38 -9.3a2.62 2.62 0 0 0 -5.22 0 2.62 2.62 0 0 0 5.22 0zm1.82 14.16a1.7 1.7 0 0 0 -3.38 0 1.7 1.7 0 0 0 3.38 0zm2.54 -12.08c-0.88 0.74 -4.56 3.6 -5.46 4.34 -0.5 0.4 0.22 1.14 0.7 0.7 0.86 -0.78 4.2 -4 5.06 -4.76 0.2 -0.18 -0.1 -0.46 -0.3 -0.28z" stroke-width="1"></path><path d="M250.96 72.36c-4.64 1.8 -10.28 4 -15 1.26 -0.66 -0.4 -2.66 -2 -3.06 -2.36 1.14 -2 2.24 -6 0.38 -8.86a14 14 0 0 1 16.74 6c0.18 0.26 0.6 0 0.42 -0.24a14.88 14.88 0 0 0 -17.8 -6.78 9.8 9.8 0 0 0 -0.88 -0.96 14.56 14.56 0 0 0 -3.66 -14.34 0.18 0.18 0 0 0 -0.24 0.24 13.72 13.72 0 0 1 2.86 13.26 12.94 12.94 0 0 0 -10.2 -1.78 37.58 37.58 0 0 1 -2.7 -9.72c0 -0.94 4.84 -7.82 6.22 -9.24 0.18 -0.16 0 -0.44 -0.28 -0.26 -1.46 1.48 -7.06 7.18 -7 9.18a52.52 52.52 0 0 0 2.76 10.3c-3.04 -1.5 -3.62 -1.06 -5.76 1.8 -0.54 -2.94 -1.44 -5.82 -2 -8.74 -0.28 -1.42 2 -6 2.66 -7.04 0 -0.16 -0.16 -0.32 -0.24 -0.14 -0.62 1.18 -3.58 5.5 -3.48 6.88s2.34 9.86 2.38 10a88 88 0 0 0 -6.16 8 0.3 0.3 0 0 0 0.46 0.34c0.64 -0.28 8.32 -10.64 8.94 -11 1.18 -0.68 2.44 0.38 3.52 1.08a114.26 114.26 0 0 1 11.66 12.8 16.2 16.2 0 0 1 1.5 3.2c0 0.4 -11.6 9.54 -12 10.12a0.28 0.28 0 0 0 0.24 0.46c0.84 -0.22 10 -7.22 10.46 -7.74a41.86 41.86 0 0 0 6.66 5.06 43.54 43.54 0 0 0 8.22 -0.98c0.24 0 0.14 -0.4 0 -0.36 -1.38 0.2 -6.84 1.04 -8 0.48a66.6 66.6 0 0 1 -6 -4.94 5.14 5.14 0 0 0 1.26 -1.38c0.38 -0.76 -0.94 -3.12 -1.22 -3.62a33.56 33.56 0 0 0 2.92 2.18 9.46 9.46 0 0 0 4.98 1.3 30.34 30.34 0 0 0 10.64 -3.2c0.04 -0.06 -0.02 -0.32 -0.2 -0.26zm30.62 168.06a28.46 28.46 0 0 1 -7 -2.86 28 28 0 0 1 -6.38 -5.1l-4.74 6.9 15.04 5.56zm53.8 125.1c-0.66 -0.84 -1.3 -1.68 -2 -2.5s-1.28 -1.5 -2.12 -1.46c0 0 -1.32 -2 -1.4 -2l1.4 -1.08c-6.22 -29.66 -6.8 -28 -12.76 -45.76a13.24 13.24 0 0 1 0.18 -10.86c1.82 -4.32 2.64 -9 4.56 -13.26 2.24 -4.98 3.5 -16.16 0 -42.68a70.44 70.44 0 0 1 -31.54 -3.26c-0.92 1.04 -1.9 2 -2.84 3.1l2.24 0.96a123.46 123.46 0 0 1 -6.62 13.8c-2 3.6 -12.64 22.32 -13.64 23.3a13.08 13.08 0 0 1 -4.22 2.76 7.68 7.68 0 0 1 -1.84 0.32 8.94 8.94 0 0 1 -1.48 0 53.3 53.3 0 0 1 -11.38 -2.54c-4.62 -1.68 -9.14 -3.46 -13.7 -5.38 -6.96 28.3 -6 56.94 2.16 92.6 0.92 0.3 2 0.6 3.16 0.88v3.38c-1.26 1.4 -7.3 5.6 -8.26 7.1a2.54 2.54 0 0 0 1.08 3.8 5.68 5.68 0 0 0 2.78 0.32c1.1 0 20.52 -2.76 21.06 -3.38s0.24 -1.54 0.16 -2.22c-0.16 -1.08 -1.04 -6.18 -1.86 -6.16v-2.24a36.76 36.76 0 0 0 4 -0.84l5.5 -68.96c9.8 -5.54 28.34 -28.78 34 -37.64 0.14 -0.2 0.48 0 0.34 0.2 -1.66 2.8 -3.36 5.6 -5.18 8.32 -3.16 4.74 -13 16.9 -14.42 18.46 -2.68 34.34 13 55.38 31.12 76.16 0.92 -0.38 1.86 -0.8 2.84 -1.26 0.12 0.16 1.64 2 1.68 2.1 -0.44 2 -3.76 8.92 -3.56 10.76a2.52 2.52 0 0 0 3.1 2.2 6.62 6.62 0 0 0 2.56 -1.3c0.9 -0.62 16.14 -12.54 16.26 -13.32s-0.86 -1.78 -1.36 -2.42zm-91.04 7.02a40.44 40.44 0 0 0 13.48 0.52c0 0.74 0.1 1.48 0.14 2.24a10.92 10.92 0 0 1 -13.6 0.46s0 -2.18 -0.02 -3.22zm14.62 4.66c0.16 0.8 0.62 4.28 0.74 5.22s-0.26 0.8 -0.82 1.02 -18.24 2.66 -20.12 2.74 -4 -0.96 -2.66 -3.04c0.52 -0.78 6.74 -5.58 8 -6.84 2 1.52 7.16 5.06 14.2 -0.28 0.32 -0.3 0.58 0.8 0.66 1.18zm58.46 -10a76.1 76.1 0 0 0 12 -7.26c0 0.12 1.3 2 1.32 2 -3.64 7.54 -9.4 7.74 -11.78 7.34 -0.1 -0.14 -1.42 -2 -1.54 -2.14zm2.2 13.74c-1.22 0.98 -3.54 1.56 -4 -0.48a4.22 4.22 0 0 1 0.68 -2.7 63.48 63.48 0 0 0 2.7 -7.84 11.36 11.36 0 0 0 12.18 -7.44 37.8 37.8 0 0 1 4.14 4.5c0.36 0.46 0.74 0.82 0.34 1.38s-14.4 11.44 -16.04 12.52z" stroke-width="1"></path><path d="M266.36 239.62c-5.1 -1.7 -10.1 -3.78 -15.3 -5.16 -0.34 0 -0.58 0.42 -0.24 0.56 5 2 10.26 3.46 15.38 5.22 0.38 0.14 0.56 -0.48 0.16 -0.62zM232 260.74c-1.5 2.98 1.36 4.48 2.96 1.56s-1.34 -4.48 -2.96 -1.56zm26 9.78c-1.5 2.98 1.36 4.46 2.96 1.54s-1.38 -4.46 -2.96 -1.54z" stroke-width="1"></path><path d="M288.7 255.2c-2.8 -1.14 -9.44 -4.58 -10 -4.98s-1.66 -0.8 -1.6 -1.44 1.56 -3.74 2 -4.56c0.16 -0.36 -0.32 -0.68 -0.52 -0.32a33.04 33.04 0 0 0 -2.32 4.82c-0.14 0.88 0.68 1.38 1.32 1.82 -2.9 5.72 -15.14 26.48 -15.6 27.14 -9.56 -3.58 -31.78 -9.68 -32.98 -10.28a3.26 3.26 0 0 1 -2.16 -2.54 8 8 0 0 1 0.76 -3.38c0.5 -1.3 13.86 -24.68 14.72 -26a3.72 3.72 0 0 1 3.52 -1.86 66.74 66.74 0 0 1 8.44 2.62 192.22 192.22 0 0 0 17.5 -33.14l0.98 -6.78 -2.78 -2.62 -2.38 1.66a319.52 319.52 0 0 1 -19.4 37.86c-3.72 -0.8 -5.56 -0.52 -7.42 3.02 -0.8 1.3 -12.6 21.54 -13.18 22.86 -1.26 2.74 -3.2 6.92 0.5 8.64 -0.32 0.78 -1.26 3.84 -0.78 4.56s11.38 7.66 12.9 8.52a0.26 0.26 0 0 0 0.32 -0.42c-1.14 -1.06 -12.42 -8.32 -12.64 -8.68a10.66 10.66 0 0 1 0.8 -3.68s27.24 8.16 32.82 10.3c-3.7 5.54 1.28 10 6.98 8a0.38 0.38 0 0 0 -0.18 -0.72c-2.44 0.5 -6.28 0.42 -6.94 -2.66a5.82 5.82 0 0 1 1.08 -4.14c0.76 -1.26 14.24 -25.02 15.66 -28a60.56 60.56 0 0 0 10.58 4.78c0.2 0.16 0.3 -0.26 0 -0.4z" stroke-width="1"></path><path d="M317.28 166.14a6.3 6.3 0 0 0 -3.74 -4.88 2.24 2.24 0 0 0 -2.92 1.1 10.42 10.42 0 0 0 -0.34 3.7 125.2 125.2 0 0 1 -10.4 44c-5 11.6 -10 24.2 -20.82 31.66 -0.38 0.24 10.94 4.52 13.04 5.28 0.36 0.12 0.58 -0.44 0.26 -0.62 -2 -1.14 -10 -4.26 -12 -4.96 8.82 -5.84 13.2 -16 17.74 -25.26 7.54 -15.88 12.82 -33.14 13.28 -50.82 0 -0.98 -0.3 -3.16 1.12 -3.3a3.5 3.5 0 0 1 2.82 1.8 11.44 11.44 0 0 1 1.36 6.5 122.44 122.44 0 0 1 -7.3 36.98c-3.48 10.62 -14 28.26 -18.96 36.82 -0.42 0.56 0.5 1.08 0.92 0.54 4.64 -8.14 14 -23.46 17.52 -33.42a130.28 130.28 0 0 0 8.56 -37.56 28.44 28.44 0 0 0 -0.14 -7.56zm-10.4 -53.66c-7.44 -9.3 -24 -9.32 -29.72 1.8a72.46 72.46 0 0 0 -10.84 -4.8c-2.16 -0.54 -5.62 -0.24 -6.18 2.4a3.28 3.28 0 0 0 1.58 2.74c1.1 0.88 8.42 5.26 10.94 6.58a11.28 11.28 0 0 0 3.46 10.8 10.22 10.22 0 0 1 -2 4.98 2 2 0 0 0 -0.12 2.42c0.32 0.38 0.8 0.58 1.14 0.94 1.08 1.24 0.68 3.04 0.94 4.56a10.64 10.64 0 0 0 9.18 9.22c0.18 1.68 0.28 3.38 0.32 5.06a0.24 0.24 0 0 0 0.48 0 22.38 22.38 0 0 0 -0.24 -5.04 9.5 9.5 0 0 0 2.12 -0.12v-0.14a11.54 11.54 0 0 1 -10.34 -6.44 17.74 17.74 0 0 1 -1.12 -5.88 3.56 3.56 0 0 0 -1.2 -2c-0.44 -0.34 -1 -0.62 -0.96 -1.26a2.96 2.96 0 0 1 0.82 -1.56c2 -2.3 2 -6.74 2.16 -8 0.16 -1 0.3 -2 0.42 -2.92a7.16 7.16 0 0 0 6.72 4.78 10.9 10.9 0 0 0 -0.18 -5.52c0.46 0.7 1.18 1.76 2.12 3.04a10.7 10.7 0 0 1 1.48 2.12c0.88 2.14 -0.24 4 0.36 4.32s2.56 -2.82 4.7 -2.48a3.22 3.22 0 0 1 2.22 2 3.7 3.7 0 0 1 -0.2 3.04 4.76 4.76 0 0 1 -3.5 2.4 10 10 0 0 0 2.96 8.2 9.02 9.02 0 0 0 5.6 2.08c0 1.42 0 8.42 0.26 9.18 0 0.34 0.52 0.22 0.56 0 0.12 -0.82 -0.12 -7.76 0 -9.16 7.44 -1.04 12 -11.8 7.46 -18.16a16.24 16.24 0 0 0 -1.4 -19.18zm-34.1 8.24c-1.78 -0.96 -7.44 -4.5 -8.52 -5.24a9.38 9.38 0 0 1 -2.86 -2.44c-0.78 -1.26 0.36 -2.2 1.5 -2.54a6.46 6.46 0 0 1 3.54 0.12 81.38 81.38 0 0 1 10 4.54 12.24 12.24 0 0 0 -3.66 5.56zm34.76 9.82s-28.92 -15.46 -29.86 -16c10.96 -17.5 39.88 -3.3 29.86 16z" stroke-width="1"></path><path d="M281.7 145.58a4.72 4.72 0 0 1 5.18 1.16c0.14 0.16 0.36 0 0.22 -0.22 -0.4 -0.46 -2.78 -4 -6 -1.5 -0.28 0.28 0.24 0.76 0.6 0.56zm-0.16 -13.58a0.46 0.46 0 0 0 0.6 -0.16c0.1 -0.2 0 -0.54 -0.16 -0.6a2 2 0 0 0 -2.9 2 0.12 0.12 0 0 0 0.22 0 1.58 1.58 0 0 1 2.24 -1.24zm-0.42 6.38c0.16 -1.02 0 -3.26 0 -4.26 0 -0.32 -0.48 -0.32 -0.52 0 0 0.72 -0.5 3.88 -0.42 4.26s0.82 0.4 0.94 0zM221.44 154l-12 5.88c-2.58 3.12 -1.2 6.9 2.2 6.7l10.7 -6a8.76 8.76 0 0 1 -1.16 -2.88 9.66 9.66 0 0 1 0.26 -3.7zm32.2 -12a1.16 1.16 0 0 1 -2 0.84 1.46 1.46 0 0 1 -2.34 1.1c-0.28 2.22 -2.36 1.7 -3.4 -0.74l-15.74 7a28.44 28.44 0 0 1 2 6.78c6.74 -3.26 13.44 -6.38 20.18 -9.64 2.96 -0.96 3.66 -4.06 1.3 -5.34zm-0.28 -2.44c0.24 1.14 1.18 0.8 2.14 0.84 2.86 0.62 3.32 3.74 1.38 5.88l14.44 -6.98a15.16 15.16 0 0 1 3.52 -6.62l-1.42 -1.22zm136.02 -5.72a109.52 109.52 0 0 0 -10.74 -33.52 8 8 0 0 0 -0.28 -7.76c-5.68 -9 -30.52 1.08 -44.54 8.5a96 96 0 0 0 -13.16 7.84 10.96 10.96 0 0 0 -3.76 6.44L309.22 118a11.88 11.88 0 0 1 0.9 3.4 10.52 10.52 0 0 1 -0.6 4.24l8.88 -4.84a59.26 59.26 0 0 0 5.82 2.74 74.62 74.62 0 0 1 5.36 9.66c5.86 11.34 11.26 22.94 17.6 34 5.66 9.46 15.62 15.88 26.56 10.88 16 -7.6 17.5 -28.64 15.64 -44.24zm-0.58 7.06c-0.5 -0.38 -4.52 -4 -5.22 -4.78a33.46 33.46 0 0 0 4.18 -5.16 75.8 75.8 0 0 1 1.04 9.94zm-1.22 -10.9a28.94 28.94 0 0 1 -4.44 5.6 87.82 87.82 0 0 1 -5.14 -8.6c1.44 -1.3 6.38 -6.34 6.9 -7.82 1.1 3.38 2.66 10.62 2.68 10.82zm-52 -7.1a26.22 26.22 0 0 0 -2.2 2.5l-1.38 -1.78c1.06 -0.22 2.24 -0.46 3.58 -0.76zm-5.86 -5.78c0 -0.14 0.96 -2.5 1.38 -3.52a46 46 0 0 0 4.76 2c0 0.18 -0.1 0.36 -0.16 0.52a36.8 36.8 0 0 1 -5.98 0.96zm7.64 5.32c1.38 -0.36 2.88 -0.78 4.56 -1.3a47.12 47.12 0 0 1 3.88 5.38c-2.22 2.38 -4.52 4.7 -6.64 7.18 -1.64 -2.6 -3.4 -5.1 -5.24 -7.58a39.84 39.84 0 0 1 3.44 -3.72zm15.2 -3.14c-0.6 0.66 -4.74 5.04 -6.18 6.58a47.46 47.46 0 0 0 -3.7 -5c1.56 -0.5 7.54 -2.64 8.66 -3.08a17.38 17.38 0 0 1 1.22 1.46zm-0.48 -1.8c1.22 -0.5 2.4 -1 3.6 -1.54l-2.58 2.78a15.28 15.28 0 0 0 -1.1 -1.28zm1.14 2.72c0.74 1.14 4 8 4.92 10.24 -2.14 1.82 -4.3 3.64 -6.42 5.48 -0.94 -2.2 -4.2 -8.26 -4.74 -9.14zm5.3 11.24 3.7 9.24c-1.14 1.14 -5.32 5.34 -6.26 6.32 -1.2 -3.42 -2.44 -6.82 -3.84 -10.14zm0.72 -0.6c2.12 -1.78 4.22 -3.6 6.28 -5.44 0.62 1.82 3 7.58 3.5 8.68 -0.36 0.34 -4.42 4.24 -6 5.86 -0.56 -1.22 -3.02 -7.3 -3.78 -9.14zm10.2 4.12c1.1 2.4 4.28 8.84 4.72 9.7 -0.64 0.64 -5.08 4.92 -6.66 6.38l-4.18 -10.18c2.02 -2.02 4.06 -4 6.12 -5.94zm-3.12 -10.28c2.3 -2 4.52 -4.22 6.66 -6.48 0.6 1.52 3.12 7.32 3.76 8.72q-3.52 3.16 -6.92 6.4c-0.44 -0.98 -2.82 -6.74 -3.5 -8.68zm-0.38 -1.08c-0.42 -1.26 -2.98 -8.46 -4.58 -10.28a70 70 0 0 0 8.22 -4.28c0.24 0.44 2.62 7.2 2.96 8 -2.1 2.28 -4.32 4.42 -6.54 6.52zm-0.22 -19.8a31.78 31.78 0 0 1 1.44 -3.42l2.12 0.98a38 38 0 0 1 -3.56 2.4zm-1.3 0.78c-0.88 0.52 -1.78 1.02 -2.68 1.48 -0.8 -0.18 -3.3 -0.78 -3.76 -0.92 0.38 -1.02 2.56 -5.76 3.32 -7.06 0.66 0.24 4 1.52 5.12 2a21.74 21.74 0 0 0 -2 4.46zm-4 2.22c-1.22 0.6 -2.38 1.18 -3.46 1.68l0.76 -2.4zm-1.9 8 2 -0.98c1.58 1.76 4.14 9.2 4.62 10.6 -0.16 0.16 -4.36 3.86 -6.3 5.52a110.68 110.68 0 0 0 -5.06 -10.22zm-2.74 -5.68c-1.3 0.6 -2.38 1.06 -3.1 1.36a26.94 26.94 0 0 1 -5.22 -0.6l3.28 -5.9c0.84 0.28 4.82 1.54 6 1.86 -0.08 0.14 -0.74 2.14 -1.04 3.14zm-5.22 2.22c-1.1 0.42 -2.9 1.1 -5.04 1.84 0.5 -0.8 0.98 -1.64 1.46 -2.46a22 22 0 0 0 3.5 0.48zm-6.32 2.28c-1.7 0.58 -3.56 1.18 -5.42 1.72l-1.64 -0.28c0.12 -0.4 2.46 -6.66 2.74 -7.28a35.2 35.2 0 0 0 6.08 2.52c-0.66 1.04 -1.28 2.1 -1.84 3.18zm0.5 15.72 1.72 -1.8a72.5 72.5 0 0 1 4.54 9.18c-2.22 2 -4.38 4 -6.5 6a137.68 137.68 0 0 0 -4.72 -8c1.5 -2.04 3.22 -3.76 4.88 -5.52zm1.88 12.54c1.58 -1.44 3.16 -2.84 4.78 -4.22 1.38 3.38 2.6 6.82 3.82 10.28 -1.8 1.88 -3.6 3.76 -5.22 5.78a180.94 180.94 0 0 0 -5.08 -10.26zm4.56 12c1.38 -1.68 2.86 -3.3 4.38 -4.86 1.14 3.28 2.28 6.56 3.56 9.8a60.12 60.12 0 0 0 -5.12 4.3c-1.14 -2.92 -2.36 -5.74 -3.66 -8.56zm5.1 -5.9 6.3 -6.36 4.12 10.16c-1.06 0.98 -5.6 5.08 -6.84 6.14 -0.26 -0.74 -2.66 -7.36 -3.58 -9.94zm10.8 4.7a54.9 54.9 0 0 0 3.46 7.16 60.5 60.5 0 0 0 -7.02 6.36 78.36 78.36 0 0 1 -3.3 -7.38c1.24 -1.14 5.78 -5.22 6.86 -6.2zm4 8a43.6 43.6 0 0 0 5.24 5.8 57.82 57.82 0 0 0 -6.72 7.86 38.74 38.74 0 0 1 -5.6 -7.26c1.42 -1.54 6.2 -5.78 7.06 -6.48zm-3.2 -8.7q3.38 -3.18 6.7 -6.48a63.08 63.08 0 0 0 5.12 7.32c-1.48 1.16 -7.06 5.38 -8.34 6.36a55.52 55.52 0 0 1 -3.48 -7.2zm2.36 -17.72q3.42 -3.24 6.94 -6.4a44.42 44.42 0 0 0 5.16 8.58c-0.6 0.6 -5.48 5.6 -7.36 7.48 -0.42 -0.9 -3.62 -7.32 -4.74 -9.74zM384.6 118c-0.44 1.84 -5.58 6.84 -6.98 8q-2 -4.28 -3.9 -8.74a66.98 66.98 0 0 0 7.2 -9.24c0.64 1.62 3.08 8.2 3.68 9.98zm-9.16 -13.66a17.84 17.84 0 0 0 2.56 -2.84c0.86 1.86 1.72 3.72 2.54 5.6a74.42 74.42 0 0 1 -7.2 9.2c-0.46 -1.14 -2.98 -7.72 -3 -7.74a36.7 36.7 0 0 0 5.1 -4.18zm-2.84 -8.64c0.62 2 -1.26 3.8 -2.62 5 -0.8 -0.4 -1.6 -0.76 -2.42 -1.12 0 0 3.18 -4.62 3.5 -5.16a2.64 2.64 0 0 1 1.54 1.32zm-2.6 -1.54 0.5 0.12c-0.4 0.66 -2.94 4 -3.6 5.04 -1.04 -0.42 -4.48 -1.68 -5.14 -1.88 0.54 -0.88 1.1 -1.72 1.68 -2.54a17.06 17.06 0 0 1 6.56 -0.74zm-7.58 1c-0.48 0.68 -0.92 1.36 -1.36 2l-2.72 -0.8c1.3 -0.36 2.68 -0.84 4 -1.2zm-5.24 1.64c1.16 0.32 2.34 0.66 3.5 1.04 -0.78 1.26 -3.12 6 -3.54 7.04l-6 -1.68 3.04 -5.36zm-11.48 4.48c1.16 -0.5 4.1 -1.74 7.58 -3.06l-2.86 4.74c-1.64 -0.5 -3.26 -1.04 -4.88 -1.62zm-1.08 0.46c1.78 0.66 3.58 1.3 5.38 2 -0.3 0.5 -2.64 4.4 -3.48 5.86a28 28 0 0 1 -6.28 -2.5c0.68 -1.48 1.44 -2.92 2.26 -4.34zm-3.3 1.48q-0.96 1.68 -1.8 3.42c-0.8 -0.44 -1.6 -0.92 -2.38 -1.4 1.4 -0.74 2.86 -1.44 4.1 -2.02zm-7.04 3.48c0.7 -0.38 1.42 -0.74 2.14 -1.1 0.9 0.56 1.84 1.14 2.78 1.68 -0.3 0.64 -2.84 7 -3 7.46a44 44 0 0 1 -4.78 -1.78s1.8 -4.24 2.78 -6.26zm-1.16 0.64c-0.82 1.72 -2.36 5.26 -2.36 5.28 -1.06 -0.56 -2.1 -1.2 -3.12 -1.84a44.52 44.52 0 0 1 5.4 -3.44zm-8.32 8c-0.46 -1.78 1.04 -3.18 2.32 -4.26 1.12 0.72 2.24 1.4 3.4 2 -0.42 1 -1.48 3.62 -1.62 4 -1.64 0.04 -3.42 -0.1 -4.18 -1.64zm0.62 8.4a19.02 19.02 0 0 0 5.8 -0.12c0.58 0.76 1.18 1.52 1.74 2.3a32.9 32.9 0 0 0 -3.16 5.4c-0.66 -1.04 -3.52 -6.12 -4.46 -7.48zM330 132a30.32 30.32 0 0 1 3.34 -5.3q2.68 3.72 5.1 7.66a18.92 18.92 0 0 0 -3.72 6.78zm5.14 10a18.34 18.34 0 0 1 3.84 -6.72c1.6 2.62 3.12 5.32 4.58 8a13.34 13.34 0 0 0 -4.38 6.6zm4.66 9.08c0 -2.92 2.28 -5.06 4.18 -6.98 0.28 0.52 3.78 7.44 5.16 10.44a45.32 45.32 0 0 0 -4 6.98c-1.46 -2.82 -4.96 -9.82 -5.28 -10.44zm6 11.7c0 -1.48 3.06 -6.3 3.78 -7.26 0.6 1.34 3 7 3.6 8.48 -1.22 1.62 -3.04 3.4 -3.14 5.48 -0.04 -0.3 -3.06 -4.7 -4.16 -6.7zm12.36 14a24.9 24.9 0 0 1 -7.34 -6.3 7.2 7.2 0 0 1 2.74 -5.48 84.48 84.48 0 0 0 4.86 8.9 7.76 7.76 0 0 0 -0.18 2.86zm0.66 -4a86.86 86.86 0 0 1 -4.5 -8.6c0.32 -0.36 3.64 -3.44 4.98 -4.62a76.3 76.3 0 0 0 3.38 7.48 35.84 35.84 0 0 0 -3.78 5.66zm2.86 5.5a19.26 19.26 0 0 1 -2.7 -1.04 22.62 22.62 0 0 1 0.26 -2.34 14 14 0 0 0 6.46 4 15.5 15.5 0 0 1 -3.94 -0.7zm-2.14 -4.6c0 -0.18 3.26 -5.22 3.64 -5.66a31.36 31.36 0 0 0 5.76 7.24 31.86 31.86 0 0 0 -1.6 3.06 13.1 13.1 0 0 1 -7.72 -4.72zm8.86 4.74c0.46 -0.86 0.9 -1.74 1.38 -2.58a8.36 8.36 0 0 0 3.54 1.3 22.42 22.42 0 0 1 -4.84 1.2zm7.86 -2.92c-0.4 0.28 -0.84 0.54 -1.28 0.8a8.16 8.16 0 0 1 -4.66 -1.38 49.5 49.5 0 0 1 6.62 -8 14.34 14.34 0 0 0 5.46 2.3 23.22 23.22 0 0 1 -6.06 6.2zm6.66 -7a14.94 14.94 0 0 1 -5.12 -2.2 20.2 20.2 0 0 1 8 -3.82 54.24 54.24 0 0 1 -2.8 5.94zm3.2 -6.78a20.78 20.78 0 0 0 -9.04 4A41.56 41.56 0 0 1 372 160c2.8 -2.22 5.68 -4.34 8.46 -6.6a11 11 0 0 0 7.26 3.06 48 48 0 0 1 -1.52 5.18zm1.64 -6.28a10.62 10.62 0 0 1 -6.58 -2.74 90.8 90.8 0 0 0 7.6 -7.72c0.06 0.52 -0.4 7.52 -0.94 10.38zM380.6 152a64 64 0 0 1 -5.22 -7.4c1.76 -1.76 6.7 -6.88 7.42 -7.68a54.4 54.4 0 0 0 6 4.52v2.3a48.9 48.9 0 0 1 -8.2 8.26zm-107.08 25.2a1.3 1.3 0 1 0 0 -2.58 1.3 1.3 0 1 0 0 2.58z" stroke-width="1"></path><path d="M311.24 161.64c-12.42 -5.9 -31.36 -3.76 -43.16 2.9 -2.3 -3.22 -14.62 -16 -9.44 -19.18a0.36 0.36 0 0 0 -0.38 -0.62c-6 3.26 6.52 16.92 9.28 20 -0.68 0.4 -7.52 5.46 -7.82 6 -0.52 0.92 0.32 1.82 0.74 2.6l-2.8 1.08a86 86 0 0 1 -3.86 -10.2c-1.14 -3.66 -2 -7.36 -2.7 -11.1a6.88 6.88 0 0 0 -0.98 -2.56c-0.58 -0.8 -1.28 -1.5 -1.82 -2.32 -0.14 -0.24 -0.52 0 -0.36 0.22 0.44 0.7 0.98 1.36 1.44 2a6.58 6.58 0 0 1 0.96 2.5c0.3 1.84 0.62 3.68 1.04 5.52a79.06 79.06 0 0 0 5.76 16c-2.5 1 -4.24 2 -6.74 0.32 -1.02 -0.6 -10.14 -6.68 -13.44 -9.42 0.14 -0.16 0.3 -0.3 0.44 -0.44a6.5 6.5 0 0 0 -4.52 -6.18h-0.12a27.3 27.3 0 0 0 -0.34 -5.48c0 -0.24 -0.48 -0.2 -0.48 0 0 1.16 0.22 4.92 0.18 5.66a27.62 27.62 0 0 0 -7.56 4.12 36.26 36.26 0 0 1 -3.64 -5.24c-0.16 -0.32 -0.62 0 -0.46 0.26A49.84 49.84 0 0 0 224 164a27.8 27.8 0 0 0 -2.54 2.36 8.16 8.16 0 0 0 4.48 6.82l0.86 -0.4a67.18 67.18 0 0 0 10.74 17.14c6.12 7.16 16.38 7.68 25.16 7.12a29.74 29.74 0 0 0 6.36 -1.04c0.36 0 0.3 -0.72 0 -0.66a85.34 85.34 0 0 1 -11.08 0.92c-6.8 0 -14.24 -1.18 -19.18 -6.32a78.58 78.58 0 0 1 -11.44 -17.36 36.44 36.44 0 0 0 9.12 -6.58c2.56 2.22 14.48 10.48 15.34 10.76a4.52 4.52 0 0 0 2.72 0c2.16 -0.72 4.32 -1.58 6.44 -2.44a71.1 71.1 0 0 1 8.9 22.3l-0.56 0.16c-0.24 0 -0.22 0.52 0 0.48 1.78 -0.22 20.78 -6.36 24.82 -11.38 0.14 -0.18 0 -0.42 -0.24 -0.26 -5.04 5.02 -22 10.36 -23.5 10.82a43.32 43.32 0 0 0 -3.74 -12.66c1.04 -0.34 9 -3.8 10.12 -4.3s1.18 -1.3 1.52 -2.26 0.98 -2.14 0.46 -3.04a17.26 17.26 0 0 0 -5.88 -2 10 10 0 0 0 -3.1 0.98 34.32 34.32 0 0 0 -6.48 3.88c-0.64 -1.2 -2.86 -5.04 -2.88 -5.32s10.88 -12.14 32.38 -12.54a41.74 41.74 0 0 1 18 3.12c0.48 0.08 0.82 -0.48 0.44 -0.66zm-81.4 7.62a3.68 3.68 0 1 1 3.66 -3.66 3.66 3.66 0 0 1 -3.66 3.66zm38.8 5.16c3.86 -2 5.4 -2 9.18 0.16 0.2 0.2 0.16 0.46 0 0.74 -0.3 0.96 -0.44 2 -0.8 2.98 -0.26 0.48 -0.98 0.6 -1.46 0.78 -3.08 1.32 -6.28 2.42 -9.24 4 -0.84 -2 -1.76 -3.74 -2.72 -5.56a29 29 0 0 1 5.04 -3.1zm-47.64 -18.86c0.46 -0.78 0.28 -2 0.98 -2.52a1.06 1.06 0 0 1 0.44 -0.16c0.98 0 1.1 0.9 1.2 1.16s0.3 0.16 0.3 0 -0.4 -1.62 0 -2.2c1.06 -1.46 2 0.34 2.36 1.08 0 0.14 0.24 0 0.22 0s-0.68 -2 0.24 -2.68a2.86 2.86 0 0 1 1.74 -0.22 2.68 2.68 0 0 1 2.24 2c0.14 0.38 0.78 0.36 0.74 0a4.84 4.84 0 0 0 -1.04 -1.88c-1.48 -1.24 -4.56 -1.2 -4.72 1.22 -1.12 -1.08 -2.5 0 -2.56 1.34 -1.06 -0.8 -2.28 0.2 -2.44 1.34a6.2 6.2 0 0 1 -0.34 1.46 0.34 0.34 0 1 0 0.64 0.06zm25 -10.94a0.28 0.28 0 0 0 0.5 -0.28 9.44 9.44 0 0 1 -1.18 -3.32c-0.22 -1.18 0.52 -2 1.62 -1.2a9.56 9.56 0 0 1 2.82 5.88 0.18 0.18 0 0 0 0.36 0 5.78 5.78 0 0 0 -0.48 -3.02c-0.38 -0.98 -2.12 -2.9 -1.84 -4 0 -0.36 0.48 -0.42 0.8 -0.34a4.24 4.24 0 0 1 1.62 1.58 12.24 12.24 0 0 1 1.44 4.24 0.32 0.32 0 0 0 0.6 0 7.16 7.16 0 0 0 -2 -5.32c0 -0.12 -0.82 -0.82 -0.38 -1.34a1.08 1.08 0 0 1 1.12 -0.24 4 4 0 0 1 2.4 4c0 0.38 -0.36 3.74 0.52 2.96a6.56 6.56 0 0 0 -1.12 -6.62c-0.98 -1.06 -3.38 -1.6 -3.62 0.34a1.2 1.2 0 0 0 -2 1.26 1.84 1.84 0 0 0 -1.78 -0.28c-1.92 0.94 -0.24 4.32 0.6 5.7zm-1.72 55.24c-6.5 -0.72 -13.02 -4 -16 -10.1 0 -0.2 -0.38 0 -0.3 0.16a18.8 18.8 0 0 0 6.46 7.82 14.94 14.94 0 0 0 9.74 2.98c0.42 -0.06 0.64 -0.72 0.1 -0.86zm-2.7 6.4a17.22 17.22 0 0 1 -14.98 -6c-0.14 -0.16 -0.44 0 -0.32 0.24a16.28 16.28 0 0 0 15.42 6.7 0.44 0.44 0 0 0 -0.12 -0.94zM271.3 198c0.32 8.22 -1.86 16.22 -3.42 24.2 -0.94 4.54 -2.14 11.06 2.64 13.84a0.34 0.34 0 0 0 0.4 -0.52c-4 -3.6 -3.08 -8.86 -2 -13.54 1.52 -8 3.52 -15.86 3.02 -24 -0.08 -0.28 -0.66 -0.3 -0.64 0.02zm56.86 0.36c-1.04 -11.3 -3.16 -23.48 -11.08 -32.12 -0.3 -0.3 -0.74 0.16 -0.46 0.46a36.48 36.48 0 0 1 7.24 13.3c5.86 19.82 4.44 42.22 0.52 62.3a6.32 6.32 0 0 1 -4 5.1c-0.54 0.14 -0.46 1.08 0.12 1a5.72 5.72 0 0 0 4.34 -4 34.6 34.6 0 0 0 1.74 -7.82 154.16 154.16 0 0 0 1.58 -38.22z" stroke-width="1"></path></g></svg>