<svg xmlns="http://www.w3.org/2000/svg" viewBox="0 0 400 400" id="Create-Account-3--Streamline-Milano.svg" height="400" width="400"><desc>Create Account 3 Streamline Illustration: https://streamlinehq.com</desc><g fill="#000000"><path d="M132.2 179.48a0.76 0.76 0 0 0 0.68 -1.1c0 -0.22 -1.26 -2 -1.48 -2.3a0.54 0.54 0 0 0 -0.96 0.52c0.9 1.82 0.96 2.88 1.76 2.88zm-3.72 -2.06a3.22 3.22 0 0 1 1.2 -3.1 0.78 0.78 0 0 0 0 -1.16c-1.16 -1.22 -2.98 1.7 -2.22 4.5a0.5 0.5 0 1 0 1.02 -0.24zM71.56 59.14a3.28 3.28 0 0 0 -2.38 5.54 3.12 3.12 0 0 0 4.82 -0.16 3.26 3.26 0 0 0 -2.44 -5.38zm10.44 -1.66a3.28 3.28 0 0 0 -2.38 5.54 3.12 3.12 0 0 0 4.84 -0.14 3.26 3.26 0 0 0 -2.46 -5.4zm10.98 -1.98a3.3 3.3 0 0 0 -2.38 5.54 3.12 3.12 0 0 0 4.84 -0.14 3.26 3.26 0 0 0 -2.46 -5.4zm74.4 89c0 9.6 3.14 11.66 4.78 0.38 11.6 0 9.7 -3.3 0.38 -4.8 0 -11.48 -3.3 -9.78 -4.8 -0.36 -9.5 0.04 -11.74 3.14 -0.36 4.78zM202 124.3a0.3 0.3 0 0 0 0.44 -0.38 12.74 12.74 0 0 1 -0.82 -5.78 7.36 7.36 0 0 0 4.96 -2 9.02 9.02 0 0 0 6.24 0.3c0.48 5.3 0 5.84 0.38 6a0.32 0.32 0 0 0 0.32 0 5.74 5.74 0 1 0 -7.2 -8.94 12.22 12.22 0 0 1 -2 -1.56 29.04 29.04 0 0 1 1.34 -3 0.42 0.42 0 0 0 -0.16 -0.58c-0.44 -0.28 -0.68 0.24 -1.06 0.76 -1.26 1.74 -2 2.72 -1.4 3.84 -6.14 0.1 -6.78 7.9 -1.04 11.34zm10 26.98a1.68 1.68 0 1 0 3.34 0.16 1.68 1.68 0 1 0 -3.34 -0.16z" stroke-width="1"></path><path d="M159.88 152.74a15.1 15.1 0 0 0 20.4 -0.28c14.62 8.14 31.58 8.36 47.78 0a36.9 36.9 0 0 0 19.82 -19.7c7.6 -19.44 1.04 -46.8 -20.84 -56.56C192.2 60.38 154.32 92.68 164 129.7c-9.32 4.08 -12.52 15.74 -4.12 23.04zm45.14 -78.54c40 -3.56 53.84 41.42 37.82 64.26a25.32 25.32 0 0 0 -6 -3.34 38.48 38.48 0 0 0 -13.48 -1.78c-0.86 -0.82 -5.06 -4.46 -5.78 -5.08v-3.38a16.88 16.88 0 0 0 2.6 -10.48c6.16 -2 6.54 -10.2 1.7 -10.4a39.24 39.24 0 0 0 0 -12c-1.7 -5.82 -8.98 -8.3 -9.82 -8.56 -9 -2.84 -19.26 2.28 -21.06 8.16 -0.86 2.7 0 11.28 0.66 14.38a4.68 4.68 0 0 0 -2.46 6.42c0.58 1.34 2.3 5.3 5 4.76a13.44 13.44 0 0 0 2.98 8c-0.22 4.52 0.18 2.82 -0.72 2.8a0.7 0.7 0 0 0 -0.56 0.34c-0.92 1.6 -3.48 7.06 -4 8.54 -1.22 0.54 -5.86 2.92 -7.18 3.56 -1.32 -8.74 -11.42 -14.16 -19.54 -11.08C159.36 100 178.14 76.62 205.02 74.2zm19.38 78a48.54 48.54 0 0 1 -22.4 4.56c0 -5.64 -4.38 -5.72 -6.48 -10.88 -0.46 -1.16 -2.58 -6.12 -3.22 -7.72 0.3 -0.6 0.88 -1.5 1.38 -2.32 0.78 5.68 8 12 8 12 1.42 1.14 2.42 0.98 3.28 -0.86l3.12 -6.7a51.58 51.58 0 0 0 3.92 7.26 0.68 0.68 0 0 0 1.26 -0.38c0 -1.4 0.62 -6.24 0.88 -8.16a33.38 33.38 0 0 0 4 5.16 0.7 0.7 0 0 0 1.06 -0.36c0.58 -1.5 4 -8.36 4.46 -9.18l1.14 0.14c-1.38 4.86 -0.54 13.44 -0.4 17.44zm-30 -36.86c-0.82 0.84 -1.54 0.34 -2.14 -0.68 -1.26 -1.78 -2.58 -4 -1.6 -6.16a2.44 2.44 0 0 1 2.12 -1.4 4.7 4.7 0 0 1 1.64 1.14 5.3 5.3 0 0 1 1.26 2.18 0.3 0.3 0 0 0 0.58 0c0 -2.18 0.2 -9.42 0.24 -12a19.22 19.22 0 0 0 19.62 -1.34c0.24 2.24 1.04 9.36 1.44 11.84a0.3 0.3 0 0 0 0.56 0 9.44 9.44 0 0 1 2.24 -2.92 1.86 1.86 0 0 1 1.8 -0.48c2.96 0.72 1.56 6.68 -2.86 7.64a0.76 0.76 0 0 0 -0.56 0.72c0.14 3.32 -0.34 11.06 -6.76 13.18a13.72 13.72 0 0 1 -7.84 0.66A11.04 11.04 0 0 1 195.64 116a0.76 0.76 0 0 0 -1.28 -0.66zm9.8 20a54.44 54.44 0 0 1 -5.72 -5.48v-3.4c5 4.64 13.48 3.76 18 -0.16a8.34 8.34 0 0 0 0.28 2.82l2 2c-5.38 5.14 -5.48 5.06 -5.5 5.86a66.82 66.82 0 0 0 -1.08 7.86c-0.32 -0.64 -3.16 -6.38 -3.32 -6.64 -0.38 -0.92 -2.38 -1.2 -4.7 -2.86zm3.46 3.22c-1.56 2.34 -3.78 7.36 -4.58 8.2 -4.22 -3.3 -8.42 -7.76 -8.2 -13.1 0.12 -0.32 1.1 -2.5 1.76 -3.88 4.42 5.2 5.8 6.58 10.98 8.78zm6.9 -1.76c0.58 -0.56 5.28 -4.8 5.28 -4.8 0.34 0.26 2.16 1.72 2.52 2a61.48 61.48 0 0 1 -4 8.28 20 20 0 0 1 -3.84 -5.48zm-44.38 -6.92a13.3 13.3 0 0 1 13.16 10.94 13.44 13.44 0 0 1 -22.6 10.5c-9.02 -8.42 -2.02 -21.44 9.44 -21.44z" stroke-width="1"></path><path d="M200.72 106c0 1.08 -0.2 2.72 -0.16 2.94a0.78 0.78 0 0 0 1.54 0c0 -0.24 -0.22 -2.68 -0.22 -2.92a0.58 0.58 0 0 0 -1.16 -0.02zm10.88 2.24c0 -0.3 -0.22 -2.66 -0.22 -2.92a0.58 0.58 0 0 0 -1.14 0c-0.12 1.52 -0.2 2.74 -0.18 2.98a0.78 0.78 0 0 0 1.54 -0.06zM198.88 106a0.46 0.46 0 0 0 0.56 -0.36 1.88 1.88 0 0 1 1.78 -1.52 0.68 0.68 0 0 0 -0.2 -1.32 1.88 1.88 0 0 0 -1.44 0.46C198.9 104 198 106 198.88 106zm12.56 -3.08a2.54 2.54 0 0 1 2.22 1.72 0.46 0.46 0 0 0 0.88 -0.22 3.36 3.36 0 0 0 -2.94 -2.78c-0.72 -0.14 -0.88 1.18 -0.16 1.28zm-1.62 16.26a2.18 2.18 0 0 1 -2.14 1.1 4 4 0 0 1 -2.86 -1.32 0.42 0.42 0 0 0 -0.34 -0.26c-1.56 -0.12 0.86 3.06 3.3 3.06a4.14 4.14 0 0 0 3.16 -1.76c0.54 -0.66 -0.68 -1.62 -1.12 -0.82zm58.8 56.32c-7.64 -1.72 -54.62 1.66 -110.86 3.12 -8.16 0.2 -14.64 5.68 -13.58 13.28 0.8 5.76 5.26 7.34 10.92 7.72 3.16 0.22 101.38 -2.86 105.84 -2.9a17.1 17.1 0 0 0 10.68 -2.84c6.8 -5.12 5.88 -16.32 -3 -18.38zm-121.78 11.06c1.4 -2.9 4.14 -4.74 8.38 -5.64 3.2 -0.68 100 -4.12 106.62 -4.18 4.36 0 8.54 -0.1 11.18 3.4 3.58 4.72 0.98 14 -9.3 14.74 -3.06 0.24 -108 2.9 -108 2.9a16.32 16.32 0 0 1 -6.2 -1.24c-3.8 -1.82 -4.32 -6.54 -2.68 -9.98z" stroke-width="1"></path><path d="M245.6 187.54c1.2 0 0.34 -0.14 5.38 0h5.84a0.5 0.5 0 0 0 0 -1c-3.68 0.16 -7.4 -0.78 -11.16 -0.56 -1.12 -0.1 -1.14 1.56 -0.06 1.56zm-31.5 1.06c2.28 0.16 21.7 -1 24.56 -1.2a0.52 0.52 0 0 0 0 -1.02c-1.52 0 -23.24 0.56 -24.52 0.7a0.76 0.76 0 0 0 -0.04 1.52zm-15.12 0.24c1.38 0 5.34 -0.58 7.24 -0.68a0.56 0.56 0 0 0 0 -1.1h-7.2a0.88 0.88 0 0 0 -0.04 1.78zm-41.58 1.64c3.24 0.12 19.84 -0.9 23.88 -1.14 9.04 -0.54 8.6 -0.36 8.8 -0.74a0.56 0.56 0 0 0 -0.46 -0.84c-4.36 0 -29.86 1.02 -32.22 1.16a0.78 0.78 0 0 0 0 1.56zm16.6 32.82a6.42 6.42 0 0 0 1.58 -1.02c0 0.68 -0.18 1.36 -0.26 2 -0.12 1.12 1.66 1.18 1.74 0v-1.88a11.8 11.8 0 0 0 2.48 1.68 0.84 0.84 0 0 0 0.84 -1.36 26.66 26.66 0 0 0 -2.9 -2.16c0.26 -0.22 1.78 -1.54 2.3 -2a0.56 0.56 0 0 0 -0.68 -0.88c-0.62 0.46 -1.22 0.88 -2 1.32 0 -0.86 0 -1.82 0.16 -2.78a0.54 0.54 0 0 0 -1.06 0c0 1.06 -0.24 2.12 -0.38 3.16l-2 -1.18a0.54 0.54 0 0 0 -0.54 0.94 15.84 15.84 0 0 1 1.72 1.32 9.74 9.74 0 0 0 -2 1.54 0.82 0.82 0 0 0 1 1.3zm12.62 0.06a6.46 6.46 0 0 0 1.6 -1.02c0 0.68 -0.18 1.36 -0.26 2 -0.14 1.12 1.66 1.18 1.72 0v-1.88a12.7 12.7 0 0 0 2.5 1.68c0.8 0.28 1.34 -0.74 0.84 -1.36a26.42 26.42 0 0 0 -2.92 -2.16l2.3 -2a0.56 0.56 0 0 0 -0.68 -0.88c-0.6 0.46 -1.22 0.88 -2 1.32 0 -0.86 0 -1.82 0.16 -2.78s-0.98 -0.74 -1.06 0c0 1.06 -0.24 2.12 -0.38 3.16l-2 -1.18a0.54 0.54 0 0 0 -0.54 0.94 18.18 18.18 0 0 1 1.74 1.32 9.7 9.7 0 0 0 -2 1.54 0.82 0.82 0 0 0 0.98 1.3zm11.7 0.06a6.86 6.86 0 0 0 1.6 -1.02c0 0.68 -0.2 1.36 -0.26 2 -0.14 1.12 1.64 1.18 1.72 0v-1.88a12.34 12.34 0 0 0 2.48 1.68 0.84 0.84 0 0 0 0.84 -1.36 26.66 26.66 0 0 0 -2.9 -2.16c0.26 -0.22 1.78 -1.54 2.3 -2s-0.14 -1.28 -0.68 -0.88 -1.3 0.92 -2 1.34c0 -0.88 0 -1.84 0.16 -2.8s-0.98 -0.72 -1.06 0c0 1.06 -0.24 2.12 -0.38 3.16l-2 -1.18a0.54 0.54 0 0 0 -0.54 0.94 15.84 15.84 0 0 1 1.72 1.32 10.48 10.48 0 0 0 -2 1.54 0.82 0.82 0 0 0 1 1.3zm12.84 -0.12a6.46 6.46 0 0 0 1.6 -1.02c0 0.68 -0.18 1.36 -0.26 2 -0.14 1.12 1.64 1.18 1.72 0v-1.88a12.7 12.7 0 0 0 2.5 1.68c0.8 0.28 1.34 -0.74 0.82 -1.36a23.22 23.22 0 0 0 -2.9 -2.16l2.3 -2a0.56 0.56 0 0 0 -0.68 -0.88q-0.96 0.72 -2 1.32c0 -0.86 0 -1.82 0.16 -2.78s-0.98 -0.74 -1.06 0c-0.1 1.06 -0.24 2.16 -0.38 3.16l-2 -1.18a0.54 0.54 0 0 0 -0.54 0.94 15.84 15.84 0 0 1 1.72 1.32 10 10 0 0 0 -2 1.54 0.82 0.82 0 0 0 1 1.3zm11.7 0.5a6.86 6.86 0 0 0 1.6 -1.02c0 0.68 -0.2 1.36 -0.26 2 -0.14 1.1 1.64 1.18 1.72 0v-1.86a13.24 13.24 0 0 0 2.48 1.68 0.84 0.84 0 0 0 0.84 -1.36 25.76 25.76 0 0 0 -2.9 -2.18l2.3 -2c0.52 -0.44 -0.12 -1.3 -0.68 -0.88s-1.22 0.86 -2 1.32c0 -0.86 0 -1.82 0.16 -2.8a0.54 0.54 0 0 0 -1.06 0c0 1.06 -0.24 2.12 -0.38 3.16l-2 -1.18a0.54 0.54 0 0 0 -0.54 0.92 16.14 16.14 0 0 1 1.72 1.34 9.86 9.86 0 0 0 -2 1.52 0.82 0.82 0 0 0 1 1.34zm12.12 -0.5a6.86 6.86 0 0 0 1.6 -1.02c-0.1 0.68 -0.2 1.36 -0.26 2 -0.14 1.12 1.64 1.18 1.72 0v-1.88a12.34 12.34 0 0 0 2.48 1.68 0.84 0.84 0 0 0 0.84 -1.36 24.18 24.18 0 0 0 -2.9 -2.16c0.26 -0.22 1.78 -1.54 2.3 -2a0.56 0.56 0 0 0 -0.68 -0.88c-0.6 0.46 -1.22 0.88 -2 1.32 0 -0.84 0 -1.8 0.16 -2.78s-0.98 -0.74 -1.06 0c0 1.04 -0.24 2 -0.38 3.16l-2 -1.18a0.54 0.54 0 0 0 -0.54 0.94 15.84 15.84 0 0 1 1.72 1.32 10 10 0 0 0 -2 1.54 0.82 0.82 0 0 0 1 1.3zm66.52 37.42a0.44 0.44 0 0 0 -0.2 -0.58c-0.4 -0.2 -0.58 0.24 -0.74 0.52 -4.96 9.06 -10.4 21.86 -12.14 31.38 -1.84 11.46 -0.22 5.06 -4.8 24a0.4 0.4 0 0 0 0.38 0.5c0.38 0 0.44 -0.16 1.62 -4.12 7.36 -24.7 0.1 -16.22 15.88 -51.7zM254 324.48c-4.5 3.5 -7.14 9.06 -8.3 17.54a0.44 0.44 0 1 0 0.88 0.16c1.6 -10.14 8 -20 18.46 -19.32a0.44 0.44 0 0 0 0.12 -0.88 12.52 12.52 0 0 0 -11.16 2.5z" stroke-width="1"></path><path d="M333.86 9.82a10 10 0 0 0 -2.74 0C72.86 52.52 72.78 51.4 68.12 53.3 59.64 56.78 61.28 67.8 61.2 76c0 6.82 -1.82 191.32 -1.82 191.32 0 6.58 -0.16 14.78 6.7 18 4.54 2.2 15.32 2.24 35.3 2.86 3.56 26.9 9.78 21.2 3.62 72.8 -0.58 4.98 0.3 6 4.5 7.8a60.22 60.22 0 0 0 1.08 6.12 9.12 9.12 0 0 0 1.6 8.54c0.62 0.72 18 -3.72 19.76 -4.34a0.28 0.28 0 0 0 0.2 -0.26c0.32 -3.18 -2.64 -2.86 -5.68 -3.36a17.78 17.78 0 0 1 -4.28 -1.38v-3.64a4.92 4.92 0 0 0 2.94 -1.1c1 -0.98 3.12 -10.34 3.46 -12A254.34 254.34 0 0 0 133.6 320c4.54 5.48 5.1 8.14 6.78 16 3.18 15.1 2.82 11.36 5.24 36.84a3.12 3.12 0 0 0 2.86 2.84c0.22 0.86 0.98 5.26 1.18 6a11.84 11.84 0 0 0 1.58 8.54c0.56 0.66 18.12 -3.74 19.78 -4.34 0.44 -0.16 0.2 -1.48 -0.12 -2 -1.22 -2 -4.42 -0.62 -9.44 -2.88a15.24 15.24 0 0 1 0.48 -6.12c3.18 -0.98 4 -2 4.68 -5.32 6 -26.74 8.28 -39.2 -6.46 -76.6 14.24 0.96 80.6 4.98 87.66 5.2a30 30 0 0 1 0.86 3.32c1.82 8.1 3.72 9.08 7.9 10.8a29.3 29.3 0 0 1 12.2 9.08c-3.34 -1.4 -4 -5.1 -12.92 -5.5 -2.48 -0.12 -4 1.72 -6.68 4 -3.86 3.2 -4.6 4 -6.32 7.88 -4.64 10.5 -5.46 21.08 -1.78 30 1.4 4.32 4.44 5.22 7.06 1.34 2.16 -3.2 1.56 -7 3.24 -10.26a69.42 69.42 0 0 1 10.8 -15.12c2.8 -3.48 3.1 -10 8.18 -10.36a74.28 74.28 0 0 1 9.14 18v1.4c-2.62 0 -20.92 0.18 -21.36 0.36 -1.12 0.46 -0.82 1.64 -0.74 3.58 0.24 5.36 -0.36 4.6 4.48 4.92 0.32 3 1.74 13.46 2.28 16.18 1.02 5.24 2.5 11.16 7.68 13.66s12 3.54 17.32 1.1c8.56 -4 9.56 -14.84 11.2 -28.56 0.4 -3.3 0.3 -2.96 0.5 -2.96 2.64 0.14 4.48 0 4.8 -0.76a50.7 50.7 0 0 0 -0.18 -6.7 0.74 0.74 0 0 0 -0.74 -0.72c-3.9 0 -19.48 -0.14 -23.38 -0.12 0 -0.82 0.16 -3.42 0.38 -4.82a11.2 11.2 0 0 1 8.26 -2.78c5.52 0.18 9.46 3.06 14.62 4.92a15.58 15.58 0 0 1 8.82 6 13.6 13.6 0 0 0 5.02 4.32 4.16 4.16 0 0 0 4.4 -0.78 4.24 4.24 0 0 0 0.22 -4.9 94 94 0 0 0 -5.68 -9.36c-5.26 -8 -8.58 -9.66 -15.36 -12.2a18.26 18.26 0 0 0 -2.84 -0.96c-2.76 -0.54 -10 1.24 -14 5.06 7.04 -11.44 14.5 -8.6 18.56 -15.22 1.48 -2.6 0.56 -3.02 3.34 -9.34 2.24 0.18 15.32 1.12 17.58 1.12 9.8 0 15.66 -4.8 16 -14.3V17.26a7.34 7.34 0 0 0 -6.82 -7.44zm-70.44 318.6c-3.6 8.48 -4.84 4.88 -13.14 19.54 -1.8 3.16 -1.26 6.96 -2.98 10a4.12 4.12 0 0 1 -2.44 2.16c-1.54 0.22 -2.48 -2.88 -2.98 -4.4a35.06 35.06 0 0 1 1.12 -24.28c2.42 -6.36 2.6 -6.66 6.26 -9.72 4.42 -3.66 4.46 -4.66 7.54 -4.28 7.76 0.8 7.66 3.78 11.38 5.08a10.16 10.16 0 0 0 -4.76 5.9zm-179.72 -42.28c-10.46 -0.46 -14.6 -0.84 -17.56 -2.52a9.78 9.78 0 0 1 -4.66 -6.84c-1.24 -6 0 -10 1.36 -205.06 7.82 -1.02 13.44 -2.38 21.16 -3.72 -0.2 29.28 -0.52 206.3 -0.3 218.14zm6.84 0.24 -5.28 -0.18c0.16 -7.26 0.18 -109.68 0.18 -111.66h5.12c0 30 -0.22 102.3 -0.02 111.84zM90.66 126h-5.24c0 -0.92 0 -45.1 -0.14 -58l5.66 -0.5c-0.22 19.96 -0.24 40.5 -0.28 58.5zm30 248a19.1 19.1 0 0 1 -8.66 0 24.36 24.36 0 0 1 -0.94 -4.66 24.74 24.74 0 0 0 10 1.22c-0.2 1.04 -0.36 2.82 -0.42 3.44zm39.2 6.8a19.26 19.26 0 0 1 -8.74 0 41.12 41.12 0 0 1 -0.92 -4.8 30.98 30.98 0 0 0 10.22 -0.64 23.72 23.72 0 0 0 -0.58 5.44zm2.28 -78.3c9.24 25.16 9.58 39.34 2.62 68 -0.4 1.66 -0.76 1.84 -1.06 2a24.96 24.96 0 0 1 -15.26 1.42 1.34 1.34 0 0 1 -1.12 -1.34c-1.36 -19 -1.72 -21.1 -6.46 -41.64 -1.42 -8.22 -5.86 -11.78 -10.62 -17.68a98.46 98.46 0 0 1 -13.26 -22c-0.24 -0.54 -1.1 -0.22 -0.86 0.32a93.44 93.44 0 0 0 16.18 26.9c-1.18 15.1 -1.74 26.74 -7.38 48 -0.38 2.24 -1.76 2.42 -4.14 2.56a22.16 22.16 0 0 1 -11.4 -2c-3.28 -1.32 -3.06 -2.8 -2.7 -6 3.76 -33.88 4.2 -36.54 -0.74 -58.44 -2.46 -11 -5.02 -22.34 -2.12 -33.28 13.26 7.42 31.34 9.22 44 -0.72a364.56 364.56 0 0 1 14.3 33.9zm-60.64 -57.42a14.18 14.18 0 0 1 -5.22 -17.24 38.62 38.62 0 0 0 5.38 2.96 0.28 0.28 0 0 0 0.4 -0.2c0.88 -3.84 4.98 -14.96 8.52 -18.18 0.84 -0.92 1.54 -1.04 1.84 -0.76 1.54 1.4 -4 3.6 -6 12.94 -0.26 0.9 -4.56 18.76 -4.92 20.48zm19.44 -58.42a3.52 3.52 0 0 1 -4 -0.62 3.12 3.12 0 0 1 -0.48 -3.84c1.04 -1.32 4.94 -1.38 7.24 2.1a0.36 0.36 0 0 0 0.3 0.12c1.68 -0.28 2.48 -1.84 2.14 -2.14a8 8 0 0 1 3.6 -14.12c6 8.92 5.66 10.86 8 11.64 1.14 0.38 0.72 0.92 -0.14 3.14 -2 0 -7.46 0.36 -8.16 1.5 -1.02 1.62 -0.2 4.84 2.92 7.42a0.3 0.3 0 0 0 0.48 -0.3 22.92 22.92 0 0 1 -0.6 -4.86c1.3 -0.28 3.68 -0.56 5 -0.72a14.68 14.68 0 0 1 0 2.52c-1.52 0.52 -1.82 -0.12 -2 -0.52a0.52 0.52 0 0 0 -0.94 0.4 2.48 2.48 0 0 0 2.54 1.88c-0.82 2.24 -2.66 3.56 -5.18 6a5.64 5.64 0 0 0 -3.84 -0.96 57.36 57.36 0 0 0 -9.26 3.56c-0.4 -1.06 -1.76 -4.58 -2 -5.64a10.84 10.84 0 0 0 4.92 -6.12 0.3 0.3 0 0 0 -0.54 -0.44zM278.2 280a25.08 25.08 0 0 0 -2 -6.72c-3.7 -8.68 -8 -10 -17.74 -13.16 -9.3 -3.06 -7.6 -5.1 -17.3 -6.12 -4.58 -0.46 -9.46 -1 -13.9 0.46v-6.86a4.72 4.72 0 0 0 -5.28 -4.64H184.72a4.22 4.22 0 0 0 -3.78 2.86c-5.02 -4 -14.96 -11.72 -18.36 -14.34 16.16 0 99.82 -0.78 99.82 -0.78 14.38 -1.26 16 -15.5 7.36 -19.28a25.64 25.64 0 0 0 -11.1 -1.34s-89.34 1.56 -103.66 2a58.18 58.18 0 0 0 -3.78 -6.6c-3.74 -4 -9.5 -6.3 -17.16 -6.64a9.5 9.5 0 0 0 -1.34 -1.68A19.44 19.44 0 0 0 138 190.48a20 20 0 0 0 0.38 -4.76 1.4 1.4 0 0 0 0.28 -2.36c0.44 -1.12 1.22 -2.92 0.54 -4a1.8 1.8 0 0 0 -1.5 -0.8c-1.06 -0.32 -4.32 -6.92 -7.06 -10.88 2.92 -2.82 2.3 -5.9 -0.98 -7 -3.88 -1.58 -8.28 0.26 -11.06 1.68 -0.88 -23.28 -1.74 -75.4 -1.72 -76.12a26.38 26.38 0 0 1 1.12 -8.6 10 10 0 0 1 6.84 -6.6c3.62 -1.04 163.6 -25.46 165.16 -25.66a26.56 26.56 0 0 1 11.02 0 8.68 8.68 0 0 1 6.4 6.46 23.48 23.48 0 0 1 0.38 4.58s0.62 172.74 0.62 183.64c-13.78 9.9 -20.56 25.7 -23.84 40.26 -1.14 -0.06 -3.22 -0.14 -6.38 -0.32zm6 1.7c-3.08 14.64 1.02 5.56 -5.7 1.56v-1.62c1.5 0.12 4.16 0.16 5.66 0.14zm-46.2 -6.68a26.68 26.68 0 0 0 1 3.76c-7.44 -0.42 -84.26 -3.1 -86 -3.16 -1.18 -2.66 -2.48 -5.4 -3.86 -8.16a18.22 18.22 0 0 0 2.6 -2.68c-0.36 -4.4 -0.5 -19.3 -0.4 -23.12 3.54 2 15.48 8.3 20.44 10.3a34 34 0 0 1 9.04 4.8c0 4.9 -0.24 5.54 1 6.54s-1.44 0.58 34.18 0.58c-4 6.7 -1.26 11.66 4.52 12.42 4.78 0.6 8.86 -1.72 12.82 -4a32.84 32.84 0 0 1 18.92 -5.06c2.48 1.14 7.22 4 8.18 6.3 0.66 1.58 0.14 2.32 1.14 4 0.66 1.08 1.22 1.12 2.2 2.2 -10.74 -0.24 -9.5 0 -10 -0.6 -3.38 -3.8 -6.88 -7.72 -12.46 -7.82 -2.76 -0.08 -4.02 1 -3.32 3.7zm-74.4 -46c-0.82 -1.7 -4.56 -9.24 -7.74 -15.38 26.54 -0.62 106.44 -2 106.44 -2 3.46 0 7.3 0.54 9.62 3.3a7.84 7.84 0 0 1 0.34 8.62c-3.1 5.5 -10 5.76 -16.28 5.56l-93.26 0.9c0.64 -0.4 1.06 -0.6 0.9 -0.92zm-3.06 2.54c31.56 24.92 20.36 15.28 22.66 17.54 0.2 0.2 0.18 0.2 3.6 -1.72 1.84 -1.04 2.74 -1.66 3.12 -1.26 0.86 0.96 -2.62 2.62 -2 4.22 0.68 2 4.82 2.14 6.46 3.38a0.6 0.6 0 0 1 -0.4 1.08 28.58 28.58 0 0 1 -8.24 -2 0.42 0.42 0 0 0 -0.58 0.18c-0.22 0.46 0.3 0.62 0.74 0.86A26.48 26.48 0 0 0 194 256.2c2 0.28 0.92 1.74 -0.72 1.4a74 74 0 0 1 -7.7 -1.88 0.4 0.4 0 0 0 -0.38 0.7c0.66 0.36 3.84 1.08 6.12 1.68a0.5 0.5 0 0 1 0.36 0.46 0.48 0.48 0 0 1 -0.36 0.46 5.06 5.06 0 0 1 -1.68 0.14 29.66 29.66 0 0 1 -6.72 -2.6 38.56 38.56 0 0 0 -10.74 -6c-4.76 -2 -18.3 -8.92 -20.88 -10.46 0 -1.2 0.12 -2.4 0.22 -3.56 1.94 -0.9 7.56 -3.96 9.04 -4.9zm36.3 18.66a0.86 0.86 0 0 1 1.2 -0.12 40 40 0 0 1 4.86 5.52 17.16 17.16 0 0 1 9 -8.54 0.8 0.8 0 0 1 0.74 1.4 18.44 18.44 0 0 0 -8.18 10 1.24 1.24 0 0 1 -1.18 0.86c-0.8 0 -1.04 -0.52 -1.7 -1.36 -5.12 -6.46 -5.12 -7.12 -4.72 -7.68zm68 31.04a22.36 22.36 0 0 1 2.2 6.68c-6.5 -2.14 -8.72 -4 -11.58 -6.98zm-5.08 -15.82c-12.74 0.5 -16.82 -0.66 -27.34 5.36a27.88 27.88 0 0 1 -8.26 3.6c-3.7 0.72 -8 -0.28 -8.42 -4.1 -0.62 -5.32 5.66 -11.14 10.4 -13.68a30 30 0 0 1 13.62 -1.06 22 22 0 0 1 10.76 2.92c-9.42 -0.1 -16.74 1.88 -22.32 6a0.44 0.44 0 0 0 0 0.58c0.8 1.18 2.12 -3.8 20.24 -4.98a42.98 42.98 0 0 1 20.72 6 24.76 24.76 0 0 0 -9.34 -0.56zm-130 -49.66c0.64 2.48 10.28 21.36 12 24.34 1.68 -0.84 3.72 -1.9 6 -2.94a0.84 0.84 0 0 1 0.82 1.46c-6 3.7 -6.88 4.3 -8 3.48s-11.14 -21.68 -12 -26a0.62 0.62 0 0 1 1.16 -0.26zm-9.34 -14a6.5 6.5 0 0 1 0.98 -2.9c4.1 -1.58 7.8 -4.22 10.7 -0.48 -4.84 -0.4 -5.94 2 -11.7 3.6zm-1.44 0.36c-0.76 0.18 -1.62 0.34 -2.56 0.48 -0.28 -1.42 -0.22 -1.5 0.78 -2 3.7 -1.26 1.9 -1.4 1.76 1.68zm40.62 89.4c-2 -4.76 -4 -10 -6 -14.58 11.02 0.5 79.64 3.36 86 3.4 2.2 5.68 5.64 10.74 7.76 16.4 -9.76 -0.76 -81.12 -4.76 -87.76 -5.22zm110.88 87.08c-5.46 -5.04 -5.72 -17.42 -6.84 -24.14h5.86c0 6.34 1.22 20.74 3.72 25.8a9.14 9.14 0 0 1 -2.74 -1.66zm4.68 2.38a24.16 24.16 0 0 1 -2.8 -9c-0.7 -3.82 -1.6 -14.94 -1.7 -17.52H278c0 2.22 1.3 25.52 2.2 27.68a28 28 0 0 1 -5.04 -1.16zm6.58 1.28a9.86 9.86 0 0 1 -0.82 -4c-0.22 -2 -1.54 -20.66 -1.7 -23.8h11.32c-0.26 8.92 -0.46 19.1 -4 27.32a16.14 16.14 0 0 1 -4.8 0.48zm14.66 -12.52c-1.52 6 -4.2 9.84 -8 11.46 3 -8.48 3.28 -18.22 3.26 -26.76h7.12a89.88 89.88 0 0 1 -2.38 15.3zm7.6 -25.46c0.14 1.62 0.14 3.26 0.28 4.9 0 0.4 0 0.4 -0.1 0.48s-45.2 0.58 -45.38 0.4a55.44 55.44 0 0 1 0 -5.72c0.14 -0.04 40.78 -0.14 45.2 -0.06zm-24.16 -5.74c-4.84 -17.26 -6.56 -30.96 -25.54 -45.06a0.44 0.44 0 0 0 -0.54 0.7 60.32 60.32 0 0 1 21.58 34.26c-5.36 -9.82 -11.48 -14.8 -18 -17.54 -5.24 -2.18 -5.58 -3.64 -7.02 -9.68 -2.88 -12 -9.24 -17.76 -10.76 -27.1 0 -0.7 0 -0.88 0.26 -1 9.34 -1.64 13.4 10.8 21.32 14 2.58 1.3 7.4 3 9.72 6.48 1.04 1.56 4.16 8.42 10.64 38.44a33.4 33.4 0 0 0 -1.64 6.5zm7.48 -11.16a22.24 22.24 0 0 1 10.12 -3.82 13.68 13.68 0 0 1 5.38 1.34c8.9 2.34 13.8 10.9 18 18.46 1.64 2.88 1.86 4 0.94 5.06a3.24 3.24 0 0 1 -4.14 -0.16 19.36 19.36 0 0 1 -3.56 -3.56c-3.28 -3.84 -4.32 -4.32 -7.86 -5.46 -8.4 -2.7 -17.02 -8.76 -24.3 -3.32a12.7 12.7 0 0 1 5.44 -8.54zm-4.88 1.72a118.58 118.58 0 0 1 -0.42 -24.82c2.48 -24 7.86 -50.72 29.5 -64.42 -0.84 29.88 -17.52 61.18 -29.06 89.24zm25.86 -60.88c-0.12 5.26 0.12 7.9 -1.1 10a4.32 4.32 0 0 1 -2.76 2.1c1.4 -4 2.72 -8.04 3.88 -12.1zm-0.3 32.74c1.48 -2.18 4.44 -4 11.66 -2.68 1.18 0.24 6.24 2.22 8.3 2.86 -3.68 1.48 -5.84 0.58 -19.96 -0.18zm23.74 -2.98a8.46 8.46 0 0 1 -1.7 2c-3.02 0.58 -8.48 -5.58 -22 -2.9a12.64 12.64 0 0 0 -4.46 1.46 12 12 0 0 1 -6.64 1.48c10.64 -14.8 32.5 -12.3 34.68 -4a4 4 0 0 1 0.12 1.96zm1.32 -3.18c-3.22 -8.62 -22.38 -11.28 -34.48 1.06 1.76 -4.38 3.58 -9.04 5.28 -13.82 3.7 0 5.82 -4 5.9 -7.56 0.14 -1.76 0.28 -8.52 0.12 -12a93.18 93.18 0 0 0 3.24 -24 0.88 0.88 0 0 0 -0.48 -0.72c-0.46 -0.22 -0.78 0 -2.92 1.42 0.16 -22.6 -0.18 -180.88 -0.18 -181.48a19.16 19.16 0 0 0 -1.4 -8.8c-3.34 -6.46 -11.78 -6.12 -17.84 -5.32 -8.18 1.1 -158 24.36 -158.72 24.44 -6.12 0.8 -12.46 1.62 -15.1 8.6a27.32 27.32 0 0 0 -1.3 9.74s1.46 55.62 2.12 76.68c-12.14 5.72 -13.16 21.04 -2.2 30a47.06 47.06 0 0 0 2.24 6.14c-2.48 1.1 -2.68 1.18 -2.2 4a45.72 45.72 0 0 0 -21.62 21.48 0.32 0.32 0 0 0 0 0.32 20.92 20.92 0 0 0 1.7 2 15.82 15.82 0 0 0 5.76 20.16c-0.4 2.58 -2.32 13.04 -3.38 17.64a0.34 0.34 0 0 0 0 0.3 30.7 30.7 0 0 0 4.74 3.5 44.24 44.24 0 0 0 -1.26 18.24l-9.12 -0.32c0.22 -11.34 0.14 -203.88 0 -219.22 2.72 -0.42 226.32 -35.06 242.68 -37.68 0.18 16.38 -0.46 260.7 -1.58 265.1zm1.88 -266.54c-9 1.38 -261.76 40.26 -272.14 42 -0.24 -7.82 0.46 -15.48 10.48 -16.56 3.02 -0.6 243.4 -39.78 244 -39.88 4.38 -0.78 16.48 -3.12 17.24 1.18 0.2 1.16 0.42 9.46 0.42 13.16z" stroke-width="1"></path></g></svg>