<svg xmlns="http://www.w3.org/2000/svg" viewBox="0 0 400 400" id="Successful-Business-2--Streamline-Milano" height="400" width="400">
  <desc>
    Successful Business 2 Streamline Illustration: https://streamlinehq.com
  </desc>
  <g fill="#000000">
    <path d="M148.48 74.72h0.24a2.54 2.54 0 0 0 -1.12 -1.76c-0.2 -0.14 -0.48 0.1 -0.3 0.3 0.5 0.4 0.7 0.98 1.18 1.46zm-2.68 -3.2a1.88 1.88 0 0 0 0 1.36 0.12 0.12 0 0 0 0.24 0c0 -1.02 0.2 -1.08 0.68 -1.32a0.16 0.16 0 0 0 0 -0.28c-0.34 -0.28 -0.72 -0.04 -0.92 0.24z" stroke-width="2"></path>
    <path d="M83.72 86.32a1.9 1.9 0 1 0 3.8 0 1.9 1.9 0 1 0 -3.8 0" stroke-width="2"></path>
    <path d="M87.52 165s0.04 0.1 0 0zm129.52 -30.24c-1.34 2.56 -2.8 5.24 -4.22 7.76s-4.5 6.86 -4.46 6.94a4.16 4.16 0 0 0 3.5 1.62c0.62 -0.2 1.02 -0.94 1.4 -1.42 1.16 -1.56 5 -8.34 5.88 -10 0.34 -0.72 1.06 -1.74 0.92 -2.62s-2.92 -2.46 -3.02 -2.28zm-3.38 13.54c-0.58 0.92 -1.8 2.28 -3.06 2.24 -0.64 0 -1.2 -0.76 -1.68 -1.14a112 112 0 0 0 8.62 -14.14 2.96 2.96 0 0 1 1.88 2c-0.26 1.9 -5.14 10.02 -5.76 11.04zm-52.38 -19.32s-0.24 0 -0.2 0.1c2 5.68 12.78 27.18 16.56 31.16 0.1 0 0.3 0 0.2 -0.14 -3.22 -4.72 -13.84 -25.62 -16.56 -31.12zm5.24 5.18c0.2 -0.28 0.3 -0.78 0 -1s-0.72 -0.18 -0.88 0 0.36 1.66 0.88 1zm5.14 10.74c0.54 -0.54 0.28 -1.5 -0.26 -1.46a0.76 0.76 0 0 0 -0.56 0.88c0.06 0.5 0.46 0.96 0.82 0.58zm6.18 10.06c-0.44 0 -0.76 0.38 -0.36 1.1 0.76 1.34 2.04 -0.86 0.36 -1.1zM162.36 126a0.88 0.88 0 0 0 0.18 -0.92 0.62 0.62 0 0 0 -1.02 -0.2c-0.54 0.52 0.3 1.52 0.84 1.12zM55.44 186.5l-1.8 -24.9c-3.44 0.44 -3.44 -2 -3.44 -2l-0.2 -3.2c-0.1 -2 3.26 -2 3.26 -2V133.5c-8.64 -0.24 -11.84 2 -14.86 9.62S38 189.7 38 189.7a28.74 28.74 0 0 1 17.44 -3.2zm37.84 -163.02c0.34 0 0.54 -0.4 0.26 -0.54 -6.28 -3 -13.26 2.86 -12.28 9.46a20.4 20.4 0 0 0 2 5.58 9.72 9.72 0 0 1 0.2 8.2c-2.28 5.1 -7.54 6.94 -12.52 8.4 -0.26 0.1 -0.2 0.5 0 0.44 6.6 -0.68 14.12 -5.1 14.22 -12.52 0 -4.22 -3.44 -7.48 -3.34 -11.64 0.3 -6.12 6.18 -8.86 11.46 -7.38zm76.5 -2.86C168.2 18.78 166 16.72 167.3 14c0.72 -1.5 3.2 -3.68 4.9 -3.4a0.24 0.24 0 1 0 0.14 -0.44c-1.78 -0.58 -3.72 0.94 -4.94 2.2a4.72 4.72 0 0 0 -1.12 5.08c1.06 2.96 4 4.66 4.96 7.82 0.48 1.7 1.06 4.9 0.14 6.5 -1.22 2 -4.42 2.44 -6.5 2.44 -0.4 0 -0.5 0.62 0 0.68a7.58 7.58 0 0 0 6.54 -1.46c2 -1.66 1.66 -4 1.36 -6.32a11.66 11.66 0 0 0 -3 -6.48zM52.82 82.24c-0.34 -0.28 -0.94 0.1 -0.64 0.54a5.18 5.18 0 0 1 0.14 5.06c-0.52 1.4 -1.06 2.8 -2.76 3.3 -2 0.56 -6 -1.18 -10.54 0.86a12.38 12.38 0 0 0 -7.28 12.72c0 0.2 0.34 0.24 0.34 0a12.18 12.18 0 0 1 11.66 -12.86c3.42 0 7.46 2.24 9.5 -3.44 0.76 -1.94 1.4 -4.6 -0.42 -6.18zM26.46 204c-2.92 0.2 -5.48 2.96 -6.9 5.34 -2 3.2 0.54 5.48 2.34 8s3 5.86 0.72 8.4c-1.2 1.36 -3.16 1.78 -4.52 3 -0.28 0.24 0 0.68 0.4 0.48 2 -1.16 4.6 -1.74 5.78 -4a7.24 7.24 0 0 0 -0.16 -6.26c-1.4 -3.16 -5.48 -5.72 -3.34 -9.42 1.84 -3.16 7.76 -7.14 9.7 -1.84a0.38 0.38 0 0 0 0.74 0 4.2 4.2 0 0 0 -4.76 -3.7zM257 102.14a7.2 7.2 0 0 1 -4.38 -7.08 0.4 0.4 0 0 0 -0.78 -0.1 7.22 7.22 0 0 0 2.48 7.04c2.62 2.28 5.88 1.42 8.88 2.52 0.4 0.16 0.74 -0.42 0.4 -0.66 -1.86 -1.76 -4.42 -0.9 -6.6 -1.72zm22.8 -63.82c0.14 -4 2.34 -7.76 -0.82 -11.1a8.24 8.24 0 0 0 -10.38 -0.88c-0.2 0.1 0 0.44 0.14 0.38 3.78 -1.54 9.12 -1.64 10.78 3.02 1.16 3.4 -1.22 6.64 -0.84 10 0.46 4 4.48 5.44 5.88 8.1s-0.82 5.1 -3.4 5.68a0.46 0.46 0 0 0 0.14 0.88 4.9 4.9 0 0 0 4.76 -6c-1.02 -4.2 -6.42 -5.12 -6.26 -10.08zm-30.24 178.8c-2.38 0.98 -5.04 2.34 -7.52 0.98a3.46 3.46 0 0 1 -1.22 -5.1c0.64 -1.06 1.56 -1.66 2.24 -2.62 2 -2.82 -0.72 -5.58 -2 -8 0 -0.2 -0.44 0 -0.34 0.14a22 22 0 0 0 1.7 3.1 4.54 4.54 0 0 1 -0.2 4.8c-0.38 0.54 -1.02 1.02 -1.46 1.56a4.8 4.8 0 0 0 -0.92 4.76c1.8 4 7.08 2.42 10 0.78 0.16 -0.06 0.02 -0.5 -0.28 -0.4zm111.98 25.72c-1.62 0.96 -3.46 2.48 -5.44 1.86s-2 -2.92 -2.44 -4.58 -1 -3.14 -2.86 -3.58c-1.1 -0.3 -3.64 -0.44 -4.42 0.78a1.28 1.28 0 0 0 0.84 2 1.28 1.28 0 0 1 0.48 -2 4.6 4.6 0 0 1 4.12 0.68c1.48 1.16 0.7 5.02 2.72 6.84s5.44 0.3 7.28 -1.4a0.3 0.3 0 1 0 -0.28 -0.6zm-66.64 49.52c0 -0.3 -0.54 -0.26 -0.48 0 0.3 11.04 22 6.72 22.76 19.12 0.24 4.42 -0.44 9.32 -5.2 10.82a0.42 0.42 0 0 0 0 0.82c7.18 0 7.56 -12.42 4.6 -16.68 -4.94 -7.44 -19.26 -4.44 -21.68 -14.08zM178.6 358c1.3 -2.48 0 -4.6 -1.2 -6.84 -0.44 -0.72 -1.8 -3.24 -2.92 -1.88 -0.18 0.24 0.1 0.48 0.3 0.28 1.06 -0.82 3.58 5.44 3.58 6 0 2 -2 3.38 -2.72 5.08 -1.02 2.44 1.46 5.2 0 7.14 -2 2.86 -1.4 7.32 2.76 7.62 0.44 0 0.48 -0.58 0 -0.72a3.76 3.76 0 0 1 -2.42 -5.54c0.58 -0.98 1.5 -1.8 1.64 -2.96a2.86 2.86 0 0 0 -0.52 -2 3.5 3.5 0 0 1 0 -4.36c0.58 -0.64 1.16 -1.18 1.5 -1.82zm-77.02 -70.64c-12 -4 -22 12.2 -9.02 23.14 2.38 2 6 4.8 4.32 8.36 -2 4.36 -7.66 2.9 -8.74 -1.32 0 -0.3 -0.58 -0.24 -0.54 0a5.38 5.38 0 0 0 8 4.42c4 -2.38 3.22 -6.94 0.5 -9.86 -2.1 -2.1 -4.76 -3.58 -6.4 -6.1a14 14 0 0 1 -2.18 -8.4 11 11 0 0 1 14 -9.6c0.26 0 0.48 -0.5 0.06 -0.64z" stroke-width="2"></path>
    <path d="M331.06 58.52 328.14 56s-32.38 60.34 -74.98 94.26l4.86 6.8s20.86 1.8 24.26 2.18c0.28 4.12 2.82 50.86 -31.5 96.88 -12.96 9.4 -32.18 6.24 -47.16 0.7l-6.48 -46.62s36.46 1.12 35.48 -23c-0.28 -7 -1.68 -21.46 -8.44 -23.22a29.14 29.14 0 0 0 -3.82 -7.62c8.36 -3.56 14.84 -9.64 15.86 -17.6 0 -0.14 0 -0.2 -0.14 -0.2 -4.6 -2 -20 -6.96 -28.88 -16.4a47.34 47.34 0 0 0 -6.7 -6.12 55.8 55.8 0 0 0 9.22 -5.14c11.56 -7.3 15.8 -14.66 19.12 -27.62 1.7 -6.54 3.26 -13.3 1.66 -20a39.56 39.56 0 0 0 -5.88 -2.42l-1.66 -0.44a24.38 24.38 0 0 1 -0.28 -6.5c0.14 -2.24 0.14 -4 2.96 -4.66a12.4 12.4 0 0 1 3.34 0.34 0.88 0.88 0 0 1 0 1.4c-0.3 0.28 -2.34 1.8 -2.58 2.48 0 0 0 0.2 0.2 0.14l0.2 -0.14a39.42 39.42 0 0 0 6.3 7.32l-2 1.8 0.64 5.24a33.34 33.34 0 0 0 3.64 3.16 0.18 0.18 0 0 0 0.24 0c4.36 -4.14 12.32 -13.7 12.32 -13.7L246 54l-5.34 -0.4 -2.38 2.82a41.4 41.4 0 0 0 -3.36 -3.26c1.24 -1.1 2.78 -3.24 1.7 -4.5a1.18 1.18 0 0 0 -1.6 -0.2 1.46 1.46 0 0 0 -0.24 -1.7c-0.76 -0.8 -2.14 -0.1 -3.06 0.54 1.02 -2.7 -0.92 -3.7 -3.24 -1.36a4.4 4.4 0 0 0 -0.66 0.82c-1.02 -3.14 3.14 -4.94 0.5 -12.86A3.46 3.46 0 0 0 234 30c0 -0.3 -0.64 -0.2 -0.48 0.14a2.84 2.84 0 0 1 -4.72 3.02 4.9 4.9 0 0 1 -0.82 -4.86 30 30 0 0 1 2.82 -5.24c1.02 -2 1.84 -4.42 0 -6 -3 -2.64 -10.14 -0.34 -10.24 3.82 -0.52 -0.62 -1.42 -1.66 -2 -2.18a2.38 2.38 0 0 0 -1.06 -0.74c-2.4 -0.72 -7.5 2.3 -9.3 3.56a52 52 0 0 0 -8.2 7.58 18.96 18.96 0 0 0 -4.6 8.3 5.06 5.06 0 0 0 2.28 5c-4.18 -0.68 -7.14 6 -5.28 9.38 1.16 2.12 3.82 1.74 5.82 1.16a28.9 28.9 0 0 1 5.72 -1.7 5.16 5.16 0 0 1 4.28 1.36 2.86 2.86 0 0 1 -3.54 4.46c-0.3 -0.14 -0.54 0.3 -0.26 0.44 4 2.48 7.64 -2.6 4 -5.88a4.78 4.78 0 0 0 0.44 0.24 10.88 10.88 0 0 0 6 1.32c3.04 -0.32 5.84 -4 8.86 -3.4 -1.54 1.26 -1.36 3.82 -1.42 5.68a16.58 16.58 0 0 0 0.38 4.96 16 16 0 0 0 -2.9 0c-1.04 0.66 -6.74 9 -11.1 17.16a56.74 56.74 0 0 0 -4.16 9.18c-6.68 -0.92 -13.68 0.56 -20.18 2a70 70 0 0 0 -19.08 6.54c-0.52 -0.38 -2.54 -2 -3.14 -2.56a4.7 4.7 0 0 0 2.12 -4.52 18.7 18.7 0 0 0 -4.94 -8 2 2 0 0 0 -1.44 -0.62c-0.18 -1.66 1.2 -2.16 1.04 -3.24s-1.2 -1.26 -2 -1.5a5.42 5.42 0 0 1 -3.68 -2.48c-1.5 -2 -3.14 -6.26 -6.82 -7.74 0.78 -4 -5.04 -6.86 -8.42 -6a17.38 17.38 0 0 0 -7.44 3.88 6 6 0 0 1 3.88 -0.64c-2.28 2.44 -5.58 3.12 -8 5.3a13.5 13.5 0 0 0 -3.88 8.34c-0.58 4.82 3.44 12 0.42 17.62 0.68 -0.52 1.32 -1.06 2 -1.6 0.1 2 0.24 4 0.34 6 0.38 -0.78 0.82 -1.54 1.22 -2.32 1.1 2.22 2.22 4.5 3.34 6.74 0.54 -0.72 1.02 -1.5 1.56 -2.24l0.86 1.22c0.34 -0.72 0.68 -1.5 1.02 -2.24a2.72 2.72 0 0 1 1.7 2.24 15.38 15.38 0 0 0 2 -4c1.24 2.16 2.62 4.28 3.84 6.42a31.48 31.48 0 0 0 -0.74 6.64 43.28 43.28 0 0 0 -12.32 29.76c-2.6 -1.76 -6.2 -3.92 -11.78 -6.8 -12 -6.2 -18 9.14 -18 9.14l13.1 8.44a17.06 17.06 0 0 1 16.4 -1.32 17.04 17.04 0 0 0 0.88 5.44c-9.62 0 -29.02 2.52 -29.02 2.52v1.16c-0.62 0 -2 -1.6 -2.56 -2.6 -1.36 -2.34 -3.46 -1.06 -4.7 0a11.34 11.34 0 0 0 -2.3 -5.64 9.44 9.44 0 0 0 -6.3 -0.78 42.34 42.34 0 0 0 -0.58 -10c-1.86 -4.86 -2.54 -8.98 -15.4 -9.36s-12.52 0.48 -12.52 1.1v23.5s6 -1.06 6.32 1.32a7.82 7.82 0 0 1 0 3.3s0.48 2.66 -6.32 2.32l2.2 25.14a12.96 12.96 0 0 0 11.3 0.74c8 -2.94 13.84 -0.32 12.34 0.28a43.8 43.8 0 0 1 -6.86 2c-9.78 2.52 -15.88 4.5 -22.18 4.5 -3.86 0 -11.6 -0.98 -13.3 -4.46a0.16 0.16 0 1 0 -0.28 0.14c1.16 3.12 6.6 4.18 9.46 4.62 8.8 1.34 18 -2 26.74 -4.32 2 -0.54 5.34 -0.82 7.04 -2.24 0 0 0.72 -9.56 1.26 -18.78 4 1.26 8.32 0.62 9.42 -3.4a16 16 0 0 0 7.12 -0.68c0 0.78 0.16 2.38 0.2 2.44s18.1 10.52 28.86 10.96c7.34 0.3 20.44 0.24 23.84 -8a53.76 53.76 0 0 0 7.46 9.3c-3.84 1.38 -41.3 16 -36 37.58 0.16 0.66 0.34 1.3 0.52 2 -29.04 -6 -59.38 2.9 -79.2 20.72a68.98 68.98 0 0 0 -17.42 21c-33 85.08 46 128.96 46 128.96l28.14 -10.92 0.14 -3.08c-18.38 -7.24 -31.82 -22.82 -39.1 -41.12 -8.8 -22 -4.34 -41.18 5.46 -62.86 4.28 -9.42 12 -21.22 16.68 -25.62a76.54 76.54 0 0 1 12.48 14.46c27.36 38.68 61.54 44.54 79.78 44.54a153.78 153.78 0 0 0 106 -28.28c26.62 -19.72 52.46 -51.62 65.34 -83.54a247.74 247.74 0 0 0 10.38 -36.6c4 -0.34 22.74 -2.82 22.74 -2.86s0.44 -0.34 0.38 -0.48c-17.04 -31.5 -50.88 -95.08 -50.88 -95.12zm-85.32 -4.32s1.6 2.56 2 3.06a156.82 156.82 0 0 0 -12 13.3 28.14 28.14 0 0 0 -3.38 -2.92zm-7.62 2.72a2.86 2.86 0 0 1 -0.68 3.06 3.6 3.6 0 0 1 -3.8 0.82c-0.86 -1.24 -5.32 -6 -6.54 -7.46 0.82 -0.62 2.14 -1.72 2.38 -2a1.36 1.36 0 0 0 1.3 1.08 2 2 0 0 0 1.42 -0.5c-0.2 0.78 -0.34 2 0.76 2a2.78 2.78 0 0 0 1.66 -0.68c0.82 1 2.96 3.18 3.5 3.68zm-3.26 -8.2c0.54 -0.5 1.4 0.1 1.56 0.62a2.38 2.38 0 0 1 -0.2 1.22 7.18 7.18 0 0 1 -1.06 1.6c-1.38 1.52 -3.06 2 -2.68 -0.38a18 18 0 0 0 2.38 -3.06zm-0.3 -1.56c0.64 0.84 -0.52 2 -0.96 2.72 -1.84 3 -4 1.8 -4 1.3a2.54 2.54 0 0 0 0.14 -0.24 1.2 1.2 0 0 0 -0.28 -1.44 3.86 3.86 0 0 0 2 -1.86c0.88 -0.44 2.42 -1.4 3.1 -0.48zm-5.86 -1.16c2.14 -2.14 4 -0.98 2.28 1.7a3.84 3.84 0 0 1 -1.74 1.5c-0.1 0 -1.02 -0.18 -1.42 -0.24 0 -0.16 -0.64 -1.2 0.88 -2.96zm1.8 -24.8c-0.96 3.1 -3.74 5.44 -3.74 8.74a47.1 47.1 0 0 0 -5.64 -8.4c0.88 -5.82 11.36 -6.82 9.38 -0.3zM196 37.7a9.68 9.68 0 0 1 0.86 -3.4 46 46 0 0 1 13.36 -13.6c2 -1.2 8.92 -4.7 8 0.26 -0.72 4 -4.56 9.46 -8.58 12.96a33.66 33.66 0 0 1 -10.2 6c-4.28 1.52 -3.44 -1.44 -3.44 -2.22zm1.68 14.3c-7.76 1.74 -5.24 -9.46 0.98 -8.84a109.4 109.4 0 0 0 8.34 7.48c-3.16 -1.2 -6.26 0.74 -9.32 1.36zm17.82 0.4a9.44 9.44 0 0 1 -6 -0.84c-4.22 -2 -11.84 -10.26 -12.58 -10.84a6.6 6.6 0 0 0 2.8 -0.44 32.26 32.26 0 0 0 7.36 -3.76c9.18 -6 12.46 -15.72 11.68 -17.1 3.06 4.36 6.62 8 8.56 13.08 3.7 9.76 -1.64 10.78 0.3 14.62a2.16 2.16 0 0 0 0 1.82 6.46 6.46 0 0 0 -3.18 0.4c-3.4 -1.34 -5.66 2.34 -8.94 3.12zm-10.74 34.7c0.1 0 8.26 -17.14 15.06 -26.32a22 22 0 0 1 10 2.68c1.62 6.64 0 13.24 -1.6 19.8 -3.6 14.54 -8.8 20.58 -18.92 27.22 -8.96 5.86 -10.92 5.9 -16.46 6.8a15.78 15.78 0 0 0 7.24 -1.22c13.6 12.34 11.58 12.96 35.58 22.82a21.06 21.06 0 0 1 -6.26 10.74 64.38 64.38 0 0 1 -9.62 6.2 42.64 42.64 0 0 1 -23.54 -3.74 35.42 35.42 0 0 1 -9.08 -13.02C184.28 132 184 116.46 184 116.52c-1.7 -1.26 -8 -1.72 -9.6 -1.28a58.66 58.66 0 0 0 4.9 -13.9c0 -0.3 0.12 -0.46 -0.14 -0.66a19.42 19.42 0 0 0 -13.56 -5.08 91.68 91.68 0 0 1 39.16 -8.44zM174.1 115.6c0 -0.32 7.36 -0.32 9.42 1.06a49.76 49.76 0 0 0 3.64 23.5 31.14 31.14 0 0 0 4.36 7.22 29.04 29.04 0 0 0 3.54 4.18c-12.66 -6.34 -18 -16.66 -24.74 -30.92C165.56 110.54 165.6 96 165.6 96a22.48 22.48 0 0 1 13.32 5.08A139.54 139.54 0 0 1 174 115.5c-0.14 0.14 0 0.24 0.1 0.1zm8 25.86a42.28 42.28 0 0 0 37.82 15.1s2.7 5.2 3.72 7.42c-2.48 0 -34.34 -0.58 -52.3 9.48a69.68 69.68 0 0 1 -11.12 -14A132 132 0 0 1 152.64 144c11.46 -10.68 4.32 -29.84 4.32 -29.84 -1.02 1.36 -3.78 0.92 -3.78 0.92 0.58 11.84 -3.02 18.24 -4.12 20C144.72 125.82 144 118.64 142.4 112a26 26 0 0 1 5.24 4.38c0.2 0.24 0.64 -0.2 0.64 -0.24a53.56 53.56 0 0 1 0.9 -7.62 4.76 4.76 0 0 0 3.36 4.32 2.96 2.96 0 0 0 4 -1.66 7.42 7.42 0 0 0 0.82 -3.54s2.42 2.34 3.64 3.36c0.58 0.48 3.34 -8 4 -12 -0.58 13.62 8.56 32.1 17 42.46zm-26.4 11.12c-2.14 -2 -4.12 -4 -6.22 -6.12a21.86 21.86 0 0 0 2.88 -2.28 56.9 56.9 0 0 0 3.34 8.4zm6.12 -59.68a14.14 14.14 0 0 0 3.34 2.98s-2.32 9.72 -4 14.52a62 62 0 0 0 -6.3 -5.64 36.7 36.7 0 0 0 4.24 -10.4 10 10 0 0 0 2.72 -1.46zm-3.64 -9.2a0.22 0.22 0 0 1 0.34 0.2 1.86 1.86 0 0 1 -1.16 1.22 2.28 2.28 0 0 1 -1.76 -0.34 2.86 2.86 0 0 0 2.58 -1.08zm-18.98 -4.94c0.1 0 0.24 -0.1 0.14 -0.2a1.06 1.06 0 0 0 -0.24 -0.2c-1.7 -3.64 1.56 -7.46 4.18 -9.7a8.22 8.22 0 0 0 2.88 -3.82c4.9 2.9 5.84 8.5 8.72 10 0.58 0.28 1.3 0.28 1.88 0.58 2.36 1.14 0 2.78 0.16 4.18 -3.78 0.4 -3.82 5.58 -4.28 6.88s-2 4.38 -6.7 0.88a12.48 12.48 0 0 1 -4.9 -5.58s-0.16 -0.34 -0.24 -0.2a2.2 2.2 0 0 1 -3.56 -0.18c-0.9 -1.58 0.26 -3.4 1.96 -2.64zm-2.58 16.5c-0.28 -1.88 -1.72 -4 -0.34 -5.82 0.72 -0.88 2.2 -1.44 4.48 -0.5 1.5 2.82 3.64 6.46 5.24 7.06a18.88 18.88 0 0 0 12.86 -1.44 54.34 54.34 0 0 1 -4.42 10c0 0.18 0.3 0.48 0.4 0.56a16.44 16.44 0 0 0 -5.4 2c0.12 -0.9 0.6 -0.4 -5.18 -3.12a14 14 0 0 0 -3.34 -1.32 57.14 57.14 0 0 0 -4.3 -7.42zm4.24 7.82c2.76 0.96 8.14 3.82 8.2 3.82a23.36 23.36 0 0 0 -1.32 8.54 44 44 0 0 0 -7.52 -5.68 25.68 25.68 0 0 0 0.64 -6.68zm-0.7 7.02a9.68 9.68 0 0 0 1.76 1.62 83.48 83.48 0 0 0 6.84 23.78 28.3 28.3 0 0 1 -4.26 4.66c-0.74 -0.5 -4.66 -3.88 -6 -5.1a69.46 69.46 0 0 0 2.38 -8.8c0 -0.14 -4.92 -2.4 -6 -2.92a30 30 0 0 1 5.28 -13.24zm-1.34 1.36a25.34 25.34 0 0 0 -2.48 4.94 43.82 43.82 0 0 0 -1.76 6.86v0.24a12.56 12.56 0 0 0 3.12 1.84 8.96 8.96 0 0 0 2.82 1.02 67.62 67.62 0 0 0 -2.24 8.3 2.22 2.22 0 0 0 0 0.5A20 20 0 0 0 144 140.58a12.44 12.44 0 0 1 -8 3.06c-4 -0.12 -5.34 -2 -8 -3.88 -0.26 -10.62 4.36 -20.1 10.82 -28.3zm-49.02 56c-2 1.84 -4.72 1.06 -7.1 0.64 0.34 -6 0.58 -12.42 0.68 -17.72 3.46 0 5.56 -0.5 6.8 2.32 0 0.2 0.62 2.32 0.82 3.18 -0.26 -0.5 -1.08 -0.62 -1.84 -0.64a5.36 5.36 0 0 0 -4.76 1.64 1.44 1.44 0 0 0 0.78 2.28 5.58 5.58 0 0 0 0.78 0.2 2 2 0 0 0 -0.88 2.42 1.46 1.46 0 0 0 1.18 0.74c-0.6 0.48 -0.98 1.1 -0.44 1.88a11.26 11.26 0 0 0 5.08 1.26 4 4 0 0 1 -1.1 1.86zm-1.12 -5.38c-3.16 0.72 -4.28 -0.88 -2.28 -2.62a6.28 6.28 0 0 0 2.28 -0.3 4.22 4.22 0 0 1 1.5 0.24c1.94 1.08 -0.62 2.6 -1.5 2.74zm-0.34 2.38a4 4 0 0 1 -1.7 0c-1.12 -0.48 -0.38 -1.26 0 -1.8a7.2 7.2 0 0 0 2.48 -0.24 5.4 5.4 0 0 0 1.36 -0.68c1.14 0.58 0.2 2.56 -2.14 2.78zm1.9 -6.12c-4 1.16 -6.66 0.52 -5.2 -1.46a4.12 4.12 0 0 1 2.96 -1.4c1.02 0 3 -0.24 2.86 1.4a5.34 5.34 0 0 0 -0.62 1.52zm0.74 7.02c-0.92 -0.12 -1.84 -0.22 -2.78 -0.38a3.74 3.74 0 0 0 0.92 -0.18 4.88 4.88 0 0 0 2 -1.32 8.34 8.34 0 0 1 -0.14 1.94zm8.28 -0.62c-1.06 0 -4 0.62 -5.48 0.74a14 14 0 0 1 -1.6 0 12.16 12.16 0 0 0 -0.4 -5.7 13.76 13.76 0 0 0 1.66 -0.12c-1.32 0.92 -0.3 3 0.72 3.78 0.14 0 0.34 0 0.24 -0.18 -0.72 -1.12 -1.54 -2.28 -0.38 -3.46 0.1 -0.1 0 -0.52 0 -0.52 -0.64 0 -1.32 0.18 -2 0 -3.46 -0.42 1 -5.3 3.54 -4.4 0.98 0.36 1.08 1.08 1.62 1.78a6.18 6.18 0 0 0 2.26 2c-0.14 2.02 -0.24 4.1 -0.18 6.14zm40.86 12.44c-16.24 2.44 -26.3 -2.54 -40.5 -10 0.34 -3.34 -0.22 -6.44 0.18 -9.78 9.7 -0.88 19.36 -2.14 29.12 -2.14a0.28 0.28 0 0 0 0.24 -0.44s-0.78 -4.66 -0.84 -5.24a24.94 24.94 0 0 0 14.22 0.4s0.88 3.14 1.18 4a78.22 78.22 0 0 0 8.14 16c-2.22 4.68 -6.94 6.52 -11.74 7.26zm4.38 -22.72c-0.3 -0.78 -1.3 -4.72 -1.34 -4.76a22.92 22.92 0 0 0 5.7 -2.96A69.42 69.42 0 0 0 156 153.4a76 76 0 0 0 14.8 20.34 25.78 25.78 0 0 0 -8.6 7.62c-8.02 -9.2 -13.04 -15.36 -17.7 -26.84zm14.12 67.6 6.64 -1.84s-13.6 -28.82 -4.94 -40c0.5 0.48 1 1 1.52 1.44a18.26 18.26 0 0 0 -2.16 14 292.7 292.7 0 0 0 14.86 46.6c-4.56 -2.64 -9.1 -5.32 -13.68 -8zM68 267.6c-5.4 11.12 -10.14 22.82 -11.84 35.14 -4.3 31.5 16.68 62.84 44.4 74.16l-26 10.18c-76.7 -51.68 -42 -123.76 -42 -123.76s19.62 -44.64 51.02 -18c-7.24 5.44 -11.58 14.14 -15.58 22.28zm33.1 -10.44C80.78 230 63.2 229.64 50.28 236.64a91.74 91.74 0 0 1 74.12 -16.42C130.84 242.5 149.48 270 149.48 270l1.76 -0.24c0.28 1.18 0.58 2.34 0.92 3.5 -2 5.54 -12.48 7.38 -12.48 7.38 -0.78 1.02 0.98 2.38 0.98 2.38 4.46 1.16 7.22 0.52 11.54 0.68a5.38 5.38 0 0 0 5.5 -3.12l1.7 -0.14 0.28 2.34c5.1 -0.16 6.46 -1.6 6.46 -1.6v-0.44c-0.74 -4.82 -3.64 -2.68 -2.86 -12.68l3.54 -0.48 -5.76 -31.88c4.68 2.66 9.34 5.42 14 8.12 5.16 12.6 9.38 21.04 9.38 21.04l3.74 -1.06a25.5 25.5 0 0 0 1.5 4.18c-0.98 6.1 -10.78 10.86 -10.78 10.86 -0.48 1.32 1.7 2.18 1.7 2.18 5 -0.1 7.72 -1.6 12.28 -2.72a5.74 5.74 0 0 0 4.8 -4.84l1.76 -0.64 0.96 2.38c5.3 -1.7 6.26 -3.58 6.26 -3.58a15.72 15.72 0 0 1 -5.62 -11.56l2.9 -0.82 -0.16 -1.24c14 5.1 32.62 8.34 45.26 0.6 -45.72 58.1 -107.04 53.06 -147.94 -1.44zm50.72 12.42 10.92 -1.54c-0.1 2.22 -0.3 4.42 -0.48 6.54 -3.74 2.62 -7.62 0 -9.18 -1.06 -0.44 -1.32 -0.88 -2.62 -1.26 -3.94zm49.06 -4c-3.54 3.68 -8.54 2.28 -10.34 1.64 -0.58 -1.3 -1.1 -2.56 -1.6 -3.88l11.5 -3.3c0.2 1.96 0.3 3.78 0.44 5.62zm155.56 -110.7c-0.68 5.2 -4 37.2 -31.74 75.42 -34.2 47.26 -78 73.3 -132.14 73.2a94.16 94.16 0 0 0 16.4 -6c81.04 -36.7 78.76 -138.48 78.76 -138.48s-27.08 -2.62 -29.22 -2.28c5.48 -4.6 58.28 -48.94 71.78 -95.62 16.5 31.44 32.38 60.1 49.22 91.36 -2.96 0.04 -19.18 1.72 -23.06 2.48z" stroke-width="2"></path>
    <path d="m215.64 41.14 1.74 4.18 0.98 -4.66 4.94 -0.2 -3.88 -2.56 0.5 -4 -2.88 2.44 -3.58 -2.24 1.2 4.08 -2.86 2.48 3.84 0.48z" stroke-width="2"></path>
    <path d="M83.72 86.32a1.9 1.9 0 1 0 3.8 0 1.9 1.9 0 1 0 -3.8 0" stroke-width="2"></path>
    <path d="M104.06 42.02a1.9 1.9 0 1 0 3.8 0 1.9 1.9 0 1 0 -3.8 0" stroke-width="2"></path>
    <path d="M291.88 15.72a1.84 1.84 0 1 1 -1.84 1.84 1.86 1.86 0 0 1 1.84 -1.84z" stroke-width="2"></path>
    <path d="M260.14 185.24a1.84 1.84 0 1 0 3.68 0 1.84 1.84 0 1 0 -3.68 0" stroke-width="2"></path>
    <path d="M95.48 278.48a1.84 1.84 0 1 0 3.68 0 1.84 1.84 0 1 0 -3.68 0" stroke-width="2"></path>
    <path d="M204.44 321.08a1.84 1.84 0 1 0 3.68 0 1.84 1.84 0 1 0 -3.68 0" stroke-width="2"></path>
    <path d="M311.16 346.32a1.84 1.84 0 1 1 -1.86 1.84 1.84 1.84 0 0 1 1.86 -1.84z" stroke-width="2"></path>
  </g>
</svg>