<svg width="228" height="224" viewBox="0 0 228 224" fill="none" xmlns="http://www.w3.org/2000/svg">
<path d="M134.856 59.124C134.859 59.0774 134.846 59.0312 134.819 58.9932C134.792 58.9551 134.752 58.9275 134.708 58.9148C134.663 58.9022 134.615 58.9053 134.572 58.9237C134.529 58.9421 134.494 58.9747 134.472 59.016C134.243 59.4267 134.1 59.88 134.052 60.348C134.054 60.3934 134.071 60.437 134.099 60.4724C134.128 60.5079 134.167 60.5334 134.211 60.5454C134.255 60.5573 134.301 60.5551 134.344 60.5391C134.386 60.523 134.423 60.4939 134.448 60.456C134.679 60.0466 134.818 59.5922 134.856 59.124ZM138.348 59.988C138.241 60.4378 138.169 60.8951 138.132 61.356C138.132 61.4132 138.155 61.4682 138.195 61.5087C138.236 61.5492 138.291 61.572 138.348 61.572C138.405 61.572 138.46 61.5492 138.501 61.5087C138.541 61.4682 138.564 61.4132 138.564 61.356C138.701 60.9096 138.75 60.4409 138.708 59.976C138.706 59.9282 138.686 59.8831 138.651 59.8504C138.616 59.8178 138.57 59.8004 138.522 59.802C138.474 59.8035 138.429 59.824 138.396 59.8589C138.364 59.8938 138.346 59.9402 138.348 59.988ZM136.368 79.104C136.839 79.3241 137.348 79.4504 137.868 79.476C138.31 79.603 138.782 79.5854 139.214 79.4256C139.645 79.2659 140.015 78.9724 140.268 78.588C140.772 77.688 140.916 76.116 140.268 75.6C139.62 75.084 137.04 74.7959 136.512 75.2399C135.984 75.6839 135.492 78.54 136.368 79.104ZM138.468 125.7C138.135 125.816 137.835 126.009 137.591 126.263C137.348 126.517 137.168 126.825 137.066 127.162C136.964 127.499 136.943 127.855 137.006 128.202C137.068 128.549 137.211 128.875 137.424 129.156C137.655 129.52 137.996 129.801 138.396 129.961C138.797 130.12 139.238 130.149 139.656 130.044C139.967 129.838 140.232 129.57 140.435 129.257C140.639 128.944 140.775 128.593 140.837 128.225C140.899 127.857 140.885 127.481 140.795 127.118C140.705 126.756 140.542 126.416 140.316 126.12C140.069 125.899 139.769 125.745 139.446 125.671C139.123 125.598 138.786 125.608 138.468 125.7ZM195.6 93.864C195.526 93.8894 195.459 93.9322 195.405 93.9888C195.35 94.0454 195.31 94.1141 195.288 94.1892C195.266 94.2644 195.262 94.3437 195.276 94.4208C195.291 94.4978 195.324 94.5702 195.372 94.632C195.424 94.7111 195.499 94.772 195.587 94.8064C195.675 94.8408 195.772 94.847 195.864 94.824C196.224 94.656 196.188 93.708 195.6 93.864ZM77.5559 91.284C77.4483 91.3229 77.3513 91.3866 77.2727 91.4698C77.1942 91.5531 77.1362 91.6536 77.1036 91.7633C77.0709 91.873 77.0644 91.9888 77.0846 92.1014C77.1048 92.2141 77.1511 92.3205 77.2199 92.412C77.2986 92.5282 77.4107 92.6179 77.5413 92.6693C77.6719 92.7207 77.8151 92.7314 77.9519 92.7C78.0523 92.6328 78.1379 92.5459 78.2036 92.4446C78.2692 92.3432 78.3135 92.2295 78.3337 92.1105C78.354 91.9914 78.3497 91.8695 78.3212 91.7521C78.2926 91.6348 78.2405 91.5245 78.1679 91.428C78.0854 91.3559 77.9865 91.3051 77.8798 91.28C77.7731 91.2549 77.6619 91.2562 77.5559 91.284ZM122.808 124.8C122.475 124.917 122.175 125.112 121.931 125.367C121.688 125.622 121.508 125.931 121.406 126.269C121.304 126.607 121.284 126.964 121.346 127.311C121.408 127.659 121.551 127.986 121.764 128.268C121.996 128.631 122.337 128.911 122.738 129.068C123.139 129.226 123.579 129.252 123.996 129.144C124.307 128.938 124.572 128.67 124.775 128.357C124.979 128.044 125.115 127.693 125.177 127.325C125.239 126.957 125.225 126.581 125.135 126.218C125.045 125.856 124.882 125.516 124.656 125.22C124.408 125.001 124.108 124.848 123.785 124.774C123.463 124.701 123.126 124.71 122.808 124.8ZM48.9479 84.516C49.2479 85.092 49.5959 84.792 49.4879 84.36C49.4279 84.108 49.1159 82.824 48.8879 82.764C48.6599 82.704 48.4559 82.884 48.5399 83.196C48.6516 83.6431 48.7878 84.0838 48.9479 84.516ZM57.8399 83.52C57.9346 83.0138 57.9629 82.4974 57.9239 81.984C57.9076 81.9331 57.8756 81.8887 57.8325 81.8572C57.7893 81.8258 57.7373 81.8088 57.6839 81.8088C57.6305 81.8088 57.5785 81.8258 57.5353 81.8572C57.4922 81.8887 57.4602 81.9331 57.4439 81.984C57.3779 82.4898 57.3779 83.0021 57.4439 83.508C57.4799 83.7 57.7079 83.7 57.8399 83.52ZM53.8199 87.072C53.8727 87.1192 53.9411 87.1453 54.0119 87.1453C54.0827 87.1453 54.1511 87.1192 54.2039 87.072C54.2759 87.072 54.8039 86.424 54.6359 86.148C54.4679 85.872 54.3479 85.992 53.6159 85.992C53.5539 85.9903 53.493 86.0079 53.4414 86.0422C53.3899 86.0766 53.3502 86.1261 53.3279 86.184C53.2319 86.472 53.7359 86.988 53.8199 87.072ZM69.6599 38.244C74.8199 32.592 88.5719 18.468 90.0599 16.848C90.0812 16.8267 90.098 16.8014 90.1096 16.7736C90.1211 16.7458 90.127 16.7161 90.127 16.686C90.127 16.6559 90.1211 16.6261 90.1096 16.5983C90.098 16.5705 90.0812 16.5452 90.0599 16.524C90.0386 16.5027 90.0134 16.4858 89.9856 16.4743C89.9578 16.4628 89.928 16.4569 89.8979 16.4569C89.8678 16.4569 89.838 16.4628 89.8102 16.4743C89.7824 16.4858 89.7572 16.5027 89.7359 16.524C88.2719 17.808 70.7999 36.336 69.3839 37.98C69.2279 38.16 69.4919 38.424 69.6599 38.244ZM54.1679 29.82C54.7199 26.976 58.1879 15.948 59.2319 13.236C59.3159 13.02 58.9559 12.864 58.8479 13.08C56.7225 18.4708 55.0526 24.0302 53.8559 29.7C53.8319 29.928 54.1199 30.024 54.1679 29.82ZM41.2559 26.208C41.2559 26.424 41.6159 26.328 41.5799 26.124C40.5239 19.608 37.7279 2.89197 37.3079 1.07997C37.1999 0.899967 36.8639 0.899966 36.8879 1.13997C37.0799 2.74797 40.9199 24.348 41.2559 26.208ZM16.7999 27.924C16.6199 27.768 16.3439 28.02 16.5359 28.188C20.1359 31.44 23.7359 34.704 27.0719 38.256C27.2759 38.472 27.5879 38.16 27.3959 37.944C24.1318 34.3316 20.5889 30.9813 16.7999 27.924ZM21.9599 53.208C16.3319 52.188 1.87191 49.608 0.263906 49.332C-9.44377e-05 49.332 -0.120094 49.692 0.155906 49.74C5.75991 50.844 20.2439 53.34 21.8399 53.604C22.1039 53.7 22.2119 53.256 21.9599 53.208ZM192.888 34.764C193.5 34.3107 194.085 33.8219 194.64 33.3C195.084 33.516 196.548 33.804 196.368 33.528C196.1 33.1407 195.852 32.7402 195.624 32.328C196.284 31.632 197.556 29.58 197.244 29.664C196.38 29.868 195.516 30.036 194.64 30.192C194.376 29.508 193.44 27.888 193.356 28.2C193.26 28.944 193.152 29.688 193.044 30.444C192.24 30.552 190.176 31.152 190.488 31.296L192.756 32.412C192.66 32.976 192.588 35.004 192.888 34.764ZM216.18 26.532C216.312 26.22 216.444 25.908 216.6 25.608C216.756 25.308 215.592 25.704 215.304 25.92C215.004 25.692 214.104 25.092 214.008 25.164C214.002 25.6938 214.099 26.2198 214.296 26.712C214.08 26.892 213.312 27.42 213.312 27.564C213.312 27.708 214.368 27.924 214.74 27.924C214.824 28.14 214.896 28.344 214.968 28.548C215.04 28.752 215.64 28.116 215.7 27.912C216.164 27.912 216.632 27.876 217.104 27.804C217.392 27.768 216.528 26.76 216.18 26.532ZM200.316 4.71597C200.316 4.77597 200.532 5.12397 200.676 5.11197C200.82 5.09997 200.988 4.76397 201.012 4.70397C201.036 4.64397 201.828 4.57197 201.864 4.42797C201.9 4.28397 201.444 3.89997 201.312 3.81597C201.18 3.73197 201.492 3.23997 201.372 3.14397C201.252 3.04797 200.796 3.32397 200.7 3.39597C200.604 3.46797 200.112 3.01197 199.992 3.08397C199.872 3.15597 199.992 3.77997 199.992 3.94797C199.992 4.11597 199.536 4.23597 199.548 4.37997C199.56 4.52397 200.172 4.70397 200.316 4.71597ZM152.904 13.308C152.904 13.368 153.132 13.716 153.264 13.716C153.396 13.716 153.588 13.356 153.6 13.296C153.612 13.236 154.428 13.164 154.452 13.02C154.476 12.876 154.032 12.492 153.9 12.408C153.9 12.312 154.08 11.832 153.96 11.748C153.84 11.664 153.396 11.916 153.3 12C153.204 12.084 152.712 11.604 152.58 11.688C152.448 11.772 152.58 12.384 152.58 12.54C152.58 12.696 152.124 12.828 152.124 12.984C152.124 13.14 152.76 13.308 152.904 13.308ZM158.676 14.928C158.676 14.928 158.088 14.532 157.968 14.616C157.848 14.7 157.968 15.3 157.968 15.468C157.968 15.636 157.512 15.756 157.524 15.9C157.536 16.044 158.112 16.236 158.256 16.236C158.4 16.236 158.472 16.644 158.616 16.644C158.76 16.644 158.928 16.296 158.94 16.224C159.132 16.224 159.768 16.092 159.804 15.948C159.84 15.804 159.384 15.42 159.252 15.336C159.12 15.252 159.432 14.76 159.252 14.676C159.072 14.592 158.772 14.844 158.676 14.928ZM157.452 2.61597C157.452 2.67597 157.668 3.02397 157.812 3.01197C157.956 2.99997 158.124 2.66397 158.148 2.59197C158.172 2.51997 158.964 2.47197 159 2.32797C159.036 2.18397 158.58 1.79997 158.448 1.71597C158.316 1.63197 158.628 1.13997 158.508 1.04397C158.388 0.947966 157.932 1.22397 157.836 1.29597C157.74 1.36797 157.248 0.911967 157.128 0.983967C157.008 1.05597 157.128 1.84797 157.128 1.84797C157.128 1.84797 156.672 2.13597 156.684 2.27997C156.696 2.42397 157.308 2.60397 157.452 2.61597ZM150.216 38.784C150.216 38.784 150.444 39.192 150.576 39.192C150.708 39.192 150.9 38.832 150.912 38.772C150.924 38.712 151.74 38.64 151.764 38.508C151.788 38.376 151.344 37.968 151.212 37.884C151.212 37.788 151.392 37.308 151.272 37.224C151.152 37.14 150.708 37.392 150.612 37.476C150.516 37.56 150.024 37.08 149.892 37.164C149.76 37.248 149.892 37.86 149.892 38.028C149.892 38.196 149.436 38.304 149.436 38.46C149.436 38.616 150.072 38.784 150.216 38.784ZM175.128 55.632C175.128 55.812 175.716 55.968 175.86 55.968C176.004 55.968 176.076 56.376 176.22 56.376C176.364 56.376 176.532 56.016 176.556 55.956C176.58 55.896 177.372 55.824 177.408 55.68C177.444 55.536 176.988 55.152 176.856 55.068C176.724 54.984 177.036 54.492 176.916 54.396C176.796 54.3 176.34 54.576 176.244 54.66C176.148 54.744 175.656 54.264 175.536 54.348C175.416 54.432 175.536 55.212 175.536 55.212C175.536 55.212 175.116 55.488 175.128 55.632ZM202.452 35.58C202.452 35.76 203.04 35.904 203.184 35.916C203.328 35.928 203.4 36.324 203.544 36.312C203.688 36.3 203.856 35.964 203.88 35.892C203.904 35.82 204.696 35.772 204.732 35.628C204.768 35.484 204.312 35.1 204.18 35.016C204.048 34.932 204.36 34.44 204.18 34.344C204 34.248 203.604 34.524 203.508 34.596C203.412 34.668 202.92 34.212 202.8 34.284C202.68 34.356 202.8 34.98 202.8 35.148C202.8 35.316 202.44 35.424 202.452 35.58ZM179.688 27.912C179.688 28.092 180.276 28.236 180.42 28.248C180.564 28.26 180.648 28.656 180.78 28.644C180.912 28.632 181.104 28.296 181.116 28.224C181.128 28.152 181.932 28.104 181.968 27.96C182.004 27.816 181.548 27.432 181.416 27.348C181.284 27.264 181.596 26.772 181.416 26.676C181.236 26.58 180.852 26.856 180.756 26.928C180.66 27 180.168 26.544 180.036 26.616C179.904 26.688 180.036 27.48 180.036 27.48C180.036 27.48 179.688 27.756 179.688 27.912ZM196.104 37.08C196.164 37.248 196.464 37.824 196.608 37.824C196.752 37.824 197.004 37.26 197.04 37.104C197.076 36.948 197.676 37.104 197.7 36.936C197.724 36.768 197.364 36.48 197.256 36.408C197.148 36.336 197.388 35.652 197.256 35.592C197.124 35.532 196.62 35.832 196.5 35.928C196.38 36.024 196.104 35.58 195.96 35.628C195.816 35.676 195.816 36.288 195.852 36.432C195.888 36.576 195.54 36.852 195.612 36.96C195.684 37.068 196.068 37.08 196.104 37.08ZM213.24 58.008C213.24 57.912 213.432 57.432 213.312 57.336C213.192 57.24 212.736 57.516 212.64 57.6C212.544 57.684 212.052 57.204 211.92 57.288C211.788 57.372 211.92 57.972 211.92 58.14C211.92 58.308 211.464 58.428 211.464 58.572C211.464 58.716 212.064 58.908 212.208 58.908C212.352 58.908 212.424 59.316 212.556 59.316C212.688 59.316 212.88 58.956 212.892 58.896C213.084 58.896 213.72 58.764 213.744 58.62C213.768 58.476 213.384 58.092 213.24 58.008ZM223.116 29.616C223.116 29.52 223.296 29.04 223.116 28.944C222.936 28.848 222.54 29.124 222.444 29.196C222.348 29.268 221.856 28.812 221.736 28.884C221.616 28.956 221.736 29.58 221.736 29.748C221.736 29.916 221.28 30.036 221.292 30.18C221.304 30.324 221.88 30.516 222.024 30.516C222.168 30.516 222.24 30.924 222.384 30.924C222.528 30.924 222.696 30.564 222.72 30.504C222.744 30.444 223.536 30.372 223.572 30.228C223.608 30.084 223.2 29.7 223.116 29.616ZM227.448 21.192C227.448 21.096 227.628 20.616 227.508 20.52C227.388 20.424 226.932 20.7 226.836 20.784C226.74 20.868 226.248 20.388 226.128 20.472C226.008 20.556 226.128 21.336 226.128 21.336C226.128 21.336 225.672 21.612 225.684 21.756C225.696 21.9 226.272 22.092 226.416 22.092C226.56 22.092 226.632 22.5 226.776 22.5C226.92 22.5 227.088 22.14 227.112 22.08C227.136 22.02 227.928 21.948 227.964 21.804C228 21.66 227.58 21.3 227.448 21.192ZM194.748 7.66797C194.748 7.66797 194.964 8.08796 195.108 8.07596C195.252 8.06396 195.42 7.72797 195.444 7.65597C195.468 7.58397 196.26 7.53597 196.296 7.39197C196.332 7.24797 195.876 6.86397 195.744 6.76797C195.612 6.67197 195.924 6.20397 195.744 6.10797C195.564 6.01197 195.168 6.28797 195.084 6.35997C195 6.43197 194.484 5.97597 194.364 6.04797C194.244 6.11997 194.364 6.74397 194.364 6.91197C194.364 7.07997 193.908 7.19997 193.92 7.34397C193.932 7.48797 194.604 7.66797 194.748 7.66797Z" fill="#020617"/>
<path d="M213.108 43.4041C213.012 43.0681 212.352 42.1081 212.292 42.3841C212.232 42.6601 212.136 43.1041 212.052 43.4761H210.756C212.403 41.2279 213.309 38.5227 213.348 35.7361C213.344 33.2537 212.559 30.8356 211.104 28.8241C209.533 26.8383 207.462 25.306 205.104 24.3841C199.836 22.2241 190.104 22.1401 186.912 22.2361C181.164 22.4041 175.2 23.5321 170.472 27.0361C168.444 28.5121 166.02 30.6361 165.888 33.3361C165.852 33.9322 165.962 34.5282 166.209 35.072C166.455 35.6158 166.831 36.091 167.304 36.4561C169.704 38.2441 176.496 37.8241 179.46 37.4761C183.848 36.9695 188.115 35.7068 192.072 33.7441C192.348 33.6121 192.072 33.2161 191.844 33.3481C185.385 36.3539 178.259 37.6434 171.156 37.0921C169.996 37.0634 168.859 36.7547 167.844 36.1921C167.305 35.8447 166.884 35.3425 166.636 34.7515C166.387 34.1604 166.323 33.5081 166.452 32.8801C166.753 31.5709 167.448 30.3856 168.444 29.4841C172.212 25.5841 177.636 23.9641 182.844 23.1121C188.052 22.2601 197.712 23.1121 200.568 23.6881C213.972 26.3641 215.868 37.9801 208.344 45.3961C201.144 52.4881 186.432 53.7961 176.628 51.2161C175.296 50.929 174.057 50.3098 173.028 49.4161C170.556 47.0161 171.168 42.9121 177.408 41.4481C180.356 40.7954 183.42 40.8823 186.326 41.701C189.232 42.5197 191.89 44.0447 194.064 46.1401C194.22 46.2961 194.448 46.0561 194.304 45.9001C186.564 37.8841 172.44 39.6121 171.24 45.7561C171.136 46.3491 171.159 46.9576 171.308 47.541C171.457 48.1244 171.729 48.6695 172.104 49.1401C173.844 51.4321 177.06 51.9481 179.724 52.3921C190.044 54.1201 204.372 52.2121 210.504 43.8241C210.859 44.1832 211.263 44.4902 211.704 44.7361C211.704 45.0121 211.524 46.2961 211.848 46.0921C212.179 45.8806 212.495 45.6481 212.796 45.3961C213 45.5161 213.996 45.6121 213.804 45.3961C213.612 45.1801 213.612 45.0241 213.528 44.8321C213.888 44.5201 214.728 43.6321 214.632 43.4761C214.131 43.3724 213.617 43.3481 213.108 43.4041Z" fill="#020617"/>
<path d="M198 54.828C197.676 54.828 197.364 54.828 197.04 54.732C196.92 54.048 196.152 52.332 196.044 52.596C195.792 53.184 195.516 53.796 195.228 54.348C194.724 54.204 193.248 54.168 193.452 54.348C193.848 54.72 194.232 55.104 194.652 55.548C194.376 56.064 193.944 57.624 194.208 57.492L195.792 56.676C196.116 56.988 197.4 57.996 197.388 57.6C197.374 57.038 197.33 56.4772 197.256 55.92C197.556 55.704 198.3 54.9 198 54.828ZM161.604 41.508L163.404 41.424C163.572 41.856 164.292 43.32 164.448 42.972C164.678 42.4436 164.878 41.9027 165.048 41.352H166.08C166.147 41.3523 166.212 41.3303 166.265 41.2893C166.318 41.2484 166.356 41.191 166.372 41.1262C166.389 41.0613 166.383 40.9928 166.356 40.9316C166.329 40.8703 166.283 40.8197 166.224 40.788C165.936 40.632 165.648 40.464 165.372 40.284C165.552 39.624 165.696 38.952 165.852 38.28C165.866 38.2138 165.858 38.1449 165.831 38.0831C165.804 38.0212 165.758 37.9695 165.7 37.9351C165.641 37.9007 165.574 37.8854 165.506 37.8913C165.439 37.8971 165.375 37.924 165.324 37.968C164.856 38.388 164.376 38.784 163.884 39.168C163.5 38.832 163.116 38.484 162.744 38.124C162.552 37.944 162.156 38.124 162.264 38.412C162.468 38.916 162.66 39.444 162.852 39.96C162.384 40.296 161.916 40.62 161.436 40.932C161.386 40.972 161.348 41.0261 161.329 41.0875C161.309 41.1488 161.308 41.2146 161.326 41.2764C161.344 41.3382 161.38 41.3932 161.43 41.4345C161.479 41.4757 161.54 41.5013 161.604 41.508ZM171.06 21.696L172.428 22.38C172.309 22.8677 172.241 23.3663 172.224 23.868C172.266 23.9338 172.331 23.9814 172.407 24.0014C172.482 24.0214 172.563 24.0123 172.632 23.976C173.016 23.676 173.376 23.352 173.736 23.028L174.492 23.4C174.744 23.532 175.08 23.256 174.9 22.992C174.72 22.728 174.612 22.524 174.48 22.284C174.876 21.876 175.272 21.444 175.68 21.012C175.731 20.9641 175.765 20.9003 175.776 20.8309C175.787 20.7614 175.774 20.6904 175.739 20.6293C175.704 20.5682 175.65 20.5206 175.585 20.4942C175.52 20.4678 175.447 20.4642 175.38 20.484C174.864 20.604 174.36 20.7 173.844 20.784C173.7 20.388 173.556 19.992 173.436 19.584C173.411 19.5223 173.367 19.4706 173.31 19.4369C173.253 19.4032 173.186 19.3894 173.12 19.3976C173.054 19.4058 172.993 19.4356 172.946 19.4824C172.899 19.5291 172.869 19.5902 172.86 19.656C172.86 20.088 172.74 20.532 172.68 20.964L171.264 21.108C170.928 21.12 170.76 21.54 171.06 21.696ZM200.76 89.532C202.392 89.424 202.428 87.984 201.9 87.864C201.959 87.7743 201.995 87.6721 202.007 87.5656C202.019 87.4592 202.006 87.3514 201.969 87.251C201.931 87.1505 201.871 87.0603 201.792 86.9875C201.714 86.9148 201.619 86.8615 201.516 86.832C201.607 86.7164 201.662 86.5763 201.674 86.4295C201.685 86.2827 201.653 86.1357 201.581 86.0072C201.509 85.8787 201.401 85.7744 201.27 85.7076C201.138 85.6408 200.99 85.6145 200.844 85.632C201.144 85.092 200.688 84.564 199.836 84.828C198 78.036 194.4 60.312 194.052 58.344C194.032 58.2743 193.986 58.2151 193.923 58.1792C193.86 58.1433 193.786 58.1335 193.716 58.152L192 58.5C191.933 58.5195 191.877 58.5644 191.844 58.6251C191.81 58.6857 191.801 58.7571 191.82 58.824C193.716 65.724 198 85.1159 198.072 85.3679C197.273 85.6286 196.535 86.0492 195.904 86.6042C195.273 87.1591 194.761 87.8368 194.4 88.596C194.203 88.3472 193.986 88.1144 193.752 87.9C193.579 87.8286 193.385 87.8286 193.212 87.9C187.08 91.8959 177.264 100.668 176.172 101.688C174.192 97.2839 166.404 82.3199 148.008 79.0679C147.696 78.2039 147.42 77.328 147.192 76.428C147.312 76.044 147.42 75.648 147.528 75.228C147.732 74.508 147.276 74.4 146.652 74.496C145.572 74.664 144.516 74.892 143.448 75.132C143.448 74.712 143.928 72.372 143.928 72.348C148.572 71.268 149.076 66.096 149.1 65.988C150.48 64.164 154.056 59.376 154.668 57.168C155.027 55.9543 154.974 54.6559 154.519 53.4752C154.063 52.2944 153.229 51.2976 152.148 50.64C150.573 49.7844 148.865 49.2002 147.096 48.912C145.335 48.668 143.675 47.9458 142.296 46.824C139.428 45 136.524 45.624 135.276 47.556C134.567 47.5608 133.86 47.6291 133.164 47.76C131.136 48.42 129.756 50.532 130.512 53.76C131.053 54.9851 131.832 56.0906 132.804 57.0119C132.624 58.3799 131.856 66.06 131.868 66.156C131.508 66.156 130.392 66.024 130.572 64.26C129.024 67.164 131.472 68.208 132.264 68.364C132.576 69.696 134.664 70.7639 135.756 70.9559C135.722 72.1625 135.605 73.3652 135.408 74.5559C135.312 74.5559 132.06 72.816 131.808 72.78C131.172 72.684 131.016 74.76 130.98 74.964C130.248 75.744 128.724 77.364 128.688 77.364C115.407 82.9654 101.099 85.7168 86.6879 85.4399C82.7039 85.3679 78.7559 85.0319 74.7839 84.5879C74.707 84.5992 74.6335 84.6277 74.5691 84.6713C74.5047 84.715 74.4509 84.7726 74.412 84.8399C74.3294 84.9808 74.2725 85.1352 74.244 85.296C73.7415 84.6468 73.0533 84.1659 72.2709 83.9173C71.4885 83.6686 70.649 83.664 69.8639 83.9039C68.0822 82.9819 66.0815 82.5668 64.0799 82.7039C63.3525 81.1563 62.2834 79.7938 60.9531 78.7192C59.6228 77.6446 58.066 76.8858 56.3999 76.5C64.7159 69.792 68.8199 51.3 61.3439 41.892C60.9739 41.3228 60.4612 40.8606 59.857 40.5511C59.2528 40.2416 58.578 40.0957 57.8999 40.128C57.8376 40.1461 57.7829 40.184 57.7439 40.236C57.705 40.2879 57.6839 40.351 57.6839 40.416C59.1882 52.4294 58.1955 64.624 54.7679 76.2359C52.8849 76.0817 50.9928 76.395 49.2599 77.148C46.8334 74.5716 44.7336 71.706 43.0079 68.616C39.2702 61.5671 37.1238 53.7843 36.7199 45.816C36.7199 44.928 36.6359 44.028 36.7199 43.14C36.7199 41.832 32.1479 44.856 31.6559 51.852C31.4503 55.7088 31.8635 59.5737 32.88 63.3C35.184 71.292 40.2479 76.5 46.5239 78.9C44.1239 80.652 43.1159 84.168 42.9239 85.428C40.9072 85.5112 38.9418 86.0881 37.1999 87.1079C32.9759 89.6039 34.0079 93.4559 42.8279 94.5359C43.5407 100.224 43.4113 105.986 42.4439 111.636C42.2879 112.416 41.2439 116.34 41.2439 116.436C42.1079 117.904 43.4643 119.018 45.0719 119.58C50.0159 121.728 56.4119 121.452 61.6799 120.168C64.7639 119.424 67.9919 118.44 70.3919 116.28C71.2919 115.464 73.3679 111.9 73.3079 111.108C70.6959 108.746 68.6572 105.819 67.3471 102.55C66.037 99.281 65.4901 95.7562 65.7479 92.244C67.1433 91.7059 68.4437 90.9483 69.5999 90C70.9303 90.1017 72.2621 89.8228 73.4399 89.196C72.6839 92.448 72.2399 92.724 72.7199 92.796C75.0239 93.396 79.6799 94.692 79.7039 94.692C83.7479 102.084 93.804 103.344 96.876 103.716C99.948 104.088 109.416 104.772 114.948 100.572C113.256 112.272 113.508 115.488 113.664 119.592C113.76 121.86 113.904 124.14 114.216 126.384C114.216 126.444 117.468 129.228 117.72 129.396C115.896 137.388 114.552 145.848 113.064 153.9C109.464 173.688 118.536 211.68 118.68 214.428C118.68 214.572 118.68 214.74 118.836 214.8C119.051 214.821 119.268 214.821 119.484 214.8C119.484 215.436 119.868 218.484 119.928 218.724C118.812 219.552 114.684 222.756 114.564 223.068C114.444 223.38 114.564 223.932 114.972 223.968C116.388 224.1 124.044 223.632 124.116 223.32C124.116 223.32 124.02 215.628 123.996 214.776H126.192C126.537 201.377 128.417 188.062 131.796 175.092C131.892 175.308 137.184 185.328 138.048 186.54C138.048 186.612 138.48 186.672 138.564 186.54C139.488 185.232 141.924 180.936 144.912 179.64C145.848 182.112 157.74 214.788 158.184 214.812C158.986 214.818 159.788 214.77 160.584 214.668C161.421 217.146 161.788 219.759 161.664 222.372C161.76 222.672 169.416 222.372 170.82 222.132C171.276 222.048 171.336 221.556 171.144 221.196C169.14 219.768 167.065 218.443 164.928 217.224C164.928 217.068 165.168 214.668 165.144 214.188H165.996C165.3 200.688 164.424 186.936 163.128 173.208C173.712 173.364 180.9 180.696 180.924 180.72C181.116 180.936 181.404 180.624 181.224 180.42C181.044 180.216 169.596 165.06 161.592 139.68C160.272 135.456 157.668 121.824 158.76 106.836C162.996 111.84 169.308 118.464 175.788 119.7C182.268 120.936 188.472 114.036 192.588 108.696C195.072 105.444 197.1 101.136 195.9 96.9839C195.9 96.9839 197.592 94.836 198.408 93.792C198.624 93.504 198.408 93.4199 197.628 92.4359C198.303 92.1292 198.93 91.7249 199.488 91.2359C199.74 92.1479 201.36 98.364 201.54 98.592C201.601 98.6739 201.681 98.7405 201.773 98.7863C201.864 98.8321 201.965 98.8559 202.068 98.8559C202.17 98.8559 202.271 98.8321 202.363 98.7863C202.455 98.7405 202.534 98.6739 202.596 98.592C202.896 98.124 202.596 97.3919 202.512 96.8519C202.284 96.1199 201.072 91.236 200.76 89.532ZM192.996 61.2C192.816 60.444 192.624 59.688 192.432 58.932L193.572 58.74C193.692 59.484 193.824 60.252 193.956 61.008C193.643 61.103 193.321 61.1673 192.996 61.2ZM58.2599 40.68C58.8219 40.7347 59.3622 40.9249 59.8345 41.2342C60.3069 41.5435 60.6972 41.9627 60.9719 42.456C70.4999 57.612 57.8279 74.616 55.6199 76.332H55.1639C58.8515 64.8295 59.9095 52.6459 58.2599 40.68ZM35.9999 43.68C36.9359 66.9 46.0199 74.628 48.8159 77.28C48.2154 77.5718 47.6447 77.9215 47.1119 78.3239C27.5039 70.4159 32.1359 46.26 35.9999 43.68ZM48.7919 77.88C50.3479 77.1209 52.0622 76.7431 53.7931 76.7777C55.524 76.8124 57.2218 77.2586 58.7461 78.0794C60.2704 78.9001 61.5775 80.072 62.5592 81.4979C63.541 82.9239 64.1692 84.5631 64.3919 86.28C56.8439 92.568 43.3679 89.2799 43.3319 89.2679C42.5759 85.4759 44.8919 79.584 48.7799 77.88H48.7919ZM43.5719 98.544C43.4519 97.212 43.3199 95.8919 43.1039 94.5719C43.9679 94.6679 56.6039 96.408 65.3279 92.364C65.1539 93.8549 65.1539 95.361 65.3279 96.8519C55.6799 101.844 43.5719 98.64 43.5719 98.544ZM143.76 83.0519C143.842 83.0606 143.925 83.0498 144.002 83.0207C144.079 82.9915 144.148 82.9447 144.204 82.884C145.251 81.1736 146.12 79.3601 146.796 77.4719C147.97 81.7616 150.231 85.6757 153.36 88.8359C145.577 97.0515 140.047 107.137 137.304 118.116C137.496 116.496 139.056 104.304 143.76 83.0519ZM133.74 79.8359C134.16 79.6799 135.744 79.1159 135.636 78.6359C135.433 77.5509 135.563 76.4301 136.008 75.4199C136.128 75.1439 136.008 75.084 135.768 74.928C136.178 73.5758 136.353 72.1632 136.284 70.752C136.284 70.6692 136.251 70.5898 136.193 70.5313C136.134 70.4728 136.055 70.4399 135.972 70.4399C135.307 70.396 134.663 70.1932 134.093 69.8487C133.523 69.5042 133.044 69.0279 132.696 68.46C133.149 68.446 133.591 68.3177 133.982 68.0869C134.372 67.8561 134.697 67.5304 134.928 67.14C136.992 69.876 141.312 68.688 141.516 66.084C141.553 65.6373 141.443 65.1908 141.204 64.8119C141.085 64.7061 140.94 64.6337 140.784 64.6021C140.628 64.5704 140.467 64.5808 140.316 64.632C140.41 64.654 140.497 64.698 140.571 64.7602C140.645 64.8225 140.703 64.9013 140.74 64.9902C140.777 65.0792 140.793 65.1757 140.786 65.2719C140.779 65.3681 140.75 65.4613 140.7 65.544C140.004 66.672 138.144 66.456 137.496 66C137.103 65.6795 136.667 65.4168 136.2 65.2199C135.979 65.1716 135.75 65.1735 135.53 65.2254C135.31 65.2773 135.104 65.378 134.928 65.5199C134.928 65.5199 134.928 65.304 134.844 65.244C134.764 65.0731 134.722 64.8867 134.722 64.698C134.722 64.5092 134.764 64.3228 134.844 64.152C134.976 63.756 136.356 61.188 136.488 60.792C136.488 60.624 136.332 60.54 136.212 60.636C135.478 61.8041 134.871 63.0471 134.4 64.344C134.328 64.603 134.328 64.8769 134.4 65.136C134.209 65.1366 134.019 65.1763 133.844 65.2526C133.669 65.329 133.511 65.4404 133.38 65.58C133.064 65.9207 132.64 66.1413 132.18 66.2039C132.18 65.8439 132.768 59.736 132.96 57.036C133.501 56.1185 134.352 55.4248 135.36 55.08C135.028 54.2251 134.897 53.3055 134.976 52.392C134.976 52.212 135.288 52.2 135.264 52.392C134.832 55.728 138.588 58.3919 141.6 59.8199C142.164 60.0839 142.884 60.096 143.1 60.756C143.211 61.1464 143.267 61.5502 143.268 61.956C143.268 62.424 143.628 62.892 143.94 62.292C144.252 61.692 144.3 61.416 144.516 61.008C144.948 60.216 145.608 59.6399 146.496 60.1199C148.344 61.1399 146.82 63.84 146.412 63.972C146.004 64.104 146.616 65.796 148.524 66.24C148.402 67.6075 147.868 68.9057 146.991 69.9623C146.115 71.019 144.938 71.784 143.616 72.1559C143.557 72.149 143.498 72.1652 143.451 72.201C143.404 72.2369 143.373 72.2895 143.364 72.348C143.223 73.3225 143.135 74.3039 143.1 75.2879L141.024 75.78C141.192 76.8948 140.963 78.0333 140.376 78.996C140.124 79.308 139.992 79.428 140.196 79.812C141.172 80.8949 142.214 81.9169 143.316 82.8719C141.456 90.2519 137.448 112.38 136.788 117.804C133.615 117.044 130.35 116.745 127.092 116.916C127.2 115.104 128.4 94.9919 133.74 79.8359ZM130.8 75.816C130.454 77.5289 130.241 79.2661 130.164 81.012C131.177 80.8153 132.164 80.5012 133.104 80.076C129.924 87.588 127.104 109.2 126.78 114.168C126.672 112.74 126.396 99.7679 120.78 87.7679C123.276 84.4319 130.176 76.5 130.8 75.816ZM69.9479 89.7C72.8039 87.888 71.8919 85.284 71.6879 85.248C71.2559 85.176 68.8319 85.248 68.8319 85.164C69.0372 84.9916 69.2582 84.839 69.4919 84.7079C71.7359 83.5079 73.6439 85.56 74.0399 86.076C74.0399 86.316 73.656 88.08 73.512 88.728C72.4481 89.4015 71.2065 89.7401 69.9479 89.7ZM79.3679 94.1879C77.2799 93.5759 75.1679 92.988 73.0559 92.46C73.8479 90.9 74.5919 85.092 74.6399 85.092C76.5239 85.416 78.4439 85.6559 80.3519 85.8239C79.1039 88.7759 79.3559 93.8999 79.3679 94.1399V94.1879ZM120.348 218.628C120.348 218.448 119.916 215.52 119.868 214.92H123.612V218.52L120.348 218.628ZM114.54 126.312C113.551 115.974 114.179 105.545 116.4 95.3999C116.408 95.3724 116.41 95.3435 116.407 95.315C116.404 95.2865 116.395 95.259 116.381 95.2339C116.367 95.2088 116.348 95.1867 116.326 95.1689C116.303 95.1511 116.278 95.1378 116.25 95.13C116.222 95.1221 116.194 95.1197 116.165 95.123C116.137 95.1262 116.109 95.1351 116.084 95.149C116.059 95.163 116.037 95.1817 116.019 95.2042C116.001 95.2266 115.988 95.2524 115.98 95.28C115.668 96.252 114.876 99.924 114.78 99.96C109.896 103.152 103.812 103.788 98.1119 103.332C92.9039 102.9 86.9879 101.46 82.9079 98.0999C81.6622 97.1184 80.6292 95.8935 79.8719 94.4999C79.5691 91.5943 79.8464 88.6575 80.6879 85.86C82.2239 85.992 100.08 87.336 117.516 82.116C120.993 81.0959 124.413 79.8942 127.764 78.516C125.16 81.468 122.664 84.5159 120.216 87.5879C120.185 87.6295 120.168 87.68 120.168 87.732C120.168 87.7839 120.185 87.8344 120.216 87.876C124.896 97.836 126.132 111.696 126.372 116.676C126.504 119.472 126.816 130.584 127.116 133.248C126.888 133.056 121.62 132.552 114.54 126.264V126.312ZM127.032 122.424V117.228C130.271 117.115 133.508 117.495 136.632 118.356C136.476 119.688 136.176 122.46 136.176 122.508C135.984 122.424 127.74 122.328 127.032 122.376V122.424ZM138.204 186.252C137.592 185.196 132.696 176.232 131.928 174.492C132.12 173.748 136.128 161.4 135.864 159.504C135.792 158.964 133.032 151.32 132.264 147.78C132.48 147.708 132.672 147.936 132.804 148.14C134.424 150.864 143.1 175.176 144.624 179.22C141.6 180.9 139.068 184.644 138.204 186.204V186.252ZM164.724 214.32C164.724 214.764 164.46 217.176 164.424 217.344L161.7 217.476C161.7 217.476 161.028 215.076 160.92 214.74C162.204 214.5 163.56 214.344 164.724 214.272V214.32ZM178.8 178.104C174.732 174.672 167.244 172.584 163.008 172.728C161.568 157.536 159.624 142.368 156.876 127.656L158.592 126.984C160.38 149.292 176.232 174.408 178.8 178.104ZM189.108 111.828C181.464 120.228 176.868 121.944 167.784 115.116C164.487 112.457 161.486 109.452 158.832 106.152C158.616 105.912 158.292 106.152 158.364 106.44C158.364 106.44 157.476 109.512 158.52 126.456C152.688 128.964 137.388 133.5 135.852 133.956C135.909 117.219 142.386 101.142 153.948 89.0399C153.999 88.9845 154.028 88.9116 154.028 88.8359C154.028 88.7603 153.999 88.6874 153.948 88.632C151.389 86.0672 149.405 82.9869 148.128 79.596C154.145 81.08 159.751 83.9002 164.529 87.8473C169.307 91.7944 173.135 96.767 175.728 102.396C175.758 102.434 175.797 102.464 175.84 102.485C175.884 102.505 175.932 102.516 175.98 102.516C176.028 102.516 176.076 102.505 176.12 102.485C176.163 102.464 176.202 102.434 176.232 102.396C180.432 98.448 189.66 91.152 189.756 91.092C191.372 93.2561 193.255 95.2075 195.36 96.8999C197.112 103.68 190.38 110.472 189.144 111.828H189.108ZM197.724 93.6359C197.016 94.5479 196.284 95.4479 195.588 96.3719C193.472 94.8693 191.626 93.0192 190.128 90.8999C191.244 90.084 193.584 88.4039 193.608 88.3559C193.872 88.7639 197.052 92.7479 197.76 93.6359H197.724ZM197.268 92.1719L194.604 88.932C194.7 88.776 196.212 85.7879 198.516 85.7879C199.044 85.7879 198.984 86.196 198.744 86.46C198.504 86.724 197.544 86.664 196.992 87.096C196.716 87.3 196.992 87.768 197.268 87.564C197.614 87.3619 197.998 87.2352 198.396 87.192C198.648 88.392 198.936 89.592 199.26 90.792C198.722 91.396 198.053 91.8681 197.304 92.1719H197.268ZM200.508 85.2239C200.856 85.6439 199.74 86.076 199.656 86.112C199.623 86.084 199.585 86.064 199.543 86.0536C199.501 86.0431 199.458 86.0426 199.416 86.0519C199.419 85.9069 199.377 85.7644 199.296 85.644C199.296 85.644 200.172 84.7439 200.544 85.2239H200.508ZM199.416 87.18C199.37 87.1311 199.345 87.0668 199.345 87C199.345 86.9331 199.37 86.8688 199.416 86.8199C199.54 86.6614 199.707 86.5409 199.896 86.4719C200.232 86.2679 201.012 85.572 201.252 86.16C201.492 86.748 199.956 87.528 199.452 87.18H199.416ZM199.752 87.828C199.86 87.564 200.856 87.42 201.084 87.264C201.084 87.264 201.324 87.096 201.468 87.264C201.511 87.2972 201.545 87.3413 201.567 87.3919C201.588 87.4424 201.595 87.4976 201.588 87.5519C201.42 88.3079 200.052 88.2839 199.848 88.1399C199.819 88.1276 199.794 88.1083 199.774 88.0839C199.755 88.0595 199.741 88.0306 199.735 87.9998C199.729 87.9691 199.731 87.9373 199.74 87.9074C199.749 87.8774 199.766 87.8501 199.788 87.828H199.752ZM200.172 89.1C200.064 89.1 200.064 88.98 200.076 88.86C200.136 88.44 201.276 88.5 201.504 88.248C201.732 87.996 201.888 88.2479 201.732 88.5719C201.561 88.8033 201.324 88.9775 201.052 89.0717C200.78 89.1659 200.486 89.1758 200.208 89.1H200.172Z" fill="#020617"/>
</svg>
