<svg xmlns="http://www.w3.org/2000/svg" viewBox="0 0 400 400" id="Lets-Start-4--Streamline-Milano.svg" height="400" width="400"><desc>Lets Start 4 Streamline Illustration: https://streamlinehq.com</desc><g fill="#000000"><path d="M188 72.8c-1.64 1.28 -0.9 4 0.22 4 0.48 0 0.9 -0.38 0.5 -1.28 0 -0.16 -0.28 -0.58 0.34 -1.8a0.7 0.7 0 0 0 -1.06 -0.92zm17.04 14.84c-2 2.26 -4.28 2.14 -6 -0.48a6.5 6.5 0 0 0 5.4 -2.94 0.5 0.5 0 0 0 -0.82 -0.54c-1.88 2.76 -5.38 2 -6 2.34a0.62 0.62 0 0 0 -0.3 0.82c2 4.74 6.44 4.56 8.42 1.38a0.48 0.48 0 0 0 -0.7 -0.58zm-3.04 -7.8a8.26 8.26 0 0 1 -2 2 0.54 0.54 0 0 0 0.58 0.88c1.54 -0.82 3.38 -2.56 3 -4.2 -0.44 -2 -4.82 -3.8 -6.76 -4.42a0.48 0.48 0 0 0 -0.36 0.9c2.24 1.12 3.34 1.78 4 2.16 1.54 1.04 2.2 1.56 1.54 2.68zm-9.84 -2.16a2.18 2.18 0 0 0 1.72 1.64c0.7 0 1.02 -0.88 0.18 -1.9s-2.06 -0.82 -1.9 0.26zm7.16 -4.1c0.72 0 1.04 -0.9 0.26 -1.86 -0.42 -0.5 -1.16 -0.92 -1.64 -0.54 -0.78 0.64 0.34 2.4 1.38 2.4zm190.82 247.08c-30 -17.66 -67.08 -12.42 -87 19.38 -0.12 -13.36 -16.68 -16.2 -30 -13.12 6 -9.64 6.98 -18.24 2.9 -24.92 -6.12 -10 -23.36 -14.68 -46.12 -12.5 -25.34 2.42 -54 14.84 -61.1 37.12 -14.22 -20 -58.46 -2.58 -45.72 25.16 -11.42 -6.22 -29.1 -4.82 -39.1 7.04 59.82 -158.54 57.46 -152.82 58.38 -153.72 3.1 -2.92 9.82 0.24 11.46 -5.76 0.82 -2.96 -0.44 -4.24 0.82 -6.32 1.66 -2.68 5.6 -4 6.7 -7.38 0.92 -2.82 -0.1 -6 -2.62 -12.34a38.42 38.42 0 0 0 1.78 -6.88 0.32 0.32 0 0 0 -0.2 -0.34 39.2 39.2 0 0 1 -11.64 -6.82 0.34 0.34 0 0 0 -0.42 0 30.24 30.24 0 0 0 -4.6 5.7 0.34 0.34 0 0 0 0 0.28c-4.54 1.84 -8.74 3.12 -10.14 6.32s0.46 6 -2.46 8.32a9.72 9.72 0 0 0 -4 10c1.06 5.32 6.22 6.46 5.36 9.82 -0.32 1.28 -11.3 22.68 -72.82 146 4.94 -24.18 -15.04 -48.8 -49.38 -46.22a0.5 0.5 0 0 0 -0.46 0.52 0.48 0.48 0 0 0 0.52 0.46c36.62 -1.82 54.76 25.38 47.06 49.78a0.48 0.48 0 0 0 0.9 0.38C76 315.78 132.82 203.06 133.42 200c0.86 -4.34 -4 -5.16 -5.04 -10.3a8.72 8.72 0 0 1 3.24 -9.02 5.72 5.72 0 0 0 2.14 -5.04 8.7 8.7 0 0 1 0.76 -3.6c1.46 -2.8 4.88 -3.52 10 -6a57.54 57.54 0 0 0 13.06 7.26c1.68 6.52 3.28 9.06 2.48 12s-4.66 4.5 -6.34 7.22c-1.48 2.4 -0.24 3.84 -1.06 6.54 -1.6 5 -8 2 -10.98 5.22 -1.18 1.26 -1.68 3.44 -4.14 9.16 -5.1 12 -2.56 4.48 -55.82 148.34a0.48 0.48 0 0 0 0.86 0.44c9.82 -13.9 29.42 -15.76 41.42 -8.8 0.32 0.18 0.72 0 0.72 -0.54s-4.6 -7.8 -1.72 -16.36c5.6 -16.68 35.14 -23.88 45.6 -8.52a0.5 0.5 0 0 0 0.88 -0.14c11.9 -38.98 90.96 -47.62 105.16 -25.04 4 6.36 3 14.64 -2.94 24.6a0.48 0.48 0 0 0 0.5 0.74c13.88 -2.8 30.56 -0.38 29.84 13.76a0.48 0.48 0 0 0 0.9 0.3c18.82 -30 54.54 -38.44 86.86 -20.46 0.6 0.24 0.62 -0.94 0.34 -1.1z" stroke-width="1"></path><path d="M141.68 198.28a12.18 12.18 0 0 1 0.86 -1.5c0.88 -1.54 1.3 -1.66 3.64 -2 2.9 -0.34 3.82 -2.26 4 -5.18a5.5 5.5 0 0 1 2.66 -4.84 6.4 6.4 0 0 0 1.58 -1.68 8.24 8.24 0 0 0 0.3 -6.88 7.82 7.82 0 0 0 -3.46 -3.88 11.46 11.46 0 0 0 -4.98 -1.22A9.66 9.66 0 0 0 140 173.56c-2 1.8 -2 3.66 -2.2 6.52a8.48 8.48 0 0 1 -1.4 4.4c-1.5 3.08 -0.82 5.26 0.92 6.66s2.2 1.8 1.46 3.52L63.36 356c-0.28 0.58 0.34 1.14 0.78 0.42 0.26 -0.42 20.14 -42.96 22.42 -47.8 56.62 -121.2 53.54 -114 53.48 -115.34s-1.12 -2.12 -2 -2.94a3.66 3.66 0 0 1 -1.14 -4 17.34 17.34 0 0 1 1.2 -2.96c1.86 -4.14 -0.96 -7.82 5.3 -10.64a9.2 9.2 0 0 1 7.54 0.42 6.58 6.58 0 0 1 2.92 3.42 7.48 7.48 0 0 1 -0.28 6 6.82 6.82 0 0 1 -1.3 1.52 7.72 7.72 0 0 0 -2.92 5.48c-0.38 2.38 -0.86 4 -3.26 4.26s-3.26 0.58 -4.3 2.4c-1.8 2.88 4.2 -10.9 -70.98 163.56a0.48 0.48 0 1 0 0.88 0.38c0.56 -1.28 69.72 -161.42 69.98 -161.9zM44.4 157.22c0.22 0 32 -0.16 38.2 -0.24 7.76 0 18.14 -1 18.6 -8.98 0.2 -4.46 -2.2 -7.3 -6.46 -8.68a29.28 29.28 0 0 0 -12.3 -0.5c2 -15.54 -26.5 -19.5 -31.02 -6.52a24.92 24.92 0 0 0 -16.16 2.58c-11.92 6.78 -6.72 21.88 9.14 22.34zm6.9 -24c0.48 0.12 0.84 -0.12 1.06 -0.68a8.6 8.6 0 0 1 0.82 -1.76c5.18 -8.42 26.34 -5.68 28.22 4.88a10.28 10.28 0 0 1 0 3.22 0.78 0.78 0 0 0 0.8 0.92c0.38 0 0.3 0 1.54 -0.18a29.82 29.82 0 0 1 10.56 0.88A6.94 6.94 0 0 1 99.88 148c-0.24 4.32 -4.24 6.86 -11.9 7.54 -3.72 0.36 -43.32 0.4 -43.54 0.4 -14.3 -0.54 -19.2 -13.36 -8.48 -19.8a23.26 23.26 0 0 1 15.34 -2.86zM296 90.34a21.56 21.56 0 0 0 3.84 0.34l46.3 0.58c4.76 -0.1 9.66 -0.22 13.86 -2.82a6.98 6.98 0 0 0 0.5 -11.24c-4 -3.46 -12 -5.04 -17.8 -4.64a6.62 6.62 0 0 0 0.6 -7.86 12.84 12.84 0 0 0 -6.42 -4.7c-5.56 -2 -13.66 -3.22 -19.7 -1.1a12 12 0 0 0 -7.82 8c-3.36 -3.28 -11.14 -4.62 -17.46 -1.3a13.1 13.1 0 0 0 -6.24 7.02 15.78 15.78 0 0 0 -0.48 9.36c1.32 4.42 5.14 7.36 10.82 8.36zM308.92 68a0.78 0.78 0 0 0 1.34 -0.4 10.82 10.82 0 0 1 7.34 -7.38c8 -2.74 26.88 0.6 25.36 9.14a5.54 5.54 0 0 1 -2 3.48 0.48 0.48 0 0 0 0.34 0.88c5.38 -0.42 15.1 1.3 18.74 5.06a5.52 5.52 0 0 1 1.64 3.66 8.32 8.32 0 0 1 0 0.98 9.46 9.46 0 0 1 -0.28 1.24 5.48 5.48 0 0 1 -1.58 2.28c-3.68 2.86 -9.02 2.98 -13.74 3.08 -0.2 0 -47.56 -0.52 -47.7 -0.54 -7.44 -0.54 -12.88 -4.5 -12.28 -12a12.14 12.14 0 0 1 6.46 -10.54c4.76 -2.66 12.66 -2.84 16.36 1.06zm-106.66 58.82 20.38 -4.48a71.56 71.56 0 0 0 -3.84 -8l-18.3 4.32a68.1 68.1 0 0 1 1.76 8.16z" stroke-width="1"></path><path d="M243.58 174a0.58 0.58 0 0 0 0.44 -0.48c0.54 -23.26 -3.28 -36.74 -10 -52a4.9 4.9 0 0 0 0.54 -1.54c5.36 -10.7 7.82 -23.32 9.88 -35.32s2.7 -26.24 0 -38.32A0.52 0.52 0 0 0 244 46l-1.36 -0.32v-0.32a2.46 2.46 0 0 0 1.52 -2 2.9 2.9 0 0 0 1.52 -3.66 1.84 1.84 0 0 0 -1.08 -0.9 4.7 4.7 0 0 0 -4.26 -0.66 1.7 1.7 0 0 0 -2 1.54c-1.14 0 -1.54 0.86 -1.46 2a4.94 4.94 0 0 0 1.16 2.64h-0.38a0.48 0.48 0 0 0 -0.48 0.34 116.98 116.98 0 0 1 -25.24 45.46A7.66 7.66 0 0 0 208.4 94c-1.12 1.26 -2 2.38 -2.82 3.4l-1.12 -0.96a10.62 10.62 0 0 0 5.28 -10.44A24.38 24.38 0 0 0 194 65.82a6.54 6.54 0 0 0 -0.92 -6.52C189.78 54 184.66 54 183.3 56.24a4.34 4.34 0 0 0 -0.28 3.06c-22 1.32 -24.24 22 -12.44 20.56 -9.46 10.28 -2.82 20.26 4.94 14.46 0.62 7.36 8 7.82 10 2.5a4.34 4.34 0 0 0 5.26 0.86c0.38 1.52 0.66 2.5 0.94 3.42a36.5 36.5 0 0 0 -6.22 0.24 7.58 7.58 0 0 0 -6.12 1.16 56 56 0 0 0 -19.8 9.66 70.8 70.8 0 0 0 -4 -29.32c-0.18 -0.42 -0.2 -0.38 -0.9 -0.32a4.96 4.96 0 0 0 0.44 -1.74 2 2 0 0 0 0.38 -3.28 2.1 2.1 0 0 0 -2.7 -2 2.38 2.38 0 0 0 -2.64 0c-1.4 -0.26 -2.44 1.1 -2.66 2.5a9.6 9.6 0 0 0 1.32 5.42c-12.68 21.6 -16 36.62 -10 46 3.08 4.84 8.26 7.56 15.42 8 -2.44 3.6 -8.66 13.66 -6 18.44a14 14 0 0 0 6 5.1c3.84 1.54 6.22 -2.28 8.56 -6a88.16 88.16 0 0 0 6 -11.8c0.54 -1.3 1.42 -0.44 1.02 0.6 -1.6 4.18 -6.92 16.88 -11.14 18.5a0.58 0.58 0 0 0 0 1.04c3.22 1.62 6 2.76 7.26 3.26a22.14 22.14 0 0 0 -2 4.98 0.26 0.26 0 0 0 0.1 0.26 24.58 24.58 0 0 0 2.98 2.82c-3.46 6.44 0 34 -27.48 85.5a3.72 3.72 0 0 0 -1.86 0.98c-1.2 1.04 -3.74 5.14 -3.42 5.76a18.68 18.68 0 0 0 2.36 3.52 12.24 12.24 0 0 1 -1.88 2.12 8.8 8.8 0 0 0 -5.42 4 0.28 0.28 0 0 0 0 0.12c-1.04 4.92 -1.04 14.56 1.32 19.1 1.7 3.34 5.14 3.54 7.32 0 2.84 -4.66 3.62 -14.76 3.3 -16.34a16.62 16.62 0 0 1 2 -3.46 16.12 16.12 0 0 0 3.76 1.52c2 0 6.94 -4.8 6.92 -7.3 34.18 -26.62 46.72 -53.2 50.84 -62 0.58 -1.2 0.98 -2 1.28 -2.58 5.78 -10 20.34 2.4 18.52 16.54 -1.06 8.18 -8 17.04 -9.58 18.82 -1.28 -0.88 -5.44 3.02 -6.4 4.22a0.54 0.54 0 0 0 0 0.38 13.36 13.36 0 0 0 0.8 3.06 23.22 23.22 0 0 1 -2 1.48c-2.32 -0.64 -6.18 1.84 -6.36 2.14a25.1 25.1 0 0 0 -2.12 4.66c-5.12 15.18 1.72 21.8 8.26 10.98a31.7 31.7 0 0 0 3.76 -9.4 15.88 15.88 0 0 1 2.92 -2.52 23.8 23.8 0 0 0 4.96 4.8 0.46 0.46 0 0 0 0.28 0 14.26 14.26 0 0 0 5.16 -3.54 2 2 0 0 0 0.74 -1.88c15.36 -8.24 32 -18.44 36 -35s-6.36 -35.28 -17.42 -46.3zm1 -134.38c1.34 1.08 -0.86 3.8 -1.2 2.76 0.94 -0.22 1.32 -1.68 1.2 -2.68zm-1.78 -1.1a1.08 1.08 0 0 1 1.08 0.92 2.96 2.96 0 0 1 -0.34 2.14c-0.24 0.26 -0.58 0.48 -0.78 0.14a3.82 3.82 0 0 0 0.04 -3.12zm-1.22 -0.2c0.28 0 0.78 0.26 0.92 1.2s0 1.8 -0.38 2.14c-0.14 0.1 -0.24 0 -0.34 0a2.76 2.76 0 0 0 -0.98 -3.04 0.88 0.88 0 0 1 0.78 -0.22zm-2.34 0.68c1 -0.72 2 0.56 2 1.82 0 0.52 -0.2 1.1 -0.66 0.98 0.7 -0.44 0.2 -1.16 -0.64 -1.56a1.42 1.42 0 0 1 -0.14 -0.66c0 -0.32 -0.36 -0.26 -0.4 0a1.4 1.4 0 0 0 0 0.5 3.28 3.28 0 0 0 -0.62 -0.14 0.84 0.84 0 0 1 0.46 -0.86zm-1.72 2.58c0 -0.64 0 -0.84 0.34 -1 0.8 -0.52 2.58 0.42 2.56 0.68s-0.58 0.24 -1.22 0.26 -0.5 0.4 -0.2 0.58 0.84 0.36 1 1.06a0.22 0.22 0 0 0 0.42 0 1.58 1.58 0 0 0 -0.48 -1.08h0.2a0.9 0.9 0 0 0 1.38 0 0.66 0.66 0 0 0 0.88 0 0.74 0.74 0 0 0 0.48 0.34 0.76 0.76 0 0 0 0.36 0.62 2 2 0 0 1 -1.28 1.62s-0.14 0.12 -0.16 0.26 0 0.46 0 0.46l-3.18 -0.8v-0.32a0.28 0.28 0 0 0 0 -0.28 4.42 4.42 0 0 1 -1.1 -2.32zm0.36 3.82 5.48 1.36c3.84 21.02 -1.42 50.76 -8.96 70.52 -1.68 -7.74 -14.46 -23.58 -21.08 -27.1a106.3 106.3 0 0 0 24.56 -44.7zM191.54 95.02a3.34 3.34 0 0 0 3.5 -4.26 0.5 0.5 0 0 0 -0.96 0.24c0.34 1.7 -1.06 3.12 -3.18 2.68 -2.58 -0.58 -3.24 -3.2 -1.88 -4.42a3.02 3.02 0 0 1 2.72 -0.52 0.52 0.52 0 0 0 0.64 -0.56c-0.56 -5.44 -4.76 -7.86 -8.82 -6.78a5.86 5.86 0 0 0 -1.56 -6.64c5.28 -2 8 -4.84 8.14 -8.62a16 16 0 0 1 4.94 1.34c-1.12 0 -2 1.28 -1.52 1.88a0.38 0.38 0 0 0 0.38 0 4.9 4.9 0 0 0 1.9 -1.24 0.5 0.5 0 0 0 0 -0.38 23.46 23.46 0 0 1 12.52 18.26c0.46 6.84 -3.36 11.1 -11.72 10.72a0.5 0.5 0 0 0 0 1 14.68 14.68 0 0 0 6.68 -0.74c0.84 0.96 2.26 2.28 3.7 3.64 3.32 5.32 0.92 9.18 -2.42 9.2a10.78 10.78 0 0 1 -6.7 -3.14c-1.34 -1.48 -3.82 -4.14 -4.64 -5.04 -0.42 -1.64 -1.06 -4.42 -1.72 -6.62zm-43.18 -16.76a2.12 2.12 0 0 1 1.18 -1.78 1.76 1.76 0 0 0 0 1.72 0.22 0.22 0 0 0 0.46 -0.2c-0.46 -1.26 0.92 -2.2 2 -2a1.84 1.84 0 0 0 -0.76 1.76 0.24 0.24 0 0 0 0.48 0 1.54 1.54 0 0 1 2.86 -0.76 1.52 1.52 0 0 0 -2 0.76 0.24 0.24 0 0 0 0.42 0.26c1.28 -2 3.38 1.2 2 2a2.66 2.66 0 0 0 -0.92 -1.58c-0.2 -0.16 -0.46 0.12 -0.3 0.32 0.54 0.66 0.98 1.14 0 3.9 -0.94 0 -2.78 0.22 -4.2 0.44a8.72 8.72 0 0 1 -1.22 -4.84zm-8.24 50.38c-7.08 -11.32 2 -30.8 9.52 -44.56 1.5 0 3.7 -0.34 5.08 -0.54a91.56 91.56 0 0 1 3.54 32.24c0 0.66 1.04 0.56 1.12 0s0.12 -1.48 0.16 -2.24a67 67 0 0 1 20 -9.62c2.12 6.24 -1.22 21.46 -5.54 29.88 -6.32 1.78 -26.52 6.6 -33.88 -5.16zm24.7 43a36 36 0 0 1 14.2 -16.62 0.28 0.28 0 0 0 0.12 -0.36c-0.48 -1.2 -3.2 -3.1 -2 -17.36a0.3 0.3 0 0 0 -0.46 -0.26 2.78 2.78 0 0 1 -2.62 0.58 1.74 1.74 0 0 1 -1.08 -1.16c-0.18 -0.86 0.28 -0.94 1.04 -0.52 1.1 0.58 1.62 0.2 3.2 -0.72C182 127.72 190 111.5 186.12 102.46a41.14 41.14 0 0 1 5.88 -0.36 38.54 38.54 0 0 1 8 14.78l17.7 -4.52a58.74 58.74 0 0 0 -9.3 -12s-1.54 -1.72 -2 -2.18a35.58 35.58 0 0 1 2.62 -3.12c7.3 3.12 18.22 15.24 24 26.6 6.72 17.14 9.6 28 10 51.34a23.64 23.64 0 0 1 -14.74 -3.3 105.84 105.84 0 0 0 0.74 -11.34l-28.26 1.26a76.36 76.36 0 0 1 -9.36 22.88c-8.06 -1.28 -18.26 -3.76 -26.58 -10.86zm-29.54 124.82c-0.66 0.5 -0.94 0.36 -1.18 0 -1.68 -2.92 -1.8 -12.96 -2 -16.28a0.44 0.44 0 0 0 -0.86 0c-0.22 2.88 -0.28 13.28 1.78 16.76 -2.3 -0.96 -3.08 -6.74 -3.3 -9.2a50.28 50.28 0 0 1 0.16 -10.5A15.82 15.82 0 0 1 134 274a6.56 6.56 0 0 0 6 5.8c-0.42 4.2 -1.44 14.2 -4.72 16.66zm11.5 -20a26.4 26.4 0 0 1 -11.74 -9.66 31.58 31.58 0 0 1 3.58 -5 0.4 0.4 0 0 0 0 0.16c4.56 7.16 9.22 8.58 13.58 9a20.54 20.54 0 0 1 -5.42 5.56zm54 -4.52c-1.16 -1.24 -0.58 -5.66 -0.3 -7.34a62.48 62.48 0 0 1 2 -8.14 0.44 0.44 0 0 0 -0.84 -0.3 34.66 34.66 0 0 0 -2.44 8.24 17.14 17.14 0 0 0 0 6.92c-3.1 -2.92 0 -14.3 2.14 -18.38a15.08 15.08 0 0 1 5.08 -1.72c-0.54 3.8 0.38 6 3.04 7.38 -0.64 3.1 -5.24 13.4 -8.72 13.4zm18 -12.1a34.26 34.26 0 0 1 -9.44 -14.12 39.14 39.14 0 0 1 4.92 -3.76 27.14 27.14 0 0 0 9.02 14 0.56 0.56 0 0 0 0.34 0.1 16.26 16.26 0 0 1 -4.92 3.94zm40 -39.42c-3.76 15.76 -19.44 25.68 -35.22 34.48a30.64 30.64 0 0 1 -8.32 -12.9c15.6 -16 12 -33.6 1.78 -39.68 -4.82 -2.82 -9.62 -2.22 -12.44 2.62 -3.78 6.54 -6.18 16.3 -26.92 40.5A179.16 179.16 0 0 1 152.22 270c-4.48 -0.44 -8.58 -3.16 -12.54 -8.28 28.76 -49.16 25.44 -80 28 -86.16 8.86 6.66 20.58 7.86 24 8 0.22 0 0.28 -0.16 0.46 -0.4a56 56 0 0 0 7.06 -13.56 193.42 193.42 0 0 0 28.14 -1.18c-0.18 1.8 -0.28 1.88 0 2.1a20.54 20.54 0 0 0 15.08 3.82c10.56 11.04 20.16 30.14 16.34 46.14z" stroke-width="1"></path><path d="M202.64 148.68c-0.34 3.06 -0.84 6.14 -1.48 9.14l27.86 -1.62c0 -3.34 -0.24 -6.66 -0.58 -9.88zm-0.16 -20.34c0.34 2.68 0.56 5.46 0.64 8.26L226 132.96a85.82 85.82 0 0 0 -2.68 -8.66zm0.68 9.66c0 3 0 6 -0.38 9.08l25.44 -2.74a92.22 92.22 0 0 0 -1.7 -9.54z" stroke-width="1"></path></g></svg>