<svg width="240" height="241" viewBox="0 0 240 241" fill="none" xmlns="http://www.w3.org/2000/svg">
<path d="M171.864 87.9333C171.788 87.8668 171.695 87.8225 171.595 87.8053C171.495 87.7881 171.393 87.7987 171.298 87.8359C171.204 87.873 171.122 87.9354 171.061 88.016C171 88.0967 170.962 88.1926 170.952 88.2933C170.952 88.7253 171.336 88.8093 171.576 89.6733C171.816 90.5373 171.324 91.0893 171.912 91.2813C172.968 91.5933 172.596 88.5933 171.864 87.9333ZM167.544 85.1613C167.088 84.4653 164.772 83.9613 164.892 84.9333C164.904 85.0351 164.954 85.1287 165.032 85.1954C165.109 85.2621 165.21 85.297 165.312 85.2933C166.416 85.2093 166.68 85.9533 167.148 85.9533C167.237 85.9466 167.323 85.9169 167.397 85.8672C167.471 85.8174 167.531 85.7493 167.57 85.6696C167.61 85.5898 167.629 85.501 167.624 85.412C167.62 85.3229 167.592 85.2365 167.544 85.1613ZM164.196 96.7413C163.404 96.2133 162.624 95.5413 161.796 94.9773C161.71 94.9158 161.607 94.8827 161.502 94.8827C161.397 94.8827 161.294 94.9158 161.208 94.9773C161.004 95.2053 161.208 95.5893 161.796 96.1773C162.384 96.7653 163.512 97.7613 164.196 97.7613C164.312 97.7619 164.425 97.7193 164.511 97.6416C164.598 97.564 164.652 97.4569 164.664 97.3413C164.664 97.1733 164.508 96.9453 164.196 96.7413ZM165.78 88.3293C165.648 88.4373 162.468 91.1373 162.54 91.9293C162.54 92.0613 162.54 92.2173 163.476 93.2853C163.86 93.7173 164.52 93.0693 164.136 92.6253C163.92 92.3853 163.716 92.1333 163.512 91.8813L166.332 88.9413C166.413 88.8681 166.462 88.7657 166.468 88.6565C166.473 88.5474 166.435 88.4405 166.362 88.3593C166.289 88.2782 166.186 88.2294 166.077 88.2238C165.968 88.2182 165.861 88.2561 165.78 88.3293ZM168.564 90.4293C168.509 90.3911 168.445 90.3706 168.378 90.3706C168.311 90.3706 168.246 90.3911 168.192 90.4293C167.936 90.5548 167.724 90.7551 167.585 91.0037C167.446 91.2524 167.385 91.5375 167.412 91.8213C167.453 91.946 167.537 92.0519 167.649 92.12C167.762 92.1882 167.894 92.2142 168.024 92.1933C168.267 92.176 168.502 92.1018 168.71 91.9767C168.918 91.8516 169.095 91.6791 169.224 91.4733C169.268 91.4213 169.292 91.3554 169.292 91.2873C169.292 91.2192 169.268 91.1533 169.224 91.1013L168.564 90.4293ZM164.064 88.3173C164.351 88.301 164.625 88.1915 164.844 88.0053C165.06 87.8493 165.192 87.8253 165.204 87.6333C165.216 87.4413 164.952 87.3693 164.556 86.7213C164.534 86.6862 164.505 86.656 164.471 86.6325C164.437 86.6091 164.399 86.5929 164.358 86.585C164.318 86.5771 164.276 86.5777 164.236 86.5867C164.195 86.5957 164.157 86.6129 164.124 86.6373C163.2 87.3693 163.368 88.3173 164.064 88.3173Z" fill="#020617"/>
<path fill-rule="evenodd" clip-rule="evenodd" d="M232.944 139.101C231.744 131.145 228.624 122.805 219.948 120.705C212.004 118.785 202.764 115.905 194.292 113.793C193.884 112.749 189.936 103.821 188.568 102.873C189.672 99.4893 191.412 92.7573 189.276 89.6013C188.88 89.0253 188.076 88.1853 187.344 88.7013C186.444 85.7733 182.808 81.3213 183.744 78.3333C184.068 77.2893 184.86 76.2933 182.604 77.0373C181.444 77.4524 180.459 78.2474 179.808 79.2933C177.828 77.0733 177.288 73.4013 179.52 71.8053C180.072 71.4093 180.012 71.1333 179.676 70.9773C176.796 69.6693 172.368 71.4333 171.804 74.6373C171.194 73.9024 170.758 73.0397 170.528 72.1132C170.297 71.1867 170.278 70.2202 170.472 69.2853C170.556 68.6373 169.92 68.8053 169.272 69.6453C168.193 71.2295 167.537 73.0635 167.367 74.9728C167.196 76.8822 167.518 78.8033 168.3 80.5533C166.422 81.8986 164.616 83.3405 162.888 84.8733C160.644 74.5053 157.14 64.0893 146.448 59.9733C139.752 57.3933 132.312 57.7533 125.256 58.1733C102.096 59.5773 78.96 60.8253 55.752 62.4693C55.682 62.4693 55.6148 62.4971 55.5653 62.5466C55.5158 62.5962 55.488 62.6633 55.488 62.7333C55.488 62.8033 55.5158 62.8705 55.5653 62.92C55.6148 62.9695 55.682 62.9973 55.752 62.9973C77.52 61.9533 99.288 60.5133 121.032 59.2173C131.328 58.6053 144.108 57.0933 152.376 64.4613C158.376 69.8013 160.608 77.9253 162.204 85.4973C159.024 88.3893 156.072 92.0013 155.892 96.4773C155.794 98.2637 156.251 100.037 157.2 101.553C156.509 102.123 155.751 102.606 154.944 102.993C148.404 98.3853 138.624 94.0053 130.38 93.3933C130.8 92.7333 133.68 87.9333 134.208 87.0933H135.828C137.028 87.9933 137.352 88.2213 138.228 88.2213C139.104 88.2213 139.776 87.6213 140.628 86.6013C141 87.8013 139.836 88.5093 140.352 89.2413C141.144 90.3573 143.376 88.7373 143.424 86.2533C144.336 86.2533 144.48 83.4693 144.204 82.5453C144.324 82.4493 144.408 82.3293 144.528 82.2333C146.928 83.8773 147.24 82.1253 146.16 80.5893C147.648 78.9893 149.076 77.3493 150.444 75.6693C153.096 72.4173 151.98 71.7213 147.72 67.7973C146.52 66.6693 144.984 65.7813 143.664 67.0533C141.264 69.2733 139.236 71.5533 137.1 73.9653C133.5 74.1453 130.188 76.7013 129.456 78.5733C115.68 81.1533 105.9 91.0773 102.876 94.6533C100.486 97.3135 98.5669 100.361 97.2 103.665C93.2557 100.504 88.9298 97.8515 84.324 95.7693C79.68 93.6813 74.244 92.3373 69.312 94.2933C65.028 95.9973 62.304 99.9453 60.168 103.893C55.1626 113.042 50.8389 122.548 47.232 132.333C55.4013 129.957 63.709 128.086 72.108 126.729C72.912 125.433 74.832 121.629 75.648 120.333C76.4758 122.191 77.4135 123.999 78.456 125.745C83.364 125.025 87.48 124.545 92.268 124.293C95.268 124.113 94.308 126.525 92.412 126.693C69.24 129.093 34.02 135.729 15.42 147.357C13.3532 144.055 10.1466 141.625 6.40798 140.529C5.69998 140.349 6.13198 142.929 6.14398 143.157C6.76244 149.814 8.53703 156.311 11.388 162.357C11.688 162.981 17.304 161.649 17.868 161.277C17.868 161.637 18.744 161.433 19.068 161.421C33.18 160.293 68.592 156.009 75.912 157.413C105.408 163.173 134.484 166.089 161.28 148.569C167.412 154.917 184.512 168.693 193.428 159.945C195.132 160.797 201.156 163.665 201.972 164.025C160.628 168.961 119.16 172.437 77.568 174.453C65.748 175.041 53.928 175.653 42.096 175.917C41.772 175.917 41.796 176.469 42.096 176.469C101.412 175.437 187.2 167.169 203.328 164.601C203.676 170.241 204.204 175.869 204.852 181.473C204.852 181.797 205.356 181.701 205.332 181.389C204.252 166.869 202.716 153.273 204.576 138.681C205.536 131.217 208.836 121.041 218.064 121.245C226.284 121.425 230.412 129.813 231.768 136.845C234.492 151.005 232.968 168.045 231.624 182.445C231.624 182.525 231.656 182.601 231.712 182.657C231.768 182.714 231.844 182.745 231.924 182.745C232.004 182.745 232.08 182.714 232.136 182.657C232.192 182.601 232.224 182.525 232.224 182.445C233.568 168.093 235.056 153.549 232.944 139.101ZM11.88 162.009C9.03638 155.447 7.29304 148.462 6.71998 141.333C13.308 143.949 14.628 148.161 15.312 148.617C14.724 152.313 15.312 157.545 17.4 160.761C15.6381 161.469 13.7747 161.89 11.88 162.009ZM180.36 103.017C182.317 101.911 183.885 100.229 184.851 98.2002C185.817 96.1711 186.135 93.8934 185.76 91.6773C185.652 91.0053 186.636 90.4773 187.164 92.0853C187.751 93.9362 187.858 95.9057 187.476 97.8093C187.356 98.7093 187.716 98.7093 187.968 97.8093C188.435 95.711 188.302 93.5235 187.584 91.4973C187.584 90.9573 187.464 90.4293 187.488 89.8773C187.488 87.4773 191.184 90.9333 188.856 99.3933C188.484 100.665 188.1 101.937 187.728 103.197C186.833 104.149 185.75 104.903 184.548 105.414C183.345 105.924 182.05 106.178 180.744 106.161C180.504 105.681 179.22 104.325 180.36 103.017ZM180 106.305C179.924 106.29 179.845 106.304 179.778 106.344C179.712 106.384 179.662 106.447 179.64 106.521C179.316 107.721 179.052 108.849 178.824 110.025C175.92 109.341 173.004 108.597 170.064 108.093C170.817 107.086 171.648 106.139 172.548 105.261C174.898 105.056 177.2 104.472 179.364 103.533C179.258 104.014 179.261 104.511 179.371 104.991C179.481 105.47 179.695 105.919 180 106.305ZM178.692 110.733C178.104 113.853 177.6 116.973 177.24 120.129C174.744 117.585 170.364 113.949 166.872 112.857C167.772 111.429 168.672 109.977 169.692 108.609C172.488 109.365 175.812 110.037 178.692 110.733ZM154.992 103.533C155.916 103.293 158.364 101.973 157.956 101.361C157.149 100.011 156.698 98.4791 156.643 96.9075C156.588 95.3358 156.933 93.7759 157.644 92.3733C159.684 87.8733 164.712 84.1413 168.444 80.9973C169.716 83.3973 175.56 89.3253 178.044 90.9093C175.932 92.8293 174.624 97.2213 177.204 97.3653C178.104 97.3653 179.316 96.8373 179.604 98.1093C180 100.017 176.4 101.577 175.08 102.333C171.144 104.733 168.6 108.753 166.176 112.581C162.336 113.709 153.204 110.637 154.992 103.533ZM143.652 72.1773C144.852 70.7013 146.556 70.6773 146.052 72.4653C145.284 75.5613 142.092 74.1333 143.652 72.1533V72.1773ZM129.9 78.8493C131.505 76.6802 133.864 75.1905 136.512 74.6733C136.004 75.1126 135.531 75.59 135.096 76.1013L134.592 76.1613C134.528 76.1613 134.467 76.1866 134.422 76.2316C134.377 76.2766 134.352 76.3377 134.352 76.4013C134.352 76.465 134.377 76.526 134.422 76.571C134.467 76.616 134.528 76.6413 134.592 76.6413C138.192 76.5693 141.72 77.0373 144.42 79.6653C145.023 80.1743 145.549 80.7686 145.98 81.4293C146.388 82.2693 146.124 82.6293 145.296 82.0413C143.88 81.1173 142.008 79.7973 140.604 79.6413C140.352 79.6413 140.268 80.0493 140.52 80.0973C141.099 80.2094 141.645 80.4504 142.117 80.8024C142.59 81.1544 142.977 81.6084 143.251 82.1307C143.524 82.6529 143.676 83.23 143.696 83.8191C143.715 84.4081 143.602 84.9941 143.364 85.5333C143.258 84.922 143.004 84.3461 142.623 83.8563C142.242 83.3666 141.746 82.9782 141.18 82.7253C140.892 82.5453 140.568 82.9413 140.856 83.1333C141.424 83.3743 141.909 83.7745 142.254 84.2856C142.599 84.7967 142.789 85.3968 142.8 86.0133C142.884 88.7733 140.892 89.2533 140.856 88.8453C140.82 88.4373 141.54 87.9093 141.312 86.7213C140.964 84.8133 136.848 87.1653 134.028 86.2653C131.208 85.3653 129.348 81.7413 129.9 78.8253V78.8493ZM97.668 104.229C98.9032 101.107 100.674 98.2234 102.9 95.7093C109.684 87.5012 118.948 81.7155 129.3 79.2213C129.075 80.7834 129.364 82.3763 130.124 83.7596C130.884 85.1428 132.073 86.2414 133.512 86.8893C131.208 90.4893 129.276 93.7173 127.284 97.4133C123.42 104.613 120.084 114.333 111.996 117.813C102.6 121.917 94.44 113.637 97.668 104.229ZM192.912 159.429C184.344 167.901 167.364 153.873 161.496 147.897C158.742 145.054 156.248 141.97 154.044 138.681C154.028 138.653 154.007 138.628 153.981 138.608C153.955 138.589 153.926 138.574 153.895 138.566C153.863 138.558 153.831 138.556 153.799 138.561C153.767 138.566 153.736 138.577 153.708 138.594C153.681 138.611 153.657 138.634 153.638 138.66C153.62 138.687 153.607 138.717 153.6 138.748C153.593 138.78 153.593 138.813 153.599 138.845C153.605 138.876 153.618 138.907 153.636 138.933C155.699 142.216 158.087 145.284 160.764 148.089C149.64 155.289 136.62 159.285 123.468 160.677C124.884 149.709 118.008 128.529 112.296 118.473C117.348 116.301 120.624 111.717 123.168 107.025C127.485 105.502 132.044 104.782 136.62 104.901C136.836 104.901 136.848 104.565 136.62 104.517C133.404 103.893 126.6 105.057 123.504 106.365C125.568 102.477 126.336 100.365 130.056 93.9573C139.008 95.5653 146.916 98.1693 154.464 103.557C152.352 110.373 161.844 115.113 166.536 113.289C170.477 115.307 174.057 117.963 177.132 121.149C176.38 128.15 176.3 135.206 176.892 142.221C176.892 142.533 177.408 142.461 177.384 142.149C176.976 135.139 177.144 128.108 177.888 121.125C178.44 116.109 179.376 111.657 180.288 106.725C182.928 107.409 186.504 105.525 188.316 103.641C190.068 105.081 192.828 112.281 193.62 114.357C197.82 125.133 201.756 150.621 192.912 159.405V159.429ZM204.42 134.841C202.608 143.685 202.752 154.929 203.28 163.965C200.164 162.355 196.959 160.925 193.68 159.681C202.416 150.345 198.48 125.217 194.532 114.621L216.624 120.621C209.496 121.305 205.704 128.421 204.42 134.817V134.841Z" fill="#020617"/>
</svg>
