<svg xmlns="http://www.w3.org/2000/svg" fill="none" viewBox="0 0 400 400" id="Otp-One-Time-Password--Streamline-Milano.svg" height="400" width="400"><desc>Otp One Time Password Streamline Illustration: https://streamlinehq.com</desc><g id="otp-one-time-password--crime-security-otp-one-time-password"><g id="computer"><path id="vector" fill="#000000" d="M379.568 99.592c-1.602 -0.954 -5.474 -1.876 -11.054 -2.758 -0.06 0.61 -0.122 1.228 -0.188 1.85 12.112 1.56 12.712 3.622 13.562 11.208 1.04 9.284 -5.434 89.844 -15.02 134.468 -3.998 18.61 -2.11 17.648 -22.534 17.602 -37.64 -2.328 -128.568 -11.642 -166.106 -16.31 -10.864 -1.352 -13.664 -4.58 -13.94 -8.942C163.234 220.04 176.61 105.2 187.8 92.8c1.42 -1.574 4.078 -2.144 6.142 -2.248 1.818 -0.09 3.918 -0.16 6.272 -0.208 0.14 -0.724 0.28 -1.432 0.418 -2.128 -5.032 0.098 -8.554 0.296 -10.112 0.608 -5.04 1.002 -7.458 6.406 -9.038 11.886 -2.92 10.122 -6.446 28.186 -7.42 33.096 -5.956 30.018 -11.178 82.976 -11.944 100.226 -0.414 9.316 3.726 8.484 3.464 9.558 -0.038 0.154 -0.166 0.268 -0.324 0.284 -1.918 0.192 -5.026 -0.854 -21.992 4.732 -0.174 0.058 -0.35 0.116 -0.526 0.174 0.072 0.88 0.144 1.768 0.218 2.66 9.99 -3.39 19.098 -5.916 23.2 -5.712 15.144 0.746 -0.316 2.898 142.874 16.388 39.864 3.754 55.99 0.866 51.104 6.642 -5.464 6.458 -8.444 8.36 -11.27 10.424 -14.748 10.774 -22.996 16.704 -39.398 16.842 -23.21 0.194 -115.362 -13.084 -164.55 -20.386 0.368 4.544 0.746 9.226 1.136 14.05l148.538 20.598c13.734 1.886 22.384 2.682 35.76 -5.468 5.772 -3.516 21.04 -14.882 27.932 -21.452 3.832 -3.654 5.156 -5.948 5.314 -11.344 0.05 -1.698 0.028 -3.388 -0.14 -4.648 -0.178 -1.332 -0.258 -1.784 -1.448 -2.626 -1.17 -0.828 -1.686 -0.716 -1.656 -1.002 0.008 -0.08 0.07 -0.146 0.15 -0.158 7.916 -1.284 9.846 -5.61 12.29 -13.376 6.354 -20.2 17.106 -112.674 17.204 -128.5 0.078 -12.692 -2.748 -17.548 -10.43 -22.12Z" stroke-width="1"></path><g id="group"><path id="vector_2" fill="#000000" d="M147.292 266.404c-1.718 -0.496 -2.498 -2.102 -1.316 -3.096 0.416 -0.35 5.718 -2.83 6.214 -3.054 3.07 -1.392 4.24 -0.572 20.454 1.216 3.886 0.428 4.422 0.392 4.586 1.02 0.206 0.792 -0.348 1.062 -2.842 2.692 -6.062 3.964 -6.188 4.25 -7.744 4.344 -3.642 0.222 -15.842 -2.11 -19.352 -3.122Z" stroke-width="1"></path><path id="vector_3" fill="#000000" d="M250.56 271.37c1.194 0.154 0.974 1.202 0.2 2.122 -7.216 8.588 -5.526 7.154 -9.306 7.046 -0.278 -0.008 -15.422 -1.874 -16.026 -2.052 -2.284 -0.676 0.226 -2.27 2.09 -4.128 0.042 -0.042 3.884 -3.496 3.928 -3.534 2.642 -2.202 2.654 -1.582 19.114 0.546Z" stroke-width="1"></path><path id="vector_4" fill="#000000" d="M191.43 274.11c-14.736 -2.134 -17.77 -2.044 -16.646 -4.062 0.498 -0.896 0.67 -0.888 6.03 -4.212 5.83 -3.614 2.868 -2.228 20.554 -0.578 1.374 0.128 1.744 1.05 1.098 1.586 -5.196 4.318 -6.18 5.076 -7.2 6.038 -2.082 1.964 -3.758 0.7 -3.836 1.228Z" stroke-width="1"></path><path id="vector_5" fill="#000000" d="M216.292 277.272c-0.582 -0.058 -13.892 -1.89 -13.942 -1.898 -4.26 -0.664 -2.376 -1.39 3.47 -6.034 4.332 -3.442 3.736 -3.22 13.742 -1.906 8.78 1.154 9.102 0.204 3.912 5.106 -2.98 2.814 -4.586 4.72 -7.182 4.732Z" stroke-width="1"></path><path id="vector_6" fill="#000000" d="M281.372 275.186c1.486 0.146 14.34 2.014 14.59 2.064 1.248 0.252 0.3 1.628 -0.342 2.23 -7.33 6.898 -6.38 5.874 -11.12 5.49 -9.11 -0.738 -4.452 -0.356 -10.874 -1.032 -2.58 -0.272 -3.382 0.118 3.954 -6.884 1.356 -1.294 2.418 -1.664 3.792 -1.868Z" stroke-width="1"></path><path id="vector_7" fill="#000000" d="M264.022 283.048c-0.862 -0.082 -8.186 -0.982 -10.542 -1.252 -3.538 -0.408 -3.94 0.08 2.85 -7.686 2.226 -2.546 3.4 -1.686 8.048 -1.09 8.098 1.036 10.54 0.744 8.522 2.776 -5.844 5.884 -6.842 7.45 -8.88 7.254l0.002 -0.002Z" stroke-width="1"></path><path id="vector_8" fill="#000000" d="M179.64 259.206c-6.146 -0.844 -18.98 -2.044 -19.306 -2.238 -0.582 -0.348 -0.578 -0.994 0.042 -1.286 10.206 -4.812 14.694 -4.198 23.28 -3.52 3.896 0.306 9.708 0.346 6.538 2.298 -8.182 5.036 -6.188 4.09 -10.554 4.748v-0.002Z" stroke-width="1"></path><path id="vector_9" fill="#000000" d="M304.44 267.102c2.04 0.23 2.602 0.134 2.896 0.898 0.178 0.462 -0.038 0.782 -0.37 1.086 -6.962 6.338 -5.186 5.826 -11.282 4.894 -11.132 -1.7 -13.504 -1.378 -11.228 -3.542 7.01 -6.666 5.056 -5.018 19.984 -3.336Z" stroke-width="1"></path><path id="vector_10" fill="#000000" d="M235.554 258.568c1.048 0.15 1.698 1.008 0.89 1.732 -4.772 4.276 -5.282 4.796 -6.896 5.04 -0.908 0.136 -0.018 0.12 -14.366 -1.772 -3.4 -0.448 0.07 -2.33 3.454 -5.202 2.53 -2.148 3.882 -1.668 16.916 0.204l0.002 -0.002Z" stroke-width="1"></path><path id="vector_11" fill="#000000" d="M253.13 268.536c-15.01 -2.214 -15.866 -1.624 -16.146 -2.534 -0.154 -0.5 0.162 -0.874 0.486 -1.182 6.234 -5.906 5.56 -5.164 12.422 -4.22 8.278 1.14 10.952 1.024 9.388 2.764 -3.784 4.206 -4.362 5.326 -6.15 5.172Z" stroke-width="1"></path><path id="vector_12" fill="#000000" d="M205.198 262.546c-0.088 -0.008 -14.35 -1.792 -14.494 -1.822 -1.294 -0.274 -0.326 -1.62 0.338 -2.044 7.328 -4.682 7.386 -4.644 7.994 -4.574 1.886 0.22 0.496 0.134 5.918 0.774 7.24 0.854 7.076 0.714 7.794 1.21 1.354 0.938 -0.586 2.11 -2.022 3.33 -3.458 2.938 -3.014 2.588 -5.528 3.126Z" stroke-width="1"></path><path id="vector_13" fill="#000000" d="M280.986 264.356c1.07 0.138 2.2 0.208 1.76 1.166 -0.376 0.816 -3.87 3.978 -4.524 4.532 -2.394 2.03 -2.688 1.212 -10.384 0.162 -6.716 -0.916 -8.152 -0.412 -5.81 -3.03 5.358 -5.99 2.716 -4.918 18.958 -2.83Z" stroke-width="1"></path><path id="vector_14" fill="#000000" d="M319.928 277.83c-9.672 -1.664 -14.656 -1.59 -12.71 -3.404 6.676 -6.22 5.802 -6.084 11.032 -5.51 12.564 1.38 12.396 0.694 5.96 6.21 -2.856 2.446 -2.642 2.01 -4.282 2.704Z" stroke-width="1"></path><path id="vector_15" fill="#000000" d="M297.096 286.194c-3.382 -0.694 -0.752 -2.278 4.896 -6.73 1.79 -1.41 3.792 -0.786 7.39 -0.224 8.93 1.394 9.962 0.724 6.272 4.174 -2.256 2.11 -3.088 3.042 -4.44 3.222 -3.886 0.516 -12.486 -0.106 -14.118 -0.44v-0.002Z" stroke-width="1"></path></g><path id="vector_16" fill="#000000" d="M367.438 106.622c-2.466 20.654 -6.62 46.502 -10.552 70.952 -6.542 40.674 -7.99 45.638 -12.352 51.3 -4.546 5.9 -11.826 6.426 -12.522 6.992 -2.392 1.946 -69.826 -2.16 -124.488 -10.53 -8.676 -1.328 -17.31 -2.166 -21.774 -8.044 -5.066 -6.67 -3.052 -14.998 -2.198 -20.936 6.716 -46.664 11.496 -77.874 15.314 -98.82 -0.326 0.024 -0.63 0.05 -0.906 0.08 -3.812 0.396 -5.564 3.108 -7.236 7.848 -8.904 25.24 -20.886 120.302 -19.048 125.754 1.778 5.272 6.15 6.466 39.068 10.378 40.416 4.802 114.93 11.998 133.652 10.974 7.532 -0.412 11.098 1.914 16.18 -24.366 7.854 -40.614 12.526 -94.522 13.13 -104.11 0.854 -13.592 -0.55 -16.276 -6.268 -17.472Z" stroke-width="1"></path></g><g id="window"><path id="vector_17" fill="#000000" d="M343.34 55.804c11.39 0.982 13.462 0.554 18.332 2.072 8.468 2.642 7.696 9.438 7.952 17.952 0.57 18.948 -6.376 62.178 -12.738 101.746 -6.542 40.674 -7.992 45.638 -12.352 51.3 -4.546 5.9 -11.826 6.426 -12.522 6.992 -2.392 1.944 -69.826 -2.16 -124.488 -10.528 -8.676 -1.328 -17.31 -2.168 -21.774 -8.044 -5.066 -6.67 -3.052 -14.998 -2.198 -20.936 20.094 -139.62 22.858 -140.906 34.362 -142.812 0.882 -0.146 4.082 -0.604 5.218 -0.624 36.43 -0.67 83.9 -0.244 120.206 2.884l0.002 -0.002Zm-21.944 177.406c16.056 0 22.814 -2.322 26.576 -20.558 7.086 -34.35 19.046 -113.24 19.356 -132.412 0.012 -0.762 0.05 -0.536 -9.972 -0.966 -8.052 -0.344 -130.452 -7.452 -150.202 -6.866 -3.072 0.092 -23.708 129.578 -22.01 137.31 0.966 4.394 3.558 7.608 6 8.998 4.144 2.356 8.118 3.152 42.548 7.798 31.308 4.226 59.91 4.5 72.826 5.902 3.3 0.358 5.264 0.794 14.878 0.794Zm26.788 -165.9c0.35 -3.242 -0.382 -4.576 -7.898 -4.874 -5.888 -0.232 -65.124 -3.446 -77.438 -2.564 -2.858 0.204 -4.362 1.224 -4.536 3.08 -0.338 3.578 2.78 3.712 4.96 3.878 13.438 1.028 60.072 3.422 75.47 3.558 5.102 0.044 9.088 0.206 9.442 -3.078Zm-105.258 -0.878c5.706 -0.182 4.06 -7.418 0.72 -6.472 -0.32 0.09 -0.698 0.064 -0.978 0.216 -3.68 2.018 -2.934 6.358 0.258 6.256Zm-19.722 -4.108c0.374 -1.112 -0.416 -2.784 -1.914 -3.076 -2.21 -0.43 -3.928 0.736 -4.324 2.356 -0.448 1.836 0.582 4.07 2.88 3.842 1.544 -0.154 2.896 -1.744 3.358 -3.122Zm5.548 1.39c-0.012 3.832 4.9 3.354 6.064 0.17 0.512 -1.402 -0.166 -3.632 -2.194 -3.936 -1.882 -0.282 -3.986 1.444 -3.87 3.766Z" stroke-width="1"></path><path id="vector_18" fill="#000000" d="M351.708 97.356c2.518 0.984 3.69 3.246 3.724 5.876 0.102 7.774 -0.938 21.394 -3.85 28.206 -2.34 5.472 -10.034 3.506 -33.006 1.556 -2.16 -0.184 -22.368 -1.276 -43.804 -3.376 -28.278 -2.77 -23.482 -2.97 -25.152 -10.358 -0.144 -0.642 1.326 -15.876 3.782 -23.684 0.282 -0.898 0.96 -1.532 1.594 -2.14 3.656 -3.5 92.34 2.208 96.71 3.916l0.002 0.004Zm1.07 7.494c-0.03 -7.632 -3.03 -5.268 -19.796 -6.38 -46.56 -3.086 -60.288 -4.054 -74.354 -3.782 -1.786 0.034 -2.93 1.202 -3.43 2.626 -1.242 3.538 -2.912 18.498 -3.116 23.724 -0.03 0.754 0.198 1.412 0.462 2.09 0.568 1.462 2.284 1.344 4.004 1.532 26.846 2.924 9.666 1.506 86.914 7.694 0.62 0.05 2.598 0.7 4.616 -1.07 1.59 -1.394 1.598 -2.53 2.514 -7.54 0.582 -3.184 1.738 -10.954 2.186 -18.894Z" stroke-width="1"></path><path id="vector_19" fill="#000000" d="M235.876 146.65c0.044 5.876 -3.222 31.458 -4.806 39.152 -1.986 9.634 -1.482 9.644 -19.546 7.486 -3.166 -0.378 -8.018 -1.016 -10.862 -2.076 -4.456 -1.662 -1.882 -8.732 -1.628 -13.688 0.012 -0.228 3.656 -27.546 5.106 -34.55 0.404 -1.948 0.666 -4.346 3.9 -5.04 2.66 -0.57 22.832 0.552 26.306 2.98 1.832 1.28 1.514 3.52 1.532 5.734l-0.002 0.002ZM202.8 183.222c0 3.654 -0.582 3.608 5.648 4.64 2.034 0.338 2.864 0.246 3.882 0.458 2.656 0.554 3.746 0.448 7.774 0.836 7.038 0.678 5.798 1.116 7.482 -8.622 1.544 -8.922 3.888 -26.476 3.882 -35.078 0 -1.84 -3.1 -1.7 -4.636 -1.918 -0.7 -0.1 -1.102 0.166 -1.356 0.804 -0.532 1.328 -2.056 2.696 -2.288 2.734 -1.752 0.282 -1.178 0.354 -7.058 -0.362 -3.238 -0.394 -2.514 -4.31 -4.074 -4.344 -4.678 -0.102 -3.22 -0.05 -4.736 6.838 -2.192 9.962 -4.57 33.382 -4.52 34.014Zm17.232 -39.78c0.01 2.152 2.948 1.96 2.926 -0.012 -0.022 -1.972 -2.936 -2.18 -2.926 0.012Zm-2.244 -0.374c-0.04 -1.374 -1.73 -1.102 -1.694 0.054 0.018 0.546 0.362 0.878 0.912 0.878 0.586 0 0.802 -0.258 0.782 -0.932Z" stroke-width="1"></path><path id="vector_20" fill="#000000" d="M344.346 181.778c-2.846 15.366 -2.192 14.264 -34.17 10.296 -6.476 -0.804 -15.186 -1.014 -49.264 -5.04 -19.656 -2.322 -18.704 -3.246 -19.242 -9.03 -0.192 -2.064 -0.33 -0.026 0.166 -4.806 2.566 -24.744 3.686 -22.306 13.55 -22.376 8.728 -0.062 15.564 0.454 15.798 0.466 4.266 0.216 56.522 5.212 66.664 5.606 5.834 0.226 7.43 3.244 7.786 5.94 0.208 1.566 0.036 11.808 -1.286 18.946l-0.002 -0.002Zm-13.58 -22.626c-8.65 -0.36 -75.784 -7.486 -82.102 -5.806 -2.164 0.576 -2.576 5.638 -2.938 8.152 -0.418 2.904 -2.43 16.576 -1.374 19.314 0.5 1.294 0.786 1.352 16.676 3.35 7.012 0.882 72.714 7.824 72.756 7.824 6.804 0.366 6.292 -2.446 7.97 -13.936 3.018 -20.67 1.644 -18.372 -10.986 -18.898h-0.002Z" stroke-width="1"></path><path id="vector_21" fill="#000000" d="M238.756 119.6c0 6.824 0.808 5.588 -14.408 4.644 -5.78 -0.358 -2.734 -0.132 -9.504 -1.016 -1.532 -0.2 -5.734 0.192 -5.818 -3.146 -0.16 -6.284 3.688 -13.476 11.036 -14.794 4.012 -0.72 11.298 -0.328 14.124 2.61 1.778 1.848 2.676 2.284 3.554 4.62 0.878 2.336 1.194 4.648 1.016 7.082Z" stroke-width="1"></path><path id="vector_22" fill="#000000" d="M218.31 95.072c0.794 -8.39 10.162 -11.128 15.206 -6.296 4.744 4.544 2.45 12.708 -4.32 14.548 -3.288 0.894 -6.6 -0.346 -8.544 -2.294 -1.906 -1.91 -2.084 -4.11 -2.342 -5.958Z" stroke-width="1"></path><path id="vector_23" fill="#000000" d="M331.966 109.666c1.302 -0.048 2.172 1.112 2.98 1.856 0.72 0.662 0.812 -0.05 2.01 -1.474 0.778 -0.924 1.79 -2.21 2.896 -1.494 1.386 0.896 0.37 2.646 -0.162 3.658 -0.536 1.02 -1.09 1.452 -0.228 1.74 0.636 0.212 0.028 -0.188 4.648 0.74 0.978 0.196 0.828 0.492 0.442 1.128 -0.15 0.246 -0.444 0.426 -0.708 0.578 -3.758 2.188 -5.768 -0.264 -3.92 4.22 0.366 0.886 -0.654 1.736 -1.514 1.124 -4.458 -3.166 -2.198 -4.818 -5.698 -0.72 -1.144 1.34 -3.54 2.9 -3.262 1.152 0.18 -1.128 0.82 -2.044 1.672 -3.616 0.554 -1.02 -0.892 -0.46 -2.414 -1.166 -0.996 -0.46 -1.198 -1.364 -0.524 -2.194 1.016 -1.248 1.56 -1.04 2.984 -1.364 0.75 -0.17 0.202 -0.578 -0.5 -2.152 -0.426 -0.952 0.262 -1.978 1.298 -2.016Z" stroke-width="1"></path><path id="vector_24" fill="#000000" d="M293.13 105.846c-0.786 4.02 -0.854 2.204 2.214 3.034 1.032 0.28 1.734 1.414 0.736 2.472 -1.308 1.386 -3.658 0.498 -1.976 2.384 1.482 1.664 0.194 3.656 -2.506 1.868 -2.01 -1.33 -1.39 -0.104 -2.526 2.576 -0.82 1.936 -2.486 1.186 -2.656 -0.058 -0.13 -0.948 0.08 -1.544 0.67 -4.232 0.242 -1.102 -1.028 -0.84 -1.386 -0.89 -2.22 -0.318 -3.582 -0.428 -3.608 -1.216 -0.04 -1.216 4.01 -1.518 3.338 -2.576 -1.146 -1.8 0.116 -2.414 0.786 -2.14 2.078 0.854 1.228 0.692 2.144 1.182 1.168 0.626 1.226 -2.882 2.818 -4.312 0.474 -0.426 0.792 -0.412 1.26 0 0.588 0.516 0.65 1.182 0.69 1.906l0.002 0.002Z" stroke-width="1"></path><path id="vector_25" fill="#000000" d="M316.314 111.672c-1.274 2.034 -0.088 1.32 1.278 2.676 1.314 1.306 -0.812 1.644 -1.848 1.976 -1.152 0.37 -0.686 0.628 -0.65 0.936 0.072 0.604 0.474 1.422 -0.008 1.986 -0.838 0.978 -2.006 -0.436 -3.362 -1.632 -2.044 1.926 -2.476 2.5 -3.366 2.65 -1.158 0.196 -0.77 -1.332 -0.162 -2.342 1.596 -2.656 0.034 -1.194 -2.502 -2.552 -1.198 -0.642 -1.046 -2.51 1.536 -2.984 0.274 -0.05 1.484 0.12 1.17 -0.932 -0.082 -0.274 -0.668 -1.606 -0.574 -2.68 0.138 -1.578 2.104 -1.744 3.574 0.808 0.366 0.636 0.712 1.418 1.132 1.048 1.438 -1.266 2.13 -4.102 4.154 -3.072 1.406 0.716 0.466 2.776 -0.37 4.112l-0.002 0.002Z" stroke-width="1"></path><path id="vector_26" fill="#000000" d="M262.826 116.108c0.828 -2.438 1.706 -3.774 0.65 -3.75 -1.374 0.032 -3.674 -0.344 -2.868 -1.856 0.88 -1.648 3.608 -0.374 2.276 -2.322 -1.052 -1.54 -1.24 -1.728 -0.828 -2.452 1.048 -1.844 3.488 2.67 4.166 1.024 0.018 -0.042 1.402 -3.588 1.414 -3.628 0.29 -0.92 3.604 -2.118 1.37 4.728 -0.172 0.528 0.678 0.852 2.546 0.982 1.51 0.106 3.174 1.252 2.356 2.218 -1.136 1.34 -4.818 0.422 -3.762 1.806 0.45 0.59 0.958 1.094 1.34 1.944 0.686 1.524 -0.982 2.572 -2.084 1.448 -2.66 -2.71 -1.528 -4.016 -3.57 -0.604 -1.294 2.164 -1.876 2.784 -3.004 0.462h-0.002Z" stroke-width="1"></path><path id="vector_27" fill="#000000" d="M226.94 166.858c0.288 8.098 -9.246 13.296 -16.006 8.93 -6.16 -3.978 -5.954 -13.092 -0.374 -17.078 7.42 -5.302 16.846 -0.192 16.38 8.148Zm-13.5 5.464c1.44 3.484 1.184 2.25 8.918 -10.22 0.27 -0.436 0.176 -0.774 -0.066 -1.144 -1.056 -1.616 -0.868 -1.126 -6.222 6.592 -1.128 1.626 -0.888 0.658 -2.334 -2.664 -0.346 -0.794 -1.004 0.22 -2.106 1.652 -0.446 0.578 0.076 1.59 1.81 5.784Z" stroke-width="1"></path><path id="vector_28" fill="#000000" d="M320.072 181.59c1.324 -3.886 3.23 -3.93 -0.358 -4.502 -1.386 -0.222 -1.436 -2.068 -0.508 -2.75 0.928 -0.682 1.88 -0.71 2.502 -0.808 0.84 -0.132 0.408 -0.512 -0.242 -1.656 -0.912 -1.606 0.466 -2.772 1.556 -2.372 1.652 0.604 1.634 1.154 2.552 1.876 1.356 1.07 2.596 -4.648 4.998 -2.626 1.81 1.524 -1.968 4.69 -0.89 4.964 0.328 0.084 0.662 0.194 0.998 0.208 1.308 0.056 2.542 0.504 3.828 0.682 1.198 0.166 1.21 1.746 -2.984 2.646 -1.198 0.258 -2.098 0.092 -1.776 1.02 0.55 1.594 0.834 2.2 0.662 2.838 -0.244 0.902 -1.49 0.454 -2.164 -0.196 -0.852 -0.82 -1.504 -1.664 -2.102 -2.276 -1.234 -1.264 -1.082 1.344 -5.206 3.696 -0.516 0.294 -0.858 0.038 -0.866 -0.744Z" stroke-width="1"></path><path id="vector_29" fill="#000000" d="M282.472 174.154c-1.294 -0.886 -0.876 -0.666 -2.172 2.814 -0.648 1.74 -2.65 0.94 -2.61 -0.616 0.106 -4.004 1.89 -4.424 -0.558 -4.694 -0.794 -0.088 -3.55 -0.354 -3.634 -1.17 -0.084 -0.836 1.62 -1.302 2.684 -1.728 1.016 -0.406 0.596 -0.38 0.178 -1.79 -0.258 -0.87 0.308 -1.634 2.06 -0.686 1.278 0.692 1.564 1.368 1.914 0.616 0.528 -1.136 0.126 -0.718 1.706 -3.616 0.538 -0.986 1.714 -0.724 2.068 0.378 0.514 1.594 -0.182 2.976 -0.204 3.112 -0.24 1.512 1.248 0.532 2.776 1.156 1.732 0.708 0.878 2.826 -0.654 3.096 -0.902 0.158 -1.74 0.42 -1.112 1.098 2.378 2.57 0.208 3.846 -2.446 2.026l0.004 0.004Z" stroke-width="1"></path><path id="vector_30" fill="#000000" d="M299.938 167.058c1.27 -0.116 1.676 0.808 2.814 2.564 0.694 1.074 1.328 -0.274 2.372 -1.76 0.908 -1.29 2.252 -1.244 2.8 -0.528 0.896 1.168 -0.012 2.314 -1.148 4.412 -0.482 0.89 0.174 0.958 0.944 1.406 1.21 0.704 1.622 1.672 0.308 2.056 -1.94 0.566 -2.126 0.328 -2.09 1.148 0.026 0.554 0.612 1.81 -0.228 2.288 -0.84 0.478 -1.714 -0.728 -2.622 -1.632 -0.574 -0.57 -0.862 0.266 -1.91 1.156 -1.206 1.024 -2.612 1.91 -2.518 0.312 0.036 -0.628 0.318 -0.972 1.156 -2.492 0.496 -0.898 -2.104 -0.784 -3.15 -1.518 -1.172 -0.826 -1.252 -2.528 2.526 -3.03 1.066 -0.142 -1.092 -2.34 -0.316 -3.758 0.236 -0.434 0.558 -0.7 1.062 -0.624Z" stroke-width="1"></path><path id="vector_31" fill="#000000" d="M261.42 162.95c-1.07 4.154 -1.406 4.032 0.012 4.15 3.262 0.27 3.416 0.686 3.962 1.32 1.602 1.856 -3.308 1.918 -3.65 2.04 -0.7 0.25 0.114 0.832 1.12 2.31 1.062 1.56 -0.658 2.85 -1.636 1.886 -3.266 -3.226 -1.678 -4.154 -4.09 -0.254 -0.628 1.016 -1.486 1.756 -2.202 0.804 -0.75 -0.998 -0.25 -1.702 0.52 -3.666 0.836 -2.13 -2.798 -0.386 -3.32 -2.13 -0.296 -0.986 1.01 -1.322 1.972 -1.698 0.042 -0.016 1.334 0.03 0.736 -0.87 -1.308 -1.968 -1.54 -2.13 -1.148 -2.776 0.658 -1.082 2.266 0.328 3.154 1.228 1.146 1.16 1.34 -1.71 2.18 -3.376 0.954 -1.89 2.452 -0.908 2.388 1.036l0.002 -0.004Z" stroke-width="1"></path></g><path id="arrow" fill="#000000" d="M95.884 111.828c-1.862 0 -4.124 -1.428 -8.12 -4.384 -2.672 -1.984 -8.81 -8.052 -8.858 -8.102 -5.726 -5.926 -3.392 -7.776 6.088 -17.556 18.624 -19.214 39.902 -24.488 64.166 -20.684 2.126 0.334 2.048 0.298 2.38 0.342 0.734 0 0.014 -5.718 0.954 -8.95 0.376 -1.298 1.2 -1.752 1.824 -1.904 3.884 -0.932 12.168 8.228 15.386 11.614 5.824 6.126 7.678 8.846 7.616 11.212 -0.042 1.572 -1.014 2.664 -1.74 3.348 -2.126 2.01 -19.112 13.986 -21.542 14.746 -2.188 0.68 -4.194 -0.486 -4.22 -4.264 -0.05 -5.916 0.008 -7.51 0.16 -9.878 -1.342 -0.046 -4.252 0.266 -5.658 0.394 -15.72 1.428 -29.89 10.842 -42.116 27.978 -2.21 3.104 -3.702 6.088 -6.32 6.088Zm39.164 -49.97c-17.882 0 -34.302 6.558 -48.616 21.322 -9.936 10.248 -10.304 10.408 -6.076 14.786 0.05 0.05 6.088 6.01 8.6 7.874 3.694 2.734 5.928 4.178 7.174 3.97 1.19 -0.198 2.328 -2.262 4.446 -5.23 12.578 -17.634 27.236 -27.326 43.564 -28.81 6.29 -0.57 6.942 -0.508 7.516 0.056 0.408 0.402 0.372 0.896 0.358 1.084 -0.18 2.686 -0.25 4.018 -0.196 10.324 0.008 1.176 0.254 2.052 0.658 2.348 0.206 0.15 0.532 0.16 0.964 0.024 1.732 -0.542 18.23 -11.896 20.77 -14.292 0.762 -0.718 1.094 -1.3 1.112 -1.946 0.05 -1.91 -2.67 -5.152 -7.064 -9.778 -2.286 -2.406 -12.924 -13.688 -13.84 -10.532 -1.014 3.496 0.27 8.304 -1.488 9.884 -0.514 0.46 -1.234 0.596 -1.756 0.48 -2.552 -0.286 -8.3 -1.558 -16.124 -1.558l-0.002 -0.006Z" stroke-width="1"></path><g id="phone"><path id="vector_32" fill="#000000" d="M147.592 306.188c-13.596 -165.894 -13.432 -179.356 -31.22 -181.782 -15.842 -2.162 -56.694 2.296 -73.66 5.446C12.07998 135.534 12.09798 136.308 12.60198 156.122c0.168 6.63 0.076 5.378 0.21 6.746 0.212 2.084 0.108 1.93 -0.474 2.064 -1.732 0.392 -2.532 1.82 -2.538 3.56 -0.004 1.586 0.218 12.612 0.826 16.258 0.536 3.2 3.282 2.47 3.31 2.846 0.082 0.984 0.41 6.196 0.41 6.196 0.054 1.008 0.052 0.95 -0.918 1.174 -3.532 0.82 -1.782 6.874 -1.81 14.532 -0.004 1.532 0.138 3.178 0.452 5.178 0.252 1.608 1.42 2.792 3.288 2.746 0.468 -0.008 0.458 0.014 0.472 0.208 1.652 25.536 5.38602 79.398 9.37802 104.642 2.048 12.946 3.984 25.172 18.086 26.188 21.434 1.554 88.332 -5.338 95.944 -7.93 5.408 -1.84 8.662 -6.528 9.412 -13.556 0.37 -3.488 -0.598 -15.172 -1.058 -20.79v0.004Zm-47.638 37.626c-7.374 0.696 -22.526 0.938 -30.792 1.718 -10 0.946 -15.052 0.644 -21.444 -0.014 -4.678 -0.454 -7.682 -2.66 -9.738 -7.158 -5.14 -11.252 -5.884 -33.896 -8.618 -61.366 -3.836 -38.552 -7.418 -112.054 -7.544 -115.834 -0.658 -20.66 -2.43402 -24.666 14.776 -28.004C58.708 128.868 88.316 125.6 106.096 125.6c10.378 0 18.688 0.796 21.754 11.038 5.662 18.922 10.23 86.718 18.562 184.876 0.784 9.246 -2.106 16.552 -11.242 18.176 -1.164 0.206 -17.508 2.454 -35.214 4.122l-0.002 0.002ZM12.21998 178.612c-0.596 -9.838 -0.918 -7.674 -0.56 -11.16 0.082 -0.82 2.02 -1.192 2.478 -0.298 0.524 1.03 0.832 15.484 1.032 17.66 0.044 0.454 -2.246 1.716 -2.644 -1.86 -0.07 -0.306 -0.286 -4.03 -0.304 -4.34l-0.002 -0.002Zm3.176 36.6c-0.032 0.004 -0.058 0.016 -0.084 0.034 -1.532 0.698 -1.4 -3.92 -1.562 -5.988 -0.692 -8.906 -1.042 -8.078 -0.622 -11.996 0.046 -0.426 0.864 -0.754 1.472 -0.754 1.276 0 1.26 0.808 1.452 6.832 0.326 10.032 0.848 11.652 -0.656 11.872Z" stroke-width="1"></path><path id="vector_33" fill="#000000" d="M139.976 295.026c-11.058 -116.91 -11.238 -152.982 -19.044 -161.384 -3.074 -3.306 -5.992 -3.324 -17.686 -3.048 -8.178 0.194 -10.992 0.136 -12.172 1.68 -0.636 0.834 -1.812 3.41 -2.514 4.95 -1.45 3.158 -1.226 3.13 -11.878 4.382 0 0 -9.298 0.848 -10.31 0.894 -6.846 0.31 -7.748 -0.056 -8.742 -0.736 -2.556 -1.744 -2.62 -3.78 -5.25 -5.504 -1.6 -1.046 -3.076 -0.688 -4.378 -0.584 -1.616 0.124 -13.288 1.444 -17.482 3.656 -2.946 1.554 -4.548 4.378 -4.516 7.954 0.254 28.816 7.688 152.778 15.028 183.872 1.86 7.874 4.032 10.344 13.98 10.458 11.832 0.158 60.5 -3.304 76.386 -6.292 6.224 -1.17 10.212 -3.292 10.866 -10.24 0.28 -2.982 -0.63 -12.598 -2.286 -30.056l-0.002 -0.002Zm-9.206 38.494c-7.402 1.38 -53.244 5.808 -74.312 6.304 -7.452 0.18 -10.968 -0.438 -13.036 -6.65 -7.508 -22.562 -15.558 -175.336 -15.558 -180.728 0 -6.81 0 -9.628 3.654 -11.524 4.148 -2.152 17.488 -3.706 18.394 -3.706 1.462 0 2.146 0.772 4.042 3.464 1.808 2.56 3.924 3.464 4.664 3.5 9.656 0.496 14.894 -0.264 25.338 -1.88 3.9 -0.604 4.766 -0.646 7.058 -6.206 1.21 -2.932 1.386 -3.14 2.962 -3.406 1.704 -0.286 14.076 -0.576 16.988 -0.544 3.514 0.038 5.45 0.058 7.438 1.694 3.268 2.684 4.042 6.374 4.612 9.066 4.174 19.736 6.042 46.782 7.832 69.89 0.77 9.916 9.516 106.42 9.516 110.126 0.424 7.194 -3.52 9.468 -9.592 10.6Z" stroke-width="1"></path><path id="vector_34" fill="#000000" d="M82.19 133.64c-0.576 -5.056 -7.948 -4.582 -7.89 0.504 0.07 6.142 8.53 5.106 7.89 -0.504Z" stroke-width="1"></path><path id="vector_35" fill="#000000" d="M66.826 138.796c3.692 0.012 3.866 -5.678 -0.016 -5.656 -3.566 0.02 -3.658 5.644 0.016 5.656Z" stroke-width="1"></path><path id="vector_36" fill="#000000" d="M114.072 135.544c-5.514 0.402 -6.222 0.208 -6.488 1.364 -0.81 3.536 0.462 3.574 3.092 3.574 1.556 0.116 2.966 -0.188 4.394 -0.396 1.216 -0.176 1.184 -2.434 0.848 -3.616 -0.202 -0.712 -0.37 -1.036 -1.848 -0.928l0.002 0.002Zm0.866 2.288c-0.074 0.954 0.316 1.598 -3.096 1.36 0.266 -2.256 -0.37 -2.126 0.586 -2.26 1.868 -0.262 2.618 -0.498 2.51 0.9Z" stroke-width="1"></path><path id="vector_37" fill="#000000" d="M101.884 134.8c-0.878 0.52 -0.698 0.744 -0.694 2.718 0 0.658 -0.03 1.316 0.008 1.972 0.066 1.128 2.238 1.94 2.194 -0.312 -0.038 -1.852 -0.006 -5.266 -1.508 -4.378Z" stroke-width="1"></path><path id="vector_38" fill="#000000" d="M47.986 142.342c-0.462 -0.266 -1.012 -0.316 -1.456 -0.47 -0.7 -0.242 -0.35 -0.42 -0.278 -0.94 0.146 -1.078 -0.958 -1.924 -2.314 -0.632 -0.37 0.354 -0.25 0.732 0.27 0.758 1.098 0.054 0.01 1.176 0.848 1.636 2.824 1.544 3.47 -0.042 2.93 -0.352Z" stroke-width="1"></path><path id="vector_39" fill="#000000" d="M98.226 136.518c-0.524 0.086 -0.712 0.406 -0.772 0.844 -0.046 0.326 -0.032 2.832 0.192 3.13 0.216 0.286 0.634 0.458 1.416 0.35 0.79 -0.108 0.338 -2.68 0.266 -3.184 -0.158 -1.12 -0.566 -1.228 -1.102 -1.14Z" stroke-width="1"></path><path id="vector_40" fill="#000000" d="M47.678 139.816c-0.166 0.508 0.196 1.062 0.708 0.944 0.994 -0.228 0.018 0.918 1.428 2.43 0.29 0.312 0.666 0.15 0.732 -0.278 0.038 -0.238 0.008 -0.482 0.008 -0.724 0.124 -0.02 0.206 0.304 -0.408 -2.518 -0.284 -1.302 -2.1 -0.986 -2.468 0.146Z" stroke-width="1"></path><path id="vector_41" fill="#000000" d="M37.562 144.264c-1.112 -0.114 -0.96 -0.858 -0.936 -1.668 0.026 -0.844 -1.12 -1.452 -1.922 -0.112 -0.242 0.404 -0.238 0.584 0.178 0.854 0.47 0.304 0.196 0.544 0.512 1.24 0.342 0.756 1.564 1.076 2.188 0.574 0.146 -0.116 0.216 -0.324 0.354 -0.532 -0.146 -0.142 -0.25 -0.342 -0.374 -0.356Z" stroke-width="1"></path><path id="vector_42" fill="#000000" d="M33.1 141.892c-0.678 -0.084 -0.842 0.274 -1.394 1.752 -0.172 0.458 -0.004 0.798 0.482 0.758 0.928 -0.08 0.304 1.172 1.27 1.228 0.35 0.02 0.412 -0.886 0.512 -1.464 -0.25 -1.66 -0.154 -2.186 -0.87 -2.274Z" stroke-width="1"></path><path id="vector_43" fill="#000000" d="M95.572 138.586c-0.08 -1.12 -2.314 -0.802 -1.514 1.768 0.17 0.546 0.404 0.632 1.048 0.532 0.32 -0.05 0.43 -0.132 0.466 -0.464 0.028 -0.262 0.01 -1.712 0 -1.836Z" stroke-width="1"></path><path id="vector_44" fill="#000000" d="M40.878 142.958c-0.758 0.05 -1.236 1.4 -0.354 1.47 1.09 0.086 1.252 -1.528 0.354 -1.47Z" stroke-width="1"></path><path id="vector_45" fill="#000000" d="M40.538 140.886c-0.732 -0.106 -1.26 1.206 -0.166 1.256 1.14 0.054 0.786 -1.168 0.166 -1.256Z" stroke-width="1"></path></g><g id="lock"><path id="vector_46" fill="#000000" d="M78.462 227.786c19.842 0.054 36.046 -15.718 36.164 -36.092 0.112 -19.418 -15.256 -36.168 -36.138 -36.222 -19.364 -0.05 -36.144 15.252 -36.126 36.484 0.016 20.216 16.462 35.778 36.1 35.83Zm-8.594 -56.976c6.49 -4.108 17.15 -3.116 19.788 4.458 0.822 2.36 1.038 4.352 1.008 4.552 -0.282 1.83 -2.264 1.74 -4.682 1.744 -2.302 0.004 -0.178 -6.176 -5.056 -7.192 -3.08 -0.64 -6.406 -0.2 -8.772 1.976 -0.752 0.692 -1.076 1.482 -1.402 3.762 -0.054 0.374 0.28 1.848 0.366 2.842 0.06 0.69 -0.848 0.854 -2.622 1.174 -3.174 0.572 -2.992 0.066 -3.142 -0.882 -0.674 -4.262 0.274 -9.75 4.516 -12.434h-0.002Zm-6.408 17.962c0.396 -1.972 1.498 -1.976 11.402 -3.77 1.266 -0.23 10.124 -1.086 13.142 -1.294 1.398 -0.096 3.592 -0.758 5.068 1.424 2.726 4.024 4.696 16.342 5.052 21.19 0.096 1.302 -0.74 3.256 -2.168 3.604 -15.532 3.792 -26.172 3.786 -26.172 3.746 -4.566 0 -5.25 -1.04 -5.698 -5.114 -0.41 -3.75 -1.528 -15.294 -0.628 -19.784l0.002 -0.002Z" stroke-width="1"></path><path id="vector_47" fill="#000000" d="M77.192 200.27c0.024 1.316 0.084 2.65 -0.08 3.95 -0.158 1.256 0.114 2.468 0.096 3.704 -0.028 1.96 2.248 1.152 2.26 1.39 6.114 -0.362 6.458 -0.998 6.172 -2.272 -2.092 -9.308 -2.884 -7.082 -1.178 -9.426 1.066 -1.464 2.16 -4.852 0.804 -7.074 -3.32 -5.436 -13.872 -2.956 -12.122 4.82 0.804 3.574 4.01 2.842 4.05 4.91l-0.002 -0.002Z" stroke-width="1"></path><path id="vector_48" fill="#000000" d="M130.206 286.144c-1.102 -19.78 -14.172 -14.698 -43.546 -12.156 -1.628 0.14 -7.358 0.772 -13.724 1.632 -6.828 0.922 -18.532 2.288 -23.176 6.396 -4.042 3.574 -3.658 8.024 -3.108 13.392 1.098 10.728 5.96 12.86 15.672 13.114 66.298 -5.668 68.728 -7.204 67.884 -22.376l-0.002 -0.002Zm-1.448 5.39c-0.294 1.528 -0.374 3.076 -2.134 4.79 -2.568 2.502 -8.518 4.132 -10.592 4.57 -9.464 2 -47.862 5.75 -54.404 5.906 -7.616 0.182 -12.658 -2.418 -13.176 -10.016 -0.076 -1.106 -1.092 -6.688 -0.292 -8.964 0.124 -0.354 0.288 -3.96 4.466 -5.922 2.906 -1.364 7.146 -2.894 11.306 -3.376 0.042 -0.004 11.944 -1.78 14.486 -2.034 34.08 -3.418 46.58 -6.442 49.056 3.03 1.328 5.078 1.504 10.866 1.282 12.018l0.002 -0.002Z" stroke-width="1"></path><path id="vector_49" fill="#000000" d="M100.01 286.772c2.33 -2.706 2.772 -3.312 2.098 -3.982 -1.494 -1.486 -4.358 3.062 -4.786 1.972 -1.082 -2.75 -1.014 -2.71 -1.714 -3.488 -0.416 -0.462 -1.36 -0.274 -1.402 0.582 -0.11 2.24 0.866 3.28 0.088 3.076 -1.862 -0.492 -2.292 -0.744 -3.312 -0.354 -0.966 0.37 -1.082 1.884 0.254 2.446 3.092 1.302 3.126 1.016 2.302 1.84 -1.748 1.748 -1.95 1.838 -2.518 3.2 -0.326 0.782 0.816 2.066 2.01 1.274 3.99 -2.646 2.468 -3.956 3.932 0.27 0.246 0.712 0.408 1.474 0.948 2.044 0.49 0.516 0.894 0.44 1.182 -0.212 0.552 -1.254 -0.59 -4.728 -0.374 -4.948 0.146 -0.15 0.64 0.222 1.198 0.454 1.888 0.784 2.59 1.278 3.334 0.486 0.446 -0.474 0 -1.262 -0.566 -1.798 -2.704 -2.564 -3.796 -1.556 -2.672 -2.864l-0.002 0.002Z" stroke-width="1"></path><path id="vector_50" fill="#000000" d="M121.308 283.714c-2.796 -0.136 -3.42 1.112 -3.204 -0.146 0.356 -2.072 0.902 -3.428 -0.046 -4.112 -0.958 -0.69 -2.134 -0.254 -2.406 0.898 -0.82 3.476 -0.428 2.402 -0.878 3.466 -1.764 -0.908 -3.534 -3.31 -4.898 -2.08 -1.658 1.492 0.05 2.388 2.044 3.962 0.516 0.408 -0.254 0.478 -1.94 1.29 -1.148 0.554 -1.406 2.202 0.216 2.446 0.832 0.126 1.09 -0.064 3.216 -0.478 0.878 -0.172 -1.206 3.958 0.932 4.14 1.012 0.086 1.064 -0.916 2.01 -3.628 0.124 -0.358 0.154 -0.498 2.456 1.12 0.99 0.696 2.842 -0.092 1.918 -1.29 -1.578 -2.048 -2.14 -1.86 -1.26 -2.214 1.252 -0.504 2.14 -0.762 2.75 -1.536 0.562 -0.712 0.362 -1.778 -0.912 -1.84l0.002 0.002Z" stroke-width="1"></path><path id="vector_51" fill="#000000" d="M82.578 288.542c-3.158 0.312 -1.602 0.612 -1.456 -3.792 0.038 -1.148 -1.652 -1.57 -2.156 -0.432 -0.446 1.006 -0.92 3.188 -1.144 4.266 -0.108 0.52 -0.082 0.33 -2.06 -1.594 -0.71 -0.692 -1.844 -0.874 -2.148 -0.008 -0.308 0.878 0.41 1.546 1.49 3.03 0.766 1.052 0.184 0.492 -1.794 1.936 -0.948 0.692 -0.762 2.544 1.032 2.16 3.022 -0.648 2.822 -2.298 2.352 1.814 0.328 0.024 -0.322 1.45 0.504 1.748 0.292 0.104 0.606 -0.312 0.774 -0.686 1.254 -2.8 0.944 -2.784 1.598 -2.23 2.072 1.756 2.924 1.186 2.634 0.308 -0.462 -1.404 -1.27 -2.176 -1.74 -2.776 -0.528 -0.674 -0.368 -0.384 2.61 -2.506 0.766 -0.546 0.054 -1.29 -0.496 -1.236v-0.002Z" stroke-width="1"></path><path id="vector_52" fill="#000000" d="M64.374 289.952c-3.43 1.118 -2.586 2.344 -3.012 -1.186 -0.138 -1.136 -0.192 -2.116 -1.166 -2.118 -1.306 -0.002 -1.156 2.28 -1.156 4.682 -0.77 0.038 -1.47 -0.854 -3.18 -0.912 -0.744 -0.026 -1.324 1.012 -0.612 1.652 0.386 0.346 0.814 0.606 1.944 1.364 0.656 0.442 -0.316 0.662 -1.374 2.076 -0.832 1.112 0.7 2.198 2.09 1.19 1.09 -0.79 1.652 -1.336 1.756 -0.662 0.234 1.528 0.312 4.008 1.84 3.738 0.332 -0.06 0.284 -0.342 0.316 -0.574 0.26 -1.896 0.122 -0.998 0.004 -2.656 -0.074 -1.052 0.404 -0.04 2.342 0.234 0.654 0.092 1.144 -0.692 0.762 -1.144 -2.548 -3.012 -2.822 -0.408 0.574 -4.032 0.624 -0.666 0.278 -2.11 -1.128 -1.652Z" stroke-width="1"></path><path id="vector_53" fill="#000000" d="M101.2 243.968c-1.054 -1.514 -2.492 -2.236 -4.312 -2.244 -1.46 -0.006 -2.114 0.014 -3.892 1.59 -0.762 0.674 -0.438 1.502 -0.038 6.592 0.258 3.276 0.468 8.752 1.086 11.936 0.258 1.332 2.216 1.486 2.506 0.038 0.19 -0.95 0.176 0 -0.07 -5.256 -0.028 -0.6 0.736 -0.496 0.948 -0.54 6.482 -1.386 7.378 -6.928 3.77 -12.114l0.002 -0.002Zm-4.91 9.18c-0.054 -0.088 -0.778 -7.074 -0.782 -7.116 -0.118 -1.154 -0.166 -1.166 0.978 -1.224 2.222 -0.112 3.67 3.08 3.584 4.918 0.02 2.972 -2.48 3.134 -3.778 3.42l-0.002 0.002Z" stroke-width="1"></path><path id="vector_54" fill="#000000" d="M65.37 246.734c-4.93 5.752 -2.7 18.558 2.892 18.78 2.04 0.082 4.06 -1.316 4.974 -3.396 4.798 -10.942 -2.664 -21.452 -7.866 -15.384Zm3.4 15.81c-1.098 0.754 -3.696 -1.96 -3.392 -7.39 0.05 -0.904 1.016 -7.518 3.538 -7.274 1.56 0.15 2.984 3.276 2.972 6.758 -0.008 2.53 -0.172 5.888 -3.116 7.906h-0.002Z" stroke-width="1"></path><path id="vector_55" fill="#000000" d="M85.756 242.71c-6.192 0.866 -6.954 0.974 -8.028 1.482 -1.49 0.704 -0.674 2.598 0.952 2.502 2.83 -0.168 3.014 -0.712 3.062 0.074 0.958 15.434 0.718 14.378 1.344 15.706 0.416 0.882 1.798 0.858 2.106 -0.162 0.65 -2.156 -0.748 -13.924 -1.002 -15.802 -0.08 -0.586 0.254 -0.48 0.774 -0.612 2.484 -0.632 3.374 -0.616 3.258 -1.96 -0.112 -1.298 -1.646 -1.166 -2.466 -1.228Z" stroke-width="1"></path></g></g></svg>