<?xml version="1.0" encoding="UTF-8" standalone="no"?>
<!DOCTYPE svg PUBLIC "-//W3C//DTD SVG 1.1//EN" "http://www.w3.org/Graphics/SVG/1.1/DTD/svg11.dtd">
<svg width="100%" height="100%" viewBox="0 0 62 15" version="1.1" xmlns="http://www.w3.org/2000/svg" xmlns:xlink="http://www.w3.org/1999/xlink" xml:space="preserve" xmlns:serif="http://www.serif.com/" style="fill-rule:evenodd;clip-rule:evenodd;stroke-linejoin:round;stroke-miterlimit:2;">
    <g transform="matrix(1,0,0,1,-372.781,-706.95)">
        <g transform="matrix(1,0,0,1,-241.316,150.589)">
            <path d="M619.158,560.121C616.138,560.121 614.098,562.221 614.098,565.261C614.098,568.401 616.178,570.461 619.358,570.461C621.058,570.461 622.658,569.801 623.598,568.721L622.398,567.581C621.818,568.281 620.598,568.741 619.398,568.741C617.498,568.741 616.198,567.701 616.018,566.001L624.198,566.001C624.478,562.361 622.558,560.121 619.158,560.121ZM619.218,561.781C621.058,561.781 622.278,562.821 622.438,564.421L616.038,564.421C616.338,562.761 617.478,561.781 619.218,561.781Z" style="fill:rgb(2,6,23);fill-rule:nonzero;"/>
            <rect x="626.178" y="556.361" width="2.04" height="14.1" style="fill:rgb(2,6,23);fill-rule:nonzero;"/>
            <path d="M635.318,560.121C632.298,560.121 630.258,562.221 630.258,565.261C630.258,568.401 632.338,570.461 635.518,570.461C637.218,570.461 638.818,569.801 639.758,568.721L638.558,567.581C637.978,568.281 636.758,568.741 635.558,568.741C633.658,568.741 632.358,567.701 632.178,566.001L640.358,566.001C640.638,562.361 638.718,560.121 635.318,560.121ZM635.378,561.781C637.218,561.781 638.438,562.821 638.598,564.421L632.198,564.421C632.498,562.761 633.638,561.781 635.378,561.781Z" style="fill:rgb(2,6,23);fill-rule:nonzero;"/>
            <g transform="matrix(1,0,0,1,-0.00461588,0.26)">
                <path d="M649.278,560.361L646.358,568.181L643.438,560.361L641.258,560.361L645.138,570.201L647.578,570.201L651.458,560.361L649.278,560.361Z" style="fill:rgb(2,6,23);fill-rule:nonzero;"/>
            </g>
            <path d="M657.478,560.121C654.458,560.121 652.418,562.221 652.418,565.261C652.418,568.401 654.498,570.461 657.678,570.461C659.378,570.461 660.978,569.801 661.918,568.721L660.718,567.581C660.138,568.281 658.918,568.741 657.718,568.741C655.818,568.741 654.518,567.701 654.338,566.001L662.518,566.001C662.798,562.361 660.878,560.121 657.478,560.121ZM657.538,561.781C659.378,561.781 660.598,562.821 660.758,564.421L654.358,564.421C654.658,562.761 655.798,561.781 657.538,561.781Z" style="fill:rgb(2,6,23);fill-rule:nonzero;"/>
            <g transform="matrix(1,0,0,1,1.81943,-0.06)">
                <path d="M668.858,562.26C670.338,562.26 671.292,562.933 671.292,564.473L671.286,570.521L673.378,570.521L673.378,564.473C673.378,561.933 671.538,560.181 668.858,560.181" style="fill:rgb(2,6,23);fill-rule:nonzero;"/>
            </g>
            <g transform="matrix(1,0,0,1,-4.49818,-0.06)">
                <path d="M668.858,562.26C670.338,562.26 671.292,562.933 671.292,564.473L671.286,570.521L673.378,570.521L673.378,564.473C673.378,561.933 671.538,560.181 668.858,560.181" style="fill:rgb(2,6,23);fill-rule:nonzero;"/>
            </g>
        </g>
    </g>
</svg>
