<svg xmlns="http://www.w3.org/2000/svg" viewBox="0 0 400 400" id="Spam-2--Streamline-Milano.svg" height="400" width="400"><desc>Spam 2 Streamline Illustration: https://streamlinehq.com</desc><g fill="#000000"><path d="M76 153.78c3.4 4.32 6.28 4.5 11.82 3.74 9.32 -1.26 18 -5 23.72 -12.5a44.84 44.84 0 0 0 3.2 -5.44 1.48 1.48 0 0 0 -0.18 -1.8c-0.44 -0.54 -14.16 -18.72 -15.04 -19.44a2.34 2.34 0 0 0 -1.88 -0.68c-0.88 0.2 -1.28 0.96 -1.66 1.7 -9.38 17.88 -26.68 17.3 -27.66 17.1a4 4 0 0 0 -2 0c-2.14 0.72 0.26 3.64 0.84 4.62A136 136 0 0 0 76 153.78zM91.46 156a28.14 28.14 0 0 1 -9.72 0.82A26.68 26.68 0 0 1 86.16 142c3.62 0 7.8 0.88 9.72 -1.46a13.8 13.8 0 0 0 1.6 -4.62 24.88 24.88 0 0 1 16.2 4c-3.08 6.84 -10.52 13.5 -22.22 16.08zM114 138.52a0.78 0.78 0 0 1 0 0.52 23.4 23.4 0 0 0 -16.48 -3.64c0.24 -1.46 1.6 -10.98 0.24 -16.92a2 2 0 0 1 1.26 0.68c0.84 0.84 14.8 19.06 14.98 19.36zm-44.38 -1.22c4.52 0 19 -1.66 26.2 -16 0.18 -0.44 0.42 -0.88 0.62 -1.3a4.54 4.54 0 0 1 0.54 -1.08c1.7 6.62 -0.54 18.72 -1.22 20.18a3.82 3.82 0 0 1 -3.4 2.14c-1.6 0.14 -11.22 0.62 -26.3 -3.5 -0.22 -1.36 2.84 -0.44 3.58 -0.44zm-3.42 0.92a68.58 68.58 0 0 0 18.96 3.64c-4.56 7.24 -4.32 12.26 -4 14.88a11.8 11.8 0 0 1 -2.64 -1.26c-1.94 -1.08 -12.1 -16.82 -12.3 -17.26zm52 -17.02a37.48 37.48 0 0 0 11.56 6.8c4.42 1.78 9.78 2.9 14.1 0.38 3.16 -2.52 12.16 -7.34 17.6 -24.2a9.4 9.4 0 0 0 -0.14 -6.18c-1.38 -3.02 -13.66 -6.22 -18 -7.64a10.46 10.46 0 0 0 -4.52 -0.76 3.16 3.16 0 0 0 -2.8 2.78 30.1 30.1 0 0 1 -17.16 24c-3.28 0.96 -3.1 2.52 -0.64 4.82zm21.34 7.88a41.02 41.02 0 0 1 -2.54 -12.74 40.4 40.4 0 0 0 5.1 -2.52 4.98 4.98 0 0 0 2.48 -3.3 25.8 25.8 0 0 0 -0.96 -6.28 48 48 0 0 1 17.26 -4.9c-0.34 14.86 -14.58 28.52 -21.34 29.74zm2 -38.6c1.36 0.36 15.06 4.92 17.1 6a4 4 0 0 1 2.14 2.14 42.9 42.9 0 0 0 -17.16 5.04 40 40 0 0 0 -5.68 -13.02 4.86 4.86 0 0 1 3.54 -0.16zM117.18 118a20 20 0 0 1 3.88 -2c16.56 -9.02 14.84 -22.94 16.18 -24.84a45.26 45.26 0 0 1 6.58 17.88 3.26 3.26 0 0 1 -1.46 3.64C130 120 121.4 119.3 117.7 118.58c-0.28 0 -0.38 0.38 -0.14 0.44a31.32 31.32 0 0 0 18.92 -2.38 36 36 0 0 0 2.56 12.58c-2.14 0.24 -10.2 -0.78 -20.7 -8.7 -0.58 -0.52 -1.68 -1.64 -1.16 -2.52zm40.98 -84.68c-1.32 -0.52 -2.32 -1.06 -3.42 -0.1 -11.52 9.72 -14.92 10.2 -17.88 11.42 -0.24 0.1 0.24 0.68 0.34 0.74 16.18 6.74 18.66 23.22 19 25.66a0.4 0.4 0 0 0 0.24 0.72 51.18 51.18 0 0 0 20.58 -6.8c1.12 -0.72 1.12 -1.84 1.02 -3.06a29.6 29.6 0 0 0 -19.88 -28.58zm-19.22 11.9c12.84 -0.34 22.18 3.36 22.8 4 1.02 0.92 1.32 14.16 -5.04 21.5a30.5 30.5 0 0 0 -17.76 -25.5zm38.42 17.7c0 1.36 -1.66 2 -2.72 2.48a48.94 48.94 0 0 1 -17.32 5.44c4 -4.8 5.5 -7.14 6 -19.44a4 4 0 0 0 -0.26 -1.9c-0.52 -1.4 -2.46 -2.28 -6.4 -3.34a58.14 58.14 0 0 0 -0.3 -11.88c-0.14 -0.24 -0.48 0 -0.48 0.16 -0.16 0.92 0.38 9.66 0.28 11.56a53.74 53.74 0 0 0 -16.76 -1.7A47.7 47.7 0 0 0 155 34a1.74 1.74 0 0 1 2.22 -0.3C177.84 42.6 177.4 61.56 177.36 62.92z" stroke-width="1"></path><path d="M162.96 58.74a29.06 29.06 0 0 1 13.8 4.92 0.28 0.28 0 0 0 0.3 -0.4 20.92 20.92 0 0 0 -14 -4.9c-0.3 0.04 -0.3 0.38 -0.1 0.38zm50.02 8.94a4 4 0 0 0 1.8 -0.18 20.62 20.62 0 0 1 22 10.64c0.14 0.28 0.48 0.24 0.74 0a60 60 0 0 0 15.4 -18.58 0.98 0.98 0 0 0 0 -1.02c-3.6 -8.3 -12.26 -11.66 -21.24 -13.12a50.14 50.14 0 0 0 -11.1 -0.64 14.9 14.9 0 0 0 -4.12 0.64 2.98 2.98 0 0 0 -2.46 3.02c-0.58 3.88 -1.36 13.8 -1.4 14.88s-0.1 4.22 0.38 4.36zm1.42 -1.02c-0.24 0 -1.28 0.54 -1.28 -0.72a53.56 53.56 0 0 1 17.6 -9.1c0.78 -0.24 1.46 -0.34 2 0.44 3.2 5.5 4.36 16.24 4.32 19.26a21.34 21.34 0 0 0 -22.64 -9.88zm23.32 10.16a40.5 40.5 0 0 0 -1.5 -12.78 77.24 77.24 0 0 1 15.8 -4.96c-0.02 0.7 -5.36 10.02 -14.3 17.74zm-4.8 -30.24c8 1.52 15.3 4.58 18.86 11.86a58.1 58.1 0 0 0 -15.78 5.02 35.42 35.42 0 0 0 -3.58 -7.46 26.94 26.94 0 0 0 -6.46 1.76s-7.34 -9.82 -9.08 -11.48a54.88 54.88 0 0 1 16.04 0.3zm-17.8 0.78a2.34 2.34 0 0 1 1.16 -0.86c1.52 1.88 8.32 10.74 9.14 11.46a49.48 49.48 0 0 0 -12.24 7.24c0.04 -0.58 1.64 -17.36 1.94 -17.84zm79.44 28.1a0.5 0.5 0 0 0 -0.5 -0.62c-8.12 -0.54 -16.22 -1.08 -24.34 -1.56 -0.2 0 -6.66 16.92 4.22 36 0 0.2 0.14 0.34 0.4 0.28 21 -2.7 23.86 -0.98 23.12 -2.42a47.42 47.42 0 0 1 -2.9 -31.68zm-17.12 9.58c-3.16 -2.18 -7.38 -10.74 -7.38 -10.8 7.34 0.44 14.68 0.94 22 1.42a69.52 69.52 0 0 0 -14.62 9.38zm-7.68 -9.48c4.14 10.5 13.62 15.66 14.88 16.58 -3.26 5.48 -7.64 10.26 -10.36 16a51.8 51.8 0 0 1 -4.52 -32.58zm10.6 24.44c0.54 0.42 12.68 6.12 15.12 6.94a200 200 0 0 0 -20.46 1.66 56.66 56.66 0 0 1 5.34 -8.6zm15.84 6.56c-1.12 -0.5 -14.82 -6.96 -15.46 -7.16 1.7 -2.38 3.42 -4.7 4.86 -7.18a0.46 0.46 0 0 0 -0.14 -0.64c-2.58 -1.8 -7.44 -6 -7.48 -6s9.58 -7.52 15.36 -9.42a43.5 43.5 0 0 0 2.86 30.42zm-77.04 44.06a0.32 0.32 0 0 0 0.48 -0.34 2.38 2.38 0 0 0 -2.82 -1.6c-0.18 0 -0.28 0.58 0 0.52a2.44 2.44 0 0 1 2.34 1.42zM218 152c0 -0.28 -0.52 -0.24 -0.52 0a16.26 16.26 0 0 0 0.28 2 0.28 0.28 0 0 0 0.5 0 16.76 16.76 0 0 0 -0.26 -2zm-12.16 0a2.88 2.88 0 0 1 1.66 -2.2v-0.34a0.32 0.32 0 0 0 -0.34 0 3.02 3.02 0 0 0 -2 2.4c-0.08 0.32 0.46 0.54 0.68 0.14zm2.42 3.72c0 -0.34 0 -1.7 -0.14 -2s-0.14 -0.18 -0.28 -0.18 -0.2 0.14 -0.26 0.24a15.7 15.7 0 0 0 0 2 0.34 0.34 0 1 0 0.68 -0.06zm8.18 4.14c0 0.24 -0.16 0.38 -0.34 0.48 -0.54 0.24 -1.42 0.14 -1.66 0.72a0.42 0.42 0 0 0 0.44 0.6c1.46 -0.5 3.24 -0.72 2.18 -2.54s-1.88 -3.1 -2.9 -4.62c-0.16 -0.24 -0.5 0 -0.34 0.2 0.62 1.4 2.52 4.82 2.62 5.16zm-2.58 8.74a4.22 4.22 0 0 1 3.12 -2 1.34 1.34 0 0 0 1.02 -0.6c0.44 -0.96 -0.62 -1.66 -1.5 -1.2a5.74 5.74 0 0 0 -3.02 3.78c-0.06 0.06 0.28 0.22 0.38 0.02z" stroke-width="1"></path><path d="M389.84 356.54a99.8 99.8 0 0 0 -13.52 -0.26c-0.64 -0.52 -1.7 -1.4 -2.54 -2.14a0.38 0.38 0 0 0 -0.52 0c-3.8 3.12 -7.74 6.14 -11.62 9.2 2.5 -3.5 6.62 -10.38 8.3 -13.46 1.58 0 9.26 0.58 14.68 0.58a0.42 0.42 0 0 0 0.4 -0.3c0.82 -4.96 0.88 -10 1.84 -14.88a0.38 0.38 0 0 0 -0.38 -0.48c-3.46 -0.28 -16.78 -1.36 -20 -1.56 5.84 -4.66 6.52 -4.62 6 -5.2 -4 -5 -8 -10 -12.4 -14.58a0.36 0.36 0 0 0 -0.48 0 32.22 32.22 0 0 0 -5.14 5.3c0.14 -2 0.48 -6.12 0.42 -6.18a0.44 0.44 0 0 0 -0.38 -0.38c-3.88 -0.2 -19.3 -1.12 -23.1 -1.16a59.04 59.04 0 0 0 -8.36 -11.18c-0.32 -0.34 -0.34 0 -4 2.42a41.88 41.88 0 0 0 -3.88 -4.56 1.56 1.56 0 0 0 -1.28 -0.5 58.24 58.24 0 0 0 -7.34 4c-12.26 -8.46 -12.34 -9.48 -12.82 -8.98l-4 3.78c0.28 -0.86 1.02 -3.06 1.02 -3.1a0.42 0.42 0 0 0 -0.24 -0.5c-8.86 -1.74 -17.7 -3.64 -26.54 -5.24l2.32 -4.38a0.42 0.42 0 0 0 -0.24 -0.62c-7.62 -1.8 -15.02 -4.58 -22.6 -6.48 0 -2.86 0.48 -13.56 0.48 -16a55.66 55.66 0 0 0 11.14 11.18c4.56 3.4 22.5 6.76 28.78 -4.32 5.18 -9.18 8.42 -14.94 11.62 -26.12a83.02 83.02 0 0 0 2.28 -9.56c1.46 1.24 4 0.18 4 -3.42a37.38 37.38 0 0 0 -3.4 -12.88c0.58 -0.1 8.36 -3.54 8.36 -3.54a28.5 28.5 0 0 0 4.36 5.16c0.88 0.28 24.32 -14.68 24.36 -15.18s-26.1 -36 -26.1 -36 -23 12.64 -24 13.22a0.46 0.46 0 0 0 -0.14 0.54c3.74 5.2 10.94 15.8 10.94 15.84a42 42 0 0 0 -5.16 9.58 4.82 4.82 0 0 0 -1.36 -0.68c-3.4 -1.22 -5.68 1.74 -4.56 3.88 0 0 -15.76 17.84 -16.78 18.76 0.2 1.62 0.3 16.2 0 17.22 0 0.34 -0.52 0.24 -0.58 0 0 -0.98 0 -16.18 -0.28 -18.18a56.9 56.9 0 0 0 -12.96 -23.2 66.46 66.46 0 0 0 -22.6 -14.88 148.84 148.84 0 0 0 -14.18 -4.62 3.22 3.22 0 0 0 -0.16 -0.96 4.36 4.36 0 0 0 -4.46 -3.54s0.44 -1.26 2.28 -1.02a8 8 0 0 0 7.48 -3.8c4.38 -6.5 0.52 -21.52 -2.48 -28.18a8.72 8.72 0 0 0 1.8 -13.86 4.2 4.2 0 0 0 -4 -1.32 6.62 6.62 0 0 0 -3.82 -5.82 4.98 4.98 0 0 0 -6.32 2.2 7.38 7.38 0 0 0 -5 -3.02 4.42 4.42 0 0 0 -4.68 2.92 7.22 7.22 0 0 0 -6.52 -1.22 4.52 4.52 0 0 0 -2.8 5.5 4.26 4.26 0 0 0 -6.62 3.06c-0.2 2 0.98 4.38 -0.44 5.88a8.54 8.54 0 0 1 -2.34 1.26 5.02 5.02 0 0 0 -1.6 7.2 2.22 2.22 0 0 1 0.2 1.36 5.62 5.62 0 0 0 3.3 7.48c-2.74 11.84 7.18 7.28 8.22 14.3v8.64c-2 -1.06 -5.32 0.52 -5.64 4.86 -0.1 0 -17.02 5.26 -24 10.32a56.64 56.64 0 0 0 -21.64 31.5c-0.14 1.3 0 15.02 0 16a0.3 0.3 0 0 1 -0.58 0c-0.24 -0.98 -0.2 -15.12 0 -16.54 -2.42 -2.14 -11.86 -10.6 -14.1 -14.96a2.96 2.96 0 0 0 -0.92 -4.24 4.7 4.7 0 0 0 -5.1 1.42 39.16 39.16 0 0 0 -4 -10.8s6.76 -9.68 7.44 -10.94a2.84 2.84 0 0 0 0 -3.2 249.58 249.58 0 0 0 -21.6 -14.34c-1.2 -0.24 -2.52 1.22 -2.86 1.56l-29.12 33.3c-0.14 0.14 -0.14 0.5 0.1 0.58 6.96 3.26 23.58 12.88 25.14 14a3.48 3.48 0 0 0 4.38 0.54c0.62 -0.48 5.38 -6.7 6.5 -8.12 0.4 0.5 5.88 6 6.28 6s-6.36 9.66 -4.14 13.28a1.58 1.58 0 0 0 2.44 0.42c0 0.2 10 29.18 13.16 34.42 2.88 4.72 6.24 9.54 12 10.94 0.78 0.2 16.28 4.96 29.02 -16.18 0 7.28 0.68 26 0.64 28.1 -2.82 1.84 -5.64 3.64 -8.52 5.48 -4.56 -3.4 -9.38 -6.5 -14 -9.86a0.36 0.36 0 0 0 -0.44 0c-5.88 5.02 -12 9.78 -18 14.84 -0.18 0.14 0 0.42 0 0.52 1.12 0.68 2.18 1.36 3.3 2.1 -0.64 0 -13.86 1.3 -16.62 1.8 -0.48 -0.1 -8.9 -2.48 -10 -2a92.54 92.54 0 0 0 -5.48 8.7c-2.2 -0.2 -23.14 -0.58 -27.82 -0.98a0.38 0.38 0 0 0 -0.34 0.3c-0.14 0.68 -0.28 1.36 -0.44 2 -1.12 0.14 -12.3 2.22 -14.82 2.66 -0.14 0 -0.3 0.24 -0.2 0.4 0.88 2.56 3.22 9.48 3.5 10.3 -1.12 -0.2 -18.62 -2.38 -20 -2.58a1.42 1.42 0 0 0 -1.16 0.2c-0.34 0.34 -4 15.56 -4 15.6 -4.34 2.1 -8.6 4.24 -12.94 6.36a0.36 0.36 0 0 0 -0.14 0.5c1.7 2.76 3.36 5.64 5.2 8.3 -1.7 0.54 -8.46 2.58 -10.16 3.16a0.26 0.26 0 0 0 0 0.5 136.56 136.56 0 0 0 13.48 5.34c0.92 0 9.76 -10.54 11.28 -12.54a121.8 121.8 0 0 0 7.18 12.24c-6.8 2 -24.2 6.76 -26 7.2a0.28 0.28 0 0 0 0.14 0.54c3.44 -0.58 16 -4 18.8 -4.86 1.32 0.92 7.16 4.46 8.32 5.1a0.36 0.36 0 0 0 0.48 0c1.28 -1.46 4.44 -5.06 4.78 -5.36 1.54 3.66 3.34 7.24 5.04 10.84a0.34 0.34 0 0 0 0.4 0.16 71.2 71.2 0 0 1 14.92 -3.42 0.38 0.38 0 0 0 0.34 -0.48c-1.6 -4.12 -3.16 -8.22 -4.76 -12.3 1.02 0.54 2 1.08 3.06 1.66a0.34 0.34 0 0 0 0.48 -0.14c0.48 -0.98 1.02 -2 1.56 -2.82 1.9 3.44 4 6.74 6 10a0.38 0.38 0 0 0 0.54 0.14c3.68 -1.84 21.18 -10 22 -10.4l11.32 8a0.38 0.38 0 0 0 0.54 -0.14c2.56 -5.26 8.84 -15.28 8.84 -15.32l2 -0.64c-1.74 6.82 -3.2 13.66 -4.86 20.52a0.36 0.36 0 0 0 0.34 0.44q13.86 1.84 27.72 3.6c0.72 0 0 -1.06 0.96 -10.3a131.42 131.42 0 0 0 12.9 17.16c0 0.14 0.38 0.14 0.52 0a134 134 0 0 1 20.28 -11.32 0.46 0.46 0 0 0 0 -0.68c-0.44 -0.54 -0.88 -1.06 -1.28 -1.6a238.66 238.66 0 0 0 28.66 3.46 0.4 0.4 0 0 0 0.38 -0.3c0.24 -1.08 0.54 -2.14 0.84 -3.2 0.82 0.48 4.36 2.22 5.28 2.72a0.4 0.4 0 0 0 0.4 0c2.58 -2.58 14 -14 15.16 -15.22 1.02 5.84 2 11.72 2.98 17.56 -8.9 1.46 -31.56 5.2 -34 5.64 -0.44 -2.58 -1.08 -5.16 -1.66 -7.74 0 -0.24 -0.48 -0.18 -0.44 0 0.3 2.76 1.02 5.44 1.46 8.16a0.34 0.34 0 0 0 0.44 0.24c9.04 -1.4 32.18 -5.24 34.7 -5.68 0.48 -0.1 0.32 -0.26 -0.88 -6.8 0 0 19.46 -2.3 23.34 -2.78 0.24 0 0.48 -0.24 0.4 -0.48 -0.84 -2.54 -1.7 -5.02 -2.54 -7.5 1.86 -1.2 3.64 -2.46 5.44 -3.74 1.22 3.56 2.82 7 4.28 10.5a0.38 0.38 0 0 0 0.44 0.24l5.02 -1.74c-0.84 2.76 -1.46 5.58 -2.2 8.4a0.36 0.36 0 0 0 0.34 0.44 180 180 0 0 1 23.24 4.28 0.36 0.36 0 0 0 0.48 -0.28c0.54 -2.3 1.08 -4.62 1.6 -6.92 2.3 0.94 4.54 1.86 6.82 2.74 0.18 0 0.38 0 0.44 -0.26 0.96 -3 2 -6 2.9 -9.04a27.16 27.16 0 0 0 4 3.06c0.2 0.16 0.4 0 0.54 -0.14a114.2 114.2 0 0 1 9.14 -9.66c1.32 1.36 16.58 14.14 17.36 14.62 0.28 0.2 0.52 -0.2 0.34 -0.44 -0.64 -0.72 -10.22 -8.64 -10.94 -9.24L334 362a0.4 0.4 0 0 0 0.44 -0.26 109.24 109.24 0 0 1 4.82 -13.22l3.44 -0.44c0.16 1.22 2.78 14.74 3.16 16.14 0.1 0.3 0.58 0.26 0.54 0 -0.24 -2.1 -0.72 -4.14 -1.16 -6.24a104.66 104.66 0 0 0 15.16 -2.22 0.38 0.38 0 0 0 0.24 -0.5c-1.06 -2.52 -4.12 -12.58 -4.86 -14.96 4.66 2.62 9.34 5.2 14 7.68 -1.36 2.58 -9.52 15.9 -9.52 15.9s-3.5 2.9 -5.46 4.56c-0.18 0.14 0 0.48 0.26 0.34 6.22 -4.56 12 -9.52 18.22 -14.2 1.4 1.32 7.38 6.72 9 8a0.34 0.34 0 1 0 0.48 -0.48c-1.46 -1.46 -5.74 -5.16 -6.32 -5.68 0.32 0 11.4 0.48 13.08 0.34 0.48 0.26 0.6 -0.18 0.32 -0.22zm-30 -42.34c4.12 4.52 8.12 9.22 12 14 -1.4 1.12 -8.12 6.12 -8.7 6.86a0.24 0.24 0 0 0 0.3 0.38 13.46 13.46 0 0 0 2.52 -1.8c3.4 0.4 16.2 1.52 19.2 1.76a129.22 129.22 0 0 1 -12.3 8 70.22 70.22 0 0 0 -8.74 -7.78c-0.14 -0.14 -0.4 0.16 -0.24 0.3 8.1 6.68 8.42 8.66 9.08 8.22a111 111 0 0 0 13.12 -8.56c-0.86 4.66 -0.92 9.42 -1.7 14.1 -4.7 0 -9.42 -0.54 -14 -0.34 0.18 -0.34 0.38 -0.68 0.52 -1.02a0.38 0.38 0 0 0 -0.14 -0.54c-4.62 -2.44 -9.18 -4.96 -13.76 -7.48 0.1 0 5.36 -2 5.84 -2.38s0.18 -0.22 -7.24 -15.08a0.38 0.38 0 0 0 -0.5 -0.14c-5.34 2.68 -10.68 5.34 -16 8.12 -0.62 -2 -1.84 -6 -1.84 -6.18s-0.24 -0.34 -0.4 -0.14 -4.66 0.88 -6.8 1.4c-0.38 -1.7 -0.78 -3.34 -1.02 -5.1 -0.12 -0.5 -0.38 -0.14 -6.94 1.16 2.96 -1.36 5.68 -3.16 8.6 -4.6 2.52 2.38 5.04 4.76 7.58 7.08a0.36 0.36 0 0 0 0.44 0s14.74 -10.6 15.46 -11.14c-0.24 3.02 -0.5 6 -0.68 9 0 0.48 0.72 0.48 0.76 0 0 -0.92 0.16 -1.8 0.2 -2.72 1.68 -1.8 3.54 -3.58 5.38 -5.38zm-4.38 25.22a0.42 0.42 0 0 0 -0.54 0.14l-0.86 1.32c-1.56 0.78 -9.1 4.66 -10 5.2 -0.84 -2.44 -1.6 -4.86 -2.44 -7.3 0.78 0.26 4 0.88 4.82 1.08a0.34 0.34 0 0 0 0.38 -0.14c1.42 -2.78 7.68 -14.84 8.28 -16.1 2.32 4.66 4.6 9.34 6.9 14 -0.34 0.14 -5.5 2.14 -5.74 2.28a6.36 6.36 0 0 1 -0.8 -0.48zm-31.3 9.68c-0.64 -3.16 -1.26 -6.28 -1.86 -9.44l8 -1.8c-0.1 0 11.56 9.2 12.44 9.78 -6.18 0.78 -12.36 1.22 -18.58 1.46zm-12.88 -7.5c-1.42 -1.12 -2.78 -2.22 -4.14 -3.44l4.52 -2.48a0.38 0.38 0 0 0 0.14 -0.54l-3.58 -5.14a60.92 60.92 0 0 0 8.94 1.7c0.28 0 1.24 -3.6 3.1 -8.62l8.12 -1.74a125.38 125.38 0 0 0 4.52 15.26c-3.54 0.78 -19.92 4.48 -21.62 5zm6.22 6.14c-5.66 0 -13.46 -0.36 -20.72 -1.08 -0.14 -0.88 -0.24 -1.7 -0.38 -2.58 3.36 -1.84 6.76 -3.64 10.12 -5.48 3.12 2.78 11.48 9.14 10.98 9.14zm-24.98 -2.4c-4 -6 -6.4 -10.72 -8.32 -13.9 6.94 4.68 7.28 5.8 7.72 5.36q6.14 -5.86 12 -12l7.1 10.44c-6.22 3.36 -12.38 6.76 -18.5 10.1zm-8 0.98a20 20 0 0 0 -3.36 4.96c-2.72 -2 -13.66 -10 -16.48 -11.9l0.96 -0.26c0.2 0 0.34 -0.28 0.26 -0.42 -1.22 -3.12 -2.58 -6.18 -4 -9.2 1.66 0.1 6.48 0 7.2 0 0.64 1.64 2.96 8.5 3.3 10.3a0.46 0.46 0 0 0 0.4 0.3c1.64 -0.2 8 -0.84 9.42 -1.02L280 342c-0.42 0.38 1.12 1.28 4.5 4.32zm4.7 4c1.22 2.96 6.18 14.72 7.44 17.34l-20.66 -8.4c1.42 -2.58 2.88 -5.16 4.18 -7.78 0.3 0.18 0.58 0.44 0.88 0.62s0.44 0 0.48 -0.14a22 22 0 0 1 3.36 -5.34c1.44 1.38 2.84 2.38 4.3 3.6zm-28.86 -9.78c1.26 1.5 2.52 2.96 3.78 4.48a176.86 176.86 0 0 1 -18.74 12.98c-1.36 -2.3 -5.76 -10 -6 -10 3.4 -1.32 6.74 -2.64 10.16 -4 0.18 -0.1 0.38 -0.34 0.24 -0.54l-0.4 -0.58c4.6 -1 10.46 -2.44 10.94 -2.44zm-61.4 11.72c-3.5 2.44 -13.16 9.12 -14.2 10 -3.02 2 -2 1.38 -6.86 -4.62l8.76 -6a0.38 0.38 0 0 0 0.1 -0.58c-3.02 -3.54 -6 -7.1 -9 -10.7 3.84 0.84 7.68 1.46 11.58 2a47.76 47.76 0 0 0 9.6 9.8zm-21.1 16.28a131.64 131.64 0 0 0 -19.26 10.74 152.46 152.46 0 0 0 2.3 -19.74 0.42 0.42 0 0 0 -0.4 -0.38 40.7 40.7 0 0 1 -14 -2.96l11.72 -4c0 0.16 5.66 9.4 7.72 12.84a0.46 0.46 0 0 0 0.54 0.14c2 -1.26 3.8 -2.58 5.7 -3.84zm-75.16 -14a141.58 141.58 0 0 1 -10.16 -19.46c0.2 0 25.44 5.22 28.92 5.5a0.22 0.22 0 0 0 0.2 -0.34c0.16 -0.14 4.38 -6.62 4.48 -6.86 2.96 1.18 12.48 5.6 14.34 6.66 0.24 0.64 0.44 1.32 0.68 2zm-3.3 -4.18c-0.76 0 -6.24 0.48 -7.68 0.72 1.76 -1.7 3.6 -3.36 5.26 -5.16 0.74 1.38 1.58 2.84 2.4 4.3zM132 305.24c1.56 1.08 3.12 2.2 4.62 3.32a180.68 180.68 0 0 0 -2.14 11.66c-4.32 -0.58 -24.24 -2 -26.54 -1.8a0.2 0.2 0 0 0 0 0.38c2.24 0.26 22.32 1.62 26.74 2.2 0.92 0 0 0.12 2.58 -12 2.68 2 10.12 8 11.22 9 -4.56 2.82 -26.62 16.28 -26.92 16.28s-0.68 -0.24 -0.98 -0.54c-1.84 -2 -12.82 -14.72 -13.02 -15.22S130 306.32 132 305.24zm19.02 14.88c0.38 0.38 0.16 0.28 7.34 -5.84 0.72 0.3 1.4 0.6 2.14 0.88 -7.74 10.88 -12.84 19.26 -16.92 25.72a80.56 80.56 0 0 0 -17.36 -8.32l22.94 -14c0.58 0.54 1.16 1.08 1.8 1.56zm-5.6 -19.84c1.8 0 28 -3.74 30.3 -4.12a0.44 0.44 0 0 0 0.28 -0.44c0 -5.34 0.2 -10.64 0.24 -16 2.34 1.22 12.7 6 13.72 6.32 -9.76 6.24 -12.28 7.66 -11.76 8 1.88 1.52 3.84 2.98 5.82 4.38 -3.16 2.1 -17.64 11.62 -19.34 12.4 -0.06 0.06 -17.9 -9.76 -19.32 -10.54zm30 -20c-0.1 5 -0.14 10 -0.3 14.96 -8 1.32 -27.5 3.76 -29.36 4 5.98 -3.38 27.6 -17.48 29.6 -18.88zm15.1 -94.08c-3.78 0.44 -3.16 4.76 -3.16 4.9a9.84 9.84 0 0 1 -2.38 -4.56 3.12 3.12 0 0 1 4 -2.38 5.8 5.8 0 0 0 1.54 2.04zm26.26 -4.32a9.68 9.68 0 0 1 -0.2 3.78 3.52 3.52 0 0 0 -3.64 -1.7c1.4 -3.5 3.78 -2.08 3.84 -2.08zm5.22 107.18c0.78 0.26 1.6 0.54 2.44 0.78 -6 3.44 -26 15.56 -26.84 15.7a3.66 3.66 0 0 1 -2.42 -0.74c-0.78 -0.48 -14.26 -9.48 -16.14 -10.84 2.92 0.1 24 -0.96 27.02 -1.4 1.12 -0.14 2 -0.48 2.24 -1.76a72 72 0 0 0 -0.88 -14.92c2.82 1.6 16.34 9.38 16.92 9.64l-2.52 2.9a0.4 0.4 0 0 0 0.18 0.64zm5.26 1.74c-0.44 4 -0.68 8.12 -0.98 12.22 0 0.14 0.14 0.34 0.24 0.34 8.82 1.6 16.4 4 26 5.88a3.14 3.14 0 0 0 0.3 0.38c-5.5 2.18 -20 8.46 -21.74 9.14a117.88 117.88 0 0 0 -14.82 -16.28 32.54 32.54 0 0 0 -4.86 -4c0.84 -0.48 8.72 -5.32 14 -8.36a18 18 0 0 0 1.88 0.68zm32.2 5.2c0.88 1.9 1.8 3.8 2.72 5.68 0.2 0.6 0 -0.12 27.66 -8 -1.9 5.54 -3.64 11.12 -5.54 16.66 -10 -1.64 -34.9 -8 -37.54 -8.94 -2 -2 -4.22 -4.12 -6.16 -6.32 1.22 0.4 7.34 2.44 9.18 3.02 3.62 1.18 6.66 2.96 8.6 -0.2 0.34 -0.52 0.74 -1.16 1.08 -1.9zm62.8 4.86c-0.48 1.76 -2.24 9.14 -2.42 11.04 -2 -0.5 -8.9 -2 -10.42 -2.28 2.3 -1.26 10.76 -7.24 12.84 -8.7zm0.14 12.54c-2.86 0.78 -17.3 5.44 -18 5.74l-5.1 -4.24c1.8 -1.84 3.6 -3.68 5.34 -5.54 1.36 0.4 14.94 3.32 17.76 4.1zm-5.68 17.6c0.2 0 -8.48 -1.82 -8.9 -1.84l-3.4 -4.96c0.82 -0.88 1.6 -1.7 2.38 -2.64a0.32 0.32 0 0 0 0 -0.48s-1.26 -1.02 -1.7 -1.4c0.62 -0.2 15.2 -4.78 18.18 -5.88 -1.28 2.72 -5.68 14.2 -6.56 17.26zm-25.04 5.06c-3.1 -2.44 -6.36 -4.68 -9.72 -6.86h1.08a0.44 0.44 0 0 0 0.38 -0.48c-0.54 -3.02 -1.02 -6 -1.46 -9.04 0 0 23.1 1.74 24 1.7a201.3 201.3 0 0 1 -14.28 14.74zm-30 -7.1c-1.56 -3.3 -3.16 -6.56 -4.76 -9.88 0.72 0.74 1.5 1.46 2.24 2.2 0.22 0.22 -0.74 0.64 21.2 -10.16a153.04 153.04 0 0 0 2.18 17.36c-3.4 0.1 -19.14 0.34 -20.9 0.54zm-9.42 -18.28c3.34 7.22 9.54 19.48 11.66 24.88 -6.96 -3.68 -14 -7.28 -21 -10.64 1.26 -4 2.68 -8 3.84 -12 1.76 -0.68 3.6 -1.4 5.46 -2.18zm1.36 -0.54c0.24 0 0.44 -0.38 0.24 -0.62a38.72 38.72 0 0 0 -5.84 -6.82c10.3 2.54 30.68 7.5 32 7.68q-10.34 5.04 -20.62 10.22a37.2 37.2 0 0 0 -3.3 -3.12c-0.36 -0.82 -1.1 -2.2 -3.3 -7.04zm45.06 4.24c-0.64 -0.5 -6.56 -5.46 -8.94 -7.4 1.46 -0.1 18 -2.32 18.36 -2.38 -1.4 1.4 -7.76 7.94 -9.46 9.84zm6.52 6.22c-0.54 0 -23.2 -1.36 -23.2 -1.32 -0.38 -2.82 -0.68 -5.68 -0.88 -8.5 3.64 0.3 3.74 0.52 3.84 0.1 0.64 -2 1.28 -3.84 2 -5.8 0.54 0.7 17.84 15.34 18.2 15.58zm-66 -26c3.58 4.46 9.2 8.76 12.8 13.6 -8.5 -1.56 -17.88 -4.46 -24.9 -5.62 0.24 -4 0.58 -7.78 0.74 -11.72zm-22.8 40c-0.58 -1.22 -6.74 -14.1 -9.32 -19.2l12.64 -4.72c-0.68 1.36 -3.8 9.28 -3.8 9.28a0.34 0.34 0 0 0 0.24 0.4c8.66 1.4 16.3 6.26 24.94 7.82 -6.48 1.38 -23.1 5.94 -24.82 6.48zm-20 -2c0.72 -6.5 1.18 -7.04 0.58 -7.04 -1.22 -0.24 -2.44 -0.5 -3.6 -0.68 0.82 -0.5 1.64 -0.92 2.42 -1.46 0.16 -0.1 0.3 -0.4 0.16 -0.54s-1.56 -2 -2 -2.62c2.42 -0.74 10.84 -4 12.64 -4.68 2.32 5.12 4.76 10.16 7.18 15.22 -3.04 0.36 -16.16 1.62 -17.46 1.86zm-17.08 1.7c-0.72 -0.62 -1.4 -1.3 -2.14 -2 14.46 -6 15.22 -7.26 15.22 -6.9 4.14 0.92 4.14 0.68 4 1.06a69.66 69.66 0 0 0 -17.16 7.9zm-1.1 -31.16a221.74 221.74 0 0 1 15.44 18c-0.58 -0.16 -20.94 -3.08 -21.52 -3.16 1.04 -8.56 1.34 -8.98 1.54 -12 0.74 -0.38 0.7 -0.42 4.46 -2.78zm15.88 2c2.94 1.88 3.64 1.68 6.56 -0.1 4 -2.32 5.84 -3.46 6.24 -3.7 -0.54 2.4 -1.12 4.82 -1.62 7.2 -11.18 -0.14 -16.88 -0.92 -22.16 -1.06l-4.22 -4.68 6 -3.78C188 301.42 192 304 194 305.1zm27.9 4L193.54 320c-3.26 -4.12 -6.66 -8.12 -10.12 -12 3.56 0.52 18.28 1.2 22 1.36 0.48 0 0.26 -0.22 2.18 -8.52 1.18 -0.68 2.34 -1.4 3.5 -2 0.08 -0.16 9.96 9.32 10.9 10.24zm-5.44 10.8c0.64 -1.56 1.22 -3.12 1.86 -4.62s1.36 -3.12 1.84 -4.76c0.72 -0.3 1.5 -0.58 2.24 -0.82 8.56 9.44 7.84 10.3 8.7 10 1.7 -0.74 3.4 -1.52 5.14 -2.24a101.12 101.12 0 0 0 4.78 10.1c-8.54 -1.6 -16.08 -6.26 -24.64 -7.72zm-9.72 -43.56c0.44 2.82 0.82 11.48 0.78 12.94 0 0.58 0.14 1.7 -0.34 2.14 -1.24 1.22 -24 1.7 -27.52 2 3.32 -2.16 25 -15.88 27 -17.14zm5.56 -91.78a3.1 3.1 0 0 1 3.8 2c0.24 2 -1.9 4.32 -2.72 5.3a4 4 0 0 0 -3.8 -4.62 31.66 31.66 0 0 0 2.72 -2.68zm-3.5 3.16a4 4 0 0 1 3.7 4.96 15.78 15.78 0 0 1 -5.06 3.16 6 6 0 0 0 -2.34 -6.42 16.28 16.28 0 0 0 3.7 -1.7zm-4.82 2c2.64 0 3.42 5.68 2.44 6.42a19 19 0 0 1 -7.04 0.86 6.32 6.32 0 0 1 0.34 -6.94 16 16 0 0 0 4.18 -0.3zM198.6 197a33.64 33.64 0 0 1 -5.64 -1.66c0 -0.2 -1.6 -4.72 2 -6.32a29.7 29.7 0 0 0 4 1.02 7.18 7.18 0 0 0 -0.36 6.96zm-6.76 -2.24a31.04 31.04 0 0 1 -3.6 -2.76c-0.38 -0.44 -0.82 -5.36 3.02 -5.2a31.68 31.68 0 0 0 2.76 1.74c-3.4 1.84 -2.28 5.98 -2.18 6.22zm-18.82 111.7c-0.34 2 -1.5 9.82 -1.84 11.86 0 0.2 0 0.48 0.3 0.48 4 0.6 22.4 3.42 23.12 3.76a2.26 2.26 0 0 1 0.34 0.48 142.4 142.4 0 0 1 -20 9.08c-0.3 -0.18 -12.94 -13.6 -14.6 -15.64l0.88 -1.26a0.38 0.38 0 0 0 -0.2 -0.54c-0.72 -0.3 -1.46 -0.54 -2.18 -0.82 1.22 -1.08 2.44 -2.1 3.64 -3.16 0.2 0 2.2 1.16 2.2 1.16s7.56 -4.92 8.34 -5.4zm-8.74 33c-2.2 -1.44 -12.16 -8.3 -13.38 -8.88 2 -3.26 8.36 -12.46 9.34 -13.86a143.42 143.42 0 0 0 11.38 12.98c-2.54 3.2 -4.92 6.52 -7.34 9.76zm-3.12 -1.16c1.52 3.54 3.12 7 4.68 10.5 -3.32 -1.06 -16 -7.68 -19.46 -9.38 0 -0.78 0.2 -1.56 0.26 -2.28 1.3 -2 2.66 -4.18 4 -6.28 0.94 0.88 9.22 6.52 10.52 7.44zm-39.86 -3.16a30 30 0 0 0 4.34 -2.24s-4.38 6.76 -4.44 7c-2.28 -0.58 -25.56 -5 -27.5 -5.3 6.76 -2.38 13.56 -4.76 20.32 -7.28 1.54 1.84 6.16 7.72 7.28 7.82zM142 342c-0.2 -0.48 -0.34 -1.02 -0.54 -1.5 1.7 0.96 2.22 1.6 2.48 1.08 0.68 -1.12 1.36 -2.24 2 -3.32 0 0.44 -0.14 0.88 -0.2 1.32s-0.18 0 10.4 5.78a67.8 67.8 0 0 0 8.56 4c-4.32 1.46 -21.44 7.3 -22 6.76s-3.86 -7.76 -6.14 -12c5.18 -1.78 5.64 -1.72 5.44 -2.12zm30.28 18.38c-0.18 0 -0.34 0.1 -0.42 0.3 -1.8 1.2 -3.66 2.42 -5.46 3.68 -2.52 -4.12 -5 -8.26 -7.58 -12.28 10.34 -3.46 9.5 0 3.16 -13.08 0.74 0.48 1.46 0.96 2.2 1.5 0.18 0.14 0.42 0 0.52 -0.14 1.86 -2.54 3.74 -5.02 5.6 -7.54l15.6 18.48c-4.56 2.9 -9.08 5.96 -13.66 9.02zM177.36 340c-2.2 -2.62 -4.38 -5.2 -6.62 -7.82 -0.2 0 0.2 -0.36 1.26 -1.9 2.42 2.66 2.66 3.26 4.48 2.44a15.64 15.64 0 0 0 2.82 2.42 171.44 171.44 0 0 1 16.82 -7.68 119.76 119.76 0 0 0 -1.36 14.58c-1.7 -0.2 -13.38 -1.46 -17.4 -2.04zm18.9 -6.76c1.36 0 6.62 -0.62 6.62 -0.62 0.48 0.28 5.88 1.3 7.04 1.56a152.32 152.32 0 0 0 2 16.72 130.54 130.54 0 0 0 -16 -12.3c0.08 -1.9 0.08 -3.7 0.34 -5.46zm14.14 0.26c-1.3 -0.26 -6 -1.12 -6.22 -1.12 0.3 0 6.82 -0.64 9.78 -0.78l1.84 3.78c0.16 0.46 0.6 0 6.38 -1.6 1.84 1.42 3.64 2.88 5.48 4.34a132.28 132.28 0 0 1 -15.06 12.48c-2.34 -14.12 -1.54 -17.2 -2.2 -17.2zm18 4.86a0.4 0.4 0 0 0 0 -0.54c-1.84 -1.42 -3.7 -2.82 -5.54 -4.28l5.88 -1.6a15.78 15.78 0 0 0 2 0.96c-1.06 3.22 -4.86 17.9 -5 19.46 -0.78 -1.22 -4 -6.22 -4.82 -7.34a89.84 89.84 0 0 0 7.52 -6.76zm3.3 -5.5a0.4 0.4 0 0 0 -0.18 -0.44l-1.46 -0.72c1.3 -0.34 2.66 -0.68 4 -0.98 0.9 3.44 3.78 11.18 5 14.34 0.26 0.52 -0.2 0.34 9.48 -1.84l0.3 0.44c-7.48 2.86 -14.92 5.72 -22.42 8.64 0.46 -1.56 4.18 -16.3 5.32 -19.54zm7.88 11.62c-2.24 -5.54 -4 -11.2 -5 -14l7.48 -1.74a0.32 0.32 0 0 0 0.2 -0.48s-4 -7.4 -5.4 -11.04q4.6 -2 9.18 -4c-1.4 4 -2.62 7.88 -4 11.82a0.32 0.32 0 0 0 0.14 0.38c7.38 3.66 14.72 7.3 22 11.18l0.72 1.86c-8.36 1.98 -16.9 3.98 -25.28 5.92zm42.98 -6s-8 0.64 -9.54 0.74a69.72 69.72 0 0 0 -3.4 -9.78l11.58 -0.14a21.88 21.88 0 0 0 2.42 2s1.18 2.54 1.76 3.6c-0.88 1.1 -1.86 2.34 -2.78 3.54zm53.9 -13.26c-0.68 1.3 -3.5 6.52 -4.22 7.82a58.52 58.52 0 0 1 -2 -6.66c2.04 -0.38 4.12 -0.76 6.26 -1.2zm-5.64 12.48 2.68 -0.58a0.32 0.32 0 0 0 0.2 -0.48c-0.44 -0.98 -0.84 -2 -1.22 -2.86 0.88 -1.42 3.64 -6.72 4.18 -8 0.58 1.8 5.34 16.34 7.1 21.68 -0.06 0.02 -12.9 -9.8 -12.9 -9.8zm15.56 1.52c-1.56 -0.34 -4.86 -0.92 -4.86 -0.92 -0.72 -2.3 -1.5 -4.52 -2.24 -6.82 5.1 -2.48 10.12 -5.1 15.12 -7.68 -0.54 1.04 -6.56 12.7 -7.98 15.38zm7.34 -26.3c-2.52 1.7 -12.68 9 -15.32 10.88l-7.24 -6.7a19.76 19.76 0 0 1 2.34 -1.02 0.44 0.44 0 0 0 0.24 -0.64c-0.62 -1.3 -1.32 -2.62 -2 -3.88 3.7 0.44 18.42 1.12 22.02 1.32zm-20.9 2.52c-4.28 1.76 -8 4.52 -12.16 6.52 3.06 -8 4.12 -8.76 3.26 -8.9a33.24 33.24 0 0 1 -3.64 -0.96 110 110 0 0 0 2.52 -11.38 66 66 0 0 1 10.06 14.68zm-19.34 -17.2c0.34 -0.14 0.62 -0.34 1.02 -0.14s3.24 3.78 4 4.62c-1.02 0.72 -7.58 5.2 -9.68 6.94 -1.26 -0.24 -2.52 -0.54 -3.78 -0.68l4.6 -4.9a0.4 0.4 0 0 0 0 -0.64c-0.88 -0.58 -1.72 -1.16 -2.54 -1.76 1.06 -0.42 5.24 -2.86 6.42 -3.48zM294 293c4.82 3.78 9.76 7.34 14.82 10.78 -0.18 0 -18 2.4 -19.64 2.78 -0.72 -0.64 -1.5 -1.22 -2.22 -1.84 0.86 -2.58 1.74 -5.2 2.62 -7.78 1.48 -1.32 2.94 -2.64 4.42 -3.94zm-4.52 0.1c-4.42 1.02 -22.32 6.46 -26.84 8 -0.92 -1.9 -1.84 -3.84 -2.86 -5.7 0.34 -0.68 3.02 -5.78 4 -7.62 8.56 1.92 17.16 3.52 25.72 5.32zm-24.12 -10.12c-1.5 2.88 -6.16 11.66 -6.94 13.22 -1.8 3.48 -2.58 3.16 -5.7 2.2l-30 -9.78c3.76 -4.52 9.08 -9.78 12 -13.56 1.66 0 28.72 7.44 30.66 7.92zm26.26 -77.2a11.24 11.24 0 0 1 2.86 3.7 3.84 3.84 0 0 0 -4.32 3.3c-0.24 -0.42 -1.56 -2.48 -2 -3 -0.16 -1.08 1.44 -4.92 3.48 -4zm1.12 12a6.14 6.14 0 0 1 4.86 -2.52 40.74 40.74 0 0 1 1.56 4c-0.74 3.32 -4 2.34 -4.92 1.7 -0.42 -1.08 -1.48 -3.22 -1.48 -3.26zm-0.24 -0.48c-0.64 -1.22 -1.28 -2.48 -2 -3.7 0 -1.08 1.62 -4.28 4.52 -3.16a40.92 40.92 0 0 1 2.3 4.22 6.14 6.14 0 0 0 -4.8 2.56zm7.34 13.26c-2 1.08 -2.74 -2.82 -3.16 -4a3.32 3.32 0 0 0 4.18 -0.2c0.18 1.34 0.22 3.46 -1 4.12zm0.82 -5.2c-1.08 2.38 -3.4 0.78 -4.32 0.44 -0.5 -1.26 -1.66 -3.84 -1.7 -4a3.48 3.48 0 0 0 4.86 -1.5c0.5 1.34 1.12 4.7 1.18 4.98zm11.22 -10.26c0.64 -3 3.7 -17.78 3.7 -18.52 3.7 0.92 18.92 4.38 18.96 4.38s-22 13.86 -22.54 14.06zm22 -15.26c-8.56 -2 -30.34 -7.24 -32.72 -7.88 1.32 -4.18 6.76 -21.28 7.88 -25.56 0.96 0.46 24.6 33.02 24.84 33.36zM308 166.76c-1.46 4 -4.42 14 -4.66 14.72a60.22 60.22 0 0 0 -16.52 -3.1c3.3 -1.86 21 -11.62 21.18 -11.62zm-21.72 12.14a60.14 60.14 0 0 1 16.82 3.36l-3.06 9.86a0.48 0.48 0 0 0 0.34 0.6c4.8 1.2 9.66 2.42 14.48 3.58 -0.24 0.7 -3.4 15.56 -4 18.68 0 0 -12.34 -15.26 -12.82 -15.9 3.12 -6 0.7 -7.68 -1.62 -4.9 -3.28 -5.06 -6.72 -10.18 -10.08 -15.28zm12.6 15.1a20 20 0 0 1 -1.36 4.56c0 0.16 -0.2 0.58 0 0.78 2.3 3.12 8.38 10.5 8.96 11.28 0 0 -7.74 3.4 -8.32 3.6a24.12 24.12 0 0 0 -6.7 -9.78c4.54 -8.76 7.18 -11.64 7.42 -10.44zm-12.5 10.5a3.84 3.84 0 0 1 4.44 0.44 4.4 4.4 0 0 0 -3.12 4.28 8.4 8.4 0 0 0 -2 -1.7s-0.72 -2.06 0.68 -3.04zm-70 -23.72a4.2 4.2 0 0 0 -4 2.52v-2s0.72 -2.38 2.38 -2.18a4.24 4.24 0 0 1 1.58 1.64zm-2.52 -2a2.12 2.12 0 0 0 -1.32 1.18l0.28 -1.22a3.04 3.04 0 0 1 1 0.06zm-16.92 -33.56c0 -0.44 -0.2 -1.26 0.24 -1.6s1.5 0.88 6.72 2a10.64 10.64 0 0 0 8 -1.46c2 -1.5 5.48 -1.82 7.04 0 0.54 1.22 2.78 7.16 3.26 8.94a54.6 54.6 0 0 1 1.8 10.3 15.04 15.04 0 0 1 -1.84 9.62 8.58 8.58 0 0 1 -3.4 2.98c-2.44 1.04 -3.36 0.2 -4.68 0.52 -2.38 0.5 -2.48 4.82 -2.14 7.3a15.26 15.26 0 0 1 -1.54 1.8 14.38 14.38 0 0 1 -16.98 1.8 26.32 26.32 0 0 1 -3.5 -2.98c0.4 -1.54 0.54 -16.28 0.64 -19.58a0.4 0.4 0 0 0 -0.2 -0.34 4.52 4.52 0 1 1 5.84 -6c0.2 0.44 0.82 0 0.72 -0.3 0.02 -1.18 0.02 -11.6 0.02 -13zm-10.5 35.68a2.4 2.4 0 0 1 3.16 -0.3c0 1.12 -0.14 2.2 -0.14 3.26a4.46 4.46 0 0 1 -0.64 -2c0 -0.28 -0.44 -0.28 -0.44 0a4.42 4.42 0 0 0 0.2 1.38 3.58 3.58 0 0 0 -3.74 1.44 6.2 6.2 0 0 1 1.6 -3.78zm-79.08 42.88c0.52 -1.22 1.12 -2.44 1.74 -3.6 0.54 3.26 2.82 3.1 2.88 3.1 -0.78 1.12 -1.56 2.24 -2.24 3.42 -0.06 0 -2.78 0.34 -2.38 -2.92zm10.64 -14.74c3.6 -0.62 3.12 3.36 3.06 3.56 -0.82 0.82 -1.64 1.7 -2.48 2.58a4 4 0 0 0 -3.6 -3.18zm-3.26 3.26a4 4 0 0 1 3.4 3.4c-0.82 0.92 -1.64 2 -2.48 2.88 -0.14 -0.1 -2.42 0.52 -3.44 -3.22a32.98 32.98 0 0 1 2.42 -3.06zm8.6 -3.7c0.46 1.7 -1.16 2.92 -1.54 3.26a3.02 3.02 0 0 0 -2.98 -3.54 5.66 5.66 0 0 1 2 -0.98 2 2 0 0 1 2.42 1.26zM118 182c-5.54 0.64 -11.14 1.18 -16.68 2 0 -0.44 -1.54 -9.82 -2.66 -14 1.02 -0.56 0.96 -0.22 19.34 12zm-20 -11.56c0.78 3.4 3.6 19.16 2.98 20.52 -1.14 2.42 -3.8 2 -31.76 12.34zm-1.7 48.22a2 2 0 0 1 -1.56 -0.14c-0.18 -1.76 -3.44 -21.48 -3.68 -21.84a0.32 0.32 0 0 0 -0.58 0.1c0 0.4 3.34 19.8 3.74 21.5 -0.2 -0.16 -21.78 -12.6 -25.38 -14.3 7.68 -2.48 26.68 -9.08 28.64 -9.76 3.54 -1.28 5.04 -2.34 4.52 -6.24 -0.16 -1.16 -0.3 -2.32 -0.5 -3.5 5.78 -0.48 17.5 -1.84 17.56 -1.84 0.96 0.64 2.14 1.46 1.84 2.72 -0.2 0.74 -5.64 9 -7.38 11.48 -0.1 -0.2 -1.12 -2.1 -1.86 -2.44a1.54 1.54 0 0 0 -1.84 0.68c-0.48 0.84 0.68 4.58 1.06 5.54 -4.54 5.38 -13.98 17.74 -14.76 18zm14.14 -2.18c-0.18 -0.34 -5.78 -5.6 -6.26 -6 2.48 -3.16 7.34 -9.56 7.34 -9.56a2.46 2.46 0 0 0 0 -0.26c-0.28 -0.92 -1.74 -4.66 -1.06 -5.34 1.26 -1.26 2.72 2.38 3.1 3.16a44.44 44.44 0 0 1 3.8 10.2c-2.04 0.9 -5.36 5.58 -7.1 7.76zm1.56 -0.64c1.02 3.5 3.22 3.3 3.36 3.3 -0.2 0.26 -2.72 3.5 -2.72 3.56s-2.44 0.44 -2.96 -3.16c0.1 -0.58 1.66 -3.06 2.14 -3.74zm-5.2 14.3c-1.04 -1.06 -0.32 -3.62 0.2 -5.02 0.54 2.3 2.24 2.34 2.48 2.34a22.64 22.64 0 0 0 -1.42 2.82 1.12 1.12 0 0 1 -1.44 -0.18zm44.48 65.32c-9.04 6 -9.86 3.34 2.2 10.22a100.22 100.22 0 0 1 -13.62 0.54c0.36 -5.56 1 -16.2 0.92 -21.78 4.38 3.16 8.9 6.12 13.28 9.28zm-10.98 -11.08c-0.4 7.26 -0.16 10.14 -1.08 22.12 0 0.2 0.16 0.3 0.34 0.34 5.12 0.64 10.16 -0.34 15.28 -0.38 2.38 1.3 4.76 2.62 7.14 3.88 -3.56 3.02 -7.06 6 -10.6 9.1 -2.74 -2.5 -13.9 -11.08 -14 -11.28 -3.24 -2.42 -8.64 -6.18 -14.14 -9.64 5.36 -4.84 11.24 -9.32 16.88 -14.18zM117.52 302c8.58 -0.94 8.18 -0.42 8.6 -0.82 1.8 1.2 3.6 2.38 5.4 3.64l-5.52 2.8a88.68 88.68 0 0 0 -16 -4.76c2.5 -0.24 4.98 -0.54 7.52 -0.86zM102 302c5.66 1.54 14.32 2.62 23 6.12l-8.6 4.42a78.86 78.86 0 0 1 -10 1.76c-4.4 -7.76 -6 -11.78 -6.52 -12.94A14 14 0 0 1 102 302zm-37.28 9.48c-0.58 2.82 -1.12 5.64 -1.7 8.46 -0.34 -0.16 -10.2 -4.86 -12.2 -6 2.28 -0.28 12.78 -2.14 13.9 -2.42zm-14 3.06c1.84 1.26 11.7 6 12.2 6 -0.4 2 -0.84 4 -1.22 6.12 0 0.44 0.58 0.64 0.68 0.2 1.22 -5.88 2.38 -11.76 3.54 -17.6a69.88 69.88 0 0 1 8 6c6.5 5.74 6.8 7.84 7.48 7.16 2.3 -1.9 4.72 -3.56 7.1 -5.26 0.24 -0.2 0 -0.54 -0.24 -0.38a34.9 34.9 0 0 0 -7.1 4.86 59.28 59.28 0 0 0 -14.34 -12.3 246.82 246.82 0 0 0 26.3 0.68c-0.5 0.82 -3.6 5.8 -4.76 7.78a0.44 0.44 0 0 0 0.24 0.62c2.58 0.5 5.1 0.98 7.64 1.52 -3.56 1.3 -7.06 2.62 -10.56 4 -1.42 -0.34 -8.42 -1.26 -12.82 -2 -0.2 0 -0.4 0 -0.44 0.24 -0.16 0.78 -0.3 1.56 -0.44 2.34 -5.5 1.5 -10.94 3 -16.44 4.56 -0.34 -1.22 -4.08 -12.22 -4.86 -14.5zm50 14.98c-3.44 -0.78 -18.22 -3.12 -19.5 -3.26 5.3 -2 16.1 -6 16.1 -6.12l4.56 1.06a43.42 43.42 0 0 0 -1.14 8.36zm-22 -3.08c-0.18 0 -0.34 0.3 -0.18 0.5l7.88 12.74 -16.78 -2.54a163.02 163.02 0 0 0 3.3 -14.48c2 0.28 9.82 1.46 11.62 1.6 -1.66 0.68 -5.6 2.18 -5.8 2.22zM58.16 346c-1.22 -2.32 -5.64 -12.36 -6.8 -14.94 6.8 -1.84 13.6 -3.78 20.46 -5.62 -0.24 1.2 -0.48 2.38 -0.74 3.54 0 0 -3.54 6.12 -4.12 7.34 -2.54 -0.92 -14.54 -5.26 -15.22 -5.3 -0.24 0 -0.28 0.34 -0.14 0.44 0.54 0.34 12.78 4.66 15.4 5.58a0.32 0.32 0 0 0 0.4 -0.14c0.58 -1.3 3.16 -6 3.34 -6.36a146.62 146.62 0 0 1 -1.74 6.94c-0.2 0.58 0 0.24 10.26 1.9 -4.52 1.44 -20.68 7.34 -21.1 6.62zm-24.84 -23.6c1.26 0.16 18.82 2.38 20.18 2.44 0 0.24 1.06 3.2 1.54 4.42 -1.4 0.38 -2.82 0.78 -4.22 1.22a0.32 0.32 0 0 0 -0.2 0.48c1.18 2.52 4.72 10.2 5.3 11.52a69.86 69.86 0 0 0 -6.56 4c-0.68 -0.3 -1.36 -0.54 -2 -0.82a134 134 0 0 1 -8.8 -12.84c-0.24 -0.5 -0.1 -0.34 -9.62 4.28 4 -15.1 3.06 -14.82 4.38 -14.7zm0.1 24.32c-5.74 -0.98 -11.52 -1.86 -17.3 -2.44l21.58 -10.54a43.26 43.26 0 0 0 -4.28 12.98zm-9.2 14c-0.6 0.54 -0.66 0.48 -13.26 -4.56 3.3 -0.88 22 -6.72 23.58 -7.24 -2.92 3.08 -9.54 11.08 -10.32 11.74zm10.66 -12.72c-4.68 1.56 -9.38 3 -14 4.46 -1.42 -2.66 -3.02 -5.24 -4.58 -7.82 5.8 0.88 11.62 1.7 17.42 2.68a0.36 0.36 0 0 0 0.42 -0.26 44.52 44.52 0 0 1 4.18 -13.06 52.2 52.2 0 0 0 7.54 11.02c-1.36 -0.48 -1.7 -0.82 -2 -0.58 -2.14 2.62 -4 5.44 -6.18 8.12 -2.26 -4.02 -2.32 -4.56 -2.8 -4.56zm8.64 20.4c-1.36 -0.76 -6.36 -3.78 -7.52 -4.52 0.42 -0.14 5 -1.46 6.84 -2a0.4 0.4 0 0 0 0.24 -0.52c-1.84 -2.74 -3.58 -5.5 -5.2 -8.32 2.24 -2.52 4 -5.4 6.28 -8 2.62 1.26 13.42 5.4 16 6.36 0.08 0.12 -16.04 16.4 -16.64 17.08zm5.54 -4.94c1.02 -1.04 3.6 -3.56 3.9 -3.8a40.82 40.82 0 0 0 6.86 3.26 99.32 99.32 0 0 1 -5.4 11.08s-3.5 -6.96 -5.36 -10.46zm19.46 7.34a65.68 65.68 0 0 0 -13.42 2.96 72.3 72.3 0 0 0 5.48 -11 0.34 0.34 0 0 0 -0.24 -0.42c-1.3 -0.4 -6.46 -2.88 -6.94 -3.16l4.36 -4.28c1.9 1.16 3.9 2.24 5.9 3.26 1.64 4.3 3.24 8.54 4.86 12.72zm-0.78 -11.28c-3.16 -1.7 -6.32 -3.46 -9.58 -4.96l3.06 -2.98a0.4 0.4 0 0 0 -0.2 -0.68c-3.78 -1.4 -7.52 -2.82 -11.28 -4.26 0.54 -0.26 6.18 -3.6 6.32 -3.8 1.56 3.4 1.68 3.88 2.24 4a92 92 0 0 0 9.82 -3.16c0 0.1 5.16 2.14 7.64 3.16a98.26 98.26 0 0 0 -8.02 12.76zm2.26 -2.56c5.66 -9.8 7.34 -10 6.42 -10.54l-7.4 -2.92 11.58 -4 6.26 0.94 0.94 1.5a0.32 0.32 0 0 0 0.42 0.14c0.94 -0.38 4.52 -1.74 5.36 -2.24a0.26 0.26 0 0 0 -0.2 -0.48 54 54 0 0 0 -5.06 2c-2.96 -4.76 -6 -9.52 -8.88 -14.24a2.48 2.48 0 0 1 0.52 -0.2c1.56 0.24 17.46 2.72 21 3.54a0.34 0.34 0 0 0 0.44 -0.34c0.2 -2.9 0.68 -5.68 1.16 -8.54 2.54 0.62 5.06 1.3 7.6 2 0.34 0.1 0.48 -0.44 0.14 -0.54 -3.5 -1.12 -17.5 -4.42 -20.96 -5.1 1.56 -2.52 8.22 -14 9.04 -15.22a2.74 2.74 0 0 1 1.02 -1.06c0.34 1.02 6.76 13.5 6.86 13.5 1.76 -0.14 6.9 -0.96 7.68 -1.16a68 68 0 0 0 -7 3.84c-0.54 0.74 0 1.42 0.54 2 2 2 5.88 6.9 6 7.1 -7.24 2.44 -14.44 5.06 -21.64 7.58 -0.24 0.1 -0.28 0.3 -0.2 0.54 1.52 3.56 3.22 7.04 5.02 10.46 -2.2 1.8 -4.24 3.84 -6.28 5.78 -0.36 0.36 0.2 0.62 0.4 0.82a36.28 36.28 0 0 0 -3.6 -0.72 0.56 0.56 0 0 0 -0.34 0.18c-1.8 2.68 -10.5 15.46 -10.56 15.46 -2.04 -3.5 -4.02 -6.86 -6.28 -10.08zm7.64 9.24c0.16 -0.24 4.38 -6.48 9.66 -14.18a25.54 25.54 0 0 1 5.36 1.3l4.9 3.5c-4.74 1.7 -15.42 7.06 -19.9 9.38zm32.12 -1.9 -18.32 -12.82c1.36 0 2.72 -0.16 4 -0.24a16.22 16.22 0 0 0 4.22 -0.44c2.62 4.46 2.58 4.48 2.92 4.36 5.16 -1.64 10.3 -3.34 15.46 -5.04a127.6 127.6 0 0 0 -8.26 14.18zm21.64 -18.52a0.6 0.6 0 0 0 0 0.26c2.38 3.06 4.68 6.16 7.06 9.28 -3.66 2.36 -18.86 12 -21.5 13.8 1.62 -6.7 3.32 -13.42 4.78 -20.18 3.26 -1.06 6.46 -2.14 9.68 -3.16zm12.6 27.14c-8.8 -1.18 -17.58 -2.3 -26.38 -3.42 1.8 -1.04 20 -12.68 21.78 -13.8a0.46 0.46 0 0 0 0.14 -0.54C137 352 132 345.6 132 345.54l4.18 -1.36c1.08 2.28 5.84 12.4 6.76 12.7a6.6 6.6 0 0 0 2.48 -0.5 122.34 122.34 0 0 0 -1.42 16.54zm1.36 -10.16c0.2 -2 0.5 -4 0.78 -6a39.64 39.64 0 0 0 14 3 176.86 176.86 0 0 1 -2 19.2c-4.46 -5.14 -8.5 -10.58 -12.44 -16.14a0.84 0.84 0 0 0 -0.44 -0.06zm60.44 6.56a182.5 182.5 0 0 1 -29.08 -3.7c-1.26 -1.6 -2.58 -3.2 -3.84 -4.76 1.56 -1.08 3.12 -2.1 4.66 -3.16 1.04 1.56 2.14 3.06 3.22 4.52a3.52 3.52 0 0 0 1.46 1.5 2.42 2.42 0 0 0 2 -0.38c0.84 -0.52 14.7 -10.2 15.62 -10.84a0.42 0.42 0 0 0 0 -0.68c-0.64 -0.5 -1.28 -1.02 -2 -1.56 4.18 0.48 8.36 0.98 12.54 1.4 -1.12 4.58 -0.98 3.16 -4.68 17.66zm6.94 -0.68c-1.74 -0.92 -3.44 -2 -5.24 -2.72 0.78 -3.02 1.6 -6 2.38 -9a155.4 155.4 0 0 1 17.74 -3.2c-1.16 0.96 2 -2.06 -14.98 14.92zm15.66 -15.66a156.52 156.52 0 0 0 -18.32 3.16c0.42 -1.56 0.82 -3.16 1.2 -4.72a0.34 0.34 0 0 0 -0.34 -0.44c-4.52 -0.42 -8.98 -0.82 -13.5 -1.16a48.58 48.58 0 0 1 -7 -7.48c1.6 0.2 3.24 0.34 4.86 0.48a0.38 0.38 0 0 0 0.38 -0.38c0 -1.12 0 -2.24 0.14 -3.4a163.66 163.66 0 0 1 16 12.68s1.1 0.3 1.02 -0.14c0 0 5.34 -4.14 8 -6.28 0.68 1.32 4 6.42 4.76 7.74 0.1 0.14 0.26 0.24 0.4 0.14l13.18 -5.06s2.42 4.66 3.64 6.86c-1.02 -0.58 -5.26 -3.32 -6.46 -2.78 -0.54 0.24 -5.64 4.52 -6.82 5.54 -0.24 -1.46 -0.52 -2.96 -0.78 -4.42a0.34 0.34 0 0 0 -0.46 -0.34zm2.52 12.16c-0.32 0 0.2 1.74 -1.4 -7 0 0 5.4 -4.24 6.56 -5.02a1.6 1.6 0 0 1 2 0c0.58 0.34 5.44 3.1 5.44 3.16l1.52 2.56a0.38 0.38 0 0 0 0.52 0.16 8.26 8.26 0 0 0 0.98 -0.64c1.12 0.74 7.1 3.74 7.1 3.74 -3.8 0.4 -21.8 2.8 -22.82 3.04zm22.36 -4.14s-5.14 -2.62 -6.26 -3.06c1.46 -0.92 2.92 -1.84 4.32 -2.78 0.66 1.96 1.22 3.9 1.84 5.84zm4.58 -10.3c2.42 -1.76 4.8 -3.6 7.14 -5.44a0.34 0.34 0 0 0 0 -0.54c-1.26 -1.5 -2.52 -3.02 -3.8 -4.52l2.92 -0.68c2.56 2 3.8 2.9 15.7 11.72 -0.86 1.4 -1.7 2.86 -2.52 4.32 -5.1 1.7 -10.12 3.6 -15.12 5.44 -1.46 -3.44 -2.78 -7 -4.42 -10.3zm30.48 21.54a161 161 0 0 0 -22.66 -4c0.68 -2.78 1.42 -5.6 2 -8.42 3.06 -1.06 6.12 -2.18 9.14 -3.3 -0.54 0.98 -1.02 1.9 -1.56 2.82a0.36 0.36 0 0 0 0.2 0.54l14.38 5.82c-0.54 2.1 -1.08 4.3 -1.6 6.54zm9.08 -4.92c-1.22 -2.68 -5.88 -13.86 -7.24 -16.42 1.42 1.16 9.82 7.72 10 8 -0.96 2.78 -1.88 5.6 -2.86 8.42zm7.48 -5.74c-1.6 -1.06 -22.54 -18 -24.1 -19.48 1.66 -2.24 3.4 -4.48 5 -6.72 0.68 1.18 4.86 8.26 6.32 10.6a0.4 0.4 0 0 0 0.5 0.14l3.24 -1.74c0.1 0.88 0.26 1.74 0.4 2.62 0 0.14 0.2 0.24 0.28 0.24a200 200 0 0 0 20.42 1.22c-1.84 2.24 -10.3 10.64 -12.16 13.12zm29.08 -0.14c-2.38 -0.88 -12.98 -4.76 -14 -5 -0.3 -0.24 -3.66 -3.16 -5.12 -4.24 1.28 -1.4 2.54 -2.86 3.7 -4.38a0.36 0.36 0 0 0 0 -0.42c-2.1 -1.9 -4.34 -3.66 -6.58 -5.4 1.66 -0.3 8.28 -1.8 10 -2.2 2 10 1.64 10.12 2.2 10.12 4.86 -0.1 9.72 -0.44 14.52 -0.98a55.46 55.46 0 0 0 -4.82 12.5zm26 -6c-2.38 0.64 -12.2 2 -14.68 2.34 -0.1 -0.48 -1.6 -8.12 -2 -9.38l1.22 -0.16c0.2 0 0.34 -0.28 0.24 -0.42s-0.24 -0.78 -0.38 -1.12c0.92 -0.34 7.86 -4 9.14 -4.72 -2.92 4.38 -5.84 8.7 -8.52 13.18a0.24 0.24 0 0 0 0.4 0.24c3.34 -4.62 10 -14.78 10 -14.78 0.26 2.34 3.46 12.32 4.44 14.74zM128.26 100.2c-0.16 0.24 0.18 0.44 0.34 0.2 6.76 -9.72 10 -29.56 -2.24 -41.62 -0.2 -0.18 -0.58 0.1 -0.38 0.3C139.38 77.4 130 97.4 128.26 100.2zm34.32 11.58a0.26 0.26 0 1 0 0.52 0.14 46.16 46.16 0 0 0 2 -26.2 0.28 0.28 0 0 0 -0.54 0.14c2.04 9.14 -0.56 21.78 -1.98 25.92zM133.02 20.72a38.56 38.56 0 0 1 32.32 12.7c0.2 0.24 0.54 -0.1 0.34 -0.34C159.66 25.64 150 18 132.98 20.2a0.26 0.26 0 0 0 0.04 0.52zm131.98 58a46.88 46.88 0 0 1 11.18 -32c0.2 -0.18 -0.1 -0.48 -0.3 -0.28 -11.88 11.56 -11.56 29.66 -11.42 32.28 0.06 0.34 0.58 0.34 0.54 0zm18.76 -17.02a46.66 46.66 0 0 1 10.84 -22.12c0.2 -0.24 -0.14 -0.58 -0.34 -0.34a40.78 40.78 0 0 0 -10.94 22.36c-0.04 0.26 0.4 0.4 0.44 0.1z" stroke-width="1"></path></g></svg>