<svg xmlns="http://www.w3.org/2000/svg" viewBox="0 0 400 400" id="Dance-1--Streamline-Milano.svg" height="400" width="400"><desc>Dance 1 Streamline Illustration: https://streamlinehq.com</desc><g fill="#000000" fill-rule="evenodd"><path d="M265.72 134.7c0 -1.38 0.32 -2 -0.4 -2.28a0.84 0.84 0 0 0 -1.16 0.8 13.72 13.72 0 0 0 0 1.48 0.82 0.82 0 0 0 1.56 0zm6.28 0.18a0.82 0.82 0 0 0 1.62 0c0 -0.88 0.28 -2.32 -0.92 -2 -0.7 0.1 -0.7 0.56 -0.7 2zm1.64 0zm-4.96 3.9c0.38 0 0.24 0 0.64 -0.36 -1.86 -2 -1.82 0.92 -0.76 -4 1.24 -5.7 -2.84 1.06 -2.28 3.46 0.24 1.02 1.34 1 2.4 0.9zm-0.1 5.44a3.5 3.5 0 0 0 5.06 -2.54c-0.3 -0.26 0.24 -0.82 -0.92 0a11.14 11.14 0 0 1 -3.36 1.66c-1.62 0.54 -0.88 0.52 -0.78 0.88zM264.72 114a18.16 18.16 0 0 1 3.38 -1.14 22.52 22.52 0 0 1 21.06 6.18 18 18 0 0 0 -6.36 -6.72 16.46 16.46 0 0 0 -6.48 -2 12.88 12.88 0 0 0 -10.66 2.68c-0.2 0.1 -1.14 1 -0.94 1zm22.18 87.4a96.72 96.72 0 0 1 -34.92 4c0 0.56 -0.12 0.86 0 0.66 13.36 2.6 29.24 -0.36 36.68 -4.68 -0.06 -0.34 0.68 -0.86 -1.76 0.02zm-47.66 51.6a0.8 0.8 0 0 0 -0.82 0.48c0 0.2 -4.9 11.22 -4.98 11.66a0.78 0.78 0 0 0 0.88 0.84c13.88 -1.84 12.58 -2.1 12.52 -2.32s-6.84 -10.5 -7.6 -10.66zm75.04 49.62c15.38 -2 14.2 0 8 -8.96 -2.82 -4 -2.68 -4 -3.14 -4s-7.14 13.08 -4.86 12.96zm-49.36 -92.88c-0.8 0 -8.66 10 -8.62 10.58s0 0.74 12.98 2c0.2 0 0.34 0 0.36 -0.34s-3.28 -9.8 -4 -11.84a0.8 0.8 0 0 0 -0.72 -0.4zm-5.76 -19.86c0 -0.2 -6.9 -10.48 -7.6 -10.64a0.8 0.8 0 0 0 -0.84 0.46c0 0.2 -4.9 11.24 -4.96 11.68a0.76 0.76 0 0 0 0.86 0.82c13.04 -1.7 12.6 -2.04 12.54 -2.32zM286 236a0.76 0.76 0 0 0 0.86 0.84c12.98 -1.7 12.6 -2 12.54 -2.32 -2 -4.92 -7.84 -9.66 -8.44 -10.18 -0.08 0.24 -4.96 11.26 -4.96 11.66zm12.66 39.52c-2.84 1.32 -14 6.66 -14.1 6.96a0.28 0.28 0 0 0 0 0.22c0 0.32 13.24 8.44 13.84 8.52a0.78 0.78 0 0 0 0.8 -0.76c0.84 -15.66 0.72 -14.54 0.44 -14.86a0.78 0.78 0 0 0 -0.98 -0.08zM204 52zm-19.46 56.3a34.82 34.82 0 0 0 35.84 -26.92c2 -8.98 -1.52 -21.38 -10.56 -29.52A40.2 40.2 0 0 0 186 42.82a80 80 0 0 0 0.12 -17.4 0.34 0.34 0 0 0 -0.66 0 75.7 75.7 0 0 0 -0.18 17.36c0 0.68 -10.24 -1.64 -22.76 8A26.98 26.98 0 0 0 152 65.08a37.4 37.4 0 0 0 -2.24 11.08 33.42 33.42 0 0 0 4.48 14.56 36.14 36.14 0 0 0 30.3 17.58zm-20.98 -9.2c1.28 0.32 2.66 0.62 4 0.88a27.2 27.2 0 0 0 4.78 4.14 35.06 35.06 0 0 1 -8.78 -5.02zm17.26 -8.92c-0.3 -2.84 -0.48 -5.84 -0.6 -8.92 3.52 0.18 7.14 0.2 10.72 0 -0.14 3.02 -0.32 6 -0.58 8.7 -3.14 0.22 -6.36 0.28 -9.54 0.22zm9.38 1.54a91.4 91.4 0 0 1 -1.18 8c-2.16 0 -4.4 0.12 -6.68 0a71.14 71.14 0 0 1 -1.34 -8c3 0.28 6.16 0.16 9.2 0zm-11.5 -10.54c0 3.1 0.26 6.12 0.52 8.98 -2.76 0 -5.5 -0.22 -8.12 -0.46a54.72 54.72 0 0 1 -1.78 -9.5c2.9 0.46 6.08 0.78 9.38 0.98zm-8.94 -14a53.4 53.4 0 0 1 1.84 -8.44c2.54 0.38 5.2 0.64 8 0.82a128.04 128.04 0 0 0 -0.68 8.34c-3.22 -0.18 -6.28 -0.42 -9.16 -0.76zm9.64 24.64a74 74 0 0 0 1.24 8c-1.8 0 -3.62 -0.1 -5.44 -0.22a37.28 37.28 0 0 1 -3.64 -8.28c2.56 0.22 5.18 0.4 7.84 0.5zm11.64 -22.22v10.16c-3.64 0.12 -7.28 0 -10.8 0v-10.1c3.56 0.08 7.2 0.08 10.8 -0.06zm-10.76 -1.6c0.12 -2.9 0.32 -5.7 0.58 -8.32 3.18 0.18 6.42 0.22 9.6 0.14 0.26 2.62 0.42 5.38 0.52 8.2 -3.54 -0.02 -7.16 -0.02 -10.7 -0.02zm11.32 23.64c2.82 -0.18 5.56 -0.44 8.16 -0.8a36.82 36.82 0 0 1 -3.6 8.38c-1.84 0.18 -3.76 0.32 -5.74 0.4a70.2 70.2 0 0 0 1.18 -7.98zm0.42 -22c3.4 -0.16 6.72 -0.48 9.84 -0.94a55.66 55.66 0 0 1 0 10.32c-3.18 0.4 -6.46 0.68 -9.76 0.8 0.14 -3.48 0.08 -6.92 -0.1 -10.28zm0.16 11.74c3.32 -0.14 6.58 -0.42 9.64 -0.84a56.92 56.92 0 0 1 -1.6 8.78c-2.68 0.34 -5.54 0.58 -8.48 0.76 0.26 -2.86 0.38 -5.8 0.44 -8.8zm9.18 9.32c7.62 -1.2 7.26 -2 6.8 -0.9a32.44 32.44 0 0 1 -5.26 8.7c-1.52 0.24 -3.14 0.46 -4.82 0.64a41.56 41.56 0 0 0 3.28 -8.54zm2 -11.86a57.08 57.08 0 0 0 -0.46 -10.28 64.88 64.88 0 0 0 7.46 -1.6 40.72 40.72 0 0 1 0.9 10.36 69.72 69.72 0 0 1 -7.96 1.42zm-0.66 -11.66a52.42 52.42 0 0 0 -1.88 -8c2.24 -0.28 4.42 -0.62 6.44 -1.02a35.64 35.64 0 0 1 2.74 7.66 75.12 75.12 0 0 1 -7.36 1.26zm-0.94 0.1c-3.08 0.36 -6.38 0.6 -9.78 0.72a139.4 139.4 0 0 0 -0.68 -8.18c2.98 -0.1 6 -0.3 8.74 -0.62a48 48 0 0 1 1.66 7.98zM191.04 58a71.46 71.46 0 0 0 -1.4 -7.86c2 0 4 -0.16 6 -0.32a28.74 28.74 0 0 1 4 7.78c-2.8 0.26 -5.64 0.4 -8.6 0.4zm-0.74 0h-9.26a75.62 75.62 0 0 1 1.28 -7.84c2.22 0 4.44 0.1 6.62 0a57.64 57.64 0 0 1 1.36 7.94zm-10.6 0c-2.58 -0.12 -5.14 -0.3 -7.62 -0.56a33.16 33.16 0 0 1 4.14 -7.66c1.62 0.18 3.28 0.3 4.96 0.38a66 66 0 0 0 -1.48 7.84zm-9.16 -0.74c-1.82 -0.22 -3.6 -0.5 -5.32 -0.82a35.48 35.48 0 0 1 6.62 -7.24q1.4 0.24 2.88 0.42a37.12 37.12 0 0 0 -4.18 7.6zm-0.42 1.26a65.56 65.56 0 0 0 -1.88 8.48 79 79 0 0 1 -6.82 -1.16 35.3 35.3 0 0 1 3.2 -8.44c1.74 0.38 3.58 0.76 5.5 1.08zm-2 9.88a50.38 50.38 0 0 0 -0.48 10 75.1 75.1 0 0 1 -7.64 -1.5 39.52 39.52 0 0 1 1.24 -10 66.26 66.26 0 0 0 6.76 1.46zm-0.48 11.6a60 60 0 0 0 1.7 9.62c-2.38 -0.24 -4.68 -0.54 -6.82 -0.9A37.18 37.18 0 0 1 160 78a66 66 0 0 0 7.64 2zm2.14 11.14a42 42 0 0 0 3.52 8.36c-1.44 -0.12 -2.86 -0.24 -4.3 -0.4a33.24 33.24 0 0 1 -6 -9.06c2.22 0.38 4.46 0.74 6.78 1.02zm0.64 9.38c1.22 0.16 2.48 0.32 3.76 0.44a21.18 21.18 0 0 0 3.6 4.3 24 24 0 0 1 -7.36 -4.82zm5.78 0.62q2.38 0.18 4.8 0.24a19.68 19.68 0 0 0 1.84 4.98 13.16 13.16 0 0 1 -6.64 -5.3zm10.34 5.5a10 10 0 0 1 -1.44 0 12.96 12.96 0 0 1 -2.36 -5.28h6a11.74 11.74 0 0 1 -2.2 5.2zm1.62 -0.36a18.3 18.3 0 0 0 2 -5c1.7 -0.1 3.4 -0.24 5.08 -0.4a13.36 13.36 0 0 1 -7.08 5.32zm9.04 -5.64c1.48 -0.2 2.92 -0.42 4.34 -0.68a22.66 22.66 0 0 1 -8.32 5.36 19.4 19.4 0 0 0 3.98 -4.76zm1.34 3.84a26.48 26.48 0 0 0 5.46 -5.1c1.72 -0.38 3.4 -0.82 4.98 -1.3a32.82 32.82 0 0 1 -10.44 6.32zm11.74 -7.48c-1.52 0.4 -3.24 0.78 -5.14 1.12a37.04 37.04 0 0 0 4.86 -9.42 23.76 23.76 0 0 0 8 -3.66 34.16 34.16 0 0 1 -7.72 11.88zm8.2 -13.3a24.34 24.34 0 0 1 -8 3.62 36.76 36.76 0 0 0 1.82 -9.08 18 18 0 0 0 7.36 -4 24 24 0 0 1 -1.18 9.38zm-1.04 -19.78a32.8 32.8 0 0 1 2.22 9.32 16 16 0 0 1 -7.24 3.72 41.28 41.28 0 0 0 -1.18 -10.28 30.36 30.36 0 0 0 6.12 -2.5zm0 -0.24h-0.3a30.3 30.3 0 0 1 -6 2.1 38.38 38.38 0 0 0 -3.14 -7.94 47.62 47.62 0 0 0 5.26 -1.4 31.62 31.62 0 0 1 4.1 7.16zm-4.64 -7.74a27.04 27.04 0 0 1 -5.3 1.04 28.48 28.48 0 0 0 -6.12 -7.68c0.98 -0.16 2 -0.34 2.78 -0.52a26.54 26.54 0 0 1 8.56 7.08zm-9.76 -7.74c-0.56 0 -1.44 0.12 -2.8 0.18a27.32 27.32 0 0 0 -5.06 -3.08 41.32 41.32 0 0 1 7.78 2.82zm-3.86 0.22c-1.18 0 -2.48 0 -3.74 0.12a16.72 16.72 0 0 0 -4.5 -4 23.36 23.36 0 0 1 8.16 3.8zm-4.72 0.16 -5.16 0.1a15.32 15.32 0 0 0 -2 -4.46 14.64 14.64 0 0 1 7.08 4.28zM185.08 44h0.72c1 0.46 2 2.62 2.64 4.68h-5.7c0.34 -1.3 1.26 -4.18 2.34 -4.68zm-1.56 0.18a16.64 16.64 0 0 0 -2 4.46l-4.34 -0.14a12.2 12.2 0 0 1 6.34 -4.4zm-4.5 0.9a17.68 17.68 0 0 0 -3.36 3.34l-2.58 -0.16a20.74 20.74 0 0 1 5.94 -3.26zm-4.56 0.7A26.16 26.16 0 0 0 171.08 48l-1.62 -0.14a33.48 33.48 0 0 1 5 -2.16zm-6 2.78 1.72 0.36a38 38 0 0 0 -6.42 7.26c-1.36 -0.28 -2.68 -0.6 -4 -0.96a42.74 42.74 0 0 1 8.6 -6.74zm-9.2 7.22c1.24 0.46 2.58 0.88 4 1.28a32 32 0 0 0 -3.26 8.4 29.22 29.22 0 0 1 -5.64 -2 22 22 0 0 1 4.8 -7.76zM154 64.16a31.4 31.4 0 0 0 5.66 2.3 44.42 44.42 0 0 0 -1.36 10 16.28 16.28 0 0 1 -6.68 -3.3 42.38 42.38 0 0 1 2.38 -9zm-2.42 14.2a13.34 13.34 0 0 1 0 -4.34 20.24 20.24 0 0 0 6.86 3.54 45.58 45.58 0 0 0 2.34 10.74 41.56 41.56 0 0 1 -6.9 -2 34.5 34.5 0 0 1 -2.28 -7.94zm9.6 11.18a34.2 34.2 0 0 0 5.34 9.18c-1.32 -0.18 -2.98 -0.44 -4.28 -0.7a31.04 31.04 0 0 1 -8 -10.72 44.48 44.48 0 0 0 6.96 2.24zM37.08 248a24.36 24.36 0 0 0 -4.88 -1.28c-1.02 -0.16 0 0.5 1.9 -6.14 -0.16 -0.56 -0.22 -1.74 -1.76 0a25.68 25.68 0 0 0 -4.3 6 2.4 2.4 0 0 0 -0.44 1.54c0.26 1.12 1 1.48 2.18 1.72 1.66 0.34 8.1 0.64 8.62 -0.9 -0.14 -0.68 -0.56 -0.76 -1.32 -0.94z" stroke-width="1"></path><path d="M45.06 244a22.98 22.98 0 0 0 -5.06 -1.2c-0.58 0 0 0.44 2 -5.44 -0.26 -1.1 0 -0.96 -1.12 -0.7a25.66 25.66 0 0 0 -5.06 6.42c-0.58 1.14 -0.12 2.4 2.42 2.74a12.94 12.94 0 0 0 8 -1c0 -0.46 -0.24 -0.52 -1.18 -0.82zm291.32 -130.42c0.34 0 0.66 0 2.2 -0.86a19.62 19.62 0 0 0 3.76 -2.36 26.46 26.46 0 0 0 2.16 5.46c0.3 0.4 1 1.02 1.28 -0.28a26.52 26.52 0 0 0 -0.78 -7.8 1.72 1.72 0 0 0 -1.22 -1.48 2.16 2.16 0 0 0 -1.74 0.36c-2.04 1.18 -7.24 6.34 -5.66 6.96zM54.7 240.52a28.86 28.86 0 0 0 -6 -1.52c-0.6 0 0 0.46 2 -5.44 -0.24 -1.1 0 -0.94 -1.1 -0.68a26 26 0 0 0 -4.9 6 1.76 1.76 0 0 0 1.02 2.8c3.6 1.12 11.58 0.14 8.98 -1.16z" stroke-width="1"></path><path d="M332.44 122c0.32 0 0.52 0 2.2 -0.86a19.18 19.18 0 0 0 3.78 -2.36 24.54 24.54 0 0 0 2.14 5.46c0.3 0.42 1 1.02 1.28 -0.28a25.8 25.8 0 0 0 -0.78 -7.8 1.72 1.72 0 0 0 -1.22 -1.48 2 2 0 0 0 -1.64 0.3c-1.94 1.18 -7.3 6.46 -5.76 7.02zM58.96 228.4a24.64 24.64 0 0 0 -4.68 5.76c-1.86 3.06 1.04 3.46 4.54 3.6 5.58 0.24 5.36 -1.14 5.56 -1.2 -0.12 -0.44 -0.32 -0.48 -1.3 -0.8a24 24 0 0 0 -5.06 -1.22c-0.6 0 0 0.46 2 -5.44 -0.2 -1.1 0.08 -0.96 -1.06 -0.7zm270.36 -97.24c0.1 0.5 0.58 0.16 2.38 -0.76a21.48 21.48 0 0 0 3.76 -2.4 28.32 28.32 0 0 0 2.14 5.44c0.3 0.42 1.02 1.02 1.28 -0.28a24.7 24.7 0 0 0 -0.76 -7.78c-0.38 -1.46 -1.02 -1.28 -1.22 -1.48a2 2 0 0 0 -1.4 0.16 15.48 15.48 0 0 0 -2.62 2c-3.46 3.08 -3.82 3.94 -3.56 5.1zM34.72 162.5c0.62 0 0.42 0.12 0.9 -0.18a57.24 57.24 0 0 0 -0.98 -8c-0.22 -0.94 -0.74 -1.46 -1.68 -1.26a33.66 33.66 0 0 0 -5.14 3.38c0 -0.14 -0.36 -2 -0.5 -2.84 -0.5 -2.62 -0.62 -3.62 -2 -4 -0.84 -0.18 -1.24 0 -6.92 3.54A42.44 42.44 0 0 0 18 148a1.24 1.24 0 0 0 -1.44 -0.58c-0.7 0.28 -6 5.1 -6.34 5.34s-0.2 0 -0.28 0.52c0 2 2.8 -1.06 5.62 -2.34 -0.2 4.78 -0.24 5.9 1.24 6.32 0.8 0.12 0.5 0.18 7.14 -3.64 0.2 0.9 0.92 5.08 1.18 6a1.6 1.6 0 0 0 2.2 1.12c0.5 -0.22 4.92 -4 5.36 -4.44 1.94 6.28 1.68 5.94 2.04 6.2zm351.9 106.12c-0.52 -4 -0.6 -4.8 -1.7 -5.1a2 2 0 0 0 -1.32 0.36c-1.1 0.62 -3.76 2.52 -4.42 3.04 -1.44 -8.94 -1.4 -8.16 -9.34 -3.3a27 27 0 0 0 -0.54 -5.36 1.26 1.26 0 0 0 -1.52 -0.32c-0.72 0.46 -5.42 4.62 -6.14 5.28a0.74 0.74 0 0 0 -0.26 0.72c1.02 1.26 1.38 -0.44 5.6 -2.56a48 48 0 0 0 0 4.8 1.6 1.6 0 0 0 1.08 1.46c1.02 0.32 1.06 0 7.32 -3.58 0.22 1 0.88 4.88 1.18 6a1.62 1.62 0 0 0 2 1.24 63.06 63.06 0 0 0 5.58 -4.52c2.52 8.58 3.24 8 2.48 1.84zM390 197.58l-0.68 -0.62a18.6 18.6 0 0 0 -4.64 2.2 15.06 15.06 0 0 0 -2.68 -2.7c-1.82 -1.5 -1.8 0 -1.74 0.16a15.5 15.5 0 0 0 1.8 4.46 11.52 11.52 0 0 0 -2.98 3.58c-0.94 1.48 1 1.12 0.82 1.12a19.02 19.02 0 0 0 4 -2 10.2 10.2 0 0 0 1.46 1.68 18.94 18.94 0 0 0 2.1 1.68c1.14 0 0.92 0.26 0.94 -0.92a18.28 18.28 0 0 0 -2 -4.42 13.08 13.08 0 0 0 3.6 -4.22zm-3.8 -30.42c8.76 -13.66 -21.82 -11.1 -10 1.02a6.68 6.68 0 0 0 10 -1.02zM378.9 160c4.96 -3.1 7.3 4.54 3.76 6.3a4.48 4.48 0 0 1 -3.76 0 3.74 3.74 0 0 1 0 -6.3zM49.86 195.66c6.14 -9.8 -13.56 -13.42 -12 -2.52 1.02 6.54 9.56 6.86 12 2.52zm-8.16 -6.46c4 -3.76 8.2 1.28 5.42 4.9a3.62 3.62 0 0 1 -5.7 -0.32 3.72 3.72 0 0 1 0.28 -4.58zM130.98 70a13.44 13.44 0 0 1 2.52 3.84 1.64 1.64 0 0 0 2 0.62c0.76 -0.36 0.82 -0.7 1.1 -1.36 2.24 -5.54 4.92 -5.72 5.76 -6.7a1.46 1.46 0 0 0 -0.14 -1.86 13.18 13.18 0 0 0 -1.88 -1c-4.4 -2.4 -4.62 -5.22 -5.6 -5.48a0.66 0.66 0 0 0 -0.72 0.36 12.46 12.46 0 0 1 -5.7 5.38c-1.46 0.68 -1.54 0.5 -2 1.16a1.48 1.48 0 0 0 0.26 1.78 18 18 0 0 1 4.4 3.26zm3.58 -9.54a12.92 12.92 0 0 0 3.76 4.94 12.36 12.36 0 0 0 -3.62 4 15.64 15.64 0 0 0 -4.2 -3.88 13.22 13.22 0 0 0 4.06 -5.14zM244 91.66a13.82 13.82 0 0 1 2.16 3.44 1.62 1.62 0 0 0 2 0.6c0.74 -0.36 0.82 -0.66 1.1 -1.36 2.22 -5.5 5 -5.8 5.76 -6.68a1.46 1.46 0 0 0 -0.12 -1.88 14.24 14.24 0 0 1 -6.98 -6c0 -0.12 -0.1 -0.48 -0.74 -0.46s-1.36 3.2 -5.68 5.5c-1.76 0.94 -2 0.62 -2.52 1.42a1.48 1.48 0 0 0 0.26 1.78 16.98 16.98 0 0 1 4.76 3.64zm3.2 -10a13.12 13.12 0 0 0 3.76 4.94 12 12 0 0 0 -2.96 3.08c-0.22 0.34 -0.56 0.86 -0.64 1.02a15.62 15.62 0 0 0 -4.2 -3.88 13.04 13.04 0 0 0 4.06 -5.12zm-106.76 53.8c-0.2 -0.14 -0.14 -0.4 -0.4 0a8 8 0 0 1 -5.64 4l0.16 0.18a5.4 5.4 0 0 0 5.88 -4.18zm-5 -0.72a2.9 2.9 0 0 0 1.02 -0.2c1.5 -0.54 1.54 -1.46 0.9 -2.56 -0.44 -0.78 -1.7 -4.58 -2.12 -4.58s-0.36 2.28 -0.2 2.9c0.8 3.08 1.38 2.58 1 3s-2.36 1.66 -0.6 1.44zM128 128.88c-0.1 1.88 1.76 1.48 1.62 0.2 -0.26 -2.54 -1.18 -2.38 -1.52 -1.58a4.26 4.26 0 0 0 -0.1 1.38zm11.38 -0.52c-0.12 1.88 1.74 1.48 1.6 0.2 -0.26 -2.54 -1.18 -2.36 -1.52 -1.58a3.76 3.76 0 0 0 -0.08 1.38z" stroke-width="1"></path><path d="M184 269.32a355.4 355.4 0 0 0 -7.26 -42.24 14.96 14.96 0 0 0 1.26 -2.28c5.54 -2.38 5.22 -2.1 4.98 -3.74 -0.12 -0.7 -0.32 -1.82 -0.5 -2.98 1.54 -1.18 3.24 -2.6 4.6 -3.78 1.74 -1.5 2.24 -1.76 2 -2.5 -0.14 -0.3 -0.28 -0.4 -0.72 -0.58 -0.8 -0.34 -2.2 -0.82 -3.88 -1.38 11.48 -18.6 12.34 -22.5 12.96 -26.8C200 165.62 194 153.46 172.72 147.44a65.5 65.5 0 0 0 -31.04 -1.08 4.68 4.68 0 0 0 -2.4 -0.46c-1.42 0 -1.24 0.16 -1.22 -0.18s0 -0.4 0 -0.9a9.76 9.76 0 0 0 7.14 -8.26 48.28 48.28 0 0 0 -0.16 -17.2 8.86 8.86 0 0 0 -0.56 -2 17.82 17.82 0 0 0 5.64 -3.86c4.54 -4.56 6.84 -11.7 2.78 -16.12 -6.8 -7.4 -19.74 -3.18 -21.26 5.9a8.24 8.24 0 0 0 -13.06 3.48c-5.76 -1.26 -12.5 4.62 -11.32 11.64a10 10 0 0 0 5.58 7.44c0.16 0 1.34 0.46 2.14 0.7 -0.2 1.44 0.56 3.34 3.1 5.26 0.52 0.38 0 0 1.02 2.6a23.8 23.8 0 0 0 2.34 4.68 11.6 11.6 0 0 0 5.12 4.66s-0.18 1.04 -0.32 2c0 0.28 0.2 0 -2 0.12a7.32 7.32 0 0 0 -2.86 0.5c-2 0.12 -4 0 -9.42 -2.14 -13.54 -5.26 -32.8 -17.44 -45.56 -28.76 0.28 -0.82 -1.36 -1.66 -5.82 -6.32 -1.02 -1.08 -0.8 -0.94 -1.12 -1.08a2.74 2.74 0 0 0 -1.54 0.34 10 10 0 0 0 -3.42 -4.54c-4.54 -3.72 -5.28 -8 -9.1 -11.38 -2.44 -2.16 -4.4 -0.68 -4 2s4.7 10.62 4.28 10.62c0 0.24 -0.26 0.28 -1.68 2.3a3.84 3.84 0 0 0 -0.7 1.26 6.58 6.58 0 0 0 -0.1 2.58 8.24 8.24 0 0 0 2.4 4.6A22.48 22.48 0 0 0 42.4 118c-0.12 0.32 0.48 13.06 0.52 13.48s0.36 0.36 4 -1.68l2.44 -1.4c9.5 16.96 27.54 31.38 44 40.98 0.76 4.96 -10.48 48.72 -11.74 53.56 -0.58 2.28 -1.28 2.82 1.76 3.88a63.38 63.38 0 0 0 6.54 1.7c-12.9 9.34 -25.3 21.5 -31.56 34a27.88 27.88 0 0 0 -3.48 17.12A188.68 188.68 0 0 0 60 310c-3.16 29.72 -3.16 27.64 -2.5 28.12 0.32 0.14 0.28 0.12 1.24 0 3.32 -0.38 14.6 -1.68 27.06 -3.28 -2.88 2.3 -8 6.28 -10 9.18 -0.72 1.1 -1.14 2.22 -0.2 3.14 3.52 3.48 24.32 -8 28.62 -10.4 0.2 0.6 0.58 2.12 0.72 2.62s0.52 0.52 4.62 0a0.56 0.56 0 0 0 0.48 -0.46c0 -0.54 -0.18 -5.7 -0.28 -7.4a119.46 119.46 0 0 0 16.24 -3.06c0.84 -0.3 1.5 -0.76 1.08 -1.54 -0.78 -1.52 -19.72 -25.58 -19.88 -25.78l-9.58 -22.52c4.22 -3.52 27.72 -23.08 32.8 -27.2 9.12 15.5 29.08 51.54 29.28 51.54 -0.58 18 -1.54 46.58 -1.04 47.08s-0.54 0.66 23.48 -5.34c1.14 2.82 5.64 11.32 7.5 12.24 1.48 0.6 6 -1.04 6.66 -1.9a40.18 40.18 0 0 0 -0.12 -13.88c7.5 -2 14.7 -3.74 18.42 -4.76 1.62 -0.44 2.3 -0.44 2.58 -1.4 1.8 -6 -27.46 -47.28 -31.16 -52.48 -0.98 -1.36 -0.24 1.08 -2.02 -13.2zM52.74 104a10.56 10.56 0 0 1 4.4 4.68c-0.7 0.36 -1.7 0.96 -2.34 1.34 -2.16 -3.84 -2.18 -1.22 -4.66 -0.78 -1.88 0.32 0.82 -3.9 2.6 -5.24zm-8.26 5.44c0.12 -0.72 0.16 -0.8 2.14 -3.1 1.22 -1.44 0.32 -2.36 -0.34 -4.18s-4.16 -8 -3.06 -9.18 7 8.54 7.86 9.66a5.3 5.3 0 0 0 1.02 0.9c-1.56 0.76 -4.38 3.2 -4.12 5.44 0.3 2.78 3.52 2 4.9 0.66 0.52 0.54 0.7 0.76 0.9 1 -2.12 1.28 -5.02 3.06 -7.38 4.58a6.9 6.9 0 0 1 -1.92 -5.78zm-0.92 21.5v-12.2c1.1 -0.72 13.06 -8.32 15.36 -9.16 1.52 1.64 4 4 5.52 5.5a121.46 121.46 0 0 1 -20.88 15.86zm133.72 56.52c-1.76 5.08 -3.1 9.74 -3.2 9.52a86.4 86.4 0 0 1 -3.02 -9.7 34 34 0 0 0 6.22 0.18zm-6 18.68c5.68 2.64 14.18 5.62 15.54 6.2 -1.3 1.12 -5.14 4.38 -6.52 5.3 -2.52 -0.64 -10.52 -3.74 -10.72 -3.8 0.16 -1.1 1.46 -6.64 1.72 -7.7zm-7.04 12c3.2 -1.88 5.02 2.86 6.1 -2.54 2.5 1.08 6.36 2.56 8.32 3.2a25.58 25.58 0 0 1 -3.6 7.86c-0.82 0.56 -0.98 0.7 -1.2 0.46 0 -1.36 1.22 -3.68 0.72 -4.48a0.88 0.88 0 0 0 -1.48 0 20 20 0 0 1 -4.34 8.42 18.26 18.26 0 0 1 1.4 -4 36 36 0 0 0 1.72 -4 0.96 0.96 0 0 0 -0.4 -1.42c-2.2 -0.72 -4.34 9.86 -6.6 12.68a5.2 5.2 0 0 1 0.32 -3.06c0.8 -2.56 3.04 -9.42 3.08 -9.82 0.24 -2 -4.26 -1.08 -4.52 -2.28a1.14 1.14 0 0 1 0.5 -1zm-22 -70.84a40 40 0 0 1 5.16 -1c0.74 4.82 2 16 2.16 19.3 -1.34 -0.18 -7.44 -1.08 -7.64 -1.08 -0.68 0 0.12 -0.96 -7.78 13.46 0.66 -2.58 7.98 -29.44 8.02 -30.66zM138.76 208c0.24 2 0.46 4 0.68 5.78 -4.62 0.5 -8.44 0.5 -13.18 0.62 0.12 -2 0.24 -4.22 0.34 -6.46a52.7 52.7 0 0 0 12.16 0.06zm-12.12 -0.92c0.44 -9.1 0.84 -19.26 1.16 -28.12 1.42 2.96 2.54 5.32 2.9 6a0.7 0.7 0 0 0 1.12 0.2c0.36 -0.18 0.48 -0.42 3.86 -6.7 0.86 9.06 2 19.5 2.98 28.68a38.54 38.54 0 0 0 -12.02 -0.16zM122 146.82a15.08 15.08 0 0 1 4.52 -0.36c0.36 0 0.3 -0.28 0.42 -1.08 0.3 -2 0.38 -2 0 -2.16a11.42 11.42 0 0 1 -4.68 -4.2 24 24 0 0 1 -2.6 -5.5c-0.94 -2.94 0 -1.48 -1.76 -3.1 -4.4 -4 -0.32 -6.94 1.74 -4.4 0.34 0.44 0.34 0.66 0.82 0.66 0.86 -0.1 3.28 -3.62 3.28 -6.92 5.72 2.12 13.34 0.84 19.24 -1.72 0.96 2.7 3.86 20.78 -4.22 24.68 -2.76 1.34 -2.28 0.14 -2.52 3.44v1.08c0.6 0.8 1.42 0 4 0.4C137.8 158.26 133.58 174 131.4 181.74c-1.54 -5.28 -9.54 -34.82 -9.4 -34.92zm-6 -0.24a15.36 15.36 0 0 0 5.02 0.74c6 28.9 9.6 33.8 4 22.4 -4.7 -9.66 -4.58 -9.32 -5.62 -9.18 -1.46 0.2 -5.12 1.14 -8.2 1.72 -0.12 0.08 -0.62 1.74 4.96 -15.68zm100 188.36c-2.1 0.76 -49.04 12.36 -56.3 13.86 0 -7.42 1.16 -38.64 1.42 -46 0 -0.4 -29.5 -52.94 -30.28 -53.28 -0.84 0 2.5 -2.78 -33.32 27.04 -1.44 1.2 -1.84 1.32 -1.72 2s10 23.34 10 23.46c2.88 3.68 16.62 21.2 19.34 24.98 -8.48 2.74 -57.72 8.48 -66.46 9.5l2.24 -21.38c0.9 -8.44 0.96 -1 -2.24 -18.58 -1.2 -6.58 -2.86 -17.4 -2 -24 0.6 -4.98 4.42 -11.9 7.26 -16.16 7.14 -10.68 18 -20.2 28 -27.32 10.44 2.16 25.82 4.42 30.88 4 2.22 -0.16 2 -0.82 2.32 -3.7s0.72 -8 1.06 -13.78c4.32 0 9.14 -0.28 13.4 -0.74 2 16 2.34 16.38 3.18 16.58 0.36 0 6.98 2.14 21.04 -1.66 -0.88 2.7 -1.12 4.24 -0.4 5.58a1.56 1.56 0 0 0 1.74 1c1.24 -0.32 2 -2.38 2.56 -3.5 1.6 1.04 2.72 -0.7 3.64 -2 2 -2.7 1.3 -2.48 1.78 -2.2 1 0.58 2 0 2.9 -0.68a394 394 0 0 1 8.74 53.86c0.1 0.48 28.12 39.46 31.26 51.12 0.1 0.48 0.38 1.78 -0.04 2zm129.66 -110.28c4.74 -4 4.98 -11.16 -2.28 -11 -0.9 -10 0 -21.3 -3.42 -30.52 -4.64 -12.68 -22.64 -24.7 -34.98 -30 5.06 -1.72 11 -6.12 12.88 -10.98a12.18 12.18 0 0 0 0.74 -4.48c0 -4.16 -1 -5.68 -2.14 -6.98 -2.9 -3.34 -4.98 -3.8 -3.62 -8.3a22.36 22.36 0 0 0 1.74 -7.72 13.54 13.54 0 0 0 -2.56 -8.6 19.76 19.76 0 0 0 -5.84 -4.08c-6 -2.86 -9.08 -1.36 -12.98 -2.74a41.26 41.26 0 0 1 -7.52 -4.82 14.24 14.24 0 0 0 -7.6 -1.78c-11.86 0 -13.38 6.7 -18.62 10a42.68 42.68 0 0 1 -6.68 2.62 16.3 16.3 0 0 0 -8.4 9.34c-1.68 4.58 -0.64 6.48 0 10.98a8.56 8.56 0 0 1 -0.22 4.22c-0.82 2.12 -4 5.26 -2.7 10.86a40 40 0 0 1 -7.34 -2c-5.62 -2.44 -6.42 -2.12 -6.26 -12.24a135.84 135.84 0 0 1 3.2 -24.3c1.88 -0.36 1.42 -3.74 0.28 -4.64 0.62 -1.72 0.98 -3.22 -0.46 -4.12a2.8 2.8 0 0 0 -2.84 -0.16 2.6 2.6 0 0 0 -4.38 -1.24 2.66 2.66 0 0 0 -2.26 -1.4c-2.26 0 -2.92 2 -3.42 4.24a17.54 17.54 0 0 0 -0.54 4.2 1.48 1.48 0 0 0 0.58 0.8 259.58 259.58 0 0 0 -6.62 31.58c-1.38 11.42 0.22 13.28 3.24 17.56a234.28 234.28 0 0 0 23.5 26.24 28.94 28.94 0 0 0 1.3 16.94 56.36 56.36 0 0 0 6.84 13.44c-14.94 20.98 -22.26 48.14 -24.18 73.8 -1.16 15.42 -0.54 29.86 6.92 45.76a93.06 93.06 0 0 0 7.02 12.64c0.32 0.46 -1.58 10.94 -2.54 22.84a26.28 26.28 0 0 0 0 7.2 1.04 1.04 0 0 0 1.16 0.66c0.86 -0.16 6.14 -1.44 12.96 -3.12 -5.08 5.72 -6.58 7.02 -6.54 8.38 0 1 0.94 1.28 2 1.16 6.18 -0.74 6.8 -1.9 22.74 -8.38 0.1 0.76 0.16 2.46 0.98 2.94a8.94 8.94 0 0 0 4.84 -0.8 1.76 1.76 0 0 0 0.5 -1.34 41.84 41.84 0 0 0 -0.14 -8l11.42 -2.84c2.68 -0.92 -4.74 -4.38 -17.34 -25.76 -0.12 -0.2 -0.42 1.34 2.96 -13.66 8 2.1 14.2 3.58 23.82 2.74a46.4 46.4 0 0 0 24 -8.62 72 72 0 0 0 13.14 11.82c2 1.34 2 1.34 2.28 1.22s0.3 -0.36 0.42 -2.2a120.86 120.86 0 0 0 -0.46 -17.04c3.18 3.14 7.84 8 10.44 7.44 2.28 -0.72 0.44 -3.54 -6 -22.76 0.2 0 2 -1.02 2.84 -1.5 1.48 -0.84 1.14 -0.92 0.5 -3.4 -0.46 -1.86 0.78 -2.28 -10.4 -1.34 -0.76 -5.16 -1.38 -8.66 -1.46 -8.82a0.34 0.34 0 0 0 -0.3 -0.2 69.28 69.28 0 0 0 -16.26 6.4c-1.16 0.76 -0.78 1.2 1.44 -4.16a91.52 91.52 0 0 0 4.92 -15.36c1.18 -0.44 4.52 -23.3 -2.98 -40.28a41.58 41.58 0 0 0 -5.68 -9.62 170.2 170.2 0 0 0 -12.6 -12.76c0.68 -1.36 1.28 -2.64 1.84 -4a40.7 40.7 0 0 0 2.88 -8.62 211.14 211.14 0 0 0 23.48 14.98 131.84 131.84 0 0 0 4.6 17.12 8.12 8.12 0 0 0 -3.1 2.9 4.8 4.8 0 0 0 2 6.12 8.5 8.5 0 0 0 4 1.2c0.2 0.78 0.38 1.58 0.56 2.4 0 0.32 0.38 0 -1.8 1.12a4.66 4.66 0 0 0 -2.34 1.66c-1.58 2.44 2 4.5 3.52 3.72l3.1 -1.68c0.1 0.24 3.84 9.26 4 9.72 1.72 3.42 5 1.56 4.8 -0.56 0 -0.98 -0.74 -3.66 -1 -4.72a2.26 2.26 0 0 0 3.54 -2 3.18 3.18 0 0 0 1.8 0.98 2.4 2.4 0 0 0 2.36 -1.24c0.72 -1.46 -0.42 -3.72 -1.18 -5.2a46.34 46.34 0 0 1 -4.1 -7.86zm-82.12 -110.14a9.46 9.46 0 0 1 4 -4 18 18 0 0 1 16.52 0.62c6.56 4.3 8.22 10.44 7.9 11.4a0.78 0.78 0 0 1 -1.04 0.44 35.16 35.16 0 0 0 -6.72 -6c-11.4 -7.32 -20 -1.8 -20.44 -2a0.38 0.38 0 0 1 -0.22 -0.46zm-0.78 12.16c0.64 -0.26 7.16 -4.6 8 -5.24 1.42 2.42 7.5 4.24 10.18 4.94 1.14 0.3 0.9 4.66 3.16 6.22 1.14 0.78 2.12 0 3.26 0.54a2.62 2.62 0 0 1 1.5 1.68 3.74 3.74 0 0 1 -0.58 3.06 3.48 3.48 0 0 1 -1.36 0.92c0 0.58 -0.1 1.58 -0.12 2a3.08 3.08 0 0 0 3.3 3.24c2 0 2.88 -1.36 3.06 -3.4a4 4 0 0 0 -3 -4.66c-0.42 0 -0.52 -0.7 0.14 -0.66a4.94 4.94 0 0 1 4.42 5.26c-0.14 7.1 -9.32 6.2 -9.16 0.64a12.48 12.48 0 0 1 0.38 -2.4c-1.16 0 -0.78 0.36 -2.3 3.52 -2.46 5.18 -5.34 7.52 -11.88 7.64s-10.18 -4.54 -10.4 -11.36c-0.04 -3.42 0.52 -4.94 1.4 -11.94zM289.68 164a25.64 25.64 0 0 0 -6.56 -0.42 25.16 25.16 0 0 0 -11.42 3.62 20.84 20.84 0 0 0 -12.3 -5.8c-0.36 0 -0.12 1.32 -1.68 -16.58l3.74 0.56c4 8.38 15.5 6.98 19.88 3.18 3.6 0.64 7.02 1.32 10 2a91.88 91.88 0 0 0 -1.66 13.44zm-29.36 -30c0.2 0 0.72 0 0.82 0.32l-0.18 0.34c-0.66 0 -2.44 1.02 -3.12 3.26A2.88 2.88 0 0 0 260 142c0.28 0 0.92 -0.46 1.32 -0.42l0.26 0.28c-1.4 2.2 -4.82 0.4 -5.24 -1.8a5.3 5.3 0 0 1 3.98 -5.88zm-31.88 -38.94a1.28 1.28 0 0 1 1.86 0 6 6 0 0 1 -0.18 2 9.16 9.16 0 0 0 -2.66 -0.14 7.86 7.86 0 0 1 0.98 -1.86zm-1.36 3.52c0.58 -0.28 3.34 -0.82 3.74 -0.44a2.92 2.92 0 0 1 0 2.7c0.22 0 -3.1 0.32 -3.88 -0.66a1.08 1.08 0 0 1 0.14 -1.6zM224.36 94c0.58 -1.18 1.48 -1.22 2 -0.58s-0.54 3.38 -0.88 4.6a2.78 2.78 0 0 0 -0.46 2c-0.74 0.16 -2.24 -0.16 -2.4 -0.6a36.66 36.66 0 0 1 1.74 -5.42zm-4.84 1.38c0.36 -1.4 0.74 -3.24 2 -2.98 0.88 0.26 0.86 0.8 0.68 2.58a20.64 20.64 0 0 0 -0.92 4.4c-0.66 0.32 -2.42 0 -2.6 -0.46 0.04 -0.1 0.82 -3.52 0.84 -3.58zm-6.22 49.42a9.32 9.32 0 0 1 -1.18 -4.86c-0.44 -8.18 2.92 -22 4.74 -30a86.72 86.72 0 0 1 2.48 -9.5 4.48 4.48 0 0 0 2.16 -0.34 3.4 3.4 0 0 0 3.76 0.68 4.54 4.54 0 0 0 4.28 1.68c-2 8.94 -3.76 20.8 -3.04 29.5 0.24 2.96 0.36 4 1.7 5.36a23.82 23.82 0 0 0 7.64 3.82c2.28 0.64 6.42 1.38 11.58 2.2a123.02 123.02 0 0 1 -2.36 12.24c-2.14 7.14 -5.18 12.7 -6.7 18.68C228 164 216.54 150.88 213.3 144.8zm57.46 222.9zm0 0a12.74 12.74 0 0 1 -3.2 0.52c-0.3 -1.14 0 -3.06 -1.22 -3.4s-17.24 7.62 -22 8.36a14.4 14.4 0 0 1 -1.9 0.36c0.32 -0.98 4.82 -6.44 6.28 -8.4l22.44 -5.56a54.42 54.42 0 0 1 -0.38 8.06zm67.72 -83.3c0.12 0.72 0.44 2 0.5 2.38 -3.54 2 -4.16 1.72 -4.1 2.68 0.66 2.66 7.58 21.66 7.1 21.62 -2.16 -0.14 -8.34 -5.6 -10 -7.08 -0.62 -7.1 -1.56 -14.3 -2.36 -19.8a57.28 57.28 0 0 1 8.88 0.14zM300 186.56c-2.5 -3.88 -2.36 -3.68 -2.76 -3.8a0.64 0.64 0 0 0 -0.66 0.26c-0.22 0.38 -5.5 11.62 -4.94 12.32 0.42 0.4 0.2 0.34 5.46 -0.36 -1.72 3.82 -1.82 3.58 -1.64 4s10.36 9.26 14.3 14.7c6.86 9.46 9.52 21.66 9.1 34 -1.76 0.7 -8.92 4 -10.3 4.58 -3.14 1.48 -1.64 1.78 1.58 4 4.84 3.36 6.44 4.5 7.08 4.86A80.22 80.22 0 0 1 309.8 282c-2.88 5.38 -2.28 4.14 -10.72 21.36l0.56 0.34a82.3 82.3 0 0 0 10.62 -21.1c3.72 -3.22 12.44 -6 17.06 -7.28 2.38 2 4.44 44.76 4.2 47.56a69.4 69.4 0 0 1 -13.66 -12.1c-1.5 -1.74 -0.36 -0.9 -5.84 2.16a50.44 50.44 0 0 1 -27.54 5.7c-16.92 -1.06 -31.4 -5.84 -25.18 -44.78 0.74 -4.66 5.78 -25.26 6.9 -29.8l-0.24 -0.4 -0.4 0.22c-4.5 15.04 -11.46 36.94 -8.48 53.88l-6.64 -1.8c-0.5 0 -0.92 0.32 -0.64 1.22 1 3.16 4.5 13.48 4.8 14.18a0.84 0.84 0 0 0 0.9 0.4 53.4 53.4 0 0 0 4.32 -5.18 24.12 24.12 0 0 0 8 9.54c-3.46 15.28 -3.34 14.52 -3.24 14.86s2.88 4.84 3.18 5.32c3.48 5.7 3.88 6.36 14.16 19.04l-12 2.96c1 -1.18 2 -2.48 2.18 -2.62a0.82 0.82 0 0 0 -0.38 -1.14c-0.6 -0.2 -11.58 -2.66 -14.16 -3.22a0.74 0.74 0 0 0 -0.68 0.2c-0.46 0.56 -0.22 0.76 3.1 9.24 -11.2 2.76 -22.9 5.62 -25.12 6 -0.7 -7.66 3.54 -28.48 2.6 -29.78a63.78 63.78 0 0 1 -4.48 -7.46c8 -0.26 7.7 -0.22 7.88 -0.4a203.52 203.52 0 0 0 -9.84 -18.92c-1.1 -0.58 -1.36 0.98 -1.5 0.9l-2.52 4.56c-4.42 -13.4 -4.26 -24.92 -3.18 -38 2.56 -30.54 12 -54.32 22 -68.62 2.74 -4 2.78 -3.14 1.58 -4.88a50.16 50.16 0 0 1 -8.14 -19.66c-1.52 -11.18 6 -21.06 8 -31.1 0.58 -2.7 1.36 -7.16 1.76 -9.86l4.9 0.72c-0.74 1.46 -2 4 -2.22 4.7 -0.98 2.18 -1.2 2.38 -0.78 2.94s0.26 0.36 5.88 -0.38c1.02 11.58 0.92 10.52 0.96 10.7 0.24 0.68 0.66 0.54 2 0.76a19.06 19.06 0 0 1 11.6 5.86c0.44 0.16 0.58 0 0.96 -0.2a24.34 24.34 0 0 1 9.68 -3.38 33.28 33.28 0 0 0 -3.24 7.38c0.5 0.68 13.14 -0.96 13.52 -1.32s0 -1.02 -0.44 -1.66 -2.22 -2.9 -3.34 -4.3c1.66 0.24 1.7 0.36 2 0.34 0.84 -0.18 0.6 -0.82 0.58 -1.62a98 98 0 0 1 1.66 -13.2 59.58 59.58 0 0 1 8.52 2.58c0.36 14.12 0.9 23.98 -1.26 33.1zm32.14 35.74c-1.1 -3.7 -2.32 -7.4 -3.6 -11.52 -2 -6.38 -2.26 -10.3 -2.82 -10.68 -20.98 -12 -15.84 -9.84 -24 -15.14a72.88 72.88 0 0 0 1.16 -11.4c0 -1.8 0 -15.1 -0.14 -19.56 12.76 5.18 28.38 15.88 34 26s3.68 26.3 5.6 38.32a13.46 13.46 0 0 1 -10.2 3.98zm17.42 14.86c-1.12 1.1 -2.6 -1.38 -3.24 -2.8 -0.26 -0.54 -0.58 -0.88 -1.22 -0.58 -0.88 0.62 0 1.24 0.2 3.6 0 0.32 0 1.12 -0.22 1.28 -1.04 0.52 -1.82 -0.7 -2.32 -1.74s-0.9 -3.42 -2 -2c-0.4 0.68 0.1 0.48 1.82 8.48 0.3 1.36 0.44 1.64 0 2s-0.94 0.46 -1.5 -0.36a58.18 58.18 0 0 1 -2.98 -6.86c-1.8 -4.24 -1.64 -4.2 -2.2 -4.34s-1.12 0.54 -4.24 2.14a2 2 0 0 1 -1.82 -1.14c-0.16 -0.9 1.64 -1.56 2.78 -2.12 2.24 -1.08 2 -1 1.6 -2.6l-0.42 -1.72a22 22 0 0 0 10.48 -2.76c1.78 4.54 3.8 6.48 4.98 9.56 0.16 0.32 0.6 1.64 0.3 1.96z" stroke-width="1"></path></g></svg>