<svg xmlns="http://www.w3.org/2000/svg" viewBox="0 0 400 400" id="Live-Broadcast-5--Streamline-Milano.svg" height="400" width="400"><desc>LIVE BROADCAST 5 Streamline Illustration: https://streamlinehq.com</desc><g><path d="M162.436 77.166c-0.328 -0.6 -0.8 -1.492 -1.514 -1.624a1.578 1.578 0 0 0 -1.526 1.022 5.618 5.618 0 0 0 1.988 5.668c0.888 0.914 2.63 0.214 2.2 -1.556a8.976 8.976 0 0 0 -1.148 -3.51Z" fill="#000000" stroke-width="1"></path><path d="M182.944 71.572a1.112 1.112 0 0 0 -1.052 -0.438c-1 0.344 -1.038 1.46 -0.878 2.5a6.278 6.278 0 0 0 1.316 3.62 1.352 1.352 0 0 0 1.624 0.306c0.636 -0.416 0.57 -1.294 0.482 -1.952a9.52 9.52 0 0 0 -1.492 -4.036Z" fill="#000000" stroke-width="1"></path><path d="M184.32 85.32a3.66 3.66 0 0 1 0.556 4.87 6.2 6.2 0 0 1 -4 1.958c-0.344 0 -0.868 -0.234 -1.4 -0.282a1.2 1.2 0 0 0 -0.832 2.15 4.142 4.142 0 0 0 3.61 0.56 9.68 9.68 0 0 0 3.526 -1.832 5.56 5.56 0 0 0 2.058 -6.428c-1.896 -5.27 -8.428 -5.818 -10.354 -10.328a0.882 0.882 0 0 0 -1.72 0.4c0.836 4.748 5.918 5.958 8.556 8.932Z" fill="#000000" stroke-width="1"></path><path d="M156.268 71.96c1.628 -1.464 3.824 -3.13 5.938 -2.62a1.632 1.632 0 0 0 2.104 -1.576c-0.716 -2.258 -6.272 -2.274 -10.266 2.612 -1.862 1.864 2.072 3.534 2.224 1.584Z" fill="#000000" stroke-width="1"></path><path d="M178.766 66.754a4.788 4.788 0 0 1 5.084 -0.428c0.748 0.422 1.52 1.476 2.4 1.476a1.286 1.286 0 0 0 1.234 -1.676 4.164 4.164 0 0 0 -2.2 -2.326 7.048 7.048 0 0 0 -8.35 1.014 1.336 1.336 0 0 0 1.832 1.94Z" fill="#000000" stroke-width="1"></path><path d="M182.894 106.244a1.282 1.282 0 0 0 0.492 -2.176 1.2 1.2 0 0 0 -1.186 -0.268 9.8 9.8 0 0 1 -12.342 -7 25.282 25.282 0 0 0 8.32 1.926c3.456 0.386 7.37 0.82 10.388 -1.36a0.86 0.86 0 0 0 -0.714 -1.56 17.716 17.716 0 0 1 -9.616 0.488 22.412 22.412 0 0 1 -9.364 -2.812 1.296 1.296 0 0 0 -1.914 1.138 12.45 12.45 0 0 0 15.936 11.624Z" fill="#000000" stroke-width="1"></path><path d="M178.356 109.072a7.474 7.474 0 0 1 -6.4 -3.022c-0.514 -0.842 -1.884 0 -1.472 0.812a8.34 8.34 0 0 0 7.984 4.42 5.322 5.322 0 0 0 3.23 -1.11 0.95 0.95 0 0 0 -0.014 -1.3c-0.684 -0.672 -2.23 0.146 -3.328 0.2Z" fill="#000000" stroke-width="1"></path><path d="M380.304 265.184c-20.42 5.294 -85.358 20.814 -86.984 21.254 7.044 -16.45 11.288 -31.5 10.85 -50.52a96.83 96.83 0 0 0 -8.106 -35.19 141.4 141.4 0 0 0 -13.108 -23.874 15.55 15.55 0 0 0 7.916 -7.32l10 2.762c8.834 2.272 15.44 -3.264 18.2 -12.142 2.728 -8.772 -0.934 -17.894 -9.904 -20.24 -19.478 -4.87 -17.716 -4.034 -17.908 -4.616a2.24 2.24 0 0 0 -1.298 -1.276 25.454 25.454 0 0 0 -5.296 -1.4 11.468 11.468 0 0 0 -5.162 -0.288q-0.506 0.138 -1 0.31a154.584 154.584 0 0 0 -19.434 -2.696 21.2 21.2 0 0 0 -7.47 1.268 0.704 0.704 0 0 0 -0.444 0.2 11.76 11.76 0 0 0 -5.694 5.8 78.046 78.046 0 0 0 -26.158 -12.816 148.568 148.568 0 0 0 -29.358 -3.922c-2.368 -0.106 -4.744 -0.262 -7.124 -0.302a4.11 4.11 0 0 0 -2.786 -1.136 27.53 27.53 0 0 0 17.518 -19.688 30.892 30.892 0 0 0 -0.016 -12.868c1.648 -0.488 5.42 -1.496 5.91 -2.434a3.548 3.548 0 0 0 -0.652 -4.09 3.78 3.78 0 0 0 1.752 -6.822 2.896 2.896 0 0 0 0.428 -5.268 7.488 7.488 0 0 0 3.286 -3.038 3.226 3.226 0 0 0 -1.31 -3.8 3.31 3.31 0 0 0 -0.614 -5.756 3.722 3.722 0 0 0 -1.12 -6.722 5.63 5.63 0 0 0 1.358 -3.574 2.694 2.694 0 0 0 -2.702 -2.358 3.984 3.984 0 0 0 -3.758 -5.268A5.2 5.2 0 0 0 196.2 30.12a3.284 3.284 0 0 0 -4.11 -4.4 4.292 4.292 0 0 0 -5.76 -5.01 5.738 5.738 0 0 0 -7.982 -3.944A4.114 4.114 0 0 0 171.8 14.94a5.084 5.084 0 0 0 -8.8 -2.34 3.834 3.834 0 0 0 -7.302 -0.974 5.078 5.078 0 0 0 -8.034 0.622 4.492 4.492 0 0 0 -7.138 0.114A4.038 4.038 0 0 0 132.894 14a4.142 4.142 0 0 0 -6.874 3.468 5.744 5.744 0 0 0 -4.8 -0.67 3.226 3.226 0 0 0 -2.02 3.286 3.276 3.276 0 0 0 -3.682 1.46 7.574 7.574 0 0 0 -0.346 4.232 3.4 3.4 0 0 0 -4.744 4.672 3.76 3.76 0 0 0 -3.842 5.22 3.724 3.724 0 0 0 -3.786 2.276 5.4 5.4 0 0 0 1.4 5.2 3.698 3.698 0 0 0 -2.57 6.224 3.318 3.318 0 0 0 -2.346 3.086 5.416 5.416 0 0 0 2.458 3.714A4.162 4.162 0 0 0 101.388 64a3.18 3.18 0 0 0 -1.558 3.6 2.96 2.96 0 0 0 1.754 1.826 3.434 3.434 0 0 0 1.106 6.068 4.156 4.156 0 0 0 3.042 7.442 3.612 3.612 0 0 0 4.138 5.344c-1.296 3.226 4.364 4.628 7.8 5.2a17.966 17.966 0 0 0 1.474 3.078 14.04 14.04 0 0 0 7.472 7.242 6.664 6.664 0 0 0 -0.6 3.296 3.426 3.426 0 0 0 2.982 2.4c1.688 0.346 3.2 0.108 3.782 -1.498a50.488 50.488 0 0 0 1.266 -4.96l0.028 -0.014c0.73 6.618 2.09 10.4 3.75 19.812a4.7 4.7 0 0 0 -4.822 2.4 1 1 0 0 0 -0.276 1.25l0.012 0.072c-23.338 7.418 -48.324 17.08 -62.634 37.218a98.764 98.764 0 0 0 -29.472 13.47 39.87 39.87 0 0 0 -17.432 29.37 294.348 294.348 0 0 0 -1.826 42.684 324.2 324.2 0 0 0 15.254 90.154c-6.546 1.338 -11.556 2.4 -17.668 3.902 -1.442 0 -1.112 2.278 0.302 2.072 2.136 -0.344 198.612 -40.2 233.4 -47.246A142.856 142.856 0 0 1 247.318 326a18.694 18.694 0 0 0 -11.318 13.752c-0.488 1.82 0.166 4.45 1.96 4.874a2.2 2.2 0 0 0 1.932 -0.46 3.464 3.464 0 0 0 1.278 2.666 1.8 1.8 0 0 0 1.57 0.342c1.162 -0.3 1.99 -1.7 2.6 -3.028 0.028 0.33 0.07 0.658 0.124 0.986a2.782 2.782 0 0 0 5.496 0.692 14.4 14.4 0 0 1 2 -4.28c2.57 -2.37 6.704 -3.464 8.556 -6.32l0.012 0.024a1.154 1.154 0 0 0 1.96 0.4c3.952 -4.906 7.812 -9.91 11.33 -15.152v27.56c-18.44 0.38 -32.676 7.786 -32.676 17.172 0 0.984 0.044 -1.628 0.044 8.27 0 9.638 15.016 17.186 34.186 17.186s34.164 -7.548 34.164 -17.212a6.714 6.714 0 0 0 -0.132 -1.238l-0.062 -5.472a9.322 9.322 0 0 0 0.128 -1.534c0 -9.042 -13.2 -16.244 -30.656 -17.102v-35.51a231.968 231.968 0 0 0 12.336 -23.526c4.032 -0.6 88.6 -21.244 88.814 -21.296a1.348 1.348 0 0 0 -0.66 -2.61Zm-125.532 -132.856c-3.74 5.346 -1.334 16.654 4.938 21.498a27.298 27.298 0 0 0 0.74 4.128 30 30 0 0 1 -4.64 -3.098 16.558 16.558 0 0 1 -3.8 -21.692 11.768 11.768 0 0 1 2.762 -0.836Zm11.212 0.304a10.114 10.114 0 0 0 1.63 10.024 14.326 14.326 0 0 0 -1.142 4.426l-0.472 0.134a14.6 14.6 0 0 1 -2.336 -2.904 14.4 14.4 0 0 1 -2.048 -8.34 9.128 9.128 0 0 1 1.2 -3.694c1.052 0.106 2.11 0.226 3.168 0.354Zm4.972 0.688a5.626 5.626 0 0 0 0.564 3.8 28.55 28.55 0 0 0 -2.74 3.4 9.042 9.042 0 0 1 -0.898 -7.65q1.54 0.214 3.074 0.45Zm30.54 10.262c-8.762 6.858 -9.312 20.556 -1.614 26.364l-18.654 -5.146a16.746 16.746 0 0 1 1.102 -23.744 23.448 23.448 0 0 1 6.878 -3.88c5.614 1.254 13.658 3.232 17.4 4.162a10.322 10.322 0 0 0 -5.112 2.244Zm-33.4 5.45a51.064 51.064 0 0 0 5.856 19.726 13.328 13.328 0 0 0 3.96 5.098c0.838 0.51 0.454 0.086 1.29 1.296a11.614 11.614 0 0 1 -8.862 -2.726 24.48 24.48 0 0 1 -5.814 -10.306 38.576 38.576 0 0 1 -2.308 -11.746c1.982 -0.392 3.946 -0.868 5.87 -1.342Zm13.952 19.444a6.908 6.908 0 0 1 -2.898 3.054q-1.342 -1.776 -2.734 -3.516c-0.368 -0.736 -0.366 -0.848 -0.6 -1.314 0.912 0.272 2.118 0.632 3.022 0.928 1.334 0.436 2.144 0.49 3.018 -0.586l0.678 0.188a12.084 12.084 0 0 1 -0.494 1.246Zm-1.114 -29.22a18.776 18.776 0 0 0 -2.632 25.714c-1.05 -0.378 -2.824 -0.856 -3.83 -1.106a50.526 50.526 0 0 1 -3.414 -11.252 17.48 17.48 0 0 0 1.6 -0.966 2.6 2.6 0 0 0 -2.336 -4.51 1.2 1.2 0 0 0 -1.476 -0.728 14.6 14.6 0 0 1 0.48 -1.864 16.712 16.712 0 0 1 6.412 -8.018 11.2 11.2 0 0 1 5.732 -2.248 19.08 19.08 0 0 1 4.482 0.73c0.456 0.1 0.906 0.146 1.828 0.36a16.916 16.916 0 0 0 -6.854 3.888Zm-1.104 38.44c0.33 -0.046 0.66 -0.102 0.988 -0.172 12.688 18.938 19.566 36.698 20.954 54a102.748 102.748 0 0 1 -3.942 36.158 190.648 190.648 0 0 1 -18 40.502s-0.006 -130.462 -0.008 -130.488Zm-6.674 -42.052a5.032 5.032 0 0 1 -0.336 -2.024q1.296 0.216 2.588 0.458a19.182 19.182 0 0 0 -2.26 1.566Zm-10.686 28.664a22.436 22.436 0 0 0 7.18 10.926 14.314 14.314 0 0 0 5.2 2.274c-0.032 0.236 -0.018 -7.22 -0.018 138.85a187.126 187.126 0 0 1 -11.956 16.456 16.366 16.366 0 0 0 -12.8 -7.678c8.502 -27.83 4.758 -63.876 15.238 -95.836a1.16 1.16 0 0 0 -1.388 -1.486 1.176 1.176 0 0 0 -0.882 0.8c-1.2 3.554 -2.2 7.156 -3.072 10.79a316.96 316.96 0 0 0 -33.662 -94.748c-3.874 -7.108 -8.212 -14.336 -14.386 -19.66a76.434 76.434 0 0 1 32.6 14.496c-2.698 7.81 0.318 14.936 8.44 18.512a83.23 83.23 0 0 0 8.418 3.296c0.322 1.026 0.684 2.032 1.08 3.008Zm-13.71 181.11c-0.29 0.4 -0.452 0.416 -0.452 0.416 -0.586 -0.14 -1.348 -4.838 1.342 -8.8 0.754 -1.04 -0.666 -2.264 -1.628 -1.514 -0.372 0.078 -0.518 0.384 -0.83 0.906a16.556 16.556 0 0 0 -2.386 3.788c-1.822 3.958 -1.576 4.18 -2.2 4.688a8.726 8.726 0 0 1 0.168 -4.538 15.702 15.702 0 0 1 2.286 -5.478 1.126 1.126 0 0 0 -1.726 -1.416 0.688 0.688 0 0 0 -0.34 0.272q-0.426 0.652 -0.8 1.33a26.012 26.012 0 0 0 -2.61 5.3c-0.17 0.646 -0.576 1.69 -0.964 1.872a1.036 1.036 0 0 1 -0.276 -0.55 6.956 6.956 0 0 1 0.538 -3.614 18.104 18.104 0 0 1 9.702 -10.63 14 14 0 0 1 11.516 5.472c-0.47 2.344 -3.748 3.646 -5.558 4.784a10.4 10.4 0 0 0 -4.264 3.812c-0.982 1.858 -0.702 2.302 -1.526 3.9ZM39.2 338.932a324.176 324.176 0 0 1 -14.97 -82.974 376.086 376.086 0 0 1 0.768 -41.786c1.11 -17.4 6.4 -25.952 13.882 -32.27 8.372 -7.248 18.944 -11.258 29.17 -15.136 -23 35.49 -13.872 98.708 27.576 138 -1.952 15.6 -0.43 8.176 -4.436 23.638 -3.55 0.692 -51.62 10.452 -51.99 10.528ZM130.734 105.282c-0.414 1.89 -0.372 1.522 -0.436 1.842a3.942 3.942 0 0 1 -1.616 -0.322c-0.486 -0.4 -0.066 -1.084 0.536 -2.536a9.128 9.128 0 0 0 1.772 -0.12c-0.092 0.38 -0.174 0.76 -0.256 1.136Zm4.83 -4.108a1.178 1.178 0 0 0 -2.014 -0.696 5.878 5.878 0 0 1 -3.38 1.576 24.256 24.256 0 0 0 0.8 -2.44c0.448 -1.052 -1.132 -1.778 -1.648 -0.984a22.664 22.664 0 0 0 -1.714 3.146 11.388 11.388 0 0 1 -6.1 -5.42 20.356 20.356 0 0 1 -2.968 -8.2 6.35 6.35 0 0 1 6.174 -7.268 10.922 10.922 0 0 1 9.12 8.322c0.684 2.776 -0.216 7 3.864 8.2a3.118 3.118 0 0 0 3.884 -2.06c0.4 -2.244 -1.4 -6.434 -1.82 -8.636 -0.562 -3.158 -1.048 -6.4 -1.444 -9.632 -0.976 -8 -2.4 -15.632 4.034 -20.774 10.324 -8.254 26.658 -8.2 35.47 -7.446a9.374 9.374 0 0 1 7.342 4.068 123.276 123.276 0 0 0 6.762 23.43 44.752 44.752 0 0 1 3.674 17.95 24.242 24.242 0 0 1 -24.2 23.456 1.4 1.4 0 0 0 -1.332 1.73 11 11 0 0 0 2.112 4.688 1.458 1.458 0 0 0 0.676 0.488c1.382 2.436 -0.724 5.648 -3.176 6.834a21.044 21.044 0 0 1 -10.504 1.42 35.686 35.686 0 0 1 -18.28 -7.126c-0.716 -1.572 -3.29 -15.5 -3.622 -17.276a61.878 61.878 0 0 0 -1.674 -7.286 0.346 0.346 0 0 0 -0.036 -0.064Zm42.458 21.2c0.238 1.104 0.2 0.894 1.652 5.618a10.236 10.236 0 0 0 1.22 2.826 16.2 16.2 0 0 0 -0.73 6.812 11.8 11.8 0 0 0 -0.064 1.55 63.916 63.916 0 0 0 -4.844 5.588 4.156 4.156 0 0 0 -2.682 0.268 30.368 30.368 0 0 0 -3.8 2.142 31.2 31.2 0 0 0 -2.926 1.946c-0.2 -0.084 1.706 0.308 -8.334 -1.67a3.8 3.8 0 0 0 -1.548 -3.742c-0.844 -0.6 -0.46 -0.466 -8.456 -4.38a1.54 1.54 0 0 0 -1.1 -0.108 37.162 37.162 0 0 0 -4 -6.348 3.076 3.076 0 0 0 0.268 -3.134 32.102 32.102 0 0 0 19.026 5.768c3.422 0 8.348 -0.356 11.6 -3.43a7.288 7.288 0 0 0 1.468 -8.868 2.322 2.322 0 0 0 -0.558 -1c1.266 0.078 2.54 0.128 3.808 0.16Zm57.114 125.152a110.424 110.424 0 0 1 -32.462 15.718c0.866 -1.07 6.2 -7.954 7.83 -10.11l0.384 0.478 5.578 -3.824 -1.676 -2.472q1.39 -1.932 2.662 -3.77c2.552 1.18 8.6 -6.514 8.834 -9.158a6.914 6.914 0 0 0 -0.616 -2.236c2.438 -1.138 4.9 -2.498 6.072 -3.1 1.826 8.402 2.5 12.372 3.394 18.472Zm-14.688 -28.926a25.846 25.846 0 0 1 11.048 -5.114 7.516 7.516 0 0 1 2.626 -0.328 11.352 11.352 0 0 1 -1.072 0.666 34.464 34.464 0 0 0 -5.366 3.352 1.372 1.372 0 1 0 1.274 2.428 21.572 21.572 0 0 1 7.8 -3.292c1.14 -0.242 1.7 -0.302 1.972 -0.114 -0.17 0.65 -4.542 2.342 -9.456 5.854a0.708 0.708 0 0 0 -0.386 0.344 1.32 1.32 0 0 0 1.4 2.13 25.558 25.558 0 0 1 6.33 -1.612c-0.362 0.254 -0.618 0.352 -0.898 0.532a86.328 86.328 0 0 1 -11.522 6.384 44.362 44.362 0 0 0 -3.61 -4.966 37.24 37.24 0 0 0 -5.53 -4.828 15.962 15.962 0 0 1 5.4 -8.476c0.916 -0.644 0.816 -0.052 0.37 0.736a31.6 31.6 0 0 1 -2.582 4.752c-1.046 1.646 1.604 2.626 2.202 1.552Zm-15.8 8.948c0.506 0.51 1.044 0.978 1.448 1.414a89.862 89.862 0 0 1 9.288 11.858q-1.246 1.766 -2.56 3.6l-6.24 -9.2c-1.272 -2.188 -2.662 -4.322 -4.148 -6.378q1.126 -0.616 2.222 -1.286Zm-4.31 38.496a107.4 107.4 0 0 0 35.2 -15.626q1.4 10.162 2.228 20.4a220.826 220.826 0 0 1 -56.8 20.614c-3.536 0.748 -7.144 1.384 -10.658 2a155.708 155.708 0 0 0 30.04 -27.38Zm22.424 -52.2a12.01 12.01 0 0 0 0.68 -2.268c0.2 -2.412 -2.114 -3.232 -4.116 -1.982a16.342 16.342 0 0 0 -6.214 9.222 1.494 1.494 0 0 0 -0.352 -0.05 3.938 3.938 0 0 0 -2.738 -0.754c-1.628 0.522 -2.578 1.476 -4.738 3.774a5.736 5.736 0 0 0 -2.016 2.39 2.31 2.31 0 0 0 -0.086 0.886q-1.246 0.744 -2.51 1.446l-0.03 -0.04a1.634 1.634 0 0 0 -2.534 -0.348 10.098 10.098 0 0 1 -2.81 1.8 1.574 1.574 0 0 0 0 1.36c-10.368 4.972 -21.444 8.354 -32.232 12.172 -1.366 -7.306 -2.77 -14.6 -4.314 -21.884a182.044 182.044 0 0 0 57.2 -17.2q3.8 -1.718 7.468 -3.736 2.016 6.646 3.684 13.29a25.584 25.584 0 0 0 -4.332 1.934ZM171.8 214.8c-4.462 1.018 -9.036 1.86 -13.49 2.664 -1.45 -6.702 -3.022 -13.376 -4.8 -20a88.588 88.588 0 0 0 22 -3.326 201.056 201.056 0 0 0 31.25 -9.15 93.984 93.984 0 0 0 10.27 -4.86c2.18 5.6 3.908 10.578 5.494 15.616A195.312 195.312 0 0 1 171.8 214.8Zm41.498 -36.082c-14.542 7.666 -29.572 10.726 -47.244 14.986a53.248 53.248 0 0 1 -13.114 1.6q-2.584 -9.834 -6.106 -19.364a75.426 75.426 0 0 0 21.714 -3.44c9.76 -2.746 19.146 -6.218 27.026 -9.248a102.896 102.896 0 0 0 11.742 -5.07q4.694 9.4 8.62 19.156c-0.892 0.462 -1.772 0.92 -2.638 1.378ZM182.932 165a193.388 193.388 0 0 1 -26.632 7.876 67.982 67.982 0 0 1 -10.21 1.088q-3.342 -8.77 -7.464 -17.22a95.772 95.772 0 0 0 17.842 -4 15 15 0 0 0 9.412 1.722 4.304 4.304 0 0 0 1.48 0.524 7.448 7.448 0 0 0 3.706 -0.778c0.674 -0.284 3.372 -1.476 3.372 -1.476a5.926 5.926 0 0 0 3.762 -3.758 23.542 23.542 0 0 0 6.534 -5.508 4.298 4.298 0 0 0 2.652 -1.312 54.364 54.364 0 0 0 9.32 -3.158c3.534 5.77 6.464 11.07 9.38 16.756 -7.544 3.444 -15.364 6.39 -23.154 9.244Zm0.434 -32.65a2.95 2.95 0 0 0 2.6 -1.25 4.614 4.614 0 0 1 0.25 2.576 21.236 21.236 0 0 1 -0.876 6c-0.092 -0.086 -2.466 -1.788 -2.666 -1.882a18.502 18.502 0 0 1 0.692 -5.45Zm-8.226 16.382c-0.614 0.836 -1.39 0.966 -3.702 1.972 -0.928 0.4 -1.716 0.772 -2.586 1.06a1.874 1.874 0 0 1 -1.04 0.158 2.694 2.694 0 0 0 -0.284 -1.04c1.67 -0.684 5.356 -3.368 6.8 -3.382a2.582 2.582 0 0 0 0.812 1.232Zm-27.674 -5.9c6.514 3.218 6.914 2.954 7 4.114a2.176 2.176 0 0 0 -1.6 1.83 46.016 46.016 0 0 1 -4.42 -2.436 6.352 6.352 0 0 1 -2.13 -1.688 2.8 2.8 0 0 0 1.15 -1.82Zm41.2 -3.132a17.37 17.37 0 0 0 0.426 -3.574c0.164 -3.31 1 -6.842 -2.3 -8.2l-0.088 -0.02a23.43 23.43 0 0 0 -2 -4.888c3.076 1.988 8.82 10.904 10.762 14a69.8 69.8 0 0 1 -6.79 2.682ZM138.2 127.136c0.32 0.686 -0.306 -0.652 1.464 3.084 -0.448 0.068 -0.11 0.038 -0.736 -0.06a1.4 1.4 0 0 0 -1.346 1.454 2.892 2.892 0 0 0 -0.308 0.742c-0.568 -0.104 -0.754 -1.178 -1.746 -4.32ZM68 190.4a4.6 4.6 0 0 1 0.25 2.912 0.9 0.9 0 0 1 -0.724 0.454c-0.166 0 -7.4 0.544 -7.568 0.56q0.376 -1.882 0.826 -3.726c4.942 -0.292 6.83 -1.654 7.216 -0.2Zm-8.576 6.894c2.114 -0.124 3.854 -0.358 5.888 -0.532 1.8 -0.176 4.294 -0.04 5.306 -2.098a6.68 6.68 0 0 0 0.024 -4.564 4.09 4.09 0 0 0 -1.548 -2.366 3.93 3.93 0 0 0 -2.776 -0.4c-1.256 0.2 -4.282 0.788 -4.928 0.948A78 78 0 0 1 64.5 179.2c3.472 -0.112 8.324 -0.702 9.082 -0.706a1.652 1.652 0 0 1 1.8 1.484 155.422 155.422 0 0 1 -0.89 20.766c-0.16 1.488 -0.292 2.282 -1.34 2.692a18.464 18.464 0 0 1 -2.644 0.746 78.8 78.8 0 0 1 -12.074 1.8q0.298 -4.424 0.994 -8.686Zm10.312 9.886a13.98 13.98 0 0 0 5.586 -1.864 5.578 5.578 0 0 0 1.672 -4.152c0.902 -8.564 0.688 -14.772 0.816 -20.4a5.246 5.246 0 0 0 -1.51 -3.842c-1.728 -1.4 -4.2 -0.718 -6.082 -0.526 -1.854 0.188 -3.29 0.32 -4.726 0.51q0.646 -1.422 1.348 -2.8c4.328 0.26 8.67 -0.056 12.908 0.462 1.828 0.212 2.456 1.22 2.4 3.854 -0.036 2 0.09 -2.418 -1.09 25.086a4.256 4.256 0 0 1 -0.8 3.064 7.732 7.732 0 0 1 -2.882 1 114.458 114.458 0 0 1 -19.18 3.118c0.014 -0.69 0.038 -1.378 0.066 -2.064a50.98 50.98 0 0 0 11.478 -1.444Zm64.326 -74.63a4.082 4.082 0 0 0 2.1 2.476 4.6 4.6 0 0 0 1.29 0.272 4.78 4.78 0 0 0 0.384 0.826 36.764 36.764 0 0 0 3.734 6.942 4.274 4.274 0 0 0 1.878 1.682 5.302 5.302 0 0 0 2.018 3.052 34.474 34.474 0 0 0 6.572 3.92 119.27 119.27 0 0 1 -14.34 3.15 108.32 108.32 0 0 0 -14.378 -22.638c2.256 -0.814 9.858 -3.4 9.858 -3.4 0.338 1.536 0.548 2.6 0.884 3.718Zm-44.4 16.026a43.868 43.868 0 0 1 25.018 18.298 62.464 62.464 0 0 1 10.748 30.862 31.302 31.302 0 0 1 -2.742 15.366c-1.134 -4 -2.738 -8.878 -4.452 -13.4 -0.64 -1.754 -3.412 -0.944 -2.762 0.878 7.48 20.054 9.818 39.81 13.584 59.462a1.47 1.47 0 0 0 2.4 0.666c17.212 -14.4 42.154 -17.866 65.126 -28.8 2.8 5.05 8.94 14.084 11.948 18.43C187.952 278.12 160.2 303.8 126.452 310.734a48.092 48.092 0 0 1 -11.424 1.082c-7.486 -0.246 -13.384 -5.11 -18.172 -9.698A126.816 126.816 0 0 1 58.2 213.4c0.05 0 0.1 0.014 0.152 0.018a87.384 87.384 0 0 0 16.242 -2.282c4.912 -1.174 5.582 -1.246 7.374 -2.33a6.216 6.216 0 0 0 1.848 -5.298s0.978 -24.098 0.906 -25.508a5.082 5.082 0 0 0 -4.2 -5.844c-0.468 -0.078 -4.51 -0.244 -4.984 -0.262a55.214 55.214 0 0 0 -7.514 0 69.544 69.544 0 0 1 21.644 -23.318Zm77.2 147.88c21.892 -2.424 49.286 -11.212 71.07 -23.494 0.814 10.932 0.83 16.128 0.902 25.49 -14.126 3.046 -63.882 13.33 -74.586 15.49 0.116 -0.214 2.424 -15.97 2.626 -17.486Zm93.94 -164.364a5.8 5.8 0 0 0 -1.088 2.986 15.232 15.232 0 0 0 3.836 12.856c-0.828 0.252 -1.652 0.518 -2.466 0.8a1.182 1.182 0 0 0 -0.974 0.43c-0.296 0.224 -0.304 0.526 -0.4 1.536a17.824 17.824 0 0 1 -4.168 -8.282 12.2 12.2 0 0 1 1.688 -10.39 15.254 15.254 0 0 1 3.584 0.064Zm-12.77 4.578c-1.884 6.176 -0.2 13.75 6.09 19.67l-0.358 -0.162c-7.626 -3.356 -9.906 -9.95 -7.076 -16.83a15.04 15.04 0 0 1 1.356 -2.678Zm60.502 236.822c0 8.374 -14.428 15.186 -32.164 15.186s-32.186 -6.812 -32.186 -15.186V371.2c6.134 8.578 21.91 11.31 32.85 11.212 14.614 -0.148 26.704 -4.696 31.368 -11.182 0.198 3.006 0.138 2.062 0.144 2.262Zm-0.066 -8.27c0 10.47 -19.712 15.046 -31.37 15.182 -12.8 0.172 -36.48 -5.588 -32.58 -17.51 2.304 -7.046 14.908 -12.51 30.298 -12.844v13.374c0 2.748 5 2.704 5 0v-13.3c16.1 0.828 28.664 7.276 28.664 15.098Z" fill="#000000" stroke-width="1"></path><path d="M236.498 85.668a0.92 0.92 0 0 0 0.89 0.04c4.8 -2.828 7.492 -4.864 18.2 -11.268a68.768 68.768 0 0 0 5.85 -3.826c0.894 -0.688 0.146 -2.118 -1.112 -1.63 -2.08 1.132 -4.09 2.442 -6.03 3.752 -18.74 12.654 -18.026 11.6 -18.136 11.93a0.92 0.92 0 0 0 0.338 1.002Z" fill="#000000" stroke-width="1"></path><path d="M241.138 97.518a0.918 0.918 0 0 0 -0.936 1.324 1.174 1.174 0 0 0 0.53 0.46 96.044 96.044 0 0 0 23.234 -1.954 1.102 1.102 0 0 0 0.858 -1.328 1.184 1.184 0 0 0 -1.358 -0.946 131.518 131.518 0 0 1 -22.328 2.444Z" fill="#000000" stroke-width="1"></path><path d="M250.012 117c-2.956 -0.572 -5.886 -1.23 -8.922 -1.816a0.974 0.974 0 0 0 -0.98 0.862 0.89 0.89 0 0 0 0.948 0.974c11.618 2.868 12.864 3.324 17.58 3.952a0.952 0.952 0 0 0 0.2 -1.874 85.486 85.486 0 0 0 -8.826 -2.098Z" fill="#000000" stroke-width="1"></path></g></svg>