<svg width="200" height="201" viewBox="0 0 200 201" fill="none" xmlns="http://www.w3.org/2000/svg">
<rect x="2" y="2.66663" width="196" height="196" rx="98" stroke="#F1F5F9" stroke-width="0"/>
<path d="M108 86.6666H120M114 80.6666V92.6666M118 99.6666V114.667C118 115.727 117.579 116.745 116.828 117.495C116.078 118.245 115.061 118.667 114 118.667H86C84.9391 118.667 83.9217 118.245 83.1716 117.495C82.4214 116.745 82 115.727 82 114.667V86.6666C82 85.6058 82.4214 84.5883 83.1716 83.8382C83.9217 83.0881 84.9391 82.6666 86 82.6666H101M118 106.667L111.828 100.495C111.078 99.7446 110.061 99.3234 109 99.3234C107.939 99.3234 106.922 99.7446 106.172 100.495L88 118.667M98 94.6666C98 96.8758 96.2091 98.6666 94 98.6666C91.7909 98.6666 90 96.8758 90 94.6666C90 92.4575 91.7909 90.6666 94 90.6666C96.2091 90.6666 98 92.4575 98 94.6666Z" stroke="black" stroke-width="4" stroke-linecap="round" stroke-linejoin="round"/>
</svg>
