<svg width="180" height="229" viewBox="0 0 180 229" fill="none" xmlns="http://www.w3.org/2000/svg">
<g id="Group">
<path id="Vector" d="M132.828 132C128.148 120.168 123.84 115.428 113.88 107.916C112.742 107.152 111.537 106.493 110.28 105.948C110.28 102.468 116.58 100.152 117.216 98.424C117.852 96.696 116.016 94.692 114 94.92C115.464 93.648 116.64 91.92 115.56 90.312C114.72 89.04 113.04 89.112 111.564 89.568C112.44 88.368 112.968 87.276 112.212 86.052C111.949 85.6401 111.597 85.2925 111.181 85.035C110.766 84.7774 110.298 84.6165 109.812 84.564C108.612 84.36 105.096 86.796 102.324 89.088C105.348 85.224 107.592 80.292 107.016 75.468C106.363 70.9971 105.29 66.5977 103.812 62.328C105.384 61.128 105.588 59.4 105.228 57.456C104.831 55.2612 103.895 53.1995 102.504 51.456C102.204 51.18 101.988 51.096 101.304 51.264C100.98 51.36 100.416 51.564 99.7439 51.84C99.0359 50.1939 98.2877 48.5654 97.4999 46.956C98.2278 46.5601 98.8054 45.9361 99.1439 45.18C100.479 42.8718 101.42 40.3574 101.928 37.74C102.312 35.1 101.832 31.14 99.8759 29.34C98.8079 28.32 97.1519 27.792 96.2759 26.664C93.0719 22.608 89.6519 19.608 84.5399 20.448C81.5879 20.94 79.8719 22.776 77.3399 24.048C74.8651 25.1305 72.2227 25.7799 69.528 25.968C61.812 26.136 53.352 25.968 48.06 31.572C42.348 37.572 40.32 45.768 40.86 53.988C41.04 56.508 42.288 58.404 42.744 60.66C42.972 61.74 41.988 62.82 41.784 63.972C41.112 67.74 42.984 72.828 45.168 75.888C47.196 78.672 49.968 78.54 52.488 79.764C54.4559 80.712 55.296 82.812 57.852 83.664C58.6835 83.9396 59.5763 83.9731 60.4261 83.7607C61.276 83.5482 62.048 83.0985 62.652 82.464C62.556 84.996 62.304 91.728 62.184 95.172C61.596 95.064 56.508 97.848 55.98 98.136C55.8071 97.981 55.5875 97.8881 55.3559 97.872C18.324 104.316 2.32795 150.576 0.395954 187.872C0.167954 192.396 -0.696047 221.472 2.35195 222.948C2.40128 222.972 2.45808 222.975 2.50984 222.957C2.5616 222.939 2.60409 222.901 2.62795 222.852C2.65182 222.803 2.65512 222.746 2.63711 222.694C2.61911 222.642 2.58128 222.6 2.53195 222.576C-4.51023e-05 221.076 1.10395 190.8 1.28395 187.764C3.38395 151.692 18.444 107.052 54.396 98.964C51.696 100.596 49.368 102.336 49.5 103.392C49.68 104.808 69.624 120.672 70.728 121.56C70.836 121.872 72.852 127.284 75.3359 135.132C72.4199 137.532 68.808 140.784 65.328 144.216C64.5 132.42 57.852 112.908 44.928 109.5C41.532 108.636 36.3239 109.5 33.9359 111.9C33.7319 112.08 34.02 112.392 34.224 112.2C36.54 110.04 41.616 109.452 44.7 110.352C50.328 111.948 54.528 116.736 57.444 121.836C61.2672 128.966 63.7599 136.733 64.8 144.756C61.2194 148.202 57.9581 151.966 55.0559 156C55.0368 156.046 55.034 156.097 55.048 156.144C55.0619 156.192 55.0918 156.233 55.1326 156.261C55.1734 156.289 55.2226 156.303 55.272 156.299C55.3214 156.295 55.368 156.274 55.404 156.24C61.4039 147.468 78.0599 133.26 81.2039 131.856C83.7359 134.364 96.8039 149.016 98.4479 151.944C89.1599 169.752 75.456 193.488 55.536 192.624C30.336 191.568 23.136 173.352 15.732 160.98C15.7186 160.956 15.7006 160.936 15.6792 160.919C15.6578 160.902 15.6333 160.89 15.6071 160.883C15.5809 160.875 15.5536 160.873 15.5266 160.877C15.4996 160.88 15.4736 160.889 15.45 160.902C15.4263 160.915 15.4055 160.933 15.3888 160.955C15.3721 160.976 15.3598 161.001 15.3526 161.027C15.3453 161.053 15.3433 161.08 15.3466 161.107C15.35 161.134 15.3586 161.16 15.372 161.184C19.176 167.772 23.16 176.784 30.54 183.66C37.548 190.176 45.9 193.14 55.4879 193.596C63.4319 193.956 70.368 190.596 76.452 185.292C77.7119 186.864 81.6239 189 86.8439 191.172C88.0439 207.108 86.8439 218.088 85.6439 224.04C85.6384 224.067 85.6382 224.094 85.6434 224.121C85.6486 224.148 85.659 224.174 85.674 224.197C85.689 224.219 85.7084 224.239 85.7311 224.254C85.7537 224.27 85.7792 224.28 85.8059 224.286C85.8327 224.291 85.8604 224.292 85.8872 224.287C85.9141 224.281 85.9397 224.271 85.9625 224.256C85.9853 224.241 86.005 224.221 86.0203 224.199C86.0357 224.176 86.0464 224.151 86.0519 224.124C87.2519 218.196 88.6199 207.324 87.5519 191.472C90.6719 192.756 94.2239 194.04 97.9199 195.228C99.1199 220.428 100.764 218.736 100.824 224.808C100.835 224.855 100.862 224.897 100.9 224.927C100.938 224.957 100.985 224.973 101.034 224.973C101.082 224.973 101.13 224.957 101.168 224.927C101.206 224.897 101.233 224.855 101.244 224.808C101.304 218.904 99.8279 221.628 98.9039 195.54C104.195 197.236 109.585 198.606 115.044 199.644C119.376 226.116 119.448 225.804 119.844 226.044C122.712 227.424 125.088 227.652 129.36 228.048C132.395 227.899 135.415 227.526 138.396 226.932C138.617 226.864 138.814 226.735 138.963 226.558C139.112 226.381 139.207 226.165 139.236 225.936C139.368 225.36 137.22 213.72 135.804 197.136C141.684 193.212 144.336 187.32 145.104 180.78C146.772 166.536 139.8 150.552 137.196 142.644C135.996 138.912 134.232 135.6 132.828 132ZM109.776 85.572C111.12 85.776 111.828 86.904 111.528 87.66C110.148 91.128 105.432 92.16 104.328 94.08C103.495 95.5742 102.915 97.1962 102.612 98.88C102.602 98.9375 102.603 98.9964 102.615 99.0535C102.628 99.1106 102.652 99.1646 102.685 99.2125C102.719 99.2604 102.761 99.3013 102.81 99.3328C102.859 99.3642 102.914 99.3857 102.972 99.396C103.029 99.4062 103.088 99.405 103.145 99.3925C103.203 99.3799 103.257 99.3563 103.305 99.3228C103.352 99.2894 103.393 99.2469 103.425 99.1976C103.456 99.1484 103.478 99.0935 103.488 99.036C103.783 97.4568 104.326 95.934 105.096 94.524C105.6 93.696 107.976 92.436 108.864 91.932C109.248 91.932 111.576 90.096 113.808 90.3C114.007 90.3099 114.202 90.3651 114.377 90.4611C114.552 90.5572 114.703 90.6918 114.819 90.8547C114.934 91.0176 115.011 91.2046 115.044 91.4016C115.077 91.5986 115.064 91.8004 115.008 91.992C114.324 94.392 109.644 96.42 108.804 97.38C107.848 98.2407 107.069 99.2802 106.512 100.44C106.3 100.952 106.135 101.482 106.02 102.024C106.01 102.049 106.006 102.076 106.007 102.103C106.008 102.13 106.014 102.156 106.025 102.181C106.036 102.205 106.052 102.227 106.072 102.246C106.092 102.264 106.115 102.278 106.14 102.288C106.165 102.297 106.192 102.302 106.219 102.301C106.246 102.3 106.272 102.294 106.297 102.283C106.321 102.271 106.343 102.256 106.362 102.236C106.38 102.216 106.394 102.193 106.404 102.168C109.284 96.972 112.032 96.408 113.976 95.94C115.92 95.472 117.576 97.704 115.512 98.976C113.112 100.452 110.844 102.012 109.656 104.652C109.08 105.924 109.728 108.252 110.076 109.644C110.592 111.708 111.06 114.852 110.376 116.844C109.32 119.952 105.912 124.908 103.944 127.392C103.944 127.392 103.8 127.776 103.572 128.4C102.067 127.072 100.313 126.056 98.4119 125.412C99.0119 124.56 99.3359 123.828 99.1799 123.408C98.5799 121.788 94.9439 119.964 92.4839 119.292C92.9226 118.752 93.3235 118.183 93.6839 117.588C93.6839 118.092 93.5159 108.828 93.0239 104.388C92.7119 101.568 90.8999 96.144 93.3599 95.436C95.8199 94.728 97.2839 101.436 97.6079 104.016C97.6159 104.146 97.6754 104.268 97.7733 104.355C97.8712 104.442 97.9995 104.486 98.1299 104.478C98.2604 104.47 98.3824 104.411 98.4691 104.313C98.5557 104.215 98.5999 104.086 98.5919 103.956C98.4959 102.84 97.9919 95.424 99.5879 93.156C100.92 91.296 108.504 85.368 109.776 85.572ZM85.1999 127.668C84.8759 128.1 84.5519 128.52 84.2639 128.868L79.6559 121.896C81.4555 119.114 83.9663 116.865 86.9279 115.38C87.0959 116.052 87.4559 118.152 87.9239 121.104C86.6742 122.365 85.549 123.743 84.5639 125.22C84.3916 125.642 84.3603 126.108 84.475 126.55C84.5896 126.991 84.8439 127.383 85.1999 127.668ZM85.992 125.016C86.556 123.816 89.4599 120.216 90.1679 120.072C91.3679 119.832 95.8919 122.208 96.3599 123.432C95.0363 125.535 93.2917 127.341 91.2359 128.736C89.8739 128.369 88.5892 127.759 87.4439 126.936C86.8919 126.552 85.692 125.604 85.992 125.016ZM91.4399 119.124C90.707 117.729 90.1237 116.261 89.6999 114.744C90.8794 115.214 91.9802 115.861 92.9639 116.664V117.528C92.6639 117.912 92.22 118.476 91.692 119.172L91.4399 119.124ZM98.0759 125.844C100.039 126.709 101.809 127.958 103.284 129.516C103.74 129.972 104.484 129.624 101.568 135.444C101.292 133.344 97.0439 130.164 94.9799 129.168C96.0992 128.145 97.1345 127.033 98.0759 125.844ZM94.6319 94.644C96.1912 94.0082 97.6761 93.2034 99.0599 92.244C97.7279 93.756 97.5239 96.876 97.4639 98.892C96.9119 97.2 95.9999 95.208 94.6319 94.62V94.644ZM106.2 75.6C106.74 80.232 104.46 85.008 101.556 88.656C98.8841 91.6821 95.3213 93.7828 91.3799 94.656C88.7368 95.2215 85.9844 94.9747 83.4839 93.948C77.4839 90.912 75.8999 86.964 76.6559 82.692C76.9079 81.276 80.6519 80.832 82.0559 79.896C84.7199 78.108 83.9519 77.496 86.5439 76.044C88.1399 75.156 90.1439 72.6 91.5959 71.904C93.6702 70.947 95.9539 70.534 98.2319 70.704C101.376 71.112 102.96 71.04 105.684 72.312C105.9 73.404 106.08 74.52 106.2 75.6ZM101.112 52.404C101.532 52.272 102 52.008 102.012 52.176C102.024 52.344 102.48 52.884 102.516 52.956C103.812 55.044 105.516 59.7 103.62 61.284C101.352 63.204 98.8199 62.484 96.7919 60.24C96.2039 59.604 93.3479 56.172 93.5639 55.668C93.9599 54.888 100.116 52.68 101.112 52.368V52.404ZM66.06 52.2C67.644 50.172 74.6879 52.08 79.7399 51.468C82.8752 51.0655 85.8741 49.9399 88.4999 48.18C89.6999 47.364 90.4919 45.456 91.7759 45.048C93.2639 44.568 95.6039 46.812 96.8879 47.052C97.6319 48.576 98.3999 50.304 99.1919 52.152C96.7919 53.172 93.5039 54.744 93.192 55.452C93.012 55.8 93.3959 56.652 93.9599 57.576C93.2888 57.5418 92.6189 57.665 92.0039 57.936C91.6079 57.504 91.3199 57.216 91.1759 57.036C91.161 57.0131 91.1417 56.9934 91.1191 56.9781C91.0965 56.9627 91.0711 56.9519 91.0444 56.9463C91.0176 56.9407 90.99 56.9405 90.9632 56.9456C90.9364 56.9507 90.9108 56.961 90.8879 56.976C90.8651 56.9909 90.8454 57.0103 90.83 57.0328C90.8147 57.0554 90.8039 57.0808 90.7983 57.1075C90.7927 57.1343 90.7925 57.1619 90.7976 57.1887C90.8026 57.2155 90.813 57.2411 90.8279 57.264C90.9719 57.516 91.1759 57.84 91.4279 58.2C90.5212 58.6579 89.7357 59.3241 89.1359 60.144C88.7763 59.0612 88.0725 58.1257 87.1319 57.48C85.2359 56.616 75.3359 61.632 74.6879 63.336C74.6072 63.9694 74.729 64.6121 75.0359 65.172C72.1093 65.1809 69.1852 65.3451 66.276 65.664C66.504 63.828 67.1039 62.136 66.7079 60.288C66.2039 57.852 64.416 54.3 66.06 52.2ZM87.2039 70.452C84.8039 71.916 80.9879 72.264 79.0319 70.236C77.6879 68.88 74.772 64.32 75.084 63.48C75.6 62.136 83.9999 58.404 86.3999 58.332C88.2479 58.272 91.3559 67.932 87.2039 70.452ZM63.276 95.352C63.624 80.424 63.972 80.952 63.276 80.712C61.049 79.8096 59.0936 78.3461 57.6 76.464C54.972 72.516 58.92 68.532 62.58 70.68C62.9447 70.8354 63.2615 71.0852 63.4977 71.4037C63.734 71.7221 63.8811 72.0978 63.9239 72.492C64.2839 73.932 64.8239 76.524 66.3239 76.092C69.2759 75.132 66.2279 69.372 66.3239 66.636C69.3554 66.6131 72.3761 66.2712 75.3359 65.616C76.1651 67.4548 77.1997 69.1938 78.4199 70.8C80.6519 73.2 84.8879 73.02 87.7319 71.316C90.9479 69.372 90.6719 64.212 89.3759 60.744C90.233 60.1301 91.1266 59.569 92.0519 59.064C93.5999 61.2 95.9999 64.164 96.7439 65.412C96.9479 65.784 97.0199 65.832 96.7439 66.228C95.9816 67.2643 95.0385 68.1546 93.9599 68.856C93.9106 68.8814 93.8734 68.9254 93.8565 68.9783C93.8397 69.0312 93.8445 69.0886 93.8699 69.138C93.8954 69.1873 93.9394 69.2245 93.9923 69.2414C94.0452 69.2582 94.1026 69.2534 94.1519 69.228C95.3519 68.712 97.9679 67.116 97.8719 65.724C97.7759 64.332 93.6359 59.724 92.6999 58.704C93.1862 58.4262 93.7188 58.2392 94.2719 58.152C94.9919 59.268 95.8439 60.372 96.1319 60.732C98.1119 63.132 100.68 64.056 103.116 62.784C104.07 65.7124 104.871 68.6884 105.516 71.7C102.324 70.14 95.5679 68.832 91.1159 70.944C89.5679 71.688 87.516 74.232 85.992 75.048C83.016 76.668 84.0719 77.16 81.4199 78.936C80.0879 79.824 75.9719 80.136 75.5879 82.416C74.5919 88.284 77.7719 92.016 83.0879 94.548C85.5908 95.4388 88.2791 95.6784 90.8999 95.244C91.2719 102.072 91.8959 101.4 92.3279 106.488C88.6559 112.944 88.2359 113.448 90.5759 119.076C89.9039 119.148 89.0159 120 88.3439 120.66C87.8039 117.72 87.3599 115.44 87.1439 115.032C87.5999 113.448 67.86 97.596 63.276 95.352ZM82.2359 131.688C81.7079 131.136 81.5399 130.848 81.0359 131.004C79.2782 131.981 77.6359 133.152 76.1399 134.496C74.9399 130.56 73.584 126.648 72.216 122.784C77.532 126.972 77.2199 126.612 77.4359 126.564C78.2039 126.432 77.4359 125.82 79.0559 122.964C80.5799 125.292 82.116 127.608 83.592 129.852C83.532 129.888 82.2719 131.58 82.2359 131.688ZM82.4879 131.952C82.6439 131.952 82.3199 132.132 85.5479 128.028C85.8643 128.339 86.2054 128.624 86.5679 128.88C87.5279 129.576 91.2359 131.784 92.2439 131.28C93.1094 130.768 93.9145 130.16 94.6439 129.468C97.0439 130.956 100.164 133.608 100.716 136.548C99.2639 140.688 97.6799 145.224 96.7319 147.78C94.2239 145.008 88.3319 138 82.4879 132V131.952ZM99.4439 152.244C99.4834 152.135 99.4834 152.016 99.4439 151.908C98.8284 150.653 98.0185 149.502 97.0439 148.5C97.1519 148.284 99.9479 140.88 100.944 137.268C101.01 137.306 101.083 137.331 101.159 137.341C101.235 137.351 101.311 137.346 101.385 137.326C101.459 137.306 101.528 137.271 101.588 137.224C101.648 137.177 101.699 137.119 101.736 137.052C102.687 135.411 103.49 133.688 104.136 131.904C105.648 141.504 107.376 152.412 109.128 163.368C105.648 162.936 98.5679 162.168 95.0519 162.168L94.8359 160.692C96.5279 157.788 98.0399 154.956 99.4439 152.244ZM120.492 225.156C120.492 225.156 118.872 215.424 116.28 199.872C118.444 200.249 120.627 200.505 122.82 200.64C128.376 226.5 127.944 225.42 128.304 225.252C128.664 225.084 129 225.936 123.504 200.676C127.523 200.953 131.52 199.898 134.88 197.676C137.172 224.484 138.972 224.676 138.204 225.852C135.327 226.406 132.417 226.775 129.492 226.956C126.423 226.779 123.393 226.173 120.492 225.156ZM129.036 199.2C118.584 202.548 80.2679 189.336 77.16 184.8C89.3639 173.712 91.5599 165.204 93.6959 163.092C94.9679 162.672 104.496 163.596 105.828 163.728C123.228 165.48 124.44 166.776 124.572 166.128C124.579 166.1 124.58 166.071 124.575 166.043C124.57 166.015 124.56 165.988 124.544 165.965C124.528 165.941 124.507 165.921 124.483 165.905C124.459 165.89 124.432 165.88 124.404 165.876C121.836 165.348 118.824 164.82 115.692 164.352C115.872 160.884 116.232 156.66 115.968 143.832C115.968 143.778 115.946 143.726 115.908 143.688C115.87 143.649 115.818 143.628 115.764 143.628C115.71 143.628 115.658 143.649 115.62 143.688C115.581 143.726 115.56 143.778 115.56 143.832C114.898 150.64 114.794 157.491 115.248 164.316C113.592 164.064 111.9 163.836 110.244 163.62C103.908 125.472 104.328 128.424 104.508 127.956C106.644 125.268 110.016 120.528 111.168 117.288C112.368 113.796 110.556 108.552 110.364 106.488C111.505 106.987 112.597 107.589 113.628 108.288C123.696 115.956 127.692 120.288 132.252 132.288C133.608 135.888 135.372 139.332 136.512 142.884C137.652 146.436 140.436 153.504 142.38 161.484C146.4 178.152 145.416 193.908 129.036 199.2Z" fill="#020617"/>
<path id="Vector_2" d="M79.572 83.16C79.38 83.412 79.5 83.712 79.572 84.024C79.5895 84.1307 79.6443 84.2277 79.7268 84.2978C79.8092 84.3678 79.9138 84.4062 80.022 84.4062C80.1301 84.4062 80.2348 84.3678 80.3172 84.2978C80.3996 84.2277 80.4545 84.1307 80.472 84.024C80.472 82.8 79.824 82.8 79.572 83.16ZM83.496 88.488C83.016 88.092 82.452 88.788 82.884 89.148C83.544 90.168 83.856 89.664 83.856 89.352C83.8434 89.0301 83.7156 88.7235 83.496 88.488ZM85.812 80.784C85.727 80.7586 85.6367 80.7568 85.5508 80.7785C85.4648 80.8003 85.3863 80.8449 85.3236 80.9076C85.2609 80.9703 85.2163 81.0488 85.1945 81.1347C85.1728 81.2207 85.1747 81.311 85.2 81.396C85.044 83.544 86.88 81.168 85.812 80.784ZM88.308 86.4C88.308 85.764 87.108 85.752 87.48 86.736C87.4693 86.8012 87.4729 86.868 87.4906 86.9317C87.5083 86.9954 87.5396 87.0545 87.5825 87.1049C87.6253 87.1553 87.6785 87.1958 87.7385 87.2236C87.7985 87.2513 87.8639 87.2657 87.93 87.2657C87.9961 87.2657 88.0614 87.2513 88.1214 87.2236C88.1814 87.1958 88.2347 87.1553 88.2775 87.1049C88.3203 87.0545 88.3517 86.9954 88.3694 86.9317C88.387 86.868 88.3907 86.8012 88.38 86.736C88.3675 86.6218 88.3434 86.5092 88.308 86.4ZM90 92.04C90.0251 92.1477 90.0895 92.2422 90.1806 92.3049C90.2718 92.3677 90.383 92.3941 90.4927 92.3791C90.6023 92.3641 90.7023 92.3087 90.7732 92.2238C90.8441 92.1388 90.8808 92.0305 90.876 91.92C90.9 90.792 89.544 91.032 90 92.04ZM95.196 83.772C94.848 83.496 94.272 83.772 94.476 84.42C94.68 85.068 95.46 84.984 95.46 84.42C95.4286 84.185 95.3377 83.962 95.196 83.772ZM95.82 89.136C95.4 89.388 95.712 90.024 95.748 90.096C95.8114 90.1847 95.9045 90.2477 96.0104 90.2736C96.1163 90.2996 96.228 90.2867 96.3253 90.2374C96.4225 90.188 96.4988 90.1055 96.5404 90.0047C96.582 89.9039 96.5861 89.7915 96.552 89.688C96.492 89.568 96.408 88.8 95.82 89.136ZM102 83.436C101.925 83.3969 101.84 83.3795 101.756 83.3859C101.671 83.3922 101.59 83.422 101.522 83.4718C101.453 83.5217 101.4 83.5896 101.368 83.6681C101.336 83.7465 101.326 83.8324 101.34 83.916C101.346 84.0279 101.346 84.14 101.34 84.252C101.357 84.3587 101.412 84.4557 101.495 84.5258C101.577 84.5958 101.682 84.6342 101.79 84.6342C101.898 84.6342 102.003 84.5958 102.085 84.5258C102.168 84.4557 102.222 84.3587 102.24 84.252C102.252 83.58 102.096 83.508 102 83.436ZM104.04 78.84C103.932 79.152 104.268 79.584 104.316 79.632C104.748 80.052 105.384 79.416 104.964 79.008C104.4 78.264 104.124 78.576 104.04 78.84ZM100.092 78C100.013 77.9556 99.9222 77.9358 99.8317 77.9432C99.7412 77.9507 99.655 77.9849 99.5841 78.0416C99.5132 78.0983 99.4609 78.1749 99.4338 78.2616C99.4067 78.3482 99.4061 78.441 99.432 78.528C99.418 78.5997 99.4199 78.6737 99.4373 78.7446C99.4548 78.8156 99.4875 78.8819 99.5332 78.939C99.5788 78.9961 99.6364 79.0426 99.7018 79.0752C99.7672 79.1078 99.8389 79.1258 99.912 79.128C100.548 79.068 100.404 78.108 100.092 78ZM102.18 73.056C102.176 73.1229 102.188 73.1899 102.213 73.252C102.238 73.3141 102.277 73.3699 102.326 73.4154C102.376 73.4608 102.434 73.4948 102.498 73.515C102.562 73.5351 102.63 73.5409 102.696 73.5319C102.763 73.523 102.827 73.4994 102.883 73.463C102.939 73.4266 102.987 73.3782 103.022 73.3213C103.058 73.2644 103.08 73.2003 103.088 73.1337C103.096 73.0671 103.089 72.9996 103.068 72.936C103.2 72.288 102.06 72 102.18 73.056ZM97.38 73.716C94.8 73.032 90.972 76.188 91.2 80.4C91.2113 80.4471 91.2382 80.4891 91.2763 80.5191C91.3144 80.5491 91.3615 80.5654 91.41 80.5654C91.4585 80.5654 91.5056 80.5491 91.5437 80.5191C91.5817 80.4891 91.6086 80.4471 91.62 80.4C92.268 77.004 95.412 74.112 97.32 74.136C97.3476 74.1399 97.3756 74.1384 97.4026 74.1315C97.4296 74.1245 97.455 74.1124 97.4773 74.0957C97.4995 74.079 97.5183 74.058 97.5325 74.034C97.5467 74.0101 97.556 73.9835 97.56 73.956C97.5639 73.9284 97.5624 73.9003 97.5555 73.8733C97.5486 73.8463 97.5364 73.821 97.5197 73.7987C97.503 73.7764 97.482 73.7576 97.4581 73.7434C97.4341 73.7292 97.4076 73.7199 97.38 73.716ZM96.504 57.6C96.5968 57.8127 96.7494 57.994 96.9433 58.1218C97.1371 58.2496 97.3638 58.3184 97.596 58.32C97.7971 58.3216 97.9955 58.2726 98.1728 58.1775C98.35 58.0824 98.5006 57.9442 98.6105 57.7757C98.7204 57.6073 98.7862 57.4138 98.8019 57.2133C98.8175 57.0127 98.7825 56.8114 98.7 56.628C98.4829 56.1075 98.2385 55.5988 97.968 55.104C97.8892 54.9661 97.784 54.8451 97.6584 54.7478C97.5329 54.6506 97.3894 54.579 97.2362 54.5372C97.083 54.4954 96.923 54.4843 96.7655 54.5043C96.6079 54.5243 96.4559 54.5752 96.318 54.654C96.1801 54.7328 96.0591 54.8379 95.9618 54.9635C95.8646 55.0891 95.793 55.2325 95.7513 55.3858C95.7095 55.539 95.6983 55.6989 95.7183 55.8565C95.7383 56.014 95.7892 56.1661 95.868 56.304C96.096 56.712 96.288 57.168 96.504 57.6ZM91.956 50.844C93.4881 50.487 95.0442 50.2423 96.612 50.112C96.6661 50.1231 96.7224 50.1123 96.7685 50.0819C96.8147 50.0515 96.8468 50.0041 96.858 49.95C96.8691 49.8959 96.8583 49.8395 96.8279 49.7934C96.7975 49.7473 96.7501 49.7151 96.696 49.704C95.8839 49.323 94.976 49.1948 94.0902 49.336C93.2043 49.4772 92.3814 49.8813 91.728 50.496C91.488 50.64 91.728 50.988 91.956 50.844ZM82.488 61.62C82.3133 61.3797 82.0556 61.2128 81.7649 61.1515C81.4742 61.0903 81.1712 61.139 80.9143 61.2883C80.6575 61.4377 80.4652 61.6769 80.3746 61.9599C80.2841 62.2428 80.3016 62.5492 80.424 62.82C81.072 63.924 81.132 65.22 82.32 65.22C82.51 65.213 82.6956 65.161 82.8616 65.0683C83.0276 64.9755 83.1692 64.8446 83.2746 64.6864C83.3801 64.5282 83.4465 64.3472 83.4683 64.1583C83.4901 63.9694 83.4667 63.778 83.4 63.6C83.076 62.916 82.8 62.196 82.488 61.62ZM73.848 60.072C74.7 58.38 80.208 54.96 82.584 55.02C82.6342 55.0176 82.6819 54.9978 82.7191 54.964C82.7562 54.9302 82.7804 54.8845 82.7875 54.8348C82.7946 54.785 82.7842 54.7344 82.758 54.6915C82.7318 54.6487 82.6915 54.6163 82.644 54.6C79.548 53.832 74.148 57.132 73.464 59.928C73.4449 59.9789 73.4468 60.0353 73.4693 60.0848C73.4918 60.1343 73.5331 60.1729 73.584 60.192C73.6349 60.2111 73.6913 60.2091 73.7408 60.1866C73.7904 60.1641 73.8289 60.1229 73.848 60.072ZM171.6 54.54C172.8 53.952 180.756 9.94797 179.664 7.85997C179.448 7.43997 178.776 7.28396 178.272 7.17596C174.996 6.43196 157.788 5.26797 156.144 6.85197C154.212 8.71196 158.796 54.096 159.3 53.928C160.068 55.68 170.52 55.068 171.6 54.54ZM164.736 60.18C163.88 60.3142 163.062 60.628 162.335 61.1009C161.609 61.5738 160.991 62.195 160.522 62.9238C160.052 63.6525 159.743 64.4723 159.613 65.3292C159.483 66.1862 159.536 67.0609 159.768 67.896C161.4 73.704 171.012 76.572 172.968 68.58C173.322 67.1733 173.263 65.6944 172.8 64.32C171.828 61.356 168 59.628 164.736 60.18ZM140.4 69.852C140.775 68.4525 140.746 66.9755 140.316 65.592C139.308 62.616 135.432 60.888 132.204 61.44C131.348 61.5775 130.531 61.8939 129.805 62.3685C129.08 62.8431 128.463 63.4653 127.994 64.1945C127.525 64.9236 127.216 65.7434 127.085 66.6004C126.954 67.4574 127.006 68.3322 127.236 69.168C128.904 75 138.528 77.796 140.4 69.852ZM142.644 2.73597C134.244 -2.84403 118.98 0.611966 113.784 8.55597C112.126 10.98 111.058 13.7579 110.664 16.668C110.392 19.5823 110.803 22.5199 111.864 25.248C112.308 26.664 120.612 25.944 122.664 25.38C123.134 25.3065 123.561 25.0632 123.864 24.696C124.548 23.292 121.128 19.092 125.064 14.484C128.4 10.512 135.528 11.436 138.492 16.236C142.26 22.236 137.664 29.604 132.108 34.02C129.936 35.748 125.292 38.016 124.68 39.588C123.348 43.02 124.956 53.772 125.64 55.068C125.717 55.196 125.82 55.3067 125.942 55.3934C126.063 55.4801 126.202 55.5409 126.348 55.572C128.352 56.208 136.212 55.572 137.952 54.708C138.154 54.6177 138.326 54.4736 138.451 54.2916C138.576 54.1095 138.648 53.8965 138.66 53.676C139.056 51.864 138.66 46.944 138.444 45.096C141.516 42.18 147.228 36.432 149.328 32.748C154.5 23.484 151.788 8.83196 142.644 2.73597Z" fill="#020617"/>
</g>
</svg>
