<svg width="220" height="229" viewBox="0 0 220 229" fill="none" xmlns="http://www.w3.org/2000/svg">
<g id="Group">
<path id="Vector" d="M176 5.93743C170.852 5.73343 166.4 10.7374 167.144 15.6214C167.496 17.3236 168.366 18.8748 169.637 20.0612C170.907 21.2476 172.514 22.0107 174.236 22.2454C179.036 22.8694 184.268 18.8614 184.088 13.8454C183.938 11.767 183.033 9.81527 181.543 8.35845C180.053 6.90164 178.081 6.04048 176 5.93743ZM179.216 18.6694L175.616 16.2694L170.924 19.1974L172.52 14.7694L169.904 13.0774L173.408 12.5014L175.616 8.96143L176.948 11.7574L181.028 11.5774L178.016 14.4934L179.216 18.6694ZM125.756 69.7774C126.56 69.5734 127.544 68.8534 127.436 67.9414C127.328 67.0294 126.344 66.5614 125.552 66.5254C124.28 66.5254 123.008 67.7254 123.224 68.6734C123.44 69.6214 124.712 70.0294 125.756 69.7774ZM90.38 201.333C91.5613 200.35 92.6137 199.221 93.512 197.973C95.06 195.801 97.328 192.645 96.476 189.213C95.936 187.005 93.944 184.125 91.088 184.029C88.232 183.933 85.928 186.957 85.244 189.165C84.296 192.177 85.712 194.913 86.66 196.725C87.579 198.495 88.844 200.062 90.38 201.333ZM88.4 190.293C88.4 189.819 88.5408 189.355 88.8045 188.96C89.0682 188.565 89.443 188.258 89.8816 188.076C90.3201 187.894 90.8027 187.847 91.2682 187.94C91.7338 188.032 92.1614 188.261 92.4971 188.596C92.8327 188.932 93.0613 189.36 93.1539 189.825C93.2465 190.291 93.199 190.773 93.0173 191.212C92.8357 191.65 92.528 192.025 92.1334 192.289C91.7387 192.553 91.2747 192.693 90.8 192.693C90.1635 192.693 89.553 192.441 89.1029 191.99C88.6529 191.54 88.4 190.93 88.4 190.293ZM172.928 200.997C173.072 196.425 170.528 193.341 168.704 193.341C166.88 193.341 164.336 196.425 164.468 200.997H172.928ZM174.032 198.789L176.948 198.849C177.2 197.795 177.054 196.684 176.54 195.729C175.532 193.965 173.912 193.161 172.82 194.853C173.608 196.015 174.03 197.386 174.032 198.789ZM160.4 198.849L163.316 198.789C163.32 197.388 163.737 196.019 164.516 194.853C163.412 193.161 161.792 193.977 160.796 195.729C160.284 196.685 160.143 197.796 160.4 198.849ZM168.704 192.405C169.267 192.456 169.832 192.333 170.323 192.054C170.814 191.775 171.208 191.352 171.452 190.842C171.696 190.333 171.779 189.761 171.689 189.203C171.599 188.645 171.341 188.128 170.949 187.721C170.557 187.315 170.05 187.037 169.496 186.926C168.942 186.816 168.367 186.877 167.849 187.102C167.33 187.327 166.893 187.705 166.596 188.185C166.298 188.665 166.154 189.225 166.184 189.789C166.203 190.461 166.472 191.101 166.938 191.585C167.404 192.068 168.034 192.361 168.704 192.405ZM162.44 193.173C162.934 193.128 163.393 192.898 163.725 192.528C164.056 192.159 164.236 191.678 164.228 191.181C164.193 190.832 164.057 190.5 163.837 190.226C163.617 189.952 163.322 189.748 162.988 189.639C162.654 189.53 162.296 189.52 161.956 189.611C161.617 189.702 161.311 189.89 161.076 190.151C160.842 190.413 160.688 190.737 160.634 191.084C160.581 191.431 160.629 191.786 160.773 192.107C160.918 192.427 161.152 192.698 161.448 192.888C161.744 193.077 162.089 193.176 162.44 193.173ZM174.968 193.173C175.462 193.128 175.921 192.898 176.253 192.528C176.584 192.159 176.764 191.678 176.756 191.181C176.721 190.832 176.585 190.5 176.365 190.226C176.145 189.952 175.85 189.748 175.516 189.639C175.182 189.53 174.824 189.52 174.484 189.611C174.145 189.702 173.839 189.89 173.604 190.151C173.37 190.413 173.216 190.737 173.162 191.084C173.109 191.431 173.157 191.786 173.301 192.107C173.446 192.427 173.68 192.698 173.976 192.888C174.272 193.077 174.617 193.176 174.968 193.173ZM96.092 73.2334C95.2482 73.2983 94.406 73.0878 93.692 72.6334C94.0105 71.5797 94.5369 70.6004 95.24 69.7534C95.2925 69.676 95.3158 69.5825 95.3059 69.4895C95.2961 69.3965 95.2536 69.3099 95.186 69.2453C95.1185 69.1806 95.0302 69.1419 94.9368 69.1361C94.8435 69.1302 94.7511 69.1576 94.676 69.2134C94.256 69.6454 92.432 72.2854 92.78 73.1374C93.128 73.9894 95.96 74.4574 96.596 73.8454C96.6772 73.7786 96.7284 73.6823 96.7386 73.5776C96.7487 73.473 96.7168 73.3686 96.65 73.2874C96.5832 73.2063 96.4868 73.155 96.3822 73.1449C96.2775 73.1347 96.1732 73.1666 96.092 73.2334ZM103.148 79.3054C105.779 79.2196 108.309 78.2708 110.348 76.6054C110.249 77.4285 109.978 78.2214 109.552 78.9327C109.126 79.6439 108.555 80.2575 107.876 80.7334C107.796 80.7812 107.739 80.8586 107.717 80.9486C107.694 81.0386 107.708 81.1339 107.756 81.2134C107.804 81.293 107.881 81.3503 107.971 81.3728C108.061 81.3953 108.156 81.3812 108.236 81.3334C109.293 80.7505 110.159 79.8733 110.727 78.8084C111.296 77.7434 111.544 76.5363 111.44 75.3334C111.434 75.229 111.398 75.1286 111.336 75.0444C111.274 74.9602 111.189 74.8957 111.091 74.8589C110.993 74.822 110.887 74.8143 110.785 74.8368C110.683 74.8593 110.589 74.9109 110.516 74.9854C108.59 77.0563 105.946 78.3139 103.124 78.5014C103.005 78.5076 102.893 78.5601 102.813 78.6475C102.732 78.7349 102.689 78.8505 102.692 78.9694C102.721 79.0676 102.781 79.1536 102.863 79.2142C102.946 79.2749 103.046 79.307 103.148 79.3054ZM103.712 52.7134C103.578 52.7134 103.45 52.7665 103.356 52.861C103.261 52.9556 103.208 53.0838 103.208 53.2174C103.208 53.3511 103.261 53.4793 103.356 53.5738C103.45 53.6683 103.578 53.7214 103.712 53.7214C104.681 53.7688 105.627 54.0327 106.48 54.4937C107.334 54.9547 108.073 55.6011 108.644 56.3854C108.703 56.4558 108.785 56.5027 108.876 56.5176C108.967 56.5324 109.06 56.5142 109.138 56.4663C109.217 56.4183 109.275 56.3438 109.304 56.2563C109.332 56.1688 109.328 56.0741 109.292 55.9894C108.731 55.0023 107.919 54.1801 106.94 53.6051C105.961 53.0301 104.848 52.7226 103.712 52.7134ZM89.372 53.5294C88.5737 54.2039 87.5475 54.5474 86.504 54.4894C86.3964 54.4842 86.2906 54.5193 86.2076 54.588C86.1246 54.6567 86.0702 54.754 86.0552 54.8607C86.0401 54.9674 86.0655 55.0758 86.1264 55.1648C86.1872 55.2537 86.2791 55.3167 86.384 55.3414C87.0296 55.4769 87.6978 55.4618 88.3366 55.2974C88.9755 55.133 89.5679 54.8237 90.068 54.3934C90.548 53.9374 89.912 53.1334 89.372 53.5294ZM88.268 65.8054C88.268 65.2654 87.98 63.0574 87.992 62.5414C87.992 62.43 87.9477 62.3232 87.869 62.2444C87.7902 62.1657 87.6834 62.1214 87.572 62.1214C87.4626 62.1181 87.3562 62.1577 87.2755 62.2316C87.1948 62.3056 87.1462 62.4081 87.14 62.5174C87.0748 63.6565 87.0748 64.7984 87.14 65.9374C87.1575 66.087 87.2337 66.2235 87.3519 66.3169C87.4104 66.3632 87.4774 66.3974 87.5491 66.4178C87.6209 66.4381 87.6959 66.4441 87.77 66.4354C87.8441 66.4268 87.9157 66.4036 87.9808 66.3672C88.0459 66.3309 88.1032 66.2821 88.1495 66.2236C88.1957 66.1651 88.23 66.098 88.2503 66.0263C88.2707 65.9545 88.2767 65.8795 88.268 65.8054ZM105.2 65.5174C105.2 65.1214 104.96 63.5374 104.972 63.1174C104.972 63.006 104.928 62.8992 104.849 62.8204C104.77 62.7417 104.663 62.6974 104.552 62.6974C104.441 62.6974 104.334 62.7417 104.255 62.8204C104.176 62.8992 104.132 63.006 104.132 63.1174C104.132 63.5494 104.012 65.2174 104.06 65.6494C104.062 65.7293 104.081 65.8078 104.115 65.88C104.149 65.9521 104.198 66.0164 104.259 66.0687C104.319 66.121 104.39 66.1602 104.466 66.1837C104.542 66.2072 104.623 66.2147 104.702 66.2055C104.781 66.1963 104.858 66.1707 104.927 66.1303C104.996 66.09 105.056 66.0357 105.102 65.971C105.149 65.9063 105.182 65.8326 105.199 65.7545C105.216 65.6764 105.216 65.5957 105.2 65.5174Z" fill="#020617"/>
<path id="Vector_2" d="M49.16 117.933C49.1472 117.972 49.1472 118.014 49.16 118.053C54.4048 129.869 62.952 139.917 73.7733 146.99C84.5945 154.062 97.2288 157.857 110.156 157.917C147.644 157.917 178.364 126.369 176.792 87.7535C176.226 73.8988 171.215 60.5944 162.5 49.8095C155.712 41.4666 147.015 34.881 137.144 30.6095C137.271 30.1768 137.367 29.7357 137.432 29.2895C138.104 24.9095 136.232 21.9815 132.908 19.0175C131.237 17.5779 129.482 16.2395 127.652 15.0095C125.835 13.6481 123.735 12.713 121.508 12.2735C120.322 12.0343 119.097 12.078 117.932 12.4012C116.766 12.7244 115.693 13.3179 114.8 14.1335C114.464 14.4815 114.176 15.0335 113.816 15.2495C113.291 15.4083 112.737 15.4453 112.196 15.3575C108.525 15.3569 104.894 16.1071 101.524 17.562C98.1536 19.0169 95.1169 21.1457 92.6 23.8175C91.0922 24.0711 89.6686 24.6875 88.452 25.6136C87.2353 26.5397 86.2621 27.7476 85.616 29.1335C49.736 44.0255 34.472 83.1335 49.16 117.933ZM89.684 127.989C88.285 123.377 87.6764 118.561 87.884 113.745C88.064 109.737 88.352 103.041 92.684 100.233C94.035 99.2957 95.5089 98.5486 97.064 98.0135C95.684 105.657 98.36 113.349 101.6 120.333C99.548 121.065 91.568 126.801 89.684 128.013V127.989ZM99.284 97.9895C99.176 96.7895 98.624 93.1895 98.54 92.6255C98.5236 92.3754 98.4432 92.1338 98.3067 91.9236C98.1701 91.7135 97.9819 91.542 97.76 91.4255C97.364 91.2215 95.6 90.6215 95.132 90.3815C89.6 87.6695 85.472 81.2135 86 71.7935C87.4596 72.0059 88.9465 71.9366 90.38 71.5894C92.264 71.0254 93.44 69.2495 93.86 66.3215C94.1315 66.0732 94.4529 65.8859 94.8026 65.7721C95.1524 65.6583 95.5225 65.6205 95.888 65.6614C96.6333 65.7252 97.3549 65.9548 98 66.3335C98.1366 67.2861 98.4943 68.1936 99.0444 68.9833C99.5945 69.7731 100.322 70.4231 101.168 70.8815C103.068 71.7994 105.248 71.9527 107.258 71.3095C109.268 70.6664 110.954 69.276 111.968 67.4255C112.481 66.4004 112.802 65.2901 112.916 64.1495C114.958 64.2727 117.008 64.0989 119 63.6335C119 64.2455 119 65.3495 119.396 65.5655C120.716 66.2255 122.996 60.9215 126.2 60.9215C127.204 60.9855 128.151 61.4119 128.864 62.1215C129.417 62.5301 129.867 63.0614 130.179 63.6736C130.492 64.2858 130.658 64.9622 130.664 65.6495C130.589 66.2547 130.394 66.8389 130.091 67.3683C129.788 67.8977 129.384 68.3617 128.9 68.7335C127.467 70.0819 125.587 70.8551 123.62 70.9055C123.579 70.9102 123.54 70.9249 123.506 70.9484C123.471 70.9719 123.444 71.0035 123.425 71.0402C123.406 71.077 123.396 71.1179 123.397 71.1593C123.397 71.2006 123.408 71.2412 123.428 71.2775C125.392 74.5335 126.772 78.107 127.508 81.8374C126.86 88.9054 126.584 91.9175 126.452 93.3815C125.348 106.581 120.8 117.549 113.48 128.601C111.84 130.921 110.463 133.417 109.376 136.041C105.332 123.333 95.324 111.429 97.856 97.9295C98.0661 97.844 98.2828 97.7757 98.504 97.7255C98.504 97.9095 98.54 98.0655 98.612 98.1935C98.6207 98.2376 98.638 98.2796 98.6628 98.317C98.6877 98.3545 98.7198 98.3866 98.7571 98.4117C98.7944 98.4368 98.8363 98.4543 98.8804 98.4631C98.9245 98.472 98.9699 98.4721 99.014 98.4635C99.0581 98.4548 99.1001 98.4375 99.1376 98.4126C99.175 98.3877 99.2072 98.3557 99.2323 98.3184C99.2573 98.281 99.2748 98.2391 99.2837 98.1951C99.2926 98.151 99.2927 98.1056 99.284 98.0615V97.9895ZM107.3 47.8055C106.673 47.2965 105.968 46.8913 105.212 46.6055C110.012 46.1615 113.72 44.7935 116.996 40.9415C117.356 41.1335 119.396 42.1415 119.708 42.3455C123.188 47.7575 121.28 49.9655 120.008 56.6255C119.624 58.6295 119.24 60.7175 119.024 62.5534C117.036 63.0581 114.991 63.3081 112.94 63.2975C113.036 62.3495 113.084 61.3294 113.216 60.3454C113.463 60.2461 113.669 60.0677 113.804 59.8382C113.938 59.6087 113.992 59.341 113.958 59.0773C113.923 58.8136 113.803 58.5688 113.614 58.3813C113.425 58.1938 113.18 58.0743 112.916 58.0415L98.516 57.6935C98.2983 57.7068 98.0883 57.7792 97.9086 57.9029C97.7289 58.0266 97.5864 58.197 97.4963 58.3957C97.4062 58.5944 97.372 58.8139 97.3973 59.0305C97.4226 59.2472 97.5065 59.4529 97.64 59.6255C97.5564 61.4953 97.6166 63.3688 97.82 65.2295C97.217 64.9276 96.5549 64.7625 95.8807 64.7459C95.2066 64.7293 94.5371 64.8616 93.92 65.1335C94.0212 63.4712 93.9569 61.803 93.728 60.1535C93.8916 60.0021 94.0135 59.8112 94.0818 59.599C94.1501 59.3869 94.1625 59.1607 94.1178 58.9424C94.0732 58.724 93.973 58.5209 93.827 58.3526C93.6809 58.1842 93.4939 58.0564 93.284 57.9815C93.164 57.9815 93.356 57.9815 85.664 57.7895C85.76 55.3895 85.796 48.7295 86.864 45.4775C92.984 50.0495 100.436 51.4775 107.264 48.1895C107.309 48.152 107.338 48.0987 107.344 48.0406C107.351 47.9826 107.335 47.9242 107.3 47.8775V47.8055ZM112.46 60.4415C112.148 62.3015 112.28 64.2575 111.596 65.9975C110.884 67.776 109.514 69.2114 107.771 70.0049C106.027 70.7985 104.045 70.8889 102.236 70.2575C101.351 69.9595 100.569 69.4151 99.982 68.6881C99.3953 67.9611 99.0283 67.0818 98.924 66.1534C98.6279 64.1678 98.5034 62.1604 98.552 60.1535C100.496 60.3335 110.636 60.4775 112.46 60.5135V60.4415ZM92.912 60.4415C93.236 63.4655 93.404 68.8415 90.716 70.3295C89.9173 70.6762 89.0548 70.852 88.184 70.8454C87.4226 70.9116 86.6558 70.8753 85.904 70.7374C85.128 70.609 84.4025 70.2687 83.8075 69.7542C83.2125 69.2396 82.7711 68.5708 82.532 67.8215C81.9641 65.3071 81.73 62.7289 81.836 60.1535L92.912 60.4415ZM109.568 150.069C106.724 145.533 96.8 130.173 94.184 126.333C96.5099 124.278 99.0912 122.532 101.864 121.137C102.668 122.673 107.864 133.341 108.932 137.613C108.96 137.708 109.017 137.792 109.096 137.851C109.175 137.911 109.271 137.943 109.37 137.943C109.469 137.943 109.565 137.911 109.644 137.851C109.723 137.792 109.781 137.708 109.808 137.613C111.488 131.109 115.628 128.169 120.476 118.065C123.206 119.592 125.69 121.522 127.844 123.789C125.6 127.737 113.6 145.377 109.568 150.129V150.069ZM131.6 125.565C124.64 119.073 121.796 117.585 120.92 117.249C124.294 110.191 126.449 102.612 127.292 94.8335C130.772 97.5335 134.372 100.185 137.588 103.125C136.892 106.401 133.076 121.029 131.6 125.565ZM136.94 31.3535C167.384 45.1535 183.74 77.9735 172.184 112.833C166.268 110.277 143.504 103.329 138.296 102.525C136.832 101.133 129.896 95.7455 127.412 93.8615C127.412 93.2855 127.316 94.9655 128.276 83.3135C128.276 83.1815 130.952 69.8734 132.08 66.9695C132.685 65.4337 133.419 63.9523 134.276 62.5415C135.679 60.0048 136.105 57.0429 135.476 54.2135C135.242 53.3152 134.834 52.4714 134.276 51.7295C135.494 50.5361 136.33 49.0072 136.676 47.3375C137 44.8055 135.74 42.3455 134.516 40.2215C135.417 38.8029 135.93 37.1725 136.004 35.4935C135.971 34.8566 135.79 34.2362 135.476 33.6815C136.104 33.012 136.586 32.2192 136.892 31.3535H136.94ZM87.404 28.2455C91.004 23.1455 98.204 24.4295 104.288 25.6535C111.639 27.1524 118.791 29.5001 125.6 32.6495C125.676 32.6892 125.765 32.697 125.848 32.6712C125.93 32.6453 125.998 32.5878 126.038 32.5115C126.078 32.4351 126.086 32.346 126.06 32.2639C126.034 32.1817 125.976 32.1132 125.9 32.0735C119.316 28.836 112.36 26.418 105.188 24.8735C101.768 24.1415 97.676 23.2895 94.124 23.6735C98.2151 19.8253 103.42 17.3719 108.992 16.6655C112.796 16.1855 113.888 16.9655 114.92 15.6815C115.432 14.9719 116.096 14.3857 116.864 13.9655C118.844 12.9335 121.736 12.7655 125.192 14.7335C127.057 15.8017 128.842 17.0049 130.532 18.3335C132.226 19.559 133.726 21.0314 134.984 22.7015C136.165 24.2609 136.733 26.1993 136.58 28.1495C136.523 29.8622 135.917 31.5113 134.852 32.8535C134.383 32.3115 133.869 31.8098 133.316 31.3535C130.46 28.9535 120.86 22.1855 118.916 20.9975C118.835 20.9465 118.737 20.9299 118.643 20.9513C118.55 20.9727 118.469 21.0303 118.418 21.1115C118.367 21.1926 118.35 21.2907 118.372 21.3841C118.393 21.4775 118.451 21.5585 118.532 21.6095C121.256 23.3135 129.656 29.6015 131.732 31.3655C133.076 32.4815 134.372 33.4895 134.756 34.6775C135.332 36.5135 134.276 38.2775 133.556 39.9815C133.52 40.0615 133.51 40.1508 133.527 40.2369C133.544 40.323 133.588 40.4015 133.652 40.4615C134.732 42.4055 135.98 45.1295 135.632 47.3375C135.297 48.7051 134.586 49.952 133.58 50.9375C128.66 45.0815 116.936 38.5175 109.136 35.5775C99.992 32.0855 88.448 32.0735 85.304 33.3815C85.6232 31.5374 86.3397 29.7849 87.404 28.2455ZM85.004 30.5375C84.6245 31.6599 84.3591 32.8178 84.212 33.9935C83.288 34.3775 82.46 35.9375 81.812 38.4455C81.032 41.7815 80.348 44.6615 82.016 47.4815C82.7694 48.712 83.8221 49.7317 85.076 50.4455C84.932 51.6455 84.56 56.0255 84.596 57.8495L81.44 57.7775H81.356C81.1217 57.8238 80.9066 57.939 80.7381 58.1084C80.5697 58.2777 80.4556 58.4935 80.4105 58.728C80.3654 58.9626 80.3913 59.2052 80.485 59.425C80.5786 59.6447 80.7356 59.8315 80.936 59.9615C80.8831 62.5415 81.0356 65.1216 81.392 67.6775C81.5743 68.5975 82.0068 69.4495 82.642 70.1396C83.2771 70.8298 84.0903 71.3315 84.992 71.5894C84.6581 75.9156 85.5348 80.2493 87.524 84.1054C89.3859 87.7083 92.5146 90.4951 96.308 91.9295C97.508 92.3255 97.508 92.2775 97.628 92.9255C97.628 92.9255 98.132 95.9495 98.3 96.8615C94.7573 97.4475 91.5356 99.2666 89.204 101.997C75.2557 104.65 61.9215 109.87 49.88 117.393C46.4508 109.386 44.6409 100.778 44.5545 92.0672C44.4681 83.3563 46.107 74.7146 49.3767 66.6402C52.6464 58.5659 57.4821 51.2187 63.6051 45.0223C69.7281 38.826 77.0172 33.9031 85.052 30.5375H85.004ZM47.6 10.8575C48.308 10.7855 48.224 9.71746 47.6 9.80146C44.792 9.88546 34.028 10.2455 31.124 10.2215C31.0443 10.2365 30.9723 10.2788 30.9205 10.3413C30.8687 10.4037 30.8404 10.4823 30.8404 10.5635C30.8404 10.6446 30.8687 10.7232 30.9205 10.7856C30.9723 10.8481 31.0443 10.8905 31.124 10.9055C33.812 11.0375 44.864 11.1335 47.6 10.8575ZM46.4 13.6895C45.308 13.6895 33.8 14.5895 31.496 14.6255C31.4037 14.6255 31.3152 14.6621 31.2499 14.7274C31.1847 14.7926 31.148 14.8812 31.148 14.9735C31.148 15.0658 31.1847 15.1543 31.2499 15.2195C31.3152 15.2848 31.4037 15.3215 31.496 15.3215C33.368 15.3215 45.092 15.0095 46.52 14.7335C46.6481 14.7058 46.7613 14.6314 46.8376 14.5249C46.9139 14.4184 46.9479 14.2873 46.9329 14.1571C46.918 14.0269 46.8551 13.907 46.7566 13.8205C46.6582 13.7341 46.531 13.6874 46.4 13.6895ZM48.308 18.4295C48.308 18.4295 33.584 18.9815 32.18 18.9935C32.0883 19.0096 32.0052 19.0576 31.9454 19.1289C31.8855 19.2002 31.8527 19.2903 31.8527 19.3835C31.8527 19.4766 31.8855 19.5667 31.9454 19.638C32.0052 19.7094 32.0883 19.7573 32.18 19.7735C37.58 19.7735 42.98 19.9775 48.344 19.5455C48.4777 19.5219 48.5983 19.4509 48.6839 19.3455C48.7694 19.2402 48.8141 19.1075 48.8097 18.9719C48.8053 18.8362 48.7522 18.7067 48.66 18.6071C48.5679 18.5074 48.4429 18.4444 48.308 18.4295ZM129.2 197.397L128.312 196.941C128.281 196.924 128.246 196.914 128.21 196.914C128.174 196.914 128.139 196.924 128.108 196.941C126.945 197.929 126.012 199.157 125.372 200.541C125.354 200.585 125.353 200.633 125.369 200.677C125.384 200.722 125.415 200.759 125.456 200.781C126.313 201.226 127.262 201.465 128.228 201.477C131.42 201.477 133.436 198.741 135.236 196.197C136.796 193.965 138.752 191.193 137.78 188.505C137.447 187.608 136.869 186.822 136.112 186.237C136.081 186.209 136.04 186.193 135.998 186.193C135.956 186.193 135.915 186.209 135.884 186.237C134.645 187.179 133.663 188.417 133.028 189.837C133.008 189.866 132.998 189.899 132.998 189.933C132.998 189.968 133.008 190.001 133.028 190.029L134 190.953C132.878 193.419 131.241 195.616 129.2 197.397ZM126.212 195.813C125.394 196.739 124.659 197.735 124.016 198.789C123.704 199.473 124.616 199.809 124.856 199.389C125.527 198.355 126.264 197.364 127.064 196.425C127.316 196.161 126.8 195.417 126.212 195.813ZM132.26 188.961C132.335 188.964 132.41 188.949 132.479 188.918C132.548 188.886 132.608 188.84 132.656 188.781C133.331 187.749 134.068 186.759 134.864 185.817C135.128 185.541 134.612 184.809 134 185.217C133.19 186.14 132.463 187.131 131.828 188.181C131.782 188.259 131.757 188.347 131.755 188.437C131.754 188.528 131.776 188.617 131.82 188.696C131.864 188.775 131.927 188.841 132.004 188.887C132.082 188.934 132.17 188.959 132.26 188.961ZM168.056 173.601C168.132 173.602 168.208 173.586 168.277 173.552C168.345 173.519 168.405 173.47 168.452 173.409C168.499 173.349 168.53 173.278 168.545 173.203C168.56 173.128 168.557 173.051 168.536 172.977L168.812 164.577C168.812 163.929 168.872 163.125 168.128 162.705C167.384 162.285 49.952 162.009 50.084 162.009C50.0428 162.011 50.0026 162.023 49.9671 162.044C49.9315 162.065 49.9016 162.094 49.88 162.129C49.511 165.315 49.3627 168.523 49.436 171.729C49.5764 172.02 49.8022 172.261 50.0831 172.419C50.364 172.578 50.6867 172.647 51.008 172.617C52.652 172.617 168.056 173.601 168.056 173.601ZM167.816 164.601C167.816 164.877 167.816 164.709 167.6 172.581C161.984 172.413 51.488 171.549 50.66 171.501C50.288 171.369 50.288 171.009 50.312 170.445L50.54 163.017C56.432 163.185 167.06 163.473 167.516 163.509C167.972 163.545 167.852 164.037 167.816 164.601ZM60.488 208.605C60.6281 208.605 60.7624 208.55 60.8614 208.451C60.9604 208.352 61.016 208.217 61.016 208.077C61.016 207.937 60.9604 207.803 60.8614 207.704C60.7624 207.605 60.6281 207.549 60.488 207.549C57.8 207.705 46.916 208.005 44.012 207.969C43.9323 207.984 43.8603 208.027 43.8085 208.089C43.7567 208.152 43.7284 208.23 43.7284 208.311C43.7284 208.393 43.7567 208.471 43.8085 208.534C43.8603 208.596 43.9323 208.638 44.012 208.653C46.688 208.785 57.716 208.869 60.488 208.605ZM59.228 211.437C58.148 211.437 46.64 212.337 44.324 212.373C44.2317 212.373 44.1432 212.41 44.0779 212.475C44.0127 212.541 43.976 212.629 43.976 212.721C43.976 212.814 44.0127 212.902 44.0779 212.968C44.1432 213.033 44.2317 213.069 44.324 213.069C46.496 213.069 57.968 212.745 59.348 212.481C59.4761 212.454 59.5893 212.379 59.6656 212.273C59.7419 212.166 59.7759 212.035 59.7609 211.905C59.746 211.775 59.6831 211.655 59.5846 211.569C59.4862 211.482 59.359 211.435 59.228 211.437ZM61.172 216.189C61.172 216.189 46.472 216.729 45.032 216.741C44.9403 216.758 44.8572 216.806 44.7974 216.877C44.7375 216.948 44.7047 217.038 44.7047 217.131C44.7047 217.225 44.7375 217.315 44.7974 217.386C44.8572 217.457 44.9403 217.505 45.032 217.521C50.408 217.521 55.832 217.725 61.184 217.293C61.2565 217.293 61.3281 217.278 61.3948 217.249C61.4615 217.221 61.5219 217.179 61.5726 217.128C61.6233 217.076 61.6633 217.014 61.6903 216.947C61.7173 216.88 61.7308 216.808 61.73 216.735C61.7292 216.663 61.7142 216.591 61.6857 216.525C61.6572 216.458 61.6159 216.398 61.5641 216.347C61.5123 216.296 61.451 216.256 61.3837 216.229C61.3164 216.202 61.2445 216.189 61.172 216.189ZM98.708 208.605C98.848 208.605 98.9824 208.55 99.0814 208.451C99.1804 208.352 99.236 208.217 99.236 208.077C99.236 207.937 99.1804 207.803 99.0814 207.704C98.9824 207.605 98.848 207.549 98.708 207.549C95.996 207.693 85.124 208.005 82.232 207.969C82.1523 207.984 82.0803 208.027 82.0285 208.089C81.9767 208.152 81.9484 208.23 81.9484 208.311C81.9484 208.393 81.9767 208.471 82.0285 208.534C82.0803 208.596 82.1523 208.638 82.232 208.653C84.92 208.785 95.924 208.869 98.708 208.605ZM97.448 211.437C96.368 211.437 84.86 212.337 82.544 212.373C82.4517 212.373 82.3632 212.41 82.2979 212.475C82.2327 212.541 82.196 212.629 82.196 212.721C82.196 212.814 82.2327 212.902 82.2979 212.968C82.3632 213.033 82.4517 213.069 82.544 213.069C84.704 213.069 96.176 212.745 97.556 212.481C97.683 212.454 97.7954 212.38 97.8717 212.275C97.9479 212.17 97.9827 212.04 97.9693 211.911C97.956 211.782 97.8954 211.662 97.7992 211.575C97.703 211.487 97.578 211.438 97.448 211.437ZM99.404 216.189C99.404 216.189 84.692 216.729 83.264 216.741C83.1723 216.758 83.0892 216.806 83.0294 216.877C82.9695 216.948 82.9367 217.038 82.9367 217.131C82.9367 217.225 82.9695 217.315 83.0294 217.386C83.0892 217.457 83.1723 217.505 83.264 217.521C88.64 217.521 94.064 217.725 99.416 217.293C99.5624 217.292 99.7022 217.232 99.8046 217.128C99.907 217.023 99.9636 216.882 99.962 216.735C99.9604 216.589 99.9007 216.449 99.7961 216.347C99.6915 216.244 99.5504 216.188 99.404 216.189ZM138.104 208.605C138.244 208.605 138.378 208.55 138.477 208.451C138.576 208.352 138.632 208.217 138.632 208.077C138.632 207.937 138.576 207.803 138.477 207.704C138.378 207.605 138.244 207.549 138.104 207.549C135.392 207.705 124.532 208.005 121.616 207.969C121.536 207.984 121.464 208.027 121.413 208.089C121.361 208.152 121.332 208.23 121.332 208.311C121.332 208.393 121.361 208.471 121.413 208.534C121.464 208.596 121.536 208.638 121.616 208.653C124.316 208.785 135.32 208.869 138.104 208.605ZM136.844 211.437C135.776 211.437 124.256 212.337 121.952 212.373C121.86 212.373 121.771 212.41 121.706 212.475C121.641 212.541 121.604 212.629 121.604 212.721C121.604 212.814 121.641 212.902 121.706 212.968C121.771 213.033 121.86 213.069 121.952 213.069C124.112 213.069 135.584 212.745 136.976 212.481C137.106 212.454 137.22 212.379 137.297 212.271C137.373 212.163 137.407 212.03 137.39 211.899C137.373 211.767 137.308 211.647 137.207 211.562C137.106 211.476 136.976 211.432 136.844 211.437ZM138.8 216.189C138.8 216.189 124.088 216.729 122.66 216.741C122.568 216.758 122.485 216.806 122.425 216.877C122.365 216.948 122.333 217.038 122.333 217.131C122.333 217.225 122.365 217.315 122.425 217.386C122.485 217.457 122.568 217.505 122.66 217.521C128.036 217.521 133.46 217.725 138.812 217.293C138.958 217.292 139.098 217.232 139.201 217.128C139.303 217.023 139.36 216.882 139.358 216.735C139.356 216.589 139.297 216.449 139.192 216.347C139.087 216.244 138.946 216.188 138.8 216.189ZM176.42 208.605C176.56 208.605 176.694 208.55 176.793 208.451C176.892 208.352 176.948 208.217 176.948 208.077C176.948 207.937 176.892 207.803 176.793 207.704C176.694 207.605 176.56 207.549 176.42 207.549C173.732 207.693 162.848 208.005 159.932 207.969C159.852 207.984 159.78 208.027 159.728 208.089C159.677 208.152 159.648 208.23 159.648 208.311C159.648 208.393 159.677 208.471 159.728 208.534C159.78 208.596 159.852 208.638 159.932 208.653C162.632 208.785 173.6 208.869 176.42 208.605ZM175.16 211.437C174.092 211.437 162.572 212.337 160.268 212.373C160.176 212.373 160.087 212.41 160.022 212.475C159.957 212.541 159.92 212.629 159.92 212.721C159.92 212.814 159.957 212.902 160.022 212.968C160.087 213.033 160.176 213.069 160.268 213.069C162.428 213.069 173.9 212.745 175.292 212.481C175.422 212.454 175.536 212.379 175.613 212.271C175.689 212.163 175.723 212.03 175.706 211.899C175.689 211.767 175.624 211.647 175.523 211.562C175.422 211.476 175.292 211.432 175.16 211.437ZM177.116 216.189C177.116 216.189 162.404 216.729 160.976 216.741C160.884 216.758 160.801 216.806 160.741 216.877C160.681 216.948 160.649 217.038 160.649 217.131C160.649 217.225 160.681 217.315 160.741 217.386C160.801 217.457 160.884 217.505 160.976 217.521C166.34 217.521 171.776 217.725 177.128 217.293C177.274 217.292 177.414 217.232 177.517 217.128C177.619 217.023 177.676 216.882 177.674 216.735C177.672 216.589 177.613 216.449 177.508 216.347C177.403 216.244 177.262 216.188 177.116 216.189ZM62.972 201.993L60.188 201.933C60.188 200.517 60.092 196.869 60.044 195.741C60.4057 195.439 60.639 195.011 60.6969 194.543C60.7549 194.075 60.633 193.603 60.356 193.221C60.248 193.065 60.356 193.101 56.96 193.221V190.821C57.171 190.522 57.3128 190.179 57.3751 189.818C57.4373 189.457 57.4185 189.086 57.32 188.733C57.3064 188.681 57.2752 188.634 57.2316 188.601C57.188 188.569 57.1345 188.552 57.08 188.553L52.808 188.685C52.736 187.773 52.424 184.497 52.304 184.281C52.2222 184.126 52.0853 184.006 51.92 183.945C53.408 181.797 51.068 181.041 51.524 179.937C51.716 179.469 51.02 179.145 50.744 179.577C50.0692 180.481 49.5501 181.491 49.208 182.565C49.2185 182.884 49.3072 183.195 49.4662 183.471C49.6253 183.748 49.8498 183.98 50.12 184.149C49.9459 184.219 49.799 184.343 49.7016 184.503C49.6042 184.663 49.5615 184.851 49.58 185.037V188.769L46.16 188.877C46.1107 188.878 46.063 188.895 46.024 188.925C45.9851 188.956 45.957 188.998 45.944 189.045C45.812 189.431 45.7801 189.843 45.8515 190.244C45.9229 190.645 46.0951 191.021 46.352 191.337C46.352 192.021 46.436 192.957 46.508 193.629C43.052 193.773 43.184 193.725 43.076 193.845C42.212 194.877 41.66 196.665 42.68 197.445V201.801H40.664C40.5654 201.801 40.4707 201.841 40.401 201.91C40.3312 201.98 40.292 202.075 40.292 202.173C40.292 202.272 40.3312 202.367 40.401 202.436C40.4707 202.506 40.5654 202.545 40.664 202.545C40.796 202.545 62.816 202.809 63.02 202.785C63.125 202.779 63.2232 202.731 63.293 202.652C63.3628 202.574 63.3984 202.47 63.392 202.365C63.3857 202.26 63.3378 202.162 63.2591 202.092C63.1803 202.023 63.077 201.987 62.972 201.993ZM51.944 188.733H50.444V184.941C50.833 184.824 51.2378 184.768 51.644 184.773C51.668 185.277 51.884 187.953 51.944 188.733ZM50.096 182.493C50.3108 182.014 50.5636 181.553 50.852 181.113C51.248 181.881 51.824 182.313 51.488 183.069C51.3434 183.332 51.1704 183.577 50.972 183.801C50.444 183.429 50 182.997 50.096 182.469V182.493ZM49.832 190.953C49.9935 191.294 50.2484 191.582 50.567 191.784C50.8857 191.985 51.255 192.092 51.632 192.092C52.0091 192.092 52.3784 191.985 52.697 191.784C53.0156 191.582 53.2705 191.294 53.432 190.953C53.7563 191.264 54.157 191.483 54.5932 191.588C55.0295 191.693 55.4858 191.681 55.916 191.553V193.317L47.348 193.653C47.348 193.065 47.288 192.453 47.24 191.901C47.7196 191.991 48.2146 191.948 48.6715 191.777C49.1283 191.605 49.5296 191.312 49.832 190.929V190.953ZM43.58 201.753V197.709C44.118 197.75 44.6583 197.673 45.1638 197.485C45.6693 197.296 46.1279 197 46.508 196.617C46.9483 197.012 47.5187 197.23 48.11 197.23C48.7013 197.23 49.2718 197.012 49.712 196.617C51.104 198.141 53.192 197.433 54.344 195.741C54.5717 196.064 54.8692 196.332 55.2145 196.524C55.5597 196.716 55.9438 196.827 56.3382 196.85C56.7326 196.873 57.127 196.807 57.4923 196.657C57.8576 196.506 58.1843 196.276 58.448 195.981C58.7022 196.049 58.9665 196.069 59.228 196.041C59.228 197.313 59.228 200.529 59.312 201.873C55.628 201.849 45.992 201.777 43.58 201.777V201.753Z" fill="#020617"/>
<path id="Vector_3" d="M205.928 66.6214C204.032 65.2774 205.376 65.4214 202.616 56.3374C201.68 53.2534 200.636 49.5454 197.816 48.3574C197.816 39.4054 197.816 2.10936 197.876 0.837358C197.925 0.75691 197.952 0.66471 197.954 0.570352C197.955 0.475995 197.932 0.382929 197.885 0.300841C197.839 0.218754 197.771 0.150644 197.689 0.103602C197.607 0.0565595 197.514 0.0323036 197.42 0.0333582C174.74 0.0333582 33.752 0.669358 21.248 0.813358C21.1724 0.814919 21.0983 0.834313 21.0316 0.86996C20.9649 0.905608 20.9076 0.9565 20.8643 1.01849C20.8211 1.08048 20.793 1.15182 20.7825 1.2267C20.7721 1.30157 20.7794 1.37786 20.804 1.44936C20.504 17.2294 20.072 103.389 19.964 136.245C13.5964 141.839 8.5963 148.817 5.348 156.645C-0.507995 170.961 -0.855995 181.845 4.328 188.841C7.76 193.521 14.612 198.777 20.048 196.365C19.88 219.237 19.832 225.921 19.964 227.853C20.024 228.753 20.132 228.621 20.264 228.621C20.396 228.621 189.548 228.309 197.048 228.225C197.142 228.225 197.234 228.199 197.314 228.151C197.395 228.102 197.46 228.032 197.504 227.949C197.564 227.829 197.828 174.321 198.032 160.125C199.496 160.085 200.931 159.708 202.225 159.023C203.52 158.339 204.639 157.365 205.496 156.177C208.434 152.5 210.857 148.438 212.696 144.105C215.408 136.965 217.364 131.817 218.504 123.837C221.024 106.257 217.244 87.0574 209.648 71.1334C208.292 68.2654 208.484 68.4334 205.928 66.6214ZM16.4 188.325C14.144 187.281 12.092 182.577 12.92 178.521C13.5728 175.857 15.0512 173.467 17.144 171.693C18.0999 170.746 19.1492 169.898 20.276 169.161V173.301C19.3776 173.918 18.5698 174.657 17.876 175.497C17.822 175.582 17.8015 175.685 17.8184 175.784C17.8352 175.883 17.8882 175.973 17.9672 176.036C18.0462 176.098 18.1456 176.129 18.2462 176.123C18.3468 176.117 18.4415 176.073 18.512 176.001C19.6912 174.838 21.0482 173.87 22.532 173.133C23.576 172.665 23.792 172.881 23.54 173.853C23.323 175.023 22.7486 176.096 21.896 176.925C21.0448 177.61 20.1041 178.175 19.1 178.605C18.5566 178.839 18.0414 179.132 17.564 179.481C17.5006 179.545 17.4623 179.629 17.4561 179.719C17.4499 179.808 17.4763 179.897 17.5303 179.968C17.5844 180.04 17.6625 180.09 17.7503 180.108C17.8381 180.127 17.9296 180.113 18.008 180.069C18.968 179.433 21.98 178.497 23.636 177.333C24.836 176.505 24.944 177.129 24.536 178.365C23.696 180.849 20.78 182.133 18.848 183.693C18.7809 183.761 18.7395 183.85 18.7311 183.945C18.7226 184.04 18.7476 184.134 18.8018 184.213C18.8559 184.291 18.9358 184.348 19.0275 184.374C19.1192 184.399 19.2171 184.392 19.304 184.353C19.844 184.053 20.384 183.681 21.152 183.153C21.92 182.625 24.092 181.533 24.884 181.953C24.9735 181.995 25.0493 182.061 25.1024 182.143C25.1556 182.226 25.1839 182.323 25.184 182.421C25.304 183.285 24.584 184.125 23.852 185.061C20.492 189.357 17.72 188.961 16.4 188.325ZM196.58 227.133C186.14 227.193 29.024 227.589 20.852 227.685C20.948 224.265 20.852 202.641 20.912 188.985C22.5429 187.746 24.0464 186.347 25.4 184.809C25.736 184.341 26.78 182.721 25.964 181.449C25.7818 181.177 25.5222 180.965 25.2185 180.841C24.9149 180.716 24.5811 180.686 24.26 180.753C25.0878 179.892 25.6105 178.784 25.748 177.597C25.748 177.225 25.856 176.397 25.148 176.049C24.9001 175.968 24.6368 175.946 24.3787 175.983C24.1206 176.02 23.8746 176.117 23.66 176.265C23.768 176.097 23.852 175.929 23.948 175.749C24.38 174.897 24.98 172.941 24.5 172.221C23.84 171.249 22.16 172.053 21.152 172.653C21.224 60.5734 21.8 20.4574 21.74 1.74936C33.344 1.74936 189.632 1.11336 196.94 1.06536C196.844 7.72536 196.688 53.5534 196.688 53.5534C194.695 53.881 192.787 54.5987 191.072 55.6654C190.603 55.8918 190.211 56.2505 189.944 56.6974C189.853 56.854 189.797 57.0282 189.779 57.2084C189.761 57.3885 189.782 57.5705 189.84 57.742C189.897 57.9135 189.991 58.0707 190.115 58.203C190.238 58.3354 190.389 58.4398 190.556 58.5094C190.064 58.8054 189.652 59.2174 189.356 59.7094C189.236 60.1754 189.292 60.6693 189.514 61.0966C189.735 61.5239 190.106 61.8545 190.556 62.0254C189.284 63.1654 189.536 65.1694 192.104 65.5414C193.667 65.7608 195.258 65.6916 196.796 65.3374C197.504 75.9334 196.46 220.353 196.58 227.133ZM198.02 67.9054C197.948 67.0294 197.864 66.1054 197.756 65.1214C198.525 64.888 199.272 64.5869 199.988 64.2214C200.492 63.9694 200.084 63.2134 199.58 63.4654C197.671 64.3529 195.575 64.7646 193.472 64.6654C192.692 64.6654 191.384 64.6654 191.072 63.9094C190.76 63.1534 191.516 62.5894 192.032 62.4454C194.296 62.7842 196.609 62.3621 198.608 61.2454C198.703 61.1944 198.775 61.1077 198.806 61.0041C198.838 60.9006 198.827 60.7888 198.776 60.6934C198.725 60.5979 198.638 60.5265 198.535 60.495C198.431 60.4635 198.319 60.4744 198.224 60.5254C196.419 61.3921 194.4 61.7093 192.416 61.4374C191 61.2454 190.34 60.8494 190.364 60.2374C190.364 59.9494 191.564 59.0374 192.044 58.8334C194.169 59.135 196.327 59.135 198.452 58.8334C198.992 58.7614 198.92 57.9334 198.38 58.0054C196.772 58.2094 191.612 58.0774 191.12 57.6454C191.068 57.6116 191.025 57.5654 190.996 57.5109C190.966 57.4564 190.951 57.3954 190.951 57.3334C190.951 57.2713 190.966 57.2103 190.996 57.1558C191.025 57.1013 191.068 57.0551 191.12 57.0214C192.392 55.7014 196.928 54.3694 198.14 54.1774C198.235 54.1662 198.323 54.1176 198.382 54.0422C198.442 53.9668 198.469 53.8708 198.458 53.7754C198.447 53.6799 198.398 53.5927 198.323 53.5331C198.247 53.4735 198.151 53.4462 198.056 53.4574H197.852V49.3654C200.012 50.6494 200.852 53.5894 201.524 55.9654C204.548 66.5134 202.82 65.8174 205.904 67.8934C206.396 68.2049 206.855 68.5669 207.272 68.9734C204.212 70.8694 200.744 70.1734 198.02 67.9414V67.9054Z" fill="black"/>
<path id="Vector_4" d="M118.94 125.841C118.662 125.841 118.391 125.924 118.16 126.078C117.929 126.232 117.749 126.451 117.643 126.708C117.537 126.965 117.509 127.247 117.563 127.519C117.617 127.792 117.751 128.042 117.947 128.238C118.144 128.434 118.394 128.568 118.666 128.622C118.938 128.677 119.221 128.649 119.477 128.542C119.734 128.436 119.953 128.256 120.107 128.025C120.262 127.794 120.344 127.523 120.344 127.245C120.344 126.873 120.196 126.516 119.933 126.253C119.669 125.989 119.312 125.841 118.94 125.841ZM114.8 132.705C114.491 132.705 114.19 132.797 113.933 132.968C113.677 133.14 113.477 133.383 113.359 133.668C113.241 133.953 113.21 134.267 113.27 134.57C113.33 134.872 113.479 135.15 113.697 135.368C113.915 135.587 114.193 135.735 114.496 135.795C114.798 135.856 115.112 135.825 115.397 135.707C115.682 135.588 115.926 135.389 116.097 135.132C116.268 134.875 116.36 134.574 116.36 134.265C116.36 133.852 116.196 133.455 115.903 133.162C115.611 132.87 115.214 132.705 114.8 132.705ZM111.08 138.729C110.843 138.729 110.611 138.8 110.413 138.932C110.216 139.063 110.062 139.251 109.971 139.47C109.88 139.689 109.857 139.931 109.903 140.163C109.949 140.396 110.064 140.61 110.231 140.778C110.399 140.946 110.613 141.06 110.846 141.106C111.079 141.153 111.32 141.129 111.539 141.038C111.758 140.947 111.946 140.793 112.078 140.596C112.21 140.399 112.28 140.167 112.28 139.929C112.28 139.611 112.154 139.306 111.929 139.081C111.703 138.856 111.398 138.729 111.08 138.729Z" fill="black"/>
</g>
</svg>
