<svg xmlns="http://www.w3.org/2000/svg" viewBox="0 0 400 400" id="Something-Wrong-1--Streamline-Milano.svg" height="400" width="400"><desc>Something Wrong 1 Streamline Illustration: https://streamlinehq.com</desc><g fill="#000000" fill-rule="evenodd"><path d="M25.24 291.7c-3.44 4.78 -8.12 8.56 -12.38 4.58A12.42 12.42 0 0 1 10 292a0.18 0.18 0 1 1 0.34 -0.14 12.12 12.12 0 0 0 2.86 4.1c4.24 3.68 8.62 -0.66 11.76 -5.34a0.46 0.46 0 0 1 0.8 0.1 14 14 0 0 0 2.58 4.3c4 4.38 8.46 1.04 12 -3.72a0.44 0.44 0 0 1 0.74 0c1.02 1.88 3.3 4.92 5.58 5.06s4.14 -3.08 5.04 -5.36a0.18 0.18 0 1 1 0.34 0.12c-0.94 2.68 -2.58 6 -5.4 5.9 -2.42 0 -4.7 -2.7 -6 -4.74 -2 2.58 -4.88 5.56 -8.14 5.66s-5.86 -3.1 -7.26 -6.24zm47.44 -31.48a7.24 7.24 0 0 1 -5.28 4.16 3.46 3.46 0 0 1 -2.6 -0.8 6.14 6.14 0 0 1 -1.78 -3.5c0 -0.24 0.34 -0.28 0.38 0 0.14 0.98 1.16 4 4 3.66 3.56 -0.44 5.38 -5.62 4.96 -4.62a0.44 0.44 0 0 1 0.82 0c0.18 0.2 1.64 3.78 4.46 3.7 3.2 0 4.74 -4.68 4.34 -3.68a0.44 0.44 0 0 1 0.84 0 7.36 7.36 0 0 0 2 3.1 4.2 4.2 0 0 0 3.42 0.98 4.44 4.44 0 0 0 4.3 -4 0.2 0.2 0 0 1 0.38 0 5.04 5.04 0 0 1 -4.6 4.78 5.54 5.54 0 0 1 -6 -3.56c-2.54 4.2 -6.88 4.62 -9.64 -0.22zm195.66 23.3c-1.56 5.38 -6.96 6.32 -9.66 4.1a9.78 9.78 0 0 1 -2.82 -5.3 0.2 0.2 0 0 1 0.38 0 9.22 9.22 0 0 0 2.8 4.9 5.36 5.36 0 0 0 7.18 -1.26 8 8 0 0 0 1.56 -4 0.44 0.44 0 0 1 0.86 -0.1 9.82 9.82 0 0 0 2.38 4.12 6 6 0 0 0 8.3 -0.34 8.86 8.86 0 0 0 2.18 -4 0.44 0.44 0 0 1 0.86 0 6.7 6.7 0 0 0 2.46 3.52 6.94 6.94 0 0 0 7.78 -0.64 4.12 4.12 0 0 0 1.28 -3.46 0.18 0.18 0 0 1 0.36 0 4.52 4.52 0 0 1 -1.28 3.9 6.94 6.94 0 0 1 -3.78 1.76 6.32 6.32 0 0 1 -7.2 -3.6 7.6 7.6 0 0 1 -6.64 5.38 7.04 7.04 0 0 1 -7 -4.98zm60.78 -22.46a7.56 7.56 0 0 1 -6.32 4.94 5.4 5.4 0 0 1 -4.76 -1.56 9.1 9.1 0 0 1 -2.18 -4.52c0 -0.22 0.32 -0.3 0.36 0a8.54 8.54 0 0 0 2.2 4.18 6 6 0 0 0 8.32 -0.78 8.32 8.32 0 0 0 2 -4 0.44 0.44 0 0 1 0.86 0 8.74 8.74 0 0 0 2 4.34 5.56 5.56 0 0 0 8 -0.46 6.64 6.64 0 0 0 1.4 -4 0.44 0.44 0 0 1 0.88 0 7.14 7.14 0 0 0 3.12 4.32 10 10 0 0 0 10.12 -1.04 2.78 2.78 0 0 0 0.46 -3.1 0.18 0.18 0 0 1 0.32 -0.16 3.18 3.18 0 0 1 -0.4 3.58 8.4 8.4 0 0 1 -5 2.24 7.64 7.64 0 0 1 -8.82 -3.9 6.34 6.34 0 0 1 -5.78 5.08c-3.48 0.18 -5.72 -1.88 -6.78 -5.16zM30 69.7c1.78 -7.28 5.36 -10 9.42 -3.58a0.18 0.18 0 1 1 -0.3 0.2C37.4 64 35.26 62 33.34 64.14a18.92 18.92 0 0 0 -2.8 7.14 0.44 0.44 0 0 1 -0.86 0c-1.72 -4.28 -4.5 -8.94 -8.32 -6.4a8.62 8.62 0 0 0 -2.18 2.32 0.18 0.18 0 0 1 -0.32 -0.2 5.66 5.66 0 0 1 5.44 -3.44c2.66 0.44 4.54 3.7 5.7 6.14zm29.32 -20.28C66 40 74.34 36.2 79.16 46.66a0.18 0.18 0 1 1 -0.32 0.16c-2.34 -4.58 -5.04 -6 -7.7 -5.62 -6.22 0.76 -12.42 10.76 -11.68 9.62a0.46 0.46 0 0 1 -0.84 -0.16c-1.18 -6.42 -3.84 -13.58 -10 -11.74A13.54 13.54 0 0 0 43.44 42a0.2 0.2 0 0 1 -0.28 -0.26c3.14 -3.22 7.68 -5.3 11.28 -2.42 2.76 2.2 4.12 6.68 4.88 10.1zM354.64 128c0.46 -5.58 3.5 -8.48 8.62 -5.42a0.18 0.18 0 1 1 -0.18 0.32c-2 -0.98 -4.2 -1.52 -5.72 0a10.24 10.24 0 0 0 -1.84 5.84 0.46 0.46 0 0 1 -0.72 0.38c-3.28 -2.28 -8 -4.54 -11.3 -2.3a5.74 5.74 0 0 0 -2 2.26c0 0.24 -0.44 0 -0.34 -0.12a6 6 0 0 1 5.06 -3.82 13.88 13.88 0 0 1 8.42 2.86zm18.84 -17.82c0.3 -4.46 2.88 -6.7 7.5 -4.68 0.22 0 0 0.44 -0.12 0.34a4.9 4.9 0 0 0 -5.04 0.44 7.46 7.46 0 0 0 -1.42 4.94 0.46 0.46 0 0 1 -0.8 0.36c-2.42 -2.54 -5.5 -4.44 -8.3 -2.32a6.54 6.54 0 0 0 -1.62 1.8 0.18 0.18 0 0 1 -0.34 -0.16c1.82 -3.68 5.64 -4.9 10.14 -0.72zM295 183.44c0 -0.22 0.18 -0.28 0.26 -0.2s0 0.16 0 0.26 0.1 0.58 0.22 1.04c1.32 4.84 4.24 14.78 -0.72 16 -5.36 1.24 -1.66 -11.86 0.24 -17.1zm0 0.72c-1.18 4 -4.6 16.68 -0.48 15.7s1.48 -11.4 0.56 -15.7zm28.72 191.22a0.8 0.8 0 0 0 0 1.24c1.32 1.62 6.98 2.2 9.36 0.62 0.68 -0.46 0.66 -1.02 0.26 -1.38 -1.18 -1.04 -8.14 -1.6 -9.62 -0.48zm7.88 0.36a11.58 11.58 0 0 0 -7.38 0.28c0.9 1.26 5.32 1.62 7.58 0.9 1.4 -0.44 1.2 -0.7 -0.2 -1.18zm-59.48 -20a14.6 14.6 0 0 1 2 -14.4c4.18 -5.28 14.72 -10.16 22.76 -8.48a11.06 11.06 0 0 1 8.92 7.44 17.32 17.32 0 0 1 -2.36 13.68 20.9 20.9 0 0 0 4.28 0.12c5.64 -0.28 8.7 -1.36 10.84 -1 1.2 0.2 1.34 0.92 0.72 1.5s-2.14 1.26 -2.52 2c-0.9 1.6 13.56 0 16.68 1.06 1.26 0.42 1.54 1.26 1.34 2.54 -0.62 3.68 -13.44 0.52 -16.94 2.88 1.16 0.3 6.62 -0.14 9 1.28 1.26 0.76 1.66 2 0.32 3.86 -3.04 4.12 -13.3 2.1 -18.4 1.18a9.02 9.02 0 0 0 -4 -0.28 0.48 0.48 0 0 0 -0.5 0.42 2.8 2.8 0 0 0 0.14 0.88c0.56 1.88 1.36 2.46 1.08 3.36 -1.18 3.74 -21.74 2.68 -25.02 1.68 -2 -0.62 -2.24 -1.52 -1.74 -2.64s0.8 -1.52 0.26 -2.4c-1.38 -2.14 -12.32 1.84 -16 -0.68a1.44 1.44 0 0 1 -0.24 -2.24 12.68 12.68 0 0 1 5.02 -3.14 2.12 2.12 0 0 0 0.84 -0.48c-0.92 -0.92 -8 -1 -9.5 -0.96 -4.72 0.1 -5.3 -3.6 -1.48 -5.42 3.04 -1.5 11.2 -1.74 14.5 -1.76zm30.28 -0.22a10.64 10.64 0 0 1 -1.38 1.46c-0.24 0.16 -0.42 0 -0.34 -0.18s0 0.12 0.68 -0.64a17.42 17.42 0 0 0 3.68 -15.66 10.24 10.24 0 0 0 -8.3 -6.78c-4.34 -0.9 -10 0 -16.54 3.64a16.18 16.18 0 0 0 -7.76 8.52 15.76 15.76 0 0 0 0.78 11.52 0.18 0.18 0 0 1 -0.3 0.2c-1.72 -0.3 -2.66 0.74 -2.12 1.12a4.38 4.38 0 0 0 3.44 -0.22c0.34 -0.18 0.68 -0.44 0.88 -0.1s-0.2 0.48 -0.42 0.6a4.48 4.48 0 0 0 -1.42 1.16c-0.34 0.62 4 1.1 5.64 -0.38l0.4 -0.48a0.32 0.32 0 0 1 0.52 0.38c-0.18 0.38 -0.46 0.5 -0.68 0.82s-0.5 0.92 0 1.12a2.88 2.88 0 0 0 2.46 -0.32 3.4 3.4 0 0 0 1 -1.06c0.1 -0.14 0.34 0 0.24 0.14a3.84 3.84 0 0 1 -1.02 1.22c-1.26 0.98 -4 0.92 -3.54 -0.68a7.64 7.64 0 0 1 -3.74 0.46c-0.68 0 -1.72 -0.2 -2 -0.84a1.02 1.02 0 0 1 0.3 -1.02 4.84 4.84 0 0 1 -1.64 0c-0.8 -0.18 -1.38 -0.7 -0.98 -1.38a2.3 2.3 0 0 1 2.48 -0.78c-0.12 -0.24 -0.3 -0.66 -0.5 -1.18 -3.22 0 -11.46 0.36 -14.36 1.78 -3.26 1.6 -2.88 4.48 1.24 4.36a36.88 36.88 0 0 1 9.32 0.7c1.2 0.42 1.4 1.26 -0.38 2a12 12 0 0 0 -4.68 2.94 0.96 0.96 0 0 0 -0.26 0.76c0.14 0.56 1.4 0.86 2 0.98 4.88 0.9 12.92 -2.28 14.58 0.3 1.18 1.84 -0.72 3.3 -0.28 4 1.46 2.2 26.74 2.3 25.18 -0.86a8 8 0 0 1 -1.18 -3.68c0.14 -1.14 1.26 -1.22 2.42 -1.32 2 -0.16 17.22 4.24 20.66 -0.4a2.34 2.34 0 0 0 0.64 -1.74c-0.26 -1.34 -3.42 -1.66 -4.76 -1.78 -3.22 -0.24 -5.02 0 -5.44 -0.76 -0.24 -0.48 0.14 -0.88 0.6 -1.14 3.14 -1.76 8.82 -0.64 13.34 -0.96 0.98 0 3.02 -0.28 3.2 -1.24s0 -1.72 -2.1 -2c-3.68 -0.44 -11.34 0.28 -14.26 -0.28 -1.76 -0.32 -1.9 -1.12 -1.06 -2s3.04 -1.68 2.32 -2a10.56 10.56 0 0 0 -4.26 0 43.36 43.36 0 0 1 -11.44 0.5l-0.7 1c1.2 -0.14 3.3 -0.2 3.78 0.92 0.34 0.8 -0.68 1.08 -1.54 1.22 0.8 0.18 2 0.58 1.88 1.4a1.14 1.14 0 0 1 -0.26 0.74c-0.8 1.02 -3.62 0.42 -4.9 0.12 -0.14 1 -2.24 1.46 -3.32 1.46a7.7 7.7 0 0 1 -1.48 -0.14c0.46 0.88 -1.22 1.24 -2.24 0.82a4 4 0 0 1 -1.02 -0.7 4 4 0 0 0 1.04 0.6c0.88 0.34 2.5 0.12 2 -0.68v-0.12c3.28 0.36 6.2 -1.32 3.76 -1.9v-0.12c0.44 0 1.02 0.22 1.12 0.66 1.02 0.18 4 0.66 4.6 -0.18a1.12 1.12 0 0 0 0.14 -0.54c0.14 -1.18 -5.38 -1.38 -4.42 -1.32a0.22 0.22 0 0 1 0 -0.42c0.92 0 4.48 0.16 4.14 -0.7s-2.42 -1.04 -3.44 -0.94zm32 13.54a0.74 0.74 0 0 0 0 1.1 5.18 5.18 0 0 0 3.78 0.8c0.8 -0.18 1.3 -0.66 1.34 -1.14 0.2 -1.42 -3.96 -1.82 -5.06 -0.76zm0.62 0.5c1.04 0.56 3.4 0.92 3.76 0.18s-2.66 -1.38 -3.7 -0.18zm-78 -2.24c-1.04 2.78 -9.76 2.26 -8.68 0.12a2.8 2.8 0 0 1 2 -1.6 13.2 13.2 0 0 1 6.5 0.16c0.54 0.3 0.28 1.12 0.2 1.32zm-7.88 0.48a10.66 10.66 0 0 0 6.6 0.12c0.8 -0.38 1.8 -1.54 0.22 -1.72a19.64 19.64 0 0 0 -3.72 0.18c-1.46 0.16 -2.52 0.32 -3.08 1.42zm49.06 -14.4h0.12a2 2 0 0 1 0 0.28c0 0.62 -0.34 1.3 -1.32 1.26v-0.1c0.88 -0.28 1.08 -0.66 1.12 -1.16zm-21.88 -0.92c-0.4 0.66 0 1.64 1.22 1.78 0 0 0.12 0 0 -0.12 -0.62 -0.28 -1.16 -0.66 -1.16 -1.34a0.7 0.7 0 0 1 0 -0.28s-0.02 -0.12 -0.04 -0.04zm23.56 0s0 -0.1 0.12 0a2 2 0 0 1 0 0.28c0 0.68 -0.34 1.28 -1.32 1.26v-0.12a1.3 1.3 0 0 0 1.08 -0.9 1.42 1.42 0 0 0 0.24 -0.58zm-25.18 -0.66c-0.4 0.7 0 1.64 1.24 1.78 0 0 0.1 -0.1 0 -0.12 -0.62 -0.28 -1.16 -0.66 -1.16 -1.34a1.88 1.88 0 0 1 0 -0.28s-0.02 -0.18 -0.06 -0.1zm7.58 -9.9a0.88 0.88 0 0 1 0.58 0.42 2 2 0 0 1 0.22 1.12c0 1.4 -1.7 6.18 0.86 6.14s1.04 -5.24 1.22 -6 0.4 -1.72 0.92 -1.82a0.1 0.1 0 1 0 0 -0.2c-0.66 0 -1.02 1.26 -1.24 2s0.7 5.54 -0.88 5.56 -0.5 -4 -0.54 -5.64 -1.34 -1.74 -1.1 -1.74c-0.14 -0.1 -0.14 0.1 -0.02 0.1zm16.54 -0.96c0.26 0 0.72 0.24 1.1 1.16 0.6 1.36 -1.22 4.7 0.44 5.32 1.24 0.48 2 -0.94 2 -2.28a12.52 12.52 0 0 0 -0.56 -2.9 2.54 2.54 0 0 1 0 -0.98v-0.12c-0.26 -0.1 -0.18 0.86 -0.14 1.14a13.22 13.22 0 0 1 0.4 2.84c0 1 -0.5 2.26 -1.42 2s0.4 -3.64 -0.3 -5.06a3.06 3.06 0 0 0 -0.68 -0.94c-0.44 -0.38 -0.74 -0.26 -0.74 -0.26s-0.18 0.04 -0.08 0.02zm-24.16 3.8c-0.3 0.7 0.24 1.62 1.48 1.56v-0.12c-0.66 -0.18 -1.24 -0.46 -1.34 -1.14a0.76 0.76 0 0 1 0 -0.28s-0.12 -0.16 -0.12 -0.08zM210.62 143.42a5.26 5.26 0 0 0 5.22 -5.24 5.24 5.24 0 1 0 -10.44 0 5.26 5.26 0 0 0 5.22 5.24zm58 6.16zM226 140.32c0 0.54 0.2 1.08 0.28 1.64 -0.5 -3.62 -0.44 -3.24 -0.28 -1.64zm36.24 12.08s-0.06 0.08 0 0z" stroke-width="1"></path><path d="M389.76 233.56h-0.38c-1.38 -0.12 -8.2 -0.16 -43 0 -28.58 0.14 -68.74 0.42 -116.76 0.8 -0.84 -19.7 -1.88 -38.22 -2 -40.8 0.48 -0.12 0.98 -0.24 1.5 -0.42 2.38 -0.42 0.54 -22.88 0.32 -25.6 -0.48 -6.18 -1.3 -13 -2.24 -19.8 4 5.66 12.3 11.02 21.78 12.42 4.54 0.66 2.8 0 3.26 0.86s2 0.7 13.66 0.18a3.38 3.38 0 0 0 5.12 2.18 3.26 3.26 0 0 0 3.72 0.2 3.8 3.8 0 0 0 1.54 0.48 1.72 1.72 0 0 0 1.84 -0.96 4.18 4.18 0 0 0 -0.36 -2.68 161.8 161.8 0 0 0 18.26 -1.22c1.34 0.78 -0.2 2.88 -1.22 4a14 14 0 0 0 -1.64 8.66c0.36 1.7 1.42 2.5 3.06 2 4.94 -1.46 1.2 -10 2.94 -12s1.54 -9.72 0.78 -9.48c-4.78 1.42 2.48 -8.64 -2.22 -10.38a7.74 7.74 0 0 0 -4.82 -0.5c-0.5 -1.16 -1.7 -3.9 -2.9 -3.5 -2.22 0.74 -16.18 9.18 -18 10.26 -3.42 -3.46 -7.38 -0.7 -10.24 3.22 -5.48 -5.44 -15.56 -17.7 -20.4 -23.68 -0.34 -1.2 -2.86 -11.4 -3.2 -12.82a2.82 2.82 0 0 0 1 -1.48c0 -0.74 -5.9 -26.1 -12.54 -35.28 -3.7 -5.04 -9.22 -11.36 -14.76 -14.2a8.8 8.8 0 0 0 4.48 -4.58 50.22 50.22 0 0 0 8.52 -17.54c7.56 2.5 7 3.76 7.7 3.26a0.46 0.46 0 0 0 0.16 -0.52 102.74 102.74 0 0 0 -4 -10.12c1.02 -3.42 4.98 -17.38 2.3 -19.74 -3.02 -2.78 -27.88 -5.8 -38.9 0a102.28 102.28 0 0 0 -7.36 8.64c-2.38 1.36 -9.18 5.42 -10.96 7.54 -0.26 0.32 -0.7 0.98 -0.3 1.02 0 0 2.98 0.38 7.6 1.06 -4.44 4.96 1.66 11.42 1.66 11.42 -2 0 -2.58 2.56 -3.1 4 0 0 0.52 -4.28 -2.24 -4.76a5.28 5.28 0 0 0 -4.62 0.74c0 0.2 -0.2 0.2 0 0 0.38 -0.9 1.32 -6.18 -3.1 -7.12 -3.42 -0.72 -4.74 2.7 -5.1 4.1 0 0.72 -0.22 0.8 0 0 0.18 -1.74 -0.2 -5.74 -3.54 -5.36s-2.7 4.76 -2.7 4.76 -6.14 -2.82 -9.82 -0.26 1.88 5.66 1.88 5.66 -4.98 -1.64 -6.28 1.52c-1.14 2.72 3.18 4.24 4.36 4.56h0.12a4.9 4.9 0 0 0 -4.86 2.18c-0.94 2 0.98 3.02 2 3.36 0.42 0 0.82 0.32 0 0a2 2 0 0 0 -2 1.14c-0.68 3.48 1.78 4.1 3.7 4 -8.58 2.74 -16.2 11.52 -21.08 19.1a130.16 130.16 0 0 0 -17.06 42.88 0.48 0.48 0 0 0 0.28 0.52s2.7 1.14 7.1 2.54a100.92 100.92 0 0 0 -2 27.52c-1.16 6.78 -3.86 22.62 -4.2 29.44 -0.24 4.76 0.34 8 6.68 10a37.16 37.16 0 0 0 7.06 1.5c0.9 2.3 1.36 12.54 3.46 38.66L16 236.3a0.46 0.46 0 0 0 -0.38 0.2 0.48 0.48 0 0 0 0 0.46 0.46 0.46 0 0 0 0.38 0.2l111.82 -0.72c1.06 12.98 2.5 29.76 4.58 51.24a80.96 80.96 0 0 0 8.72 1.26c5.14 60.78 7.32 81.36 7.08 88.5 0 0 12.54 12.88 20.76 10.88 0 0 3.48 -0.62 3.8 -3.14s-2.62 -6 -4.18 -8 -3.26 -3.82 -4.76 -5.38c0.14 -0.76 14.26 -81.34 14.78 -84.5 4.84 -0.72 8 -1.36 8.32 -1.44 0 0.72 7.28 74.48 7.58 76.98v1.64s12.38 12.64 20.6 10.66c0.2 -0.18 4.68 -0.98 3.8 -4.26s-6.9 -9.8 -8.9 -11.88c0.14 -0.82 6 -46.32 6.56 -51.66 0.48 -4.6 2 -22.52 2.34 -26.66a69.14 69.14 0 0 0 11.86 -4.44c0.14 -9.46 -0.38 -25.26 -1.02 -40.54 46.58 -0.38 86.2 -0.76 115.28 -1.08 36 -0.4 42.98 -0.56 44.42 -0.7h0.36v-0.14zM255.6 160.98c-0.42 0 -2.62 0 -2.8 -0.32s1.06 -1.3 1.28 -1.46a5.2 5.2 0 0 0 1.6 1.1 4 4 0 0 0 -0.08 0.68zm-1.26 -2c0.66 -0.5 1.7 -1.16 2.92 -2a11.18 11.18 0 0 0 -1.5 2.62c-0.16 0.04 -1.02 -0.38 -1.42 -0.62zm1.5 2a2.78 2.78 0 0 1 0.2 -0.52 12 12 0 0 0 1.28 0.48zm2.66 0 -2.22 -0.98a28.7 28.7 0 0 1 1.44 -2.5c2.92 2.44 2 0.18 1.54 3.44zm34.52 -3.62 -1.48 -0.3c0.42 -0.56 0.86 -1.2 1.72 -2.32a4.72 4.72 0 0 0 -0.24 2.56zm-2 -0.42c-1.64 -0.36 -2.62 -0.58 -3.64 -0.84 0.96 -1.4 1.28 -1.82 2.28 -3.1a29.72 29.72 0 0 0 4 0.48 34 34 0 0 0 -2.66 3.4zm-2 -4c-0.24 0.32 -1.24 1.6 -2.2 3.1 -1.38 -0.34 -2.82 -0.74 -4.28 -1.16 0.72 -1.04 1.46 -2 2.22 -3.04 1.38 0.3 2.84 0.68 4.26 0.98zm-3.9 -1.56c0.92 -1.18 1.8 -2.26 2.82 -3.38a33.3 33.3 0 0 0 4.7 0.94 38.18 38.18 0 0 0 -3.26 3.54c-1.5 -0.48 -2.84 -0.8 -4.26 -1.22zm4.88 1.22c1 -1.26 2.28 -2.68 3.14 -3.6h1.46c0.14 0.44 0.26 0.88 0.4 1.3 -0.28 0.78 -0.78 2 -1.14 2.82a32.94 32.94 0 0 1 -3.86 -0.64zm3.44 -3.9 0.8 -0.78 0.3 0.94zm-0.44 0c-1.3 -0.24 -3.04 -0.64 -4.64 -1.08a36.46 36.46 0 0 1 2.8 -2.76l1.2 0.24a23.38 23.38 0 0 0 1.56 2l0.24 0.72a14.6 14.6 0 0 0 -1.16 0.68zm-5.2 -1.24c-1.3 -0.38 -2.44 -0.76 -3.68 -1.22l2.5 -2.76a38.48 38.48 0 0 0 4.1 1.28 30.22 30.22 0 0 0 -2.92 2.5zm-0.42 0.46c-0.98 1.06 -2 2.2 -2.84 3.36 -1.26 -0.38 -2.4 -0.76 -3.64 -1.2 0.94 -1.18 2 -2.34 2.84 -3.4 1.04 0.2 2.44 0.68 3.64 1.04zm-3.2 3.84c-0.72 0.94 -1.52 2 -2.18 3.04 -1.38 -0.42 -2.52 -0.8 -3.76 -1.24 0.16 -0.2 0.66 -0.96 2.3 -3.04 1.16 0.22 2.46 0.66 3.64 1.04zm-2.5 3.52c-0.68 1.04 -1.08 1.66 -2 3.26 -1.38 -0.38 -2.6 -0.74 -4 -1.18 0.74 -1.2 1.48 -2.3 2.26 -3.4 1.46 0.38 2.3 0.66 3.74 1.12zm-4 -1.88a41.02 41.02 0 0 1 -4 -1.68c0 -0.14 0 0 0.14 -0.36 0.56 -0.78 1.56 -2 2.22 -2.74 0.98 0.46 2.54 1.14 4 1.7 -0.76 0.74 -1.86 2.22 -2.28 2.88zm-4 -1.4a41.2 41.2 0 0 0 3.82 1.78c-0.76 1.14 -1.46 2.3 -2.1 3.5 -1.52 -0.5 -3.1 -1.08 -4.58 -1.68l0.26 -0.36c1.18 0.56 2.92 -0.58 2.6 -3.44zm1.46 5.76c-0.12 0.22 -0.24 0.46 -0.34 0.68a1.72 1.72 0 0 0 -2.46 0.88 2.24 2.24 0 0 0 -2.28 -0.44l-1.14 -0.44a26.42 26.42 0 0 1 1.58 -2.4c1.5 0.42 3.1 1.04 4.64 1.52zm-6.48 1.1 0.96 0.3c-0.72 0.62 0 0.7 -0.78 0.2 -0.42 -0.5 -0.44 -0.26 -0.18 -0.7zm-0.18 -0.6c-0.98 -0.4 -2.4 -1.06 -3.36 -1.54 0.62 -1.18 1.04 -2 1.52 -2.72a29.04 29.04 0 0 0 3.38 1.82 10.7 10.7 0 0 0 -1.54 2.18zm1.9 -2.86a38.7 38.7 0 0 1 -3.56 -1.7 26.7 26.7 0 0 1 1.76 -2.56 13.06 13.06 0 0 0 1.22 2.7c1 1.42 1.24 0.66 0.58 1.36zm-4 -2c-0.42 -0.24 -0.82 -0.48 -1.2 -0.74l3.22 -1.78a15.3 15.3 0 0 0 -2.02 2.36zm-0.18 0.28c-0.5 0.8 -1.06 1.76 -1.58 2.76l-2.24 -1.14c0.16 -0.32 0.78 -1.42 0.88 -1.56l1.7 -0.96c0.38 0.14 0.8 0.44 1.24 0.74zm-1.82 3.24a28.92 28.92 0 0 0 -1.38 3.08c-0.7 -0.32 -1.46 -0.68 -2.5 -1.22 0.52 -1.06 1.1 -2.14 1.66 -3.12 0.74 0.34 1.46 0.7 2.22 1.1zm-2.38 -2 -0.54 -0.28 1.28 -0.74c-0.22 0.2 -0.5 0.58 -0.74 1.02zm-0.2 0.32a22.78 22.78 0 0 0 -1.7 3.14c-0.44 -0.22 -1.52 -0.82 -2.14 -1.2l0.46 -0.78 2.72 -1.58zm0.88 5.58h-3.12a17.62 17.62 0 0 1 0.76 -1.78c0.88 0.46 1.84 0.9 2.54 1.18 -0.06 0.14 -0.24 0.54 -0.24 0.6zm0.24 0 0.2 -0.42 1.08 0.38zm3.02 0h-0.98l-1.62 -0.78 1.58 -2.98c3.8 2 3.54 1.24 3.34 1.86a1.88 1.88 0 0 0 -2.38 1.82zm0.94 -0.28c0.28 -1.1 1.4 -1.18 2.28 -0.46a3.56 3.56 0 0 0 1.46 2.98c-1.88 0.36 -4.24 -0.84 -3.8 -2.6zM270 160c0.22 -0.84 1.4 -0.78 2.2 -0.32a3.6 3.6 0 0 0 2 3.64c-2.36 0.42 -4.56 -2.16 -4.2 -3.32zm7.5 2.7c-0.36 1.34 -3.36 0 -4.1 -1.36 -0.46 -0.8 -0.54 -2 0.16 -2.32a2 2 0 0 1 2 0.46 4 4 0 0 1 0.88 0.92h0.94a3.6 3.6 0 0 1 0.12 2.2zm-0.86 -2.7a4 4 0 0 0 -1.64 -1.66c0.12 -0.22 0.26 -0.44 0.38 -0.68 1.32 0.44 2.72 0.82 4 1.16l-0.6 1.06zm2.46 -0.14 0.62 -0.96c1.1 0.28 2.14 0.5 3.22 0.7 -1.44 0.1 -2.78 0.18 -3.84 0.24zm5.08 -0.34 -4.18 -1.08c0 -0.14 2 -3 2.18 -3.2 1.3 0.38 2.78 0.8 4.32 1.16 -2.14 3.48 -1.22 3 -2.32 3.1zm0.96 0c0.64 -1.04 1.26 -2 1.88 -2.9 1.38 0.34 2.54 0.58 3.7 0.8 -0.26 0.44 -0.58 1.04 -0.9 1.7zm5.02 -0.44c0.32 -0.5 0.72 -1.04 1.08 -1.56l2 0.34a2.2 2.2 0 0 0 0.9 0.78c-1.24 0.06 -2.76 0.22 -3.98 0.34zm7.36 -16.54c4.14 1.46 -2.82 11.76 2.42 10.18a18.46 18.46 0 0 1 0 5.48c-0.6 4.32 -1.84 2.66 -1.84 6.2s1.04 8 -2 8.94 -2.58 -4.68 -1.62 -7.72c0.8 -2.46 1.18 -1.82 2.28 -3.88s0.54 -3.18 -1.6 -3.5c-4.12 -0.66 1.52 -7.32 0.74 -9.78 -0.28 -0.9 -1.2 -1.52 -2.66 -3.36 -2.52 -3.22 0.52 -3.98 4.28 -2.66zm-5.4 -0.46a1.7 1.7 0 0 0 -0.32 1.76l-0.6 0.42c-1.38 -0.4 -2.24 -0.64 -4.2 -1.32l3.56 -3.74a13.8 13.8 0 0 1 1.56 2.8zm-1.84 -3.12c0.28 0.16 0.18 -0.24 -3.78 3.82 -0.74 -0.26 -1.52 -0.52 -2.2 -0.8a54.14 54.14 0 0 1 5.98 -3.12zM284 142a22.86 22.86 0 0 0 2 1.06c-1.2 1.26 -1.82 2 -2.56 2.78 -1.46 -0.54 -2.66 -1.02 -3.6 -1.42 0.74 -0.54 0.16 -0.24 4.16 -2.42zm-0.82 4.24q-1.44 1.62 -2.88 3.42l-4 -1.52c1.22 -1.34 2 -2 3.54 -3.56 1.32 0.76 2.46 1.3 3.38 1.68zm-4.4 -1.36a26.46 26.46 0 0 0 -3.08 3.12c-1.18 -0.46 -1.26 -0.56 -1.32 -0.4s0.12 0.18 1.12 0.64a17.58 17.58 0 0 0 -2 2.72 6 6 0 0 0 -1.24 -2.38zm-38 -16.78a303.68 303.68 0 0 0 20.68 24.36 0.46 0.46 0 0 0 0.7 0c0.4 -0.6 4.26 -6.12 7.66 -4.54a4.78 4.78 0 0 1 2.66 3c0.56 1.8 0 4.88 -1.66 2.78a10.96 10.96 0 0 1 -1.64 -3.58 0.46 0.46 0 0 0 -0.56 -0.52c-1.3 0.74 -14.78 8 -16.34 10.46a41.24 41.24 0 0 1 -19.4 -7.64 27.42 27.42 0 0 1 -5.88 -5.8s-0.7 -4.18 -1.02 -6.24c-1.68 -10 -2.48 -15 -3.2 -19.14 3.84 -0.98 11.2 -2.94 14.7 -5.76 0.24 0.7 3.04 11.96 3.38 12.64zm-27.58 -70.6a0.18 0.18 0 1 1 -0.36 0 2.94 2.94 0 0 0 -0.66 -1.66c-1.02 -1.18 -2.74 -0.36 -4 0.54 -0.14 0.16 -0.38 0 -0.3 -0.2 -0.32 0.46 1.52 -2.6 4 -1.7a2.44 2.44 0 0 1 1.32 3.02zM187.44 20.98a157.8 157.8 0 0 1 5.04 -5.6c10.8 -5.52 35.2 -2.32 38 0 1.36 1.2 0 7.76 -0.26 9.56l-0.6 -0.18c-5.86 -1.7 -25.7 -6.86 -42 -3.84zm-13.66 10.66c1.08 -2.14 11.26 -7.64 11.4 -7.84 3.72 0.38 30.9 3.32 42.6 10.56 -0.22 0.76 -0.16 -1.32 3.68 9.32 -10.34 -5.96 -45.84 -10.68 -57.68 -12.04zm17.82 13.14c-2.64 -0.82 -5.76 -6.66 -1.18 -8.8 3.78 -1.78 2 -0.26 6.42 2.76 3.74 2.6 6.24 -0.9 6.86 -2a187.64 187.64 0 0 1 20.82 4.96 67.54 67.54 0 0 1 -7.44 15.28 7.56 7.56 0 0 0 -1.2 -4.82 4.26 4.26 0 0 0 -1.48 -1.58 1.68 1.68 0 0 0 1.6 -0.58 19.34 19.34 0 0 0 2.32 -7.18 0.18 0.18 0 1 0 -0.36 0l-1.24 3.4a15.48 15.48 0 0 1 -1.42 3.3 1.12 1.12 0 0 1 -1.08 0.36 6.56 6.56 0 0 1 -2.16 -0.78 0.18 0.18 0 1 0 -0.22 0.28 3.86 3.86 0 0 0 0.5 0.4 8 8 0 0 0 -3.64 0 10.88 10.88 0 0 0 -8.98 7.78 5.3 5.3 0 0 0 0.6 4.78 12 12 0 0 0 5.46 3.1 11.22 11.22 0 0 0 5.72 -1.08c5.38 2.82 11 9.52 14.52 14.48 5.38 7.48 10.4 26 12.42 34.78 -0.96 2.9 -12.7 6.28 -15.66 7.06 -0.86 -4.98 -1.54 -8.34 -3.18 -16.5 0 -0.24 -0.4 -0.16 -0.36 0 -0.12 -0.64 3.78 18.76 6.84 40.66 -0.22 0.14 0 0.88 0.16 1.12a337.54 337.54 0 0 1 3.2 36.76c0 1.7 0.14 8 -0.58 9.54a10.68 10.68 0 0 1 -6.78 0.16 10.26 10.26 0 0 1 -5.28 -4c-0.26 -13.42 -1.2 -20.7 -3.68 -37.8l2.28 -0.62c6.6 -1.44 6 -6.34 5.76 -10s-1.04 -11 -2.76 -13.18a4.72 4.72 0 0 0 -3.2 -1.42 216.86 216.86 0 0 0 -3.38 -22.14c1.52 -0.34 2.78 -1.9 2.96 -4.98A53.08 53.08 0 0 0 212 86a6 6 0 0 0 1.48 -1.06 0.4 0.4 0 0 0 0 -0.46c0 0.2 -5.5 -14 -8.14 -18.76a10.82 10.82 0 0 1 -4.38 -2.14c0.34 3.72 1.36 14.6 2.84 23.86a3.4 3.4 0 0 0 -0.94 0.2c-2.3 -11.82 -4 -19.8 -4.22 -20.7l2.18 -3.5 -0.42 -0.42 -2 3.72a0.18 0.18 0 0 0 0 0.18l1.16 5.88a8.3 8.3 0 0 1 -5.88 3.2 12.96 12.96 0 0 1 -6.56 -2c-2.32 -12.94 -4.7 -21.32 -4.7 -21.32a0.18 0.18 0 0 0 -0.36 0.1 260.26 260.26 0 0 1 5.58 28.62A240.58 240.58 0 0 1 190.12 130c-0.68 0.22 -1.32 0.44 -1.88 0.66 0 0 -3.24 -22 -3.44 -23.18a9 9 0 0 0 2.76 -6.4 75.4 75.4 0 0 0 -1.16 -12.42h2c0.24 0 0.22 -0.36 0 -0.36h-2c-2 -14.2 -5.76 -34.5 -5.8 -34.78zM187.74 77.6a8.58 8.58 0 0 0 12.52 -1.26c0 0.22 4.44 22.46 8.4 47.34l-4 0.52 -0.88 2.74a115.56 115.56 0 0 0 -12.84 2.72 235.58 235.58 0 0 0 -3.2 -52.06zm-0.1 -0.64c-0.14 -0.8 -0.28 -1.62 -0.42 -2.4 4 3.14 9.38 3.28 12.46 -1.24l0.5 2.56a9.5 9.5 0 0 1 -12.54 1.08zm20.1 24.5a4.52 4.52 0 0 0 3.56 2c0 0.78 3.18 21.22 3.32 22a15.4 15.4 0 0 0 -2.9 0.14c-2.4 -2.28 -2 -2 -2.24 -2 -0.74 -4.54 -5.16 -29.14 -6.42 -35.66h0.96c1.04 6.24 2.3 11.72 3.72 13.52zm4.96 -16.94a5.76 5.76 0 0 1 -0.88 0.62c-4.3 -14.26 -8.34 -23.28 0.88 -0.62zm-2.48 41.36a20.4 20.4 0 0 1 -4.76 0.56 1.84 1.84 0 0 1 0.4 -1.42 5.76 5.76 0 0 1 3.54 -0.48c0.4 0.32 1.22 1.24 0.82 1.34zm0 3.48a9.22 9.22 0 0 1 9.44 9.18 9.46 9.46 0 1 1 -18.9 0 9.24 9.24 0 0 1 9.42 -9.18zM176.8 86.78a64.32 64.32 0 0 1 -6.82 -2c2.62 -20.96 6.6 -30.12 6.66 -30.32 -0.08 2.88 -0.42 18.9 0.16 32.32zM117.36 194.4c-5.78 -2.14 -6.26 -4.76 -6 -9.36 0.28 -5 1.86 -14.9 3.44 -27.42A145.22 145.22 0 0 0 124 196.12a40.56 40.56 0 0 1 -6.64 -1.72zm0 -23.78a106 106 0 0 1 -0.44 -42.48c11.4 3.6 24.78 6 36.64 4.78l-5.4 23.66a110 110 0 0 1 0.12 22c-1.54 17.16 -6.18 29.38 -6.18 32.46s-0.2 8.58 -0.42 10.84c-0.3 2.76 -4.54 8.12 -4.9 7.08a11.48 11.48 0 0 1 0.6 -4.22 26.62 26.62 0 0 0 1.04 -3.16 0.46 0.46 0 0 0 -0.9 -0.26c-0.14 0.34 -0.6 1.7 -1 3.12 -1.88 4.76 -4 5.68 -2.34 -0.2a17.58 17.58 0 0 0 0.92 -2.84 0.46 0.46 0 0 0 -0.86 -0.28s-0.48 1.28 -0.92 2.78c-0.46 1.1 -2.2 4.26 -2.98 3.6s0.6 -4.26 0.92 -5.06c2.36 -4 0.82 -7.2 0.62 -9.72s-9.36 -17.66 -14.5 -42.1zm52.96 209.76c1.04 1.4 2.78 4 1.66 5.42a8.28 8.28 0 0 1 -4 1.28 15.24 15.24 0 0 1 -6.68 -2.18c0.42 -0.7 4.48 -6.48 9.02 -4.52zm-7.26 -8.5c0 0.3 0 0.14 2.38 2.68 -1.5 0.12 -5.04 1.1 -10 6.78a47 47 0 0 1 -6.78 -5.6c0 -2.6 -0.18 -6.74 -0.48 -12 -0.22 -3.6 -6 -71.7 -6.38 -74.84a166.22 166.22 0 0 0 36.16 -1.58c-0.64 3.18 -14.9 84.56 -14.9 84.56zM146 198a122.44 122.44 0 0 0 2.74 -41.24c0.16 -0.76 5.38 -22.8 5.6 -23.86a35.84 35.84 0 0 0 10.72 -2.56l0.24 -0.32 0.7 -27.48c0 -0.24 -0.36 -0.26 -0.36 0l-0.94 27.14c-16 5.82 -38.94 1.34 -54.46 -4.88C114.12 106 124 80.64 138.46 68.62c4.66 -3.88 21.82 -11.48 37.58 -14 -3.54 8 -5.88 21.08 -7.02 30.32l0.3 0.48a55.46 55.46 0 0 0 7.52 2.14c0.42 8.72 1.24 16.18 2.8 18s3.38 2.58 4.64 2.1c0.12 1.08 3.16 23.1 3.2 23.24l-0.5 0.26c-3.42 1.88 -0.84 13.44 0.84 19.62a2.88 2.88 0 0 0 0.76 1.28c-1.3 14.48 -3.32 31.18 -4.96 42.6C174.3 199.34 156.44 198.98 146 198zm38.28 -2.84v-0.12zm1.36 -9.38c1.44 -10.64 2.76 -22 3.76 -32.94 4.34 2.36 15.88 -0.38 22.76 -2A292.32 292.32 0 0 1 215.62 182c-11.86 4.6 -28.28 3.76 -29.94 3.68zm30.82 181.8c2.98 4.32 2.8 6 -2.5 6.42a15.52 15.52 0 0 1 -6.92 -2.26c0.96 -1.5 4.96 -6.74 9.46 -4.26zm-29.02 -81.74c0.5 -2.5 14.3 -81.14 14.3 -81.14a0.34 0.34 0 0 1 0.66 0.1c0 -0.2 -8.56 60.76 -13.46 80.9a134.58 134.58 0 0 0 29.36 -4.86c-0.6 6.8 -9.24 78.28 -8.96 78.54s1.18 1.1 2.7 2.72c-1.26 -0.24 -5.16 -0.34 -10.6 6.14a44.56 44.56 0 0 1 -6.64 -5.46c-0.24 -2.52 -7.1 -74.38 -7.36 -76.94z" stroke-width="1"></path><path d="M211.16 40.72a4.96 4.96 0 0 0 4.98 -0.7 0.18 0.18 0 1 0 -0.18 -0.32 8.26 8.26 0 0 1 -1.12 0.24 17.3 17.3 0 0 1 -2.44 0.3l-1.18 0.12a0.18 0.18 0 0 0 -0.06 0.36zm9.3 5.54a10.24 10.24 0 0 1 0.54 -1.04 0.6 0.6 0 0 0 -1.06 -0.58c-0.2 0.36 -0.38 0.74 -0.56 1.12a0.6 0.6 0 0 0 1.08 0.5zm-12.6 9.86zm-5.68 82.42a8 8 0 1 0 16 0 8 8 0 1 0 -16 0zm8.44 -6.36a6 6 0 0 1 6.14 6 6.16 6.16 0 1 1 -12.3 0 6 6 0 0 1 6.16 -6zm11.72 -87.68a0.18 0.18 0 1 0 0.26 -0.26c-0.12 -0.2 -1.36 -2.82 -1.24 -2.62l-0.36 -0.66a0.18 0.18 0 1 0 -0.36 0 3.52 3.52 0 0 0 1.7 3.54zm-10.46 -2.68a11.86 11.86 0 0 0 -0.58 1.12 0.6 0.6 0 0 0 1.1 0.5 10 10 0 0 1 0.52 -1.04 0.6 0.6 0 1 0 -1.04 -0.58z" stroke-width="1"></path></g></svg>