<svg xmlns="http://www.w3.org/2000/svg" viewBox="0 0 400 400" id="Fatal-Error-1--Streamline-Milano.svg" height="400" width="400"><desc>Fatal Error 1 Streamline Illustration: https://streamlinehq.com</desc><g fill="#000000"><path d="M123.14 68.84c3.18 0.64 6.36 -0.44 9.56 -0.14 5.24 0.44 6.94 6.12 4.52 10.32 -3.08 5.34 -14 8.52 -13.06 15.82 0.76 6.7 9.74 6.32 13.78 9.8 3.38 2.94 1.46 6.66 1.46 10.42 0 4.62 3.8 4 4.48 6.66 1.16 4.42 -6.94 5.24 -8.98 7.86a7.8 7.8 0 0 0 -0.38 7.66c1.4 3.66 4.4 6.76 3.82 10.96 -0.54 3.7 -2.94 7.14 -4 10.7 -1.68 5.4 -2.94 11.04 2.56 14.62 3.52 2.32 7.24 3.66 8.98 7.86 1.54 3.86 0.86 7.76 0.24 11.72a36.2 36.2 0 0 1 -2.76 10.72c-0.24 0.42 0.38 1 0.78 0.56a54.98 54.98 0 0 0 8.44 -18.78c2.4 -8.5 -0.58 -12.64 -3.2 -20 -2 -7.48 -2.94 -16 0.4 -23.2s11.42 -10.22 16.22 -16.26 5.34 -11.18 -0.3 -16.2c-6 -5.44 -10.58 -3.02 -12.58 -7.34a6 6 0 0 1 2 -7.52c5.02 -3.48 12.6 -0.96 15.34 -7.82a10.48 10.48 0 0 0 -0.46 -8.52c-1.64 -3.28 -4.58 -5.02 -7.12 -7.54 -2 -2 -3.68 -5.16 -1.6 -7.66 1.2 -1.4 3.14 -2 4.44 -3.28 5.36 -5.82 -0.88 -17.34 -9.7 -21.08a21.56 21.56 0 0 0 -10.46 -0.96c-4.34 0.28 -8.44 -0.78 -12.74 -0.82a14.96 14.96 0 0 0 -14.18 9.64c-2.28 5.12 -3.34 12 -0.92 17.26a7.58 7.58 0 0 0 5.42 4.54zm-2.42 -24.36a13.24 13.24 0 0 1 9.76 -6.18c4.28 -0.48 8.44 0.92 12.72 0.82s8.68 -1 12.88 1.02c6.74 3.22 13.58 13.28 9.22 19.06 -1.84 2.4 -5.6 2.88 -6 6.36 -0.7 6.62 9.38 8.54 10.7 16.44a8.3 8.3 0 0 1 -6.5 9.68c-2.8 0.72 -6 0.78 -8.44 2.22 -4.54 2.62 -4.84 9.74 0.34 11.82 2.84 1.16 5.54 1.46 8.14 3.38 9.3 6.82 4.7 15.52 -4.44 22.34a43.1 43.1 0 0 0 -7.52 6.36c-4.2 5.06 -5.12 12 -4.54 18.34 1.36 14.82 7.88 17.4 4.64 29.52a58.6 58.6 0 0 1 -6.32 14.76 64.76 64.76 0 0 0 2.16 -14.96c-0.66 -9.74 -7.44 -10.38 -11.52 -13.74 -6 -4.92 0 -15.06 2.22 -20.5 3.64 -8.96 -4.76 -12.16 -3.66 -19.02 0.72 -4.48 6 -4.14 8.58 -6.84A4 4 0 0 0 144 120c-1.14 -1.34 -3.02 -1.84 -3.56 -3.72a14 14 0 0 1 0.38 -5.68 6.96 6.96 0 0 0 -2.34 -6.6c-4 -3.48 -15.68 -3.86 -13.36 -11.64 1.44 -4.86 7.52 -7.32 10.94 -10.7s4.68 -9.32 0.58 -12.5c-5.4 -4.2 -13.88 2.42 -18 -4.62 -3.32 -5.78 -1.4 -14.76 2.08 -20.06zM277.02 106c-0.38 0.18 -0.22 1.06 0.2 0.96a1.68 1.68 0 0 1 2 0.38c0.2 0.12 0.5 0 0.38 -0.38s-1.18 -1.8 -2.58 -0.96zm0 -4.3a0.38 0.38 0 0 0 -0.48 -0.34c-0.44 0 -1.02 0.38 -1.36 0s-0.1 -0.92 0 -1.3a14.8 14.8 0 0 0 -0.14 -3.86 0.16 0.16 0 0 0 -0.3 0 27.82 27.82 0 0 1 0 3.56c-0.14 0.82 -0.42 2 0.48 2.42s1.8 0.18 1.8 -0.48zm1.44 -3.34c0 0.34 0.64 0.52 0.64 0a14.26 14.26 0 0 0 -0.3 -1.44c-0.12 -0.36 -0.52 -0.22 -0.52 0s0.18 1.44 0.18 1.44zm-6.66 -0.86a5.86 5.86 0 0 0 0.34 1.58c0.26 0.26 0.6 -0.12 0.48 -0.34s-0.24 -1.2 -0.24 -1.34 -0.66 -0.18 -0.58 0.1zm0.78 -4.1a1.44 1.44 0 0 0 -2.22 1 0.24 0.24 0 0 0 0.44 0.16c0.76 -1.26 1.54 -0.54 1.54 -0.54s0.52 -0.44 0.24 -0.62zm17.52 47.42a174 174 0 0 0 -30 -0.88c-0.44 0 -1.2 14.62 1.26 20.32 1.1 2.6 4.14 3.12 6.76 3.52a67.88 67.88 0 0 0 21.4 -0.16 0.34 0.34 0 0 0 0.3 -0.28 57.6 57.6 0 0 0 0.58 -22.2 0.54 0.54 0 0 0 -0.3 -0.32zm-1.02 22a66.18 66.18 0 0 1 -19.06 0.34c-2.5 -0.34 -5.78 -0.52 -7.52 -2.6a8.54 8.54 0 0 1 -1.36 -4 78.6 78.6 0 0 1 -0.72 -15.76 144.68 144.68 0 0 1 29.28 0.86 58.22 58.22 0 0 1 -0.62 21.14z" stroke-width="1"></path><path d="M282 147.14c-1.2 -0.2 -12.64 -0.2 -15.2 -0.24a0.24 0.24 0 0 0 0 0.48 88.16 88.16 0 0 0 15.24 0.28c0.28 -0.04 0.34 -0.48 -0.04 -0.52zm-0.44 7.76c-5.12 1.68 -12.98 -0.48 -14.18 -0.72 -0.26 0 -0.44 0.34 -0.2 0.42 2.22 1.02 9.5 2.9 14.52 0.88 0.3 -0.1 0.1 -0.64 -0.14 -0.58zm80.26 194.16c0 -0.3 -0.44 -0.16 -0.44 0.1a22.72 22.72 0 0 0 6.28 13.4c0.18 0.14 0.52 0 0.34 -0.28a28.48 28.48 0 0 1 -6.18 -13.22z" stroke-width="1"></path><path d="M384.3 349.58c-1.02 -0.28 -11.72 -0.62 -16.46 -16.3 -0.7 -2 -3.56 -1.58 -5.88 -2a63.78 63.78 0 0 0 -18.62 -0.66c-3.88 0.34 -12.62 1.3 -13.06 5.16a44 44 0 0 1 -18 14.8 0.26 0.26 0 0 0 0.18 0.48c6.18 -2.22 15.78 -9.7 17.9 -14.42 0.14 1.78 2.22 2.56 3.14 3a57.76 57.76 0 0 1 -10.24 16.98 0.2 0.2 0 0 0 0.3 0.28 42.9 42.9 0 0 0 10.28 -17.12 45.64 45.64 0 0 0 25.76 0.76c0.86 -0.28 6.8 -2.26 8 -5.54a18.78 18.78 0 0 0 16.56 15.2 0.28 0.28 0 0 0 0.14 -0.62zm-18.14 -13.58c-6.34 5.04 -16.24 5.54 -24.26 4.68a24.84 24.84 0 0 1 -8.3 -2c-0.96 -0.48 -2.32 -1.2 -2.5 -2.4a2 2 0 0 1 0.52 -1.6c3.34 -3.8 19.6 -4 25.28 -3.52 1.88 0.2 3.76 0.58 5.64 0.82a13.62 13.62 0 0 1 4 0.62c1.46 0.72 0.58 2.7 -0.38 3.4zm-12.84 -48.36c2.26 -0.46 3.64 -2.9 2.14 -4.52a8 8 0 0 0 -5.56 -1.8c-3.5 0 -8.58 0.66 -7.08 3.82s8.3 2.96 10.5 2.5zm-3.8 -5.44a8.56 8.56 0 0 1 4.78 1.02c2 1.26 0.76 3.24 -1.06 3.7a12.88 12.88 0 0 1 -3.62 0.2c-0.96 0 -4.88 0 -6 -2.22s3.28 -2.78 5.9 -2.7zm-128.4 -11.2c-10.54 -0.54 -11.82 6.5 -6 6.28 6.8 -0.3 9.66 -3.82 8.44 -5.26a3.24 3.24 0 0 0 -2.44 -1.02zm-4.44 5.4c-1.06 0.14 -3.36 0.16 -4 -0.66s0 -2.18 2.14 -3.1a15.5 15.5 0 0 1 7.04 -0.86c0.52 0 1.3 0.24 1.4 0.86 0.22 1.64 -4.46 3.52 -6.58 3.76zm-65.32 1.6a6.2 6.2 0 0 1 -4 0.64 0.26 0.26 0 0 0 -0.14 0.48 5.38 5.38 0 0 0 4.54 -0.54c0.24 -0.24 -0.16 -0.72 -0.4 -0.58zm-82.82 42.6A36.14 36.14 0 0 1 60 340a0.24 0.24 0 1 0 0.34 0.34 30.48 30.48 0 0 0 8.78 -19.84c0 -0.2 -0.54 -0.2 -0.58 0.1zm30.28 3.18a0.26 0.26 0 0 0 -0.52 0.14 19.32 19.32 0 0 0 6.84 11.14c0.24 0.2 0.54 -0.18 0.34 -0.42a25.82 25.82 0 0 1 -6.66 -10.86z" stroke-width="1"></path><path d="M118.84 316.16a16.8 16.8 0 0 1 -14.84 -9.12 2.16 2.16 0 0 0 -0.96 -2.42 64.94 64.94 0 0 0 -12.88 -0.62 74.56 74.56 0 0 0 -18.9 3.76c-2 0.68 -5.02 1.6 -5.16 4a24.56 24.56 0 0 1 -12.7 15.14c-0.24 0.1 0 0.54 0.2 0.44a21.7 21.7 0 0 0 12.92 -14c2.42 4.1 17.42 3.46 23.74 2A29.34 29.34 0 0 0 102 310a5.72 5.72 0 0 0 1.68 -2.18 15.5 15.5 0 0 0 15.04 8.92c0.42 -0.1 0.46 -0.58 0.12 -0.58zm-17.32 -6.94a28.66 28.66 0 0 1 -10.7 5.24c-6.46 1.74 -23.2 2 -23.88 -2.4 -0.34 -2.18 3.04 -2.94 4.64 -3.48a74.34 74.34 0 0 1 25.8 -3.8c8.88 0 4.92 3.8 4.14 4.44zm-63.38 16.4c-0.38 0 -0.28 0.72 0.1 0.66s0.78 0.72 0.38 1.12c-1.44 1.68 -4.68 0.44 -4.82 0.14s0 -0.72 0.38 -0.54 0.5 -0.24 0.26 -0.38a0.8 0.8 0 0 0 -1.16 0.82c0 1.06 4.68 2.76 6.32 -0.28a1.26 1.26 0 0 0 -1.46 -1.54zm50.5 17.46a5.8 5.8 0 0 1 -3.56 0.18c-0.28 0 -0.48 0.4 -0.2 0.48 0.64 0.3 3.38 0.58 4 -0.18 0.16 -0.14 0.06 -0.64 -0.24 -0.48zM164.72 340c-3.16 -0.26 -9.66 0.84 -8.24 3.66 0.74 1.5 3.66 2.22 5.34 2a7.38 7.38 0 0 0 5.32 -2.66c0.7 -1.28 -0.12 -2.88 -2.42 -3zm-2.18 4.72a7.86 7.86 0 0 1 -4.62 -0.92c-1.84 -1.3 0.52 -2.32 2.74 -2.74 4.26 -0.62 6 0.44 6 1.2 -0.34 1.48 -3.3 2.3 -4.12 2.4zm125.76 -283.36c12.22 2.86 14.72 9.46 16.22 12.74a0.26 0.26 0 0 0 0.48 -0.2c-0.82 -2.74 -4 -10.94 -16.74 -12.88 -0.14 -0.04 -0.14 0.3 0.04 0.34zM170.94 345.54c1.36 0 2.46 0.52 2.46 1.16s-1.1 1.14 -2.46 1.14 -2.46 -0.5 -2.46 -1.14 1.1 -1.16 2.46 -1.16zm15.54 -53.94c-1.02 0 -1.84 0.48 -1.84 1.02s0.82 1 1.84 1 1.82 -0.48 1.82 -1 -0.82 -1.02 -1.82 -1.02zm100.08 -145.1a0.74 0.74 0 0 0 0 1.46 0.74 0.74 0 0 0 0 -1.46zm-0.18 7.38a0.68 0.68 0 0 0 0 1.36 0.68 0.68 0 0 0 0 -1.36zm-7.96 -60.48c-0.3 0.14 0 0.62 0.28 0.66s0.78 -0.72 1.54 0.54a0.24 0.24 0 0 0 0.44 -0.14 1.5 1.5 0 0 0 -2.26 -1.06z" stroke-width="1"></path><path d="M390 286a11.7 11.7 0 0 0 -2.6 -2.84c-1.02 -0.78 -6.86 -4.16 -20.4 -7.58 -9.5 -2.42 -10.18 -7.24 -14.48 -7.72 -2.5 -0.3 -4.34 1.64 -6.6 2.32 -2.66 0.76 -4 -1.64 -5.56 -3.24 -2 -2 -3.82 -1.76 -6.4 -1.02 -3.56 1.12 -4.76 1.66 -8.16 -0.18 -2 -1.12 -4 -3.22 -6.48 -2.6 1 -13.08 4.12 -62.92 3.06 -68 0.24 -0.34 3.12 -5.46 -0.98 -7.72a11.14 11.14 0 0 0 3 -7.04c0.34 -2.9 -1.2 -20.5 -1.4 -21.76a5.02 5.02 0 0 0 3.76 -2.62 4.12 4.12 0 0 0 -0.5 -4.2c1.64 -0.92 7.72 -4.82 10 -8.16 3.38 -4.78 7.04 -9.4 8.34 -15.2 2.7 -12.2 -4 -24 -11.32 -33.22a69.34 69.34 0 0 0 -6.76 -7.34c-2.36 -2.22 -6.76 -5.84 -8.26 -6.12 0.4 -2.22 0 -5.22 -2 -4.5 -0.7 -12 -11.08 -20.36 -22.76 -23.44 -19.5 -5.2 -44.92 5.68 -45.44 29.58a10.8 10.8 0 0 0 -2.32 0 71.18 71.18 0 0 0 -7.52 12c-8.6 17.82 -4.52 39.58 13.64 48.86a218.8 218.8 0 0 0 -3.56 34.36c-0.18 4.56 0.74 8.74 4.24 11.62 -2.44 0.72 -3.42 4.74 -0.3 7.32a556.64 556.64 0 0 0 -1.4 54.9c-6 -0.52 -11.66 -7.18 -16.24 -10.42 -6.14 -4.34 -14 -4.2 -21 -2.5 12 -8.54 21.48 -19.7 25.72 -27.4 0.28 -0.2 0.38 -0.62 0 -0.78 -25.58 -10.2 -54.5 -14.38 -81.24 -6.6 -0.32 0 -0.24 0.42 0.34 0.68 4 1.68 5.32 6.12 4.26 10.22 -0.98 3.62 -5.6 9.46 -5.6 9.5 -0.3 1.1 1.54 3.42 1.74 3.48 3.52 0.96 8.14 1.44 8 6.22 0 3.38 -3.86 9.4 -3.76 9.88a23.68 23.68 0 0 0 3.48 6.7c-7.32 2.2 -11.2 11.64 -20.88 2a0.44 0.44 0 0 0 -0.54 0 4.4 4.4 0 0 1 -6.6 -3.62c0 -0.3 -0.24 -0.44 -0.5 -0.4l-3.8 0.68a22 22 0 0 0 0.72 -5.02 0.42 0.42 0 0 0 -0.62 -0.34 117.86 117.86 0 0 0 -9.9 -9.84 33.3 33.3 0 0 0 8.2 -9.1 0.34 0.34 0 0 0 0 -0.3 0.18 0.18 0 0 0 0 -0.2 27.78 27.78 0 0 0 -9.6 -11.38 0.5 0.5 0 0 0 -0.34 0 102.82 102.82 0 0 0 -24.68 -1 28.66 28.66 0 0 0 -11.54 -15.42c-9.2 -6.14 -19.68 -6 -30.18 -4a51.78 51.78 0 0 0 -15.54 5c-0.92 0.54 -4.72 2.7 -4.2 4.26s3.62 -0.48 9.64 0.58c17.22 2.94 22.34 10.5 25.14 15.18 -2 0.64 -3.86 1.36 -5.74 2a20.58 20.58 0 0 0 -6.46 0 10.48 10.48 0 0 0 -2 4.82c-10 -0.52 -20.56 -0.76 -32.28 -1.06 -2 0 -2.88 1.74 0 2.52 9.54 2.4 21.4 6 31.16 8.14 0 0.88 -1.84 7.48 1.2 8.1 1.34 0.3 6.22 0.98 7 -0.58a0.76 0.76 0 0 0 0 -0.44 37.52 37.52 0 0 0 3.5 3.16c-2.84 4.54 -18.26 11.72 -34.94 5.44 -1.2 -0.48 -3.52 -2.36 -4.88 -2.16 -4.24 0.66 3.48 9.02 4.5 10 8.56 7.4 16 11.62 26.34 13.56a15.4 15.4 0 0 1 -6.72 2.6 0.46 0.46 0 0 0 -0.3 0.54c0.34 1.34 2 6.98 -1.58 7.86a26.68 26.68 0 0 1 -7.3 0.92c-2 -0.1 -4.44 -1.12 -6.46 -0.64 -1.34 0.34 -1.82 1.5 -2.7 2.42 -3.76 4 -9.6 0 -14.18 0.48A16.18 16.18 0 0 0 10 291.32a0.22 0.22 0 0 0 0.28 0.34A33.52 33.52 0 0 1 16 287.8c3.34 -1.56 6.42 -0.64 9.8 0s6.66 0.58 8.88 -2.26c2.78 -3.5 5.66 0.64 14.36 -1.44 2 -0.48 3.38 -0.44 3.72 -2.56a16.46 16.46 0 0 0 -0.2 -6.18 15.82 15.82 0 0 0 7.44 -3.14 56 56 0 0 0 23.16 -0.88 2.16 2.16 0 0 0 -0.58 1.88c0.48 1.74 4.76 2.6 6.12 3.1 4.44 1.54 11.24 4.48 15.34 0.9a64.12 64.12 0 0 0 4.48 -5.4c1.3 -1.4 2.12 -0.28 3.62 0.4a6.54 6.54 0 0 0 5.84 0.14c1.74 -0.96 2 -2.76 4.54 -2.8 2.88 0 5.1 2.32 8.14 1.5 0.54 -0.16 0.3 -0.88 -0.24 -0.78 -3.28 0.62 -6.32 -2.6 -9.54 -1.34 -1.8 0.66 -2.46 2.64 -4.44 3.08 -2.36 0.52 -4.64 -0.86 -6.62 -2a0.42 0.42 0 0 0 -0.48 0c-4 3.24 -5.1 9.06 -12 7.82a54.8 54.8 0 0 1 -8 -2.18c-1.46 -0.48 -8.2 -1.4 -4.68 -4.82a21.3 21.3 0 0 0 11.72 -10.12 72.7 72.7 0 0 0 26.68 5.78c0.24 0 4.72 -1.6 11.18 -16 1.26 -0.14 2.52 -0.28 3.72 -0.48a5.22 5.22 0 0 0 4 4.58c1.1 0.24 2.18 -0.44 3.14 -0.28 1.34 0.18 2.56 2 3.72 2.78 6.94 4.74 12 -3.22 18.42 -4.96a20.38 20.38 0 0 0 2.22 2.84 9.54 9.54 0 0 0 5.88 0.78c4.14 -0.24 25.76 -7.72 36.7 -15.14 5.08 -0.82 9.86 -1.84 15.02 -0.98s8.58 4 12.34 7.34c3.14 2.74 7.38 5.74 11.62 6 0.78 31.12 4 53.7 5.16 68.8a10.42 10.42 0 0 0 5.32 1.54c0 0.38 0 3.48 0.14 3.82 -4.58 1.1 -8 5.4 -6.28 6.4 0.26 0.14 12.74 0 12.88 -0.14 0.58 -0.38 0.22 -6.6 0 -6.84a16 16 0 0 0 0 -3.24c1.58 -0.1 2.64 -0.24 2.64 -0.24s10.34 -51.3 12.56 -72.28c-0.38 -4.4 -2 -28 -1.9 -30.86 0 -0.24 0.44 -0.34 0.48 0 0.24 1.64 2.4 23.5 3.24 30.46 1.6 13.54 10.94 63.08 13.8 75.32 0 0.24 0.96 0.38 2.3 0.44 0 0.38 0.4 2.66 0.4 2.8 -4.88 2.22 -9.26 6 -7.48 6.84 0.24 0.16 12.74 0 12.88 -0.14 0.58 -0.38 0.26 -6.62 -0.1 -6.8 0 -0.1 0.2 -2.26 0.14 -2.76l4.58 -0.18s7.48 -61.5 7.54 -61.84c2.36 -0.44 4.38 1.2 6.32 2.32a7.24 7.24 0 0 0 6.56 0.96c2.3 -0.64 5.02 -2 7.18 -0.3 1.6 1.3 2.56 3.58 4.72 4 3.52 0.8 6 -3.76 10 -1.88 2.74 1.3 3.84 4 10.32 6.42 11.14 4 20.24 4.52 25.1 10.8 0.08 0.38 0.66 0 0.48 -0.4zM130.42 255.82a40.62 40.62 0 0 1 -7.24 9.74c-18.14 0.32 -47.04 -13.74 -58.9 -24.56 0 -0.24 0.26 -4.2 0.26 -4.34 8.68 2 17.74 3.62 26.28 2.26 2.66 -0.42 5.2 -1.3 5.6 -3.9 0.62 -4.34 -2.8 -6.28 -5.84 -6.7 -8.5 -1.22 -16.6 -2 -24.74 -2.6 0 -1.26 0.34 -4.3 0.28 -4.54a120.82 120.82 0 0 1 29.14 -7.04 11.04 11.04 0 0 1 6.6 13.16c-0.12 0.5 0.32 0.42 2.22 0.96a10 10 0 0 0 9.26 16.5 10.22 10.22 0 0 0 8.4 -11.62c-0.96 -7.52 -11.22 -11.86 -17.12 -5.4 -1.74 -0.38 -1.6 -0.44 -1.7 -1.7 -0.24 -2.78 0 -5 -1.54 -7.62a10.7 10.7 0 0 0 -5.02 -4.42 153.26 153.26 0 0 1 26.58 0.24 36.64 36.64 0 0 1 9.42 10.76 38.58 38.58 0 0 1 -8.54 9.32 0.44 0.44 0 0 0 0 0.66c3.66 3.28 7.04 6.82 10.62 10.18a36 36 0 0 1 -4.02 10.66zM112 237.44c0.5 0.18 0.68 -0.58 0.2 -0.78 -5 -1.88 -1.84 -5.42 -2.12 -7.1 0.68 0 1.36 0.14 2 0.3a6.92 6.92 0 0 1 4.34 3.72c0.14 0.24 0.6 0 0.48 -0.2a6.38 6.38 0 0 0 -2.98 -3.56 32.68 32.68 0 0 0 -6.66 -1.5 7.18 7.18 0 0 1 6.84 -0.62 7.8 7.8 0 0 1 4.26 9.2 7.2 7.2 0 0 1 -9.6 4 7.28 7.28 0 0 1 -2.18 -12 6 6 0 0 1 1.8 0.52c1.54 1.12 0 2.66 -0.1 4 -0.28 2.32 1.72 3.28 3.72 4.02zm-3.42 4a7.78 7.78 0 0 0 10 -3.62 8 8 0 0 0 -4.28 -10.32 7.4 7.4 0 0 0 -7.44 0.82c-0.48 0 -0.96 -0.2 -1.44 -0.34a9.34 9.34 0 0 1 15.82 6.18 9.76 9.76 0 0 1 -7.9 10.26c-9.8 0.48 -14 -9.38 -8.46 -16 0.3 0 1.16 0.3 1.36 0.34a7.62 7.62 0 0 0 2.28 12.68zm106.42 -36.18a0.34 0.34 0 0 1 0.48 -0.16 0.38 0.38 0 0 1 0.2 0.52c-3.74 8.58 1 18.88 7.54 23.52a0.46 0.46 0 0 1 -0.42 0.8 16.72 16.72 0 0 1 -7.82 -9.78 19.62 19.62 0 0 1 -0.04 -14.9zm-40 50.16a8.9 8.9 0 0 1 -5.34 -0.92s-4 -6.56 -5.84 -10c2.16 -3.04 4.78 -8 3.62 -11.82 -1.06 -3.44 -8.16 -4.78 -8.44 -4.78s-1.46 -1.74 -1.26 -2.84a21.76 21.76 0 0 0 6.12 -10.82c-0.1 -2.5 5.7 -0.24 9.8 -0.34 1.88 0 1.64 0.54 2.16 1.12a12.56 12.56 0 0 0 4.18 19.8 14.32 14.32 0 0 0 15.4 -2c4.74 -4.3 4.62 -13.02 1.28 -17.22 -5.02 -6.4 -14.76 -6.22 -20.2 -1.14a3.1 3.1 0 0 0 -0.98 -1.22 12 12 0 0 0 -3.18 0c-6.38 -0.26 -7.38 -2 -9.4 -4.82a7.76 7.76 0 0 0 -3.38 -3.42 125.06 125.06 0 0 1 51.8 -1.16c-1.68 0.82 -2 3.24 -2.36 5.4 -1.78 13.8 7.18 24.32 11.68 23.78 -14.48 13.54 -42.02 22.3 -45.72 22.4zm12.4 -32a26.56 26.56 0 0 1 -8.44 -5.78 10.28 10.28 0 0 1 16 1.5 8.6 8.6 0 0 1 -3.66 12 11 11 0 0 1 -12.54 -2.88 8.38 8.38 0 0 1 -0.24 -10 22.26 22.26 0 0 0 8.78 5.6c0.1 0.02 0.28 -0.36 0.04 -0.52zm-8.92 5.08a11.48 11.48 0 0 0 13.52 2.8 9.32 9.32 0 0 0 2.84 -13.06 10.72 10.72 0 0 0 -16.3 -0.98c-0.58 -0.62 -1.7 -2 -1.74 -2.12a13.56 13.56 0 0 1 19.48 0.82c3.28 5.08 2.56 14.14 -3.38 17.8a13.2 13.2 0 0 1 -17.8 -4.2 11.66 11.66 0 0 1 1.12 -13.78c0.14 0.18 1.34 1.64 1.78 2.12a8.58 8.58 0 0 0 0.42 10.52zM326 155.76c-0.64 1.2 -4.36 4 -9.32 0.16a38.56 38.56 0 0 1 -4.24 -3.58c-5.26 -5.16 -12.7 -18 -9.8 -31.3 0 0 0.72 -0.4 0.96 -0.54a17.86 17.86 0 0 0 4 0.58c-1.88 1.36 -2 4.24 -1.78 6.42 0.54 9.18 3.68 18.34 11.28 23.3 5.12 3.38 8.2 1.44 8.54 1.26a3.3 3.3 0 0 1 0.36 3.7zm-21.44 -42.34a29.28 29.28 0 0 0 11 -11.82c7.52 19.68 -8.58 18.86 -11.28 18.38 0.9 -0.78 2.98 -4.68 0.28 -6.56zm14.18 -31.08c11.24 8.78 20 21.04 22.34 26.5C353.04 136.52 324 152 323.86 152c-4.32 0.8 -9.14 -3.16 -11.78 -6.72 -6.18 -8.32 -7.38 -23.48 -3.08 -24.2a10.92 10.92 0 0 0 8.54 -4.44 10.12 10.12 0 0 0 1.06 -8.16 69.24 69.24 0 0 0 -8 -18.76c-0.06 -0.32 2.12 -7.22 8.14 -7.38zM316.48 78a0.64 0.64 0 0 1 1 0.38 10.64 10.64 0 0 1 0 3.28 9.54 9.54 0 0 0 -5.48 3.4c-0.12 -0.2 -4 -4.18 -2.68 -7.48a2.44 2.44 0 0 1 3.38 -0.92 8.5 8.5 0 0 1 2.94 3.08c0.2 0.26 0.88 0.06 0.84 -1.74zm-64.2 -7.62c6.36 -12.4 23 -18.82 36.66 -16.74s26.52 11.2 26.52 24.54a4.84 4.84 0 0 0 -5.16 -2.5c-4 1.24 -1.04 8 1.2 9.88a9.22 9.22 0 0 0 -1.4 4.3 99.66 99.66 0 0 1 5.16 11 34.78 34.78 0 0 1 -20.82 15.82c0.18 -1.4 0.76 -11.62 0.76 -13.02 2.36 1.64 6.56 -6 7.58 -10 1.46 -6 0 -7.06 -0.68 -10 -0.34 -1.5 -0.34 -3.04 -0.68 -4.54a8.86 8.86 0 0 0 -8.78 -6.56c-2.46 0.14 -4.82 1.3 -7.28 1.26 -4 0 -8.66 -4 -14.66 -2 -3 1.06 -3.04 6.76 -3.14 7.04 -0.24 0.72 -1 1.12 -1.64 1.54a7.4 7.4 0 0 0 -2.56 8 11 11 0 0 0 5.6 6.42c0 0.66 0.24 6 0.58 8 1.34 7.62 6.36 10.66 10.42 10a15.64 15.64 0 0 1 0.2 4.42c-2.32 -0.32 -17.04 -3.08 -25.62 -15.52 0.14 -1.74 2 -12 0.88 -15.78a9.86 9.86 0 0 0 2 -1.16 2.7 2.7 0 0 0 1.4 -2 1.58 1.58 0 0 0 -2 -1.54 7.7 7.7 0 0 0 1.16 -3.86c-0.3 -4.3 -5.48 -5.84 -8.5 1.22a29.38 29.38 0 0 1 2.8 -8.16zm28.3 42a0.34 0.34 0 0 0 -0.38 -0.24 8.36 8.36 0 0 1 -8.2 -4.64 23.18 23.18 0 0 1 -2.12 -10.84c0 -2 -0.86 -9.46 2.16 -12.22 0.5 -0.42 1.16 0.36 1.56 0.88a13.16 13.16 0 0 0 7.66 5.02c6 1.26 5.76 5.36 6.66 5.58s1 -1.38 2.12 -2.6c1.62 -1.76 3.9 -1.44 4.54 2.36 0.14 0.82 -0.68 19.54 -0.72 21.04 -1.5 0.34 -3.62 1.74 -13.18 0.52a14.74 14.74 0 0 0 -0.1 -4.74zm-13.16 5.68c-1.7 0.74 -12.74 2 -12.92 -14.94 1.2 2.94 8.68 8.88 13.4 11.18a3.32 3.32 0 0 0 -0.48 3.88zM254 100.92a27.5 27.5 0 0 1 -4.82 -16.7c0.52 0 5.02 1.8 5.64 2 -0.14 0.14 0.68 2.36 -0.82 14.7zm-2.74 -24c0.9 -1.3 2.46 -2.84 4.18 -2.22a3.24 3.24 0 0 1 1.84 3.24 8.8 8.8 0 0 1 -2 4.52c-0.24 0.34 0.28 0.72 0.56 0.44a2.88 2.88 0 0 1 1.5 -0.92c0.68 0 0.88 0.88 0.64 1.36 -0.54 1.06 -3.28 2.16 -3.34 2.22a24 24 0 0 0 -5.64 -2.18 9.28 9.28 0 0 1 2.22 -6.48zM242 90.22c1.3 -2.18 2.8 -4.26 4.16 -6.38a14 14 0 0 0 2 0.3 29.84 29.84 0 0 0 5.6 18.22c-0.88 7.54 2.16 14.14 6.74 16.32 -3.46 8 -8 24.78 -8 24.74 -19.02 -9.84 -22.84 -33.32 -10.5 -53.2zm11.06 100.32a8.78 8.78 0 0 0 0.9 0.54 6 6 0 0 0 -0.42 6.22 3.8 3.8 0 0 1 -0.44 -6.76zm1.54 7.34a5.74 5.74 0 0 1 -0.14 -6.42s0.76 0.86 6.26 1.74a6.84 6.84 0 0 0 0.62 6.56 23.26 23.26 0 0 1 -6.7 -1.88zm12.78 128.64a14.46 14.46 0 0 0 -5.02 0.34c0 -0.24 -0.2 -3.04 -0.24 -3.46h5.3c0.1 0.6 0 2.6 0 3.12zM262 199.86a7.54 7.54 0 0 1 -0.52 -6.62c2.26 0.3 4.58 0.44 6.9 0.58a8 8 0 0 0 0.28 6.8 50.3 50.3 0 0 1 -6.66 -0.76zm7.24 0.86a8.38 8.38 0 0 1 -0.14 -6.8s6 0.38 8.88 0.48a8.28 8.28 0 0 0 -0.54 6.66c-2.64 -0.04 -5.44 -0.14 -8.14 -0.34zm8.88 0.38a7.68 7.68 0 0 1 0.76 -6.64c3.04 0.14 6 0.24 9.08 0.24a9.44 9.44 0 0 0 0.14 6.5c-3.02 0 -9.64 -0.1 -9.92 -0.1zm10.56 0a8.76 8.76 0 0 1 0 -6.5c3 0 9.36 -0.48 9.6 -0.48 0 0.38 0.2 6 0.3 6.6 -0.34 0.14 -7 0.44 -9.84 0.48zm-37 -13.06c-2.88 -4.56 -2.56 -10.14 -2.22 -15.06 2.56 -34.72 11.82 -54 11.86 -54.12a11.12 11.12 0 0 0 6.42 0c0.64 0.86 14.76 8.44 34 2.46 -2.54 10.34 0.86 23.04 10.42 32.12 2.66 2.5 6.18 5.64 10 5.3 0.3 0 1.22 22.48 0.2 25.04a7.78 7.78 0 0 1 -4.92 5.4c-23.44 6.96 -61.92 4.92 -65.7 -1.04zm54.5 140.56a28.66 28.66 0 0 0 -4 0c0 -0.14 -0.48 -2.26 -0.54 -2.6h4.74a17.22 17.22 0 0 1 -0.14 2.7zm1.4 -128.84c-2.78 0.42 -5.64 0.72 -8.48 0.92v-6.66c2.5 -0.3 7.9 -1.12 8.1 -1.12a9.4 9.4 0 0 1 0.44 6.96zm8.84 -1.88c-0.38 0.14 -5.84 1.44 -8.26 1.82 0.4 -1.16 1.16 -4.82 -0.28 -6.9 2.42 -0.38 7.18 -1.68 7.24 -1.72a5.2 5.2 0 0 1 1.36 6.92zm-0.42 -7.04a17.18 17.18 0 0 0 4.68 -2.66 4.28 4.28 0 0 1 1.2 6 8.52 8.52 0 0 1 -4.52 3.42 5.4 5.4 0 0 0 -1.36 -6.76z" stroke-width="1"></path></g></svg>