<svg xmlns="http://www.w3.org/2000/svg" viewBox="0 0 400 400" id="High-Five-2--Streamline-Milano.svg" height="400" width="400"><desc>High Five 2 Streamline Illustration: https://streamlinehq.com</desc><g fill="#000000"><path d="M116.32 170.94A7.62 7.62 0 0 1 119.04 168c1.36 -0.96 1.54 -1 1.48 -1.28s-1.7 -0.22 -2 -0.1A4.12 4.12 0 0 0 115.56 170c-0.04 1.54 0.44 1.62 0.76 0.94zm74.84 -32.64a56 56 0 0 1 1.62 -8.3c0.28 -1.36 1.04 -3.74 2.44 -3.86s1.8 1.54 1.86 2.98a5.32 5.32 0 0 1 1.22 -2 1.4 1.4 0 0 1 2.36 0.6 4.64 4.64 0 0 1 0.22 1.12 2.66 2.66 0 0 1 1.38 -1.06c0.92 -0.3 1.6 0.36 1.88 1.26 0.68 2 -0.96 6.92 -1.14 11.8 -0.24 7.08 1.52 6.62 0 12.74 -0.66 2.48 -1.26 3.46 -1.74 6 0 0.1 -0.32 -0.18 -0.32 -0.32 0.62 -3.44 1.78 -4.94 2 -8.96a47.62 47.62 0 0 0 -0.66 -5.56c-0.62 -6 0.7 -9.56 1 -14.14 0 -1.8 -0.52 -2.6 -1.74 -1.3s-0.72 2.48 -2 7.56a24.3 24.3 0 0 1 -0.46 3.14c-0.32 0.6 -1 0.18 -0.9 -0.38 0 -0.2 1.02 -4.7 1.04 -4.76 0.22 -1.06 0.34 -2.38 0.6 -3.58a8.46 8.46 0 0 0 0 -3.32c-0.22 -0.58 -0.56 -0.52 -1 0 -1.36 1.78 -2 6.38 -3.22 11.38 -0.12 0.54 -1.08 0.3 -0.92 -0.28 0.66 -2.36 2.14 -8.98 1.36 -11.48 -0.2 -0.54 -0.64 -0.86 -0.96 -0.52a7.52 7.52 0 0 0 -1.26 3c-2.32 9.54 -1.42 8.86 -2.28 12 0 0.42 -0.28 0.76 -0.68 0.6s-0.32 -0.42 -0.32 -0.92c0 -1.56 0.32 -6.44 -1.38 -6 -1.02 0.12 -1.48 2.36 -1.62 3.36a14.14 14.14 0 0 0 0.46 6.24A29.36 29.36 0 0 0 190.5 150a36.66 36.66 0 0 1 -1.3 4.38c-0.14 0.28 -0.6 0.46 -0.52 0 0.18 -0.92 1.18 -3.58 1.18 -4.34 -0.22 -0.44 -1.3 -2.16 -2.28 -4.38s-1.24 -7.64 0.18 -9.7c0.92 -1.36 2.58 -1.5 3.28 0.78 0 0.54 0.08 1.04 0.12 1.56zm122.24 32.14c0.34 0.42 -2 2.76 -2.44 3.12a15.88 15.88 0 0 0 -3 2.66 1.86 1.86 0 0 0 0.18 2.24 5.76 5.76 0 0 0 0.86 0.98c0.3 0.22 -0.1 0.64 -0.3 0.42a5.38 5.38 0 0 1 -1.1 -0.92c-1.34 -1.58 -0.8 -3.16 0.66 -4.58a52.44 52.44 0 0 0 4.18 -4 0.62 0.62 0 0 1 0.96 0.08zm6.22 0.9a13.76 13.76 0 0 1 6.8 0.48c0.28 0.2 0.62 -0.28 0.3 -0.52a11 11 0 0 0 -7.5 -1.4c-0.88 0.2 -0.52 1.78 0.4 1.44zm-7.74 -4.5a4.7 4.7 0 0 0 -2.26 -2.7 6 6 0 0 0 -3.14 -0.92c-0.32 0 -0.38 0.56 0 0.58 1.02 0 3.76 2 4 3.32a0.72 0.72 0 1 0 1.4 -0.28zm-0.54 18.18c-0.48 0.6 -7.22 2 -6.92 -4.34a0.34 0.34 0 1 1 0.66 0 3.64 3.64 0 0 0 1.82 3.22 5.7 5.7 0 0 0 3.7 -0.2 0.78 0.78 0 0 1 0.74 1.32zm9.22 -20.46a22 22 0 0 1 4.58 2 8.66 8.66 0 0 1 2.52 2.3 0.34 0.34 0 0 0 0.58 -0.34 13.3 13.3 0 0 0 -7.24 -5.68 0.84 0.84 0 0 0 -0.44 1.72zM219 106.46c0 -0.22 3.82 -7.04 6 -11.66 0.44 -0.92 7.34 -16 10.62 -23.9 2.34 -6 4.68 -12.72 4.54 -12.3a0.64 0.64 0 1 0 -1.18 -0.52 272.32 272.32 0 0 0 -14.12 29.5c-4 9.3 -7.18 18.58 -7.1 18.38a0.72 0.72 0 0 0 0.32 0.92 0.74 0.74 0 0 0 0.92 -0.42zM194 106.22c-0.9 -5.08 -9.58 -35.52 -10.14 -37.5C182.9 66 180 56.36 180 56.36a0.28 0.28 0 1 0 -0.54 0.16s4 15.8 4.5 17.56c2 7.16 9.58 32.44 9.52 32.24a0.3 0.3 0 0 0 0.36 0.22 0.32 0.32 0 0 0 0.16 -0.32zm-64.74 -5.38c8.56 4.98 11.26 6.62 16.74 9.34 1.82 0.94 14.16 7.08 17.18 8.36 4.48 2 12 4.96 11.78 4.88a0.64 0.64 0 0 0 0.86 -0.32 0.68 0.68 0 0 0 -0.28 -0.88c-0.78 -0.4 -4.36 -2.72 -11.06 -6.4 -4 -2.24 -21.6 -11.02 -28.74 -13.78 -3.6 -1.5 -6 -2.4 -6 -2.4 -0.64 -0.38 -1.32 0.86 -0.48 1.2zM229.7 130c11.78 -2 32 -6.82 32.12 -6.9 2.42 -0.64 10.54 -3 10.54 -3 0.48 -0.1 0.44 -0.92 -0.16 -0.8a368.86 368.86 0 0 0 -42.62 9.86c-0.5 0.16 -0.4 1.12 0.12 0.84zM143.14 63.68c0 -0.26 0 -2.68 0.14 -2.96s0.42 -4.76 0.98 -4.82a0.46 0.46 0 0 1 0.48 -0.1 33.26 33.26 0 0 1 5.04 4.48 33.68 33.68 0 0 1 5.7 -0.54 0.86 0.86 0 0 1 0.76 0.98 9.42 9.42 0 0 1 -1.8 4.82 22.14 22.14 0 0 1 3.66 4.28 1.1 1.1 0 0 1 0.12 1.12c-0.3 0.64 -1.28 0.66 -2 0.74a40.74 40.74 0 0 1 -4.94 0 8 8 0 0 1 -0.42 0.82c-0.62 1.08 -1.52 2.46 -1.78 2.92a16.82 16.82 0 0 1 -2.22 2.28 0.94 0.94 0 0 1 -1.62 -0.34 15.16 15.16 0 0 1 -0.76 -2.5 27.08 27.08 0 0 1 -0.7 -4.14 6.68 6.68 0 0 1 -4.42 -1.52c-0.42 -0.36 -0.24 -0.82 0 -1.3a20.58 20.58 0 0 1 3.78 -4.22zm0.7 0c0 0.82 -2.9 2.82 -3.66 4.66a6 6 0 0 0 3.88 0.84c1.36 0 0.58 0.56 1.8 5.08 0.14 0.44 0.26 0.98 0.42 1.44a11.46 11.46 0 0 0 1.34 -1.46 36.42 36.42 0 0 0 2.26 -4 0.86 0.86 0 0 1 0.92 -0.64 45.78 45.78 0 0 0 5.28 0 10.22 10.22 0 0 0 -0.98 -1.16c-0.34 -0.32 -2.12 -2.24 -2.12 -2.24a0.86 0.86 0 0 1 -0.46 -1.02 8.46 8.46 0 0 1 0.9 -1.4 7.38 7.38 0 0 0 1.08 -2.72c-5.34 0.24 -4.9 0.78 -5.44 0.3 -1.62 -1.66 -3.08 -3.18 -4.24 -4.26a37.22 37.22 0 0 0 -0.98 6.58zm131.28 19.18c2.96 -4 4.36 -6.3 5.18 -5.28A25.78 25.78 0 0 1 282 82c0 0.2 0.58 2.34 0.76 2.84 1.6 0.9 6.22 3.16 5.18 4.5a5.52 5.52 0 0 1 -1.8 1.5 12 12 0 0 1 -2.5 0.96 26.7 26.7 0 0 1 -0.12 6.82 1.02 1.02 0 0 1 -1.6 0.68 14.98 14.98 0 0 1 -2.78 -1.74 36.48 36.48 0 0 1 -3.14 -3.28 30 30 0 0 1 -6.76 1.2 1 1 0 0 1 -0.88 -0.88 8.62 8.62 0 0 1 1.52 -3.4c0.26 -0.32 0.96 -1.46 1.48 -2.2a7.66 7.66 0 0 1 -2.46 -3.34c-0.18 -0.36 -0.54 -1.14 -0.4 -1.52s0.7 -0.64 1.28 -0.78a47.02 47.02 0 0 1 5.34 -0.5zm4.56 -4a34.54 34.54 0 0 0 -2.5 3.72c-1.12 1.56 -1.14 1.88 -1.68 1.84a40.16 40.16 0 0 0 -5.08 0.6 8 8 0 0 0 2.66 3.24 0.9 0.9 0 0 1 0 1.4 33.18 33.18 0 0 0 -2.58 4 42.22 42.22 0 0 0 5.5 -1.26 0.9 0.9 0 0 1 1.04 0.44 30 30 0 0 0 3.16 3.32 13.64 13.64 0 0 0 1.74 1.16 29.62 29.62 0 0 0 0.12 -6c-0.14 -1.46 2.92 -0.56 4.7 -2.6a9.86 9.86 0 0 0 -2 -1.8 28 28 0 0 1 -2.7 -1.7s0 -0.16 -0.12 -0.38 -0.62 -2 -0.86 -2.62a18 18 0 0 0 -1.4 -3.34z" fill-rule="evenodd" stroke-width="1"></path><path d="M308.92 262.68c-3.88 2 -14.52 6.62 -16 7.18 0 0 -17.4 27.24 -21.16 70h16.32a187.04 187.04 0 0 1 4 -33.52c3.68 -16.22 16.08 -41.94 16.84 -43.66z" stroke-width="1"></path><path d="M389.64 300.96c-1.66 -26 -10 -52.34 -28.9 -70.62 -1.78 -1.74 -6 -6.32 -8 -8 1.06 -3.38 11.76 -26.12 9.04 -45.88 -0.84 -6 -1.32 -20.12 -14.24 -22.24 0 0 -7.62 -10 -17.16 -12.7 -4.6 -1.26 -10.56 -3.62 -15.2 -2.16 -5.54 1.76 -7.1 2.98 -9.52 7.76a8.82 8.82 0 0 0 1.88 9.2c0.1 0.12 0.24 0.24 0 0.48a62.8 62.8 0 0 0 -9.64 14 24.76 24.76 0 0 0 -2.74 10 15.14 15.14 0 0 0 4.68 12.78 50 50 0 0 0 -5.08 11.38 114 114 0 0 0 -45.54 6.7c-12.32 -24.96 -29.36 -48.94 -34 -53.04a65.72 65.72 0 0 0 9.16 -6.64c1.22 -1.26 3.26 -3.6 1.7 -4.42 -0.86 -0.5 -2.48 0.16 -3.3 0.54 -3.18 1.56 -2.26 2 -1.38 -0.4 1.28 -3.4 6.38 -10 2.66 -11.68 -0.92 -0.44 -2 0.34 -2.54 1.14 0 -1.8 -0.78 -2.62 -2 -2.7s-2 0.82 -2.62 1.68c-0.16 -2 -2.16 -3.14 -4 -1.14A16.28 16.28 0 0 0 210 140c-2.14 5.14 -5.16 12.76 -5.24 17.66 0 4.46 -5.06 39.3 -0.16 66.22 4.14 22.26 23.5 47.16 45.8 43.14 -0.84 1.64 -1.54 3.28 -2.22 4.94 -2.7 6.82 -6 30.62 -6.66 40 -0.24 3.12 -1.42 25.6 -1.1 28.1h4.28s3.04 -66 38.92 -107.74a77.56 77.56 0 0 1 0 -8 139.88 139.88 0 0 1 15.7 -17.7c0.88 0 1.68 0.12 2.34 0.2a27.42 27.42 0 0 0 -2.66 6.4c-2 8 0.82 14.54 9.56 18.12 13.22 5.44 23.66 -4.88 29.02 -18 3.3 1.52 14.36 9.32 16.3 12.16a135.66 135.66 0 0 0 -12.36 13.4 68.32 68.32 0 0 1 -6 6.36c-0.94 2.38 -14.74 30 -18 38.74 -7.18 18.94 -7.6 36 -10.46 56h14.24a283.2 283.2 0 0 1 4 -33c2.66 -9.74 12 -45.58 12 -45.8 0 -0.52 2.66 -18.16 5.24 -21.5a116.8 116.8 0 0 1 11.86 -13.44 41.82 41.82 0 0 1 5.46 5.14c12.86 12.68 20.72 29.04 24.86 46.38 -16.74 -5.26 -29.32 0.44 -37.06 15.68 -3.18 -10.34 -6.86 -19.12 -7.1 -20a0.36 0.36 0 0 0 -0.4 -0.26c-0.56 0.16 -0.5 -0.76 5.74 19.86 0 1.84 -4.14 38.68 -5.74 47.22a117.38 117.38 0 0 1 12.14 0.36v-1.62c0.4 -2.26 0.66 -25.32 -3.14 -40.38 2.9 -6.9 10.36 -13.6 21.34 -16.16a33 33 0 0 1 15.14 -0.16 174.3 174.3 0 0 1 1.42 57.5c0 0.52 0.6 0.54 0.68 0.14a168.5 168.5 0 0 0 1.9 -39zm-126.56 -53.72a124.62 124.62 0 0 0 -12.28 18.76c-21.64 3.64 -40.44 -21.54 -44.24 -42.52 -3.26 -17.5 -2.26 -43.88 -1.32 -61.6 0.28 -6.48 0.28 -8 4.4 -19.16 0.68 -1.8 3.3 -8.14 5.12 -7.5 1.26 0.42 0.76 2.18 0.4 3.46 -0.84 1.64 -1.56 3.44 -2 4.62a7.28 7.28 0 0 0 -0.6 1.42c0 0.62 0.62 1.02 1.06 0.3A6.54 6.54 0 0 0 214 144c0.2 -0.56 1.22 -2.4 2 -4.46 0.8 -1.56 2.4 -4.56 3.78 -3.5 1.5 1.54 -2.64 8.64 -2.94 9.58a0.62 0.62 0 0 0 1.08 0.58c0 -0.2 1.78 -3.78 2.14 -4.62s2.36 -4.66 3.28 -4.28c2.36 0.88 -2 7.28 -3.14 10.2 -0.46 1.12 -1.82 3.46 -1.82 3.64a0.48 0.48 0 0 0 0.68 0.56 16.52 16.52 0 0 1 3.8 -2.6c0.6 -0.32 2 -0.9 2.58 -0.58s-2.22 3.56 -2.9 4.2a62.54 62.54 0 0 1 -8 5.76s-0.6 0.24 -0.36 0.66c2 1.72 15.38 22.7 16.18 24 9.12 14.58 18.24 30.66 21.84 37.56a0.4 0.4 0 0 0 0.56 0.2 0.42 0.42 0 0 0 0.2 -0.58c-0.94 -2.12 -2.54 -5.6 -3.64 -7.88l3.56 -0.94a46.4 46.4 0 0 1 5.44 8.86 48.96 48.96 0 0 1 4.76 26.88zm4.1 -5.06 -3.46 4.22a42.84 42.84 0 0 0 -4.48 -26.58 43.84 43.84 0 0 0 -5.82 -8.5l2.58 -0.6a25.68 25.68 0 0 1 4.28 4.94 43.78 43.78 0 0 1 6.9 26.52zm14.86 -18.56c-3.44 3.88 -11.02 13.8 -14.6 18 1.06 -14 -4.46 -25.74 -11.14 -31.1a150.62 150.62 0 0 1 42 -4 175.28 175.28 0 0 0 -16.3 17.1zm27.52 -74.66a14 14 0 0 1 5.58 -4.5 7.36 7.36 0 0 1 5.44 -0.24 0.76 0.76 0 0 1 0.4 1.06 1 1 0 0 1 -1.24 0.36 6.52 6.52 0 0 0 -5.08 0.5 15.8 15.8 0 0 0 -4.56 3.22 0.38 0.38 0 0 1 -0.5 0 0.32 0.32 0 0 1 -0.04 -0.4zm20.58 75.42c-6 6.72 -13.12 9.7 -21.46 6.26 -4.62 -1.88 -8.54 -5.14 -9.56 -10a20.86 20.86 0 0 1 2.74 -13.8 22.3 22.3 0 0 1 2.98 0.56c-0.36 0.86 -3.84 8 -1.86 12.98a11.64 11.64 0 0 0 8.32 6.82c10.58 3.02 18.44 -5.32 22.32 -15.5a33.28 33.28 0 0 1 3.52 1.46 45.46 45.46 0 0 1 -7 11.22zm2.56 -46.94c14 1.52 3.82 14 -2 11.24 -0.12 0 2.3 22.64 2.34 22.64 -0.66 1.8 -4 9.84 -10.42 13.6a13.3 13.3 0 0 1 -11.14 1.26c-13.22 -4 -6.42 -16.36 -6.42 -16.56 0.16 -1.64 0.86 -4 1.1 -6.38 0.7 -6.76 1.06 -7.44 0.24 -7.68 -7.18 -1.7 -10.68 -7.44 -10 -14.52a22.86 22.86 0 0 1 2.6 -9.48 65.36 65.36 0 0 1 9.12 -13.4 9 9 0 0 1 3.16 1.38 9.66 9.66 0 0 1 2.54 2c0.68 0.82 2 -0.3 1.22 -1.1a9.32 9.32 0 0 0 -1.4 -1.14c17.5 6.94 26.3 8 26.52 8.12s-5.9 4.72 -7.46 10.02zm16 119.82c-0.34 -1.18 -0.66 -2.34 -1.02 -3.44 7.66 -14.64 20.68 -20.48 37.02 -15.68l0.72 3.2c-14.9 -4.74 -32.22 3.4 -36.78 15.92z" stroke-width="1"></path><path d="M283.66 234.6c-0.4 0.24 -35 40 -37.34 105.36h12.44c0.88 -50.3 27.04 -90.14 27.24 -90.34 -0.7 -3.14 -2.18 -12.66 -2.34 -15.02z" stroke-width="1"></path><path d="M286.68 252.36A178.38 178.38 0 0 0 260.56 340H270c3.62 -44.14 20.94 -70.46 21.3 -70.92 -0.82 -2.86 -2.88 -9.74 -4.62 -16.72zm50.58 16.68c0 0.26 -8.28 32.82 -11.76 48.38a106.82 106.82 0 0 0 -2.62 22.58c7.84 0 9.28 0 15.3 0.12 0 0 5.48 -44.94 5.64 -45.52 -5.96 -6.6 -6 -13.76 -6.56 -25.56zm-4.68 -21.7c-6 4.52 -20.8 12.98 -21.32 14C295.36 296 290.4 314.24 290 340h15.12c2.26 -20.34 2.26 -28.82 7.32 -48.74 2.3 -9.26 19.4 -42.26 20.14 -43.92z" stroke-width="1"></path><path d="M201.3 159.26s-10 -4.14 -12.62 -5.06c-1.28 -0.44 -5.7 9.1 -6 9.8a228 228 0 0 0 -16.18 17.32c-5.1 6 -7.1 8.26 -17.04 25.32 -2.64 4.56 -6.32 11.02 -6.42 11.2s-19.16 -1.06 -26.18 -1.28a48.26 48.26 0 0 0 0 -7.38c0 -0.56 -0.28 -6.16 -0.44 -6.32a12.5 12.5 0 0 0 1.44 0.38c7.52 1.6 10.98 -0.38 13.1 -3.34 4 -5.6 0.54 -11.74 -0.78 -17.34a5.16 5.16 0 0 0 1.82 -6.3 19.22 19.22 0 0 0 -3.52 -4.62c-4.88 -6.24 -4.68 -7.4 -5.84 -10.5a31.4 31.4 0 0 0 -5.26 -9.62 28.38 28.38 0 0 0 -2.92 -3.38c-5.7 -6.16 -18.98 -10.2 -33.08 1.58S72.98 178 73.2 178.42L58 188a1.82 1.82 0 0 0 -0.88 2.4c0.44 0.92 1.54 0.66 2.12 0.28s4.44 -2.86 15.3 -9.68a38.14 38.14 0 0 0 12.68 12.8c-0.32 0.92 -2.1 2.82 -11.32 16.48a78.98 78.98 0 0 0 -7.58 5.44c-8 6 -20 12.38 -32.96 33.66C18.16 277.6 12.38 310.92 10 343.8a0.38 0.38 0 1 0 0.74 0C16 291.16 29.58 238 76 212.44c3.22 0.62 9.14 1.84 21.1 3.6a51.16 51.16 0 0 0 -7.26 1.14 43.76 43.76 0 0 0 -10.36 3.82 41.78 41.78 0 0 0 -19.6 19.6c-2.68 5.4 -10.9 35.04 24 41.7 10.98 2 26.4 0.66 47.62 -6.4 0 0.18 2 17.48 2.26 19.5a430.52 430.52 0 0 1 0.96 46.6 0.38 0.38 0 1 0 0.74 0 219.84 219.84 0 0 0 0.94 -35.16 149.2 149.2 0 0 0 -2 -19.3c-0.44 -4.4 -1.8 -11.78 -1.84 -12 0.78 -0.26 21 -8.44 29.3 -14.2A66 66 0 0 0 182.6 238.8a145.64 145.64 0 0 0 12.72 -32.8 187.88 187.88 0 0 0 5.26 -35.64 67.72 67.72 0 0 0 0.72 -11.1zm-83.64 -3.78a0.56 0.56 0 1 1 0 1.1 0.56 0.56 0 1 1 0 -1.1zm-30 40a8 8 0 0 0 0.48 -1.1c4.7 2.34 9.88 2.82 14.58 -1.32 1.54 -1.36 -5.22 -2.54 -6 -6 -0.72 -2.9 1.88 -8 4.88 -6.8 2.36 0.92 4.6 3.7 6.36 3.48a3.08 3.08 0 0 0 2 -4.48c-1.54 -2.38 -6.94 -10.82 -6.94 -10.82 2 -1.32 3.38 -2.28 5.12 -3.38a2.22 2.22 0 0 1 -2.66 -1.58c-0.44 -1.32 0.42 -3.52 7.46 -8.28 -0.8 -4.26 0 -5.52 0.88 -6.32 0.92 1.02 2.9 3.86 3 4 -2.9 1.84 -11.66 7.7 -10.96 10.28a2.22 2.22 0 0 0 2.94 1.42c5.46 -3.6 8.98 -6.12 10.52 -7.3a34.14 34.14 0 0 1 1.84 4.22 30 30 0 0 0 2.16 6.72c1.72 2.96 6.56 7.3 6.98 8.7 0.6 1.82 0.58 2.84 -1.54 4.62a0.96 0.96 0 0 0 -0.26 1.06c0 0.12 0.14 0.48 0.26 1 -1.28 0.48 -6.6 2.82 -6.14 2.64a0.6 0.6 0 0 0 -0.1 1c0.76 0.64 4.56 3.28 7.84 2.5a18.86 18.86 0 0 1 0.34 1.9l-3.48 1.36s0 2.34 -2.98 2.56 -7.52 -3.16 -11.82 0.22c0 0 -0.72 1.7 2.72 6.46a88.7 88.7 0 0 0 0.22 11.04c0.12 1.68 0.24 2.32 0.3 2.76 -5.66 -4.36 -23.66 -17.5 -28 -20.62zm28 -38a0.6 0.6 0 0 1 -1.18 0 0.6 0.6 0 0 1 1.2 -0.12zM130 189.14a11.02 11.02 0 0 1 -6 -2.24c2 -0.9 4.52 -2.48 4.88 -2.64 -0.14 0.08 0.64 2.78 1.12 4.88zm-45.82 91.32c-18 -2.86 -24.12 -13.76 -25.02 -19.28 -1.74 -10.24 -1.34 -24.74 16 -36 15.44 -10 27.4 -8 28.4 -8a44.7 44.7 0 0 0 -4.48 7.22 56.28 56.28 0 0 0 -3.42 42.76 143.26 143.26 0 0 0 6.5 13.48 69.08 69.08 0 0 1 -17.98 -0.18zm18.84 0.14a71.84 71.84 0 0 1 -6 -13.84 59.18 59.18 0 0 1 3.04 -41.8 52.9 52.9 0 0 1 4.3 -7.74c0.56 0 4.66 0.36 5.28 0.4 -2 3.02 -14.2 34.62 1.8 61.62 -2.88 0.6 -5.74 1.04 -8.42 1.36zm15.16 -2.82c-15.46 -27.06 -0.26 -57.34 0.68 -59.5a76.74 76.74 0 0 0 8 0.84c-5.34 9.04 -8.32 23.7 -6 37.38a61.32 61.32 0 0 0 6.54 18.64c-3.14 1.02 -6.26 1.9 -9.22 2.64zM181.16 238c-10.86 20 -31.7 30 -52.94 37A68 68 0 0 1 122 240.2a64.14 64.14 0 0 1 5.62 -21.04c2.9 0.14 14.14 0.56 15.9 0.56 0.32 0 0.62 -0.12 0.92 -0.7 5.5 -9.44 12.84 -22.26 17.06 -28.42a310.18 310.18 0 0 1 21.72 -26c7.56 6.58 14.36 7.24 16.3 6.98 -0.14 1.14 -1 34.8 -18.36 66.42z" fill-rule="evenodd" stroke-width="1"></path><path d="M122 173.6c-0.28 -0.5 -0.58 -1.04 -0.84 -1.56a0.92 0.92 0 1 0 -1.64 0.84c0.26 0.58 0.58 1.14 0.88 1.72a0.88 0.88 0 0 0 1.24 0.32 1.04 1.04 0 0 0 0.36 -1.32z" fill-rule="evenodd" stroke-width="1"></path></g></svg>