<svg xmlns="http://www.w3.org/2000/svg" viewBox="0 0 400 400" id="Business-Formula--Streamline-Milano.svg" height="400" width="400"><desc>Business Formula Streamline Illustration: https://streamlinehq.com</desc><g><path d="M305.88 120.368a8.18 8.18 0 1 1 8.18 -8.18 8.188 8.188 0 0 1 -8.18 8.18Zm0 -14.36a6.18 6.18 0 1 0 6.18 6.18A6.186 6.186 0 0 0 305.88 106Z" fill="#000000" stroke-width="1"></path><path d="m390.68 276.016 -18.422 -34.828a1 1 0 0 0 -0.848 -0.532l-39.366 -1.444a0.948 0.948 0 0 0 -0.884 0.468l-20.942 33.382a1 1 0 0 0 -0.038 1l18.424 34.8a1 1 0 0 0 0.848 0.532l38.978 1.43a1.018 1.018 0 0 0 0.264 0.078 1 1 0 0 0 0.512 -0.152c0.528 -0.2 -1.086 2.046 21.438 -33.736a1 1 0 0 0 0.036 -0.998Zm-2.68 -0.774a10.35 10.35 0 0 0 -3.4 0.4c-1.928 0.308 -10.61 1.924 -14.896 2.944a9.914 9.914 0 0 0 -0.766 -1.778c-1.424 -3.35 -2.8 -6.676 -6.476 -14.564a22.88 22.88 0 0 0 2.522 -4.482c0.85 -1.65 5.478 -10.97 6.726 -13.3Zm-26.188 -16.386a15.784 15.784 0 0 0 -1.154 2.224c-5.544 0.278 -11.062 0.2 -16.518 0.098a0.284 0.284 0 0 0 -0.222 0.092 0.762 0.762 0 0 0 -0.128 -0.048 154.818 154.818 0 0 0 -10 -19.944l36.64 1.344c-3.806 6.508 -6.63 12.62 -8.61 16.234Zm-21.718 37.904a4.54 4.54 0 0 0 0.68 -1.078 5 5 0 0 0 2.776 0.424c4.234 0.142 17.418 0.264 17.95 0.172 0 0 4.962 12.2 5.096 12.48l-35.066 -1.288c3.434 -3.882 5.416 -6.642 8.564 -10.71Zm-7.98 -54.836c1.714 3.34 3.254 6.26 4.636 9.188 1.674 3.542 3.17 7.338 4.986 10.896a1 1 0 0 0 0.676 0.516c-2.77 4.102 -5.568 8.224 -8.26 12.39a11.97 11.97 0 0 0 -1.846 2.906 17.44 17.44 0 0 0 -4.38 -1.172s-13.968 -3.172 -15.4 -3.502Zm-19.126 33.164c3.126 0.858 14.222 3.654 14.222 3.654a19.098 19.098 0 0 0 5.014 1.094c0.218 0.486 0.51 0.958 0.706 1.336 1.844 3.814 3.838 7.48 5.884 11.318a14.272 14.272 0 0 0 0.816 1.62c-1.182 0.244 -0.456 0.762 -9.884 12.634Zm55.832 32.93c-0.216 -0.332 -1.456 -3.2 -6.1 -13.59 1.264 -2.51 6.86 -13.556 7.074 -14.214 7.6 -0.888 13.448 -2.332 18.158 -2.672Z" fill="#000000" stroke-width="1"></path><path d="M175.166 80.8a1.346 1.346 0 0 0 1.6 0.948c0.722 -0.224 0.972 -1.098 1.2 -1.72a8.286 8.286 0 0 0 0.174 -4.488c-0.958 -2.16 -4.478 1.692 -2.974 5.26Z" fill="#000000" stroke-width="1"></path><path d="M200.644 83.6a9.684 9.684 0 0 0 0.7 -4.014 1.058 1.058 0 0 0 -1.82 -0.572A6.876 6.876 0 0 0 198.178 84c0.222 0.898 1.552 1.8 2.466 -0.4Z" fill="#000000" stroke-width="1"></path><path d="M174.86 69.268a10.682 10.682 0 0 1 2.4 -0.712c1.742 -0.2 2.226 1.114 3.4 -0.32a1.146 1.146 0 0 0 -0.056 -1.656 5.37 5.37 0 0 0 -6.776 0.29 1.412 1.412 0 0 0 1.032 2.398Z" fill="#000000" stroke-width="1"></path><path d="M201.346 70.566c1.33 0.6 1.222 1.364 1.668 1.57 1.6 0.744 1.966 -0.906 1 -2.284 -2.17 -3.12 -6.546 -1.962 -5.674 0.044 0.5 1.124 1.676 0.062 3.006 0.67Z" fill="#000000" stroke-width="1"></path><path d="M183.714 106.582a0.826 0.826 0 0 0 -0.648 -1.374 6.472 6.472 0 0 1 -6.04 -1.628 8.362 8.362 0 0 1 -1.91 -5.412 55.97 55.97 0 0 0 9.684 5.544c0.918 0.4 1.484 -1.05 0.738 -1.47a107.25 107.25 0 0 1 -10.67 -6.842 0.972 0.972 0 0 0 -1.434 0.612 10.23 10.23 0 0 0 2.188 8.964c1.926 2.184 5.806 3.438 8.092 1.606Z" fill="#000000" stroke-width="1"></path><path d="M186.06 97.766c1.652 0.352 3.304 0.702 4.952 0.99a18.656 18.656 0 0 0 4.472 0.67c2.502 0 3.2 -2.246 2.784 -4.776a82.78 82.78 0 0 0 -5.726 -18.332c-0.31 -0.692 -1.684 -0.302 -1.358 0.558a113.06 113.06 0 0 1 5.252 18.92 2.254 2.254 0 0 1 -0.176 1.232 1.6 1.6 0 0 1 -1.642 0.356c-3.182 -0.438 -6.318 -1.258 -8.2 -1.652a1.034 1.034 0 0 0 -0.358 2.034Z" fill="#000000" stroke-width="1"></path><path d="M271.81 72.8a2.468 2.468 0 1 0 4.936 0 2.468 2.468 0 1 0 -4.936 0" fill="#000000" stroke-width="1"></path><path d="M337.642 108.296A22.366 22.366 0 1 0 360 130.662a22.4 22.4 0 0 0 -22.358 -22.366Zm0 42.732A20.366 20.366 0 1 1 358 130.662a20.388 20.388 0 0 1 -20.358 20.366Z" fill="#000000" stroke-width="1"></path><path d="M337.468 103.84a8.182 8.182 0 1 0 -8.182 -8.18 8.188 8.188 0 0 0 8.182 8.18Z" fill="#000000" stroke-width="1"></path><path d="M370.85 106.876a8.18 8.18 0 1 0 8.18 8.18 8.19 8.19 0 0 0 -8.18 -8.18Zm0 14.36a6.18 6.18 0 1 1 6.18 -6.18 6.186 6.186 0 0 1 -6.18 6.18Z" fill="#000000" stroke-width="1"></path><path d="M367.26 145.294a8.18 8.18 0 1 0 8.18 8.18 8.19 8.19 0 0 0 -8.18 -8.18Z" fill="#000000" stroke-width="1"></path><path d="M325.696 167.462a8.18 8.18 0 1 0 8.182 -8.182 8.188 8.188 0 0 0 -8.182 8.182Zm14.36 0a6.18 6.18 0 1 1 -6.178 -6.182 6.186 6.186 0 0 1 6.178 6.182Z" fill="#000000" stroke-width="1"></path><path d="M295.904 147.018a8.18 8.18 0 1 0 8.18 -8.18 8.19 8.19 0 0 0 -8.18 8.18Z" fill="#000000" stroke-width="1"></path><path d="M314.022 103.932a1 1 0 0 0 0.652 -0.242 35.572 35.572 0 0 1 10.834 -6.4 1 1 0 1 0 -0.698 -1.874 37.6 37.6 0 0 0 -11.44 6.75 1 1 0 0 0 0.652 1.766Z" fill="#000000" stroke-width="1"></path><path d="M349.672 97.014a36.142 36.142 0 0 1 13.262 8.2 1 1 0 1 0 1.4 -1.434 38.134 38.134 0 0 0 -14 -8.648 1 1 0 1 0 -0.656 1.888Z" fill="#000000" stroke-width="1"></path><path d="M374.468 125.838a1 1 0 0 0 -0.888 1.1 35.934 35.934 0 0 1 -1.642 15.328 1 1 0 1 0 1.896 0.638 37.962 37.962 0 0 0 1.734 -16.18 1 1 0 0 0 -1.1 -0.886Z" fill="#000000" stroke-width="1"></path><path d="M344.878 167.086a1 1 0 0 0 1.2 0.76 37.466 37.466 0 0 0 13.098 -5.67 1 1 0 0 0 -1.128 -1.652 35.462 35.462 0 0 1 -12.4 5.368 1 1 0 0 0 -0.77 1.194Z" fill="#000000" stroke-width="1"></path><path d="M312.018 155.462a1 1 0 1 0 -1.454 1.372 37.664 37.664 0 0 0 11.8 8.446 1 1 0 0 0 0.83 -1.82 35.688 35.688 0 0 1 -11.176 -7.998Z" fill="#000000" stroke-width="1"></path><path d="M302.14 122.54a1 1 0 0 0 -1.18 0.778 37.316 37.316 0 0 0 -0.542 11.636 1 1 0 0 0 1.988 -0.22 35.352 35.352 0 0 1 0.512 -11.014 1 1 0 0 0 -0.778 -1.18Z" fill="#000000" stroke-width="1"></path><path d="M311.962 271.2c-7.346 0 -77.058 1.772 -99.166 2.214q2.91 -11.846 4.748 -23.882c6.03 6.734 12.244 10.452 18.944 11.27 9.684 1.16 18.958 -3.412 27.504 -7.8a195.168 195.168 0 0 0 65 -54.082 0.982 0.982 0 0 0 0.23 -0.638 15.4 15.4 0 0 0 14.742 -8.884c1.158 -2.51 1.4 -5.326 -1.2 -6.284a3.108 3.108 0 0 0 -3.428 1.358c-0.43 0.474 -0.854 0.956 -1.272 1.44a7.582 7.582 0 0 0 -0.256 -1.2 3.742 3.742 0 0 0 -3 -2.28 3.418 3.418 0 0 0 -1.84 0.526 3.048 3.048 0 0 0 -2.692 -4.068c-1.342 0.012 -2.068 1.212 -2.622 1.63 -1.476 1.064 -3.648 0.73 -5.708 1.504a9.058 9.058 0 0 0 -3.534 2.38 0.926 0.926 0 0 0 -0.268 -0.026 316.444 316.444 0 0 0 -55.366 8.784 151.742 151.742 0 0 0 -14.722 -25.924 45.25 45.25 0 0 0 8.256 -3.054 83.564 83.564 0 0 0 34.156 -31.512 97.344 97.344 0 0 0 8.826 -17.652 7.054 7.054 0 0 1 2.766 -8.826c4.63 -17.752 3.114 -39.384 -12.266 -49.114 -0.4 -0.246 -13.6 -16.108 -40.1 -3.818 -25.088 11.626 -44.984 41.492 -48 68.788a69.952 69.952 0 0 0 -13.14 -5.04 33.306 33.306 0 0 0 12.6 -13.216 63.124 63.124 0 0 0 6.012 -19.664c1.68 -9.982 1.986 -21.964 -0.77 -31.8l3.122 -4.968a4.96 4.96 0 0 0 0.8 -4.232 24 24 0 0 0 -3.67 -8.3c-8.15 -11.4 -22.692 -13.184 -37.186 -13.4a45.816 45.816 0 0 0 -15.512 2.184 23.982 23.982 0 0 0 -12.914 9.43 26.706 26.706 0 0 0 -3.332 10.8 90.6 90.6 0 0 0 0.552 21.086c-3.2 3.6 -4.866 13.284 -0.382 19.538a8.4 8.4 0 0 0 6.978 3.104c-1.426 3.516 -6.614 20.758 -6.722 21.354 -1.328 -0.318 -25.762 1.384 -46.27 6.712 -52.688 11.8 -78.966 68.88 -57.418 122.228 3.12 7.672 7.896 17.898 15.558 26.142A196.934 196.934 0 0 1 9.942 287.2a0.9 0.9 0 0 0 0.08 1.782l0.076 0a69.376 69.376 0 0 1 -0.726 38.712 0.976 0.976 0 0 0 0.668 1.22c12.55 3.984 26.05 4.65 39.378 5.636 23.676 1.75 41.482 2.554 65.1 3.516 0.428 0 0.8 -0.272 1.27 -0.832 2.514 -2.6 4.956 -5.386 7.316 -8.07 1.302 -1.478 18.8 -20.518 20.61 -22.572a20.8 20.8 0 0 0 4.21 -5.52 18.674 18.674 0 0 0 0.068 -7.52 61.156 61.156 0 0 1 2.04 -17.096c33.244 -0.466 133.548 -1.66 162.092 -3.4a0.946 0.946 0 0 0 -0.162 -1.856Zm-43.688 -123.774a68.438 68.438 0 0 1 -10.612 6.648c-9.896 4.7 -19.256 4.964 -26.542 0.99 27.774 6.222 61.97 -31.952 61.742 -66.216a34.072 34.072 0 0 0 -6.242 -20.732c7.626 5.8 11.016 16.298 10.07 28.462a93.14 93.14 0 0 1 -28.416 50.848Zm-122.498 153.646a23.966 23.966 0 0 1 -2.698 3.236c-1.868 2.118 -18.444 20.074 -19.4 21.092 -2.914 3.086 -5.902 6.278 -8.574 9.624 -0.316 -1.254 -0.63 -2.508 -0.91 -3.772 3.8 -4.256 7.782 -8.278 11.2 -11.854a0.776 0.776 0 0 0 -1.074 -1.12 98.2 98.2 0 0 0 -10.53 11.012 106.83 106.83 0 0 1 -2.346 -17.522 42.036 42.036 0 0 0 5.27 -4.13c11.724 -9.708 13.578 -11.174 16.86 -14.144a0.812 0.812 0 0 0 -1.012 -1.268c-4.428 3.142 -8.758 6.906 -16.618 13.524a39.92 39.92 0 0 0 -4.504 4.02 63.2 63.2 0 0 1 0.372 -6.918c2.4 -1.628 3.22 -2.4 13.714 -10.342 2.768 -2.098 5.632 -4.266 8.326 -6.574a0.832 0.832 0 0 0 -1.012 -1.318c-4.384 3.052 -20.622 15.91 -20.838 16.084a28.456 28.456 0 0 1 2.056 -7.512c3.4 -0.672 9.8 -4.432 12.938 -6.524a226.532 226.532 0 0 0 23.636 -17.654 60.146 60.146 0 0 0 -4.552 21.4c-2.634 2.228 -28 23.57 -29.75 25.296a0.866 0.866 0 0 0 1.098 1.334 86 86 0 0 0 7.298 -5.868c3.298 -2.87 12.188 -10.112 21.34 -18.724 0 1.13 0.054 2.26 0.126 3.39 -1.856 1.358 -2.276 2.05 -9.452 7.89a41.418 41.418 0 0 0 -3.382 2.954 0.824 0.824 0 0 0 1.056 1.252 39.694 39.694 0 0 0 3.2 -2.526s8.032 -6.83 8.714 -7.458a5.946 5.946 0 0 1 -0.552 3.12Zm-64.4 -18.48a13.072 13.072 0 0 1 -5.252 -1.346 5.348 5.348 0 0 0 -1.868 -0.936 0.922 0.922 0 0 0 -0.966 1.4 3.668 3.668 0 0 0 1.78 1.412 9.4 9.4 0 0 0 2.97 1.112c-0.534 0.4 -0.906 0.642 -1.296 0.904a0.812 0.812 0 1 0 0.736 1.442 9.352 9.352 0 0 0 2.89 -1.98 8.4 8.4 0 0 0 1.444 0.066c2.042 -0.038 5.566 -0.66 7.134 -2.97a63.034 63.034 0 0 0 9.928 -0.034c-7.506 6.08 -18.708 8.874 -28.328 4.068a6.43 6.43 0 0 1 -3.746 -4.216 8.272 8.272 0 0 1 1.176 -5.088 63.254 63.254 0 0 0 18.512 5 7.954 7.954 0 0 1 -5.104 1.174Zm93 -83.8a8.122 8.122 0 0 1 2.68 -5.034 5.686 5.686 0 0 1 6.29 -0.6 1.578 1.578 0 0 1 0.836 1.936l-0.678 0.932a3.844 3.844 0 0 0 -1.626 1.178 2.33 2.33 0 0 0 -0.26 2.186c1 2.666 6.476 4.276 6.68 4.34a9.214 9.214 0 0 0 5.748 -0.02 7.778 7.778 0 0 0 3.452 -3.13c0.278 -0.372 0.692 -0.8 1.1 -0.65a2.6 2.6 0 0 1 1.136 2.272 8.264 8.264 0 0 1 -5.8 7.546 1.13 1.13 0 0 0 -0.74 1.322 3.85 3.85 0 0 1 -2.98 4.716c-1.044 0.076 -1.314 0.426 -1.866 1.372 -3.034 5.2 -12.758 2.818 -14.656 -5.898a31.3 31.3 0 0 1 0.696 -12.474Zm-1.732 15.576a14.732 14.732 0 0 0 7.236 6.774l-3.24 4.474a3.092 3.092 0 0 1 -4.312 0.678l-2.928 -2.152a3.096 3.096 0 0 1 -0.698 -4.312Zm-105.902 61.504c-1.874 2.862 -2.5 6.496 0 9.29 5.6 6.272 23.44 7.84 35.43 -3.882a78.98 78.98 0 0 0 25.126 -8.322c4.974 -0.93 18.266 -3.54 19.984 -3.878a222.97 222.97 0 0 1 -19.058 14.2c-12.964 8.784 -15.548 8.64 -24.674 8.64a817.2 817.2 0 0 1 -89.876 -4.32 175.926 175.926 0 0 0 37.262 -22.62 50.838 50.838 0 0 0 15.806 10.892ZM13.078 321.6c27.712 5.692 34.842 1.984 69.766 7.214a0.784 0.784 0 0 0 0.116 -1.562 232.552 232.552 0 0 0 -34.774 -3.6 274.518 274.518 0 0 1 -34.864 -3.412 67.884 67.884 0 0 0 -0.09 -25.04c5.112 0.59 23.226 2.244 29.534 2.2a0.748 0.748 0 0 0 0.078 -1.494c-3.746 -0.488 -7.636 -0.726 -11.4 -0.956 -1.286 -0.078 -15.754 -1.122 -18.516 -1.3 -0.324 -1.506 -0.706 -3 -1.132 -4.488a791.332 791.332 0 0 0 88.776 4.852 49.178 49.178 0 0 0 11.108 -0.41 32.44 32.44 0 0 0 -1.984 10.636c-4.116 -0.108 -25.848 -0.524 -32.584 -0.782 -10.6 -0.4 -47.662 -2.814 -51.704 -2.918 -1.09 -0.028 -0.816 1.506 -0.07 1.6 9.518 1.12 19.774 1.89 33.252 2.498 2.896 0.13 50.372 1.688 50.926 1.684 -0.118 2.05 -0.168 4.106 -0.098 6.16a125.022 125.022 0 0 0 3.8 23.448c-22.05 -0.746 -60.526 -2.898 -80.17 -4.838a114.338 114.338 0 0 1 -21.344 -3.872c0.546 -1.86 0.99 -3.734 1.374 -5.62Zm139.782 -53.69c0.33 -0.816 -1.52 -1.8 -2.048 -1.712 -2.722 0.552 -14.4 2.882 -17.54 3.52 19.74 -11.03 32.52 -23 46.504 -41.778l4.696 -6a8.032 8.032 0 0 0 4.67 -2.258c0.8 -0.766 1.056 -1.852 1.97 -1.898a1.518 1.518 0 0 0 0.534 -0.1 6.116 6.116 0 0 0 3.824 -6.2c6.814 -2.928 8.118 -12.166 3.706 -13.47l23.9 -32.878c7.318 4.038 14.816 4.336 22.922 2.6a222.452 222.452 0 0 1 14.236 26.064 238.538 238.538 0 0 0 -24.106 7.428 0.856 0.856 0 0 0 -0.534 0.738c0 0.576 0.576 1.158 1.118 0.984a348 348 0 0 1 60.46 -14.134c10.534 -1.424 17.05 -1.718 20.076 -2.148a17.77 17.77 0 0 0 9.122 12.06 193.916 193.916 0 0 1 -59.2 49.8c-7.642 4.2 -16.304 8.968 -25.176 9.87 -8.544 0.86 -16.6 -3.176 -23.95 -11.954a280.846 280.846 0 0 0 0.932 -70.844c-0.096 -0.768 -1.466 -0.686 -1.4 0.126a314.326 314.326 0 0 1 0.156 53.58 301.26 301.26 0 0 1 -6.878 44.13c-16.522 0.328 -60.248 1.054 -60.248 1.054a67.066 67.066 0 0 1 2.254 -6.58Zm138 -179.048c0.162 24.422 -18.08 52.372 -40.112 61.786a15.634 15.634 0 0 0 -1.934 -3.052 86.522 86.522 0 0 0 -17.334 -18.712 71.786 71.786 0 0 1 0.944 -8.662 65.864 65.864 0 0 1 20.416 -36.894 40.448 40.448 0 0 1 15.022 -8.97 0.816 0.816 0 0 0 -0.2 -1.612 0.562 0.562 0 0 0 -0.1 0 28.156 28.156 0 0 0 -13.982 6.626 66.546 66.546 0 0 0 -23.528 38.526c-0.65 3.244 -0.922 6.104 -1.236 9.032a60.232 60.232 0 0 0 -10 -5.548 68.122 68.122 0 0 1 10.698 -28.498c11.6 -18.274 28.77 -29.368 43.13 -29.368a23.116 23.116 0 0 1 7.62 1.2c6.752 4.738 10.536 13.236 10.598 24.146Zm-63.904 62.68 -1.49 -0.95c-4.696 -5.094 -7.296 -12.508 -7.296 -21.55 0.044 -1.922 0.2 -3.832 0.4 -5.734a61.832 61.832 0 0 1 10.084 6.144 29.474 29.474 0 0 0 0.38 5.5 1.176 1.176 0 0 0 2.298 -0.23 25.186 25.186 0 0 0 0.14 -3.04 91.654 91.654 0 0 1 15.488 17.33 26.144 26.144 0 0 0 1.644 2.474c-7.772 2.844 -15.372 3.074 -21.646 0.056Zm103.644 31.48a9.622 9.622 0 0 1 -0.738 1.564 3.438 3.438 0 0 0 -1.908 -0.648c-1.384 -0.022 -2.254 1.302 -2.888 2.252a9.63 9.63 0 0 0 -1.478 4.6 1.1 1.1 0 0 0 2.2 0.024 7.076 7.076 0 0 1 1.834 -4.51c0.74 -0.722 1.276 0.442 1.53 0.754a3.296 3.296 0 0 1 0.118 2.49 1.106 1.106 0 1 0 2.154 0.476l1.364 -2.968a6.882 6.882 0 0 1 1.28 -2.4c0.58 -0.496 1.418 0.124 1.662 0.72a6.31 6.31 0 0 1 -0.298 3.734 1.132 1.132 0 0 0 2.2 0.384 36.1 36.1 0 0 1 3.836 -4.368 0.8 0.8 0 0 1 1.136 0.548 5.946 5.946 0 0 1 -1.18 3.788 14.15 14.15 0 0 1 -15.2 6.5 15.134 15.134 0 0 1 -6.8 -10.074c3.624 -3.94 6.582 -1.342 9.892 -4.31 0.84 -0.754 0.966 -0.702 1.284 -0.4 0.458 0.474 0.342 0.946 0 1.844Zm-109.314 -18.986c0.2 0.134 1.35 -1.69 -26.762 36.978 -1.226 1.312 -5.376 1.8 -8.526 -0.428a6.47 6.47 0 0 1 -2.184 -1.552c2.18 -2.378 2.228 -2.75 2.308 -2.954 0.166 -0.56 -2.234 2.852 26.73 -37.024a27.2 27.2 0 0 0 8.424 4.98ZM185.75 192.952c-1.4 -2.456 -5.288 -2.9 -7.942 -1.74 -4.2 1.682 -5.886 6.738 -5.814 11.336a472.314 472.314 0 0 0 -82.2 17.278 229.674 229.674 0 0 0 -4.466 -50.988c-0.282 -1.4 -2.454 -0.892 -2.172 0.512a254.894 254.894 0 0 1 4.4 51.924 1.118 1.118 0 0 0 1.424 1.06 481.288 481.288 0 0 1 82.322 -17.694 14.64 14.64 0 0 0 0.454 7.556l-4.682 6.464a5.088 5.088 0 0 0 1.146 7.102l2.942 2.142a4.988 4.988 0 0 0 5.672 0.172c-10.03 12.872 -19 23.348 -35.136 33.874 -3.076 2.05 -6.508 4.24 -10.242 6.354a87.334 87.334 0 0 1 -25.936 10.16c-24.496 4.68 -51.462 -4.426 -65.022 -32.468C12.966 192.084 38.134 135.698 82.78 120.464a183.232 183.232 0 0 1 25.88 -6.2C120.13 140.4 157.75 156.456 184.222 140.652a30 30 0 0 0 14.322 -17.74q1.446 0.662 2.938 1.416c-0.918 12.052 1.388 24.888 9.884 33.354Zm-46 -82.852c1.044 -1.97 6.46 -21 6.914 -23.116 0.02 -0.036 0.06 -0.054 0.076 -0.094 0.354 -0.854 -0.47 -1.908 -1.308 -1.554a5.618 5.618 0 0 1 -6 -1.956c-3.162 -4.16 -2.8 -10.454 -1.264 -14.8 0.61 -1.6 2.248 -4.038 3.984 -4.438 2.676 -0.63 5.146 2.434 6.2 5a24.2 24.2 0 0 1 1.816 7.52v2.988c0 1.388 0.92 1.648 2.268 1.976 0.87 0.2 1.77 0.428 1.932 1.054a0.338 0.338 0 0 0 0.654 -0.166c-1.964 -7.906 -0.36 -15.318 1.274 -23.418a34.828 34.828 0 0 1 2.464 -8.012c1.618 -3.426 2.6 -3.2 6.5 -3.154 13.63 0.132 26.894 0.752 39.356 4.858a74.528 74.528 0 0 1 0.892 27.484c-1.514 11.298 -4.824 25.022 -15.534 33.092a20.034 20.034 0 0 1 -18.318 3.25 1.31 1.31 0 0 0 -1.542 0.936c-0.514 2.446 -1 4.976 -1.524 7.482 -0.33 1.6 2.136 2.232 2.472 0.6 0.432 -2.052 0.826 -4.18 1.23 -6.184a20.676 20.676 0 0 0 13.94 -1.268c4.4 1.786 4.362 1.356 10.026 3.74C192.264 136 177.128 143.4 164.564 144.3a58.458 58.458 0 0 1 -54.13 -30.344c16.856 -2.882 27.05 -3.09 27.888 -3.54a0.902 0.902 0 0 0 1.424 -0.316Zm110.8 -55.038c10 -4.63 21.494 -6.484 31.308 -1.4 -7.874 -2.014 -17.02 -0.816 -26.578 3.6 -29.134 14.538 -47.87 47.05 -48.08 75.77a39.478 39.478 0 0 0 7.72 25.128c-7.43 -5.936 -11.542 -15.936 -11.628 -28.536 -0.2 -28.966 20.954 -62.376 47.246 -74.562Z" fill="#000000" stroke-width="1"></path><path d="M99.258 312.058a0.874 0.874 0 0 0 0.06 -1.746c-4.89 -0.474 -10.026 -0.35 -14.8 -0.548 -4.84 -0.2 -33.562 -1.822 -44.732 -2.642 -0.738 -0.012 -0.936 1.34 -0.052 1.348 23.376 2.394 54.146 3.696 59.524 3.588Z" fill="#000000" stroke-width="1"></path><path d="M338.03 338.926c0.062 0.028 4.106 1.842 4.17 1.862a2.318 2.318 0 0 0 1.2 0 1.022 1.022 0 0 0 0.666 -1.292 2.266 2.266 0 0 0 -0.776 -0.96 37.934 37.934 0 0 0 -4.078 -1.8 4.04 4.04 0 0 0 -0.868 -3.632 12 12 0 0 0 -14 -2 15.954 15.954 0 0 1 -4.914 2.172c-1.688 0.16 -3.16 -0.834 -2.778 -2.464a4.46 4.46 0 0 1 4.54 -2.674c1.17 0.11 1.064 -1.74 0.266 -1.908a5.852 5.852 0 0 0 -4.972 1.266c-2.732 -1.758 -2.904 -2.032 -3.828 -1.902 -0.868 0.038 -1.632 1.09 -0.4 2.26a27.892 27.892 0 0 0 2.764 1.472 6.044 6.044 0 0 0 -0.456 1.15 4.366 4.366 0 0 0 3.528 5.068 9.486 9.486 0 0 0 5.824 -1.582 11.13 11.13 0 0 1 10.262 -1.078c0.972 0.4 3.168 1.482 2.6 3.06a5.97 5.97 0 0 1 -8.426 1.756c-1.65 -1.014 -3.092 1.47 -1.54 2.536a8.8 8.8 0 0 0 11.216 -1.31Z" fill="#000000" stroke-width="1"></path><path d="M369.266 340.906a1.51 1.51 0 0 0 -1.082 0.342 33.982 33.982 0 0 0 -3.974 2.676 13.554 13.554 0 0 0 -6.324 -0.6 11.354 11.354 0 0 0 -9.158 6.232 6.144 6.144 0 0 0 0.424 5.446 7.28 7.28 0 0 0 4.15 2.718c2.448 0.8 4.138 1.534 3.6 3.6 -1.084 4.188 -8.562 3.788 -12.82 2 -3.744 -1.6 -4.2 -2.928 -6.144 -4.282a1.322 1.322 0 0 0 -1.788 1.838 11.892 11.892 0 0 0 4.336 3.726c-3.42 2.388 -3.514 2.358 -4.142 3.256a1.094 1.094 0 0 0 0.978 1.552 3.84 3.84 0 0 0 1.946 -0.97l3.614 -2.704c4.812 1.938 11.862 2.462 15.224 -1.516a5.2 5.2 0 0 0 -2.442 -8.436c-1.868 -0.75 -4.108 -1.06 -4.622 -2.918a5.216 5.216 0 0 1 2.85 -5.6 12.8 12.8 0 0 1 13.956 0.764 0.95 0.95 0 0 0 1.342 -0.134 0.892 0.892 0 0 0 -0.534 -1.476 13.882 13.882 0 0 0 -2.028 -1.4c0.536 -0.302 -0.484 0.288 2.828 -1.648 0.478 -0.28 0.93 -0.538 0.892 -1.338a1.168 1.168 0 0 0 -1.082 -1.128Z" fill="#000000" stroke-width="1"></path><path d="M286.86 261.45c-90.46 26.51 -84.874 25.432 -85.042 25.814a0.736 0.736 0 0 0 0.036 0.648c-2.13 27.128 -3.01 61.538 -3.52 89.034a0.882 0.882 0 0 0 0.364 1.676 0.73 0.73 0 0 0 0.532 -0.2l0.108 -0.034c0.03 0 0.054 0.016 0.086 0.016a1.088 1.088 0 0 0 0.706 -0.272 755.568 755.568 0 0 0 82.986 -32.242 0.982 0.982 0 0 0 0.6 -0.826 1.096 1.096 0 0 0 -0.102 -0.478c3.082 -18.31 4.44 -44.312 4.616 -63.016v-19.106a1.07 1.07 0 0 0 -1.37 -1.014Zm-5.328 82.722c-18.52 8.056 -26.222 11.504 -37.694 16.064 0.546 -5.258 0.6 -10.626 0.91 -15.914 0 0 1.29 -23.714 1.48 -27.168 14.666 -5.838 25.378 -10.55 39.2 -16.958 -1.228 25.63 -2.552 31.486 -3.896 43.976ZM248 275.132c-0.704 5.16 -0.72 10.5 -1.052 15.688 -0.348 5.46 -1.314 22.6 -1.474 25.32a11.708 11.708 0 0 1 -1.86 1.038c-20.172 8 -27.634 10.346 -41.89 15.424 0.294 -8.318 1.752 -40.4 1.908 -44.546 9.598 -2.384 14.384 -4.038 44.368 -12.924Z" fill="#000000" stroke-width="1"></path></g></svg>