<svg xmlns="http://www.w3.org/2000/svg" viewBox="0 0 400 400" id="Selfie-4--Streamline-Milano.svg" height="400" width="400"><desc>Selfie 4 Streamline Illustration: https://streamlinehq.com</desc><g fill="#000000"><path d="M189.7 67.24a20 20 0 0 1 1.82 -1.6c-1.5 -0.16 -3.86 1.76 -3.4 3.38a6.7 6.7 0 0 1 1.58 -1.78zm8.96 -4.94a11.38 11.38 0 0 1 3.76 -0.7 2.42 2.42 0 0 0 -3.76 0.7zm0.34 5.32c1.2 1.9 2.64 3.6 4 5.44 0.5 0.72 1.32 1.7 0.92 2.64s-1.5 1.22 -2.3 1.56c2.84 0.14 4.26 -1.54 2.84 -4a20.84 20.84 0 0 0 -5.46 -5.64zm-5.86 5.86a0.6 0.6 0 0 0 1.08 -0.26 1.52 1.52 0 0 0 -0.4 -0.92 7.66 7.66 0 0 0 -0.56 -0.84c-0.28 -0.36 -1 -0.66 -1.16 0s0.16 0.54 1.04 2.02zm-18.28 34a181.82 181.82 0 0 0 24.36 18.64 16.76 16.76 0 0 0 6.36 3 6.88 6.88 0 0 0 5.88 -2c3.46 -3.58 3.02 -9.46 2.54 -14a49.6 49.6 0 0 0 -5.4 -17.88 54.58 54.58 0 0 1 4.64 22 16.6 16.6 0 0 1 -1.08 6.84 6.78 6.78 0 0 1 -4 4 8.76 8.76 0 0 1 -6.6 -1.66 298.22 298.22 0 0 1 -26.7 -18.94z" stroke-width="1"></path><path d="M198 104.98a3.54 3.54 0 0 0 -4.14 -2.16 3.48 3.48 0 0 0 -2 4.4 3.2 3.2 0 0 0 4 2A3.32 3.32 0 0 0 198 104.98zM195.62 108a2.1 2.1 0 0 1 -2.8 -0.88 2.18 2.18 0 1 1 3.88 -2 2.12 2.12 0 0 1 -1.08 2.88zm73.26 -74.22c-0.1 -0.86 -7.2 -1.34 -7.24 -0.5 -0.08 1.6 7.3 1.02 7.24 0.5zm0.12 5.96c0 -1.1 -7.5 0.48 -7.54 1.22 -0.12 1.48 7.54 -0.34 7.54 -1.22zm0.88 5.98c1.78 -2.7 -2.88 0.46 -3.72 1 -2.82 1.78 2.62 0.64 3.72 -1zM197.74 82.62a4 4 0 0 0 0.8 -0.92 3.78 3.78 0 0 0 5.86 -0.78 9.16 9.16 0 0 1 -5.66 0.4c0.2 -0.46 0.7 -1.4 0.16 -1.8s-0.9 0.36 -1.02 0.78a2.4 2.4 0 0 1 -0.48 1.02c-0.2 0.22 -0.54 0.4 -0.62 0.72a0.6 0.6 0 0 0 0.96 0.58zm4.38 -13.2c0.66 0.22 0.84 -0.78 2 -1.22 0.3 -0.14 0.7 -0.16 0.92 -0.42a0.62 0.62 0 0 0 0 -0.82c-0.3 -0.24 -0.7 0 -1 0a5.2 5.2 0 0 0 -2.12 1.64 0.5 0.5 0 0 0 0.2 0.82zM122.78 342c-0.24 -0.22 -0.56 -0.5 -0.88 -0.46a0.48 0.48 0 0 0 -0.44 0.52c0 0.52 1.08 1.06 1.44 1.4a14.5 14.5 0 0 1 3 4.36c0.18 0.38 0.96 1.1 1.14 0.3s-0.4 -1.12 -0.62 -1.54a16.22 16.22 0 0 0 -3.64 -4.58zm10.36 -4.14a25.64 25.64 0 0 0 -1.78 9.16c0 0.26 0 0.6 0.26 0.76a0.48 0.48 0 0 0 0.74 -0.26 27.24 27.24 0 0 1 1.52 -8.76c0 -0.26 0.34 -0.76 0.16 -1.04a0.54 0.54 0 0 0 -0.9 0.14zm6.86 4.72a9.3 9.3 0 0 0 -3.12 2.86 4.5 4.5 0 0 0 -0.98 1.82 0.48 0.48 0 0 0 0.86 0.4c0.46 -0.44 0.58 -1.2 0.94 -1.72 1.5 -2.16 2.62 -2 2.94 -2.72s-0.12 -0.88 -0.64 -0.64zm117.24 -18.36c-0.52 0.48 2.8 4 2.94 4.18 0.64 0.64 2.7 2.18 1.26 0 -0.28 -0.4 -3.16 -5.14 -4.2 -4.18zm8.5 -4.02c-0.3 0.82 -3.04 8 -1.68 8.44 0.74 0.22 1.42 -4.46 1.54 -4.9a10.4 10.4 0 0 0 0.8 -2.46c0.04 0.82 0.06 -3.04 -0.66 -1.08zm9.42 6.36c-0.62 0.46 -4.72 2.9 -4.52 3.86s3.54 -1.84 3.64 -2 1.32 -0.76 1.4 -1.08 0.54 -1.62 -0.52 -0.78zm86.08 40.3c0.4 0.6 1.74 4.54 2.46 4.36 1.66 -0.42 -2.7 -6.3 -3.12 -6.76 -2.02 -2.2 0.34 1.94 0.66 2.4zm8.76 -3.32a10.96 10.96 0 0 0 -3 4.52c-0.28 0.84 -1.12 4.48 0.38 3.12 0.68 -0.62 0.86 -3.72 1.48 -4.74 0.14 -0.18 2.4 -4 1.14 -2.9zm5.5 3.86c-0.44 0.32 -5.22 4 -4.36 4.18s2.84 -1.68 3.36 -2.2 1.2 -0.58 1.32 -0.98c0 0.04 0.64 -1.76 -0.32 -1zM61.44 46.48a14.36 14.36 0 0 0 -4.7 -1.32c-5.68 -0.82 -9 2.88 -8.64 6.74a6.2 6.2 0 0 0 5.6 5.54 7.52 7.52 0 0 0 6.62 -4.68 3.86 3.86 0 0 0 0.9 4.26 3.76 3.76 0 0 0 4.66 -0.18 4 4 0 0 0 0.42 -4.5A42 42 0 0 1 63.44 48c1.78 1.04 6.1 4.22 8.2 2.22a3.02 3.02 0 0 0 0 -3.8 4.56 4.56 0 0 0 -4 -1.34 7.88 7.88 0 0 0 4.78 -4.82c1.28 -5.64 -8 -8.56 -9.7 -3.82a15.78 15.78 0 0 0 -0.84 7.56c-1.28 -6.6 -5.7 -11.76 -2.62 -18.52a12.18 12.18 0 0 0 -1.26 10.38c0.22 0.94 4.28 10.36 4 10.58a34 34 0 0 1 -2.28 -3.52 18.5 18.5 0 0 0 -4 -4c-2.16 -1.64 -7.12 -4.66 -10 -3.24 2.28 -0.44 10.74 3.1 15.72 10.8zm8.18 -0.8c1.52 0.32 2.98 2.86 1.66 4.1s-3.22 -0.26 -4.4 -0.72a24.2 24.2 0 0 1 -3.1 -1.42c-0.3 -0.16 -0.84 -0.32 -0.18 -0.78a9.68 9.68 0 0 1 6.02 -1.18zM62.36 44c0.18 -2.4 -0.14 -8 2.64 -9.04 4.6 -1.84 11.66 4.62 2.18 9.8 -0.7 0.38 -3.88 2 -4.18 2 -0.74 0 -0.72 -1.84 -0.64 -2.76zm0.56 4.3c0.56 0.86 1.6 2.48 2 3.22 4 6.92 -4.28 7.2 -4.22 3.06a23.12 23.12 0 0 1 1.58 -5.56c0.22 -0.84 0.34 -1.28 0.64 -0.8zm-0.78 -0.3a14.68 14.68 0 0 1 -5.74 8 5.08 5.08 0 0 1 -7.22 -2.84 5.1 5.1 0 0 1 3.2 -7.04A11.62 11.62 0 0 1 58 46c1.5 0.22 4.5 0.9 4.14 2zm13.18 -15.76a6 6 0 0 0 -4.54 -4.54 13.1 13.1 0 0 1 4.54 4.54zm3.14 -0.58A9.48 9.48 0 0 0 72 22.58a14.54 14.54 0 0 1 6.46 9.08zM40.8 47.84a8 8 0 0 0 1.72 8.16 18.96 18.96 0 0 1 -1.72 -8.16zm-4.8 -5a11.38 11.38 0 0 0 0.42 11.26 21.12 21.12 0 0 1 -0.42 -11.26zm22.72 68.44A30.94 30.94 0 0 1 65.46 96a17.24 17.24 0 0 0 -6.74 15.28zm32.08 3.82a6.94 6.94 0 0 0 0.8 -8.44 21.56 21.56 0 0 1 -0.8 8.44zm252.92 3.18a3.52 3.52 0 0 0 -2.4 3.54 4 4 0 0 0 2.42 3.24 4 4 0 0 0 4.14 -1.68 29.24 29.24 0 0 0 2.26 -4.96c0 2.56 0 7.32 2.36 8.28 1.32 0.52 2.72 -0.74 3.24 -1.86a4.42 4.42 0 0 0 -0.5 -4c4.84 3.1 8.68 1.18 9.36 -2 0.56 -2.66 -0.88 -6.56 -3.2 -7.16a5.5 5.5 0 0 0 -3.18 0.52 27.56 27.56 0 0 0 -6.56 3.5c4.86 -4.58 8.26 -11.7 15.58 -12.58 -8.7 -0.88 -14.34 11.48 -16.72 13.48 0 -0.54 0.26 -0.58 1.18 -2.18a18.66 18.66 0 0 0 1.76 -13.82 5.62 5.62 0 0 0 -1.88 -3.62 6.72 6.72 0 0 1 1.26 3.9 25.14 25.14 0 0 1 -2.4 15.06c-2.36 -16.86 -17.54 -8.64 -13.46 -0.9a7.24 7.24 0 0 0 6.74 3.24zm-6 -9.24a5.08 5.08 0 0 1 8 -1.2 14.48 14.48 0 0 1 3.76 6.5c0.64 1.86 0.7 1.72 0.28 2.52a4.86 4.86 0 0 0 0.4 -0.5c0.24 0.66 0 0.24 5.42 -2.24 1.04 -0.46 2.1 -0.9 3.14 -1.38a3.82 3.82 0 0 1 2.9 -0.54c2.68 0.92 3.52 7.38 0 8.84s-7.82 -2.4 -10.62 -3.72c0 0 -0.62 -0.34 -0.68 -0.18s1 0.6 2.94 2.72c1.08 1.14 2.92 2.82 2.2 4.56a2.56 2.56 0 0 1 -2.46 1.6c-1.58 -0.32 -1.8 -3.76 -2.3 -6.12 -0.12 -0.52 -0.32 -1.06 -0.42 -1.58 0 0 0 -0.76 0.12 -0.78a0.56 0.56 0 0 0 -0.24 0.2 0.36 0.36 0 0 0 0 -0.2c-0.38 1.02 -0.58 0.86 -1.08 1.64s-0.9 1.7 -1.38 2.54c-3.02 5.18 -6.72 1.38 -6 -0.92s3 -1.7 6.96 -2.82a7.8 7.8 0 0 0 1.38 -0.38c0.46 -0.24 0 -0.24 -0.2 -0.24 0 0 0.54 0 0.54 -0.14s-0.44 0 -0.5 0c-2.18 0 -9.64 1.66 -12 -2.7a5.82 5.82 0 0 1 -0.06 -5.48zm-261.24 -1.28a6 6 0 0 0 -6.2 -4.2c-3.18 0.48 -5.58 4.92 -2.64 7.18a8.28 8.28 0 0 0 6 0.92c-3.48 1.34 -3.7 3.32 -1.64 5.36 1.7 1.68 4 1.2 5.14 -2.4 -0.24 2.56 2 3.52 3.48 2a2.72 2.72 0 0 0 0.78 -2.5 4.3 4.3 0 0 0 -1.86 -2.34 3.5 3.5 0 0 0 5.32 -3.06c0 -0.98 0 -2.34 -1.18 -2.68s-2.32 0.68 -3.12 1.42a19.52 19.52 0 0 1 7.84 -6 11.44 11.44 0 0 0 -8.2 5.02c-2 2.6 -2 4.46 -2.36 3.9 0 -0.18 0.14 -0.6 0.18 -0.78a36.14 36.14 0 0 1 4.48 -10.14 14 14 0 0 0 -4.94 11c-0.54 -0.82 -0.7 -1.8 -1.08 -2.7zm-9.08 1.24a3.74 3.74 0 0 1 2.18 -4.3c2.4 -1.12 5.86 0.34 7.46 5.5 0.26 0.9 -0.74 0.78 -1.3 0.78 -2.74 0.06 -7.18 0.88 -8.34 -1.98zm12.18 0a15.28 15.28 0 0 1 2.14 -1.6c0.52 -0.32 1.4 -0.88 1.88 -0.2a3.06 3.06 0 0 1 -2.7 4.32c-1.18 0 -2.98 -0.7 -2.72 -0.92 0.16 -0.6 0.9 -1.1 1.4 -1.52zm-1.76 4c0 -1.24 -0.42 -2.66 0.68 -1.76a5.82 5.82 0 0 1 2 2.58c0.28 0.96 -0.52 2.84 -1.8 2.36s-0.92 -2.04 -0.88 -3.02zM75.5 116c-1.3 1.64 -2.36 1.2 -3.5 -0.44a1.52 1.52 0 0 1 -0.16 -2 5.86 5.86 0 0 1 2.16 -1.4c0.58 -0.28 3.62 -1.56 3.48 -0.94a11.5 11.5 0 0 1 -1.98 4.78z" stroke-width="1"></path><path d="M256.44 151.74a76.8 76.8 0 0 1 9.56 -10.3 25.38 25.38 0 0 1 11.44 -5.82 18.64 18.64 0 0 1 15.62 5.62c6.88 6.52 10.82 15.52 23.52 44.66 10 23.02 14.9 36.26 24.82 41.8a15.04 15.04 0 0 0 9.18 2 28.5 28.5 0 0 0 8.46 -3.42c2.68 -1.3 5.72 -2 8 0.4 5.1 5.2 3.64 16.56 13.28 16.72 3.22 0 6.52 -1.34 9.74 -1.76v-0.4c-5.3 0.58 -11.1 3.4 -15.08 -0.98 -3.26 -3.64 -3.32 -9.08 -6.3 -12.9a6.98 6.98 0 0 0 -3.86 -2.98c-3.72 -0.74 -8 2.24 -11.44 3.26 -12.14 3.52 -20 -6.82 -24.62 -16.42 -3.66 -7.48 -6.68 -15.28 -10 -22.94 -13.78 -31.9 -17.24 -40.56 -24.36 -47.42 -5.58 -5.36 -13.74 -8.44 -21.26 -5.5s-14.14 10.92 -18.9 17.12a47.14 47.14 0 0 0 -4 5.02 164.46 164.46 0 0 0 -7.88 -28.78c-0.92 -2.46 -2 -4.92 -3.04 -7.3a36.9 36.9 0 0 0 6.16 -2.98c7.1 -4 17.56 -11.62 19.06 -12.74 8.86 -6.6 19.74 -19.22 27.4 -34.68 1.72 -3.48 2 -4.46 2.14 -4.68 1.64 -0.82 4.9 -2.56 11.58 -6a2.64 2.64 0 0 0 1.36 -1.1 1.54 1.54 0 0 0 0 -1.5c-0.28 -0.46 -3.02 -7 -3.12 -6.96a4.76 4.76 0 0 0 2.86 -5.24c-0.64 -3.3 -4.34 -4.22 -7.06 -5.08a1.76 1.76 0 0 1 -0.72 -0.48c-1.02 -2.26 -5.74 -13.4 -6.66 -15.08 -0.22 -0.42 -0.56 -0.4 -0.96 -0.22a76.18 76.18 0 0 1 -14.98 5.32c-0.76 0.24 -0.9 0.42 -0.7 0.94 0.58 1.6 4.24 10.48 8 18.62 -11.82 4.58 -30.66 15.56 -35.44 27.32 -8 0.3 -15.68 3.84 -22.9 7.26a133.28 133.28 0 0 0 -23.84 14.14c-1.04 0.74 -1.22 0.9 -4 -6 6.94 -0.1 12.46 -8.54 12.38 -15.34 0 -2.38 -0.56 -2.94 -0.2 -4a19.36 19.36 0 0 0 1.02 -4 23 23 0 0 0 -4.26 -14.94c-7.32 -11.62 -16.74 -14.98 -25.32 -13.1 -1.38 0.3 -2.7 0.9 -4 1.16a27.5 27.5 0 0 0 -4 0.8C156.66 48.6 150 72.38 163.68 86c4.32 4.18 10.32 5.5 15.16 8.38 0.42 0.24 1.5 0.58 1.58 1.06 0.34 3.56 0.82 6.24 0.96 9.82a36.92 36.92 0 0 0 -18 2.14 10.28 10.28 0 0 0 -3.14 -8c-0.5 -0.46 -2.24 -2 -2.98 -1.46s3.18 4 -0.18 6 -9.66 -2 -8.52 -8.98c0.7 -4.22 4 -6.74 5.68 -10.52a10.64 10.64 0 0 0 -2 -11.16c-0.92 -0.96 -2 -1.74 -2.9 -2.74a4 4 0 0 1 0 -5.48c1.76 -1.7 4.16 -0.28 5.82 -1.8a4.74 4.74 0 0 0 0.94 -2 3.16 3.16 0 0 0 0.12 -2c-0.98 -2.8 -6.12 -4.86 -8.68 -5.48 -10.74 -2.6 -20.42 5.5 -22.1 16.34a69.2 69.2 0 0 1 -1.54 10c-1.08 3.6 -3.56 6 -5.52 9.18a19.14 19.14 0 0 0 -2.52 15.74 14 14 0 0 0 12 9.88c2.64 0.18 5.26 -0.54 7.9 -0.54s5.72 0.92 6.64 3.48c-6.64 5.42 -14 9.78 -20.5 15.6 -8.44 7.62 -16.96 16 -11.08 28.14 4.7 9.68 14.68 17.12 24.34 21.28 7.08 3.04 16 6.24 23.86 6.54a11.2 11.2 0 0 0 2.98 -0.48c-0.3 0 -0.74 2.2 -0.82 2.54a8.54 8.54 0 0 0 0 4.2s0.58 1.28 0.7 1.14a72.52 72.52 0 0 0 -8 12.24c-0.18 0.32 -0.26 0.64 -0.66 0.48a4.18 4.18 0 0 1 -0.98 -0.7c-7.28 -5.7 -10 -17.62 -19.18 -19.6 -7.08 -1.5 -11.18 5.16 -17.22 7.22 -5.28 1.8 -10.78 -0.48 -14.68 -4.14 -6.4 -6 -9.2 -15.8 -12.2 -23.8a218.42 218.42 0 0 0 -11.56 -27.54c-4.68 -8.68 -11.72 -20 -20.68 -24.8a19.82 19.82 0 0 0 -25.34 5.68c-4.72 6 -5.76 9.84 -21.24 50v2.34L20.66 146c3.82 -10 8.36 -23.66 18.58 -29.06 12 -6.32 24 4.18 30.28 13.38 10 14.66 14.4 32 21.48 48.12 6 13.44 14.74 25.32 27.7 18.4 5.16 -2.78 12 -12.18 21.02 -1.14 4.28 5.26 7.56 12.26 12.86 15.3a165.64 165.64 0 0 0 -12.72 26 8.62 8.62 0 0 0 -0.76 4.44c0.98 5.02 5.76 8.36 9.88 10.74 2.62 1.5 9.02 4.54 10.94 5.42 0.12 0.72 2.76 13.7 3.1 16.7a384.66 384.66 0 0 0 -56 8.86c0.48 -0.12 0.8 -1.72 0.82 -2 0.4 -7.3 -8.72 -2.62 -11.88 0.54 -0.94 0.92 -4 5.24 -5.12 5.72 -0.46 0.2 -3.6 0.66 -3.68 1.06 2 -8 3.24 -12.54 9.16 -34 0.84 -3.02 2 -6.86 0 -9.68a6.1 6.1 0 0 0 -7.46 -1.86c1.62 -3.44 3.18 -6.9 4.62 -10.4a4.92 4.92 0 0 0 6 1.32 8 8 0 0 0 4.18 -5.36c0 2.96 1.54 6.4 4.86 6.74 4.24 0.46 6.46 -6.12 1.36 -9.88 3.8 0.34 10.18 -0.8 9.38 -6.16 -0.86 -5.66 -9.24 -1.64 -12.12 0 8 -13.12 -3.58 -14 -5.58 -6.5a12 12 0 0 0 0.72 6.92 17.44 17.44 0 0 0 -4.56 -4.74c-7.86 -4.82 -13.72 5 -6.58 8a16.52 16.52 0 0 0 8 0.74 10.52 10.52 0 0 0 -5.3 3.76 5.24 5.24 0 0 0 -0.58 4c-0.52 1.18 -1.14 2.34 -1.7 3.52l-1.74 3.8a33.4 33.4 0 0 1 -2 4.8c-0.48 0.7 -1.4 1.12 -2 1.72 -7.5 7.88 -7.38 27.54 -6.86 38.26 -2.22 -12.7 -5.84 -27.42 -11.3 -37.88a5.04 5.04 0 0 0 4 0.94c4.22 -0.94 4.2 -8 -2 -9.8 2.86 -0.8 6.66 -2.44 7 -5.82a4.92 4.92 0 0 0 -2 -4.68c-3.04 -1.64 -7.62 3.1 -9.76 5.82 3.26 -16.98 -11.5 -10.7 -6.54 -0.94a14.6 14.6 0 0 0 0.76 1.3c0.2 0.32 0.42 0.82 0.78 1a14.46 14.46 0 0 0 -8 -2.12 5.78 5.78 0 0 0 -5.34 6.2c0.38 3 3.56 4 6.18 3.72a18.8 18.8 0 0 0 6.34 -2.1c-2.38 2.22 -5.26 6 -3.04 9.24 1.7 2.5 5.28 1.68 7.16 -0.14a7.5 7.5 0 0 0 2 -5.74 7.48 7.48 0 0 0 1.12 1.76 217.5 217.5 0 0 1 13.1 44.82 8 8 0 0 1 0 1.68l-1.64 0.58c0.2 0 -6.22 -20.4 -13.44 -24.58a7.54 7.54 0 0 0 -6.74 -0.74c-4.7 2.12 -3.22 7.28 0 12.56 0.84 1.4 11.54 15.76 11.74 15.68a309.06 309.06 0 0 0 -48.32 21.16c-2.36 1.3 -7.5 4.44 0.98 1.12 4 -1.52 48 -20.66 48.26 -20.76 1.78 1.6 4.96 9.56 5.36 10.74 0.24 0.72 0.82 0.62 0.66 -0.12 -3.5 -15.52 -24.28 -29.56 -19.56 -38.1 1.3 -2.38 6.18 -2.5 10.5 2.98 6 7.54 11.54 26.14 12.46 32.82 0 0.46 0 1.52 0.5 1.82s0.56 -0.98 0.54 -1.26c-0.82 -6.6 -0.66 -12.98 -1.02 -19.62 -0.58 -10.26 -0.7 -23.86 3.34 -33.34a18.36 18.36 0 0 1 3.18 -5.68 6.72 6.72 0 0 1 6 -2.76 4.9 4.9 0 0 1 4 4 15.02 15.02 0 0 1 -1.08 7.24c-1.02 3.28 -7.54 26.16 -9.18 33.2 -0.66 2.82 -1.26 5.62 -1.88 8.44a49.1 49.1 0 0 0 -1.52 8.32c0 0.44 0 2.3 0.84 1.76s1.28 -2.92 1.68 -4a54 54 0 0 1 10.36 -18.52c9.22 -9.86 13.62 -5.8 10 0.76s-13.06 10.18 -18.38 20.46c-0.32 0.66 -1.22 2 -0.88 2s0.8 -0.98 1.16 -1.54a53.52 53.52 0 0 1 8.76 -10.62c2 -1.8 8 -6.72 9.1 -8.68 0.7 -1.18 1.08 -1.02 2.56 -1.4 11.54 -3 23.3 -5.2 35.06 -7.1 6.76 -1.08 13.52 -1.5 20.28 -2.46 2 18.36 5.3 42.14 8.62 61.08 4 22.36 6.8 32.42 6.62 33.58 -0.34 2.36 -0.96 5.46 2 6.32a36.12 36.12 0 0 0 10.66 1.16c1.78 0 14.56 0.3 12.18 -4a8.24 8.24 0 0 0 -5.02 -2.98c-2.52 -0.8 -5.02 -1.76 -7.56 -2.52 -0.34 -0.1 -0.52 -0.16 -0.54 -0.5a4.7 4.7 0 0 1 0.28 -1.04c10 3.78 12.6 4 13.86 6.4 0.42 0.76 0 1.88 1.76 0.68a2.8 2.8 0 0 0 0.56 -3.6 16.64 16.64 0 0 0 -4.2 -4.5c-0.44 -0.4 -5.38 -4.78 -5.4 -4.74A397.42 397.42 0 0 0 243.2 302c5.2 -8.26 12 -20.88 12.76 -30.54 3.32 0.12 19.22 1.16 32.42 2.64 16.46 1.84 42.1 6.6 43.02 7.06s0.84 1.18 0.98 1.86c1.46 6.7 3.26 13.3 4.62 20 4.64 22.82 2.8 20 3.7 29.24 -0.42 -4.32 -4.18 -10.22 -6.18 -14.2a111.36 111.36 0 0 0 -8.86 -14.76c-5.08 -7.1 -12.36 -16.88 -21.38 -18.86a5.02 5.02 0 0 0 -5.78 3.3c-3.28 8.46 12.48 21.04 18.92 26.48s12.9 11.38 16.86 19.08a28.12 28.12 0 0 1 2.6 6.88c0.18 1 1.06 1.8 0.28 -0.94 -2.54 -9.24 -7.52 -15.04 -15 -21.82 -3.56 -3.2 -32.24 -25.12 -20.84 -31.6 4 -2.22 9.42 2.68 12 5.1 11.62 10.84 19.48 24.46 25.46 38.92 0.88 2.12 1.84 4.38 2.56 6.56 0.14 0.38 0.22 1.18 0.62 1.4 1.08 0.56 0.12 -2 0 -2.24 -0.9 -3.62 -0.78 -15.36 -2.26 -23.36 -7.32 -39.08 -16.46 -56.28 -12 -65.08a5.76 5.76 0 0 1 8.84 -2c3.9 2.64 5.08 7.54 6 11.86 6 26.16 1.54 79.8 3.06 81.54a0.66 0.66 0 0 0 0.98 0c0.5 -0.48 0.46 -1.42 0.56 -2 0.24 -1.48 0.6 -2.96 0.92 -4.42a115.5 115.5 0 0 1 12.58 -34.66c4.18 -7 12 -18 18.48 -12.98a4.2 4.2 0 0 1 1.06 5.38c-2.22 5.88 -11.54 15.5 -22 31.6a64.42 64.42 0 0 0 -8.18 16.54 16.46 16.46 0 0 0 -0.42 3.16c0 0.44 0.36 0.48 0.46 0a30.14 30.14 0 0 1 3.4 -9.82c5.04 -9.34 18 -26.72 24 -34.82 1.72 -2.32 1.22 -2.36 2.28 -2 2.7 1 5.2 1.72 10 3.48v-1.4c-2.52 -0.98 -5.52 -2.16 -10 -3.72a14.78 14.78 0 0 0 1.48 -3.28c1.82 -6.42 -5.72 -10.86 -13.32 -4 -1.34 1.22 -1.9 2.66 -3.84 2 -13.82 -4.72 -14.88 -3.72 -17.58 -4.88 0 -2.4 0.14 -20.14 -5.32 -32.74 -1.64 -3.84 -3.88 -6.6 -6.94 -7.06a7.28 7.28 0 0 0 -8.26 4.98c-2.42 6.76 2.7 19.78 5.42 31.26A363.72 363.72 0 0 0 256 270.4a46.68 46.68 0 0 0 -0.92 -10.88c-0.2 -1.34 -0.44 -2.86 0.84 -3.74 1.62 -1.1 8.44 -2.94 10.32 -9.82s-1.34 -15.5 -4 -29.78A192 192 0 0 0 252.4 180c-0.44 -1.16 -1.68 -3.06 -0.84 -4.3 0.48 -0.68 1.36 -0.9 2 -1.36 3.64 -2.52 2.7 -3.22 1.74 -4.74a45.68 45.68 0 0 1 -4.2 -9.16 2 2 0 0 1 0 -2c1.66 -2.44 3.7 -4.44 5.34 -6.7zM111.6 218.48c1.4 -0.56 3.72 -1.54 5.16 -0.6 1.06 0.68 0.9 2.36 0.54 3.4 -0.88 2.54 -4.14 2.88 -6.44 2.82a19.28 19.28 0 0 1 -6.36 -1.38 19 19 0 0 1 7.1 -4.24zm-9.34 -6.16c1.5 -3.8 5.06 -4.16 6.18 -2.44 1.7 2.62 -2.5 9.1 -4.66 11.68 -0.36 0.42 -0.5 0.26 -0.66 -0.2 -1.02 -2.86 -2.1 -5.94 -0.86 -9.04zm-10.38 9.86c-8 -2.68 1.1 -14.98 10.4 -2a13.04 13.04 0 0 1 0.86 1.66c-3.36 0.66 -7.78 1.5 -11.26 0.34zm2 7.06c1.44 -4 6.92 -4.56 9.06 -6 0.16 -0.1 0.66 -0.54 0.88 -0.44 -1.32 1.58 6.14 1.4 7.8 6.22a4.46 4.46 0 0 1 -0.78 4.62 3.6 3.6 0 0 1 -4.72 -0.2c-3.64 -2.94 -1.18 -9.14 -1.78 -9.42s0 4.28 -2.82 7.56a5.34 5.34 0 0 1 -5.42 1.84 3.26 3.26 0 0 1 -2.3 -4.18zm-25.02 0.58c1.26 -1.12 3.74 -3.08 5.14 -2.14a4 4 0 0 1 0.5 4.86c-2 2.92 -7.26 3.8 -10.8 3.84a18.96 18.96 0 0 1 5.08 -6.56zm-9.32 2.78A8.72 8.72 0 0 1 58 226c0.4 -1.58 1.7 -3.52 3.54 -3.42 3.62 0.2 2.52 7.58 1.66 11.1 -0.4 1.58 -0.48 2.48 -1.24 2a17.3 17.3 0 0 1 -2.5 -3.08zm-10.44 7.26a3.8 3.8 0 0 1 -1.28 -5.1c2.34 -4.44 9.22 -2.72 13.28 0.46 0.2 0.16 1.02 0.62 0.92 0.92s-0.54 0.32 -0.62 0.38c-3.4 1.98 -9.06 5.2 -12.38 3.34zm14.9 5.48c-1.24 4.88 -7.16 5.36 -8 1.56 -0.64 -3.02 2.32 -6 4.7 -8.32 0.46 -0.44 1.78 -2.14 2.46 -1.32a15.04 15.04 0 0 1 0.84 8.08zm0.18 -6.84a2.86 2.86 0 0 1 -0.38 -1.12c0 -0.42 0.38 -0.38 0.72 -0.32 3.06 0.52 6.28 0.56 8 2.86a4.26 4.26 0 0 1 0.44 5.1 4.12 4.12 0 0 1 -5.5 0.14c-2.3 -1.7 -2.6 -5.04 -3.32 -6.66zM79.66 300c-0.4 -2 -0.9 -4 -1.3 -5.6a3.3 3.3 0 0 1 -0.26 -0.94c0 -0.44 0.84 -0.5 1.2 -0.6zm5.12 -0.54c0.9 -4.96 1.5 -7.2 1.66 -8 0 -0.32 0 -0.64 0.34 -0.84a3.1 3.1 0 0 1 1.12 -0.3c0.56 -0.14 1.12 -0.34 1.68 -0.5a69.36 69.36 0 0 0 -4.8 9.64zm262 -14.68c6 1.5 12 3.12 17.76 4.9 -9.64 12.14 -14.44 27.22 -17.76 42.3 0.18 -15.8 0.74 -30.8 0.04 -47.2zM299.02 41.04a8.56 8.56 0 0 1 6 3.66 3.54 3.54 0 0 1 -3.56 4.8c-0.62 -0.14 -1.68 -0.72 -1.04 -1.46s1.26 -0.28 1.66 -0.8c0.82 -1.04 -3.48 -0.38 -3.56 -2s2.34 -0.76 2.96 -0.86 0.74 -0.52 0.18 -0.86a15.64 15.64 0 0 0 -3.32 -1.04c-1.58 -0.48 -0.54 -1.64 0.68 -1.44zm-21.5 -8.6c0 -0.24 -0.62 -1.12 -0.54 -1.36s0.9 -0.36 1.22 -0.46a82 82 0 0 0 13.22 -4.84L298 40.4a3.36 3.36 0 0 0 -1.24 0.58c-1.5 1.32 1.3 2.5 2.24 2.7a1.22 1.22 0 0 0 -1.32 1.12c0 0.9 0.62 2 2.74 2.16a1.86 1.86 0 0 0 -1.1 2.48 2.7 2.7 0 0 0 2.52 1.5c0.62 0 0.8 0 1.08 0.58L306 58c0.28 0.6 0 0.74 -0.56 1.06l-12.62 6.5c-0.22 0.12 -9.72 -19.32 -15.3 -33.12zM179.8 87.7a32.7 32.7 0 0 1 -0.86 -4.52 5.22 5.22 0 0 1 -4.82 -0.26c-3.02 -1.78 -3.36 -5.36 -1.46 -6.24 4 -1.86 4.22 7.2 14.12 12.98 0.38 0.2 1.02 0.58 1.4 0.16s-0.36 -1 -0.76 -1.28a14.92 14.92 0 0 1 -5.54 -13.82c0.84 -6.62 7.34 -13.2 4.84 -19.24a22.5 22.5 0 0 1 4.64 0 15.76 15.76 0 0 1 2.18 0.16 20.12 20.12 0 0 1 9.14 4.98c0.5 0.52 0.52 0.86 1.78 3.68 1.82 4 4 8.28 3.86 12.6a16.76 16.76 0 0 1 -5.14 11.46 9.18 9.18 0 0 1 -5.48 2.58c-0.56 0 -1.26 -0.28 -1.56 0.42 -0.64 1.5 2.72 5.42 2.78 6.24 0 1.12 -2.38 2.5 -3.2 2.96 -5.74 3.18 -13.44 0.7 -14.16 0.98 -0.32 -3.36 -1.18 -10.34 -1.76 -13.84zm-17.6 101.72a0.98 0.98 0 0 1 0.66 -0.8 8.56 8.56 0 0 0 4 -3.72c1.24 -1.84 1 -2 2.18 -1.3a19.42 19.42 0 0 1 5.2 7.02c0.22 0.4 0.6 1.02 0.22 1.44 -0.8 0.9 -2 -0.42 -2.42 -1.04s-0.48 -0.8 -0.96 -0.72 -0.56 0.78 -0.6 1.2c-0.36 4.3 0.2 6.22 -0.76 6.44s-1.54 -3.42 -1.74 -4.42a1.62 1.62 0 0 0 -0.48 -1.02c-0.4 -0.28 -0.88 0 -1.02 0.46a5 5 0 0 0 0 1.64v2.18c0 1.54 0.24 2.14 -0.3 2.16 -1.5 0 -1.24 -4.24 -1.24 -5.14 0 -0.4 0 -1.04 -0.48 -1.16 -0.96 -0.28 -1.12 2.22 -1.34 2.74s-0.66 0.8 -0.94 0a9.76 9.76 0 0 1 0.02 -5.96zM189.24 362c-0.26 1.32 -0.58 2.62 -0.8 4 0 0.32 0 0.8 -0.36 0.98s-6.58 0.38 -7.4 0.48c-0.42 0 -0.64 0.16 -0.74 -0.32 -1.8 -9.08 -4.84 -20.5 -9.48 -49 -4 -25.16 -6 -45 -9.32 -60a110.2 110.2 0 0 0 19.28 6c7.84 1.82 23.36 5.2 30.46 1.32 -4.46 25.24 -7.44 32.94 -17.48 75.46 -1.66 6.88 -2.76 14.04 -4.16 21.08zm64.6 -105.2c1.76 17.68 4.2 25.86 -32.98 73.2 -7.26 9.24 -14.82 18.24 -22.84 26.64 -0.92 0.96 -1.84 2.42 -3.36 2.28 -0.52 0 -2.72 -0.44 -2.6 -1.14 3.7 -21.22 14.24 -57.32 19.76 -91.8a3.34 3.34 0 0 1 0.8 -2c3.44 -3.6 1.14 -10.66 2.42 -20.78 0.62 0.92 0.84 2 1.46 8.84a84 84 0 0 1 0.14 9.52c0 5.14 5.14 3.88 8.66 3.44a100.7 100.7 0 0 0 28.54 -8.16zm-0.74 -86.8c1.24 1.82 -2 3.8 -3.26 4.54 -18.4 11.64 -40.52 18.94 -62.5 15.64 -16.78 -2.52 -14.72 -5.52 -19.2 -7.28a4.48 4.48 0 0 0 0.88 -3.32 32.52 32.52 0 0 0 -0.9 -4.62c-1.6 -4.8 0.5 -10 0.18 -15 -0.12 -1.84 -0.24 -3.66 -0.34 -5.5a6.78 6.78 0 0 1 0.32 -4.32c0.8 -1.18 2.82 -4 2.6 -4.38s-0.3 -0.16 -0.42 0c-0.64 0.88 -1.4 1.68 -2 2.56a24.5 24.5 0 0 1 -2.12 2.64c-0.56 0.62 -6.7 6.2 -6.56 6.4a56.14 56.14 0 0 0 -17.06 -16c10.74 6.4 16.86 17.26 22 28.38 1.48 3.2 4.5 8.36 2.64 12 -3.22 6.24 -7.02 7.18 -13.82 5.28 -14.88 -4.2 -36.68 -11.72 -42 -28.34 -3.84 -11.86 6 -20 14.26 -26.64 5.18 -4.16 10.62 -8 16 -11.76a4.64 4.64 0 0 1 1.86 -0.92c2 -0.34 3.88 1.22 5.82 1.36 6 0.44 12.7 -5.2 13.48 -11.04 0 -0.86 0.26 -1.34 1.14 -1.58 2.76 -0.78 10 -3.48 16.58 -2.38 0.4 0 1.02 0.2 1.16 -0.28a4 4 0 0 0 -0.12 -1.28v-1.46c6.2 1.06 13.88 1.46 18.18 -4a11.16 11.16 0 0 0 1.64 1.5 2.94 2.94 0 0 0 2.26 0c-1.66 0.18 -2 0 -2.92 -1.1 9.3 -5.66 26.62 -15 36.68 -18.76a55.74 55.74 0 0 1 10.74 -3.02c0.32 0 0.2 0 0.38 -0.26 6.5 -10.62 24.22 -21.2 35.4 -26.72 3.38 7.3 8 16.26 8.12 16.46s0.1 0.14 0.18 0.16a121.06 121.06 0 0 1 -18.9 27.74 110.44 110.44 0 0 1 -34.12 25.88c-0.58 0.3 -0.72 -0.54 -0.94 -0.94a23.78 23.78 0 0 0 -4.14 -5.8c3.28 3.62 4.98 8.6 6.54 13.14 5.58 16.4 5.66 21.76 7.62 30.48a37.08 37.08 0 0 0 4.66 12.54zm-86 -8.32c-0.24 3.28 -0.54 6.56 -0.58 9.84a105.82 105.82 0 0 0 -5.6 -12.44c-0.16 -0.26 -0.54 -0.62 -0.44 -0.98 0.22 -0.82 1.34 -1.32 2 -1.84 1.52 -1.34 2.94 -2.8 4.34 -4.28a31.8 31.8 0 0 1 0.26 9.7z" stroke-width="1"></path></g></svg>