<svg xmlns="http://www.w3.org/2000/svg" viewBox="0 0 400 400" id="Magician-2--Streamline-Milano.svg" height="400" width="400"><desc>Magician 2 Streamline Illustration: https://streamlinehq.com</desc><g fill="#000000"><path d="M234.76 111.04a0.34 0.34 0 0 0 -0.64 -0.18 5.76 5.76 0 0 0 -0.7 2.22 0.36 0.36 0 0 0 0.66 0.18 5.42 5.42 0 0 0 0.68 -2.22zm5.82 1.44a15.12 15.12 0 0 0 -0.36 2.28 0.36 0.36 0 0 0 0.72 0 6 6 0 0 0 0.24 -2.3 0.3 0.3 0 0 0 -0.6 0.02zm-3.3 31.86a6.68 6.68 0 0 0 2.5 0.62 3.6 3.6 0 0 0 4 -1.48c0.84 -1.5 1.08 -4.12 0 -4.98s-5.38 -1.34 -6.26 -0.6 -1.7 5.5 -0.24 6.44zm3.5 77.66a3.72 3.72 0 0 0 -1.74 5.76 3.42 3.42 0 0 0 3.72 1.48 4.54 4.54 0 0 0 1.1 -6.54 3.26 3.26 0 0 0 -3.08 -0.7zM336 168.94a0.82 0.82 0 0 0 -0.38 1.28 0.76 0.76 0 0 0 0.82 0.32c0.6 -0.28 0.54 -1.86 -0.44 -1.6zm-196.74 -4.3a1.22 1.22 0 0 0 -0.56 1.88 1.16 1.16 0 0 0 1.22 0.48 1.48 1.48 0 0 0 0.36 -2.12 1.12 1.12 0 0 0 -1.02 -0.24zm75.42 55.86a3.74 3.74 0 0 0 -1.74 5.78 3.4 3.4 0 0 0 3.72 1.46 4.54 4.54 0 0 0 1.1 -6.54 3.3 3.3 0 0 0 -3.08 -0.7zM91.58 153.36c0.5 0.96 1.08 0.46 0.9 -0.26 -0.1 -0.42 -0.62 -2.56 -1 -2.66s-0.72 0.2 -0.58 0.72a20.96 20.96 0 0 0 0.68 2.2zm14.82 -1.66a9.86 9.86 0 0 0 0.14 -2.56 0.42 0.42 0 0 0 -0.8 0 9.82 9.82 0 0 0 0 2.54c0.06 0.32 0.44 0.32 0.66 0.02zm-6.7 5.92a0.48 0.48 0 0 0 0.64 0c0.12 0 1 -1.08 0.72 -1.54s-0.48 -0.26 -1.7 -0.26a0.5 0.5 0 0 0 -0.48 0.32c-0.16 0.48 0.68 1.34 0.82 1.48zm26.4 -81.38c8.6 -9.42 31.52 -32.96 34 -35.66a0.38 0.38 0 0 0 -0.54 -0.54C157.12 42.18 128 73.06 125.64 75.8c-0.26 0.3 0.18 0.74 0.46 0.44zM100.28 62.2c0.92 -4.74 6.7 -23.12 8.44 -27.64 0.14 -0.36 -0.46 -0.62 -0.64 -0.26A172.84 172.84 0 0 0 99.76 62c-0.04 0.38 0.44 0.54 0.52 0.2zm-21.52 -6.02c0 0.36 0.6 0.2 0.54 -0.14 -1.76 -10.86 -6.42 -38.72 -7.12 -41.74 -0.18 -0.3 -0.74 -0.3 -0.7 0.1 0.32 2.68 6.72 38.68 7.28 41.78zM38 59.04c-0.3 -0.26 -0.76 0.16 -0.44 0.44 6 5.42 12 10.86 17.56 16.78 0.34 0.36 0.86 -0.16 0.54 -0.52A154.92 154.92 0 0 0 38 59.04zm8.6 42.14c-9.38 -1.7 -33.48 -6 -36.16 -6.46 -0.44 0 -0.64 0.6 -0.18 0.68 9.34 1.84 33.48 6 36.14 6.44 0.44 0.16 0.62 -0.58 0.2 -0.66zm284.88 -30.74A32.4 32.4 0 0 0 334.4 68c0.74 0.36 3.18 0.84 2.88 0.38a23.42 23.42 0 0 1 -1.24 -2c1.1 -1.16 3.22 -4.58 2.7 -4.44 -1.44 0.34 -2.88 0.62 -4.34 0.88 -0.44 -1.14 -2 -3.84 -2.14 -3.32 -0.16 1.24 -0.34 2.48 -0.52 3.74 -1.34 0.18 -4.78 1.18 -4.26 1.42l3.78 1.86c-0.16 0.94 -0.28 4.32 0.22 3.92zm38.82 -13.72c0.22 -0.52 0.44 -1.04 0.7 -1.54s-1.68 0.16 -2.16 0.52c-0.5 -0.38 -2 -1.38 -2.16 -1.26a6.74 6.74 0 0 0 0.48 2.58c-0.36 0.3 -1.64 1.18 -1.64 1.42s1.76 0.6 2.38 0.6c0.14 0.36 0.26 0.7 0.38 1.04s1.12 -0.72 1.22 -1.06q1.16 0 2.34 -0.18c0.48 -0.06 -0.96 -1.74 -1.54 -2.12zm-26.44 -36.36c0 0.1 0.36 0.68 0.6 0.66s0.52 -0.58 0.56 -0.68 1.36 -0.22 1.42 -0.46 -0.7 -0.88 -0.92 -1.02 0.3 -0.96 0.1 -1.12 -0.96 0.3 -1.12 0.42 -0.98 -0.64 -1.18 -0.52 0 1.16 0 1.44 -0.76 0.48 -0.74 0.72 1.04 0.54 1.28 0.56zm-79.02 14.32c0 0.1 0.38 0.68 0.6 0.68s0.54 -0.6 0.56 -0.7 1.38 -0.22 1.42 -0.46 -0.7 -0.88 -0.92 -1.02c0 -0.16 0.3 -0.96 0.1 -1.1s-0.94 0.28 -1.1 0.42 -0.98 -0.66 -1.2 -0.52 0 1.16 0 1.42 -0.76 0.48 -0.76 0.74 1.06 0.54 1.3 0.54zm9.62 2.7s-0.98 -0.66 -1.18 -0.52 0 1.14 0 1.42 -0.76 0.48 -0.74 0.72 0.98 0.56 1.22 0.56 0.36 0.68 0.6 0.68 0.52 -0.58 0.54 -0.7c0.32 0 1.38 -0.22 1.44 -0.46s-0.7 -0.88 -0.92 -1.02 0.3 -0.96 0 -1.1 -0.8 0.28 -0.96 0.42zm-2.04 -20.52c0 0.1 0.36 0.68 0.6 0.66s0.52 -0.58 0.56 -0.7 1.36 -0.2 1.42 -0.44 -0.7 -0.88 -0.92 -1.02 0.3 -0.96 0.1 -1.12 -0.96 0.3 -1.12 0.42 -0.98 -0.64 -1.18 -0.52 0 1.44 0 1.44 -0.76 0.48 -0.74 0.72 1.04 0.54 1.28 0.56zm-12.06 60.28s0.38 0.68 0.6 0.68 0.54 -0.6 0.56 -0.7 1.38 -0.22 1.42 -0.44 -0.7 -0.9 -0.92 -1.04c0 -0.16 0.3 -0.96 0.1 -1.1s-0.94 0.28 -1.1 0.42 -0.98 -0.66 -1.2 -0.52 0 1.16 0 1.44 -0.76 0.46 -0.76 0.72 1.06 0.54 1.3 0.54zm41.52 28.08c0 0.3 0.98 0.56 1.22 0.56s0.36 0.68 0.6 0.68 0.52 -0.6 0.56 -0.7 1.36 -0.22 1.42 -0.46 -0.7 -0.88 -0.92 -1.02 0.3 -0.96 0.1 -1.12 -0.96 0.3 -1.12 0.44 -0.98 -0.66 -1.18 -0.52 0 1.44 0 1.44 -0.7 0.46 -0.68 0.7zm45.54 -33.42c0 0.3 0.98 0.54 1.22 0.56s0.36 0.68 0.6 0.66 0.52 -0.58 0.56 -0.7 1.36 -0.2 1.42 -0.44 -0.7 -0.88 -0.92 -1.02 0.3 -0.96 0 -1.12 -0.96 0.3 -1.12 0.42 -0.98 -0.64 -1.18 -0.52 0 1.16 0 1.44 -0.6 0.46 -0.58 0.72zm-37.94 -12.78c0 0.3 0.98 0.54 1.22 0.56s0.38 0.68 0.6 0.66 0.54 -0.58 0.56 -0.7 1.36 -0.2 1.42 -0.44 -0.7 -0.88 -0.92 -1.02 0.3 -0.96 0 -1.12 -0.94 0.3 -1.1 0.42 -0.98 -0.64 -1.2 -0.52 0 1.44 0 1.44 -0.58 0.46 -0.58 0.72zm27.36 15.28c0.1 0.28 0.6 1.24 0.84 1.24s0.66 -0.94 0.72 -1.2 1.06 0 1.1 -0.28 -0.56 -0.76 -0.74 -0.88 0.22 -1.26 0 -1.36 -1.06 0.4 -1.26 0.56 -0.66 -0.58 -0.9 -0.5 -0.24 1.1 -0.18 1.34 -0.52 0.7 -0.4 0.88 0.76 0.2 0.82 0.2zm28.56 34.88c0 -0.16 0.32 -0.96 0.12 -1.12s-0.96 0.3 -1.12 0.44 -0.98 -0.66 -1.2 -0.52 0 1.14 0 1.42 -0.76 0.48 -0.76 0.72 1 0.56 1.24 0.56 0.36 0.68 0.58 0.68 0.54 -0.6 0.56 -0.7c0.32 0 1.38 -0.22 1.42 -0.46s-0.6 -0.88 -0.84 -1.02zm16.46 -47.32c0 -0.16 0.3 -0.96 0 -1.12s-0.96 0.3 -1.12 0.42 -0.98 -0.64 -1.18 -0.52 0 1.16 0 1.44 -0.76 0.48 -0.74 0.72 0.98 0.56 1.22 0.56 0.36 0.68 0.6 0.68 0.52 -0.6 0.56 -0.7 1.36 -0.22 1.42 -0.46 -0.62 -0.88 -0.76 -1.02zm7.22 -14.04c0 -0.16 0.3 -0.96 0.1 -1.12s-0.96 0.3 -1.12 0.44 -0.98 -0.66 -1.18 -0.52 0 1.44 0 1.44 -0.76 0.46 -0.74 0.7 0.98 0.56 1.22 0.56 0.36 0.68 0.6 0.68 0.52 -0.6 0.56 -0.7 1.36 -0.22 1.42 -0.46 -0.64 -0.84 -0.86 -1.02zm-54.5 -22.54s0.36 0.7 0.6 0.68 0.52 -0.58 0.56 -0.7 1.36 -0.2 1.42 -0.44 -0.7 -0.88 -0.92 -1.04 0.3 -0.94 0 -1.1 -0.96 0.3 -1.1 0.42 -1 -0.64 -1.2 -0.52 0 1.16 0 1.44 -0.76 0.48 -0.74 0.72 1.14 0.54 1.38 0.54z" stroke-width="1"></path><path d="M365.18 84.84c-0.16 -0.56 -1.26 -2.16 -1.36 -1.7s-0.26 1.2 -0.4 1.82h-2.16a22.36 22.36 0 0 0 4.32 -12.9 19.72 19.72 0 0 0 -3.74 -11.52 23.8 23.8 0 0 0 -10 -7.4c-8.78 -3.6 -25 -3.74 -30.32 -3.58 -9.58 0.28 -19.52 2.16 -27.4 8 -3.38 2.46 -7.42 6 -7.64 10.5a6.1 6.1 0 0 0 2.36 5.2c4 2.98 15.32 2.28 20.26 1.7a63.76 63.76 0 0 0 21.02 -6.22c0.46 -0.22 0 -0.88 -0.38 -0.66a69.06 69.06 0 0 1 -34.48 6.24 12 12 0 0 1 -5.52 -1.5 5.3 5.3 0 0 1 -2.32 -5.52 10.94 10.94 0 0 1 3.32 -5.66c6.28 -6.5 15.32 -9.2 24 -10.62s24.78 0 29.54 0.96c22.34 4.46 25.5 23.82 12.96 36.18 -12 11.82 -36.52 14 -52.86 9.7a13.48 13.48 0 0 1 -6 -3c-4.12 -4 -3.1 -10.84 7.3 -13.28a30.5 30.5 0 0 1 27.76 7.82c0.26 0.26 0.64 -0.14 0.4 -0.4 -12.9 -13.36 -36.44 -10.48 -38.44 -0.24a7.08 7.08 0 0 0 1.44 5.64c2.9 3.82 8.26 4.68 12.7 5.42 17.2 2.88 41.08 -0.3 51.3 -14.28a8.92 8.92 0 0 0 2 1.52c0 0.46 -0.3 2.6 0.24 2.26a15.28 15.28 0 0 0 1.58 -1.16c0.34 0.2 2 0.36 1.68 0s-0.32 -0.62 -0.46 -0.94c0.6 -0.52 2 -2 1.84 -2.26a8.14 8.14 0 0 0 -2.54 -0.12z" stroke-width="1"></path><path d="M340 103.88c-0.54 0 -1.06 0 -1.6 -0.16 -0.2 -1.14 -1.48 -4 -1.66 -3.56 -0.42 0.98 -0.88 2 -1.36 2.92 -0.84 -0.24 -3.3 -0.3 -2.96 0 0.66 0.62 1.3 1.26 2 2 -0.46 0.86 -1.18 3.46 -0.74 3.24l2.64 -1.36c0.54 0.52 2.68 2.2 2.66 1.54a26 26 0 0 0 -0.22 -2.8c0.5 -0.36 1.74 -1.7 1.24 -1.82zm-60.66 -22.2 3 -0.14c0.28 0.72 1.48 3.16 1.74 2.58a25.68 25.68 0 0 0 1 -2.7h1.72a0.5 0.5 0 0 0 0.24 -0.94c-0.48 -0.26 -0.96 -0.54 -1.42 -0.84 0.3 -1.1 0.54 -2.22 0.8 -3.34a0.54 0.54 0 0 0 -0.88 -0.52c-0.78 0.7 -1.58 1.36 -2.4 2 -0.64 -0.56 -1.28 -1.14 -1.9 -1.74 -0.32 -0.3 -0.98 0 -0.8 0.48 0.34 0.84 0.66 1.72 0.98 2.58 -0.78 0.56 -1.56 1.1 -2.36 1.62a0.54 0.54 0 0 0 0.28 0.96zm15.76 -33.02 2.28 1.14a12.22 12.22 0 0 0 -0.34 2.48 0.52 0.52 0 0 0 0.68 0.18c0.64 -0.5 1.24 -1.04 1.84 -1.58l1.26 0.62c0.42 0.22 0.98 -0.24 0.68 -0.68s-0.48 -0.78 -0.7 -1.18c0.66 -0.68 1.32 -1.4 2 -2.12a0.52 0.52 0 0 0 -0.5 -0.88c-0.86 0.2 -1.7 0.36 -2.56 0.5 -0.24 -0.66 -0.48 -1.32 -0.68 -2a0.5 0.5 0 0 0 -0.96 0.12c0 0.72 -0.2 1.46 -0.3 2.18l-2.36 0.24c-0.56 0.02 -0.84 0.72 -0.34 0.98zm49.5 113.06c2.72 -0.18 2.78 -2.58 1.9 -2.78a1.14 1.14 0 0 0 -0.64 -1.72 1.24 1.24 0 0 0 -1.12 -2c0.5 -0.9 -0.26 -1.78 -1.68 -1.34 -3.06 -11.32 -9.06 -40.86 -9.64 -44.14a0.46 0.46 0 0 0 -0.56 -0.32L330 110a0.44 0.44 0 0 0 -0.3 0.54c3.16 11.5 10.3 43.82 10.42 44.24a10.32 10.32 0 0 0 -6.12 5.38 10 10 0 0 0 -1.08 -1.16 1.18 1.18 0 0 0 -0.9 0c-10.22 6.66 -26.58 21.28 -28.4 22.98 -3.3 -7.34 -16.28 -32.28 -46.94 -37.7 -0.52 -1.44 -0.98 -2.9 -1.36 -4.4 0.2 -0.64 0.38 -1.3 0.56 -2 0.34 -1.2 -0.42 -1.38 -1.46 -1.22 -1.8 0.28 -3.56 0.66 -5.34 1.06 0 -0.7 0.8 -4.6 0.8 -4.64 7.74 -1.8 8.58 -10.42 8.62 -10.6 2.3 -3.04 8.26 -11.02 9.28 -14.7a9.56 9.56 0 0 0 -4.2 -10.88 26.6 26.6 0 0 0 -8.42 -2.88 16.2 16.2 0 0 1 -8 -3.48c-4.78 -3.04 -9.62 -2 -11.7 1.22a19.8 19.8 0 0 0 -3.52 0.34c-3.38 1.1 -5.68 4.62 -4.42 10a16.84 16.84 0 0 0 3.82 5.42c-0.3 2.28 -1.58 15.08 -1.56 15.24 -0.6 0 -2.46 -0.22 -2.16 -3.16 -2.58 4.84 1.5 6.58 2.82 6.84 0.52 2.22 4 4 5.82 4.32a44.36 44.36 0 0 1 -0.58 6c-0.16 0 -5.58 -2.9 -6 -2.96 -1.06 -0.16 -1.32 3.3 -1.38 3.64 -1.22 1.3 -3.76 4 -3.82 4a171.64 171.64 0 0 1 -70 13.46c-6.64 -0.12 -13.22 -0.68 -19.84 -1.42a0.86 0.86 0 0 0 -0.62 0.42 2.3 2.3 0 0 0 -0.28 0.76 6.74 6.74 0 0 0 -7.3 -2.32 18.26 18.26 0 0 0 -9.64 -2A18.84 18.84 0 0 0 104 140c13.86 -11.18 20.7 -42 8.24 -57.68a6.48 6.48 0 0 0 -5.74 -2.94 0.5 0.5 0 0 0 -0.36 0.48 146.56 146.56 0 0 1 -4.86 59.7 19.12 19.12 0 0 0 -9.18 1.52 71.8 71.8 0 0 1 -10.42 -14.22 90.94 90.94 0 0 1 -10.48 -38c0 -1.48 -0.14 -2.98 0 -4.46 0 -2.18 -7.62 2.86 -8.44 14.52A60.3 60.3 0 0 0 64.8 118c3.84 13.32 12.28 22 22.74 26 -4 2.92 -5.68 8.78 -6 10.88a20.56 20.56 0 0 0 -9.54 2.8c-7.04 4.16 -5.32 10.58 9.38 12.38a97.24 97.24 0 0 1 -0.64 28.5c-0.26 1.3 -2 7.84 -2 8a12 12 0 0 0 6.38 5.24c8.24 3.58 18.9 3.12 27.68 0.98 5.14 -1.24 10.52 -2.88 14.52 -6.48 1.5 -1.36 4.96 -7.3 4.86 -8.62a38.58 38.58 0 0 1 -12.6 -31.44A23.4 23.4 0 0 0 126 162.5a11.72 11.72 0 0 0 6.4 -1.34c-1.26 5.42 -2 5.88 -1.2 6 3.84 1 11.6 3.16 11.64 3.16 6.74 12.32 23.5 14.42 28.62 15.04s20.9 1.76 30.12 -5.24c-2.82 19.5 -2.4 24.86 -2.14 31.7 0.16 3.78 0.4 7.58 0.92 11.32 0 0.1 5.42 4.74 5.84 5.02 -3.04 13.32 -5.28 27.42 -7.76 40.84 -6 32.98 9.12 96.3 9.36 100.88 0 0.24 0 0.52 0.26 0.62a5.62 5.62 0 0 0 1.08 0c0 1.06 0.64 6.14 0.74 6.54 -1.86 1.38 -8.74 6.72 -8.94 7.24s0 1.44 0.68 1.5c2.36 0.22 15.12 -0.56 15.24 -1.08 0 0 -0.16 -12.82 -0.2 -14.24h3.66a292.26 292.26 0 0 1 9.34 -66.14c0.16 0.36 8.98 17.06 10.42 19.08 0 0.12 0.72 0.22 0.86 0 1.54 -2.18 5.6 -9.34 10.58 -11.5 1.56 4.12 21.38 58.58 22.12 58.62a29.58 29.58 0 0 0 4 -0.24 34.94 34.94 0 0 1 1.8 12.84c0.16 0.5 12.92 0 15.26 -0.4 0.76 -0.14 0.86 -0.96 0.54 -1.56a121.88 121.88 0 0 0 -10.36 -6.62c0 -0.26 0.4 -4.26 0.36 -5.06h1.42c-1.16 -22.5 -2.62 -45.42 -4.78 -68.3 17.64 0.26 29.62 12.48 29.66 12.52 0.32 0.36 0.8 -0.16 0.5 -0.5s-19.38 -25.6 -32.72 -67.9c-2.2 -7.04 -6.54 -29.76 -4.72 -54.74 7.06 8.34 17.58 19.38 28.38 21.44s21.14 -9.44 28 -18.34c4.14 -5.42 7.52 -12.6 5.52 -19.52 0 0 2.82 -3.58 4.18 -5.32 0.36 -0.48 0 -0.62 -1.3 -2.26a12.62 12.62 0 0 0 3.1 -2c0.42 1.52 3.12 11.88 3.42 12.26a1.1 1.1 0 0 0 1.76 0c0.5 -0.78 0 -2 -0.14 -2.9 -0.38 -1.22 -2.4 -9.36 -2.92 -12.2zm-12.94 -47.22c-0.3 -1.26 -0.62 -2.52 -0.94 -3.78l1.9 -0.32c0.2 1.24 0.42 2.52 0.64 3.78a8.4 8.4 0 0 1 -1.6 0.32zM107.1 80.3a5.82 5.82 0 0 1 4.52 2.96c15.88 25.26 -5.24 53.6 -8.92 56.46h-0.76a134.48 134.48 0 0 0 5.16 -59.42zM70 85.3c1.56 38.7 16.7 51.58 21.36 56a17.14 17.14 0 0 0 -2.84 1.74C55.84 129.86 63.56 89.6 70 85.3zm21.32 57a18.18 18.18 0 0 1 26 14c-12.58 10.48 -35.04 5 -35.1 4.98 -1.26 -6.32 2.6 -16.14 9.08 -18.98zm-8.7 34.44c-0.2 -2.22 -0.42 -4.42 -0.78 -6.62 1.44 0.16 22.5 3.06 37.04 -3.68a32.26 32.26 0 0 0 0 7.48c-16.08 8.32 -36.26 2.98 -36.26 2.82zm166.98 -25.82a0.88 0.88 0 0 0 0.74 -0.28 48.74 48.74 0 0 0 4.32 -9.02 43.08 43.08 0 0 0 10.94 18.94 109.58 109.58 0 0 0 -26.76 48.8c0.32 -2.7 2.92 -23.02 10.76 -58.44zm-16.7 -5.36c0.7 -0.26 3.34 -1.2 3.16 -2a9.14 9.14 0 0 1 0.62 -5.36c0.2 -0.46 0 -0.56 -0.4 -0.82a20.54 20.54 0 0 0 0.86 -6.96 0.52 0.52 0 0 0 -0.52 -0.52 6.94 6.94 0 0 1 -5.46 -3.3 4.48 4.48 0 0 0 3.72 -2.2c3.44 4.56 10.64 2.58 10.98 -1.76a3.44 3.44 0 0 0 -0.52 -2.12 1.5 1.5 0 0 0 -1.48 -0.3 1.02 1.02 0 0 1 0.64 1.52c-1.16 1.88 -4.26 1.52 -5.34 0.76a8.86 8.86 0 0 0 -2.16 -1.3 2.52 2.52 0 0 0 -2.12 0.5s0 -0.36 -0.14 -0.46a2.14 2.14 0 0 1 0 -1.82c0.22 -0.66 2.52 -4.94 2.74 -5.6 0 -0.28 -0.26 -0.42 -0.46 -0.26a32.38 32.38 0 0 0 -3.02 6.18 2.46 2.46 0 0 0 0 1.32 2.34 2.34 0 0 0 -1.7 0.74 3.34 3.34 0 0 1 -2 1.04c0 -0.6 0.98 -10.78 1.3 -15.28a7.44 7.44 0 0 1 4 -3.26 10 10 0 0 1 -0.64 -4.48c0 -0.3 0.52 -0.32 0.48 0 -0.72 5.56 5.54 10 10.56 12.38 0.94 0.44 2.14 0.46 2.5 1.56a7.4 7.4 0 0 1 0.28 2c0 0.78 0.6 1.56 1.12 0.56s0.6 -1.46 0.96 -2.14c0.72 -1.32 1.82 -2.28 3.3 -1.48 3.08 1.7 0.54 6.2 -0.14 6.42s0.34 3.04 3.52 3.78a11.28 11.28 0 0 1 -8.18 9.86 0.38 0.38 0 0 0 -0.42 0.32 45.56 45.56 0 0 0 -0.44 4.9l-3.46 0.82a8 8 0 0 1 -1.08 5.36c-0.42 0.52 -0.64 0.72 -0.3 1.36a59.28 59.28 0 0 0 5.2 5.1c-3.1 12.3 -9.78 49.18 -10.88 58.22a56.58 56.58 0 0 0 -16.16 -1.48c0.18 -3.02 2.18 -36.54 11.08 -61.8zM228 138.86a56.24 56.24 0 0 0 -1.06 8.66 22.12 22.12 0 0 0 4.9 -1.56c-5.3 12.52 -10 48.54 -10.54 56.82 -0.18 -2.38 -0.64 -24 -10 -44 4.16 -5.56 15.66 -18.78 16.7 -19.92zM126.58 162c4.76 -3.02 3.24 -7.36 2.9 -7.42 -0.72 -0.12 -4.76 0 -4.76 -0.14a7.14 7.14 0 0 1 1.1 -0.76c3.74 -2 6.92 1.42 7.58 2.28 0 0.4 -0.64 3.34 -0.88 4.42a10.48 10.48 0 0 1 -5.94 1.62zm15.7 7.48c-3.48 -1.02 -7 -2 -10.52 -2.88 1.32 -2.6 2.56 -12.28 2.64 -12.28 3.14 0.54 6.34 0.94 9.52 1.22 -2.08 4.92 -1.66 13.46 -1.64 13.86zm68.3 207.4c0 -0.3 -0.72 -5.18 -0.8 -6.18h6.24v6zm-9.68 -153.86A166.7 166.7 0 0 1 204 171.5a0.36 0.36 0 0 0 -0.7 -0.2c-0.52 1.62 -1.84 7.74 -2 7.8 -8.14 5.32 -18.28 6.38 -27.78 5.62C164.84 184 154.98 181.6 148.18 176a19.48 19.48 0 0 1 -5.06 -6 36.76 36.76 0 0 1 1.36 -14.4c2.56 0.22 32.32 2.46 61.38 -6.24a172.74 172.74 0 0 0 17.08 -6c-4.34 4.92 -8.5 10 -12.58 15.12a0.4 0.4 0 0 0 0 0.48c7.8 16.6 9.86 39.7 10.26 48 0.22 4.66 0.74 23.18 1.24 27.62 -0.38 -0.32 -9.16 -1.16 -20.96 -11.64zm20.82 -6.48v-8.66a53.26 53.26 0 0 1 16 1.88c-0.26 2.22 -0.76 6.84 -0.76 6.92 -0.32 -0.14 -14.06 -0.3 -15.24 -0.22zm18.62 106.38c-1.02 -1.76 -9.18 -16.7 -10.46 -19.6 0.32 -1.24 7 -21.82 6.56 -24.98 -0.12 -0.9 -4.72 -13.64 -6 -19.54 0.36 -0.12 0.68 0.26 0.9 0.6 2.7 4.54 17.16 45.06 19.7 51.8 -5.04 2.8 -9.26 9.04 -10.7 11.64zm44.2 46.78c0 0.74 -0.44 4.76 -0.5 5.04l-4.54 0.22s-1.12 -4 -1.3 -4.56c2.14 -0.4 4.4 -0.66 6.34 -0.78zM308 309.34c-6.78 -5.72 -19.26 -9.2 -26.32 -8.96 -2.4 -25.32 -5.64 -50.6 -10.22 -75.12l2.86 -1.12c2.98 37.18 29.4 79.04 33.68 85.2zm17.18 -110.46c-12.74 14 -20.4 16.86 -35.54 5.48a98.48 98.48 0 0 1 -14.92 -14.94c-0.36 -0.4 -0.9 0 -0.78 0.48 0 0 -1.48 5.12 0.26 33.36 -9.72 4.18 -35.22 11.74 -37.78 12.5a108.9 108.9 0 0 1 30.16 -74.86 0.5 0.5 0 0 0 0 -0.68 42.54 42.54 0 0 1 -9.7 -15.06 68.78 68.78 0 0 1 46 38 0.54 0.54 0 0 0 0.84 0c7 -6.58 22.38 -18.74 22.54 -18.84A53.48 53.48 0 0 0 335.6 174c2.92 11.3 -8.3 22.62 -10.36 24.88zm14.36 -30.32c-1.18 1.52 -2.4 3.02 -3.56 4.56a38.3 38.3 0 0 1 -9.1 -9.12c1.86 -1.36 5.76 -4.16 5.8 -4.24 0.44 0.68 5.74 7.32 6.92 8.8zm-0.76 -2.44 -4.44 -5.4c0.16 -0.26 2.68 -5.24 6.52 -5.24 0.88 0 0.78 0.68 0.38 1.12s-2 0.34 -2.92 1.06c-0.46 0.34 0 1.12 0.46 0.78a4.74 4.74 0 0 1 1.88 -0.62c0.42 2 0.9 4 1.44 6a8.78 8.78 0 0 1 -3.26 2.3zm5.4 -11.58c0.58 0.7 -1.28 1.42 -1.42 1.48a0.46 0.46 0 0 0 -0.4 -0.1 1.18 1.18 0 0 0 -0.2 -0.68s1.46 -1.5 2.08 -0.7zm-1.82 3.26a0.44 0.44 0 0 1 0 -0.6 1.8 1.8 0 0 1 0.8 -0.58c0.56 -0.34 1.86 -1.5 2.26 -0.52s-2.16 2.28 -3 1.7zm0.56 1.08c0.18 -0.44 1.84 -0.68 2.22 -0.94 0 0 0.4 -0.28 0.64 0a0.52 0.52 0 0 1 0.2 0.48c-0.28 1.26 -2.56 1.22 -2.9 0.98a0.32 0.32 0 0 1 -0.1 -0.52zm0.7 2.12c-0.18 0 -0.18 -0.2 -0.16 -0.4 0.1 -0.7 2 -0.6 2.38 -1.02s0.64 0 0.38 0.54a2.38 2.38 0 0 1 -2.54 0.88z" stroke-width="1"></path></g></svg>