<svg xmlns="http://www.w3.org/2000/svg" viewBox="0 0 400 400" id="Megaphone-Voice-Being-Heard--Streamline-Milano" height="400" width="400">
  <desc>
    Megaphone Voice Being Heard Streamline Illustration: https://streamlinehq.com
  </desc>
  <g fill="#000000">
    <path d="M389.82 233.74c-7.9 1.6 -23.26 0.78 -27.82 0.18 -0.14 -1.6 0.1 -16.94 -0.1 -20.4 0 -0.18 -0.3 -0.28 -0.3 -0.28a338.74 338.74 0 0 0 -34 -0.68c0 -13.44 0 -27.04 -0.3 -40.62a0.32 0.32 0 0 0 -0.4 -0.32c-20.82 -0.72 -36 -0.42 -36.12 -0.2 -0.22 1.44 -0.58 14.92 -0.46 18a68.64 68.64 0 0 0 -21.72 -16 16.58 16.58 0 0 1 -5.36 -2.9 3.62 3.62 0 0 1 -1.16 -3.28c1.74 -6.64 12.12 -10 15.16 -12.3a17.08 17.08 0 0 0 7.28 -10.94 9.5 9.5 0 0 0 -1.72 -6c-1.3 -2 0.76 -2.38 2.18 -3.62a9.28 9.28 0 0 0 -3.8 0.88 4.94 4.94 0 0 0 0.22 -4.88 4 4 0 0 1 -1.2 3.52 6.64 6.64 0 0 0 -1.38 -4.52c-5.14 -6.7 -16 -8.14 -23.86 -8.58 0.2 -16 0 -57.72 0 -62.36 18 0.8 36 1.68 54.16 2.4 -1.28 28.18 -1.6 56.54 -0.78 84.86a0.3 0.3 0 0 0 0.42 0.26c9.08 0.34 31.62 1.12 33.82 1.18 0.92 12.42 1.18 25.06 1 37.68a0.36 0.36 0 0 0 0.36 0.34 228 228 0 0 0 27.18 0.12c0.3 0 0.32 -0.5 0 -0.5 -4.58 0 -22.46 0 -26.82 -0.3a350.54 350.54 0 0 0 -1.04 -37.7c-8.22 -1.32 -31.78 -1.3 -34.32 -1.36 -0.56 -28.22 -0.42 -56.6 0.88 -84.92a0.36 0.36 0 0 0 -0.34 -0.36c-0.2 0 -54.78 -2.28 -54.98 -2.18a0.3 0.3 0 0 0 -0.24 0.32v62.54c-4.2 0.52 -2.6 4.22 -3.66 6.28 -0.46 0.86 -0.84 0.5 -1.58 1 -2 1.3 -1.82 10 -1.74 12.3 -2 5.18 -3.56 12.66 0.2 16.78 0.66 0.72 1.82 1.32 2.18 2.26a2.26 2.26 0 0 1 -0.42 1.84 8 8 0 0 1 -8 4.14c-12.56 -1 -17.82 0.94 -20.56 1.72a114 114 0 0 0 -23.12 14 2.82 2.82 0 0 0 -0.5 2.86c-2 0.82 -4 2 -5.88 2.94C190 183.14 184.64 164.8 184.34 164a9.72 9.72 0 0 0 3.02 -2.98c2 0 2.44 0.12 2.58 -0.18 1.54 -3.42 2.54 -7.08 4.2 -10.46 1.84 0 20.74 -0.96 28.32 -1.62 0 0 10.68 2 11.22 2.18a2.76 2.76 0 0 0 3.22 2.92c2.24 -0.26 3.56 -2.28 4.46 -4.12a14.98 14.98 0 0 0 1.7 -6.76c0 -4.6 -2.44 -6.16 -4.32 -6a2.18 2.18 0 0 0 -2.2 1.6c-1.36 -0.24 -9.86 -1.88 -10 -2 -4.72 -4.96 -16.96 -15.72 -16.96 -15.76 -0.32 -11.34 0.1 -41.64 0.22 -45.1a0.38 0.38 0 0 0 -0.36 -0.36c-22.98 0.44 -28.64 -0.74 -28.62 0.3 0.26 5.78 0.22 23.14 0.12 23.08 -14.82 -9.82 -38.54 -32.26 -38.14 -32 -0.24 -0.78 -1.38 -3.9 -1.72 -4.68 0 -0.12 -11.26 -3.56 -13.64 -4a6 6 0 0 0 -3.1 0.82 26.3 26.3 0 0 0 -7.44 7.62C99.18 90.26 92.52 117.6 96.2 142a39.12 39.12 0 0 0 2.48 10A6.82 6.82 0 0 0 104 155.74c2 0.44 11.7 1.5 14 0.94A45 45 0 0 0 122 154c6 0.12 22.7 -0.76 25.1 -0.88 -0.58 11.2 -0.5 39.88 -0.38 42.98 -9.42 -0.2 -33.38 -0.2 -36 -0.28 0 -5.4 0.44 -11.3 0.2 -16.78 -0.32 -0.5 -0.92 -0.52 -1.44 -0.56 -4.5 -0.26 -23.48 -0.86 -27.78 -0.48 -0.86 0 0.18 -0.26 0 23.04H48.6a0.36 0.36 0 0 0 -0.36 0.36c0 15.06 -0.28 30.26 0 45.44H19.44a0.26 0.26 0 0 0 0 0.52c19.52 0.24 39.14 0.44 58.74 0.36 0.38 0 0.5 1.38 0.4 -25.34 12 0 24 0.3 36.14 0 0 9 -0.26 18 -0.14 27a16 16 0 0 0 -11.32 -0.84c-8.72 2.3 -7.02 8.84 -7.26 9.82 -0.44 1.36 -1.72 1 -3.18 1.38a9.64 9.64 0 0 0 -6.82 7.02c-4 -0.18 -6.52 0 -8.46 3.46a10.68 10.68 0 0 0 -16.72 0.84c-3.52 -1.16 -6.64 2 -8.16 5.18 -2.56 5.46 1.7 8.48 2 9.28l-11.2 -0.14c-0.28 0 -0.28 0.42 0 0.44 3.82 0 39.84 1.38 126 0.14 -9.52 20.84 -10.76 56 -11.32 78.8a22.9 22.9 0 0 0 3.46 1.2c0 1.54 0.12 3.14 0.12 5.16 -1.78 1.02 -7.36 4.34 -7.66 4.72s-0.54 1.8 0.36 2a121.02 121.02 0 0 0 13.1 -0.36 27.68 27.68 0 0 1 1.4 -10.84 55.26 55.26 0 0 0 7.44 -0.38c12.7 -28.4 14.4 -43 18.74 -52.76 4.3 -3.22 14.92 -14.64 19.9 -19.2a128.86 128.86 0 0 0 0.32 -22.76c0 -0.34 0.42 -0.64 0.74 0 0.64 1.34 1.38 6.2 0.68 19.36 -0.28 5.44 -2.18 16.44 2.56 31.02a86.54 86.54 0 0 0 19.38 30.6l16.54 16.68a24.26 24.26 0 0 0 3.3 -0.84c0.1 0.12 3.14 4 3.3 4a5.72 5.72 0 0 1 -3.54 5.18c-0.6 0.24 -0.3 2 0.16 2a56.98 56.98 0 0 0 6.4 0 57 57 0 0 0 4.64 -6c0 -0.32 -4 -5.58 -4.72 -8.32a19.84 19.84 0 0 0 2.26 -1.78 545.06 545.06 0 0 1 -19.56 -52.12c3.66 -6.38 10.2 -18.74 11.12 -25.66 43.76 2 80.78 4.54 123.48 0.26 0.32 0 0.32 -0.52 0 -0.5l-5.06 0.44a22.26 22.26 0 0 0 -13.54 -13.22c-4.94 -1.62 -5.84 0.26 -7.32 -1.76a16 16 0 0 0 -18.42 -6.44c0.72 -7.86 -4.94 -15.22 -13.76 -14.22a13.86 13.86 0 0 0 -6.74 -16.42 13.34 13.34 0 0 0 -3.22 -13.38 7.42 7.42 0 0 0 -8 -2.66 50.74 50.74 0 0 0 -7.6 -10.44 26.34 26.34 0 0 0 1.82 -2.68 65.02 65.02 0 0 0 -9.52 -14.98s0.6 -16.56 0.64 -18c9.2 -0.2 32.74 0.54 35.3 0.5 0 10.56 0.1 37.68 0.2 40.68a0.38 0.38 0 0 0 0.54 0.32c16.6 -0.52 30.14 0.48 33.9 0.54 0 3.48 -0.62 19.06 0 20.58 0 0.18 7.2 1.66 21.58 0.94 1.56 -0.16 8.3 -0.34 6.96 -1.48zm-222.8 137.2a26.88 26.88 0 0 0 -4.76 -0.12c0 -0.2 -0.18 -4 -0.24 -4.76a59.6 59.6 0 0 0 6.22 0.62c-0.24 0.64 -1.18 4.18 -1.22 4.26zm97.16 -5.28 2.14 4c-0.64 0.36 -2.72 1.7 -4 2.46 0 -0.2 -3.18 -4 -3.26 -4a42.66 42.66 0 0 0 5.12 -2.46zm-22.5 -199.2a11.16 11.16 0 0 0 2 -0.24 8 8 0 0 0 5.82 -3.2c4.76 -6.86 -5.1 -3.2 -2.9 -16.24a48.78 48.78 0 0 1 5.86 -15.08 18.2 18.2 0 0 0 12.78 6.9c1.64 0 0.14 3.84 0.82 7.14 0.5 2.34 3.08 0.62 4.58 2a3.36 3.36 0 0 1 -2 5.76 64.74 64.74 0 0 0 -2.64 7.38 11.34 11.34 0 0 0 -4.74 7.12 6.16 6.16 0 0 0 3.3 4.46 17.74 17.74 0 0 1 -11.1 5.66 13.08 13.08 0 0 1 -6.9 -0.68c-4.12 -1.82 -5.62 -6.58 -4.88 -10.98zm-58.2 -2.6c0.16 1.02 5.86 19.88 7.06 23.84 0.86 0.7 4.64 -2.42 6.66 -3a40.88 40.88 0 0 0 9.24 21.04c-10 8.28 -17.3 9.34 -18.52 9.38a7.6 7.6 0 0 1 -6.32 -2.9 23.36 23.36 0 0 1 -5.24 -12.52c-1.8 -11.46 -1.24 -23.46 -1.06 -35.16a1.5 1.5 0 0 0 1.64 -0.42c1.04 1.76 2.36 1.44 3.08 0.26 1.52 2.2 3.64 -0.96 4.14 -3.5 0 0 1.68 0.14 2.5 0.16 -0.78 1.54 -3.24 2.44 -3.18 2.82zm-5.68 -6.34c0 -0.28 0.6 -0.62 0.84 -0.64a1.04 1.04 0 0 1 1 0.92c0 0.32 0.48 0.48 0.62 0.18a1.58 1.58 0 0 1 2.52 -0.4c2.34 2 -0.78 7.7 -2 6.78 -0.24 -0.18 -0.64 -0.3 -0.48 -1.7 0 -0.34 -0.52 -0.28 -0.64 0 0 1.58 -0.62 2 -1.1 2s-0.8 -0.42 -1.02 -0.74a3.2 3.2 0 0 1 0 -1.5c0 -0.4 -0.56 -0.58 -0.64 -0.16a5.24 5.24 0 0 1 -0.52 1.46 0.66 0.66 0 0 1 -1.14 -0.2 12 12 0 0 1 0.2 -5.84 1.1 1.1 0 0 1 0.94 -0.76c0.3 0 0.72 0.5 0.72 0.56 0.06 0.52 0.72 0.52 0.7 0.04zm11.5 2.7c-1.44 0 -3.18 0 -5.06 0.14 0.42 -3.66 -2.74 -4.7 -4.16 -3.28a1.6 1.6 0 0 0 -2.7 -0.2 1.4 1.4 0 0 0 -2 -0.14c-0.78 0.64 -0.84 2 -0.96 3.28h-6.6c-0.4 -1.16 -2.52 -6.46 -2.9 -7.8l28.28 -1.74c-0.58 1.52 -3.08 8.08 -3.9 9.74zM242 145.78c-0.74 2.82 -2.24 7.5 -6 7.38a2 2 0 0 1 -1.64 -2 3.64 3.64 0 0 0 1.1 0 10.36 10.36 0 0 0 4 -10.58c0 -0.38 -0.38 -1.58 -0.64 -1.62l-2 -0.32c2.26 -2.86 6.8 0.1 5.18 7.14zM181.52 76c0.22 0 18.54 0.24 27.58 0.2 -0.64 14.64 -0.78 29.48 -0.16 44.26 -8.78 -7.28 -18.22 -14.3 -27.48 -21.28 0.02 -0.18 0.22 -19.18 0.06 -23.18zm-80.8 77.36c-2 -2.1 -2.56 -5.26 -3.08 -8 -4.26 -22 0.42 -45.16 11.28 -64.66 1.72 -3.12 9.68 -16.42 15.68 -21 2.44 -1.88 5.54 0.58 6.92 3.14 2.4 4.46 2.76 24.14 2.32 30.56a18.3 18.3 0 0 0 -11.12 -0.52c-18.82 5.4 -17.22 34.12 4 34.24 -1.44 4 -7.44 18.62 -18 26.46a6.12 6.12 0 0 1 -8 -0.22zm16.84 2.84c-0.38 -0.12 -8.36 -0.34 -11.4 -0.64a16.54 16.54 0 0 0 7.08 -4.84c12.52 -12.24 18.18 -32.26 20.58 -49.58a118.38 118.38 0 0 0 -0.66 -35.58A12.22 12.22 0 0 0 130 59.4c1.42 0.46 10.16 3.16 10.66 3.2 6.3 16.14 6.72 34.48 2.84 51.44 -0.8 3.18 -1.84 6.34 -2.86 9.46 -4.26 13.68 -10.78 25.32 -23.08 32.7zm5.02 -2.66c23.4 -18.36 28 -62.56 20.58 -85.82 24.96 26.12 58 43.52 82.84 69.5 0.16 0.16 10.6 2.12 12.7 2.46a10.36 10.36 0 0 1 -3.52 10.86c-0.88 -0.36 -12.56 -2.44 -12.72 -2.46 -6.6 0.06 -96.86 5.3 -99.88 5.46zm-44.42 68.1a0.34 0.34 0 0 0 -0.3 0.5c0 8.1 -0.28 16.62 0 24.92 -7.36 -0.18 -26.82 -0.24 -28.86 -0.24 0.24 -11.58 0 -41.84 0 -45.1h33.06a0.34 0.34 0 0 0 0.32 -0.48c0.22 -7.3 0 -15 -0.16 -22.54 7.26 -0.28 25.48 0.66 27.34 0.78 1.38 0 0.54 -1.02 0.58 16.9 0 0.16 0.34 0.36 0.42 0.36 12 0.84 24.22 0 36.44 0.14 1.38 0.46 -0.14 -3.66 0.68 -43.66l16.64 -0.94c0.48 1.32 2.62 6.8 2.98 8.32a0.46 0.46 0 0 0 0.4 0.32h6.86a5.76 5.76 0 0 0 0.54 3.48c-1.86 28.74 0.56 36 0.76 36.72a10.44 10.44 0 0 0 -11.76 4 8.62 8.62 0 0 0 -13.6 8.3c0 0.86 -0.8 1.04 -1.54 1.08 -8.32 -0.36 -13.6 6 -12.48 12.24a6.72 6.72 0 0 0 -1.88 8.34c-2.78 1.2 -6 3.12 -6 6.52a3.84 3.84 0 0 0 3.24 4.2c0.94 0.12 2 0 2.8 0.66a4.36 4.36 0 0 0 4.12 2.44 4.38 4.38 0 0 1 -1.32 3.4s-2.14 -0.5 -3.08 -0.86a4 4 0 0 0 -2.8 0 5.5 5.5 0 0 1 -6.14 -1.52c-1.18 -2 -3.3 -5.38 -6 -3.2a2.76 2.76 0 0 0 -0.74 1.04c0 3.62 -2.1 2.48 -3.12 2 0.26 -9.24 0.2 -18.46 0.22 -27.7 -0.28 -0.54 1.54 -0.5 -37.62 -0.42zM170 284.98c-2.86 0 -79.26 0.9 -114.66 0.54 -0.64 -2 -3.52 -3.78 -2.44 -7.7s4.42 -7.38 8.12 -6a0.36 0.36 0 0 0 0.44 -0.18 10 10 0 0 1 15.4 -1.02c0.42 0.36 0.56 0.9 1.12 0.16 1.34 -3.22 5.14 -3.68 8.46 -3.34a0.4 0.4 0 0 0 0.36 -0.28A8.36 8.36 0 0 1 90 262a13.52 13.52 0 0 1 5.82 -2 3 3 0 0 0 0.88 -2.32 7.8 7.8 0 0 1 5.58 -7.8c7.58 -2.36 14 1.5 15.02 1.34s1.44 -0.98 1.54 -2c0 -0.6 -0.1 -2.18 2 -2.4s2.76 2.42 3.7 3.64a6 6 0 0 0 6 2c1.38 -0.22 1.82 -0.72 3.32 -0.14a15.2 15.2 0 0 0 3.38 0.66 4.94 4.94 0 0 0 1.84 -4.46 0.3 0.3 0 0 0 -0.38 -0.28 3.14 3.14 0 0 1 -2.92 -0.92c-0.62 -0.68 -0.88 -1.54 -1.84 -1.86s-2 -0.12 -2.86 -0.4a4 4 0 0 1 -1.08 -6.26 11.78 11.78 0 0 1 5.06 -3.38 0.3 0.3 0 0 0 0.12 -0.4 6 6 0 0 1 1.68 -8 0.3 0.3 0 0 0 0.14 -0.32c-1.28 -5.88 4 -11.32 10 -11.64 2.8 0.16 4.62 -0.26 4 -3.44a8.44 8.44 0 0 1 4.12 -6.66c2.88 -1.82 6.52 -0.64 9.24 0.68a10.12 10.12 0 0 1 11.5 -4c0.12 0 2.26 12.72 10.64 14.18 1.12 0.2 7.5 0.34 19.58 -8.56 -1.1 3.44 -6.12 21.82 -7.02 27.1 -0.24 1.5 0.98 2.26 2 2.94 -4.96 7.66 -22.74 29.86 -31.06 47.68zm145.02 -62.2a12.76 12.76 0 0 1 1.4 11.2 0.38 0.38 0 0 0 0.18 0.46c10.12 5.44 6.56 16 6.56 16a10.54 10.54 0 0 0 -4.32 2.18c-0.2 0.2 0 0.5 0.32 0.32a10.6 10.6 0 0 1 10.18 -1.6 12.56 12.56 0 0 1 7.68 13.7c12.48 -3.04 18 5.38 18.42 6 1.28 1.84 1.74 1.6 4 1.68 7.48 0.34 14 6.5 17.1 13.24 -39.08 2.94 -78.38 0.6 -117.54 -1.12A125.34 125.34 0 0 0 264 252a17.38 17.38 0 0 0 2.24 -0.54 11.18 11.18 0 0 0 1.12 -3c2 -10.26 5.28 -20.7 6 -31.4a53.54 53.54 0 0 0 8.38 6.32c0.24 0.12 1 -0.5 1.24 -0.66a50 50 0 0 1 6 4.22c3.48 3.64 2 7.34 2.92 21.24 0.9 14.8 2.24 18.38 1.82 19.58 -0.62 1.58 -6.52 2.78 -1.82 4 0.54 0 2.24 -0.48 2 0.62 -0.62 1.02 -2 3 0.24 3.52a1.34 1.34 0 0 0 0.92 -0.24 1.4 1.4 0 0 0 1.32 1.28 1.74 1.74 0 0 0 1.7 -1.12 1.24 1.24 0 0 0 0.96 0.8c2.26 -0.16 2.14 -3.34 2.72 -5.28 0.54 -3.76 0.64 -8 2.74 -11.72 5.22 -14 8.7 -28 2 -41.08a8 8 0 0 1 8.42 4.24zm-12.34 38.94c-1.04 2.28 -2 11.4 -2.24 12s-0.58 2.82 -1.76 1.72a2 2 0 0 1 -0.16 -1.12c0 -0.38 -0.52 -0.36 -0.58 0 0 0.72 -0.42 1.74 -1.3 1.82 -1.48 0 -0.9 -1.86 -0.94 -2a0.32 0.32 0 0 0 -0.62 0c0 0.14 -0.14 1.52 -1.22 0.92 -0.46 -0.28 -0.4 -0.74 -0.18 -1.14s0.82 -0.98 0.92 -1.62a1.26 1.26 0 0 0 -0.74 -1.32 4.98 4.98 0 0 0 -2 0c-0.3 0 -0.9 0 -1 -0.4s1.02 -0.6 1.32 -0.7c3.44 -1.22 2.2 -4 1.74 -7.74 -0.94 -7.5 -1.32 -15.26 -1.62 -23.04v-6.8c-0.42 -5.38 -3.82 -7.58 -8.54 -10 0 0 9.84 -7.1 14.5 -14.42 10.66 12.9 16.3 25.02 4.32 53.84zm-10.84 -69.5a65.62 65.62 0 0 1 7.84 12.24c-3.12 6 -12.42 14.28 -17.62 18 -2.2 -1.12 -8.9 -4.9 -14.78 -15.6 -0.12 -0.22 -0.46 0 -0.34 0.2a56.96 56.96 0 0 0 6 9.24c-0.7 9.24 -3.52 18.56 -5.34 27.82a46.8 46.8 0 0 1 -1.72 6.58c-6 1.46 -48.42 -4.18 -64.78 -14.54 -1.06 -0.64 -1.3 -0.94 -1.06 -2.26 2 -10.8 8.56 -34.96 16 -49.74 0.12 -0.26 -0.26 -0.48 -0.38 -0.22a159.32 159.32 0 0 0 -8.76 21c-3.84 -5.22 -8.26 -13.3 -8.86 -21.64 -0.28 -1.32 0.9 -2 1.8 -2.58s19.32 -15.68 36.26 -14.68c1.38 0 4.92 0.36 5.34 0.36a10.48 10.48 0 0 0 3.76 10.88c4.36 3 14 2.34 20 -4.6a71.5 71.5 0 0 1 26.54 19.54z" stroke-width="2"></path>
    <path d="M253.04 149.6a0.26 0.26 0 0 0 0.12 -0.44c-0.38 -0.34 -1.34 -0.32 -1.34 -1.02a55.5 55.5 0 0 1 4.4 -5.1c0.18 -0.2 -0.1 -0.52 -0.3 -0.32 -4.24 4.26 -5.08 4.88 -4.64 6a1.74 1.74 0 0 0 1.76 0.88zm-1.16 -7.32a15.5 15.5 0 0 0 1.16 -1.46c0.2 -0.28 -0.28 -0.64 -0.52 -0.28a10.42 10.42 0 0 0 -0.96 1.52 0.26 0.26 0 0 0 0.32 0.22zm7.66 4.18c0.28 0 2.5 -1.54 2 -2a0.34 0.34 0 0 0 -0.48 0c-0.28 0.48 -1.76 1.3 -1.74 2a0.22 0.22 0 0 0 0.22 0zm-3.42 9.68c0.76 0.56 2.14 -0.32 2.78 -1.4a12.66 12.66 0 0 0 0.88 -2.22 0.26 0.26 0 1 0 -0.5 -0.14 3.2 3.2 0 0 1 -2.7 1.88c-1.08 0.34 -1.2 1.38 -0.46 1.88zm-98.74 -65a0.18 0.18 0 0 0 -0.2 0.32c11.44 8.52 14 9.66 20.64 15.14 0.22 0.18 0.54 -0.12 0.32 -0.34a181.68 181.68 0 0 0 -20.76 -15.12zm36.06 27.04c0.28 0.12 0.58 -0.2 0.34 -0.44s-6 -4.12 -7.2 -4.92c-0.28 -0.2 -0.54 0.24 -0.26 0.44 1.16 0.84 6.46 4.62 7.12 4.92zM69.74 49.72l-4 1.06c6.46 9.32 17.62 18.36 25.66 27.66 1.38 0.26 -11.4 -20.92 -16.34 -31l3.34 -0.22a0.42 0.42 0 0 0 0.3 -0.72 144.32 144.32 0 0 0 -25.42 -26c-0.24 -0.5 -0.98 0 -0.74 0.42 4.94 10.02 12.3 19.08 17.2 28.8zm7.86 -3.3 -3.2 0.18a0.44 0.44 0 0 0 -0.38 0.66c4 8.32 14.44 26.48 15.1 27.54 -5.74 -6 -20.22 -21.7 -22 -23.54l3.3 -0.86a0.44 0.44 0 0 0 0.26 -0.62c-4 -8 -15.86 -26.28 -16.74 -28C63.3 28.44 76 44.46 77.6 46.42zm-4.34 54.44a0.48 0.48 0 0 0 0.46 -0.78 50.88 50.88 0 0 0 -9.32 -9.34c6.52 -0.96 13.16 -0.92 19.68 -2 0.44 0 0.36 -0.7 0 -0.82l-40.54 -13.16a0.4 0.4 0 0 0 -0.32 0.74 41.82 41.82 0 0 1 10.38 8.92C39.64 83.1 10.8 82 10.56 82c-0.56 -0.2 -0.8 0.68 -0.24 0.88 15.92 5.8 58.36 16.78 62.94 17.98zm-60.8 -18.24c14 0.44 26.56 1.88 42 2.64 0.38 0 0.46 -0.42 0.26 -0.66a41.2 41.2 0 0 0 -8.64 -8.14l36 11.7c-6.32 0.86 -12.74 0.84 -19.04 1.88 -0.4 0 -0.42 0.64 -0.12 0.82A39.56 39.56 0 0 1 72 99.6c-19.82 -5.2 -40 -10 -59.54 -16.98zm70 42.66c-8.34 4.14 -30.28 13.48 -32.74 14.42a0.44 0.44 0 0 0 0.12 0.86h9.68c-8.68 8 -14.86 14 -25.12 20 -0.28 0.16 0.82 0.7 1.12 0.56A376.66 376.66 0 0 0 78 137.1c0.64 -1.7 -6 -0.4 -7.16 -0.76l12 -10.38c0.52 -0.34 0.02 -0.88 -0.38 -0.68zm-12.98 11.18a0.42 0.42 0 0 0 0.3 0.72h6.66a356.16 356.16 0 0 1 -37.6 21.32 118.94 118.94 0 0 0 22 -18 0.42 0.42 0 0 0 -0.28 -0.7h-8.48c8 -3.14 26.4 -11.54 27.8 -12.22z" stroke-width="2"></path>
  </g>
</svg>