<svg width="240" height="241" viewBox="0 0 240 241" fill="none" xmlns="http://www.w3.org/2000/svg">
<path d="M200.016 90.7293C200.084 90.7155 200.145 90.6787 200.189 90.6251C200.232 90.5715 200.256 90.5045 200.256 90.4353C200.256 90.3661 200.232 90.299 200.189 90.2454C200.145 90.1918 200.084 90.155 200.016 90.1413C179.616 88.7493 180.168 88.9413 156.648 88.0173C156.578 88.0173 156.511 88.0451 156.461 88.0946C156.412 88.1441 156.384 88.2113 156.384 88.2813C156.384 88.3513 156.412 88.4184 156.461 88.468C156.511 88.5175 156.578 88.5453 156.648 88.5453C181.752 89.9853 181.476 90.3333 200.016 90.7293ZM206.46 83.5653C206.784 83.5653 206.832 83.0493 206.46 83.0253L144.168 79.1133C144.101 79.1133 144.037 79.1398 143.99 79.1871C143.943 79.2343 143.916 79.2984 143.916 79.3653C143.916 79.4321 143.943 79.4962 143.99 79.5435C144.037 79.5907 144.101 79.6173 144.168 79.6173C182.28 82.3413 205.2 83.5653 206.46 83.5653ZM99.9 65.6493C99.9827 65.6374 100.058 65.5952 100.111 65.5309C100.164 65.4666 100.192 65.3847 100.188 65.3013C100.176 65.2207 100.136 65.1471 100.074 65.0941C100.012 65.0412 99.9334 65.0124 99.852 65.0133C99.192 65.0133 98.352 64.8933 98.34 64.6533C98.5019 63.7618 98.5942 62.8591 98.616 61.9533C98.6193 61.9123 98.6144 61.871 98.6017 61.8319C98.589 61.7928 98.5687 61.7566 98.5419 61.7254C98.5151 61.6942 98.4825 61.6685 98.4458 61.65C98.409 61.6314 98.369 61.6203 98.328 61.6173C98.2877 61.6123 98.2467 61.6156 98.2076 61.6269C98.1686 61.6382 98.1322 61.6574 98.1008 61.6832C98.0694 61.709 98.0435 61.7409 98.0248 61.7771C98.0061 61.8132 97.995 61.8527 97.992 61.8933C97.992 61.8933 97.644 64.6413 97.644 64.6893C97.632 65.5653 99.012 65.7213 99.9 65.6493ZM100.464 60.1533C99.684 60.3213 100.056 62.2893 100.848 62.2893C100.926 62.2874 101.003 62.2654 101.07 62.2255C101.137 62.1856 101.193 62.129 101.232 62.0613C101.628 61.4373 101.136 60.0093 100.464 60.1533ZM95.82 61.5333C94.992 61.7133 95.46 63.8493 96.288 63.6693C97.116 63.4893 96.66 61.3533 95.82 61.5333ZM99.936 68.8533C101.314 69.0638 102.722 68.7652 103.896 68.0133C104.074 68.3462 104.171 68.7165 104.179 69.094C104.187 69.4714 104.106 69.8455 103.942 70.1858C103.779 70.526 103.537 70.8228 103.237 71.0521C102.937 71.2814 102.587 71.4366 102.216 71.5053C102.139 71.5373 102.078 71.5975 102.045 71.6734C102.011 71.7493 102.008 71.8352 102.036 71.9133C102.049 71.9517 102.07 71.9871 102.098 72.0172C102.125 72.0472 102.158 72.0714 102.195 72.0883C102.232 72.1051 102.273 72.1142 102.313 72.1151C102.354 72.116 102.394 72.1085 102.432 72.0933C102.939 71.9821 103.412 71.7507 103.811 71.4187C104.209 71.0866 104.523 70.6636 104.724 70.1853C104.878 69.6611 104.91 69.1089 104.818 68.5704C104.727 68.0319 104.514 67.5213 104.196 67.0773C103.56 66.6933 103.74 68.4333 99.972 68.2773C99.8956 68.2725 99.8205 68.2983 99.7631 68.3489C99.7057 68.3995 99.6708 68.4709 99.666 68.5473C99.6613 68.6237 99.687 68.6988 99.7376 68.7562C99.7883 68.8136 99.8596 68.8485 99.936 68.8533ZM137.004 159.933C136.68 159.933 137.352 159.801 132.204 164.805C126.132 170.805 120.576 175.377 117.516 179.205C117.483 179.239 117.465 179.284 117.465 179.331C117.465 179.378 117.483 179.424 117.516 179.457C127.02 187.857 132.564 190.929 143.664 194.541C143.976 194.649 144.804 194.889 144.804 194.889C144.492 196.497 146.148 197.709 147.852 198.309C148.61 198.665 149.461 198.771 150.283 198.611C151.105 198.452 151.855 198.035 152.424 197.421C153.864 197.865 155.04 198.093 155.904 198.297C156.996 203.961 158.988 207.657 160.908 207.657H161.1C163.164 207.381 164.112 202.929 163.56 196.029C163.308 193.257 163.632 193.953 161.16 192.561C159.419 191.573 157.758 190.449 156.192 189.201C156.333 188.502 156.281 187.778 156.042 187.105C155.804 186.433 155.387 185.839 154.836 185.385C154.068 184.773 152.58 184.029 151.728 184.461C146.484 178.197 140.124 169.797 137.016 160.113C137.031 160.085 137.038 160.053 137.036 160.022C137.034 159.99 137.023 159.959 137.004 159.933ZM153.036 196.809C154.736 194.88 155.845 192.501 156.228 189.957C157.396 191.072 158.703 192.032 160.116 192.813C160.26 199.365 159.636 200.913 159.072 201.057C158.184 201.297 156.6 197.913 156.504 197.793C156.408 197.673 156.396 197.709 156.348 197.697C155.868 197.565 154.152 197.133 153.036 196.845V196.809ZM152.148 185.037C152.984 185.202 153.772 185.555 154.452 186.069C157.2 188.121 154.548 194.133 152.052 196.641C151.592 197.187 150.964 197.563 150.266 197.711C149.568 197.859 148.841 197.769 148.2 197.457C146.388 196.809 145.488 195.981 145.524 195.057C147.24 195.201 149.844 191.457 150.324 190.785C151.292 189.037 151.911 187.117 152.148 185.133V185.037ZM99.972 58.4373C100.44 58.4373 101.172 58.4373 101.424 57.9933C101.467 57.8976 101.479 57.7913 101.46 57.6885C101.44 57.5856 101.39 57.491 101.316 57.4173C101.078 57.1725 100.78 56.994 100.452 56.8994C100.123 56.8047 99.7761 56.7971 99.444 56.8773C98.232 57.1773 98.196 58.3893 99.972 58.4373ZM95.676 58.5453C95.508 57.9573 94.32 57.9093 93.696 58.7493C93.3 59.2653 93.444 59.7453 93.78 59.9493C94.416 60.2253 95.928 59.3733 95.676 58.5453ZM93.828 85.2933C91.9554 85.624 90.1326 86.1926 88.404 86.9853C88.212 87.0933 88.092 87.0933 88.188 87.5253C88.7294 88.9816 89.451 90.3643 90.336 91.6413C90.552 91.8333 90.768 91.6413 90.9 91.3533C92.058 89.4768 93.1039 87.5334 94.032 85.5333C94.0434 85.5032 94.0465 85.4706 94.041 85.4389C94.0355 85.4073 94.0216 85.3776 94.0008 85.3531C93.9799 85.3286 93.9529 85.3102 93.9226 85.2996C93.8922 85.2891 93.8595 85.2869 93.828 85.2933ZM93.18 86.0133C92.196 87.9213 91.584 88.9893 90.516 90.8133C89.856 89.6133 88.98 87.8973 88.752 87.3813C90.1864 86.8002 91.6678 86.3426 93.18 86.0133ZM109.74 94.7613C111.084 93.6813 110.232 94.6893 116.94 88.6053C116.965 88.5823 116.984 88.5525 116.993 88.5195C117.002 88.4864 117.002 88.4514 116.992 88.4187C116.981 88.3859 116.962 88.3567 116.936 88.3345C116.91 88.3122 116.878 88.298 116.844 88.2933C114.318 87.8182 111.765 87.4976 109.2 87.3333C109.175 87.3296 109.149 87.3316 109.125 87.3391C109.101 87.3467 109.079 87.3596 109.061 87.3769C109.042 87.3942 109.028 87.4155 109.019 87.4391C109.01 87.4627 109.006 87.4881 109.008 87.5133C109.026 89.8953 109.17 92.2746 109.44 94.6413C109.446 94.6729 109.46 94.7024 109.481 94.7272C109.501 94.752 109.527 94.7713 109.557 94.7832C109.587 94.7952 109.619 94.7994 109.651 94.7956C109.683 94.7917 109.714 94.78 109.74 94.7613ZM115.86 88.7613C114.384 89.9613 111.624 92.3613 109.968 93.8253C109.947 91.8183 109.803 89.8146 109.536 87.8253C112.272 88.2813 113.628 88.5093 115.86 88.7493V88.7613ZM93.804 108.453C93.7963 108.486 93.798 108.521 93.8089 108.553C93.8199 108.585 93.8397 108.613 93.866 108.634C93.8923 108.656 93.9241 108.669 93.9577 108.673C93.9913 108.677 94.0254 108.672 94.056 108.657C96.096 107.829 97.656 107.301 102.456 105.057C102.483 105.041 102.506 105.019 102.522 104.991C102.538 104.964 102.546 104.933 102.546 104.901C102.546 104.87 102.538 104.839 102.522 104.811C102.506 104.784 102.483 104.761 102.456 104.745L96.348 100.461C96.3247 100.445 96.2977 100.434 96.2695 100.43C96.2412 100.426 96.2124 100.429 96.1854 100.439C96.1585 100.448 96.1341 100.464 96.1144 100.484C96.0947 100.505 96.0802 100.53 96.072 100.557C94.152 106.737 93.972 107.841 93.804 108.453ZM101.532 104.853C99.588 105.609 96.936 106.749 94.584 107.829C95.28 105.561 95.784 103.581 96.384 101.145C97.848 102.201 99.6 103.533 101.532 104.841V104.853ZM120.228 106.737C117.332 105.5 114.367 104.43 111.348 103.533C111.318 103.522 111.285 103.519 111.254 103.524C111.222 103.53 111.192 103.544 111.168 103.565C111.143 103.585 111.125 103.612 111.114 103.643C111.104 103.673 111.102 103.706 111.108 103.737C112.8 112.869 113.04 113.133 113.292 114.333C113.3 114.371 113.322 114.405 113.352 114.429C113.383 114.454 113.421 114.466 113.46 114.465C113.568 114.465 113.556 114.465 114.024 113.973C114.804 113.205 116.424 111.573 120.3 107.085C120.34 107.07 120.373 107.041 120.394 107.004C120.414 106.966 120.421 106.923 120.412 106.881C120.403 106.839 120.38 106.801 120.346 106.775C120.313 106.749 120.271 106.735 120.228 106.737ZM119.316 107.121C117.588 108.837 115.284 111.405 113.736 113.241C113.172 110.013 112.536 107.397 111.756 104.217C114.396 105.273 116.688 106.281 119.316 107.133V107.121ZM127.716 92.3133C128.767 95.0538 130.018 97.713 131.46 100.269C131.491 100.287 131.526 100.297 131.562 100.297C131.598 100.297 131.633 100.287 131.664 100.269C133.622 98.0413 135.449 95.7013 137.136 93.2613C137.22 93.1413 137.136 93.0093 136.848 92.9733L136.008 92.8653C134.052 92.5893 132.024 92.3133 127.884 92.0733C127.855 92.0735 127.827 92.0807 127.802 92.094C127.776 92.1074 127.755 92.1266 127.738 92.15C127.722 92.1735 127.711 92.2006 127.707 92.229C127.704 92.2574 127.706 92.2863 127.716 92.3133ZM136.236 93.5133C134.645 95.4231 133.116 97.3842 131.652 99.3933C130.752 97.1163 129.722 94.8927 128.568 92.7333C131.544 93.0453 133.548 93.2853 136.236 93.4773V93.5133ZM100.548 121.377C101.278 123.953 102.163 126.481 103.2 128.949C103.216 128.974 103.239 128.994 103.265 129.008C103.291 129.022 103.32 129.03 103.35 129.03C103.38 129.03 103.409 129.022 103.435 129.008C103.461 128.994 103.484 128.974 103.5 128.949C106.56 125.613 108.036 123.777 109.02 122.565C109.284 122.217 109.44 122.037 109.524 121.929C109.608 121.821 109.524 121.605 109.44 121.593C107.232 121.389 105.192 121.221 100.764 121.101C100.727 121.084 100.686 121.08 100.646 121.09C100.607 121.099 100.572 121.122 100.547 121.154C100.522 121.186 100.508 121.225 100.508 121.266C100.509 121.306 100.523 121.346 100.548 121.377ZM103.476 128.109C102.672 125.601 102.072 124.077 101.148 121.665C103.548 121.941 106.092 122.121 108.564 122.169C106.992 123.849 104.844 126.333 103.476 128.109ZM93.996 122.121C95.075 120.284 95.9752 118.347 96.684 116.337C96.6945 116.295 96.6921 116.251 96.6771 116.21C96.6621 116.17 96.6353 116.134 96.6 116.109C95.196 115.413 91.224 113.709 90.696 113.613C90.665 113.605 90.6325 113.606 90.6017 113.615C90.571 113.624 90.5432 113.641 90.5212 113.664C90.4992 113.687 90.4838 113.716 90.4766 113.747C90.4693 113.778 90.4705 113.811 90.48 113.841C90.48 113.913 93.012 120.873 93.684 122.037C93.78 122.193 93.888 122.301 93.996 122.121ZM96 116.469C95.2001 117.989 94.5026 119.561 93.912 121.173C92.844 118.233 92.28 116.613 91.38 114.537C92.532 115.101 94.08 115.749 96 116.469ZM120.216 117.009C119.916 121.941 119.928 124.029 119.976 126.609C119.977 126.641 119.987 126.671 120.004 126.698C120.021 126.724 120.045 126.746 120.073 126.761C120.101 126.775 120.132 126.782 120.163 126.781C120.195 126.78 120.225 126.77 120.252 126.753C121.056 126.225 123.312 124.881 127.98 121.353C128.005 121.338 128.025 121.317 128.04 121.292C128.054 121.267 128.061 121.238 128.061 121.209C128.061 121.18 128.054 121.152 128.04 121.127C128.025 121.101 128.005 121.08 127.98 121.065C125.571 119.497 123.071 118.074 120.492 116.805C120.46 116.789 120.425 116.782 120.389 116.785C120.354 116.788 120.32 116.801 120.291 116.822C120.262 116.843 120.24 116.872 120.227 116.905C120.214 116.938 120.21 116.974 120.216 117.009ZM120.684 117.513C122.82 118.809 125.064 120.189 127.14 121.293C125.016 122.697 122.1 124.785 120.564 125.889C120.72 123.249 120.756 120.777 120.684 117.513ZM133.272 119.985C135.996 122.037 138.552 123.681 139.272 124.149C139.3 124.167 139.333 124.177 139.367 124.177C139.401 124.178 139.434 124.169 139.462 124.151C139.491 124.134 139.514 124.109 139.529 124.079C139.545 124.048 139.551 124.015 139.548 123.981C138.684 116.709 138.456 115.785 138.132 113.841C138.126 113.808 138.11 113.778 138.087 113.753C138.064 113.729 138.035 113.711 138.002 113.702C137.97 113.693 137.935 113.694 137.903 113.704C137.871 113.713 137.842 113.732 137.82 113.757C136.151 115.652 134.612 117.656 133.212 119.757C133.19 119.796 133.184 119.841 133.195 119.884C133.207 119.926 133.234 119.963 133.272 119.985ZM137.724 114.873C137.964 117.273 138.468 120.573 138.924 123.177C137.448 122.097 135.648 120.873 133.884 119.769C135.216 118.209 136.512 116.565 137.724 114.873ZM123.336 88.7853C123.979 89.0649 124.692 89.1423 125.38 89.0073C126.068 88.8722 126.698 88.5311 127.188 88.0293C127.833 87.3586 128.194 86.464 128.194 85.5333C128.194 84.6025 127.833 83.708 127.188 83.0373C126.819 82.6765 126.374 82.4016 125.886 82.232C125.399 82.0624 124.88 82.0024 124.366 82.0561C123.852 82.1098 123.357 82.2759 122.915 82.5428C122.473 82.8096 122.095 83.1705 121.808 83.5999C121.521 84.0292 121.333 84.5165 121.255 85.0271C121.178 85.5376 121.214 86.0589 121.361 86.5539C121.508 87.0489 121.762 87.5055 122.106 87.8911C122.449 88.2768 122.873 88.5821 123.348 88.7853H123.336ZM126.744 83.4573C127.082 83.7961 127.332 84.213 127.471 84.6712C127.609 85.1293 127.633 85.6146 127.54 86.0842C127.447 86.5538 127.24 86.9932 126.937 87.3637C126.634 87.7342 126.244 88.0244 125.802 88.2086C125.36 88.3928 124.88 88.4654 124.403 88.4199C123.927 88.3745 123.469 88.2124 123.069 87.948C122.67 87.6835 122.342 87.3249 122.115 86.9038C121.887 86.4827 121.767 86.012 121.764 85.5333C121.767 84.9575 121.939 84.3952 122.259 83.9167C122.58 83.4383 123.034 83.0649 123.565 82.8433C124.097 82.6218 124.682 82.5618 125.247 82.671C125.813 82.7802 126.333 83.0537 126.744 83.4573ZM114.396 98.3373C114.598 98.8752 114.966 99.3344 115.448 99.6475C115.929 99.9606 116.499 100.111 117.072 100.077C117.495 100.094 117.917 100.023 118.312 99.8709C118.708 99.7183 119.067 99.4865 119.37 99.1898C119.672 98.8932 119.91 98.5378 120.07 98.1456C120.23 97.7535 120.309 97.3327 120.3 96.9093C120.242 96.4622 120.059 96.0405 119.773 95.6924C119.486 95.3444 119.108 95.084 118.68 94.9413C116.4 94.0533 113.712 96.1893 114.396 98.3373ZM118.452 95.5653C118.716 95.6694 118.952 95.8337 119.141 96.045C119.331 96.2564 119.468 96.509 119.543 96.7828C119.617 97.0566 119.627 97.344 119.571 97.6222C119.515 97.9004 119.395 98.1617 119.22 98.3853C118.116 100.005 115.512 99.7533 115.044 98.1573C114.576 96.5613 116.496 94.8333 118.452 95.5653ZM99.6 96.3933C102.096 96.9933 104.148 94.7733 102.852 92.6853C102.373 91.9637 101.635 91.454 100.79 91.2618C99.946 91.0697 99.06 91.2099 98.316 91.6533C96.3 92.9373 97.068 95.7933 99.6 96.3933ZM101.748 95.5293C101.146 95.8828 100.433 95.9951 99.7515 95.8437C99.0702 95.6923 98.4715 95.2884 98.076 94.7133C97.188 93.2853 98.328 91.8333 99.96 91.8333C102.312 91.8333 103.548 94.3773 101.748 95.5293ZM101.892 110.973C101.638 111.363 101.486 111.81 101.449 112.274C101.412 112.738 101.491 113.204 101.679 113.629C101.868 114.054 102.159 114.426 102.527 114.71C102.895 114.995 103.329 115.183 103.788 115.257C104.204 115.331 104.63 115.321 105.042 115.229C105.454 115.136 105.844 114.962 106.188 114.717C106.69 114.399 107.081 113.933 107.308 113.384C107.535 112.834 107.586 112.228 107.455 111.648C107.323 111.068 107.016 110.543 106.574 110.145C106.132 109.747 105.578 109.496 104.988 109.425C104.377 109.349 103.757 109.455 103.206 109.731C102.655 110.006 102.198 110.438 101.892 110.973ZM102.36 111.273C102.505 110.939 102.726 110.644 103.006 110.411C103.286 110.178 103.617 110.014 103.971 109.932C104.326 109.85 104.695 109.853 105.049 109.939C105.403 110.026 105.731 110.194 106.008 110.431C106.285 110.667 106.502 110.965 106.643 111.301C106.783 111.637 106.843 112.001 106.818 112.365C106.792 112.728 106.681 113.08 106.495 113.393C106.309 113.705 106.051 113.97 105.744 114.165C105.335 114.509 104.817 114.697 104.283 114.695C103.748 114.693 103.232 114.501 102.826 114.154C102.419 113.807 102.15 113.327 102.064 112.799C101.979 112.272 102.084 111.731 102.36 111.273ZM128.4 114.585C131.916 115.365 134.616 111.297 132.708 108.585C130.8 105.873 126.372 107.025 125.712 110.301C125.507 111.225 125.674 112.193 126.177 112.995C126.68 113.797 127.479 114.368 128.4 114.585ZM132.144 109.017C133.752 111.165 131.712 114.381 128.892 114.033C128.477 113.991 128.077 113.86 127.717 113.648C127.357 113.437 127.048 113.151 126.809 112.81C126.569 112.468 126.407 112.079 126.331 111.669C126.256 111.259 126.27 110.838 126.372 110.433C126.504 109.832 126.802 109.279 127.232 108.838C127.663 108.397 128.208 108.085 128.806 107.938C129.404 107.79 130.031 107.813 130.617 108.004C131.203 108.195 131.723 108.546 132.12 109.017H132.144ZM112.644 125.853C112.024 126.06 111.466 126.417 111.017 126.892C110.568 127.366 110.243 127.944 110.071 128.574C109.899 129.204 109.885 129.867 110.03 130.504C110.176 131.141 110.476 131.732 110.904 132.225C111.241 132.611 111.659 132.918 112.127 133.125C112.596 133.332 113.104 133.435 113.616 133.425C114.335 133.378 115.028 133.135 115.619 132.724C116.211 132.312 116.679 131.746 116.972 131.088C117.266 130.43 117.375 129.705 117.287 128.989C117.199 128.274 116.917 127.596 116.472 127.029C116.035 126.46 115.432 126.041 114.746 125.83C114.06 125.62 113.325 125.628 112.644 125.853ZM115.944 127.533C116.337 128.019 116.584 128.606 116.656 129.226C116.729 129.846 116.624 130.474 116.354 131.037C116.084 131.6 115.659 132.075 115.13 132.406C114.601 132.738 113.988 132.912 113.364 132.909C112.524 132.819 111.755 132.399 111.224 131.742C110.694 131.085 110.445 130.245 110.532 129.405C110.543 128.78 110.745 128.174 111.112 127.668C111.479 127.162 111.992 126.781 112.583 126.576C113.174 126.372 113.813 126.354 114.414 126.525C115.016 126.696 115.55 127.048 115.944 127.533ZM133.752 124.881C133.319 124.571 132.809 124.385 132.278 124.343C131.747 124.301 131.214 124.405 130.738 124.643C130.261 124.881 129.859 125.245 129.574 125.695C129.289 126.145 129.132 126.665 129.12 127.197C129.043 127.994 129.285 128.789 129.794 129.408C130.302 130.027 131.035 130.418 131.832 130.497C134.808 130.725 136.128 126.501 133.752 124.881ZM133.512 129.345C133.293 129.542 133.036 129.692 132.757 129.787C132.478 129.881 132.183 129.918 131.889 129.896C131.595 129.874 131.309 129.792 131.048 129.656C130.786 129.52 130.555 129.333 130.368 129.105C130.059 128.756 129.854 128.327 129.777 127.867C129.7 127.407 129.754 126.934 129.933 126.504C130.112 126.073 130.409 125.701 130.789 125.431C131.17 125.161 131.618 125.004 132.084 124.977C132.599 124.965 133.105 125.12 133.526 125.418C133.947 125.715 134.26 126.141 134.42 126.631C134.581 127.121 134.579 127.649 134.415 128.138C134.252 128.627 133.935 129.05 133.512 129.345ZM96.984 125.613C94.584 124.869 92.292 127.701 93.384 130.077C93.5333 130.412 93.7472 130.713 94.0133 130.965C94.2793 131.217 94.5925 131.413 94.9347 131.544C95.2769 131.674 95.6415 131.736 96.0076 131.725C96.3737 131.714 96.734 131.631 97.068 131.481C99.708 130.305 99.516 126.393 96.984 125.613ZM94.152 130.149C92.952 128.205 94.704 125.613 96.792 126.285C97.2336 126.463 97.6162 126.761 97.896 127.146C98.1759 127.531 98.3416 127.987 98.3741 128.461C98.4067 128.936 98.3048 129.411 98.0802 129.83C97.8555 130.25 97.5172 130.597 97.104 130.833C96.6207 131.129 96.0402 131.224 95.488 131.096C94.9357 130.968 94.4559 130.628 94.152 130.149Z" fill="#020617"/>
<path d="M232.128 31.3893C228.468 26.9853 218.448 26.0853 215.472 25.9173C197.472 25.1013 145.872 24.9693 131.532 28.4493C126.888 29.6493 125.064 32.6253 123.84 37.3293C123.612 32.1453 121.788 28.5333 114.876 26.6493C101.676 23.0493 56.076 17.1213 40.476 16.5453C34.38 16.3173 29.736 17.3853 26.916 23.3613C25.644 26.0613 24.576 30.4293 21.996 47.9013C17.616 77.2533 11.652 129.597 8.79602 155.901C5.89202 182.961 5.19602 187.593 6.12002 192.177C6.45266 194.264 7.31443 196.232 8.62316 197.891C9.93188 199.551 11.6439 200.847 13.596 201.657C21.228 204.969 61.764 210.645 82.62 211.329C82.6095 212.503 82.7019 213.676 82.896 214.833C76.596 215.925 73.176 217.509 73.296 219.285C73.404 221.589 79.296 223.449 88.644 224.085C89.568 224.085 89.844 223.437 90.084 222.597C90.4448 221.249 90.6541 219.864 90.708 218.469C91.3248 216.419 92.0826 214.415 92.976 212.469C93.579 212.418 94.1531 212.189 94.6254 211.811C95.0977 211.433 95.4467 210.923 95.628 210.345C99.228 209.049 101.496 206.025 102.576 201.129C102.996 204.729 104.208 207.321 106.176 208.917C116.532 218.277 185.292 223.533 197.76 223.533C210.228 223.533 212.16 218.433 213.18 212.289C215.232 200.157 233.388 52.5213 234.06 42.4293C234.444 36.7773 233.868 33.4893 232.128 31.3893ZM82.02 216.849C82.02 216.525 82.02 216.033 83.544 215.373C83.5751 215.354 83.6012 215.328 83.62 215.296C83.6388 215.265 83.6497 215.23 83.652 215.193C83.652 215.193 83.52 212.037 83.436 210.393C86.0969 211.936 89.133 212.713 92.208 212.637C91.1348 214.338 90.4089 216.235 90.072 218.217C85.2 218.337 82.224 217.845 82.02 216.849ZM102.42 198.369C101.376 203.685 99.876 207.597 96.06 209.385C96.427 208.339 96.3971 207.195 95.976 206.169C97.956 202.629 99.972 199.317 102.48 195.537C102.432 196.473 102.396 197.253 102.42 198.333V198.369ZM118.944 76.1613C119.208 76.5382 119.334 76.9944 119.301 77.4533C119.268 77.9121 119.079 78.3458 118.764 78.6813C118.129 79.1368 117.38 79.4071 116.6 79.4622C115.821 79.5173 115.041 79.355 114.348 78.9933C115.737 77.8343 117.284 76.8805 118.944 76.1613ZM116.544 76.4853C115.403 77.1222 114.333 77.8784 113.352 78.7413C111.629 80.2964 110.124 82.0764 108.876 84.0333C108.828 84.1017 108.81 84.1863 108.824 84.2685C108.839 84.3506 108.886 84.4236 108.954 84.4713C109.022 84.5191 109.107 84.5377 109.189 84.523C109.271 84.5084 109.344 84.4617 109.392 84.3933C110.709 82.5586 112.227 80.8763 113.916 79.3773C117.192 81.2973 121.356 79.3773 119.496 75.9333C123.843 75.7841 128.153 76.7728 132 78.8013C132.026 81.5529 132.202 84.301 132.528 87.0333C132.532 87.062 132.543 87.0892 132.56 87.1127C132.577 87.1362 132.6 87.1552 132.626 87.1681C132.652 87.1811 132.68 87.1876 132.709 87.1871C132.738 87.1866 132.767 87.1792 132.792 87.1653C134.991 85.9681 137.13 84.6625 139.2 83.2533C140.244 84.0213 141.144 84.7653 141.948 85.4373C141.884 92.4386 139.668 99.2508 135.6 104.949C123.864 101.217 122.604 98.9493 121.932 99.1293C121.853 99.143 121.781 99.1818 121.726 99.24C121.67 99.2981 121.636 99.3725 121.626 99.452C121.617 99.5316 121.633 99.612 121.673 99.6815C121.713 99.7509 121.774 99.8055 121.848 99.8373C127.548 103.437 132.084 104.637 138.492 106.677C141.181 113.465 142.64 120.678 142.8 127.977C131.208 135.597 107.664 138.921 91.26 135.261C88.416 124.101 88.86 108.669 92.46 93.9573C92.471 93.9171 92.4741 93.8752 92.4689 93.8338C92.4637 93.7925 92.4504 93.7526 92.4298 93.7163C92.4092 93.6801 92.3816 93.6483 92.3487 93.6228C92.3158 93.5972 92.2782 93.5784 92.238 93.5673C92.1978 93.5563 92.1559 93.5533 92.1145 93.5585C92.0732 93.5637 92.0332 93.5769 91.997 93.5976C91.9608 93.6182 91.929 93.6457 91.9035 93.6786C91.8779 93.7115 91.859 93.7491 91.848 93.7893V93.8613C91.848 94.1133 92.076 92.9853 90.732 97.9293C90.3638 97.2972 89.9632 96.6843 89.532 96.0933C89.4785 96.0427 89.4077 96.0145 89.334 96.0145C89.2604 96.0145 89.1895 96.0427 89.136 96.0933C88.212 97.3773 86.916 99.3573 86.268 100.461C86.2431 100.502 86.2291 100.548 86.2273 100.595C86.2254 100.643 86.2359 100.69 86.2576 100.732C86.2793 100.774 86.3116 100.81 86.3512 100.836C86.3909 100.863 86.4366 100.878 86.484 100.881C87.6815 100.977 88.8836 101.001 90.084 100.953C89.652 103.209 89.46 104.445 89.364 105.213C86.8004 103.604 84.0091 102.391 81.084 101.613C81.3825 99.6577 81.7831 97.7191 82.284 95.8053C82.631 96.0343 83.0269 96.1784 83.4398 96.2262C83.8527 96.274 84.271 96.2241 84.6611 96.0804C85.0512 95.9368 85.402 95.7034 85.6853 95.3993C85.9686 95.0951 86.1764 94.7286 86.292 94.3293C86.5275 93.5275 86.4767 92.6686 86.1483 91.9001C85.8199 91.1316 85.2343 90.5013 84.492 90.1173C85.3114 88.2522 86.5006 86.5727 87.9877 85.1804C89.4749 83.7882 91.229 82.7121 93.144 82.0173C94.344 84.5973 97.512 86.8173 102.444 86.8173C102.491 86.8265 102.539 86.8251 102.586 86.8134C102.632 86.8017 102.675 86.7798 102.712 86.7494C102.749 86.719 102.779 86.6808 102.799 86.6376C102.819 86.5943 102.83 86.5471 102.83 86.4993C102.83 86.4515 102.819 86.4043 102.799 86.3611C102.779 86.3178 102.749 86.2796 102.712 86.2492C102.675 86.2188 102.632 86.197 102.586 86.1852C102.539 86.1735 102.491 86.1722 102.444 86.1813C93 86.1813 89.976 75.9933 98.46 75.7533C98.808 77.2053 99.24 78.7173 99.66 79.8213C100.137 81.6171 101.197 83.2038 102.672 84.3333C102.73 84.3706 102.8 84.3855 102.869 84.3754C102.937 84.3653 103 84.3309 103.045 84.2784C103.09 84.2259 103.115 84.1589 103.115 84.0897C103.115 84.0204 103.09 83.9535 103.044 83.9013C102.082 83.0188 101.25 82.0048 100.572 80.8893C101.522 81.4402 102.595 81.7412 103.693 81.7643C104.791 81.7874 105.876 81.5318 106.848 81.0213C106.704 81.5973 106.584 82.2213 106.488 82.7613C106.477 82.8073 106.476 82.8553 106.487 82.9014C106.497 82.9476 106.519 82.9905 106.549 83.0268C106.58 83.0631 106.618 83.0917 106.662 83.1102C106.705 83.1287 106.753 83.1366 106.8 83.1333C106.879 83.1476 106.961 83.1306 107.028 83.0859C107.095 83.0411 107.143 82.9721 107.16 82.8933C107.358 81.9713 107.611 81.0617 107.916 80.1693C111.096 70.7253 120.444 69.7413 120.624 75.3693C119.544 75.2733 118.872 75.1773 116.52 76.4853H116.544ZM138.648 82.8093C137.088 83.7573 134.388 85.4613 133.056 86.3373C133.056 83.9373 132.876 81.5373 132.624 79.1373C134.714 80.2074 136.72 81.435 138.624 82.8093H138.648ZM142.68 86.0013C157.5 98.7333 164.604 115.365 164.94 115.677C166.3 116.779 167.326 118.237 167.904 119.889C168.132 120.753 167.808 120.885 167.592 120.657C167.37 120.36 167.178 120.043 167.016 119.709C166.97 119.196 166.841 118.693 166.632 118.221C166.623 118.19 166.607 118.161 166.585 118.136C166.563 118.112 166.537 118.092 166.507 118.078C166.477 118.065 166.444 118.058 166.411 118.059C166.379 118.059 166.346 118.066 166.316 118.08C166.287 118.094 166.26 118.114 166.239 118.14C166.218 118.165 166.203 118.194 166.194 118.226C166.185 118.257 166.183 118.29 166.188 118.323C166.194 118.355 166.206 118.386 166.224 118.413C166.488 119.181 166.944 120.897 166.368 121.485C166.275 120.818 166.126 120.16 165.924 119.517C165.893 119.462 165.845 119.42 165.786 119.396C165.728 119.373 165.664 119.37 165.603 119.388C165.543 119.406 165.491 119.444 165.455 119.496C165.42 119.548 165.403 119.611 165.408 119.673C165.552 120.165 166.236 122.277 165.744 122.469C165.252 122.661 164.544 121.161 164.064 120.501C164.045 120.455 164.013 120.414 163.971 120.386C163.93 120.358 163.88 120.343 163.83 120.343C163.78 120.343 163.73 120.358 163.689 120.386C163.647 120.414 163.615 120.455 163.596 120.501C163.596 120.633 163.596 120.705 164.004 121.353V122.373C163.884 123.501 163.584 123.573 163.068 122.565C162.66 121.713 162.264 119.877 161.868 119.229C161.664 118.941 161.472 118.953 161.34 119.097C160.938 119.661 160.366 120.082 159.708 120.297C159.228 120.297 159.252 119.997 159.48 119.577C159.9 118.821 161.016 117.705 160.824 116.889C160.632 116.073 154.344 110.889 145.056 107.889L136.404 105.105C140.672 99.6721 142.886 92.9068 142.656 86.0013H142.68ZM168.36 121.161C171.005 121.309 173.508 122.405 175.409 124.25C177.311 126.094 178.483 128.562 178.711 131.202C178.939 133.841 178.207 136.473 176.65 138.616C175.093 140.76 172.815 142.269 170.234 142.868C167.654 143.466 164.944 143.114 162.603 141.875C160.261 140.637 158.445 138.595 157.487 136.125C156.53 133.655 156.496 130.923 157.391 128.43C158.286 125.937 160.05 123.85 162.36 122.553C162.684 123.273 163.044 123.909 163.56 123.957C164.304 123.957 164.412 122.865 164.436 122.109C165.564 123.609 166.38 123.165 166.38 121.989C166.656 121.78 166.868 121.497 166.992 121.173H167.448C167.499 121.244 167.566 121.302 167.644 121.342C167.722 121.381 167.808 121.401 167.895 121.4C167.982 121.399 168.068 121.376 168.145 121.335C168.222 121.293 168.287 121.234 168.336 121.161H168.36ZM143.304 128.361C143.347 128.335 143.383 128.298 143.409 128.254C143.434 128.21 143.447 128.16 143.448 128.109C143.364 120.105 142.128 112.605 139.452 106.941C147.456 109.437 152.52 111.153 159.192 116.469C156.393 118.003 154.057 120.259 152.428 123.003C150.798 125.747 149.935 128.878 149.928 132.069C149.928 142.533 158.892 150.405 168.132 149.937C168.161 149.938 168.189 149.948 168.213 149.965C168.236 149.982 168.254 150.006 168.264 150.033L169.776 157.953C144.924 158.889 165.336 158.097 143.376 158.961C143.309 158.961 143.245 158.988 143.198 159.035C143.151 159.082 143.124 159.146 143.124 159.213C143.124 159.28 143.151 159.344 143.198 159.392C143.245 159.439 143.309 159.465 143.376 159.465C144.3 159.465 169.092 158.805 169.86 158.769L170.784 163.569C167.748 163.737 164.58 163.869 151.896 164.613C151.116 164.613 151.38 165.213 151.752 165.165C169.584 164.649 162.408 164.733 170.952 164.409L178.404 203.133C178.452 203.435 178.612 203.706 178.853 203.894C179.093 204.081 179.396 204.169 179.7 204.141C181.857 204.003 183.98 203.542 186 202.773C186.276 202.67 186.505 202.469 186.642 202.207C186.78 201.946 186.816 201.644 186.744 201.357L186.468 200.265C186.461 200.238 186.459 200.209 186.463 200.181C186.467 200.153 186.477 200.125 186.491 200.101C186.506 200.076 186.525 200.055 186.548 200.038C186.57 200.021 186.596 200.008 186.624 200.001L194.256 197.889C194.41 197.851 194.555 197.783 194.683 197.689C194.81 197.595 194.918 197.476 194.999 197.34C195.081 197.204 195.135 197.053 195.157 196.896C195.18 196.739 195.171 196.579 195.132 196.425L193.728 190.161C193.696 189.999 193.631 189.845 193.537 189.709C193.442 189.573 193.321 189.458 193.18 189.371C193.039 189.285 192.882 189.228 192.718 189.205C192.554 189.182 192.387 189.193 192.228 189.237L184.8 191.241C184.74 191.256 184.676 191.247 184.622 191.215C184.568 191.184 184.529 191.133 184.512 191.073L183.528 186.645C183.515 186.59 183.523 186.531 183.549 186.481C183.576 186.43 183.619 186.391 183.672 186.369L189.036 184.749C189.335 184.665 189.59 184.468 189.747 184.199C189.904 183.93 189.95 183.611 189.876 183.309L188.748 178.101C188.718 177.942 188.656 177.79 188.566 177.656C188.477 177.521 188.36 177.406 188.225 177.317C188.089 177.229 187.937 177.168 187.777 177.14C187.617 177.112 187.454 177.117 187.296 177.153L181.872 178.245C181.813 178.256 181.753 178.243 181.703 178.209C181.654 178.176 181.62 178.124 181.608 178.065L178.5 164.133L194.772 163.353C195.468 163.257 195.312 162.657 194.712 162.693C181.824 163.365 180.576 163.257 178.32 163.341L177.264 158.541L199.38 157.737C199.463 157.737 199.542 157.704 199.601 157.646C199.659 157.587 199.692 157.508 199.692 157.425C199.692 157.343 199.659 157.263 199.601 157.205C199.542 157.146 199.463 157.113 199.38 157.113L177.12 157.749C174.936 147.969 174.996 148.473 175.128 148.413C179.08 146.653 182.258 143.518 184.074 139.591C185.89 135.665 186.219 131.212 185.001 127.061C183.783 122.91 181.1 119.342 177.45 117.019C173.801 114.696 169.433 113.776 165.156 114.429C157.584 98.4573 142.2 79.6293 126.168 75.8613C130.68 42.2613 130.404 38.6613 133.968 37.4613C142.092 34.8813 176.112 35.5053 184.56 35.6253C194.076 35.7573 203.076 35.8893 211.08 36.3933C215.364 36.6573 217.896 37.7733 217.524 42.1293C216.024 59.6973 198.192 200.529 198.192 200.529C197.34 206.601 196.992 208.641 196.44 210.057C196.023 210.937 195.385 211.692 194.587 212.25C193.79 212.807 192.861 213.148 191.892 213.237C185.724 214.365 149.976 210.357 143.364 209.637C134.879 208.791 126.46 207.375 118.164 205.401C113.22 204.201 112.512 203.145 111.936 201.489C110.592 197.697 111.672 191.013 112.68 181.809C120.576 172.437 122.376 171.069 131.364 162.525C142.26 152.181 145.104 142.665 141.18 129.693C141.901 129.292 142.602 128.855 143.28 128.385L143.304 128.361ZM95.856 67.7733C96.1894 67.3079 96.6491 66.9476 97.1807 66.7349C97.7122 66.5223 98.2936 66.4662 98.856 66.5733C98.8923 66.5766 98.9289 66.5727 98.9636 66.5618C98.9984 66.5509 99.0306 66.5332 99.0585 66.5098C99.0864 66.4864 99.1093 66.4576 99.1261 66.4253C99.1428 66.393 99.153 66.3576 99.156 66.3213C99.1628 66.2531 99.1429 66.1849 99.1003 66.1312C99.0578 66.0774 98.996 66.0423 98.928 66.0333C98.3097 65.885 97.6626 65.9096 97.0573 66.1043C96.452 66.299 95.9119 66.6564 95.496 67.1373C94.0463 64.3794 93.2266 61.3343 93.096 58.2213C94.62 53.7693 98.652 56.5293 104.148 57.1533C104.096 58.1718 104.305 59.1866 104.754 60.1021C105.203 61.0175 105.879 61.8033 106.716 62.3853C106.692 62.4617 106.7 62.5444 106.737 62.6153C106.774 62.6862 106.838 62.7395 106.914 62.7633C106.99 62.7872 107.073 62.7797 107.144 62.7426C107.215 62.7055 107.268 62.6417 107.292 62.5653C107.748 61.6413 108.672 60.6453 109.464 61.3653C110.532 62.2413 109.152 65.4453 107.508 64.7973C106.173 64.2424 104.677 64.2124 103.32 64.7133C102.149 65.3116 100.888 65.7168 99.588 65.9133C99.5232 65.9268 99.4649 65.9622 99.4231 66.0135C99.3813 66.0649 99.3585 66.1291 99.3585 66.1953C99.3585 66.2615 99.3813 66.3258 99.4231 66.3771C99.4649 66.4285 99.5232 66.4639 99.588 66.4773C100.992 66.4773 102.276 65.7093 103.548 65.2773C105.948 64.4613 106.992 65.4333 108 65.4453C108.458 66.4177 108.684 67.4829 108.661 68.5574C108.638 69.6318 108.367 70.6864 107.868 71.6384C107.369 72.5904 106.657 73.414 105.787 74.0446C104.916 74.6753 103.912 75.0958 102.852 75.2733C101.994 75.4329 101.111 75.4084 100.263 75.2015C99.415 74.9947 98.6205 74.6101 97.932 74.0733C95.58 72.1893 95.136 69.1413 95.856 67.7733ZM92.52 58.7493C92.5385 61.0459 93.0201 63.3152 93.936 65.4213C91.596 63.7173 90.12 60.2493 92.52 58.7493ZM99.528 49.2213C102.9 49.2213 105.996 50.1093 107.388 46.8213C107.906 47.211 108.277 47.7655 108.438 48.3936C108.6 49.0217 108.542 49.686 108.276 50.2773C108.264 50.3284 108.266 50.3819 108.282 50.432C108.297 50.4821 108.327 50.5269 108.366 50.5615C108.406 50.5961 108.454 50.6192 108.506 50.6284C108.558 50.6375 108.611 50.6323 108.66 50.6133C109.121 50.3875 109.531 50.0714 109.867 49.6839C110.203 49.2964 110.458 48.8452 110.616 48.3573C110.846 49.0512 110.87 49.7969 110.684 50.504C110.499 51.2111 110.113 51.8493 109.572 52.3413C109.525 52.3812 109.492 52.4359 109.48 52.4966C109.467 52.5573 109.475 52.6204 109.503 52.6758C109.531 52.7313 109.576 52.7758 109.632 52.8021C109.688 52.8285 109.752 52.8353 109.812 52.8213C110.463 52.7239 111.089 52.4989 111.653 52.1591C112.218 51.8193 112.709 51.3715 113.1 50.8413C113.173 51.749 112.985 52.6585 112.56 53.4638C112.135 54.2691 111.49 54.9369 110.7 55.3893C106.656 57.6813 100.98 55.6053 97.992 55.1253C96.8221 54.8667 95.6028 54.9458 94.476 55.3533C94.0272 55.5786 93.6321 55.8977 93.3174 56.289C93.0027 56.6803 92.7758 57.1347 92.652 57.6213C90.576 53.8053 93.384 49.0773 99.528 49.2213ZM106.992 61.7013C105.772 60.4904 105.016 58.8891 104.856 57.1773C106.581 57.3296 108.319 57.117 109.956 56.5533C110.147 57.8669 109.99 59.2076 109.5 60.4413C108.468 60.0093 107.52 60.7173 106.992 61.7013ZM107.112 80.0493C106.052 80.7171 104.813 81.0461 103.561 80.9925C102.309 80.9389 101.103 80.5053 100.104 79.7493C99.792 78.3213 99.408 76.8813 98.904 75.4773C100.462 76.1013 102.183 76.19 103.797 75.7295C105.411 75.2691 106.826 74.2855 107.82 72.9333C108.221 73.9049 108.682 74.8507 109.2 75.7653C108.291 77.0793 107.587 78.5238 107.112 80.0493ZM66.684 91.0893C66.6225 90.7978 66.494 90.5246 66.3086 90.2913C66.1232 90.058 65.8861 89.8711 65.616 89.7453C66 89.4213 66.444 89.6853 66.816 90.0573C66.96 90.6333 66.912 90.3453 67.092 91.1133C66.9577 91.1555 66.8125 91.1469 66.684 91.0893ZM66.264 91.4133H66.012C65.8613 91.1705 65.658 90.9646 65.417 90.811C65.1761 90.6572 64.9037 90.5596 64.62 90.5253C64.44 89.9253 65.268 89.8653 65.712 90.1773C66.156 90.4893 66.396 91.1973 66.264 91.4133ZM65.64 91.6653C65.856 91.9533 65.94 92.2773 65.64 92.2893C65.028 92.2893 65.016 91.8933 64.236 91.7253C63.6 90.9333 64.92 90.6933 65.64 91.6653ZM64.608 92.5533C65.196 92.9613 65.364 93.4053 65.316 93.4773C65.268 93.5493 65.064 93.4773 64.548 93.1413C64.284 93.0093 64.068 93.2613 64.296 93.5013C64.884 94.0053 65.352 94.1013 65.676 93.8133C66 93.5253 65.988 93.3453 65.676 92.8173C65.7734 92.8036 65.8671 92.771 65.952 92.7213C65.9425 93.0249 66.0114 93.3258 66.1523 93.5949C66.2932 93.864 66.5011 94.0922 66.756 94.2573C66.7797 94.2762 66.8068 94.2903 66.8359 94.2987C66.8649 94.3072 66.8954 94.3098 66.9255 94.3064C66.9556 94.3031 66.9847 94.2938 67.0112 94.2792C67.0377 94.2646 67.0611 94.245 67.08 94.2213C67.0989 94.1977 67.113 94.1706 67.1214 94.1415C67.1298 94.1124 67.1325 94.082 67.1291 94.0519C67.1258 94.0218 67.1165 93.9927 67.1019 93.9661C67.0873 93.9396 67.0676 93.9162 67.044 93.8973C66.312 93.1893 66.408 92.2773 67.512 91.7013C67.5689 91.6825 67.6177 91.645 67.6504 91.5948C67.6831 91.5447 67.6978 91.4849 67.692 91.4253C67.643 91.013 67.538 90.6093 67.38 90.2253C67.056 89.3133 67.272 89.1813 67.692 89.7093C68.0633 90.291 68.3048 90.9459 68.4 91.6293C68.4965 92.172 68.4033 92.7313 68.136 93.2133C68.1129 93.2556 68.1008 93.3031 68.1008 93.3513C68.1008 93.3995 68.1129 93.447 68.136 93.4893C71.484 99.4893 78.828 102.573 84.24 109.317C84.504 109.641 85.02 109.137 84.78 108.813C83.5284 107.178 82.1306 105.66 80.604 104.277L80.856 102.333C83.727 103.25 86.4973 104.456 89.124 105.933C88.3305 112.037 88.1777 118.206 88.668 124.341C81.252 125.349 75.192 122.277 71.16 115.425C68.196 110.397 66.36 103.425 65.532 94.5333C65.5261 94.4684 65.5013 94.4065 65.4609 94.3554C65.4204 94.3043 65.3659 94.266 65.304 94.2453C62.616 93.4773 63.336 91.6893 64.608 92.5533ZM90.432 98.7333C90.216 99.6813 90.12 100.173 90.072 100.437C89.0127 100.384 87.9513 100.384 86.892 100.437C87.552 99.4893 88.476 98.1213 89.208 96.9333C89.568 97.4493 90 98.1693 90.432 98.7333ZM82.332 95.3733C82.792 93.7935 83.3861 92.2559 84.108 90.7773C87.12 93.1893 84.948 96.7533 82.332 95.3493V95.3733ZM122.052 46.9293C122.052 46.9293 118.656 71.1333 118.632 71.3133C116.232 70.3773 112.488 71.3733 109.608 75.1173C109.235 74.1317 108.802 73.1699 108.312 72.2373C108.915 71.193 109.259 70.0194 109.316 68.8147C109.372 67.61 109.139 66.4094 108.636 65.3133C110.244 64.7613 111.216 62.0253 110.052 60.8253C110.761 59.424 110.948 57.816 110.58 56.2893C111.486 55.9171 112.267 55.2934 112.831 54.4918C113.394 53.6902 113.717 52.7442 113.76 51.7653C113.76 51.6093 113.76 49.8693 113.352 49.7253C112.944 49.5813 112.8 50.9853 110.76 51.9333C111.293 51.3173 111.581 50.5263 111.568 49.7116C111.554 48.8969 111.241 48.1156 110.688 47.5173C110.653 47.4814 110.608 47.4558 110.559 47.4435C110.51 47.4311 110.459 47.4325 110.41 47.4473C110.362 47.4622 110.319 47.49 110.285 47.5277C110.252 47.5654 110.229 47.6117 110.22 47.6613C110.027 48.416 109.633 49.1043 109.08 49.6533C109.253 48.9517 109.169 48.2114 108.843 47.5665C108.517 46.9215 107.971 46.4145 107.304 46.1373C107.235 46.113 107.16 46.1156 107.093 46.1445C107.027 46.1735 106.973 46.2266 106.944 46.2933C105.684 49.5333 102.912 48.5013 99.384 48.5013C95.664 48.5013 92.772 50.0253 91.62 52.5933C91.2009 53.4977 91.0386 54.5 91.1508 55.4905C91.2629 56.4809 91.6453 57.4215 92.256 58.2093C89.352 59.4093 89.856 64.3653 94.368 66.4173C94.608 66.8973 94.86 67.3653 95.124 67.8093C94.272 69.9333 95.46 73.4613 98.148 75.0813V75.2613C93.48 75.3333 91.668 78.3693 92.748 81.5373C90.7347 82.1402 88.8899 83.2044 87.36 84.6453C83.1 88.7973 80.688 95.0493 79.992 103.773C75.264 99.5493 71.28 97.4373 68.7 93.3693C69.792 91.3773 67.764 88.4613 66.912 88.8453C66.8383 88.8807 66.7751 88.9348 66.7288 89.0021C66.6825 89.0695 66.6546 89.1478 66.648 89.2293C66.4123 89.0742 66.1247 89.0186 65.8481 89.0748C65.5716 89.131 65.3285 89.2944 65.172 89.5293C65.017 89.4871 64.8539 89.4844 64.6976 89.5216C64.5413 89.5587 64.3968 89.6345 64.2774 89.742C64.158 89.8494 64.0675 89.9852 64.0141 90.1367C63.9608 90.2882 63.9463 90.4507 63.972 90.6093C63.7466 90.7026 63.5665 90.8803 63.4701 91.1044C63.3737 91.3286 63.3687 91.5815 63.456 91.8093C62.472 92.1813 62.34 93.9813 64.812 94.8813C65.448 103.953 67.212 110.877 70.296 116.061C74.52 123.153 80.856 126.261 88.644 125.049C88.947 128.647 89.5368 132.214 90.408 135.717C90.4209 135.774 90.4489 135.826 90.4891 135.869C90.5292 135.911 90.5799 135.942 90.636 135.957C91.428 136.149 92.256 136.353 93.036 136.509C93.5344 140.86 94.6706 145.114 96.408 149.133C96.4227 149.164 96.4458 149.189 96.4744 149.207C96.5031 149.225 96.5362 149.235 96.57 149.235C96.6038 149.235 96.637 149.225 96.6656 149.207C96.6943 149.189 96.7173 149.164 96.732 149.133C98.3366 146.362 100.244 143.779 102.42 141.429C103.836 139.977 104.064 141.669 103.32 142.689C90.96 159.429 84.12 179.433 83.088 202.149C81.072 203.589 80.844 208.005 82.764 209.793V210.429C61.536 209.733 20.184 203.445 14.004 200.529C12.202 199.803 10.6237 198.614 9.42887 197.082C8.23407 195.55 7.46518 193.73 7.20002 191.805C6.54002 187.989 6.68402 184.461 9.73202 155.721C14.112 114.633 19.968 68.5533 23.088 47.7213C24.936 35.2893 26.172 27.5013 27.804 24.0693C30.204 19.1013 33.9 17.2653 39.456 17.3373C53.4 17.5893 103.2 24.3333 114.456 27.5253C124.548 30.4413 123.6 36.9933 122.052 46.9053V46.9293ZM83.052 203.133C83.052 204.213 82.98 204.225 83.124 204.333C87.576 208.197 94.032 208.245 95.484 206.865C95.952 208.569 94.704 211.197 93.72 211.557C91.572 212.325 85.536 211.233 83.352 209.301C81.864 208.017 81.828 204.705 83.052 203.133ZM225.396 37.5333C225.288 44.0853 207.972 184.773 204.54 208.629C203.736 213.933 202.428 217.137 197.856 218.829C188.676 222.237 137.436 215.637 127.668 214.029C107.016 210.717 102.696 210.021 103.284 194.325C105.78 190.593 107.868 187.761 110.592 184.365C108.864 200.733 108.876 204.129 115.2 205.845C124.451 208.01 133.824 209.613 143.268 210.645C155.496 212.121 187.668 215.169 192.012 214.161C197.256 212.961 197.484 211.209 198.756 201.645L218.544 42.8853C218.892 39.6093 219.18 36.7773 217.62 34.9653C216.576 33.7653 214.764 33.1173 212.088 33.0093C211.332 33.0093 136.008 30.4413 130.932 36.9093C128.856 39.4773 128.688 42.8373 124.392 75.5853C123.333 75.4056 122.262 75.3093 121.188 75.2973C121.254 74.5836 121.116 73.8658 120.788 73.2282C120.461 72.5905 119.959 72.0595 119.34 71.6973C119.4 71.2293 123.876 40.9053 124.14 39.3813C125.184 34.1853 126.996 30.7653 131.76 29.5413C145.596 26.1693 197.904 25.8693 215.388 26.6493C221.856 26.9733 225.6 28.8813 225.396 37.5333Z" fill="#020617"/>
</svg>
