<svg xmlns="http://www.w3.org/2000/svg" viewBox="0 0 400 400" id="Enter-Password-2--Streamline-Milano.svg" height="400" width="400"><desc>Enter Password 2 Streamline Illustration: https://streamlinehq.com</desc><g fill="#000000"><path d="M129.46 132.78c0 0.7 -0.86 1.4 -1.34 1.82s0 0.48 0.24 0.42c0.92 -0.18 2 -1.86 1.7 -2.8 -0.2 -0.5 -2.8 -2.46 -3.38 -3.4 -0.14 -0.22 -0.54 0 -0.44 0.18 0.32 1 3.26 3.14 3.22 3.78zm3.64 -9a15.18 15.18 0 0 1 0.22 2.32c0 0.64 0.98 0.64 1 0a4.7 4.7 0 0 0 -0.5 -2.5c-0.18 -0.32 -0.76 -0.2 -0.72 0.18zm-16.36 3.18a0.34 0.34 0 0 0 0.44 0c0.38 -0.34 0 -2.34 -0.24 -2.76a0.32 0.32 0 0 0 -0.56 0c-0.18 0.46 -0.08 2.5 0.36 2.76zm-3.06 -5.34a19.74 19.74 0 0 0 2.82 -2.54 0.28 0.28 0 0 0 -0.26 -0.46 8.32 8.32 0 0 0 -3.08 2.6 0.36 0.36 0 0 0 0.52 0.4zm20.96 -1.46a0.38 0.38 0 0 0 0.56 -0.44 6.44 6.44 0 0 0 -3.08 -2.2 0.3 0.3 0 0 0 -0.12 0.48c0.3 0.44 2.16 1.82 2.64 2.16zM122 143.5c0.56 -0.12 0.32 -0.94 -0.22 -0.84a8.7 8.7 0 0 1 -9.32 -3.44 0.12 0.12 0 0 0 -0.2 0c0.76 3.96 6.42 5.02 9.74 4.28zm145.14 -12.1s-5.02 -0.34 -5.64 -0.42c0.74 -2 3.46 -10.28 -0.58 -17.24 -4.58 -8 -14.66 -5.42 -16.36 -4.3 -2.64 1.76 -5.72 4.42 -6.72 13.24l4 0.86s2.64 -12 9.7 -10.4 6.72 6.48 6.36 10c-0.2 1.88 -0.92 5.8 -1.24 7.44 -2 0 -16.66 -0.44 -21.88 -0.36a0.52 0.52 0 0 0 -0.3 0.32 32.82 32.82 0 0 0 4 18.12c2.36 3.74 6.76 5.12 10.98 5.5 6.24 0 6.2 -0.42 11.1 -2.16 9.14 -3.1 6.58 -20.6 6.58 -20.6zm-28.62 15.54a43.7 43.7 0 0 1 -3.5 -16.2c4.68 1.04 23.5 0.42 27.58 1.32 0.42 5.56 2 10.78 -1.34 15.6 -7.58 10.86 -20.36 4.34 -22.74 -0.72z" stroke-width="1"></path><path d="M251.12 139.18c-0.68 -4.16 -4.64 -2 -4.64 -2a2.64 2.64 0 0 0 0.92 4.34l-1.1 4.22a0.6 0.6 0 0 0 0.58 0.74h3.38a0.58 0.58 0 0 0 0.56 -0.8l-1.56 -4.16c1.82 0.2 1.86 -2.34 1.86 -2.34zm-24.6 -29.08c0.38 1.88 3.38 8.82 4.78 9.74 0.2 0.14 0.42 0 0.38 -0.28a90 90 0 0 0 -4.58 -9.72c-0.16 -0.34 -0.66 -0.08 -0.58 0.26zm2.14 13.64c-1.78 -1.1 -8.9 -4.68 -10.64 -5.34 -0.22 0 -0.42 0.26 -0.24 0.4a40 40 0 0 0 10.56 5.7c0.44 0.16 0.7 -0.5 0.32 -0.76zm1.02 5.26c-3.46 1.2 -6.76 3.5 -10.46 4 -0.38 0 -0.42 0.64 0 0.64a22.54 22.54 0 0 0 10.78 -3.94c0.32 -0.22 0.12 -0.86 -0.32 -0.7zm33.42 58.4 3.42 1.04 -3.42 1.04 1.34 2.96 2.56 -2.92 -1.1 4.36h3.46l-1.42 -4.28 2.76 2.92 1.34 -3.24 -3.52 -0.44 3.74 -2 -1.46 -2.52 -2.74 3.34 0.78 -4.24h-2.92l1.12 4.16 -2.64 -3.04 -1.3 2.86zm19.28 5.04 2.58 -2.92 -1.12 4.36h3.48l-1.42 -4.28 2.76 2.92 1.32 -3.24 -3.5 -0.44 3.72 -2 -1.46 -2.52 -2.72 3.34 0.78 -4.24h-2.92l1.12 4.16 -2.64 -3.04 -1.3 2.86 3.4 1.04 -3.4 1.04 1.32 2.96zm18.22 0 2.56 -2.92 -1.12 4.36h3.48l-1.42 -4.28 2.76 2.92 1.34 -3.24 -3.52 -0.44 3.74 -2 -1.46 -2.52 -2.76 3.34 0.8 -4.24h-2.92l1.12 4.16 -2.64 -3.04 -1.3 2.86 3.4 1.04 -3.4 1.04 1.34 2.96zm20.02 0 2.56 -2.92 -1.1 4.36h3.46l-1.42 -4.28 2.76 2.92 1.34 -3.24 -3.52 -0.44 3.74 -2 -1.46 -2.52 -2.74 3.34 0.78 -4.24h-2.92l1.12 4.16 -2.64 -3.04 -1.3 2.86 3.42 1.04 -3.42 1.04 1.34 2.96zm21.08 0.84 2.58 -2.94 -1.12 4.36h3.48l-1.42 -4.28 2.76 2.92 1.34 -3.22 -3.52 -0.44 3.72 -2.02 -1.46 -2.52 -2.72 3.36 0.78 -4.26h-2.92l1.12 4.16 -2.64 -3.04 -1.3 2.86 3.42 1.06 -3.42 1.02 1.32 2.98z" stroke-width="1"></path><path d="M258.56 179.88c-3.84 0.7 -3.04 5.24 -3.16 11.48a5.46 5.46 0 0 0 2.24 5.44c1.14 0.76 96.6 2 96.8 2a7.4 7.4 0 0 0 4.5 -0.8c2 -1.5 1.32 -5.08 1.42 -7.2 0.22 -7.18 0.74 -8 -3.88 -8.62 -1.82 -0.18 -91.64 -3.4 -97.92 -2.3zm98.98 3.22c2.48 0.76 2.14 3.1 2 5.16 -0.28 6.94 0.98 9.48 -3.86 9.68 -0.2 0 -96.18 -0.84 -97.76 -1.72 -2.44 -1.38 -1.82 -4.22 -1.84 -6.58 0 -2 -0.52 -5.4 0.42 -7.3 1.46 -2.96 9.32 -2 12 -2 5.5 -0.12 87.5 2.24 89.04 2.76z" stroke-width="1"></path><path d="M390 299.64s-0.1 -17.04 -0.2 -17.1c-8 -4.14 -46.42 -23.64 -46.56 -23.64s-17.18 -0.38 -22.12 0l-0.54 -14.18c12.38 0.16 51.74 -0.66 58.92 -1.72 0.22 0 4.54 -3.6 4.54 -3.6l-2.24 -104.6s-4.68 -3.58 -4.96 -3.58c-23.26 0.32 -87.24 -0.24 -97.18 0.12 0.56 -17.76 1.84 -25 -4.84 -26.4 -7.22 -1.54 -48.34 -2.52 -58.92 -2.14 -4.94 0.2 -6.72 1.36 -7.3 7.54a262 262 0 0 0 0.56 37.2c0.6 4.14 1.18 8.74 6 9.46 1.12 0.16 7.54 0.52 14.84 0.9 0 9.28 0.62 34.62 1.4 55.82a12.76 12.76 0 0 0 -4 2 5.82 5.82 0 0 0 -7 -1.36c-4.46 1.84 -4.12 3.86 -4.16 4 -5.26 0.76 -26.18 9.64 -31.48 12.22 -4 -8.72 -7.38 -17.68 -11.22 -26.46l6.58 -0.66 0.24 2.74h3.08l-0.26 -3.06h1.16l0.58 5.54h3.28l-0.32 -5.38c0.72 -0.2 4.28 0.32 4 -2.26 0 -0.2 0.14 -2.56 -2 -2.42l-18.34 1.1C166 187.26 156 168 142.72 164.98c-3.64 -5.34 -10.92 -7.52 -17.2 -7.02 -0.76 -0.12 -1.34 0 -0.98 -4.2a15.4 15.4 0 0 0 14 -10.44c2.64 -6.8 2.58 -22.98 2.52 -23.16 0.56 0 1.46 -0.4 1.74 -2.6a2.9 2.9 0 0 0 3.3 -4s4.54 -1.54 0.94 -6.7c0 0 4.48 -2.5 0.56 -7.46 0 0 4 -5.08 -1.36 -6.94 0 0 3.22 -5.34 -2.12 -7.28 0 0 2.3 -6.7 -3.72 -7.12A4 4 0 0 0 134.6 74s-1 -5.84 -7.08 -3.42c0 0 -2.3 -6.2 -7.32 -1.74 0 0 -5.1 -7.7 -10.12 -1.24 0 0 -3.6 -5.52 -8.38 0a4 4 0 0 0 -6.7 1.8s-5.22 -2 -4.84 2.68c0 0 -6.4 -2.48 -6.32 5.52 0 0 -8 -1.12 -5.22 6.64a3.36 3.36 0 0 0 -2.92 5.22s-6.9 2 -2.6 6.88c0 0 -6.7 3.36 -0.56 10 0 0 -5.66 4.22 0.98 9.42 0 0 -5.2 10.8 6.84 11.68 0 0 0.38 9.04 8.74 6.56a8.62 8.62 0 0 0 9.04 13.66c0.16 2.24 0.3 4.52 0.54 6.76 -12.14 0.34 -15.2 5.72 -15.5 6.2 -43.5 8.58 -71.78 84.76 -50 104.56 -0.2 0 2 -1.42 -23.1 16.9v17.54h8.36C18.82 312 21.42 376 21.44 376a0.4 0.4 0 0 0 0.32 0.62c46.44 0 330.28 -1.28 356.6 -1.46 0.14 0 0.62 -0.26 0.64 -0.5 0.58 -6.48 0.64 -63.18 0.4 -74.96zm-68.66 -35.22a51.54 51.54 0 0 0 6.9 -0.36 33.64 33.64 0 0 0 8 8.64l-56.48 1.28c1.28 -1.06 6.2 -7.16 7.74 -8.86a47.6 47.6 0 0 0 7.36 0c0 1.18 0.16 2.36 0.22 3.52 0 0.42 26.4 -0.26 26.4 -0.26zm-27.12 -19.7c0 -0.24 -0.42 -0.16 -0.42 0a116.32 116.32 0 0 0 0.52 13.44c-0.24 0 4.6 0.12 -86 -0.4 4.54 -2.86 14.88 -14 18 -17.56 1.82 0.96 5.24 -0.58 6.12 -5.3 0.18 3.36 0.34 6.14 0.5 8 0 0 0.48 0.42 0.58 0.38 24 0.54 84.64 1.18 84.64 1.18l0.94 22.66c-3.6 0 -21.18 0.78 -23.1 1.2 -0.7 -7.7 -0.58 -15.8 -1.78 -23.6zm-62.42 -13.08a13.42 13.42 0 0 1 -0.48 4.24c-0.48 1.58 -2 4.44 -4 4.14s-2.38 -4 -2.4 -4.1c2.52 -0.24 3.08 -1.66 6.88 -4.28zm-7.06 3.88a76.72 76.72 0 0 0 -2.98 -8.26c2.84 -1.28 5.7 -2.42 8.64 -3.44a33.78 33.78 0 0 1 1.36 6.82 38.5 38.5 0 0 1 -7.02 4.88zm54.66 -96.6c16 1.18 77 1.28 91.56 1.34 0 0 1.24 80.26 2 96.26 -17.02 -0.12 -121.8 -0.58 -131.32 -0.92 0 0 -2.64 -69.12 -3.22 -77.28l15.34 0.74c2.2 4 4.72 8 6.8 12a0.32 0.32 0 0 0 0.56 0c2.8 -3.84 5.88 -7.48 8.58 -11.38 3.06 0.68 6.64 0.36 8.2 -2.74 0.94 -1.94 1 -3.18 1.5 -18.02zm-66 16.74a6.28 6.28 0 0 1 -2.8 -4.64c-1.4 -5.74 -2.7 -26.94 -1.2 -41.16 0.62 -5.84 2.72 -6.2 8.42 -6.32 5 -0.1 49.38 1.44 51.8 1.62 6.68 0.52 9.76 0.4 9.74 9.02 0 4 -1.18 39.78 -1.58 41.16 -1.14 3.86 -4.58 4.58 -8 3.84 0 0 -8.18 11.28 -9.22 10.4 -0.6 -0.52 -5.3 -9.42 -6.6 -11.04 -0.1 -0.04 -39.5 -2.34 -40.52 -2.88zm24.6 2.64c-0.28 7.78 2.34 74.48 3 77.36 0 0 0.14 0.42 0.32 0.42 7.86 0.36 132.6 2 132.52 0.62 -0.74 -16 -1.46 -88.6 -2.34 -96.4 0 0 0 -0.92 -0.4 -0.94 -14.56 -0.66 -75.58 -1.2 -91.64 -1.02 0 -2.16 0.16 -4.44 0.22 -6.7 9.76 1.02 90.94 0.68 97.2 0.6s2.48 109.64 2.36 109.66c-6.4 0.9 -132.32 0.8 -145.58 1 0.1 -14.14 -1.9 -70.2 -3 -84.96zm-6.54 55.88c0.18 4.98 0.38 9.7 0.56 14 -0.52 -3.44 -2.26 -9.8 -4.46 -12.32 0.56 -0.3 2.66 -1.14 3.86 -1.68zm-3.88 2.76a15.1 15.1 0 0 1 2.68 6.32 43.1 43.1 0 0 0 -8.56 3.8c-1.08 -2.18 -3.4 -6.48 -3.42 -6.54 -0.14 -0.64 4.28 -2.38 4.68 -2.52a28.12 28.12 0 0 1 4.58 -1.06zm-7.72 -1.86c3.06 -1.4 5.46 -1.24 7.42 1.34 -2.46 0.12 -8.44 2 -9.36 3.82 -0.36 -0.58 -3.06 -2.9 1.9 -5.16zm-35.46 15.78c0 0.12 0.36 0 0.38 0 5.58 -2 29.1 -11.2 31.76 -12 10 16 6.78 19.38 9.42 21.22 -6.26 6.12 -11.7 13.4 -19.46 17.7l-42.96 -0.26c-1.7 -0.92 -4.9 -5.82 -5.62 -6.88a220.62 220.62 0 0 0 -3.52 -28.36c0 -0.14 -0.26 0 -0.24 0 1.28 8.24 2.6 34.92 2.62 35.14h-11.52c0.16 -0.32 -0.12 3.16 0.44 -35.66 11.38 -3.16 11.52 -16.2 11.52 -16.2l15.38 -1.5c3.82 8.98 7.4 18.08 11.76 26.8zm-21.9 26.68h-4.98a45.48 45.48 0 0 0 0.36 -5.68 25.36 25.36 0 0 0 4.62 5.68zm-69.08 -0.36h-10.98c3.8 -2.3 7.54 -4.74 11.18 -7.26a42.98 42.98 0 0 0 -0.2 7.26zm0.86 -6c3.36 0 6.76 -0.36 10.12 -0.4v6.34h-10.46a41.74 41.74 0 0 0 0.34 -5.84zm0 -1.8q5.1 -3.54 10 -7.36c0.16 2.72 0.2 5.46 0.2 8.18 -3.36 0.3 -6.78 0.22 -10.12 0.66a12.24 12.24 0 0 0 -0.16 -1.38zm10.82 7.74c0 -5.18 0 -10.36 -0.24 -15.54 4.78 -3.72 9.42 -7.62 14 -11.64 1.86 1.38 4 -0.88 7.28 -2.82 2.4 -1.42 3.72 -2 -1.74 -12.42a11.02 11.02 0 0 0 2.24 -0.7 11.02 11.02 0 0 0 6.48 7.2 249.28 249.28 0 0 0 0.86 36zM93.62 186a144.38 144.38 0 0 0 4 17.02c-3.7 -1.04 -8.98 1.68 -11.66 4.38a164 164 0 0 1 -3.64 -17.4c3.56 -2.26 6.94 -4.38 11.3 -4zm-11.36 3.44a113.28 113.28 0 0 1 -1 -17.16c3.08 -1.7 6.16 -3.38 9.74 -2 0.56 3.36 0.6 4.82 2.52 15.14a16.26 16.26 0 0 0 -11.26 4.04zm15.38 14s1.6 4.22 2.48 6.3c0.16 0.36 0.76 0.1 0.62 -0.26a166.98 166.98 0 0 1 -7.08 -27.7c-2.64 -14 -3.16 -16.84 2.54 -22 1.62 7.48 9.8 12.66 17.12 12.9s14.22 -5.46 16.9 -12.26C139.5 166 136 177.06 135.78 189.72a14.72 14.72 0 0 0 -8.8 8c-4 0.62 -6.2 5.14 -8.8 7.82a4.66 4.66 0 0 0 -3.84 -0.74 6.26 6.26 0 0 0 -5.16 3.2 197.4 197.4 0 0 0 -21.56 5.38c-0.5 -1.82 -0.98 -3.64 -1.46 -5.46a17.02 17.02 0 0 1 11.48 -4.52zM137.16 171.6a45.48 45.48 0 0 1 7.56 0.82 62.56 62.56 0 0 1 0.78 10 19.88 19.88 0 0 0 -8.48 0.2c0.04 -1.54 0.26 -8.8 0.14 -11.02zm8.34 11.28c0 2 0 4.12 -0.24 6.14a19.6 19.6 0 0 0 -8.94 0.54 44.24 44.24 0 0 0 0.68 -6.72 75.32 75.32 0 0 1 8.5 0.04zm-14.12 28.92c3.08 -2.18 3.44 -5.32 2.24 -5.68 1.38 -1.42 0.32 -3.14 -1 -2.96 1.46 -2 0.28 -3.36 -1.02 -2.94l-0.8 0.28a7.1 7.1 0 0 1 4.48 -6.12c-0.58 3.04 -1.18 20.18 -1.22 21.5a6.92 6.92 0 0 1 -2.68 -4.08zm1.02 -11.04c1.72 1.16 -2 3.32 -0.98 3.24a1.34 1.34 0 0 0 0.8 -0.4c1.38 -0.14 2.4 1.24 0.24 2.64 -0.3 0.2 -0.18 0.92 0.74 0.24 2.52 2.78 -5.6 7.16 -9.18 7.82a51.88 51.88 0 0 0 -5.38 -8.46A43.58 43.58 0 0 0 122 202a9.48 9.48 0 0 1 4.96 -4 17.84 17.84 0 0 0 -1.54 5.42c0.58 -0.42 6.12 -3.22 6.98 -2.66zM144.86 194v5.02a34.94 34.94 0 0 0 -9.24 -0.46 34 34 0 0 0 0 -4.3 16 16 0 0 1 9.24 -0.26zm0.22 18c-1.3 -0.88 -8.26 -0.76 -10.2 -0.38 0 -1.72 0.62 -10.18 0.78 -12.7a76.26 76.26 0 0 1 9.28 0.7c0.08 2.74 0.22 11 0.14 12.38zm-10.22 0c2.96 0 10.12 0.66 10.2 0.6 0 0.7 0 2.28 -0.12 4.48a12.86 12.86 0 0 1 -10.28 -0.7c0.06 -1.58 0.14 -3.04 0.2 -4.5zm10.64 -17.68c4.74 1.76 5.64 6.18 6.46 8.98s-0.44 10.6 -6.22 13.42c0.08 -6.42 0.26 -16.22 -0.24 -22.52zm-31.02 11.04c3.26 -0.5 4.18 1.12 6.42 4.7a13.26 13.26 0 0 0 -9.58 4.26 42.8 42.8 0 0 1 -1.32 -5.42c0.2 -2.6 2.56 -3.36 4.48 -3.66zm6.68 5.1c0.72 1.18 3.84 6.84 4.58 8.56 -2.5 2.86 -6.52 4 -10 5.24 -0.34 -0.76 -3.32 -7.06 -4.24 -9.52a14.84 14.84 0 0 1 9.66 -4.4zm4.8 9.08a19.66 19.66 0 0 1 1.3 4c0 2.7 -5.3 5.56 -6.3 5.82 -2.36 0.62 -3.36 -1.22 -5.14 -4.98a17.32 17.32 0 0 0 10.18 -4.96zm8.16 31.76c3.3 0.28 6.58 -0.64 9.82 -0.32 0.38 0 0.36 -0.52 0 -0.58a86.5 86.5 0 0 0 -9.84 0.66c-0.24 -4.24 -0.52 -13.1 -0.52 -13.26 20 1.2 7.76 -1.48 0 -0.42 -0.1 -5.24 0 -10.5 -0.12 -15.76a22 22 0 0 0 11.38 0.46c-0.16 10.84 -0.44 35.18 -0.28 35.48h-10c-0.04 -0.32 -0.24 -2.92 -0.44 -6.38zM170.6 199.66l-14.32 0.88A13.68 13.68 0 0 0 146 189.16c0.36 -5.82 0.38 -18.42 -2.84 -23.68 13.54 4.18 21.42 20.88 27.44 34.18zm-26 -27.78a12.7 12.7 0 0 0 -7.48 -0.68 13.46 13.46 0 0 0 -3.4 -9 29.56 29.56 0 0 1 4.62 -0.62 14.14 14.14 0 0 1 6.28 10.3zm-7.34 -10.94a13.26 13.26 0 0 0 -3.8 0.98 12.78 12.78 0 0 0 -5.36 -3.36 22.72 22.72 0 0 1 9.18 2.38zm3.46 -41.68a10.48 10.48 0 0 0 -4 -4.12A25.74 25.74 0 0 0 140.38 110a32 32 0 0 1 0.36 9.26zm-0.6 -10.22A17.6 17.6 0 0 1 137.02 114c-0.58 -6 -3.08 -13.02 -8.18 -16.76a15.56 15.56 0 0 1 11.3 11.8zm-13.56 -12.3 1.16 0.22c7.68 5.64 8.58 18 8.58 18 -4 -2.42 -7.68 -3.24 -14.36 -1.84a34.4 34.4 0 0 0 4.64 -16.38zm-0.58 0c-0.58 4.8 -0.48 9.06 -4.74 16.6a55.48 55.48 0 0 0 -9.88 -6.34 28.16 28.16 0 0 0 -10 -1.38A31.02 31.02 0 0 1 126 96.64zm-5.54 16.8a38.46 38.46 0 0 0 -16 8.3A72.76 72.76 0 0 0 101.32 106a30.64 30.64 0 0 1 10 1.48 50.52 50.52 0 0 1 9.14 5.96zm-19.64 -7.44c0.96 5.1 2.22 10 2.92 15.16a17.66 17.66 0 0 0 -8.88 -2 26.98 26.98 0 0 1 5.96 -13.16zm-6 13.52a86 86 0 0 1 9.06 2.64A26.18 26.18 0 0 0 100 126.82c-1.14 -1.82 -3.12 -4.24 -5.46 -4.26a23.54 23.54 0 0 1 0.24 -2.94zm-5 24.68a8 8 0 0 1 0.78 -10.72c1.58 1.48 4.68 4 6.86 3.76 0 3.04 0.36 6 0.6 9.14 -2.32 0.6 -6.42 0.2 -8.24 -2.18zm8 -8.92c0 -0.18 -0.32 -0.12 -0.32 0v1.36c-2 0.24 -4.88 -2 -6.34 -3.48s-5.16 -4.6 -0.62 -8.82a6.2 6.2 0 0 1 3.7 -1.54 8.14 8.14 0 0 1 5.32 4.34c0.86 1.42 6.12 -8.68 18.94 -12.58a25.82 25.82 0 0 1 12.42 -1.26 14.42 14.42 0 0 1 9.54 6.82c0 11.74 0.38 32.34 -16 32.92 -0.32 0 -2.26 6.38 1.3 5.36a22.34 22.34 0 0 1 4 1.6c-2.64 6.52 -9.2 12 -16.44 11.76a18.6 18.6 0 0 1 -16.7 -12.48c0.84 -0.72 1.74 -1.44 2.64 -2.18 0.58 0 0.44 -0.46 -0.46 -9.72a8 8 0 0 0 5.44 -7.04c0.2 -3.64 -2.94 -8 -6.72 -8.14a2.54 2.54 0 0 1 0 -0.78 0.28 0.28 0 0 0 -0.54 -0.14c-0.8 2.24 0.92 3.34 0.78 2.36 0 -0.26 0 -0.52 -0.14 -0.76 2.78 1.44 5.48 3.22 5.54 6.78a6.84 6.84 0 0 1 -4.44 6.48c-0.04 -0.14 -0.44 -7.44 -0.96 -10.86zm1.02 19.62q0 0.9 0.24 1.8c-5.8 4.26 -8.42 6.2 -8 13a10.92 10.92 0 0 0 -9.74 2 25.66 25.66 0 0 1 1.86 -9.66c0.16 -0.36 3.38 -7.14 15.58 -7.14zm-16 6.22c-2.16 3.84 -2.14 9.06 -2.24 13.22 -0.34 13.22 2.58 26.54 6.3 39.16 -3.54 1.14 -7.04 2.4 -10.46 3.8 0.64 -2.24 2.3 -11.82 2.54 -14.3 0 -0.18 -0.26 -0.2 -0.3 0 -0.7 2.68 -2.84 12.5 -3.14 14.72 -8.84 3.7 -13.88 6.92 -12.46 6.34 38 -15.56 37.38 -12.62 46.4 -15.3 0.26 5.16 6.46 18.44 8.74 20.8a266.54 266.54 0 0 1 -40.4 29.28c-12.94 7.6 -21.04 12 -38 8.8 -29.58 -5.46 -6.64 -95.32 43.02 -106.52zm295.3 212.88c-46.5 0 -330 1.42 -356 1.64 0.36 -6.42 -1.74 -63.88 -2.9 -76.1H378.6c-0.88 11.74 -1.2 68 -0.48 74.46zm-367.02 -92c3.74 -2 22.3 -16.12 22.44 -16.5 3.06 2.56 6.24 3.02 10.4 3.36 12.18 0.98 17 1.16 37.5 -11.18 27.6 0 211.64 2 212.94 1.3 0.14 1.72 0.3 3.44 0.42 5.16l-7.4 0.66c-1.78 0.84 -7.04 7.24 -8.44 8.88v3.02l58.58 -0.9v-3.22s-9.26 -9.32 -9.48 -9.3a40 40 0 0 0 -6.74 0.52l-0.18 -4.56c4.98 0.38 22.32 0.32 22.38 0.26 15.02 7.78 30.18 15.28 45.16 23.16z" stroke-width="1"></path><path d="M191.22 180.28a7.22 7.22 0 0 1 4.58 5.32 0.32 0.32 0 0 0 0.56 0 10 10 0 0 1 3.6 -5.68 0.46 0.46 0 0 0 0.26 -0.9c-2.7 -0.62 -4.22 -6.34 -4.26 -6.6s-0.5 -0.24 -0.54 0a10.96 10.96 0 0 1 -4.2 7.86zm4.52 -5.18a7.42 7.42 0 0 0 3.52 4.48C198 180 196.54 182.96 196.14 184a8.78 8.78 0 0 0 -3.7 -3.74 16 16 0 0 0 3.3 -5.16zm8.14 17.36c-0.12 -0.34 -0.72 -0.3 -0.66 0a5.28 5.28 0 0 1 -3.8 5.54s-0.14 0.18 0 0.22c3.74 1.2 3.4 3.08 3.74 4a0.4 0.4 0 0 0 0.72 0 5.68 5.68 0 0 1 3.2 -4c0.28 0 0.46 -0.42 0.22 -0.52a5.28 5.28 0 0 1 -3.42 -5.24zm-0.32 8.36a5.34 5.34 0 0 0 -2.84 -2.66 8 8 0 0 0 2.98 -3.2c0.12 1.2 1.8 2.56 2.56 2.94a4.58 4.58 0 0 0 -2.7 2.92zm133.2 -130.54c0.2 0 0.42 -0.2 0.32 -0.44 -0.88 -2.16 -6.38 -14.14 -6.58 -13.74 -1.38 2.66 -7.4 11.74 -7.58 13.62 -0.02 0.28 13.78 0.62 13.84 0.56zm-13.26 -0.9a102.26 102.26 0 0 0 7.22 -12.2 63.2 63.2 0 0 0 5.52 12.54 56.6 56.6 0 0 0 -12.74 -0.34zm28.36 -31.14a13.56 13.56 0 0 0 -0.14 -6.58c0 -0.2 -0.38 -0.24 -0.42 0 -0.16 1 -0.2 5.32 -0.28 6.46 -0.08 0.44 0.74 0.64 0.84 0.12zm-0.04 10.74a0.42 0.42 0 0 0 0.16 -0.5 38.14 38.14 0 0 0 -0.4 -5.9 0.22 0.22 0 0 0 -0.42 0 13.36 13.36 0 0 0 0 6.16 0.42 0.42 0 0 0 0.66 0.24zm1.06 -8.34a23.84 23.84 0 0 0 5.72 -0.28c0.6 0 0.64 -0.98 0 -0.94a24.46 24.46 0 0 0 -5.78 0.72c-0.3 0.08 -0.2 0.46 0.06 0.5zm-9.64 -0.16a26.86 26.86 0 0 0 5.52 0.32 0.5 0.5 0 0 0 0 -0.98 25.86 25.86 0 0 0 -5.42 0c-0.38 -0.02 -0.56 0.58 -0.1 0.66zM185.58 82a13.56 13.56 0 0 0 -0.14 -6.58c0 -0.18 -0.38 -0.24 -0.42 0 -0.16 0.98 -0.22 5.3 -0.28 6.44 -0.08 0.38 0.74 0.58 0.84 0.14zm-0.04 10.66a0.4 0.4 0 0 0 0.18 -0.5 37.7 37.7 0 0 0 -0.4 -5.88 0.22 0.22 0 0 0 -0.42 0 13.54 13.54 0 0 0 0 6.14 0.44 0.44 0 0 0 0.64 0.24zm1.06 -8.34a24.9 24.9 0 0 0 5.72 -0.32c0.6 0 0.64 -1 0 -0.96a24.34 24.34 0 0 0 -5.78 0.72 0.26 0.26 0 0 0 0.06 0.56zm-9.64 -0.16a25.44 25.44 0 0 0 5.52 0.32 0.5 0.5 0 0 0 0 -0.98 24.38 24.38 0 0 0 -5.4 0c-0.4 -0.02 -0.58 0.5 -0.12 0.66zM336 29.14a2.98 2.98 0 0 0 0.74 -4.72 4.14 4.14 0 0 0 -5.08 -0.2 2.74 2.74 0 0 0 -0.74 4 3.76 3.76 0 0 0 5.08 0.92zm-0.72 -4.66a2 2 0 0 1 1.48 2 2.94 2.94 0 0 1 -1.02 1.8 2.86 2.86 0 0 1 -3.72 0c-1.2 -1.12 -0.7 -4.84 3.26 -3.8zM205.6 72.7a2.98 2.98 0 0 0 0.74 -4.72 4.12 4.12 0 0 0 -5.08 -0.2 2.74 2.74 0 0 0 -0.74 4 3.58 3.58 0 0 0 5.08 0.92zm-0.72 -4.7a2 2 0 0 1 1.48 2 2.92 2.92 0 0 1 -4.74 1.82c-1.2 -1.1 -1.1 -4.82 3.26 -3.82zM31.84 144c-3.44 2.44 0.64 7.54 4.36 4.92 4.34 -3.14 -0.7 -7.6 -4.36 -4.92zm3.64 0.24c3.72 1.12 -0.34 6.48 -3.26 3.8 -1.22 -1.18 -0.42 -4.96 3.26 -3.88zm0.32 -106.92c0.54 -1 7.14 -6.26 7.24 -7.1a0.44 0.44 0 0 0 -0.14 -0.78c-1.76 -0.46 -10.1 -0.82 -12.5 -1.26 -0.12 0 -0.3 0 -0.24 0.16s5.12 8.8 5.16 8.82 0.36 0.4 0.48 0.16zm6.44 -7.12c-0.44 0.5 -5.88 5.24 -6.58 6.3 -1.66 -2.5 -3.06 -5.28 -4.82 -7.74 1.46 0.6 9.16 1 11.4 1.44z" stroke-width="1"></path></g></svg>