<svg width="180" height="180" viewBox="0 0 180 180" fill="none" xmlns="http://www.w3.org/2000/svg">
<path d="M127.015 77.147C132.471 60.5735 132.752 59.6357 131.571 58.5719C129.747 56.9276 128.439 57.3407 127.332 59.0309C126 61.064 124.734 64.0431 122.841 68.1813C132.433 15.3819 134.426 10.8125 120.511 7.65266C120.267 7.59506 106.649 5.08856 94.2204 4.58006C89.5602 4.38746 84.3888 4.19756 81.6375 8.38256C79.5621 11.5361 77.5236 22.9301 77.4462 23.498C75.7515 35.9864 65.6328 79.7796 69.6333 86.0831C69.8727 86.4593 69.4875 86.5188 68.8683 86.7338C64.2171 88.3574 62.0778 98.3106 54.111 117.673C50.5056 126.437 46.6284 137.142 46.6194 137.166C39.9747 155.782 35.1795 161.843 52.3389 167.529C92.9271 180.979 92.3808 176.188 98.886 162.24C109.321 139.863 113.579 129.025 118.851 107.808C120.083 102.842 119.215 101.812 119.412 101.29C128.348 77.5853 124.333 85.2911 127.015 77.147ZM128.072 59.525C128.878 57.9527 131.246 58.5782 131.28 60.2243C130.556 63.6309 125.287 79.4456 125.277 79.4825C125.093 80.0685 124.815 78.6572 122.167 78.1091C121.219 77.912 120.807 78.1334 120.877 77.7527C121.424 74.7755 121.562 72.2501 128.072 59.525ZM69.4974 83.0357C69.5334 82.673 69.3156 79.5429 69.3822 78.2694C69.672 72.6956 78.6657 15.227 81.9876 9.55792C82.7418 8.27006 83.6841 7.15586 85.0863 6.54296C87.8952 5.31536 92.0937 5.25146 92.2215 5.29376C92.2458 5.30276 120.138 6.44126 124.455 10.7963C128.147 14.5214 124.893 26.6138 122.991 40.5899C121.059 54.7838 115.138 84.7124 113.577 87.8003C110.615 93.6576 107.879 92.2635 104.525 91.6164C104.09 91.5318 104.315 90.7956 104.322 90.5211C104.36 89.019 104.985 87.8642 103.583 87.4088C101.068 86.5926 82.533 83.8592 79.2327 83.5055C78.4011 83.5919 77.7441 83.501 77.4453 84.4541C76.5939 87.1766 78.1446 86.858 74.7228 86.5529C74.4573 86.5286 71.9859 86.3342 71.7654 86.3252C70.8213 86.2919 70.4937 87.1856 69.4965 83.0366L69.4974 83.0357ZM77.8935 86.615C78.3489 84.4757 78.2967 84.2633 78.8583 84.3254C78.8826 84.3281 102.74 87.785 103.48 88.307C103.579 88.3782 103.606 88.5527 103.666 88.6805C103.338 88.7489 103.763 91.494 103.13 91.3707C76.5192 86.1768 77.772 87.1883 77.8935 86.615ZM101.428 92.1888C100.842 95.9625 101.361 96.9732 98.5233 96.4377C76.1862 92.2284 75.4356 93.1221 75.4266 91.2438C75.5994 90.2313 75.8712 88.7292 76.0107 87.9596C76.2123 86.8536 101.496 91.7442 101.428 92.1888ZM95.3202 145.24C86.3733 167.571 87.3417 166.988 82.8165 167.454C75.5481 167.129 70.9365 166.043 55.1037 161.524C48.4329 159.62 40.7442 158.448 41.8296 153.519C43.1373 147.587 63.5502 93.5136 67.2528 89.0568C69.222 86.6879 72.1875 87.2342 75.0036 87.5087C75.7794 87.5834 73.2783 92.6649 76.2492 93.2445C76.3842 93.2688 99.7329 97.5906 99.9579 97.5267C102.785 96.7302 101.8 92.0745 102.466 92.1564C114.238 93.5964 111.968 96.8211 103.862 121.932C99.6969 134.838 96.4281 142.476 95.3202 145.24ZM106.178 133.436C104.8 132.835 103.847 132.204 104.416 130.532C107.986 120.028 107.846 120.081 109.142 119.897C109.629 119.829 109.326 120.222 108.537 122.235C104.752 131.886 105.406 131.53 107.62 132.624C108.074 132.849 106.908 133.754 106.178 133.436ZM109.149 129.713C108.476 131.648 108.286 132.131 107.505 131.666C106.24 130.917 106.134 131.428 108.948 123.26C109.519 121.603 109.742 120.962 109.925 120.712C110.522 119.898 111.717 120.804 111.69 121.829C111.717 122.335 111.754 122.239 109.149 129.713ZM113.721 115.321C113.071 116.395 111.956 115.715 111.047 115.265C109.428 114.467 111.153 110.509 111.673 108.669C113.341 102.772 113.279 102.628 114.338 102.235C114.484 102.179 114.705 102.056 114.834 102.233C114.893 102.312 112.328 109.014 111.912 112.08C111.768 113.153 111.655 114.011 112.688 114.53C113.679 115.028 113.975 114.899 113.722 115.32L113.721 115.321ZM117.171 104.54C114.563 114.966 114.28 114.336 113.637 114.06C111.989 113.351 112.33 113.567 115.229 103.298C115.599 101.991 117.611 102.785 117.171 104.54ZM118.726 99.7731C118.16 99.189 118.877 99.6489 116.081 96.5664C116.062 96.5448 114.06 94.5738 113.943 94.3281C113.447 93.2958 116.829 94.9032 119.43 84.0185C120.691 78.7409 120.33 78.8228 121.409 79.0262C123.444 79.4114 124.559 79.982 124.745 81.8486C123.866 86.6682 118.928 99.5229 118.726 99.7731Z" fill="black"/>
<path d="M120.473 27.0937C118.129 46.567 113.861 69.1714 112.144 76.3966C111.959 77.1778 111.558 77.959 110.757 77.9068C97.7413 77.0644 74.7544 72.5464 74.7166 71.8255C74.3296 64.4752 82.5781 25.723 83.1829 22.1581C83.5519 19.9819 99.8896 22.9231 119.282 25.7212C120.047 25.8319 120.575 26.2504 120.473 27.0937ZM85.0045 22.1932C84.3097 22.1797 84.3295 22.1878 84.1378 22.6972C84.1297 22.7197 77.1961 57.7369 75.5581 71.0929C75.4915 71.6374 110.693 77.4982 110.892 76.753C113.445 67.2076 119.313 27.0595 119.317 27.037C119.42 26.4421 86.9665 22.3633 85.0045 22.1932Z" fill="black"/>
<path d="M110.587 12.5892C108.75 11.9115 101.474 10.9503 99.6069 10.7109C96.7602 10.3464 95.7315 12.8331 97.7268 13.7853C98.9346 14.3631 108.001 15.6411 110.038 15.6456C111.871 15.6501 112.418 13.2633 110.587 12.5892ZM110.833 14.319C110.764 14.4954 110.491 14.8743 110.396 14.7393C109.675 13.7223 101.326 12.6396 100.132 12.5064C99.7338 12.5262 98.4531 12.2544 97.9599 12.996C97.59 13.5486 96.5334 11.1105 99.4395 11.3112C102.619 11.5308 109.134 12.8529 110.251 13.2309C110.9 13.4505 110.95 14.0193 110.833 14.319Z" fill="black"/>
<path d="M97.0365 82.861C94.9404 83.8906 86.5461 82.4488 85.0107 80.9917C83.8893 79.9279 84.3582 77.2495 85.8648 76.8931C88.6719 76.2298 95.5263 77.4115 97.2165 78.4771C98.6979 79.4113 98.607 82.0897 97.0365 82.861ZM88.0338 77.2846C87.9987 77.5591 85.9305 76.7905 85.26 78.4726C85.1493 78.7507 85.0161 79.0234 85.0827 79.3177C85.3977 80.7091 85.8918 80.7757 86.8899 81.2041C88.8321 82.0384 93.6075 82.6531 95.8881 82.5154C97.7664 82.4029 97.9212 79.7812 96.9672 79.1485C95.0457 77.8741 90.3873 77.5411 88.0338 77.2846Z" fill="black"/>
<path d="M86.6901 116.873C81.8904 116.621 76.1349 114.712 75.1305 113.938C72.2451 111.712 73.2765 108.398 74.6967 104.885C76.7604 99.7821 77.4174 98.217 83.1018 99.099C86.196 99.5796 91.6194 100.166 93.2187 102.93C94.7388 105.558 94.1052 107.334 92.0217 113.032C90.7896 116.402 89.3874 116.604 86.6892 116.874L86.6901 116.873ZM74.0028 110.497C73.8138 111.91 75.4977 112.863 76.7784 113.252C78.1518 113.67 83.2215 115.263 86.4021 115.236C89.2866 115.212 90.1848 114.285 91.1442 111.514C92.9919 106.177 93.6021 104.586 91.6239 102.213C91.0515 101.526 82.6797 99.1089 78.7134 99.8793C76.9683 100.219 74.2386 108.735 74.0028 110.497Z" fill="black"/>
<path d="M99.8724 102.549C109.129 102.717 107.883 104.977 104.179 115.667C103.562 117.449 102.728 119.662 101.235 120.067C99.9453 120.417 93.7659 119.475 93 117.627C92.2827 115.896 91.8804 115.799 94.3932 109.618C96.357 104.788 96.2382 102.483 99.8724 102.549ZM99.6555 103.385C99.633 103.553 97.8654 103.109 97.1292 104.805C96.1491 107.065 93.6462 113.467 93.2583 115.899C92.9892 117.591 98.1021 118.344 99.7437 118.543C100.745 118.664 101.699 118.169 102.241 116.813C103.179 114.468 105.805 107.749 105.727 105.216C105.692 104.068 104.986 104.086 99.6555 103.385Z" fill="black"/>
<path d="M74.578 100.525C74.2063 102.283 71.554 111.405 70.0546 112.263C68.845 112.955 66.9316 112.67 65.5888 112.286C60.772 110.906 61.3147 111.357 60.3067 108.981C59.9854 108.225 60.3157 107.627 61.1653 105.378C65.0542 95.076 64.4485 94.9905 70.8205 96.7275C71.3713 96.8778 73.6438 97.5726 73.8859 98.0901C74.2099 98.7831 74.6113 99.4518 74.578 100.525ZM72.5323 98.1603C71.0392 97.5303 68.3869 96.813 66.8128 96.7914C66.0298 96.7806 65.4349 97.1433 65.0857 97.8444C64.0597 99.9018 61.3786 107.008 61.1995 107.556C60.8062 108.761 61.2058 109.336 62.23 109.802C62.7142 110.021 65.4241 110.833 67.4257 111.093C69.1267 111.315 69.8656 110.6 70.456 109.065C73.7005 100.631 73.9804 98.7714 72.5323 98.1603Z" fill="black"/>
<path d="M85.5686 126.081C85.8629 124.592 87.0509 121.199 88.4792 120.693C90.0146 120.148 96.8249 121.541 98.4971 122.365C100.782 123.49 99.1028 126.627 97.9976 128.978C96.9626 131.179 94.1447 130.319 91.5518 129.776C87.4244 128.912 86.1437 129.028 85.5686 126.081ZM95.2013 128.978C95.9159 128.94 96.7979 128.995 97.418 127.819C97.8842 126.934 98.5727 125.215 98.6807 124.11C98.7977 122.913 97.9553 122.911 97.1282 122.617C96.1796 122.279 93.0476 121.647 92.4014 121.546C89.9534 121.164 88.7213 120.719 88.1237 121.719C84.2339 128.228 86.888 127.448 93.7748 128.892C94.2302 128.987 94.673 128.938 95.2013 128.978Z" fill="black"/>
<path d="M85.7343 131.694C96.1014 133.194 97.3461 133.599 93.8649 140.53C93.0504 142.151 91.2351 141.931 85.6344 140.626C83.3565 140.095 82.1559 139.829 81.6753 137.569C81.4629 136.572 82.9569 133.628 83.5158 132.767C84.36 131.466 85.7145 131.805 85.7343 131.694ZM93.0891 139.65C93.6444 138.874 94.4274 137.084 94.6884 135.317C94.881 134.014 93.3789 133.846 87.2832 132.558C85.1799 132.114 85.4031 132.424 84.693 132.426C84.4563 132.426 80.9787 137.788 83.3124 138.659C85.0548 139.31 91.9461 141.248 93.0891 139.65Z" fill="black"/>
<path d="M87.8863 152.539C79.5676 151.51 75.163 150.568 79.5388 143.67C80.7331 141.787 82.8409 142.523 85.8451 143.166C90.9949 144.266 93.6733 144.414 89.9284 151.393C89.5009 152.19 88.7998 152.559 87.8863 152.539ZM90.7906 146.134C90.7843 144.868 89.4541 144.545 83.6221 143.433C82.4764 143.214 80.8114 142.748 80.3857 143.61C79.9105 144.572 78.1492 147.58 78.6631 148.689C79.2409 149.936 85.27 150.938 85.4554 150.95C88.3309 151.125 89.554 152.013 90.7906 146.134Z" fill="black"/>
<path d="M86.1637 161.404C84.7021 164.41 85.0045 164.551 78.3562 163.083C75.001 162.342 74.1352 162.019 73.4746 160.333C73.2226 159.69 73.2838 159.021 73.5142 158.398C75.4555 153.152 76.2106 153.563 80.9995 154.609C86.3122 155.769 88.7548 156.074 86.1637 161.404ZM84.6553 162.017C85.2214 161.29 85.8937 159.489 86.1088 158.498C86.5003 156.693 85.9963 156.641 83.6626 155.999C82.0858 155.565 76.558 153.897 75.8704 155.085C72.6979 160.561 74.218 160.8 77.1646 161.539C79.087 162.022 83.6095 163.36 84.6553 162.017Z" fill="black"/>
<path d="M71.3036 128.417C80.1713 129.89 82.8866 130.323 79.0013 137.525C78.7133 138.058 78.2381 138.331 77.663 138.479C76.4174 138.799 70.6178 137.247 69.3506 136.806C67.2977 136.092 66.7532 134.24 67.3643 132.701C68.7548 129.198 69.1868 128.372 71.3036 128.417V128.417ZM79.868 132.236C79.8788 131.27 79.4666 130.649 72.8075 129.352C72.1352 129.221 70.1021 128.626 69.671 129.467C66.7082 135.244 67.5056 135.077 71.3738 136.098C76.1006 137.345 76.0052 137.013 76.2005 137.08C76.7009 137.252 77.1734 137.029 77.654 136.96C78.4964 136.841 78.9167 135.144 79.4324 134.067C79.724 133.457 79.7132 132.791 79.868 132.235V132.236Z" fill="black"/>
<path d="M73.1154 149.266C65.7525 147.959 60.8178 147.307 64.5573 140.908C65.9505 138.524 66.2871 138.713 72.0444 140.025C77.1321 141.185 78.2229 142.155 75.2097 148.105C74.4645 149.576 73.1523 149.054 73.1154 149.266ZM64.029 144.762C63.7302 146.494 70.6755 147.551 72.4539 147.812C72.9516 147.885 73.4295 147.776 73.9002 147.64C74.8929 147.353 75.8271 144.105 75.99 143.083C76.3023 141.134 72.048 140.95 67.8081 139.783C67.5093 139.701 66.297 139.508 65.9721 139.924C65.3844 140.677 64.1388 143.074 64.0281 144.761L64.029 144.762Z" fill="black"/>
<path d="M80.8041 127.368C75.9711 126.591 69.51 125.922 71.229 121.67C73.0668 117.122 73.2153 116.866 77.7279 117.797C84.3879 119.173 86.6082 119.461 82.8552 126.406C82.2045 127.609 80.8284 127.183 80.8041 127.368ZM83.739 121.181C83.8497 119.005 77.304 118.647 75.126 117.937C74.9694 117.886 74.5572 118 74.2017 118.005C73.8939 118.011 73.6833 118.124 73.5402 118.403C70.4991 124.336 71.2551 123.955 76.4022 125.293C81.5844 126.641 82.7391 126.442 83.739 121.181Z" fill="black"/>
<path d="M68.1392 151.542C72.6797 152.764 72.8399 153.886 72.0389 156.43C70.5206 161.248 69.6521 161.068 64.9568 159.809C60.2543 158.548 59.573 158.536 58.8746 156.321C58.4786 155.065 60.0428 152.165 60.8096 151.095C61.8095 149.699 64.8551 150.657 68.1401 151.541L68.1392 151.542ZM70.0103 158.54C70.5764 157.675 71.2838 155.946 71.4791 154.34C71.5457 153.796 71.2667 153.425 70.7843 153.21C69.3038 152.548 63.3809 150.856 61.9967 151.006C61.0454 151.11 59.8061 154.499 59.5991 155.676C59.4155 156.72 60.2516 157.279 61.2848 157.507C62.6654 157.812 68.8916 160.249 70.0103 158.54Z" fill="black"/>
<path d="M62.5538 134.822C58.1546 134.174 51.6359 133.194 53.2352 129.144C54.5933 125.707 55.001 125.045 56.6417 124.807C56.7614 124.789 65.2484 125.857 66.1061 127.843C66.8162 129.488 65.5643 132.013 64.6904 133.707C64.2593 134.543 63.6068 134.848 62.5538 134.822ZM56.6993 125.397C56.6732 125.532 55.901 125.204 55.4411 126.025C52.8905 130.576 53.3882 131.393 55.7372 132.006C62.4836 133.766 63.9398 134.872 65.3168 129.54C65.999 126.899 64.5581 127.642 60.4352 126.16C59.6612 125.882 58.3778 125.743 56.6993 125.397Z" fill="black"/>
<path d="M62.5493 139.556C62.273 141.188 61.1912 145.033 59.5658 145.351C58.6586 145.528 56.945 145.111 55.9847 144.876C48.908 143.144 47.5769 142.643 51.0725 136.252C51.617 135.257 52.9175 135.262 54.0299 135.48C62.2775 137.099 62.2685 137.815 62.5493 139.556ZM59.9906 143.559C60.707 142.738 61.4504 140.606 61.6205 139.427C61.7312 138.662 61.4945 138.184 60.3992 137.826C59.3246 137.474 56.5022 136.553 55.0883 136.36C52.6376 136.026 52.2659 135.175 51.1688 137.39C48.8495 142.076 49.9475 142.023 53.9732 143.099C55.3133 143.457 59.0717 144.612 59.9906 143.559Z" fill="black"/>
<path d="M66.548 123.825C58.5389 122.515 57.638 121.931 56.9945 120.206C56.5895 119.119 56.9765 118.226 58.1069 115.807C58.808 114.307 59.6306 113.925 60.5045 113.935C61.5134 113.947 66.746 114.763 69.2633 116.09C70.9706 116.99 69.9491 119.83 69.0977 121.565C68.5802 122.618 68.3453 123.808 66.5471 123.826L66.548 123.825ZM60.2246 114.55C59.5811 114.546 59.474 114.69 58.9178 115.735C57.9701 117.516 56.7281 120.017 58.4489 120.679C60.1256 121.324 63.7508 122.165 64.6067 122.256C66.2042 122.427 67.4822 122.701 68.141 121.265C68.6828 120.084 69.9878 117.266 68.8664 116.607C67.745 115.947 61.5035 114.433 60.2246 114.55Z" fill="black"/>
<path d="M48.2296 155.145C45.7366 154.48 45.5638 153.891 45.0508 152.787C44.7016 152.034 44.8825 151.292 45.1525 150.562C46.4503 147.052 47.137 146.184 49.2934 146.574C50.8837 146.861 55.3027 147.832 56.6941 148.66C57.8173 149.328 57.802 149.584 57.9883 150.184C58.3843 151.46 57.0397 154.34 56.4574 155.448C55.48 157.308 53.7151 156.606 48.2296 155.145ZM53.8321 155.16C54.5953 155.16 55.4413 155.216 55.885 154.339C56.6032 152.92 57.9487 149.937 56.4799 149.314C53.6485 148.112 49.1431 147.108 48.2476 147.089C47.3827 147.07 47.2765 147.691 46.8832 148.387C46.0057 149.94 44.7925 152.502 46.4233 153.21C47.8561 153.832 52.5991 155.162 53.833 155.161L53.8321 155.16Z" fill="black"/>
<path d="M82.4052 61.8633C78.3579 62.2242 126.54 27.3231 106.924 42.8238C106.901 42.8418 82.4295 61.848 82.4052 61.8633Z" fill="black"/>
<path d="M83.4916 50.9041C83.3305 51.0373 83.1865 51.1057 83.0137 50.968C81.8221 50.0185 102.98 35.1784 103.927 35.2594C104.643 35.3206 93.7093 42.4999 83.4916 50.9041Z" fill="black"/>
<path d="M116.674 30.8557C114.28 30.3733 113.524 30.4534 113.581 29.3851C113.641 28.2412 113.995 27.5212 115.136 27.622C116.443 27.7381 116.583 27.6463 117.475 28.0756C118.503 28.5706 118.284 30.7036 116.674 30.8557ZM116.463 30.0502C117.1 30.0502 117.322 30.0943 117.343 29.5039C117.374 28.6786 116.961 28.5256 116.135 28.4734C115.821 28.4536 115.97 28.7344 115.733 29.7208C115.671 29.9773 115.806 29.9485 116.463 30.0502Z" fill="black"/>
<path d="M105.748 54.0073C105.725 54.0271 94.1953 63.4726 93.8389 63.2503C92.9758 62.713 105.173 53.6041 105.748 54.0073Z" fill="black"/>
<path d="M112.856 27.774C112.484 29.8926 112.569 29.8206 112.002 29.8152C110.938 29.8053 111.162 29.8062 111.586 27.3537C111.643 27.0216 111.836 27.0504 112.065 27.0486C112.753 27.0432 112.825 27.1125 112.856 27.774Z" fill="black"/>
<path d="M93.7325 25.6599C93.5003 25.7832 93.7235 25.839 93.8585 26.2017C94.1177 26.8983 93.5291 27.6849 92.8586 27.6039C92.4077 27.549 92.4851 27.0288 92.666 26.9091C93.2303 26.5365 92.8496 26.172 92.7704 25.8804C92.3105 24.2055 95.1599 24.903 93.7325 25.6599Z" fill="black"/>
<path d="M91.1089 24.8256C92.0314 24.8256 91.4941 25.5465 91.8145 26.0712C92.5237 27.234 90.7453 28.1394 90.4987 27.5202C90.3124 27.0513 91.0567 26.8209 91.1251 26.5428C91.1476 26.4519 90.9685 26.3187 90.9019 26.1936C90.8452 26.0874 90.7876 25.6977 90.6895 25.6626C90.3061 25.5267 90.3556 24.8265 91.1098 24.8265L91.1089 24.8256Z" fill="black"/>
<path d="M87.853 25.6905C87.7135 26.721 87.7702 27.297 87.0763 26.6301C86.9746 26.5329 87.2374 26.1261 86.6272 26.1675C85.6498 26.2341 87.349 23.6556 87.7486 24.9246C87.8233 25.1613 87.8197 25.425 87.853 25.6905Z" fill="black"/>
<path d="M110.458 27.7121C111.071 27.7166 111.035 27.8426 110.709 29.5211C110.619 29.9837 110.267 29.7614 109.846 29.7002C109.358 29.6291 109.457 29.4635 109.736 28.2557C109.842 27.7958 109.962 27.7076 110.459 27.7112L110.458 27.7121Z" fill="black"/>
<path d="M85.1852 25.7523C85.0214 25.6155 84.7289 25.6479 85.0061 25.1925C85.4084 24.531 85.5965 24.2493 85.889 24.3654C86.5667 24.6336 85.8134 26.8962 85.5128 26.79C85.0502 26.6262 85.4768 25.9944 85.1852 25.7523Z" fill="black"/>
<path d="M108.7 28.0437C109.154 28.0455 109.345 28.1679 109.269 28.5945C109.161 29.2011 109.174 29.4594 108.878 29.5431C108.448 29.6646 107.864 29.499 107.975 29.1075C108.294 27.9789 108.222 28.041 108.7 28.0437Z" fill="black"/>
<path d="M89.5961 25.487C89.6195 26.0603 88.8527 26.0423 88.8482 25.5995C88.8437 25.1 89.5754 24.9866 89.5961 25.487Z" fill="black"/>
<path d="M89.2686 26.8345C89.2443 27.3475 88.581 27.1531 88.6179 26.7967C88.6566 26.4277 89.292 26.3368 89.2686 26.8345Z" fill="black"/>
<path d="M89.9524 79.0432C90.0874 79.8973 90.28 78.3952 92.4499 78.9109C93.034 79.0495 92.8963 79.7713 92.8459 80.1736C93.0961 80.143 95.2876 79.7092 95.7034 79.9108C96.8158 80.449 93.9538 80.5804 92.2834 81.457C91.8406 81.6892 91.504 81.4282 91.5841 80.9287C91.6444 80.5552 91.9513 79.9774 91.9774 79.8514C92.278 78.4438 89.551 81.1006 88.9489 80.6605C88.5466 80.3662 88.9507 79.882 89.0551 79.4599C89.1919 78.9028 87.5845 79.9648 87.3433 79.9801C85.6252 80.0881 89.6626 77.2216 89.9515 79.0441L89.9524 79.0432Z" fill="black"/>
<path d="M84.6552 110.549C84.684 110.345 85.9647 111.37 86.7234 107.282C86.817 106.78 86.628 106.132 85.9143 105.895C84.585 105.453 82.0992 104.541 81.3513 105.755C80.8914 106.501 79.9536 108.706 80.7366 109.312C81.6258 110 83.244 110.297 84.6552 110.549Z" fill="black"/>
<path d="M88.2867 110.662C88.0032 110.737 87.7953 110.523 87.8646 110.233C88.2444 108.64 88.3704 107.924 88.9068 108.436C90.7806 110.23 91.1379 109.908 88.2876 110.661L88.2867 110.662Z" fill="black"/>
<path d="M78.7665 105.968C79.4586 105.959 79.2138 106.375 78.8529 107.662C78.6279 108.465 78.2094 107.992 76.8621 106.961C75.9459 106.26 77.6316 106.168 78.7665 105.968Z" fill="black"/>
<path d="M86.2121 103.696C86.3048 104.203 85.4912 103.883 84.3518 103.517C83.8406 103.353 84.3734 102.772 84.6947 102.409C86.0123 100.92 85.9574 101.057 86.2121 103.696Z" fill="black"/>
<path d="M81.1909 111.931C81.1864 111.186 82.1152 111.606 83.1862 111.942C83.9008 112.166 82.954 112.924 82.0891 113.693C81.5698 114.156 81.4789 113.17 81.1909 111.931Z" fill="black"/>
<path d="M101.552 110.336C101.71 107.1 98.0598 105.764 98.2119 108.717C98.2776 109.992 100.167 108.669 99.4836 112.643C99.3504 113.417 98.6385 113.431 98.148 113.698C97.5819 114.007 97.482 115.171 98.0931 115.24C100.776 115.541 101.42 113.059 101.553 110.335L101.552 110.336Z" fill="black"/>
<path d="M69.7862 103.984C70.8455 100.503 67.7837 98.3943 67.0124 100.713C66.4904 102.283 68.996 101.795 67.6469 104.902C67.4102 105.449 67.1141 105.818 66.4256 105.787C65.4302 105.741 64.964 107.185 65.8838 107.406C68.2553 107.978 69.0761 106.318 69.7862 103.984Z" fill="black"/>
<path d="M134.524 33.3414C134.058 33.6204 133.796 34.2441 134.389 34.2243C135.645 34.182 136.82 33.4287 139.662 33.4503C147.592 33.5106 156.519 40.4928 157.58 53.1828C157.721 54.8775 157.594 55.7577 158.051 55.7748C158.681 55.7991 158.832 54.5427 158.873 53.8749C159.85 38.3319 144.055 27.6417 134.523 33.3423L134.524 33.3414Z" fill="black"/>
<path d="M134.039 41.9346C133.433 42.2091 133.046 42.9012 133.702 42.9651C134.944 43.0866 137.821 42.1263 141.046 44.0667C146.531 47.367 146.748 55.5858 147.601 56.3823C148.811 57.51 148.433 53.7786 148.154 52.3611C146.166 42.2523 138.61 39.8637 134.037 41.9346H134.039Z" fill="black"/>
<path d="M133.386 50.0392C131.004 50.095 130.884 51.2704 132.333 51.3667C138.012 51.7411 137.954 58.6612 139.121 58.5622C140.47 58.447 138.677 49.9168 133.386 50.0401L133.386 50.0392Z" fill="black"/>
<path d="M51.8448 75.462C50.6469 75.3756 24.771 73.9842 21.891 73.662C21.3618 73.6908 21.0189 73.6053 20.9505 74.0742C20.9271 74.2182 21.1305 74.3586 21.2475 74.3739C32.6946 75.9084 44.3874 76.5159 52.0455 76.3746C52.4298 76.3935 52.9905 76.2333 53.0094 75.9372C53.0256 75.6735 52.6557 75.5223 51.8457 75.4629L51.8448 75.462Z" fill="black"/>
<path d="M55.388 90.3096C54.8048 90.0126 54.173 91.0773 36.6932 104.523C33.8924 106.68 33.5369 106.872 33.8438 107.172C34.3892 107.704 54.3044 92.9016 55.5455 90.8379C55.5995 90.7452 55.5788 90.4068 55.388 90.3096Z" fill="black"/>
<path d="M53.9894 60.2872C51.9923 58.3009 34.2533 44.9701 33.8267 45.1159C33.7601 45.1393 33.7493 45.1906 33.7142 45.2527C33.6071 45.4399 33.644 45.5578 33.8771 45.7513C34.6781 46.4164 53.2937 61.6615 53.9741 60.9577C54.254 60.6706 54.137 60.4348 53.9894 60.2872Z" fill="black"/>
<path d="M60.176 38.5576C58.3553 33.7984 56.3141 28.8898 55.8083 28.0519C55.7543 27.9628 55.6652 27.8134 55.5302 27.8764C55.3907 27.9403 55.3277 27.97 56.0441 30.0904C61.8671 47.3209 62.0849 47.5351 62.6681 48.1075C64.6634 50.0758 61.1885 41.2027 60.176 38.5576Z" fill="black"/>
</svg>
