<svg xmlns="http://www.w3.org/2000/svg" viewBox="0 0 400 400" id="Approval-3--Streamline-Milano.svg" height="400" width="400"><desc>Approval 3 Streamline Illustration: https://streamlinehq.com</desc><g fill="#000000"><path d="M193.88 116.68a0.68 0.68 0 0 0 0.64 0.9c2.24 0 -5.58 0 24.92 -0.6a0.96 0.96 0 0 0 0.64 -0.6c0.24 -2 0.4 -14.3 0.38 -16.84A304.26 304.26 0 0 0 252 100a0.76 0.76 0 0 0 0.5 -1.16c0.18 -4 -0.36 -49.78 -0.56 -53.84a0.56 0.56 0 0 0 -0.24 -0.46c-0.76 -0.5 -42.9 -2.46 -45.72 -2.24a1.18 1.18 0 0 0 -0.7 0.72c-0.4 9.74 1.04 34.44 1.64 38.64 -15.7 -0.8 -14.9 -1.34 -15.28 -0.66 -0.18 0.24 2.06 34.24 2.24 35.68zm12.76 -72.92c12.82 -0.12 40.22 1.58 44.14 1.76 0.2 5.82 0.28 51.7 0.3 52.94 -2.9 0.1 -18.92 0.38 -30.68 -0.46 -0.12 -3.12 -1.02 -13.02 -1.42 -15.36 -0.14 -0.9 -2.14 -0.72 -10.74 -0.9a364.46 364.46 0 0 1 -1.6 -37.98zm11.12 39.7c1.18 7.84 1.04 25.5 1.04 32.22 -4.46 -0.24 -19.28 0.14 -23.6 0.42 0 -2.36 -2.28 -33.84 -2.28 -33.84 4.44 0.4 21.74 1.2 24.84 1.2z" stroke-width="1"></path><path d="M213.52 73.36c0 1.22 0 1.48 0.32 1.74a0.8 0.8 0 0 0 0.74 0.12c0.58 0 4.66 0.36 4.46 0.36a1.5 1.5 0 0 0 0.9 -0.66 27.5 27.5 0 0 0 0 -4s4.96 -4.46 6.66 -6l5.8 -0.24c0.68 1.1 6.32 10.62 6.92 11.58 -3.04 0 -3.18 -0.22 -3.46 0.2s0 0 0 4.42c0 3.88 0 3.88 0.32 4.12s-0.3 0 4.68 0.1c5.54 0 6.22 0.2 6.36 -0.6 0.2 -3.36 0.3 -7.44 -0.32 -7.82a28.16 28.16 0 0 0 -5.6 -0.36c-1.46 -2 -5.88 -9.14 -7.42 -11.56 2.36 0.16 2.42 0.14 2.64 0s0.12 0 0 -5.8a25.32 25.32 0 0 0 -0.34 -5.04c-0.3 -0.54 -2 -0.78 -9.06 -0.34 -0.62 0 -1.06 0 -1.32 0.42 0 0 -0.26 9.78 -0.26 9.88L220 68.94v-0.82a0.76 0.76 0 0 0 -0.34 -0.86 16 16 0 0 0 -5.56 0.2 0.84 0.84 0 0 0 -0.58 0.8c0.02 0.78 0 3.5 0 5.1zM246 78.12v5.68a77.34 77.34 0 0 1 -8.62 0v-6zm-18.82 -22.98c8.44 -0.4 8 -0.6 8 -0.24 0 1.1 0 6.18 0.22 8.44 -1.24 0 -6.56 0.2 -8.32 0.2 -0.16 -1.18 0.02 -7.04 0.06 -8.4zm-12 13.78c0.78 -0.12 2.7 -0.22 3.44 -0.24v5.48l-3.54 -0.42s0.04 -3.9 0.06 -4.82zM264 108.24a0.62 0.62 0 0 0 0.6 0.62c2.74 0.22 17.26 0.36 18.98 0a0.66 0.66 0 0 0 0.42 -1.02 106.14 106.14 0 0 0 -0.38 -13.82c0 -2 -0.64 -2.68 -2.76 -2.52 -0.5 0 -14 -0.86 -16.76 -1.22a0.76 0.76 0 0 0 -0.76 1.14c0.18 5.66 0.52 11.2 0.66 16.82zm17.72 -15.18c0.3 0 0.32 0 0.38 0.14s0.86 11.32 0.78 14.28c-0.92 0 -15.58 0.2 -17.64 0.14 -0.14 -2.92 -0.5 -13.42 -0.62 -15.76 4.62 0.6 16.6 1.26 17.1 1.2zM199 110.56c6.92 0 12.76 0.18 13.62 0a0.82 0.82 0 0 0 0 -1.58c-1.12 -0.18 -11.32 0.4 -13.62 0.46a0.56 0.56 0 0 0 0 1.12zm1.5 -11.24a0.56 0.56 0 0 0 0 1.12h12a0.86 0.86 0 0 0 0 -1.7c-1.82 -0.02 -8.3 0.36 -12 0.58zm-0.34 -6.86c4.74 -0.58 9.58 0.84 14.4 0a0.86 0.86 0 0 0 -0.24 -1.68c-1.06 0.12 -3.62 0.16 -6.3 0.2 -8.14 0.14 -8.62 0.12 -8.5 0.98a0.58 0.58 0 0 0 0.64 0.5zm103 -8.46a0.86 0.86 0 0 0 1.48 -0.9c-1.32 -2.38 -7.26 -11.48 -8.62 -13.84a0.56 0.56 0 0 0 -0.96 0.56 121.6 121.6 0 0 0 8.1 14.18zm22.32 -1.64c1.46 -7.54 4.34 -26.8 4.62 -28.94 0.12 -0.74 -1.04 -1.04 -1.16 -0.24 -0.6 3.56 -4.92 26.4 -5.4 28.7 -0.26 1.24 1.7 1.78 1.94 0.48zm13.48 3.92c0.36 0 0.3 0 4.78 -3.52 9.16 -7.24 9.06 -6.36 9.02 -7.06a0.62 0.62 0 0 0 -0.96 -0.52 136.84 136.84 0 0 0 -13.46 9.56 0.9 0.9 0 0 0 0.62 1.54zM62 71.22c-0.34 9.78 0.42 5.56 -1.32 7.84A8.92 8.92 0 0 0 59.8 84a14.12 14.12 0 0 0 4.2 2 11 11 0 0 1 1.44 -5.78 0.8 0.8 0 1 1 1.38 0.8 9.88 9.88 0 0 0 -1.2 5.52 39.2 39.2 0 0 0 7.18 1.46 21.44 21.44 0 0 1 0.36 -7.58 0.8 0.8 0 1 1 1.52 0.48 20 20 0 0 0 -0.24 7.26 26.58 26.58 0 0 0 6 -0.3 62.12 62.12 0 0 0 -0.44 -7.16 0.8 0.8 0 0 1 1.6 -0.18 58.58 58.58 0 0 1 0.4 7.1 34.22 34.22 0 0 0 5.64 -1.78 22 22 0 0 0 -0.86 -5.54 0.8 0.8 0 0 1 1.52 -0.48 22.6 22.6 0 0 1 0.9 5.3 21.86 21.86 0 0 0 3.24 -1.88 0.3 0.3 0 0 0 0.14 -0.24 22.48 22.48 0 0 0 -0.84 -5 14.92 14.92 0 0 0 4.8 -9.06 136.56 136.56 0 0 0 1.46 -21.6c4.9 -4.42 1.54 -12.24 0.98 -10.52a20.22 20.22 0 0 1 -3.06 5.58 0.24 0.24 0 0 0 0 0.28c0.94 2.84 0.54 9.28 0.26 14 -0.44 7.2 0 16 -5.72 20.22A6.16 6.16 0 0 0 88 76.6c-12.42 0.46 -22.9 0.54 -24.7 0.94 -0.18 -13.44 4.14 -14.3 2.9 -14.76a6.58 6.58 0 0 1 -4.2 -4.46 5.04 5.04 0 0 1 1.84 -4.96c1.34 -0.76 3.66 0 5.5 2a0.28 0.28 0 0 0 0.34 0c0.54 -0.26 -1.16 -4.46 2 -10 15.4 8.36 33 -8.54 23.68 -25.36a0.3 0.3 0 0 0 -0.56 0c-4.8 18.3 -26.3 -11.44 -38.22 16.62 -8.48 5.82 -9.76 14.64 -3.6 24.84A32 32 0 0 0 62 71.22z" stroke-width="1"></path><path d="M77.32 68.8a6.7 6.7 0 0 0 9.72 0.16c4.22 2 7.9 -1.84 7.5 -2.5 -0.18 -0.3 -0.64 0 -1.66 -0.26 -1.56 -0.46 -2 -1.8 -3.44 -2.38a2.58 2.58 0 0 0 -0.46 -2.66c-0.86 -1 -1.84 -0.66 -1.22 -3.38a0.56 0.56 0 0 0 -1.08 -0.28c-1.14 4.14 1.36 3.9 1.46 5.1a1.22 1.22 0 0 1 -0.2 0.82c-1.42 -0.12 -6.2 0.38 -7.36 1.88 -0.86 1.1 -0.88 2.72 -3.06 3a0.3 0.3 0 0 0 -0.2 0.5zm3.3 -10.94c0 -0.28 -0.1 -1.02 -0.18 -1.7 -0.12 -1 0 -2 -1.04 -2a0.84 0.84 0 0 0 -0.86 0.86c0 0.46 -0.22 2.38 -0.22 2.88a1.16 1.16 0 1 0 2.3 -0.04zM92 53.18c-0.98 0 -0.92 0.8 -1.1 2 0 0.66 -0.22 1.38 -0.24 1.72a1.16 1.16 0 0 0 2.3 0c0 -0.5 -0.12 -2.4 -0.12 -2.84a0.84 0.84 0 0 0 -0.84 -0.88zm34.78 135.68c1.76 -1.06 2.3 -3.48 1.6 -7.2S118.88 140.76 117.08 134a20.72 20.72 0 0 0 12.48 2.54c20.56 -1.74 36.28 -20.86 49.62 -36.12a0.7 0.7 0 0 0 0.32 -0.88 37.18 37.18 0 0 0 -2.28 -5.1 8.68 8.68 0 0 0 3.84 -1.52 20.68 20.68 0 0 0 3.42 -4.14c1.3 -0.58 3.28 -1.48 3.1 -3.32a1.86 1.86 0 0 0 -0.9 -1.38 2.2 2.2 0 0 0 -0.36 -3.04c1.22 -2 -0.48 -4.54 -3.74 -2.86a19.8 19.8 0 0 0 -2.88 2.24c-0.68 -3.42 -4.56 -9.36 -6.3 -6.7a4.66 4.66 0 0 0 -0.18 3.16c0.76 4.52 0.36 5.52 -1.78 9.46a3.08 3.08 0 0 0 -4.12 -0.34c-0.76 0.4 -21.84 12.56 -24.82 14.48a42.88 42.88 0 0 1 -5.34 3.14c-15.44 -8 -26.98 -16 -42.54 -19.32a0.32 0.32 0 0 0 -0.24 0c-11.26 8 -25.36 8.2 -36 0.56a0.28 0.28 0 0 0 -0.24 0c-0.32 0 -2 0.64 -3.34 1.12 -28.5 11.24 -44.52 46.4 -45.08 73.78 -0.46 22 21.06 37.48 37.68 48.94A277.3 277.3 0 0 0 45.08 278a511.32 511.32 0 0 0 -20.4 80c0 0.36 0.34 0.4 2.2 1.14a54.28 54.28 0 0 1 -1.84 5.7 24.5 24.5 0 0 0 -2.2 6.66 2 2 0 0 0 1.28 1.78c0.86 0.46 6.8 2.62 12 4.52 8.24 2.98 7.82 3.02 8.88 3.02a2.62 2.62 0 0 0 1.86 -0.7c1.52 -1.44 0.12 -3.36 -0.4 -4l-5.24 -7.18a36.68 36.68 0 0 0 1.9 -3.88c5.86 1.9 5.84 2 6 1.62 30 -54.98 40.14 -99.68 48.7 -144.42 0.66 -3.38 4.98 -2.3 4.24 1.58 -0.98 5.16 -8.18 40.78 -10.64 48.24a56.6 56.6 0 0 0 4.88 8.64c0.36 9.36 4 75.48 4.58 75.58l2.52 0.36a27.04 27.04 0 0 1 0.56 5.08 23.12 23.12 0 0 0 0.22 7.22 2 2 0 0 0 1.7 1.04c3.5 0.56 20.12 0.4 20.96 0.36a2.98 2.98 0 0 0 3.16 -2.24c0.3 -1.54 -1.14 -2.54 -2 -3.08 -1.28 -0.9 -6.3 -4.32 -7.36 -5.04a15.6 15.6 0 0 0 0.36 -3.56c1.06 -0.16 2.14 -0.34 3.18 -0.54s12.54 -66.98 9.72 -115.56a321.6 321.6 0 0 0 -7.12 -51.48zm-84.66 183.52c3.38 4.64 4.96 6.1 3.56 6.84a3.68 3.68 0 0 1 -3.12 -0.46c-2.32 -1 -17.42 -6.46 -18 -6.9s-0.22 -1.2 0 -1.86a12.26 12.26 0 0 1 1.42 -3.7 14.82 14.82 0 0 0 13.84 3.12c0.18 -0.04 0.06 -0.1 2.3 2.96zM40 368c-5.08 1.12 -9.8 0.6 -13.52 -3.06a30.34 30.34 0 0 0 2 -5.32c4.32 1.68 8.9 3.32 13.32 4.78 -0.44 1 -1.32 2.9 -1.8 3.6zM186.18 85.26c0.64 0.78 -0.84 2 -2.12 2.4s-2 -0.2 -2 -0.7 0.84 -0.8 1.44 -1 2.16 -1.34 2.68 -0.7zm-0.4 -2.98c0.2 0.14 0 1.22 -1.58 2a5.46 5.46 0 0 1 -2.7 0.86c-0.36 0 -0.48 -0.14 -0.48 -0.18 -0.2 -0.66 3.96 -3.28 4.76 -2.68zm-3.2 -2.48c0.6 -0.44 1.76 -1.28 2.36 -0.84 1.72 1.3 -2.78 3.02 -4 3.78 -0.66 0.4 -1.08 0.6 -1.54 0.28s2.6 -2.84 3.18 -3.22zm-7.7 -1.34a36 36 0 0 1 -0.28 -3.76c1.56 0.82 2.92 3.34 3.84 7.1a1.72 1.72 0 0 0 1.14 2.88 1.42 1.42 0 0 0 0.96 1.72 2.24 2.24 0 0 0 2.22 2.66 11.24 11.24 0 0 1 -2.48 2.62 6.16 6.16 0 0 1 -3.84 1.38c-0.64 -0.98 -3.4 -4.8 -4 -5.7 2.92 -4.48 2.78 -5.78 2.44 -8.9zm-119.18 8.82c4.74 4 27.4 22.66 28 22.48 0.2 0 12.2 -22.32 12.82 -23.76 1.32 0.3 2.7 0.66 4 1.1C82 119.6 82.72 117.6 82.44 117.62s-29.3 -26.4 -31.18 -28.2c1.02 -0.52 3.42 -1.7 4.44 -2.14zm25.84 121.54c-2.82 1.2 -26.92 12.24 -27.86 12.64 -1.86 0.8 -2.84 -2 -1.44 -2.8 6.14 -3.4 7.14 -3.22 6.88 -3.78a71.66 71.66 0 0 0 -4 -6.22c2.36 -7.28 11.14 -10 11.56 -10.48a60 60 0 0 1 6.98 5.28c0 1 -2.5 2 -4.12 2.4 -0.54 0.14 0 0.7 1.64 3.66 0.28 0.5 2.52 -1 8.86 -3.28 1.8 -0.62 2.96 1.98 1.5 2.58zm23.6 148c2.38 0.14 11.12 0.22 14.36 -0.1a15.38 15.38 0 0 1 -0.24 3.08c-4.48 2.44 -9.08 4 -13.8 1.6a27.58 27.58 0 0 0 -0.32 -4.66zm16.54 5.68c6.22 4.26 7.14 4.54 6.86 5.5s-0.96 1.1 -3.54 1.1c-3.6 0 -18.36 -0.3 -19.12 -0.52a12.42 12.42 0 0 1 -0.62 -5.74 14.92 14.92 0 0 0 14 -1.6c0.48 -0.26 0.56 -0.08 2.42 1.18zM126 187.34c-16.76 8.22 -50.98 10.38 -59.38 9.8 -4.36 -6.24 -15.5 -22.34 -17.22 -24.86 0.16 -2.28 0 -18.4 0.28 -22a0.74 0.74 0 0 0 -1.26 -0.52c-2.58 3.04 -5.62 5.78 -8.1 8.98a2.3 2.3 0 0 0 -0.54 2c0.22 1.02 22.42 32.72 25.34 36.8a20 20 0 0 0 -11.12 10.16c-0.46 1.2 0 2.26 -0.7 2.62s-6.32 -4 -9.82 -6.62C30 194 12.98 180.54 11.7 163.74c-2 -26.86 15.36 -60.46 38 -73.52 8.42 8.28 29.54 26.76 31.5 28.4a1.82 1.82 0 0 0 2.8 -0.46c0.82 -0.96 15.3 -25.42 18.18 -30.52C114 92 135.1 105.1 137.12 105.36c0.88 0 22 -12.86 31 -17.82 0.86 -0.48 1.34 -0.68 2 -0.18a34.42 34.42 0 0 1 7.74 12.24c-6.16 6.7 -12.88 15.14 -19.82 20.92 -17.24 14.34 -31.24 18.14 -41.6 11.3 -0.68 -0.5 -1.4 0.5 -0.84 1.08 1.3 4.9 11.36 49.48 11.4 51.14a4.1 4.1 0 0 1 -1 3.3zm-78 -17.08c-5.64 -8.16 -6.62 -9.8 -6.68 -10s-0.32 0.16 6.68 -8c-0.16 4.06 0 14.52 0 18zm264.44 -32.94a7.26 7.26 0 0 1 -6.3 3.1 0.58 0.58 0 0 0 -0.3 1.12 7.72 7.72 0 0 0 6.34 -1.72 13.1 13.1 0 0 1 -1.76 3.58 0.46 0.46 0 0 0 0.64 0.6 7.52 7.52 0 0 0 2.7 -6.26c-0.04 -0.64 -0.98 -1.06 -1.32 -0.42zm-5.34 -7.72c0.14 -0.22 0.16 -0.9 0 -3.7 0 -0.2 0 -0.82 -0.6 -0.82a0.56 0.56 0 0 0 -0.56 0.54 16 16 0 0 0 0 4 0.74 0.74 0 0 0 1.16 -0.02zm51.98 56.86c-8.58 -0.96 -22.32 3.26 -27.86 10.36 -5.78 7.4 -7.46 16.86 -9.08 26 -5.82 32.82 -6.96 41.58 -5.38 49.82a0.46 0.46 0 0 0 0.92 -0.18 70.82 70.82 0 0 1 1.26 -20.32c2.34 -14.96 4.18 -29.54 8.3 -42.86 1.7 -5.46 4.42 -12.18 10.46 -15.58 8 -4.44 14.9 -6.4 21.32 -6 0.84 0.18 0.98 -1.16 0.06 -1.24z" stroke-width="1"></path><path d="M390 203.34a34.48 34.48 0 0 0 -11.02 -24.68c7.9 -7.56 -1.8 -21.02 -9.64 -28.54 -7.5 -7.18 -12.4 -7.36 -17.04 -15.28 -6.36 -10.86 -3.12 -14.54 -4.86 -21.74 -2.5 -13.46 -16.1 -19.06 -28.64 -15.5 -6 -3.02 -9.52 -2.12 -15.12 0.38a16.74 16.74 0 0 0 -5.38 3.14 12 12 0 0 0 -2.94 12.16 11.06 11.06 0 0 0 5.42 5.4c-3.38 6.44 1.18 11.68 -2.16 14.5a2.9 2.9 0 0 0 -0.92 1.1c-0.54 1.42 0.64 2.26 1.6 2.94 3.4 2.4 2 7.02 4.64 10.2a8.52 8.52 0 0 0 8.54 2.92c0.48 -0.14 1.04 -0.4 1.44 -0.26a15.22 15.22 0 0 1 2 2.96c-12.88 7.46 -18 25.44 -21.82 39.32 -1.22 4.32 -1.16 6.24 -4.9 7.24 -0.64 0.2 -6.96 2 -14 4a17.36 17.36 0 0 0 1.88 -8.38c0.54 -9.86 2.34 -46.48 0.56 -56.92 -0.36 -2 -1.08 -6 -9.46 -7.46 -2.72 -0.46 -78.4 -4.18 -89.26 -4.18 -8.8 0 -12 2.94 -14 6 -6 9.42 -5.46 52.12 -3.62 61.88 0.94 5 4.2 11.08 10.36 11.8 1.24 0.14 23.1 0.8 27.32 0.9 -2.74 4.86 -5.56 9.8 -8.38 14.7 -43.58 -0.78 -40.94 -0.98 -41.32 -0.54a0.84 0.84 0 0 0 -0.18 0.66 139.02 139.02 0 0 0 0 14.12 0.74 0.74 0 0 0 0.66 1.04h7.32c0 9.74 1.76 129.62 1.82 130.96a0.84 0.84 0 0 0 1.14 0.74c7.68 0.3 44 0.78 48.44 0.28 1.02 -0.12 15.16 -125.9 16.4 -131.08 0 0 58.68 0.72 68.48 0.66 -0.58 2.2 -1.12 4.32 -1.58 6.12a56 56 0 0 0 -23.28 1.04c-4.58 0.48 -26.96 8.36 -33.36 17.8 -6.46 8.2 -8.1 27.6 -7.16 35.7 2.72 23.58 10.2 59.6 11.12 63.6 0 0.28 0.22 0.28 3.14 0.34a49.72 49.72 0 0 1 2.42 8.5c-0.82 0.44 -1.3 1.34 -2 1.88a142.16 142.16 0 0 1 -12.94 7.32 0.92 0.92 0 0 0 -0.18 1.48 8.66 8.66 0 0 0 4.84 1.72c2 0.18 22.66 0.56 24.78 0a0.82 0.82 0 0 0 0.6 -0.8c0 -3.62 1 -10.92 -0.92 -12.14 0.22 -2 0.48 -7.66 0.64 -9.42 1.42 -0.24 2.8 -0.52 4 -0.82 0.2 1.56 1.38 14 1.54 14.72 0.3 1.16 0.38 1.78 1.64 1.86s2.6 0.24 3.8 0.26c0.64 0 1.24 0 1.24 -0.7 0 -2.22 4.88 -65.84 6 -73.64a62.24 62.24 0 0 0 8.58 1.5 162.8 162.8 0 0 0 16.64 28.4c0.44 15.76 1.46 47.72 1.7 48.72 0.46 2 2.24 1.62 8.58 1.34a0.8 0.8 0 0 0 0.8 -0.82c-0.16 -2.34 -0.62 -27.8 -0.82 -40.64 5.04 5.34 4.92 5.42 5.24 5.34l2 -0.66c0.82 1.44 2.88 5.4 3.26 6.16 -5.18 9.76 4.56 28.62 12.98 28.62a5.42 5.42 0 0 0 4.7 -2.38 13.64 13.64 0 0 0 1.32 -8 76.44 76.44 0 0 0 -1.16 -14.58c-0.76 -4.22 -1.38 -9.14 -6 -10.12A66 66 0 0 1 334 340c0.76 -0.56 1.5 -1.16 2.22 -1.76 0.24 -0.2 0.8 1.86 -10 -31.3h31.38c2.38 10.38 16.82 70.6 17.4 72 0.98 2.24 3.1 2 5.44 1.8 1.86 -0.22 2 0 2.44 -0.48 0.64 -0.82 0 1 -14 -77.82a9.08 9.08 0 0 0 0 -12.2c12.6 -4.2 15.36 -20.6 17.36 -32.62a224.76 224.76 0 0 0 3.76 -54.28zm-146 160.24c3.3 0 11.86 -0.82 14.16 -1.12 -0.18 1.88 -0.62 7.86 -0.64 9.2 -3.78 2 -8.52 0.76 -11.28 0.18a48.52 48.52 0 0 0 -2.24 -8.26zm14.32 19.46c-5.7 0 -21.74 0.98 -26.14 -0.9 8.48 -4.58 10.92 -5.88 13.02 -8.28 1.12 -1.28 6 2.24 13.14 -0.78 0.28 0.18 0.12 0.92 0 9.96zm54 -234.26A7.14 7.14 0 0 1 304 144.2c-0.96 -2.88 -0.54 -6.28 -3.66 -8.36 -1.7 -1.14 -0.84 -0.94 0 -1.88 3.44 -4.22 -1.24 -9.1 1.72 -14.64a100.86 100.86 0 0 0 12.4 4.84c-1.36 5.02 -2.2 6.82 -1.68 7.12s1.68 -2.78 4.92 -3.64c3.64 -1 5.84 3.9 3.78 7.06a5.56 5.56 0 0 1 -4.48 2.38c-1 0 0.64 1.36 7.44 12.94a25.22 25.22 0 0 0 -7.02 2.34c-2.62 -3.6 -2.5 -4.24 -5.18 -3.58zm-21.54 51.8a6 6 0 0 0 3.48 -3.44c4 -10 9.34 -42.22 30.82 -45.9 3.86 6.84 1.22 12.8 7.62 27.64 -8.36 7.26 -12.78 17.72 -15.54 28.48 -6.28 17.04 -28.98 18.26 -47.04 16.3 -0.36 -0.2 0.14 0.3 -15.28 -2.2 0.32 -10.24 0 -10.42 0.98 -10.8s30.94 -8.38 34.88 -10.08zm24.92 13.18c-1.08 5.24 -1.14 7.3 -8 38a37.72 37.72 0 0 0 -14 -6.4c0.24 -1 4.44 -18.4 5.26 -21.4a30.56 30.56 0 0 0 16.66 -10.2zm-72.24 5.76a29.26 29.26 0 0 1 0 3.48l-38.32 -0.7a9.56 9.56 0 0 1 0.2 -2.58c2.84 -0.02 35.3 -0.1 38.04 -0.2zm-18.5 -1.5c1.68 -2.72 5.02 -8.5 6 -10.22l15.02 0.22c-1.32 2.28 -0.4 1.4 -2 1.84 -1.34 0.36 -9.88 5.52 -10 8zm10.62 -0.2c-0.96 0 5.02 -5.24 9.14 -6.44 2.7 -0.62 5.66 1.6 8.6 1.1v6a13.04 13.04 0 0 1 -1.58 0.88c-2.5 1.28 -3.44 1 -6 -0.48a4 4 0 0 1 -1.82 -2.5c-0.8 -1.32 -7.24 1.4 -8.42 1.44zm11.02 -8c0.32 -0.52 0.68 -1.18 0.96 -1.72 21.02 0.32 6.8 -0.94 5.88 2.78 -2.36 0.38 -4.56 -0.78 -6.92 -1.12zm1.6 11.88a7.5 7.5 0 0 0 5.22 -1.22v1.58a0.66 0.66 0 0 0 0 0.48c0.54 0.96 10.26 0.92 -8.6 0.56 0.58 -4.7 -1.02 -2.76 3.3 -1.46zm-75.16 -16.6a9.7 9.7 0 0 1 -7.5 -4.6C162.34 195.84 159.16 138 172 130.7c2.3 -1 80.28 0.9 92.68 2.28 6.26 0.68 9.86 2 10.7 3.6a14.28 14.28 0 0 1 1.18 6c0.78 6.78 -0.9 51.9 -1.38 56.88a7.02 7.02 0 0 1 -3.16 5.04c-2.68 0.76 -5.34 1.5 -7.74 2.14 -0.94 -0.02 -84.8 -1.08 -91.32 -1.6zm27.52 2.32 28.94 0.42c-1.44 2.32 -5.16 8.26 -6.28 10.26 -8.72 0 -17.26 0.12 -18.64 0a0.82 0.82 0 0 0 -0.8 0.62 11.32 11.32 0 0 0 -0.32 3.56l-10.96 -0.2c2.66 -4.84 5.12 -9.32 7.98 -14.72zm7.28 160.58c-12.72 0.98 -43.84 -0.18 -47.16 -0.3 0 -11.84 -1.88 -130.2 -1.88 -130.2l64.6 0.86c-3.18 10.64 -14.96 123.2 -15.56 129.64zm-57.3 -132c0 -4 0 -8.48 0.26 -12.9 16.3 0.78 107.28 2.58 118.4 2.2a99.78 99.78 0 0 0 28.22 -0.82c-0.68 2.34 -2.1 7.6 -3.48 12.78 -10.94 -0.36 -131.4 -1.26 -143.4 -1.42zm119.88 140.56c-0.72 0 -3.18 0 -3.44 -0.58 -0.34 -1.02 -1.62 -25.5 -2 -30.56 1.34 -20 2.28 -34.4 2.82 -43.62 2.68 0.72 5.46 1.36 8.44 2 -1.32 9.64 -5.48 67.1 -5.82 72.6zm-2.42 -76.4c0.36 -6.26 0.54 -9.88 0.54 -11.12 0 -3.42 1.9 -4.36 5.32 -3.62s14.76 1.02 34.92 0.92c-2.98 5.58 -4 12.88 0 18.46 -23.26 -0.8 -36.22 -3.48 -40.78 -4.64zm44.64 82c-6.92 0 -6 0.4 -6 -0.86 -1.02 -29.42 -2.76 -74.5 -2.76 -74.84l6.24 0.2 1.76 29.62c-0.06 5.5 0.76 45.94 0.76 45.94zm26.84 -30a83.86 83.86 0 0 1 2.26 19.86c0 5.24 -1.36 9.42 -6.4 8 -7.68 -2.12 -10.94 -25.84 -2.64 -29.64 3.54 -1.6 5.96 -0.38 6.78 1.76zm-6.84 -11.1a44.68 44.68 0 0 0 1.32 5.48 10.6 10.6 0 0 0 -8.9 4.96c-0.56 -1.2 -1.82 -3.88 -2.46 -5.1 2.06 -0.9 8.02 -4.08 10.04 -5.36zm48.58 37.8a14 14 0 0 1 -4.3 -0.2 2.68 2.68 0 0 1 -0.58 -1.14c-0.44 -1.42 -16.62 -67.66 -17.38 -70.7a16.18 16.18 0 0 0 8.5 -3.12c2.08 11.08 12.54 67.94 13.76 75.14zm-11.74 -81.42a10.5 10.5 0 0 1 -5.18 6.26 23.78 23.78 0 0 1 -10.98 1.6c-2.52 0 -41.2 -0.4 -42.36 -0.42 -4.48 -5.34 -3.56 -12.9 -0.56 -18.52h6.12a37 37 0 0 0 14.72 4.3c10.64 1.34 23.86 3.02 36.12 0a8 8 0 0 1 2.12 6.76zm16.78 -50.48c-2.52 13.78 -3.34 35.36 -17.02 41.2 -11.5 4 -23.4 2.36 -34.6 1.24 -7.1 -0.7 -14.44 -1.42 -20 -6 -7.3 -6 -8 -16.26 -7.02 -25.6 2 -6.38 7.16 -30.36 8.18 -36.34 2.22 -13 5.32 -27.22 13.68 -37.44 6.44 -7.88 18.24 -10.88 29.62 -10 18 1.44 27.3 10.34 28.9 26a165.26 165.26 0 0 1 -1.74 46.92z" stroke-width="1"></path><path d="M271 197.24c0.32 -0.4 0.54 -52.48 0.64 -56.56a0.76 0.76 0 0 0 -1.22 -0.58C265.34 140 172 137.86 172 137.86a0.74 0.74 0 0 0 -0.6 0.28c-0.6 0.86 -0.16 54.4 0 56.98a0.78 0.78 0 0 0 0.72 1.04c12.48 0.44 90.42 1.36 98.36 1.36a0.72 0.72 0 0 0 0.52 -0.28zm-1.28 -1.22c-12.48 -0.14 -88.36 -1.2 -96.94 -1.4 0 0 -0.22 -50.46 -0.2 -55.24 12.66 0.34 90.96 1.84 97.52 1.86 0 10.16 -0.42 48.6 -0.38 54.76z" stroke-width="1"></path><path d="M229.6 161.68c0 -1.34 -2.6 -0.76 -22.84 -0.46a0.56 0.56 0 0 0 0 1.1c21.9 0.24 22.84 0.58 22.84 -0.64zm32.24 0.8c-1.56 -0.14 -16.78 0.24 -19.7 0.24a0.56 0.56 0 0 0 0 1.1c2 0 18.24 0.48 19.72 0.36a0.86 0.86 0 0 0 -0.02 -1.7zm0.74 -7.14c-1.08 0 -63.1 -1.52 -65.46 -1.62a0.58 0.58 0 1 0 0 1.14c3.38 0.16 57.88 1.78 64.84 1.78 0.52 0 1.26 0 1.26 -0.66a0.64 0.64 0 0 0 -0.64 -0.64zm-75.5 -8.2c2.72 0 29.9 0 32.36 -0.46 0.94 -0.18 0.72 -1.52 -0.16 -1.6 -2 -0.2 -29.72 0.94 -32.2 0.94a0.56 0.56 0 0 0 0 1.12zm42.56 -0.08c3.52 0.2 30.16 0.82 32.78 0.5a0.76 0.76 0 0 0 0 -1.5h-32.74a0.48 0.48 0 0 0 -0.04 1zM114.94 61.38a26.24 26.24 0 0 0 13.06 -0.68c12.24 7.62 25.3 5.06 33 -3.88 14.18 -16.44 1.72 -42.2 -21.36 -41.6 -20.64 0.56 -29.26 20.5 -19.54 37.88a6.52 6.52 0 0 1 -5.16 7.68 0.3 0.3 0 0 0 0 0.6zm13.76 -18a20.38 20.38 0 0 1 9.6 4.62c2.74 -5.02 12.48 -22.16 15.04 -21.84a1.38 1.38 0 0 1 0.86 2 236.32 236.32 0 0 0 -14 23.14 1.62 1.62 0 0 1 -2.62 0.38 18 18 0 0 0 -9.5 -5.58 1.4 1.4 0 0 1 0.62 -2.66zM183.24 180c20.76 0.4 20 0.52 20.24 0.34s0 0 0 -3.86a34.14 34.14 0 0 1 -6.16 -5.6 66 66 0 0 1 -6.32 7.56c-0.48 0.4 -1.12 -0.3 -0.64 -0.72a10.72 10.72 0 0 0 1.24 -1.5c0.2 -0.26 0.48 0.16 -2.44 -2.36a20.94 20.94 0 0 1 -3.44 3.88 0.52 0.52 0 0 1 -0.58 -0.86c1.6 -1.22 3.16 -5 4 -4.96S192 174 192.7 174.84c0.38 -0.5 3.7 -5.24 4 -5.62a0.78 0.78 0 0 1 1.32 0 42 42 0 0 0 5.52 5.38v-8.88c0 -0.46 0.9 -0.3 -20.32 -0.3 -0.44 0 -0.3 -0.62 -0.3 14.2a0.32 0.32 0 0 0 0.32 0.38zm8 -12.92a1.86 1.86 0 0 1 0 3.72 1.86 1.86 0 0 1 -0.08 -3.78zm33.38 4.68a68 68 0 0 1 -6.32 7.56c-0.48 0.4 -1.14 -0.3 -0.66 -0.72a11 11 0 0 0 1.38 -1.68l-2.56 -2.18a20.96 20.96 0 0 1 -3.44 3.86c-0.56 0.4 -1.12 -0.44 -0.58 -0.86 1.6 -1.2 3.16 -5 4 -4.94s2.84 2.22 3.58 2.98c4 -5.6 4 -6 4.72 -6s0.16 0.78 6.12 5.76c0 -9.42 0.16 -9.18 -0.28 -9.18 -21.2 -0.14 -20.32 -0.16 -20.32 0.3 0 14.84 -0.12 14.18 0.3 14.2 20.74 0.4 20 0.52 20.22 0.32s0.1 0 0 -3.84a34.14 34.14 0 0 1 -6.16 -5.58zM218.4 168a1.86 1.86 0 0 1 0 3.72 1.86 1.86 0 0 1 0 -3.72zm33.6 5.38a64.26 64.26 0 0 1 -6.32 7.56c-0.48 0.4 -1.12 -0.3 -0.64 -0.72a12.18 12.18 0 0 0 1.36 -1.68l-2.56 -2.18a20.32 20.32 0 0 1 -3.44 3.88 0.52 0.52 0 0 1 -0.58 -0.86c1.6 -1.2 3.16 -5 4 -4.96s2.84 2.22 3.58 2.98c4 -5.58 4 -6 4.72 -6s0.18 0.8 6.12 5.76c0 -9.42 0.16 -9.18 -0.28 -9.18 -21.2 -0.14 -20.32 -0.16 -20.32 0.3 0 14.86 -0.12 14.18 0.3 14.2 20.76 0.4 20 0.52 20.24 0.34s0 0 0 -3.86a34.14 34.14 0 0 1 -6.18 -5.58zm-6.22 -3.8a1.86 1.86 0 0 1 0 3.72 1.86 1.86 0 0 1 0.02 -3.72z" stroke-width="1"></path></g></svg>