<svg width="154" height="131" viewBox="0 0 154 131" fill="none" xmlns="http://www.w3.org/2000/svg">
<g id="Group">
<path id="Vector" d="M72.2 14.6201C71.544 15.1321 71.84 16.2201 72.288 16.2201C72.48 16.2201 72.648 16.0681 72.488 15.7081C72.488 15.6441 72.376 15.4761 72.624 14.9881C72.6728 14.9319 72.6973 14.8586 72.692 14.7843C72.6868 14.7101 72.6522 14.6409 72.596 14.5921C72.5398 14.5433 72.4665 14.5189 72.3922 14.5241C72.3179 14.5294 72.2488 14.5639 72.2 14.6201ZM79.016 20.5561C78.216 21.4601 77.304 21.4121 76.616 20.3641C77.0451 20.3616 77.4669 20.2529 77.8438 20.0477C78.2207 19.8425 78.541 19.5472 78.776 19.1881C78.7937 19.1452 78.796 19.0974 78.7823 19.053C78.7686 19.0086 78.7399 18.9703 78.7011 18.9448C78.6623 18.9192 78.6158 18.908 78.5697 18.913C78.5235 18.918 78.4804 18.9389 78.448 18.9721C77.696 20.0761 76.296 19.7721 76.048 19.9081C75.9888 19.9359 75.9429 19.986 75.9205 20.0474C75.898 20.1089 75.9007 20.1767 75.928 20.2361C76.728 22.1321 78.504 22.0601 79.296 20.7881C79.3103 20.7507 79.3125 20.7096 79.3023 20.6708C79.2921 20.632 79.27 20.5974 79.2391 20.5718C79.2082 20.5462 79.1701 20.5309 79.1301 20.5281C79.0901 20.5253 79.0502 20.5351 79.016 20.5561ZM77.8 17.4361C77.5813 17.7468 77.3107 18.0174 77 18.2361C76.9659 18.2714 76.9448 18.3173 76.9403 18.3662C76.9358 18.4151 76.948 18.4641 76.975 18.5051C77.002 18.546 77.0422 18.5766 77.0889 18.5917C77.1356 18.6068 77.1861 18.6056 77.232 18.5881C77.848 18.2601 78.584 17.5641 78.432 16.9081C78.256 16.1081 76.504 15.3881 75.728 15.1401C75.7044 15.1307 75.6791 15.126 75.6536 15.1263C75.6282 15.1266 75.603 15.1319 75.5796 15.1419C75.5562 15.152 75.535 15.1665 75.5173 15.1847C75.4995 15.203 75.4855 15.2245 75.476 15.2481C75.4665 15.2718 75.4618 15.297 75.4621 15.3225C75.4625 15.348 75.4678 15.3731 75.4778 15.3965C75.4878 15.4199 75.5024 15.4411 75.5206 15.4589C75.5388 15.4767 75.5604 15.4907 75.584 15.5001C76.48 15.9481 76.92 16.2121 77.184 16.3641C77.8 16.7801 78.064 16.9881 77.8 17.4361ZM73.864 16.5721C73.9029 16.7363 73.9886 16.8857 74.1107 17.0021C74.2329 17.1186 74.3862 17.1971 74.552 17.2281C74.832 17.2281 74.96 16.8761 74.624 16.4681C74.288 16.0601 73.8 16.1401 73.864 16.5721ZM76.728 14.9321C77.016 14.9321 77.144 14.5721 76.832 14.1881C76.664 13.9881 76.368 13.8201 76.176 13.9721C75.864 14.2281 76.312 14.9321 76.728 14.9321ZM153.056 113.764C141.056 106.7 126.224 108.796 118.256 121.516C118.208 116.172 111.584 115.036 106.256 116.268C108.656 112.412 109.048 108.972 107.416 106.3C104.968 102.3 98.072 100.428 88.968 101.3C78.832 102.268 67.368 107.236 64.528 116.148C58.84 108.148 41.144 115.116 46.24 126.212C41.672 123.724 34.6 124.284 30.6 129.028C54.528 65.6121 53.584 67.9001 53.952 67.5401C55.192 66.3721 57.88 67.6361 58.536 65.2361C58.864 64.0521 58.36 63.5401 58.864 62.7081C59.528 61.6361 61.104 61.1081 61.544 59.7561C61.912 58.6281 61.504 57.3561 60.496 54.8201C60.8178 53.9268 61.0562 53.0055 61.208 52.0681C61.2118 52.0398 61.2059 52.011 61.1914 51.9863C61.1769 51.9617 61.1546 51.9426 61.128 51.9321C59.43 51.2987 57.8547 50.3757 56.472 49.2041C56.448 49.1853 56.4185 49.1751 56.388 49.1751C56.3575 49.1751 56.328 49.1853 56.304 49.2041C55.6005 49.8868 54.9827 50.6524 54.464 51.4841C54.456 51.5017 54.4519 51.5208 54.4519 51.5401C54.4519 51.5594 54.456 51.5785 54.464 51.5961C52.648 52.3321 50.968 52.8441 50.408 54.1241C49.848 55.4041 50.592 56.5241 49.424 57.4521C48.7927 57.8869 48.304 58.4986 48.0193 59.2103C47.7346 59.922 47.6667 60.7019 47.824 61.4521C48.248 63.5801 50.312 64.0361 49.968 65.3801C49.84 65.8921 45.448 74.4521 20.84 123.78C22.816 114.108 14.824 104.26 1.08799 105.292C1.03636 105.296 0.988328 105.32 0.954009 105.359C0.91969 105.398 0.901761 105.448 0.903995 105.5C0.904985 105.526 0.911224 105.552 0.922335 105.575C0.933446 105.598 0.949199 105.619 0.968641 105.637C0.988083 105.654 1.01081 105.667 1.03545 105.675C1.06009 105.683 1.08613 105.686 1.11199 105.684C15.76 104.956 23.016 115.836 19.936 125.596C19.9158 125.644 19.9155 125.698 19.935 125.746C19.9545 125.794 19.9923 125.832 20.04 125.852C20.0877 125.872 20.1415 125.873 20.1895 125.853C20.2375 125.834 20.2758 125.796 20.296 125.748C27.4 111.812 50.128 66.7241 50.368 65.5001C50.712 63.7641 48.768 63.4361 48.352 61.3801C48.1921 60.7179 48.2295 60.0233 48.4599 59.3821C48.6902 58.7409 49.1032 58.1812 49.648 57.7721C49.9479 57.5345 50.1834 57.2254 50.3329 56.8732C50.4824 56.521 50.5413 56.1369 50.504 55.7561C50.5015 55.26 50.6052 54.769 50.808 54.3161C51.392 53.1961 52.76 52.9081 54.808 51.9161C56.4157 53.1071 58.1718 54.0833 60.032 54.8201C60.704 57.4281 61.344 58.4441 61.024 59.6201C60.704 60.7961 59.16 61.4201 58.488 62.5081C57.896 63.4681 58.392 64.0441 58.064 65.1241C57.424 67.1241 54.864 65.9241 53.672 67.2121C53.2 67.7161 53 68.5881 52.016 70.8761C49.976 75.6761 50.992 72.6681 29.688 130.212C29.6647 130.258 29.6604 130.311 29.6762 130.36C29.6919 130.408 29.7264 130.449 29.772 130.472C29.8176 130.495 29.8706 130.5 29.9194 130.484C29.9682 130.468 30.0087 130.434 30.032 130.388C33.96 124.828 41.8 124.084 46.6 126.868C46.728 126.94 46.888 126.868 46.888 126.652C46.888 126.436 45.048 123.532 46.2 120.108C48.44 113.436 60.256 110.556 64.44 116.7C64.4617 116.73 64.4912 116.753 64.5253 116.767C64.5594 116.781 64.5967 116.786 64.6332 116.78C64.6696 116.774 64.7037 116.758 64.7317 116.734C64.7598 116.71 64.7806 116.679 64.792 116.644C69.552 101.052 101.176 97.5961 106.856 106.628C108.456 109.172 108.056 112.484 105.68 116.468C105.658 116.5 105.647 116.538 105.646 116.576C105.646 116.615 105.658 116.652 105.679 116.684C105.701 116.716 105.732 116.741 105.767 116.755C105.803 116.769 105.842 116.772 105.88 116.764C111.432 115.644 118.104 116.612 117.816 122.268C117.808 122.313 117.817 122.36 117.841 122.399C117.864 122.438 117.901 122.468 117.945 122.482C117.988 122.497 118.035 122.495 118.078 122.478C118.12 122.461 118.155 122.429 118.176 122.388C125.704 110.388 139.992 107.012 152.92 114.204C153.16 114.3 153.168 113.828 153.056 113.764Z" fill="#020617"/>
<path id="Vector_2" d="M53.6719 64.8122C53.7722 64.6043 53.8872 64.4038 54.0159 64.2122C54.3679 63.5962 54.5359 63.5482 55.4719 63.4122C56.6319 63.2762 56.9999 62.5082 57.0719 61.3402C57.0628 60.9523 57.1565 60.5689 57.3433 60.2289C57.5302 59.8889 57.8036 59.6044 58.1359 59.4042C58.3856 59.2203 58.5997 58.9926 58.7679 58.7322C58.9853 58.3093 59.1085 57.8443 59.1292 57.3693C59.1499 56.8943 59.0676 56.4204 58.8879 55.9802C58.6171 55.3201 58.1288 54.7725 57.5039 54.4282C56.8853 54.1172 56.2043 53.9503 55.5119 53.9402C54.5836 53.9557 53.6919 54.305 52.9999 54.9242C52.1999 55.6442 52.1999 56.3882 52.1199 57.5322C52.0997 58.1593 51.9058 58.7686 51.5599 59.2922C50.9599 60.5242 51.2319 61.3962 51.9279 61.9562C52.6239 62.5162 52.8079 62.6762 52.5119 63.3642L22.3439 127.9C22.2319 128.132 22.4799 128.356 22.6559 128.068C22.7599 127.9 30.7119 110.884 31.6239 108.948C54.2719 60.4682 53.0399 63.3482 53.0159 62.8122C52.9919 62.2762 52.5679 61.9642 52.2159 61.6362C51.9865 61.4473 51.82 61.193 51.7386 60.9072C51.6571 60.6215 51.6646 60.3176 51.7599 60.0362C51.8832 59.6276 52.0439 59.2312 52.2399 58.8522C52.9839 57.1962 51.8559 55.7242 54.3599 54.5962C54.8459 54.4092 55.3661 54.3275 55.886 54.3565C56.4059 54.3854 56.9137 54.5244 57.3759 54.7642C57.9139 55.0689 58.3273 55.5532 58.5439 56.1322C58.6921 56.5182 58.7587 56.9308 58.7394 57.3439C58.7201 57.757 58.6155 58.1616 58.4319 58.5322C58.2894 58.7593 58.1142 58.9642 57.9119 59.1402C57.5761 59.4048 57.2989 59.7362 57.0978 60.1136C56.8968 60.4909 56.7763 60.9059 56.7439 61.3322C56.5919 62.2842 56.3999 62.9322 55.4399 63.0362C54.4799 63.1402 54.1359 63.2682 53.7199 63.9962C52.9999 65.1482 55.3999 59.6362 25.3279 129.42C25.3163 129.444 25.3095 129.469 25.3081 129.495C25.3066 129.521 25.3104 129.547 25.3194 129.572C25.3284 129.596 25.3422 129.619 25.3601 129.638C25.3781 129.657 25.3997 129.672 25.4236 129.682C25.4476 129.693 25.4734 129.698 25.4995 129.698C25.5256 129.698 25.5515 129.693 25.5755 129.682C25.5994 129.672 25.6211 129.657 25.6391 129.638C25.657 129.619 25.6709 129.597 25.6799 129.572C25.9039 129.06 53.5679 65.0042 53.6719 64.8122ZM14.7599 48.3882C14.8479 48.3882 27.5599 48.3242 30.0399 48.2922C33.1439 48.2922 37.2959 47.8922 37.4799 44.7002C37.5599 42.9162 36.5999 41.7802 34.8959 41.2282C33.2886 40.8136 31.6116 40.7454 29.9759 41.0282C30.7759 34.8122 19.3759 33.2282 17.5679 38.4202C15.3585 38.0267 13.081 38.3903 11.1039 39.4522C6.33594 42.1642 8.41595 48.2042 14.7599 48.3882ZM17.5199 38.7882C17.7119 38.8362 17.8559 38.7402 17.9439 38.5162C18.0264 38.2699 18.1364 38.0337 18.2719 37.8122C20.3439 34.4442 28.8079 35.5402 29.5599 39.7642C29.6276 40.1908 29.6276 40.6255 29.5599 41.0522C29.5515 41.0983 29.5535 41.1456 29.5659 41.1908C29.5783 41.236 29.6006 41.2778 29.6314 41.3132C29.6621 41.3485 29.7004 41.3765 29.7435 41.395C29.7865 41.4135 29.8331 41.4221 29.8799 41.4202C30.0319 41.4202 29.9999 41.4202 30.4959 41.3482C31.9137 41.2124 33.3443 41.3316 34.7199 41.7002C35.3988 41.8323 36.004 42.2131 36.4168 42.768C36.8297 43.3229 37.0205 44.0119 36.9519 44.7002C36.8559 46.4282 35.2559 47.4442 32.1919 47.7162C30.7039 47.8602 14.8639 47.8762 14.7759 47.8762C9.05594 47.6602 7.09594 42.5322 11.3839 39.9562C13.2365 38.8797 15.4039 38.4756 17.5199 38.8122V38.7882ZM115.4 21.6362C115.907 21.7273 116.421 21.7728 116.936 21.7722L135.456 22.0042C137.36 21.9642 139.32 21.9162 141 20.8762C141.364 20.6327 141.666 20.307 141.881 19.9253C142.096 19.5435 142.219 19.1165 142.238 18.6788C142.257 18.2411 142.174 17.8049 141.993 17.4056C141.813 17.0063 141.541 16.655 141.2 16.3802C139.6 14.9962 136.4 14.3642 134.08 14.5242C134.452 14.0951 134.676 13.5579 134.719 12.9918C134.762 12.4257 134.622 11.8607 134.32 11.3802C133.685 10.4974 132.785 9.83913 131.752 9.50018C129.528 8.70018 126.288 8.21218 123.872 9.06018C123.13 9.29941 122.457 9.71581 121.912 10.2734C121.367 10.8309 120.966 11.5129 120.744 12.2602C119.4 10.9482 116.288 10.4122 113.76 11.7402C112.609 12.3355 111.72 13.3358 111.264 14.5482C110.822 15.7479 110.755 17.0535 111.072 18.2922C111.6 20.0602 113.128 21.2362 115.4 21.6362ZM120.568 12.7002C120.608 12.7428 120.658 12.7734 120.714 12.7887C120.771 12.804 120.83 12.8033 120.886 12.7866C120.941 12.77 120.991 12.7381 121.03 12.6946C121.069 12.651 121.094 12.5975 121.104 12.5402C121.306 11.841 121.68 11.2039 122.194 10.6879C122.707 10.172 123.342 9.79371 124.04 9.58818C127.24 8.49218 134.792 9.82818 134.184 13.2442C134.101 13.7919 133.815 14.2885 133.384 14.6362C133.346 14.6598 133.317 14.6959 133.303 14.7383C133.289 14.7807 133.29 14.8268 133.306 14.8686C133.322 14.9103 133.352 14.9451 133.391 14.9669C133.43 14.9888 133.476 14.9963 133.52 14.9882C135.672 14.8202 139.56 15.5082 141.016 17.0122C141.41 17.4007 141.645 17.9232 141.672 18.4762C141.68 18.6067 141.68 18.7376 141.672 18.8682C141.646 19.0358 141.608 19.2015 141.56 19.3642C141.431 19.7173 141.213 20.0314 140.928 20.2762C139.456 21.4202 137.32 21.4682 135.432 21.5082C135.352 21.5082 116.408 21.3002 116.352 21.2922C113.376 21.0762 111.2 19.4922 111.44 16.4922C111.454 15.6224 111.701 14.7723 112.155 14.0306C112.61 13.289 113.255 12.6831 114.024 12.2762C115.928 11.2122 119.088 11.1402 120.568 12.7002ZM77.9039 36.2282L86.0559 34.4362C85.6106 33.3388 85.0976 32.27 84.5199 31.2362L77.1999 32.9642C77.5011 34.0368 77.7362 35.1268 77.9039 36.2282Z" fill="#020617"/>
<path id="Vector_3" d="M94.4321 55.1C94.4773 55.0893 94.5182 55.0652 94.5496 55.031C94.581 54.9968 94.6014 54.9539 94.6081 54.908C94.8241 45.604 93.2961 40.212 90.6081 34.108C90.7141 33.9162 90.7871 33.7079 90.8241 33.492C92.9681 29.212 93.9521 24.164 94.7761 19.364C95.6001 14.564 95.8561 8.86798 94.7761 4.03598C94.7627 3.99898 94.739 3.96656 94.7078 3.94248C94.6767 3.91841 94.6393 3.90367 94.6001 3.89998L94.0561 3.77198V3.64398C94.22 3.57756 94.363 3.46822 94.4699 3.32744C94.5769 3.18666 94.644 3.01965 94.6641 2.84398C94.9323 2.72264 95.1443 2.50388 95.2572 2.23204C95.3701 1.9602 95.3754 1.65561 95.2721 1.37998C95.1815 1.20753 95.0261 1.07807 94.8401 1.01998C94.5978 0.843223 94.3166 0.727028 94.0202 0.681101C93.7237 0.635174 93.4206 0.660849 93.1361 0.755982C93.0425 0.738898 92.9463 0.741657 92.8538 0.76408C92.7614 0.786502 92.6746 0.828091 92.5992 0.886153C92.5238 0.944215 92.4614 1.01746 92.4161 1.10115C92.3708 1.18483 92.3435 1.2771 92.3361 1.37198C91.8801 1.37198 91.7201 1.71598 91.7521 2.17198C91.7983 2.56229 91.9599 2.92996 92.2161 3.22798H92.0641C92.0216 3.22614 91.9796 3.23851 91.9449 3.26313C91.9101 3.28775 91.8845 3.32323 91.8721 3.36398C89.9136 10.106 86.463 16.3208 81.7761 21.548C81.136 21.8823 80.6345 22.4319 80.3601 23.1C79.9121 23.604 79.5601 24.052 79.2321 24.46L78.7841 24.076C79.5064 23.6632 80.0916 23.0474 80.467 22.305C80.8425 21.5627 80.9917 20.7264 80.8961 19.9C80.698 18.1032 80.0042 16.3968 78.8925 14.9714C77.7807 13.546 76.2946 12.4577 74.6001 11.828C74.7749 11.3996 74.8329 10.9325 74.7683 10.4743C74.7036 10.0161 74.5186 9.58331 74.2321 9.21998C72.9121 7.09998 70.8641 7.09998 70.3201 7.99598C70.1348 8.37667 70.0949 8.81198 70.2081 9.21998C61.4081 9.74798 60.5121 18.02 65.2321 17.444C61.4481 21.556 64.1041 25.548 67.2081 23.228C67.4561 26.172 70.4081 26.356 71.2081 24.228C71.4706 24.5111 71.8201 24.6987 72.2011 24.761C72.5822 24.8233 72.9731 24.7568 73.3121 24.572C73.4641 25.18 73.5761 25.572 73.6881 25.94C72.8576 25.9011 72.0252 25.9332 71.2001 26.036C70.7825 25.9355 70.3483 25.9249 69.9263 26.0049C69.5042 26.0849 69.104 26.2537 68.7521 26.5C65.8823 27.2509 63.1902 28.5643 60.8321 30.364C61.1308 26.3856 60.5856 22.389 59.2321 18.636C59.1601 18.468 59.1521 18.484 58.8721 18.508C58.9726 18.2886 59.0323 18.0528 59.0481 17.812C59.1633 17.7514 59.2619 17.6636 59.3355 17.5563C59.409 17.449 59.4553 17.3253 59.4703 17.1961C59.4853 17.0668 59.4685 16.9359 59.4214 16.8146C59.3743 16.6933 59.2984 16.5853 59.2001 16.5C59.1994 16.3696 59.1682 16.2411 59.1092 16.1248C59.0502 16.0086 58.9649 15.9076 58.8601 15.83C58.7553 15.7524 58.6339 15.7002 58.5055 15.6776C58.377 15.6551 58.2451 15.6627 58.1201 15.7C57.9638 15.5958 57.78 15.5401 57.5921 15.5401C57.4042 15.5401 57.2205 15.5958 57.0641 15.7C56.5041 15.596 56.0881 16.14 56.0001 16.7C55.9577 17.459 56.1414 18.2135 56.5281 18.868C51.4561 27.508 50.1281 33.516 52.5281 37.268C53.7601 39.204 55.8321 40.292 58.6961 40.468C57.7201 41.908 55.2321 45.932 56.2961 47.844C56.8845 48.7396 57.7174 49.4476 58.6961 49.884C60.2321 50.5 61.1841 48.972 62.1201 47.484C63.0373 45.973 63.8396 44.3952 64.5201 42.764C64.7361 42.244 65.0881 42.588 64.9281 43.004C64.2881 44.676 62.1601 49.756 60.4721 50.404C60.4333 50.4231 60.4007 50.4528 60.3778 50.4895C60.355 50.5263 60.3429 50.5687 60.3429 50.612C60.3429 50.6553 60.355 50.6977 60.3778 50.7344C60.4007 50.7712 60.4333 50.8008 60.4721 50.82C61.7601 51.468 62.8721 51.924 63.3761 52.124C63.0297 52.7531 62.761 53.422 62.5761 54.116C62.5722 54.1353 62.5739 54.1554 62.581 54.1738C62.5881 54.1922 62.6003 54.2082 62.6161 54.22C62.9813 54.6285 63.3801 55.0059 63.8081 55.348C62.4241 57.924 63.8081 68.948 52.8161 89.548C52.5356 89.6044 52.2773 89.7405 52.0721 89.94C51.5921 90.356 50.5761 91.996 50.7041 92.244C50.9644 92.7476 51.2811 93.22 51.6481 93.652C51.4311 93.9628 51.1788 94.2474 50.8961 94.5C50.4474 94.6112 50.025 94.8098 49.653 95.0843C49.281 95.3589 48.9667 95.704 48.7281 96.1C48.7247 96.1158 48.7247 96.1322 48.7281 96.148C48.3121 98.116 48.3121 101.972 49.2561 103.788C49.9361 105.124 51.3121 105.204 52.1841 103.788C53.3201 101.924 53.6321 97.884 53.5041 97.252C53.7142 96.7602 53.9828 96.2955 54.3041 95.868C54.7779 96.1332 55.2832 96.3374 55.8081 96.476C56.6081 96.476 58.5841 94.556 58.5761 93.556C72.2481 82.908 77.2641 72.276 78.9121 68.756C79.1441 68.276 79.3041 67.956 79.4241 67.724C81.7361 63.724 87.5601 68.684 86.8321 74.34C86.4081 77.612 83.6321 81.156 83.0001 81.868C82.4881 81.516 80.8241 83.076 80.4401 83.556C80.4217 83.605 80.4217 83.659 80.4401 83.708C80.498 84.1272 80.6054 84.5381 80.7601 84.932C80.5042 85.1435 80.2372 85.3411 79.9601 85.524C79.0321 85.268 77.4881 86.26 77.4161 86.38C77.0707 86.9708 76.7865 87.5954 76.5681 88.244C74.5201 94.316 77.2561 96.964 79.8721 92.636C80.5717 91.4713 81.0795 90.2018 81.3761 88.876C81.7231 88.4938 82.1153 88.1553 82.5441 87.868C83.1087 88.601 83.777 89.2478 84.5281 89.788C84.5646 89.7996 84.6037 89.7996 84.6401 89.788C85.4245 89.4746 86.1295 88.991 86.7041 88.372C86.8158 88.2842 86.902 88.1683 86.9541 88.0361C87.0061 87.9039 87.022 87.7603 87.0001 87.62C93.1441 84.324 99.8001 80.244 101.4 73.62C103 66.996 98.8561 59.508 94.4321 55.1ZM94.8321 1.34798C95.3681 1.77998 94.4881 2.86798 94.3521 2.45198C94.7281 2.36398 94.8801 1.77998 94.8321 1.37998V1.34798ZM94.1201 0.907982C94.2244 0.906832 94.3256 0.943458 94.405 1.0111C94.4844 1.07874 94.5367 1.17282 94.5521 1.27598C94.6166 1.56825 94.568 1.87409 94.4161 2.13198C94.3201 2.23598 94.1841 2.32398 94.1041 2.18798C94.1945 1.9928 94.2426 1.78075 94.2454 1.56569C94.2481 1.35063 94.2054 1.13741 94.1201 0.939981V0.907982ZM93.6321 0.827982C93.7441 0.827982 93.9441 0.931982 94.0001 1.30798C94.0561 1.68398 94.0001 2.02798 93.8481 2.16398C93.7921 2.20398 93.7521 2.16398 93.7121 2.16398C93.7809 1.94567 93.7801 1.71137 93.7099 1.49352C93.6397 1.27566 93.5035 1.08502 93.3201 0.947982C93.3613 0.909384 93.4111 0.881242 93.4654 0.865927C93.5197 0.850613 93.5769 0.848574 93.6321 0.859983V0.827982ZM92.6961 1.09998C93.0961 0.811982 93.4961 1.32398 93.4961 1.82798C93.4961 2.03598 93.4161 2.26798 93.2321 2.21998C93.5121 2.04398 93.3121 1.75598 92.9761 1.59598C92.9365 1.51376 92.9173 1.4232 92.9201 1.33198C92.9201 1.20398 92.7761 1.22798 92.7601 1.33198C92.7481 1.39811 92.7481 1.46586 92.7601 1.53198C92.6795 1.50533 92.5964 1.48658 92.5121 1.47598C92.5032 1.40662 92.5161 1.33621 92.5491 1.27454C92.5821 1.21288 92.6335 1.16304 92.6961 1.13198V1.09998ZM92.0081 2.13198C92.0081 1.87598 92.0081 1.79598 92.1441 1.73198C92.4641 1.52398 93.1761 1.89998 93.1681 2.00398C93.1601 2.10798 92.9361 2.09998 92.6801 2.10798C92.4241 2.11598 92.4801 2.26798 92.6001 2.33998C92.7201 2.41198 92.9361 2.48398 93.0001 2.76398C93.0057 2.78189 93.0169 2.79754 93.032 2.80865C93.0471 2.81976 93.0654 2.82575 93.0841 2.82575C93.1029 2.82575 93.1212 2.81976 93.1363 2.80865C93.1514 2.79754 93.1625 2.78189 93.1681 2.76398C93.1624 2.60057 93.0936 2.44572 92.9761 2.33198H93.0561C93.0899 2.37233 93.1321 2.40478 93.1798 2.42704C93.2275 2.44931 93.2795 2.46085 93.3321 2.46085C93.3848 2.46085 93.4367 2.44931 93.4844 2.42704C93.5321 2.40478 93.5743 2.37233 93.6081 2.33198C93.6565 2.37527 93.7192 2.39921 93.7841 2.39921C93.8491 2.39921 93.9117 2.37527 93.9601 2.33198C93.9811 2.36657 94.009 2.39649 94.042 2.41988C94.0751 2.44327 94.1125 2.45964 94.1521 2.46798C94.1539 2.51798 94.1679 2.56677 94.1931 2.61003C94.2182 2.65329 94.2536 2.68968 94.2961 2.71598C94.2778 2.86035 94.2204 2.99697 94.1302 3.11116C94.04 3.22534 93.9203 3.31275 93.7841 3.36398C93.7841 3.36398 93.7281 3.41198 93.7201 3.46798C93.7121 3.52398 93.7201 3.65198 93.7201 3.65198L92.4481 3.33198V3.20398C92.458 3.18696 92.4631 3.16764 92.4631 3.14798C92.4631 3.12832 92.458 3.10901 92.4481 3.09198C92.2129 2.833 92.0597 2.51004 92.0081 2.16398V2.13198ZM92.1521 3.65998L94.3441 4.20398C95.8801 12.612 93.7761 24.508 90.7601 32.412C90.0881 29.316 84.9761 22.98 82.3281 21.572C87.0053 16.4975 90.377 10.3609 92.1521 3.69198V3.65998ZM73.6161 23.508C73.8325 23.527 74.0503 23.493 74.2506 23.4089C74.4509 23.3248 74.6277 23.1931 74.7656 23.0252C74.9035 22.8574 74.9984 22.6584 75.042 22.4456C75.0857 22.2328 75.0768 22.0126 75.0161 21.804C74.9979 21.7595 74.9642 21.7232 74.9214 21.7015C74.8785 21.6798 74.8292 21.6743 74.7826 21.6859C74.736 21.6976 74.6951 21.7256 74.6675 21.7649C74.6399 21.8042 74.6273 21.8522 74.6321 21.9C74.7681 22.58 74.2081 23.148 73.3601 22.972C72.3281 22.74 72.0641 21.692 72.6081 21.204C72.7597 21.085 72.9376 21.0041 73.1269 20.9679C73.3162 20.9317 73.5113 20.9414 73.6961 20.996C73.7285 21.0039 73.7624 21.0038 73.7948 20.9959C73.8271 20.988 73.8572 20.9724 73.8823 20.9504C73.9074 20.9284 73.9268 20.9008 73.939 20.8697C73.9511 20.8387 73.9556 20.8051 73.9521 20.772C73.7281 18.596 72.0481 17.628 70.4241 18.06C70.6103 17.6075 70.6503 17.1081 70.5384 16.6318C70.4265 16.1555 70.1683 15.7262 69.8001 15.404C71.9121 14.604 73.0001 13.468 73.0561 11.956C73.7393 12.0275 74.4065 12.2084 75.0321 12.492C74.5841 12.492 74.2321 13.004 74.4241 13.244C74.4472 13.2573 74.4735 13.2643 74.5001 13.2643C74.5268 13.2643 74.553 13.2573 74.5761 13.244C74.8648 13.1404 75.1251 12.9705 75.3361 12.748C75.3561 12.6993 75.3561 12.6447 75.3361 12.596C76.7076 13.3071 77.8823 14.3459 78.7559 15.6201C79.6296 16.8942 80.1751 18.3644 80.3441 19.9C80.5281 22.636 79.0001 24.34 75.6561 24.188C75.6031 24.188 75.5522 24.2091 75.5147 24.2466C75.4772 24.2841 75.4561 24.3349 75.4561 24.388C75.4561 24.441 75.4772 24.4919 75.5147 24.5294C75.5522 24.5669 75.6031 24.588 75.6561 24.588C76.5577 24.6973 77.4723 24.596 78.3281 24.292C78.6641 24.676 79.2321 25.204 79.8081 25.748C81.1361 27.876 80.1761 29.42 78.8401 29.428C77.8266 29.3386 76.8773 28.8937 76.1601 28.172C75.6241 27.58 74.6321 26.516 74.3041 26.156C74.1361 25.5 73.8801 24.388 73.6161 23.508ZM56.3441 16.804C56.3528 16.6542 56.401 16.5093 56.4839 16.3842C56.5668 16.2591 56.6815 16.1583 56.8161 16.092C56.7573 16.1971 56.7264 16.3155 56.7264 16.436C56.7264 16.5564 56.7573 16.6749 56.8161 16.78C56.8214 16.7921 56.829 16.803 56.8384 16.8121C56.8479 16.8213 56.8591 16.8285 56.8714 16.8333C56.8836 16.8381 56.8967 16.8405 56.9099 16.8403C56.9231 16.8401 56.936 16.8372 56.9481 16.832C56.9602 16.8267 56.9711 16.8191 56.9803 16.8097C56.9894 16.8002 56.9966 16.789 57.0015 16.7768C57.0063 16.7645 57.0087 16.7514 57.0084 16.7382C57.0082 16.7251 57.0054 16.7121 57.0001 16.7C56.8161 16.196 57.3681 15.82 57.8001 15.9C57.6897 15.9781 57.6028 16.0851 57.5492 16.2093C57.4956 16.3335 57.4772 16.47 57.4961 16.604C57.4961 16.6294 57.5062 16.6539 57.5242 16.6719C57.5422 16.6899 57.5667 16.7 57.5921 16.7C57.6176 16.7 57.642 16.6899 57.66 16.6719C57.678 16.6539 57.6881 16.6294 57.6881 16.604C57.691 16.4704 57.7371 16.3414 57.8197 16.2364C57.9022 16.1314 58.0167 16.056 58.1458 16.0217C58.2749 15.9874 58.4117 15.996 58.5355 16.0462C58.6592 16.0964 58.7634 16.1854 58.8321 16.3C58.6856 16.235 58.5194 16.2305 58.3696 16.2874C58.2198 16.3443 58.0985 16.4581 58.0321 16.604C58.0183 16.6263 58.014 16.6531 58.02 16.6786C58.026 16.7041 58.0419 16.7262 58.0641 16.74C58.0864 16.7538 58.1133 16.7581 58.1388 16.7521C58.1643 16.7461 58.1863 16.7303 58.2001 16.708C58.7121 15.908 59.5521 17.188 59.0001 17.508C58.956 17.2605 58.8256 17.0366 58.6321 16.876C58.5521 16.812 58.4481 16.924 58.5121 17.004C58.7281 17.268 58.9041 17.46 58.5121 18.564C58.1361 18.564 57.4001 18.652 56.8321 18.74C56.4843 18.156 56.3147 17.4831 56.3441 16.804ZM53.0481 36.956C50.2161 32.428 53.8481 24.636 56.8561 19.132C57.4561 19.132 58.3361 18.996 58.8881 18.916C60.1238 23.0961 60.6033 27.4633 60.3041 31.812C60.3041 32.076 60.7201 32.036 60.7521 31.812C60.7841 31.588 60.8001 31.22 60.8161 30.916C63.2503 29.1975 65.9541 27.897 68.8161 27.068C69.6641 29.564 68.3281 35.652 66.6001 39.02C64.0721 39.732 55.9921 41.66 53.0481 36.956ZM62.9281 54.156C64.0866 51.4048 66.0715 49.0817 68.6081 47.508C68.6328 47.4944 68.6514 47.472 68.6602 47.4454C68.6691 47.4187 68.6677 47.3896 68.6561 47.364C68.4641 46.884 67.3761 46.124 67.8561 40.42C67.8566 40.3983 67.8512 40.3769 67.8404 40.3581C67.8297 40.3393 67.8141 40.3237 67.7952 40.313C67.7763 40.3023 67.7549 40.297 67.7333 40.2975C67.7116 40.298 67.6905 40.3044 67.6721 40.316C67.5312 40.4399 67.3612 40.5262 67.178 40.5668C66.9947 40.6074 66.8042 40.6009 66.6241 40.548C66.5205 40.5104 66.4273 40.4487 66.3522 40.368C66.2771 40.2874 66.2223 40.19 66.1921 40.084C66.1201 39.74 66.3041 39.708 66.6081 39.876C67.0481 40.108 67.2561 39.956 67.8881 39.588C69.8001 36.588 73.0001 30.1 71.4481 26.484C72.2277 26.3798 73.0137 26.3317 73.8001 26.34C75.2887 28.0512 76.3814 30.0699 77.0001 32.252L84.0801 30.444C83.053 28.6898 81.8025 27.0763 80.3601 25.644C80.3601 25.644 79.7441 24.956 79.5601 24.772C79.8853 24.3363 80.2352 23.9196 80.6081 23.524C83.5281 24.772 87.8961 29.62 90.2081 34.164C92.8961 41.02 94.0481 45.364 94.2081 54.7C92.1513 54.9166 90.0802 54.4529 88.3121 53.38C88.492 51.8744 88.5908 50.3602 88.6081 48.844L77.3041 49.348C76.5615 52.5818 75.2969 55.6729 73.5601 58.5C70.3361 57.988 66.2561 56.996 62.9281 54.156ZM51.1121 104.084C50.8481 104.284 50.7361 104.228 50.6401 104.084C49.9681 102.916 49.9201 98.9 49.8401 97.572C49.8316 97.5327 49.8099 97.4975 49.7786 97.4723C49.7473 97.4471 49.7083 97.4333 49.6681 97.4333C49.6279 97.4333 49.5889 97.4471 49.5577 97.4723C49.5264 97.4975 49.5047 97.5327 49.4961 97.572C49.4081 98.724 49.3841 102.884 50.2081 104.276C49.2881 103.892 48.9761 101.58 48.8881 100.596C48.7628 99.1976 48.7843 97.7899 48.9521 96.396C49.4256 95.8754 49.9826 95.4373 50.6001 95.1C50.6688 95.7051 50.9458 96.2675 51.3837 96.6908C51.8215 97.1141 52.393 97.3719 53.0001 97.42C52.8321 99.1 52.4241 103.1 51.1121 104.084ZM55.7121 96.084C53.8018 95.2843 52.1687 93.9406 51.0161 92.22C51.4273 91.5083 51.9069 90.8385 52.4481 90.22C52.4438 90.2411 52.4438 90.2629 52.4481 90.284C54.2721 93.148 56.1361 93.716 57.8801 93.884C57.3054 94.7564 56.5696 95.5112 55.7121 96.108V96.084ZM77.3121 94.276C76.8481 93.78 77.0801 92.012 77.1921 91.34C77.3856 90.238 77.6529 89.1502 77.9921 88.084C78.008 88.0394 78.0056 87.9904 77.9854 87.9476C77.9651 87.9049 77.9287 87.8719 77.8841 87.856C77.8396 87.8401 77.7905 87.8425 77.7478 87.8628C77.705 87.883 77.672 87.9194 77.6561 87.964C77.1953 89.0179 76.8675 90.1251 76.6801 91.26C76.4919 92.1731 76.4919 93.1149 76.6801 94.028C75.4401 92.86 76.6801 88.308 77.5361 86.676C78.1669 86.3271 78.8551 86.0941 79.5681 85.988C79.3521 87.508 79.7201 88.388 80.7841 88.94C80.5281 90.18 78.6881 94.3 77.2961 94.3L77.3121 94.276ZM84.5121 89.436C82.7993 87.9001 81.5008 85.9578 80.7361 83.788C81.3514 83.2355 82.0094 82.7326 82.7041 82.284C83.2902 84.4826 84.5523 86.4416 86.3121 87.884C86.3519 87.9117 86.3997 87.9257 86.4481 87.924C85.9012 88.5727 85.2326 89.108 84.4801 89.5L84.5121 89.436ZM100.512 73.668C99.0081 79.972 92.7361 83.94 86.4241 87.46C84.8949 86.0502 83.7497 84.2745 83.0961 82.3C89.3361 75.9 87.8961 68.86 83.8081 66.428C81.8801 65.3 79.9601 65.54 78.8321 67.476C77.3201 70.092 76.3601 73.996 68.0641 83.676C65.0044 87.2782 61.5958 90.5689 57.8881 93.5C56.0961 93.324 54.4561 92.236 52.8721 90.188C64.3761 70.524 63.0481 58.188 64.0721 55.724C67.6161 58.388 72.3041 58.868 73.6721 58.924C73.7601 58.924 73.7841 58.86 73.8561 58.764C75.041 57.0936 75.9912 55.2686 76.6801 53.34C80.4386 53.4564 84.2006 53.2986 87.9361 52.868C87.8641 53.588 87.8241 53.62 87.9361 53.708C89.6687 54.9885 91.8349 55.5372 93.9681 55.236C98.1921 59.652 102.032 67.292 100.504 73.692L100.512 73.668Z" fill="#020617"/>
<path id="Vector_4" d="M78.0561 44.9722C77.9201 46.1962 77.7201 47.4282 77.4641 48.6282L88.6081 47.9802C88.6081 46.6442 88.5121 45.3162 88.3761 44.0282L78.0561 44.9722ZM77.9921 36.8362C78.1281 37.9082 78.2161 39.0202 78.2481 40.1402L87.4001 38.6842C87.1041 37.5115 86.7462 36.3552 86.3281 35.2202L77.9921 36.8362ZM78.2641 40.7002C78.2641 41.9002 78.2641 43.1002 78.1121 44.3322L88.2881 43.2362C88.1285 41.9532 87.9015 40.6794 87.6081 39.4202L78.2641 40.7002Z" fill="#020617"/>
</g>
</svg>
