<svg width="250" height="160" viewBox="0 0 250 160" fill="none" xmlns="http://www.w3.org/2000/svg">
<path d="M0 0H250V136C250 149.255 239.255 160 226 160H24C10.7452 160 0 149.255 0 136V0Z" fill="white"/>
<path d="M57 125.75H58.5C58.8978 125.75 59.2794 125.908 59.5607 126.189C59.842 126.471 60 126.852 60 127.25V135.5L57 132.5H52.5C52.1022 132.5 51.7206 132.342 51.4393 132.061C51.158 131.779 51 131.398 51 131V130.25M54 125.75C54 126.148 53.842 126.529 53.5607 126.811C53.2794 127.092 52.8978 127.25 52.5 127.25H48L45 130.25V122C45 121.602 45.158 121.221 45.4393 120.939C45.7206 120.658 46.1022 120.5 46.5 120.5H52.5C52.8978 120.5 53.2794 120.658 53.5607 120.939C53.842 121.221 54 121.602 54 122V125.75Z" stroke="#CBD5E1" stroke-width="1.5" stroke-linecap="round" stroke-linejoin="round"/>
<rect x="106" y="109" width="38" height="38" rx="19" stroke="#F1F5F9" stroke-width="2"/>
<rect x="119" y="122" width="12" height="12" rx="6" fill="#F87171"/>
<path d="M203.5 124.25H196.75M199 131.75H192.25M199 131.75C199 132.993 200.007 134 201.25 134C202.493 134 203.5 132.993 203.5 131.75C203.5 130.507 202.493 129.5 201.25 129.5C200.007 129.5 199 130.507 199 131.75ZM196 124.25C196 125.493 194.993 126.5 193.75 126.5C192.507 126.5 191.5 125.493 191.5 124.25C191.5 123.007 192.507 122 193.75 122C194.993 122 196 123.007 196 124.25Z" stroke="#CBD5E1" stroke-width="1.5" stroke-linecap="round" stroke-linejoin="round"/>
</svg>
