<svg width="380" height="205" viewBox="0 0 380 205" fill="none" xmlns="http://www.w3.org/2000/svg">
<rect width="380" height="205" fill="#F8FAFC"/>
<path d="M65 0H315V136C315 149.255 304.255 160 291 160H89C75.7452 160 65 149.255 65 136V0Z" fill="white"/>
<path d="M122 125.75H123.5C123.898 125.75 124.279 125.908 124.561 126.189C124.842 126.471 125 126.852 125 127.25V135.5L122 132.5H117.5C117.102 132.5 116.721 132.342 116.439 132.061C116.158 131.779 116 131.398 116 131V130.25M119 125.75C119 126.148 118.842 126.529 118.561 126.811C118.279 127.092 117.898 127.25 117.5 127.25H113L110 130.25V122C110 121.602 110.158 121.221 110.439 120.939C110.721 120.658 111.102 120.5 111.5 120.5H117.5C117.898 120.5 118.279 120.658 118.561 120.939C118.842 121.221 119 121.602 119 122V125.75Z" stroke="#CBD5E1" stroke-width="1.5" stroke-linecap="round" stroke-linejoin="round"/>
<rect x="171" y="109" width="38" height="38" rx="19" stroke="#F1F5F9" stroke-width="2"/>
<rect x="184" y="122" width="12" height="12" rx="6" fill="#F87171"/>
<path d="M268.5 124.25H261.75M264 131.75H257.25M264 131.75C264 132.993 265.007 134 266.25 134C267.493 134 268.5 132.993 268.5 131.75C268.5 130.507 267.493 129.5 266.25 129.5C265.007 129.5 264 130.507 264 131.75ZM261 124.25C261 125.493 259.993 126.5 258.75 126.5C257.507 126.5 256.5 125.493 256.5 124.25C256.5 123.007 257.507 122 258.75 122C259.993 122 261 123.007 261 124.25Z" stroke="#CBD5E1" stroke-width="1.5" stroke-linecap="round" stroke-linejoin="round"/>
</svg>
