<svg width="380" height="205" viewBox="0 0 380 205" fill="none" xmlns="http://www.w3.org/2000/svg">
<rect width="380" height="205" fill="#F8FAFC"/>
<path d="M185.2 51.6199C184.544 52.1319 184.84 53.2199 185.288 53.2199C185.48 53.2199 185.648 53.0679 185.488 52.7079C185.488 52.6439 185.376 52.4759 185.624 51.9879C185.673 51.9317 185.697 51.8584 185.692 51.7841C185.687 51.7098 185.652 51.6407 185.596 51.5919C185.54 51.5431 185.466 51.5186 185.392 51.5239C185.318 51.5291 185.249 51.5637 185.2 51.6199ZM192.016 57.5559C191.216 58.4599 190.304 58.4119 189.616 57.3639C190.045 57.3614 190.467 57.2526 190.844 57.0474C191.221 56.8422 191.541 56.5469 191.776 56.1879C191.794 56.1449 191.796 56.0972 191.782 56.0528C191.769 56.0084 191.74 55.9701 191.701 55.9446C191.662 55.919 191.616 55.9077 191.57 55.9127C191.523 55.9177 191.48 55.9386 191.448 55.9719C190.696 57.0759 189.296 56.7719 189.048 56.9079C188.989 56.9357 188.943 56.9858 188.92 57.0472C188.898 57.1086 188.901 57.1764 188.928 57.2359C189.728 59.1319 191.504 59.0599 192.296 57.7879C192.31 57.7504 192.313 57.7094 192.302 57.6706C192.292 57.6318 192.27 57.5972 192.239 57.5716C192.208 57.546 192.17 57.5307 192.13 57.5279C192.09 57.5251 192.05 57.5349 192.016 57.5559ZM190.8 54.4359C190.581 54.7466 190.311 55.0172 190 55.2359C189.966 55.2712 189.945 55.3171 189.94 55.366C189.936 55.4148 189.948 55.4638 189.975 55.5048C190.002 55.5458 190.042 55.5764 190.089 55.5915C190.136 55.6066 190.186 55.6053 190.232 55.5879C190.848 55.2599 191.584 54.5639 191.432 53.9079C191.256 53.1079 189.504 52.3879 188.728 52.1399C188.704 52.1304 188.679 52.1257 188.654 52.126C188.628 52.1263 188.603 52.1317 188.58 52.1417C188.556 52.1517 188.535 52.1663 188.517 52.1845C188.499 52.2027 188.485 52.2243 188.476 52.2479C188.467 52.2715 188.462 52.2968 188.462 52.3223C188.462 52.3477 188.468 52.3729 188.478 52.3963C188.488 52.4197 188.502 52.4409 188.521 52.4586C188.539 52.4764 188.56 52.4904 188.584 52.4999C189.48 52.9479 189.92 53.2119 190.184 53.3639C190.8 53.7799 191.064 53.9879 190.8 54.4359ZM186.864 53.5719C186.903 53.7361 186.989 53.8854 187.111 54.0019C187.233 54.1183 187.386 54.1968 187.552 54.2279C187.832 54.2279 187.96 53.8759 187.624 53.4679C187.288 53.0599 186.8 53.1399 186.864 53.5719ZM189.728 51.9319C190.016 51.9319 190.144 51.5719 189.832 51.1879C189.664 50.9879 189.368 50.8199 189.176 50.9719C188.864 51.2279 189.312 51.9319 189.728 51.9319ZM266.056 150.764C254.056 143.7 239.224 145.796 231.256 158.516C231.208 153.172 224.584 152.036 219.256 153.268C221.656 149.412 222.048 145.972 220.416 143.3C217.968 139.3 211.072 137.428 201.968 138.3C191.832 139.268 180.368 144.236 177.528 153.148C171.84 145.148 154.144 152.116 159.24 163.212C154.672 160.724 147.6 161.284 143.6 166.028C167.528 102.612 166.584 104.9 166.952 104.54C168.192 103.372 170.88 104.636 171.536 102.236C171.864 101.052 171.36 100.54 171.864 99.7079C172.528 98.6359 174.104 98.1079 174.544 96.7559C174.912 95.6279 174.504 94.3559 173.496 91.8199C173.818 90.9265 174.056 90.0052 174.208 89.0679C174.212 89.0395 174.206 89.0107 174.191 88.9861C174.177 88.9614 174.155 88.9424 174.128 88.9319C172.43 88.2985 170.855 87.3755 169.472 86.2039C169.448 86.1851 169.418 86.1748 169.388 86.1748C169.358 86.1748 169.328 86.1851 169.304 86.2039C168.601 86.8865 167.983 87.6521 167.464 88.4839C167.456 88.5015 167.452 88.5206 167.452 88.5399C167.452 88.5592 167.456 88.5783 167.464 88.5959C165.648 89.3319 163.968 89.8439 163.408 91.1239C162.848 92.4039 163.592 93.5239 162.424 94.4519C161.793 94.8867 161.304 95.4983 161.019 96.21C160.735 96.9217 160.667 97.7017 160.824 98.4519C161.248 100.58 163.312 101.036 162.968 102.38C162.84 102.892 158.448 111.452 133.84 160.78C135.816 151.108 127.824 141.26 114.088 142.292C114.036 142.296 113.988 142.32 113.954 142.359C113.92 142.398 113.902 142.448 113.904 142.5C113.905 142.526 113.911 142.551 113.922 142.575C113.933 142.598 113.949 142.619 113.969 142.636C113.988 142.654 114.011 142.667 114.035 142.675C114.06 142.683 114.086 142.686 114.112 142.684C128.76 141.956 136.016 152.836 132.936 162.596C132.916 162.644 132.915 162.697 132.935 162.745C132.954 162.793 132.992 162.832 133.04 162.852C133.088 162.872 133.142 162.872 133.19 162.853C133.238 162.833 133.276 162.796 133.296 162.748C140.4 148.812 163.128 103.724 163.368 102.5C163.712 100.764 161.768 100.436 161.352 98.3799C161.192 97.7176 161.23 97.0231 161.46 96.3819C161.69 95.7407 162.103 95.181 162.648 94.7719C162.948 94.5342 163.183 94.2252 163.333 93.873C163.482 93.5208 163.541 93.1367 163.504 92.7559C163.502 92.2597 163.605 91.7687 163.808 91.3159C164.392 90.1959 165.76 89.9079 167.808 88.9159C169.416 90.1068 171.172 91.0831 173.032 91.8199C173.704 94.4279 174.344 95.4439 174.024 96.6199C173.704 97.7959 172.16 98.4199 171.488 99.5079C170.896 100.468 171.392 101.044 171.064 102.124C170.424 104.124 167.864 102.924 166.672 104.212C166.2 104.716 166 105.588 165.016 107.876C162.976 112.676 163.992 109.668 142.688 167.212C142.665 167.258 142.66 167.311 142.676 167.359C142.692 167.408 142.726 167.449 142.772 167.472C142.818 167.495 142.871 167.499 142.919 167.484C142.968 167.468 143.009 167.434 143.032 167.388C146.96 161.828 154.8 161.084 159.6 163.868C159.728 163.94 159.888 163.868 159.888 163.652C159.888 163.436 158.048 160.532 159.2 157.108C161.44 150.436 173.256 147.556 177.44 153.7C177.462 153.73 177.491 153.753 177.525 153.767C177.559 153.781 177.597 153.786 177.633 153.78C177.67 153.774 177.704 153.758 177.732 153.734C177.76 153.71 177.781 153.679 177.792 153.644C182.552 138.052 214.176 134.596 219.856 143.628C221.456 146.172 221.056 149.484 218.68 153.468C218.658 153.5 218.646 153.537 218.646 153.576C218.646 153.614 218.658 153.652 218.679 153.684C218.701 153.716 218.732 153.741 218.767 153.755C218.803 153.769 218.842 153.772 218.88 153.764C224.432 152.644 231.104 153.612 230.816 159.268C230.808 159.313 230.817 159.36 230.841 159.399C230.864 159.438 230.901 159.468 230.945 159.482C230.988 159.497 231.035 159.495 231.078 159.478C231.12 159.461 231.155 159.429 231.176 159.388C238.704 147.388 252.992 144.012 265.92 151.204C266.16 151.3 266.168 150.828 266.056 150.764Z" fill="#020617"/>
<path d="M166.672 101.812C166.772 101.604 166.887 101.404 167.016 101.212C167.368 100.596 167.536 100.548 168.472 100.412C169.632 100.276 170 99.5082 170.072 98.3402C170.063 97.9523 170.157 97.5689 170.344 97.2289C170.53 96.8889 170.804 96.6044 171.136 96.4042C171.386 96.2203 171.6 95.9926 171.768 95.7322C171.986 95.3093 172.109 94.8443 172.129 94.3693C172.15 93.8943 172.068 93.4204 171.888 92.9802C171.617 92.3201 171.129 91.7725 170.504 91.4282C169.886 91.1172 169.205 90.9503 168.512 90.9402C167.584 90.9557 166.692 91.305 166 91.9242C165.2 92.6442 165.2 93.3882 165.12 94.5322C165.1 95.1594 164.906 95.7686 164.56 96.2922C163.96 97.5242 164.232 98.3962 164.928 98.9562C165.624 99.5162 165.808 99.6762 165.512 100.364L135.344 164.9C135.232 165.132 135.48 165.356 135.656 165.068C135.76 164.9 143.712 147.884 144.624 145.948C167.272 97.4682 166.04 100.348 166.016 99.8122C165.992 99.2762 165.568 98.9642 165.216 98.6362C164.987 98.4473 164.82 98.193 164.739 97.9072C164.657 97.6214 164.665 97.3176 164.76 97.0362C164.883 96.6276 165.044 96.2312 165.24 95.8522C165.984 94.1962 164.856 92.7242 167.36 91.5962C167.846 91.4092 168.366 91.3275 168.886 91.3565C169.406 91.3854 169.914 91.5244 170.376 91.7642C170.914 92.0689 171.328 92.5532 171.544 93.1322C171.692 93.5182 171.759 93.9308 171.74 94.3439C171.72 94.757 171.616 95.1616 171.432 95.5322C171.29 95.7593 171.114 95.9642 170.912 96.1402C170.576 96.4048 170.299 96.7362 170.098 97.1136C169.897 97.4909 169.777 97.9059 169.744 98.3322C169.592 99.2842 169.4 99.9322 168.44 100.036C167.48 100.14 167.136 100.268 166.72 100.996C166 102.148 168.4 96.6362 138.328 166.42C138.317 166.444 138.31 166.469 138.308 166.495C138.307 166.521 138.311 166.547 138.32 166.572C138.329 166.596 138.342 166.619 138.36 166.638C138.378 166.657 138.4 166.672 138.424 166.682C138.448 166.693 138.474 166.698 138.5 166.698C138.526 166.698 138.552 166.693 138.576 166.682C138.6 166.672 138.621 166.657 138.639 166.638C138.657 166.619 138.671 166.597 138.68 166.572C138.904 166.06 166.568 102.004 166.672 101.812ZM127.76 85.3882C127.848 85.3882 140.56 85.3242 143.04 85.2922C146.144 85.2922 150.296 84.8922 150.48 81.7002C150.56 79.9162 149.6 78.7802 147.896 78.2282C146.289 77.8136 144.612 77.7454 142.976 78.0282C143.776 71.8122 132.376 70.2282 130.568 75.4202C128.359 75.0267 126.081 75.3903 124.104 76.4522C119.336 79.1642 121.416 85.2042 127.76 85.3882ZM130.52 75.7882C130.712 75.8362 130.856 75.7402 130.944 75.5162C131.027 75.2699 131.137 75.0337 131.272 74.8122C133.344 71.4442 141.808 72.5402 142.56 76.7642C142.628 77.1908 142.628 77.6255 142.56 78.0522C142.552 78.0983 142.554 78.1456 142.566 78.1908C142.579 78.236 142.601 78.2778 142.632 78.3132C142.662 78.3485 142.701 78.3765 142.744 78.395C142.787 78.4135 142.833 78.4221 142.88 78.4202C143.032 78.4202 143 78.4202 143.496 78.3482C144.914 78.2124 146.344 78.3316 147.72 78.7002C148.399 78.8323 149.004 79.2131 149.417 79.768C149.83 80.3229 150.021 81.0119 149.952 81.7002C149.856 83.4282 148.256 84.4442 145.192 84.7162C143.704 84.8602 127.864 84.8762 127.776 84.8762C122.056 84.6602 120.096 79.5322 124.384 76.9562C126.237 75.8797 128.404 75.4756 130.52 75.8122V75.7882ZM228.4 58.6362C228.907 58.7273 229.421 58.7728 229.936 58.7722L248.456 59.0042C250.36 58.9642 252.32 58.9162 254 57.8762C254.364 57.6327 254.666 57.307 254.881 56.9253C255.097 56.5435 255.219 56.1165 255.238 55.6788C255.258 55.2411 255.174 54.8049 254.994 54.4056C254.813 54.0063 254.541 53.655 254.2 53.3802C252.6 51.9962 249.4 51.3642 247.08 51.5242C247.452 51.0951 247.676 50.5579 247.719 49.9918C247.762 49.4257 247.622 48.8607 247.32 48.3802C246.685 47.4974 245.786 46.8391 244.752 46.5002C242.528 45.7002 239.288 45.2122 236.872 46.0602C236.13 46.2994 235.457 46.7158 234.912 47.2734C234.367 47.8309 233.966 48.5129 233.744 49.2602C232.4 47.9482 229.288 47.4122 226.76 48.7402C225.61 49.3355 224.72 50.3358 224.264 51.5482C223.822 52.7479 223.756 54.0535 224.072 55.2922C224.6 57.0602 226.128 58.2362 228.4 58.6362ZM233.568 49.7002C233.608 49.7428 233.659 49.7734 233.715 49.7887C233.771 49.804 233.83 49.8033 233.886 49.7866C233.942 49.77 233.992 49.7381 234.03 49.6946C234.069 49.651 234.094 49.5975 234.104 49.5402C234.306 48.841 234.681 48.2039 235.194 47.6879C235.707 47.172 236.342 46.7937 237.04 46.5882C240.24 45.4922 247.792 46.8282 247.184 50.2442C247.101 50.7919 246.815 51.2885 246.384 51.6362C246.346 51.6598 246.318 51.6959 246.303 51.7383C246.289 51.7807 246.29 51.8268 246.306 51.8686C246.322 51.9103 246.353 51.9451 246.392 51.9669C246.431 51.9888 246.476 51.9963 246.52 51.9882C248.672 51.8202 252.56 52.5082 254.016 54.0122C254.411 54.4007 254.645 54.9232 254.672 55.4762C254.68 55.6067 254.68 55.7376 254.672 55.8682C254.646 56.0358 254.609 56.2015 254.56 56.3642C254.431 56.7173 254.214 57.0314 253.928 57.2762C252.456 58.4202 250.32 58.4682 248.432 58.5082C248.352 58.5082 229.408 58.3002 229.352 58.2922C226.376 58.0762 224.2 56.4922 224.44 53.4922C224.454 52.6224 224.701 51.7723 225.155 51.0306C225.61 50.289 226.255 49.6831 227.024 49.2762C228.928 48.2122 232.088 48.1402 233.568 49.7002ZM190.904 73.2282L199.056 71.4362C198.611 70.3388 198.098 69.27 197.52 68.2362L190.2 69.9642C190.501 71.0368 190.736 72.1268 190.904 73.2282Z" fill="#020617"/>
<path d="M207.432 92.1C207.477 92.0893 207.518 92.0652 207.55 92.031C207.581 91.9968 207.601 91.9539 207.608 91.908C207.824 82.604 206.296 77.212 203.608 71.108C203.714 70.9162 203.787 70.7079 203.824 70.492C205.968 66.212 206.952 61.164 207.776 56.364C208.6 51.564 208.856 45.868 207.776 41.036C207.763 40.999 207.739 40.9666 207.708 40.9425C207.677 40.9184 207.639 40.9037 207.6 40.9L207.056 40.772V40.644C207.22 40.5776 207.363 40.4682 207.47 40.3274C207.577 40.1867 207.644 40.0197 207.664 39.844C207.932 39.7226 208.144 39.5039 208.257 39.232C208.37 38.9602 208.375 38.6556 208.272 38.38C208.181 38.2075 208.026 38.0781 207.84 38.02C207.598 37.8432 207.317 37.727 207.02 37.6811C206.724 37.6352 206.421 37.6608 206.136 37.756C206.043 37.7389 205.946 37.7417 205.854 37.7641C205.761 37.7865 205.675 37.8281 205.599 37.8862C205.524 37.9442 205.461 38.0175 205.416 38.1011C205.371 38.1848 205.344 38.2771 205.336 38.372C204.88 38.372 204.72 38.716 204.752 39.172C204.798 39.5623 204.96 39.93 205.216 40.228H205.064C205.022 40.2261 204.98 40.2385 204.945 40.2631C204.91 40.2877 204.885 40.3232 204.872 40.364C202.914 47.106 199.463 53.3208 194.776 58.548C194.136 58.8823 193.634 59.4319 193.36 60.1C192.912 60.604 192.56 61.052 192.232 61.46L191.784 61.076C192.506 60.6632 193.092 60.0474 193.467 59.305C193.842 58.5627 193.992 57.7264 193.896 56.9C193.698 55.1032 193.004 53.3968 191.892 51.9714C190.781 50.546 189.295 49.4577 187.6 48.828C187.775 48.3996 187.833 47.9325 187.768 47.4743C187.704 47.0161 187.519 46.5833 187.232 46.22C185.912 44.1 183.864 44.1 183.32 44.996C183.135 45.3767 183.095 45.812 183.208 46.22C174.408 46.748 173.512 55.02 178.232 54.444C174.448 58.556 177.104 62.548 180.208 60.228C180.456 63.172 183.408 63.356 184.208 61.228C184.471 61.5111 184.82 61.6987 185.201 61.761C185.582 61.8233 185.973 61.7568 186.312 61.572C186.464 62.18 186.576 62.572 186.688 62.94C185.858 62.9011 185.025 62.9332 184.2 63.036C183.783 62.9355 183.348 62.9249 182.926 63.0049C182.504 63.0849 182.104 63.2537 181.752 63.5C178.882 64.2509 176.19 65.5643 173.832 67.364C174.131 63.3856 173.586 59.389 172.232 55.636C172.16 55.468 172.152 55.484 171.872 55.508C171.973 55.2886 172.032 55.0528 172.048 54.812C172.163 54.7514 172.262 54.6636 172.335 54.5563C172.409 54.449 172.455 54.3253 172.47 54.1961C172.485 54.0668 172.468 53.9359 172.421 53.8146C172.374 53.6933 172.298 53.5853 172.2 53.5C172.199 53.3696 172.168 53.2411 172.109 53.1248C172.05 53.0086 171.965 52.9076 171.86 52.83C171.755 52.7524 171.634 52.7002 171.505 52.6776C171.377 52.6551 171.245 52.6627 171.12 52.7C170.964 52.5958 170.78 52.5401 170.592 52.5401C170.404 52.5401 170.22 52.5958 170.064 52.7C169.504 52.596 169.088 53.14 169 53.7C168.958 54.459 169.141 55.2135 169.528 55.868C164.456 64.508 163.128 70.516 165.528 74.268C166.76 76.204 168.832 77.292 171.696 77.468C170.72 78.908 168.232 82.932 169.296 84.844C169.884 85.7396 170.717 86.4476 171.696 86.884C173.232 87.5 174.184 85.972 175.12 84.484C176.037 82.973 176.84 81.3952 177.52 79.764C177.736 79.244 178.088 79.588 177.928 80.004C177.288 81.676 175.16 86.756 173.472 87.404C173.433 87.4231 173.401 87.4528 173.378 87.4895C173.355 87.5263 173.343 87.5687 173.343 87.612C173.343 87.6553 173.355 87.6977 173.378 87.7344C173.401 87.7712 173.433 87.8008 173.472 87.82C174.76 88.468 175.872 88.924 176.376 89.124C176.03 89.7531 175.761 90.422 175.576 91.116C175.572 91.1353 175.574 91.1554 175.581 91.1738C175.588 91.1922 175.6 91.2082 175.616 91.22C175.981 91.6285 176.38 92.0059 176.808 92.348C175.424 94.924 176.808 105.948 165.816 126.548C165.536 126.604 165.277 126.741 165.072 126.94C164.592 127.356 163.576 128.996 163.704 129.244C163.964 129.748 164.281 130.22 164.648 130.652C164.431 130.963 164.179 131.247 163.896 131.5C163.447 131.611 163.025 131.81 162.653 132.084C162.281 132.359 161.967 132.704 161.728 133.1C161.725 133.116 161.725 133.132 161.728 133.148C161.312 135.116 161.312 138.972 162.256 140.788C162.936 142.124 164.312 142.204 165.184 140.788C166.32 138.924 166.632 134.884 166.504 134.252C166.714 133.76 166.983 133.295 167.304 132.868C167.778 133.133 168.283 133.337 168.808 133.476C169.608 133.476 171.584 131.556 171.576 130.556C185.248 119.908 190.264 109.276 191.912 105.756C192.144 105.276 192.304 104.956 192.424 104.724C194.736 100.724 200.56 105.684 199.832 111.34C199.408 114.612 196.632 118.156 196 118.868C195.488 118.516 193.824 120.076 193.44 120.556C193.422 120.605 193.422 120.659 193.44 120.708C193.498 121.127 193.605 121.538 193.76 121.932C193.504 122.143 193.237 122.341 192.96 122.524C192.032 122.268 190.488 123.26 190.416 123.38C190.071 123.971 189.787 124.595 189.568 125.244C187.52 131.316 190.256 133.964 192.872 129.636C193.572 128.471 194.079 127.202 194.376 125.876C194.723 125.494 195.115 125.155 195.544 124.868C196.109 125.601 196.777 126.248 197.528 126.788C197.565 126.8 197.604 126.8 197.64 126.788C198.424 126.475 199.129 125.991 199.704 125.372C199.816 125.284 199.902 125.168 199.954 125.036C200.006 124.904 200.022 124.76 200 124.62C206.144 121.324 212.8 117.244 214.4 110.62C216 103.996 211.856 96.508 207.432 92.1ZM207.832 38.348C208.368 38.78 207.488 39.868 207.352 39.452C207.728 39.364 207.88 38.78 207.832 38.38V38.348ZM207.12 37.908C207.224 37.9068 207.326 37.9435 207.405 38.0111C207.484 38.0787 207.537 38.1728 207.552 38.276C207.617 38.5682 207.568 38.8741 207.416 39.132C207.32 39.236 207.184 39.324 207.104 39.188C207.194 38.9928 207.243 38.7807 207.245 38.5657C207.248 38.3506 207.205 38.1374 207.12 37.94V37.908ZM206.632 37.828C206.744 37.828 206.944 37.932 207 38.308C207.056 38.684 207 39.028 206.848 39.164C206.792 39.204 206.752 39.164 206.712 39.164C206.781 38.9457 206.78 38.7114 206.71 38.4935C206.64 38.2757 206.503 38.085 206.32 37.948C206.361 37.9094 206.411 37.8812 206.465 37.8659C206.52 37.8506 206.577 37.8486 206.632 37.86V37.828ZM205.696 38.1C206.096 37.812 206.496 38.324 206.496 38.828C206.496 39.036 206.416 39.268 206.232 39.22C206.512 39.044 206.312 38.756 205.976 38.596C205.937 38.5138 205.917 38.4232 205.92 38.332C205.92 38.204 205.776 38.228 205.76 38.332C205.748 38.3981 205.748 38.4659 205.76 38.532C205.679 38.5053 205.596 38.4866 205.512 38.476C205.503 38.4066 205.516 38.3362 205.549 38.2745C205.582 38.2129 205.633 38.163 205.696 38.132V38.1ZM205.008 39.132C205.008 38.876 205.008 38.796 205.144 38.732C205.464 38.524 206.176 38.9 206.168 39.004C206.16 39.108 205.936 39.1 205.68 39.108C205.424 39.116 205.48 39.268 205.6 39.34C205.72 39.412 205.936 39.484 206 39.764C206.006 39.7819 206.017 39.7975 206.032 39.8086C206.047 39.8198 206.065 39.8258 206.084 39.8258C206.103 39.8258 206.121 39.8198 206.136 39.8086C206.151 39.7975 206.163 39.7819 206.168 39.764C206.162 39.6006 206.094 39.4457 205.976 39.332H206.056C206.09 39.3723 206.132 39.4048 206.18 39.427C206.228 39.4493 206.28 39.4608 206.332 39.4608C206.385 39.4608 206.437 39.4493 206.484 39.427C206.532 39.4048 206.574 39.3723 206.608 39.332C206.657 39.3753 206.719 39.3992 206.784 39.3992C206.849 39.3992 206.912 39.3753 206.96 39.332C206.981 39.3666 207.009 39.3965 207.042 39.4199C207.075 39.4433 207.113 39.4596 207.152 39.468C207.154 39.518 207.168 39.5668 207.193 39.61C207.218 39.6533 207.254 39.6897 207.296 39.716C207.278 39.8603 207.22 39.997 207.13 40.1112C207.04 40.2253 206.92 40.3128 206.784 40.364C206.784 40.364 206.728 40.412 206.72 40.468C206.712 40.524 206.72 40.652 206.72 40.652L205.448 40.332V40.204C205.458 40.187 205.463 40.1676 205.463 40.148C205.463 40.1283 205.458 40.109 205.448 40.092C205.213 39.833 205.06 39.51 205.008 39.164V39.132ZM205.152 40.66L207.344 41.204C208.88 49.612 206.776 61.508 203.76 69.412C203.088 66.316 197.976 59.98 195.328 58.572C200.005 53.4975 203.377 47.3609 205.152 40.692V40.66ZM186.616 60.508C186.833 60.527 187.05 60.493 187.251 60.4089C187.451 60.3248 187.628 60.1931 187.766 60.0252C187.903 59.8574 187.998 59.6584 188.042 59.4456C188.086 59.2328 188.077 59.0126 188.016 58.804C187.998 58.7595 187.964 58.7232 187.921 58.7015C187.878 58.6798 187.829 58.6743 187.783 58.6859C187.736 58.6976 187.695 58.7256 187.668 58.7649C187.64 58.8042 187.627 58.8522 187.632 58.9C187.768 59.58 187.208 60.148 186.36 59.972C185.328 59.74 185.064 58.692 185.608 58.204C185.76 58.085 185.938 58.0041 186.127 57.9679C186.316 57.9317 186.511 57.9414 186.696 57.996C186.729 58.0039 186.762 58.0038 186.795 57.9959C186.827 57.988 186.857 57.9724 186.882 57.9504C186.907 57.9284 186.927 57.9008 186.939 57.8697C186.951 57.8387 186.956 57.8051 186.952 57.772C186.728 55.596 185.048 54.628 183.424 55.06C183.61 54.6075 183.65 54.1081 183.538 53.6318C183.426 53.1555 183.168 52.7262 182.8 52.404C184.912 51.604 186 50.468 186.056 48.956C186.739 49.0275 187.406 49.2084 188.032 49.492C187.584 49.492 187.232 50.004 187.424 50.244C187.447 50.2573 187.473 50.2643 187.5 50.2643C187.527 50.2643 187.553 50.2573 187.576 50.244C187.865 50.1404 188.125 49.9705 188.336 49.748C188.356 49.6993 188.356 49.6447 188.336 49.596C189.708 50.3071 190.882 51.3459 191.756 52.6201C192.63 53.8942 193.175 55.3644 193.344 56.9C193.528 59.636 192 61.34 188.656 61.188C188.603 61.188 188.552 61.2091 188.515 61.2466C188.477 61.2841 188.456 61.3349 188.456 61.388C188.456 61.441 188.477 61.4919 188.515 61.5294C188.552 61.5669 188.603 61.588 188.656 61.588C189.558 61.6973 190.472 61.596 191.328 61.292C191.664 61.676 192.232 62.204 192.808 62.748C194.136 64.876 193.176 66.42 191.84 66.428C190.827 66.3386 189.877 65.8937 189.16 65.172C188.624 64.58 187.632 63.516 187.304 63.156C187.136 62.5 186.88 61.388 186.616 60.508ZM169.344 53.804C169.353 53.6542 169.401 53.5093 169.484 53.3842C169.567 53.2591 169.681 53.1583 169.816 53.092C169.757 53.1971 169.726 53.3155 169.726 53.436C169.726 53.5564 169.757 53.6749 169.816 53.78C169.821 53.7921 169.829 53.803 169.838 53.8121C169.848 53.8213 169.859 53.8285 169.871 53.8333C169.884 53.8381 169.897 53.8405 169.91 53.8403C169.923 53.8401 169.936 53.8372 169.948 53.832C169.96 53.8267 169.971 53.8191 169.98 53.8097C169.989 53.8002 169.997 53.789 170.001 53.7768C170.006 53.7645 170.009 53.7514 170.008 53.7382C170.008 53.7251 170.005 53.7121 170 53.7C169.816 53.196 170.368 52.82 170.8 52.9C170.69 52.9781 170.603 53.0851 170.549 53.2093C170.496 53.3335 170.477 53.47 170.496 53.604C170.496 53.6294 170.506 53.6539 170.524 53.6719C170.542 53.6899 170.567 53.7 170.592 53.7C170.618 53.7 170.642 53.6899 170.66 53.6719C170.678 53.6539 170.688 53.6294 170.688 53.604C170.691 53.4704 170.737 53.3414 170.82 53.2364C170.902 53.1314 171.017 53.056 171.146 53.0217C171.275 52.9874 171.412 52.996 171.535 53.0462C171.659 53.0964 171.763 53.1854 171.832 53.3C171.686 53.235 171.519 53.2305 171.37 53.2874C171.22 53.3443 171.098 53.4581 171.032 53.604C171.018 53.6263 171.014 53.6531 171.02 53.6786C171.026 53.7041 171.042 53.7262 171.064 53.74C171.086 53.7538 171.113 53.7582 171.139 53.7521C171.164 53.7461 171.186 53.7303 171.2 53.708C171.712 52.908 172.552 54.188 172 54.508C171.956 54.2605 171.826 54.0366 171.632 53.876C171.552 53.812 171.448 53.924 171.512 54.004C171.728 54.268 171.904 54.46 171.512 55.564C171.136 55.564 170.4 55.652 169.832 55.74C169.484 55.156 169.315 54.4831 169.344 53.804ZM166.048 73.956C163.216 69.428 166.848 61.636 169.856 56.132C170.456 56.132 171.336 55.996 171.888 55.916C173.124 60.0961 173.603 64.4633 173.304 68.812C173.304 69.076 173.72 69.036 173.752 68.812C173.784 68.588 173.8 68.22 173.816 67.916C176.25 66.1975 178.954 64.897 181.816 64.068C182.664 66.564 181.328 72.652 179.6 76.02C177.072 76.732 168.992 78.66 166.048 73.956ZM175.928 91.156C177.087 88.4048 179.071 86.0817 181.608 84.508C181.633 84.4944 181.651 84.472 181.66 84.4454C181.669 84.4187 181.668 84.3896 181.656 84.364C181.464 83.884 180.376 83.124 180.856 77.42C180.857 77.3983 180.851 77.3769 180.84 77.3581C180.83 77.3393 180.814 77.3237 180.795 77.313C180.776 77.3023 180.755 77.297 180.733 77.2975C180.712 77.298 180.69 77.3044 180.672 77.316C180.531 77.4399 180.361 77.5262 180.178 77.5668C179.995 77.6074 179.804 77.6009 179.624 77.548C179.521 77.5104 179.427 77.4487 179.352 77.368C179.277 77.2874 179.222 77.19 179.192 77.084C179.12 76.74 179.304 76.708 179.608 76.876C180.048 77.108 180.256 76.956 180.888 76.588C182.8 73.588 186 67.1 184.448 63.484C185.228 63.3798 186.014 63.3317 186.8 63.34C188.289 65.0513 189.381 67.0699 190 69.252L197.08 67.444C196.053 65.6898 194.803 64.0763 193.36 62.644C193.36 62.644 192.744 61.956 192.56 61.772C192.885 61.3363 193.235 60.9196 193.608 60.524C196.528 61.772 200.896 66.62 203.208 71.164C205.896 78.02 207.048 82.364 207.208 91.7C205.151 91.9166 203.08 91.4529 201.312 90.38C201.492 88.8744 201.591 87.3602 201.608 85.844L190.304 86.348C189.561 89.5817 188.297 92.6729 186.56 95.5C183.336 94.988 179.256 93.996 175.928 91.156ZM164.112 141.084C163.848 141.284 163.736 141.228 163.64 141.084C162.968 139.916 162.92 135.9 162.84 134.572C162.832 134.533 162.81 134.498 162.779 134.472C162.747 134.447 162.708 134.433 162.668 134.433C162.628 134.433 162.589 134.447 162.558 134.472C162.526 134.498 162.505 134.533 162.496 134.572C162.408 135.724 162.384 139.884 163.208 141.276C162.288 140.892 161.976 138.58 161.888 137.596C161.763 136.198 161.784 134.79 161.952 133.396C162.426 132.875 162.983 132.437 163.6 132.1C163.669 132.705 163.946 133.268 164.384 133.691C164.822 134.114 165.393 134.372 166 134.42C165.832 136.1 165.424 140.1 164.112 141.084ZM168.712 133.084C166.802 132.284 165.169 130.941 164.016 129.22C164.427 128.508 164.907 127.838 165.448 127.22C165.444 127.241 165.444 127.263 165.448 127.284C167.272 130.148 169.136 130.716 170.88 130.884C170.305 131.756 169.57 132.511 168.712 133.108V133.084ZM190.312 131.276C189.848 130.78 190.08 129.012 190.192 128.34C190.386 127.238 190.653 126.15 190.992 125.084C191.008 125.039 191.006 124.99 190.985 124.948C190.965 124.905 190.929 124.872 190.884 124.856C190.84 124.84 190.791 124.843 190.748 124.863C190.705 124.883 190.672 124.919 190.656 124.964C190.195 126.018 189.867 127.125 189.68 128.26C189.492 129.173 189.492 130.115 189.68 131.028C188.44 129.86 189.68 125.308 190.536 123.676C191.167 123.327 191.855 123.094 192.568 122.988C192.352 124.508 192.72 125.388 193.784 125.94C193.528 127.18 191.688 131.3 190.296 131.3L190.312 131.276ZM197.512 126.436C195.799 124.9 194.501 122.958 193.736 120.788C194.351 120.235 195.009 119.733 195.704 119.284C196.29 121.483 197.552 123.442 199.312 124.884C199.352 124.912 199.4 124.926 199.448 124.924C198.901 125.573 198.233 126.108 197.48 126.5L197.512 126.436ZM213.512 110.668C212.008 116.972 205.736 120.94 199.424 124.46C197.895 123.05 196.75 121.275 196.096 119.3C202.336 112.9 200.896 105.86 196.808 103.428C194.88 102.3 192.96 102.54 191.832 104.476C190.32 107.092 189.36 110.996 181.064 120.676C178.004 124.278 174.596 127.569 170.888 130.5C169.096 130.324 167.456 129.236 165.872 127.188C177.376 107.524 176.048 95.188 177.072 92.724C180.616 95.388 185.304 95.868 186.672 95.924C186.76 95.924 186.784 95.86 186.856 95.764C188.041 94.0936 188.991 92.2686 189.68 90.34C193.439 90.4564 197.201 90.2986 200.936 89.868C200.864 90.588 200.824 90.62 200.936 90.708C202.669 91.9885 204.835 92.5372 206.968 92.236C211.192 96.652 215.032 104.292 213.504 110.692L213.512 110.668Z" fill="#020617"/>
<path d="M191.056 81.972C190.92 83.196 190.72 84.428 190.464 85.628L201.608 84.98C201.608 83.644 201.512 82.316 201.376 81.028L191.056 81.972ZM190.992 73.836C191.128 74.908 191.216 76.02 191.248 77.14L200.4 75.684C200.104 74.5112 199.746 73.3549 199.328 72.22L190.992 73.836ZM191.264 77.7C191.264 78.9 191.264 80.1 191.112 81.332L201.288 80.236C201.128 78.9529 200.901 77.6792 200.608 76.42L191.264 77.7Z" fill="#020617"/>
</svg>
