<svg xmlns="http://www.w3.org/2000/svg" viewBox="0 0 400 400" id="Profile-2--Streamline-Milano.svg" height="400" width="400"><desc>Profile 2 Streamline Illustration: https://streamlinehq.com</desc><g fill="#000000"><path d="M310 19.34c-8.58 -0.34 -16 8 -14.76 16.14a14 14 0 0 0 11.82 11.04c8 1.04 16.72 -5.64 16.42 -14A14.22 14.22 0 0 0 310 19.34zm5.36 21.22 -6 -4 -7.82 4.88 2.66 -7.38 -4.36 -2.82 5.84 -0.96 3.68 -5.9 2.22 4.66 6.8 -0.3 -5.02 4.86zm-89.1 85.18c1.34 -0.34 2.98 -1.54 2.8 -3.06s-1.82 -2.3 -3.14 -2.36c-2.12 0 -4.24 2 -3.88 3.58s2.48 2.26 4.22 1.84zM167.3 345a30.42 30.42 0 0 0 5.22 -5.6c2.58 -3.62 6.36 -8.88 4.94 -14.6 -0.9 -3.68 -4.22 -8.48 -8.98 -8.64s-8.6 4.88 -9.74 8.56c-1.58 5.02 0.78 9.58 2.36 12.6a24.82 24.82 0 0 0 6.2 7.68zM164 326.6a4 4 0 1 1 4 4 4 4 0 0 1 -4 -4zm140.88 17.84c0.24 -7.62 -4 -12.76 -7.04 -12.76s-7.28 5.14 -7.06 12.76zm1.84 -3.68 4.86 0.1a7.36 7.36 0 0 0 -0.68 -5.2c-1.68 -2.94 -4.38 -4.28 -6.2 -1.46a11.72 11.72 0 0 1 2.02 6.56zm-22.72 0.1 4.86 -0.1a11.86 11.86 0 0 1 2 -6.56c-1.84 -2.82 -4.54 -1.46 -6.2 1.46a7.34 7.34 0 0 0 -0.66 5.2zm13.84 -10.74a4.62 4.62 0 1 0 -4.2 -4.36 4.5 4.5 0 0 0 4.2 4.36zm-10.44 1.28a3.28 3.28 0 0 0 2.98 -3.32 3.02 3.02 0 1 0 -2.98 3.32zm20.88 0a3.28 3.28 0 0 0 2.98 -3.32 3.02 3.02 0 1 0 -2.98 3.32zM176.82 131.5a6.52 6.52 0 0 1 -4 -1 13.74 13.74 0 0 1 2.58 -4.8 0.66 0.66 0 0 0 -0.94 -0.9c-0.7 0.72 -3.74 5.12 -3.16 6.54s5.3 2.2 6.36 1.18a0.64 0.64 0 0 0 -0.84 -1.02zm11.76 10.12a20 20 0 0 0 12 -4.5A9.84 9.84 0 0 1 196.46 144a0.58 0.58 0 0 0 0.6 1 10.4 10.4 0 0 0 5.34 -10 0.9 0.9 0 0 0 -1.54 -0.58 18.5 18.5 0 0 1 -12.32 5.86 0.76 0.76 0 0 0 -0.72 0.78 0.78 0.78 0 0 0 0.76 0.56zm0.94 -44.32a0.84 0.84 0 0 0 0 1.68 10.82 10.82 0 0 1 8.22 4.44 0.64 0.64 0 0 0 1.08 -0.66 10.8 10.8 0 0 0 -9.3 -5.46zm-23.9 1.36a6.82 6.82 0 0 1 -4.78 1.6 0.72 0.72 0 0 0 -0.2 1.42 7.16 7.16 0 0 0 6.14 -1.58c0.8 -0.76 -0.26 -2.1 -1.16 -1.44zm-1.84 20.46c0 -0.9 -0.48 -4.58 -0.46 -5.44a0.7 0.7 0 0 0 -0.7 -0.7 0.7 0.7 0 0 0 -0.72 0.66 49.84 49.84 0 0 0 0 5.7 0.94 0.94 0 0 0 1.88 -0.22zM192 118.64c0 -0.66 -0.4 -3.3 -0.38 -4a0.7 0.7 0 0 0 -1.4 0c0 0.72 -0.2 3.5 -0.12 4.22a0.96 0.96 0 1 0 1.9 -0.22z" stroke-width="1"></path><path d="M98.6 206a0.32 0.32 0 0 0 0 0.2 111.8 111.8 0 0 0 101.66 66.44c62.48 0 113.68 -52.58 111.06 -116.94a107.6 107.6 0 0 0 -23.82 -63.24 111.64 111.64 0 0 0 -42.26 -32 16 16 0 0 0 0.48 -2.2c1.12 -7.3 -2 -12.18 -7.54 -17.12a92.18 92.18 0 0 0 -8.76 -6.68 25.22 25.22 0 0 0 -10.24 -4.56A12.82 12.82 0 0 0 208 33c-0.56 0.58 -1.04 1.5 -1.64 1.86a6 6 0 0 1 -2.7 0.18 44.86 44.86 0 0 0 -32.66 14.1A15.72 15.72 0 0 0 159.36 58c-59.8 24.82 -85.24 90 -60.76 148zm67.54 16.76a71.22 71.22 0 0 1 -3 -23.74c0.3 -6.68 0.78 -17.84 8 -22.52a29.82 29.82 0 0 1 7.3 -3.7C176.14 185.54 180.6 198.36 186 210c-3.42 1.22 -16.72 10.78 -19.86 12.8zm16 -50c-0.18 -2 -1.1 -8 -1.24 -8.94a2.44 2.44 0 0 0 -1.3 -2c-0.66 -0.34 -3.6 -1.34 -4.38 -1.74C166 155.56 159.12 144.8 160 129.1a19.24 19.24 0 0 0 7.3 -0.34c3.14 -0.94 5.1 -3.9 5.8 -8.78a4.3 4.3 0 0 1 3.38 -1.1A8.36 8.36 0 0 1 180 120a10.28 10.28 0 0 0 5.28 7.58 13.72 13.72 0 0 0 18 -5.76 15.66 15.66 0 0 0 1.58 -5.46 35.24 35.24 0 0 0 10.14 -0.86c0 1.02 0 2.86 0.66 3.22 2.2 1.1 6 -7.74 11.34 -7.74a6.92 6.92 0 0 1 4.44 2 7.4 7.4 0 0 1 3 5.88 7.68 7.68 0 0 1 -2.94 5.14 13.34 13.34 0 0 1 -8.8 3.62 0.42 0.42 0 0 0 -0.32 0.62 54.5 54.5 0 0 1 6.8 17.6c-1.08 11.78 -1.54 16.8 -1.76 19.24 -1.84 22 -9.42 40.28 -21.62 58.7a63.7 63.7 0 0 0 -6.84 12.4c-6.74 -21.18 -23.42 -41.02 -19.2 -63.52a6.96 6.96 0 0 1 1.08 -0.34q0 0.46 0.18 0.78a0.56 0.56 0 0 0 1.12 -0.22zm13.36 -83.64a12.6 12.6 0 0 0 -3.48 -2c8 -0.74 14.18 -3.02 19.64 -9.44 0.6 0.32 4 2 4.52 2.34 5.8 9.02 2.62 12.7 0.5 23.8 -0.64 3.34 -1.28 6.82 -1.64 9.88a40.36 40.36 0 0 1 -10.14 1.24c0.16 -1.58 0.24 -3.28 0.46 -4.92a2 2 0 0 0 -0.5 -3.84l-24 -0.58a2 2 0 0 0 -1.46 3.22 60.92 60.92 0 0 0 0.3 9.34A7.64 7.64 0 0 0 173.2 118a41.88 41.88 0 0 0 -0.32 -8.3 2.16 2.16 0 0 0 -0.74 -3.62c-0.2 0 0.12 0 -12.7 -0.32 0.16 -4 0.22 -15.1 2 -20.52 10.2 7.62 22.62 10 34 4.52a0.38 0.38 0 0 0 0.06 -0.52zm8.6 21.06c-0.52 3.1 -0.3 6.36 -1.44 9.26a12.4 12.4 0 0 1 -15.6 7.1 8.18 8.18 0 0 1 -5.52 -6.84 58.24 58.24 0 0 1 -0.62 -10c3.24 0.3 20.14 0.54 23.18 0.6zm-32.58 0c0.54 5.04 0.82 14 -3.66 16.48a10.4 10.4 0 0 1 -4.22 0.86 14.24 14.24 0 0 1 -3.8 -0.18 7.12 7.12 0 0 1 -5.62 -4.86 48.88 48.88 0 0 1 -1.16 -12.78zm27.76 149.38C194.54 252 178 226.4 173.64 220a60.14 60.14 0 0 1 12.8 -8.66c1.34 2.56 10 20.34 11.78 27.46a0.76 0.76 0 0 0 1.46 0c2.8 -10.84 9.7 -15.74 17.78 -32.58a51.82 51.82 0 0 1 12.28 9.54c-3.74 6.58 -23.74 35.98 -30.46 43.9zM236 218.72c-11.6 -10.82 -16.34 -13.3 -17.8 -13.86a115.5 115.5 0 0 0 10.62 -37.36c5.8 4.5 11.8 8.92 17.16 13.82 -1.16 5.46 -7.52 29.84 -9.98 37.4zm8.9 -157.02c50.74 23 78 77.7 58.74 135.8 -9.86 -4.26 -47.8 -15.84 -56.48 -17.18 -2.44 -2.32 -14 -11.3 -18.14 -14.44 0 -0.96 -0.16 1.84 1.44 -17.58 0 -0.22 4.46 -22.4 6.34 -27.24a48.34 48.34 0 0 1 3.66 -7.38 19.8 19.8 0 0 0 2 -13.88 11.88 11.88 0 0 0 -2 -4.14 14.32 14.32 0 0 0 4 -7.32c0.54 -4.22 -1.56 -8.32 -3.6 -11.86a16 16 0 0 0 2.48 -7.88 6.84 6.84 0 0 0 -0.88 -3.02 11.04 11.04 0 0 0 2.36 -3.88zm-82.56 -5.18c6 -8.5 18 -6.36 28.14 -4.32A161.46 161.46 0 0 1 226 63.86a0.54 0.54 0 0 0 0.5 -0.96 149.6 149.6 0 0 0 -34.52 -12c-5.7 -1.22 -12.52 -2.64 -18.44 -2a44.3 44.3 0 0 1 24.78 -11.68c6.34 -0.8 8.16 0.5 9.88 -1.64a9.8 9.8 0 0 1 3.24 -2.86c3.3 -1.72 8.12 -2 13.88 1.28a73.5 73.5 0 0 1 8.9 6 34.9 34.9 0 0 1 7.42 7.28 13.32 13.32 0 0 1 2.66 9.08 13.32 13.32 0 0 1 -2.88 7.84 21.44 21.44 0 0 0 -2.56 -2.5c-4.76 -4 -20.76 -15.28 -24 -17.26a0.6 0.6 0 0 0 -0.64 1.02c4.54 2.84 18.54 13.32 22 16.26 2.24 1.86 4.4 3.54 5.04 5.52 0.96 3.06 -0.8 6 -2 8.84a0.7 0.7 0 0 0 0.16 0.8c1.8 3.24 3.88 7.78 3.3 11.46a12.6 12.6 0 0 1 -3.42 6c-8.2 -9.76 -27.74 -20.7 -40.74 -25.6 -15.24 -5.82 -34.48 -5.84 -39.72 -3.66a21.5 21.5 0 0 1 3.5 -8.56zm-4 3.82a29.36 29.36 0 0 0 -1.32 5.76c-1.54 0.64 -2.92 3.24 -4 7.42 -1.3 5.56 -2.44 10.36 0.34 15.06a14.24 14.24 0 0 0 5.1 4.94c-0.24 2 -0.86 9.3 -0.8 12.34l-5.26 -0.12h-0.14a2 2 0 0 0 -0.7 3.64 81.06 81.06 0 0 0 0.76 12.86 8.5 8.5 0 0 0 6 6.52 38.96 38.96 0 0 0 4.22 20.86 27.38 27.38 0 0 0 14.64 13.04c2 0.66 2 0.58 2.2 1.66 0 0 0.84 5.04 1.12 6.56a25.38 25.38 0 0 0 -15.16 8.56 191.06 191.06 0 0 0 -65.54 25.66 110 110 0 0 1 58.62 -144.76zM96 27.54c1.18 -0.12 1.04 -1.9 0 -1.76 -4.68 0.14 -22.62 0.74 -27.46 0.7a0.58 0.58 0 0 0 0 1.14c4.48 0.22 22.9 0.38 27.46 -0.08zm-2 4.72c-1.82 0 -21 1.5 -24.84 1.56a0.58 0.58 0 0 0 0 1.16c3.12 0 22.66 -0.52 25.04 -0.98a0.88 0.88 0 0 0 -0.2 -1.74zm3.18 7.9s-24.54 0.92 -26.88 0.94a0.66 0.66 0 0 0 0 1.3c9 0 18 0.34 26.94 -0.38a0.94 0.94 0 0 0 -0.06 -1.86zM232 338.44l-1.48 -0.76a0.34 0.34 0 0 0 -0.34 0 17.5 17.5 0 0 0 -4.56 6 0.32 0.32 0 0 0 0.14 0.4 10.32 10.32 0 0 0 4.62 1.16c5.32 0 8.68 -4.56 11.68 -8.8 2.6 -3.72 5.86 -8.34 4.24 -12.82a8.52 8.52 0 0 0 -2.78 -3.78 0.28 0.28 0 0 0 -0.38 0 15.44 15.44 0 0 0 -4.76 6 0.28 0.28 0 0 0 0 0.32l1.62 1.54a31.66 31.66 0 0 1 -8 10.74zm-4.98 -2.64a35.1 35.1 0 0 0 -3.66 4.96c-0.52 1.14 1 1.7 1.4 1a47.3 47.3 0 0 1 3.68 -4.94c0.42 -0.44 -0.44 -1.68 -1.42 -1.02zm10.08 -11.42a0.82 0.82 0 0 0 0.66 -0.3 50.32 50.32 0 0 1 3.68 -4.94c0.44 -0.46 -0.42 -1.68 -1.44 -1a34.78 34.78 0 0 0 -3.62 4.94 0.86 0.86 0 0 0 0.72 1.3zm59.66 -25.6a0.82 0.82 0 0 0 0.8 -1.04l0.46 -14c0 -1.08 0.1 -2.42 -1.14 -3.12s-196.96 -1.16 -196.74 -1.16a0.42 0.42 0 0 0 -0.34 0.2 116 116 0 0 0 -0.74 16 2.64 2.64 0 0 0 2.62 1.48c2.74 0 195.08 1.64 195.08 1.64zm-0.4 -15c0 0.46 0 0.18 -0.36 13.3 -9.36 -0.28 -193.52 -1.72 -194.9 -1.8 -0.62 -0.22 -0.62 -0.82 -0.58 -1.76l0.38 -12.38c9.82 0.28 194.2 0.76 194.96 0.82s0.56 0.88 0.5 1.82zm-178.88 73.34a0.88 0.88 0 0 0 0 -1.76c-4.48 0.26 -22.62 0.76 -27.46 0.7a0.58 0.58 0 0 0 0 1.14c4.46 0.22 22.84 0.36 27.46 -0.08zm-2.1 4.72c-1.8 0 -20.98 1.5 -24.84 1.56a0.58 0.58 0 0 0 0 1.16c3.62 0 22.74 -0.54 25.04 -0.98a0.88 0.88 0 0 0 -0.2 -1.74zm3.24 7.92s-24.5 0.9 -26.9 0.92a0.66 0.66 0 0 0 0 1.3c8.96 0 18 0.34 26.92 -0.38a0.92 0.92 0 0 0 -0.02 -1.84zm62.56 -12.64a0.88 0.88 0 0 0 0 -1.76c-4.52 0.24 -22.64 0.76 -27.46 0.7a0.58 0.58 0 0 0 0 1.14c4.48 0.22 22.82 0.36 27.46 -0.08zm-2.1 4.72c-1.8 0 -20.98 1.5 -24.84 1.56a0.58 0.58 0 0 0 0 1.16c3.6 0 22.72 -0.54 25.02 -0.98a0.88 0.88 0 0 0 -0.18 -1.74zm3.26 7.92s-24.52 0.9 -26.9 0.92a0.66 0.66 0 0 0 0 1.3c8.96 0 18 0.34 26.92 -0.38a0.92 0.92 0 0 0 -0.02 -1.84zm64.5 -12.64a0.88 0.88 0 0 0 0 -1.76c-4.52 0.26 -22.62 0.76 -27.48 0.7a0.58 0.58 0 0 0 0 1.14c4.5 0.22 22.84 0.36 27.48 -0.08zm-2.1 4.72c-1.78 0 -20.98 1.5 -24.82 1.56a0.58 0.58 0 0 0 0 1.16c3.6 0 22.72 -0.54 25.04 -0.98a0.88 0.88 0 0 0 -0.22 -1.74zm3.26 7.92s-24.52 0.9 -26.9 0.92a0.66 0.66 0 0 0 0 1.3c8.96 0 18 0.34 26.92 -0.38a0.92 0.92 0 0 0 -0.02 -1.84zm62.7 -12.64a0.88 0.88 0 0 0 0 -1.76c-4.48 0.24 -22.62 0.76 -27.48 0.7a0.58 0.58 0 0 0 0 1.14c4.5 0.22 22.78 0.36 27.48 -0.08zm-2.1 4.72c-1.78 0 -20.98 1.5 -24.82 1.56a0.58 0.58 0 0 0 0 1.16c3.6 0 22.72 -0.54 25.04 -0.98a0.88 0.88 0 0 0 -0.22 -1.74zm3.26 7.92s-24.52 0.9 -26.9 0.92a0.66 0.66 0 0 0 0 1.3c8.94 0 18 0.34 26.92 -0.38a0.92 0.92 0 0 0 -0.02 -1.84zm-190.24 -23.66 -4.64 -0.1c0 -2.36 -0.16 -8.44 -0.24 -10.32a3.1 3.1 0 0 0 0.52 -4.2c-0.18 -0.26 0 -0.2 -5.66 0v-4a4.12 4.12 0 0 0 0.6 -3.48 0.4 0.4 0 0 0 -0.4 -0.3l-7.12 0.22c-0.12 -1.52 -0.64 -6.98 -0.84 -7.34a1.18 1.18 0 0 0 -0.64 -0.56c2.48 -3.58 -1.42 -4.84 -0.66 -6.68 0.32 -0.78 -0.84 -1.32 -1.3 -0.6a16.88 16.88 0 0 0 -2.56 4.98 3.24 3.24 0 0 0 1.52 2.64 1.44 1.44 0 0 0 -0.9 1.48v6.22l-5.7 0.18a0.38 0.38 0 0 0 -0.36 0.28 4 4 0 0 0 0.68 3.82c0 1.14 0.14 2.7 0.26 3.82 -5.76 0.24 -5.54 0.16 -5.72 0.36 -1.44 1.72 -2.36 4.7 -0.66 6v7.26h-3.36a0.62 0.62 0 0 0 0 1.24c0.22 0 36.92 0.44 37.26 0.4a0.6 0.6 0 0 0 -0.08 -1.32zM103.24 324h-2.5v-6.32a6.6 6.6 0 0 1 2 -0.28c0.04 0.84 0.4 5.3 0.5 6.6zm-3.08 -10.4a16.42 16.42 0 0 1 1.26 -2.3c0.66 1.28 1.62 2 1.06 3.26a6.8 6.8 0 0 1 -0.86 1.22c-0.88 -0.62 -1.62 -1.34 -1.46 -2.22zm-0.44 14.1a3.32 3.32 0 0 0 6 0 4.24 4.24 0 0 0 4.14 1v2.94l-14.28 0.56c0 -0.98 -0.1 -2 -0.18 -2.92a4.46 4.46 0 0 0 4.32 -1.62zm-10.42 18v-6.74a6.22 6.22 0 0 0 4.88 -1.82 4 4 0 0 0 5.34 0c2.32 2.54 5.8 1.36 7.72 -1.46a4.38 4.38 0 0 0 6.84 0.4 3.58 3.58 0 0 0 1.3 0.1c0 2.12 0 7.48 0.14 9.72 -6.14 -0.04 -22.2 -0.16 -26.22 -0.16z" stroke-width="1"></path><path d="M359.88 120.48c-3.16 -2.24 -0.92 -2 -5.52 -17.14 -1.56 -5.14 -3.3 -11.32 -8 -13.3 0 -14.92 0 -77.08 0.1 -79.2a0.88 0.88 0 0 0 -0.76 -1.34c-37.8 0 -272.78 1.06 -293.62 1.3a0.8 0.8 0 0 0 -0.74 1.06c-0.5 26.3 -1.22 169.9 -1.4 224.66a92.38 92.38 0 0 0 -24.36 34c-9.76 23.86 -10.34 42 -1.7 53.66 5.72 7.8 17.14 16.56 26.2 12.54 -0.28 38.12 -0.36 49.26 -0.14 52.48 0.1 1.5 0.28 1.28 0.5 1.28s282.14 -0.52 294.64 -0.66a0.86 0.86 0 0 0 0.76 -0.46c0.1 -0.2 0.54 -89.38 0.88 -113.04a15.88 15.88 0 0 0 12.44 -6.58 86.16 86.16 0 0 0 12 -20.12c4.52 -11.9 7.78 -20.48 9.68 -33.78 4.2 -29.3 -2.1 -61.3 -14.76 -87.84 -2.26 -4.78 -1.94 -4.5 -6.2 -7.52zM44 323.32c-3.76 -1.74 -7.18 -9.58 -5.8 -16.34a21.68 21.68 0 0 1 7.04 -11.38 33.24 33.24 0 0 1 5.22 -4.22v6.9a19.5 19.5 0 0 0 -4 3.66 0.68 0.68 0 0 0 1.06 0.84 26 26 0 0 1 6.7 -4.78c1.74 -0.78 2.1 -0.42 1.68 1.2a9.58 9.58 0 0 1 -2.74 5.12 20 20 0 0 1 -4.66 2.8 13.08 13.08 0 0 0 -2.56 1.46 0.62 0.62 0 0 0 0.74 0.98c1.6 -1.06 6.62 -2.62 9.38 -4.56 2 -1.38 2.18 -0.34 1.5 1.72 -1.4 4.14 -6.26 6.28 -9.48 8.88a0.68 0.68 0 0 0 0.76 1.1c0.9 -0.5 1.8 -1.12 3.08 -2s4.9 -2.7 6.22 -2a0.86 0.86 0 0 1 0.5 0.78c0.2 1.44 -1 2.84 -2.22 4.4 -5.6 7.16 -10.22 6.5 -12.42 5.44zM344.3 388c-17.4 0.1 -279.26 0.76 -292.88 0.92 0.16 -5.7 0 -41.74 0.1 -64.5a51.42 51.42 0 0 0 7.48 -6.96c0.56 -0.78 2.3 -3.48 0.94 -5.6a2.74 2.74 0 0 0 -2.84 -1.16 9.1 9.1 0 0 0 2.48 -5.26c0 -0.62 0.18 -2 -1 -2.58a2.82 2.82 0 0 0 -2.48 0.36c0.18 -0.28 0.32 -0.56 0.48 -0.86 0.72 -1.42 1.72 -4.68 0.92 -5.88 -1.1 -1.62 -3.9 -0.28 -5.58 0.72 0.12 -186.8 1.08 -253.66 0.98 -284.84 19.34 0 279.82 -1.06 292 -1.14 -0.16 11.1 -0.42 87.48 -0.42 87.48a25.58 25.58 0 0 0 -9.36 3.52 4.44 4.44 0 0 0 -1.88 1.72 2.12 2.12 0 0 0 1.02 3.02 5.86 5.86 0 0 0 -2 2 3.26 3.26 0 0 0 2 3.86c-2.12 1.9 -1.7 5.24 2.58 5.86a21.52 21.52 0 0 0 7.82 -0.34c1.18 17.66 -0.56 258.36 -0.36 269.66zm2.4 -265.38c-0.12 -1.46 -0.26 -3 -0.44 -4.64a22.62 22.62 0 0 0 3.72 -1.5c0.84 -0.42 0.16 -1.68 -0.68 -1.26a21.72 21.72 0 0 1 -10.18 2c-1.3 0 -3.48 0 -4 -1.26s0.74 -2.2 1.6 -2.44a17.24 17.24 0 0 0 10.96 -2 0.68 0.68 0 0 0 -0.64 -1.2 17.02 17.02 0 0 1 -9.68 1.52c-2.36 -0.32 -3.46 -0.98 -3.42 -2 0 -0.48 2 -2 2.8 -2.34a38 38 0 0 0 10.68 0c0.9 -0.12 0.78 -1.5 -0.12 -1.38 -2.68 0.34 -11.28 0.12 -12.1 -0.6a0.62 0.62 0 0 1 0 -1.04c2.12 -2.2 9.68 -4.42 11.7 -4.74a0.6 0.6 0 0 0 -0.14 -1.2h-0.34v-6.82c3.6 2.14 5 7.04 6.12 11 5.04 17.58 2.16 16.42 7.3 19.88a14 14 0 0 1 2.28 1.8c-5.1 3.16 -10.88 2 -15.42 -1.72z" stroke-width="1"></path><path d="M214.9 219.18a2.34 2.34 0 1 0 2.34 2.34 2.34 2.34 0 0 0 -2.34 -2.34zm-6.9 11.44a2.6 2.6 0 1 0 2.6 2.6 2.6 2.6 0 0 0 -2.6 -2.6zm-6.2 10.04a2 2 0 1 0 2 2 2 2 0 0 0 -2 -2z" stroke-width="1"></path></g></svg>