<svg xmlns="http://www.w3.org/2000/svg" viewBox="0 0 400 400" id="Approval-1--Streamline-Milano.svg" height="400" width="400"><desc>Approval 1 Streamline Illustration: https://streamlinehq.com</desc><g fill="#000000" fill-rule="evenodd"><path d="M388.54 180.36c-3.24 -13.08 -23.1 -35.42 -32.22 -45.32 7.4 -11.16 23.06 -36 24 -49.26a9.48 9.48 0 0 0 -5.18 -10c-11.58 -7.24 -41.36 -10 -55.06 -10.9 -2.96 -12 -12.86 -50.62 -24.58 -54.46s-40.84 21.04 -50.1 29.06C241.52 38.52 194 13.16 184.44 17.62c-10.64 4.98 -13.06 41.5 -13.72 53.3 -12.72 2.24 -40.38 7.74 -50.28 15.88 -3.7 3.04 -4.98 6.16 -2.82 12.64C109.74 96.76 90.28 102 103.34 110A21.14 21.14 0 0 0 90 118.68a4.22 4.22 0 0 0 2.56 6 30 30 0 0 0 -8.72 7.66c-3.4 4.9 -2.48 10.74 3.44 10 -4.6 5.8 -0.88 11.46 3.02 11.02 -0.56 4.54 0.8 8 2.22 13.76a24.3 24.3 0 0 0 10.62 13.66 16.56 16.56 0 0 0 -3.72 12.56c0.62 4.96 2.72 7.46 6.2 7.46 7.12 0 8.34 -9.38 7 -16.18l0.56 0.18s0.44 1.86 0.46 2a31.46 31.46 0 0 0 1.66 4.84 78.68 78.68 0 0 0 8.8 14.26 14.56 14.56 0 0 0 4.44 3.66c-0.32 1.7 -1.62 5.82 -2.66 9.66A170.54 170.54 0 0 0 95.22 222a81.86 81.86 0 0 0 -46.18 25.28A145.06 145.06 0 0 0 14.12 314a103.7 103.7 0 0 0 -3 28.56c0.64 10.66 2 21.86 8 30.54 5.08 7.18 13.48 12.68 27.62 14.64 21.4 2.96 39.06 -2 58.44 -10.88 27.3 -1.32 40.34 -1.46 76.94 3.9a133.36 133.36 0 0 1 24.6 6.74 1.5 1.5 0 0 1 0 0.22c-0.3 0.52 0.74 1.18 0.84 -0.2a1 1 0 0 0 0.62 -0.92c0 -2 -0.28 -5.88 -0.42 -7.88a0.96 0.96 0 0 0 -0.58 -0.84c-0.22 -3.44 -0.48 -7.44 -0.72 -11.56a1 1 0 0 0 0.42 -0.88l-0.46 -7.9a0.9 0.9 0 0 0 -0.46 -0.78v-1.5a46.66 46.66 0 0 0 21.52 14.38c10 2.76 24.66 1.24 34.42 -5.34 12.76 -8.6 16.34 -26 17.44 -41.32a327.88 327.88 0 0 0 0.12 -51.84c4.68 -2.22 6.32 -6.98 5.46 -12.2 6 3.04 15.04 7.18 21.78 7.82a9.7 9.7 0 0 0 10.36 -4.78c7.3 -10.9 10 -39.32 10.9 -52.52 14 -2.64 45.38 -9.22 56.64 -18 4.1 -3.24 5.16 -6.22 3.94 -11.1zm-294 -13.8c-1.56 -6.26 -2.82 -9.3 -2.22 -13.58a20.38 20.38 0 0 0 5.06 -4.38c0.56 5.22 9.68 3.36 14.92 -2.76a4 4 0 0 0 4.44 4 41.62 41.62 0 0 0 -4 16c-3.34 -2.54 -11.3 -1.36 -11.86 3.14a14.22 14.22 0 0 0 1.42 8.62 23.14 23.14 0 0 1 -7.8 -11.04zm11.72 32.18c-2 0.22 -4.22 -0.24 -4.9 -5.68a14.4 14.4 0 0 1 3.66 -11.48 2.56 2.56 0 0 0 1.56 0.2 21.48 21.48 0 0 0 3.78 2c1.26 4.84 1.12 14.38 -4.14 14.96zm20.2 21.46c1.06 -4.24 2.58 -9.22 2.84 -10.9 0 -0.26 -0.12 -0.36 -0.32 -0.48a13.88 13.88 0 0 1 -5.24 -4.82 60.1 60.1 0 0 1 -8.44 -15.16c-2 -5.88 -0.18 -4.48 -3.04 -5.48 -0.66 -2.44 -1.02 -2.72 -1.52 -4.48 0 -0.44 -0.16 -0.5 -0.24 -0.84a1 1 0 0 0 -2 0.34 2.5 2.5 0 0 0 0.22 0.82c0.54 2 0.54 1.46 1.12 3.18a19.22 19.22 0 0 1 -2.64 -1.52c0 -0.64 -0.42 -0.94 -0.86 -1.34a11.28 11.28 0 0 1 -3.52 -10.2c0.32 -2.7 6.44 -3.42 8.64 -1.74 1.16 0.9 1.58 2 2.56 1.58a0.96 0.96 0 0 0 0.56 -0.98 38 38 0 0 1 2.7 -15.68 35.18 35.18 0 0 1 4 -7.34c-0.32 2.54 0 5.18 2.44 6.14 2.84 1.16 8 0.1 11.68 -4 -0.74 2.16 -0.68 4.92 1.5 5.66 3 1.02 5.84 -0.9 8 -3.14 0.2 -0.18 0.74 -0.96 1.26 -1.6v1.2a5.88 5.88 0 0 0 4.6 5.64c2.3 0.46 4 -2.36 5.08 -4.38 -0.04 3.32 -0.16 6.26 3.18 7.32 2.62 0.82 4.64 -0.9 5.48 -3.5a6 6 0 0 0 6.88 1.52 102.78 102.78 0 0 1 -1.66 40.3 19.5 19.5 0 0 1 -12 13.2 0.98 0.98 0 0 0 -0.6 0.96 45.62 45.62 0 0 0 1.34 10.92 1.06 1.06 0 0 0 0.74 0.74c1.08 0.26 2.4 0.62 3.82 1.06 -0.52 7.64 -6.72 24.98 -10.96 25.62 -11.68 1.8 -21 -5.8 -27.86 -15.34a48.64 48.64 0 0 1 -6.88 -12.66c8.94 -0.46 8.98 0 9.14 -0.62zm-9.88 0.68a48 48 0 0 0 6.38 13.52c5.5 8.4 13.58 15.62 23.56 16.56a18.84 18.84 0 0 0 -4.14 9.16c-0.96 7.24 2.76 16.26 10 14.54 3.36 -0.82 4.7 -5.1 4.96 -8.52a18.2 18.2 0 0 0 -4.48 -15.48c6.24 -1.86 10.88 -20.24 11.02 -27.2 4.56 1.4 10.14 3.38 14.38 5.1 -0.2 20.36 -5.2 54.34 -25.4 56.6 -14.6 1.62 -25.18 -12.32 -33.14 -24.62 -2.54 -4 -16 -32 -18.86 -38 5.14 -0.84 10.46 -1.36 15.72 -1.66zm38.14 48.92a4 4 0 0 0 0.94 -0.56c-0.66 1.7 -1.76 3.56 -3.56 3.88 -6 1.14 -8.56 -7.12 -7.76 -12.74a19.52 19.52 0 0 1 2.68 -7.04 19.18 19.18 0 0 0 -1.14 5.44c-0.1 5.86 3.38 13.04 8.84 11.02zm44.16 -10.96a51.38 51.38 0 0 0 2 14 144.92 144.92 0 0 0 -26.84 -6.26 84.14 84.14 0 0 0 3.78 -13.56 79.08 79.08 0 0 1 21.06 5.82zm7.76 72.56c-20 -9.62 -54.96 -12.58 -76.88 -14 -14 -0.84 -40 0.8 -54.14 2.12a151.32 151.32 0 0 0 6 -18.2c16 -1.36 49.68 -1.54 64.74 -0.76 13.64 0.66 33.32 4.28 46.62 7.04a92 92 0 0 1 17.14 5.62 151.04 151.04 0 0 1 -3.48 18.18zm-36.98 -55.78c21.48 2.98 24.12 4.12 35.52 8.76a58.42 58.42 0 0 1 5.06 19c-20.78 -8 -47.76 -10.94 -69.78 -12.82 -14.46 -1.2 -42 0 -56.72 1.06a122 122 0 0 0 1.86 -14.64c11.5 -1.6 30 -2.74 41.62 -3.24 15.82 18.74 33.04 16.5 42.44 1.88zM112.58 250c5.6 11.48 5.8 11.42 7.5 14 -11.38 0.68 -24.6 2 -34.48 3.38a110.38 110.38 0 0 0 -1.76 -14.92c8.52 -1.14 20.16 -2 28.74 -2.46zM71.2 329.66c14.66 -1.6 41.42 -2.38 56.42 -2.38 -3.18 1.62 -4 7.18 -4.22 10.76 -17.64 -2.26 -40.46 -0.52 -58 2.4a120.14 120.14 0 0 0 5.8 -10.78zm127.54 -80.74a127.62 127.62 0 0 0 -19.42 -5.22 138.3 138.3 0 0 0 0.94 -14.34 52.92 52.92 0 0 1 9.7 5c3.88 2.44 7.68 5.14 8.92 6 -0.04 1.24 -0.14 4.56 -0.14 8.56zm-14.44 -20a171.1 171.1 0 0 0 -24 -8.62 41.5 41.5 0 0 1 -1.14 -9.28c4.34 -2 -2.3 -1.16 21.48 1.12 3.84 18.14 4.52 17.24 3.66 16.86zm-84.44 -6c2 4.5 5.02 10.88 8 17.16 -9.3 0.76 -18.84 1.8 -26.24 2.84 -1.08 -3.78 -1.18 -4.36 -5.34 -13.16 6.42 -3.36 16.4 -5.58 23.58 -6.7zm-22 162.14a86.56 86.56 0 0 1 -30.74 1.02c-13.52 -2 -21.56 -7.16 -26.42 -14 -5.9 -8.42 -7.06 -19.28 -7.66 -29.62a102.78 102.78 0 0 1 3 -28 151.22 151.22 0 0 1 8.82 -26.88 149.52 149.52 0 0 1 25.54 -39.08c6.16 -6.54 15.72 -14.62 24.22 -17.5 12.5 26.52 11.18 53.66 1.64 81.38a133.04 133.04 0 0 1 -13.6 28.8 0.92 0.92 0 0 0 0.92 1.44c16.72 -3.16 42.44 -5.3 60.44 -2.96a0.76 0.76 0 0 0 0.86 -0.72c0.12 -3 0.72 -9.12 3.46 -10.4a1.54 1.54 0 0 1 1.7 0.18c2.34 1.78 2.22 7.82 2.66 9.78 0.16 0.74 0.52 1.12 0.8 1.2 3.88 1.26 10.94 -1.72 13.02 1.32a4 4 0 0 1 0.36 3.18c-0.4 1.52 -4.44 2 -6 2.26 -2.44 0 -4.98 0.22 -5.74 0.22s-0.78 1.02 0 1.12c4.8 0.24 10.22 -1.22 12 0.62a3 3 0 0 1 0.44 3.18 3.78 3.78 0 0 1 -1.04 1.24 10.5 10.5 0 0 1 -3.86 0.88c-6 0.74 -6.58 0 -6.74 0.78a0.46 0.46 0 0 0 0.24 0.5c0.78 0.12 10 0 10.62 1 1.28 2 0.86 4 -1.82 5.44 -5.18 2.76 -22.32 6 -24 6.78 -12.54 5.78 -26.48 13.44 -43.2 16.98zm53.74 -18.58a80.44 80.44 0 0 0 14 -4.42c3.06 -1.66 3.62 -4.24 2 -6.64 -0.52 -0.82 -3.22 -1.02 -3.54 -1.06a10.44 10.44 0 0 0 3.02 -0.78c11.16 1.08 24.12 3.14 35.18 5.18a122.28 122.28 0 0 1 23.26 7.58c0.28 4 0.56 7.78 0.8 11.12 -21.48 -7.84 -52.22 -9.94 -74.8 -10.84zm73.34 -10.3c-16.36 -7.12 -39.4 -10.3 -56.78 -12a5.08 5.08 0 0 0 -0.52 -4c-2.6 -3.86 -9.76 -0.76 -13.46 -1.84 -0.62 -2.48 -0.22 -9.28 -3.62 -11.18 17.12 0.12 35.12 2.9 52.14 6a116.12 116.12 0 0 1 22.26 7.16 64.32 64.32 0 0 0 -0.1 16zm72.5 -33.4c-1.04 14.62 -4.4 31.66 -16.56 39.86 -9.14 6.2 -23.28 7.8 -32.86 5.18 -8.64 -2.38 -16 -8.26 -21.8 -14.98a62.94 62.94 0 0 1 0.36 -12.46 1 1 0 0 0 0.28 -0.54c1.12 -6.94 1.58 -7.02 1.26 -7.68 1.28 -6.1 2.92 -12.86 3.58 -19.02a1 1 0 0 0 0.28 -0.62 57.88 57.88 0 0 0 0.2 -8 0.96 0.96 0 0 0 -0.2 -0.58c-0.48 -9.58 -3.12 -15.16 -7.32 -26.4a48.64 48.64 0 0 1 -3.86 -19.32c0 -1.08 -0.32 -5.32 0 -17.3a47.4 47.4 0 0 1 4.54 4.28c8.8 9.52 25.84 33.08 27.72 34.32a64.9 64.9 0 0 0 -8.98 16.12c-0.76 2 -1.38 4.16 -2 6.24a0.4 0.4 0 0 0 0.74 0.28c0.26 -0.54 6.12 -12.5 9.14 -18.46 3.2 -6.3 6.5 -10.24 12.86 -20.34 4.42 2.32 15.62 4 20.6 3.72 2.26 4.34 7.86 5.7 12 4.6a331.78 331.78 0 0 1 -0.06 51.24zm-22 -98.96a5.34 5.34 0 0 0 -6 1.48c-0.88 0.94 -2.88 0 -2.9 -0.78a3.72 3.72 0 0 1 2.22 -3.48c3 -2 6.56 0.44 8 0.44a1.02 1.02 0 0 0 0.94 -1.12c0 -0.88 -2.32 -14.12 0 -15.38a1.54 1.54 0 0 1 1.1 0 14.46 14.46 0 0 1 2 5.32c0.98 4.52 1.5 10 1.5 10a0.98 0.98 0 0 0 1.06 0.86 0.96 0.96 0 0 0 0.84 -1.06c-0.6 -6.32 0.38 -10 1.26 -10.12 1.28 0 2 0.4 2.16 2 0.44 2.78 -0.34 20.34 1.24 23.48a72.72 72.72 0 0 1 5.04 14 9.5 9.5 0 0 0 -8.98 7.2c-3.54 -0.44 -10.98 -0.74 -15.04 -1.44a88 88 0 0 0 5.18 -12.66c0.3 -1.02 0.8 -2.84 0.22 -3.72 -0.78 -1.24 -3.66 -1.46 -5.38 -2.36s-4 -2.94 -3.36 -5.14c0.18 -0.74 2.7 -0.88 2.92 -0.38 2 4.86 7.72 4.62 8.48 -1.36 0.32 -3.18 -0.9 -4.94 -2.5 -5.6zm-6 32c4.3 1.12 10.52 1.76 15.04 2.42a16.52 16.52 0 0 0 0.24 7c-4.5 0 -15.36 -1.46 -19.04 -3.02 1.22 -1.98 2.52 -4.22 3.7 -6.22zm-15.82 22.48a158.42 158.42 0 0 1 -10.64 -12.96 215.66 215.66 0 0 0 29.62 -20.5c-4.44 12.12 -8.78 17.76 -19.04 33.56zm46.14 -15.7a5.04 5.04 0 0 1 -7.82 3.34c-2 -1.28 -2.34 -4.6 -2 -7 0.74 -6.86 8.9 -7.78 10 0.22a10.32 10.32 0 0 1 -0.24 3.54zm106.98 -76.94c-3.74 10.92 -48.7 19.76 -60 21.86a1.08 1.08 0 0 0 -0.86 0.96c-0.88 12.7 -3.5 41.68 -10.62 52.28a7.58 7.58 0 0 1 -8.38 3.84c-6.84 -0.64 -16.6 -5.3 -22.72 -8.46a9.48 9.48 0 0 0 -8.3 -6.84 73.78 73.78 0 0 0 -5.34 -14.86 24 24 0 0 1 -0.74 -6.5c-0.54 -13.88 0.58 -17.1 -1.62 -19.08a3.84 3.84 0 0 0 -2.9 -0.86 2.54 2.54 0 0 0 -2 1.16c-1.02 1.48 -0.28 2.44 -1.16 -0.9 -0.42 -1.66 -1.24 -4.68 -2.88 -5.08 -6.28 -1.56 -4.5 9.7 -3.6 16.16a12.78 12.78 0 0 0 -4 -0.84c-6 0 -9.52 7.26 -4.38 8.84a3.32 3.32 0 0 0 3.52 -0.8c2 -2.18 5.88 -1.86 5.32 2.64s-3.78 4.2 -5.22 0.9c-0.92 -2 -5.54 -1.52 -6 0.66 -0.72 2.98 1.5 5.54 4.24 6.96 1.3 0.68 3.7 1.12 4.58 1.62 0.3 0.18 0.24 0.16 0.26 0.38a8.38 8.38 0 0 1 -0.2 1.42c-9.06 7.36 -21.8 17.06 -32.16 22.5 -11.48 -14.62 -18.96 -24.62 -34.36 -33.24 -5.1 -19.02 -4 -20.16 -5.54 -20.32 -5.16 -0.48 -11.24 -1.12 -17.52 -2 6 -4.6 7.58 -10.18 8.86 -17.5a108.38 108.38 0 0 0 0.72 -32.2c-0.7 -4.88 -0.88 -3.34 -0.22 -4.5a4.36 4.36 0 0 0 0.4 -3.5l1.68 0.4a6.46 6.46 0 0 0 6.28 -4.5c0.98 -3.4 -1.68 -6 -4.94 -7.4 2.88 -0.8 5.06 -2.44 4 -5.24 -1.32 -3.52 -5.26 -4.76 -8.98 -5.14a6.1 6.1 0 0 0 -0.86 0c5.04 -4 -0.56 -11.6 -9.76 -9.26a6.82 6.82 0 0 0 -0.58 -6.56 3.68 3.68 0 0 0 -2.66 -1.12c-2.44 -0.18 -1.04 0.92 -0.36 -2.84 0.94 -5.1 -3.74 -6.2 -7.74 -3.76a6.14 6.14 0 0 0 0 -4.18c-1.86 -4.18 -7.28 -3.76 -10 -0.54a6.72 6.72 0 0 0 -1.2 2.92c-2 -3.84 -9.6 -10 -15.88 -9.38a4.32 4.32 0 0 0 -3.76 4.98c-2 -5.72 -0.8 -8 2.28 -10.6 9.62 -8 37.72 -13.64 50 -15.88a0.7 0.7 0 0 0 0.6 -0.68c0.56 -11.12 2.84 -48.16 12.78 -52.88C194 14.36 244.66 41.24 245.8 40.24c8.76 -7.52 38.4 -32.38 49.32 -28.74S316 54.34 318.76 65.74a0.74 0.74 0 0 0 0.66 0.56c11.22 0.82 53.22 4.28 58.42 14.46s-17.2 44.34 -23.56 53.84a1 1 0 0 0 0.1 1.2c7.48 8.2 35.88 39.44 32.3 49.96z" stroke-width="1"></path><path d="M306.12 97.5c-2.44 -2.22 -10.52 -8.56 -13.08 -8.8a1.2 1.2 0 0 0 -0.96 0.28c-2.44 2.16 -51 47.7 -52.54 49.36 -2 -1.38 -18.58 -18.26 -22 -18.28 -5.36 0 -18.96 12.82 -18 17.72 1.26 5.82 33.24 37.1 41.02 37.44 11.64 0.48 62.98 -59.14 70.68 -68 2.34 -2.66 -2.5 -7.38 -5.12 -9.72zM134 165.56a9.64 9.64 0 0 1 6 -0.98 13.46 13.46 0 0 1 5.82 2 0.4 0.4 0 0 0 0.68 -0.4c-1.28 -3.34 -9.72 -5.62 -13.04 -1.18a0.4 0.4 0 1 0 0.54 0.56zm18.6 21.08c2.74 0.54 8 0 8.28 -2.84a40.3 40.3 0 0 0 -4.46 -18.78 0.4 0.4 0 0 0 -0.72 0.36c1.04 2.54 3.58 14.78 3.3 18.24 0 0.64 -1.82 1.36 -2.46 1.58 -3.38 1.12 -4.22 0.26 -4.3 1a0.4 0.4 0 0 0 0.36 0.44zM164 165.52c0.12 1.28 -0.14 2.62 1.06 2.66a0.98 0.98 0 0 0 1 -1.24 16.2 16.2 0 0 0 -0.24 -2.66c0.28 -1.68 -2.76 -1.56 -1.88 0.66zm-18.64 26.1a0.4 0.4 0 0 0 -0.2 0.54 9.02 9.02 0 0 0 12.64 6.28 0.4 0.4 0 0 0 -0.22 -0.78 13.82 13.82 0 0 1 -5.16 -0.46 9.24 9.24 0 0 1 -3.2 -1.76C146 192.8 146 191.32 145.36 191.62zm75.82 19.5c-0.82 -0.24 -1.46 -0.34 -1.86 0.44a28 28 0 0 0 -1.52 6.58c0 0.36 0 0.78 0.34 0.86a56 56 0 0 0 16.36 0.68c1.24 -0.3 1.54 -1.38 0.7 -2.16 -1.64 -1.52 -11.02 -5.52 -14.02 -6.4zm-2.58 7.18a37.38 37.38 0 0 1 2 -5.7c0.34 0.16 6.82 2.7 11.76 5.38a130.66 130.66 0 0 1 -13.76 0.32zm21.84 -23.5a1.04 1.04 0 0 0 -0.96 -0.2 21.62 21.62 0 0 0 -6.5 3.4 0.5 0.5 0 0 0 0 0.38 55.68 55.68 0 0 0 9.8 13.12c1.02 0.78 2 0.32 2.12 -0.82 0.12 -2.14 -3.3 -14.9 -4.46 -15.88zm-6.64 3.48a36.36 36.36 0 0 1 5.64 -2c0 0.42 2.36 7.8 3.22 12.52 -1.2 -1.36 -8.02 -9 -8.86 -10.52z" stroke-width="1"></path></g></svg>